<svg viewBox="0 0 32 32" xmlns="http://www.w3.org/2000/svg" fill="none">
  <g transform="translate(-1080 -1944)">
<path id="Vector 1345" d="M1084 1946L1088 1946L1088 1948L1084 1948L1084 1952L1082 1952L1082 1948C1082 1947.47 1082.21 1946.96 1082.59 1946.59C1082.96 1946.21 1083.47 1946 1084 1946ZM1108 1946L1104 1946L1104 1948L1108 1948L1108 1952L1110 1952L1110 1948C1110 1947.47 1109.79 1946.96 1109.41 1946.59C1109.04 1946.21 1108.53 1946 1108 1946ZM1084 1972L1084 1968L1082 1968L1082 1972C1082 1972.53 1082.21 1973.04 1082.59 1973.41C1082.96 1973.79 1083.47 1974 1084 1974L1088 1974L1088 1972L1084 1972ZM1108 1968L1108 1972L1104 1972L1104 1974L1108 1974C1108.53 1974 1109.04 1973.79 1109.41 1973.41C1109.79 1973.04 1110 1972.53 1110 1972L1110 1968L1108 1968ZM1096 1960C1096 1958.41 1095.37 1956.88 1094.24 1955.76C1093.12 1954.63 1091.59 1954 1090 1954C1088.41 1954 1086.88 1954.63 1085.76 1955.76C1084.63 1956.88 1084 1958.41 1084 1960C1084 1961.59 1084.63 1963.12 1085.76 1964.24C1086.88 1965.37 1088.41 1966 1090 1966C1091.59 1966 1093.12 1965.37 1094.24 1964.24C1095.37 1963.12 1096 1961.59 1096 1960ZM1102 1956C1099.79 1956 1098 1957.79 1098 1960C1098 1962.21 1099.79 1964 1102 1964C1104.21 1964 1106 1962.21 1106 1960C1106 1957.79 1104.21 1956 1102 1956ZM1102 1954C1103.59 1954 1105.12 1954.63 1106.24 1955.76C1107.37 1956.88 1108 1958.41 1108 1960C1108 1961.59 1107.37 1963.12 1106.24 1964.24C1105.12 1965.37 1103.59 1966 1102 1966C1100.41 1966 1098.88 1965.37 1097.76 1964.24C1096.63 1963.12 1096 1961.59 1096 1960C1096 1958.41 1096.63 1956.88 1097.76 1955.76C1098.88 1954.63 1100.41 1954 1102 1954Z" fill="currentColor" fill-rule="nonzero" />
  </g>
</svg>

