<svg viewBox="0 0 32 32" xmlns="http://www.w3.org/2000/svg" fill="none">
  <g transform="translate(-1368.000122 -1944)">
<path id="Vector 1349" d="M1372 1968L1370 1968L1370 1972C1370 1972.53 1370.21 1973.04 1370.59 1973.41C1370.96 1973.79 1371.47 1974 1372 1974L1376 1974L1376 1972L1372 1972L1372 1968ZM1370 1948L1370 1952L1372 1952L1372 1948L1376 1948L1376 1946L1372 1946C1371.47 1946 1370.96 1946.21 1370.59 1946.59C1370.21 1946.96 1370 1947.47 1370 1948ZM1396 1946L1392 1946L1392 1948L1396 1948L1396 1952L1398 1952L1398 1948C1398 1947.47 1397.79 1946.96 1397.41 1946.59C1397.04 1946.21 1396.53 1946 1396 1946ZM1396 1972L1392 1972L1392 1974L1396 1974C1396.53 1974 1397.04 1973.79 1397.41 1973.41C1397.79 1973.04 1398 1972.53 1398 1972L1398 1968L1396 1968L1396 1972ZM1385.71 1950.29C1385.52 1950.11 1385.27 1950 1385 1950L1379 1950C1378.47 1950 1377.96 1950.21 1377.59 1950.59C1377.21 1950.96 1377 1951.47 1377 1952L1377 1968C1377 1968.53 1377.21 1969.04 1377.59 1969.41C1377.96 1969.79 1378.47 1970 1379 1970L1389 1970C1389.53 1970 1390.04 1969.79 1390.41 1969.41C1390.79 1969.04 1391 1968.53 1391 1968L1391 1956C1391 1955.73 1390.89 1955.48 1390.71 1955.29L1385.71 1950.29ZM1385 1952.41L1388.59 1956L1385 1956L1385 1952.41ZM1389 1968L1379 1968L1379 1952L1383 1952L1383 1956C1383 1956.53 1383.21 1957.04 1383.59 1957.41C1383.96 1957.79 1384.47 1958 1385 1958L1389 1958L1389 1968Z" fill="currentColor" fill-rule="nonzero" />
  </g>
</svg>

