<svg viewBox="0 0 32 32" xmlns="http://www.w3.org/2000/svg" fill="none">
  <g transform="translate(-0 -0)">
<path id="Vector 1" d="M19.3 20.7L15 16.4L15 10L17 10L17 15.6L20.7 19.3L19.3 20.7ZM16 8C20.411 8 24 11.589 24 16C24 20.411 20.411 24 16 24C11.589 24 8 20.411 8 16C8 11.589 11.589 8 16 8ZM16 6C10.477 6 6 10.477 6 16C6 21.523 10.477 26 16 26C21.523 26 26 21.523 26 16C26 10.477 21.523 6 16 6ZM4 2L8 2L8 4L4 4L4 8L2 8L2 4C2 3.46957 2.21071 2.96086 2.58579 2.58579C2.96086 2.21071 3.46957 2 4 2ZM30 4L30 8L28 8L28 4L24 4L24 2L28 2C28.5304 2 29.0391 2.21071 29.4142 2.58579C29.7893 2.96086 30 3.46957 30 4ZM8 28L8 30L4 30C3.46957 30 2.96086 29.7893 2.58579 29.4142C2.21071 29.0391 2 28.5304 2 28L2 24L4 24L4 28L8 28ZM30 24L30 28C30 28.5304 29.7893 29.0391 29.4142 29.4142C29.0391 29.7893 28.5304 30 28 30L24 30L24 28L28 28L28 24L30 24Z" fill="currentColor" fill-rule="nonzero" />
  </g>
</svg>

