<svg viewBox="0 0 32 32" xmlns="http://www.w3.org/2000/svg" fill="none">
  <g transform="translate(-1152 -1944)">
<path id="Vector 1346" d="M1175 1952L1173 1952L1173 1950L1171 1950L1171 1952L1165 1952L1165 1950L1163 1950L1163 1952L1161 1952C1160.47 1952 1159.96 1952.21 1159.59 1952.59C1159.21 1952.96 1159 1953.47 1159 1954L1159 1966C1159 1966.53 1159.21 1967.04 1159.59 1967.41C1159.96 1967.79 1160.47 1968 1161 1968L1175 1968C1175.53 1968 1176.04 1967.79 1176.41 1967.41C1176.79 1967.04 1177 1966.53 1177 1966L1177 1954C1177 1953.47 1176.79 1952.96 1176.41 1952.59C1176.04 1952.21 1175.53 1952 1175 1952ZM1161 1966L1161 1959L1175 1959L1175 1966L1161 1966ZM1175 1957L1161 1957L1161 1954L1163 1954L1163 1955L1165 1955L1165 1954L1171 1954L1171 1955L1173 1955L1173 1954L1175 1954L1175 1957ZM1156 1946L1160 1946L1160 1948L1156 1948L1156 1952L1154 1952L1154 1948C1154 1947.47 1154.21 1946.96 1154.59 1946.59C1154.96 1946.21 1155.47 1946 1156 1946ZM1182 1948L1182 1952L1180 1952L1180 1948L1176 1948L1176 1946L1180 1946C1180.53 1946 1181.04 1946.21 1181.41 1946.59C1181.79 1946.96 1182 1947.47 1182 1948ZM1160 1972L1160 1974L1156 1974C1155.47 1974 1154.96 1973.79 1154.59 1973.41C1154.21 1973.04 1154 1972.53 1154 1972L1154 1968L1156 1968L1156 1972L1160 1972ZM1182 1968L1182 1972C1182 1972.53 1181.79 1973.04 1181.41 1973.41C1181.04 1973.79 1180.53 1974 1180 1974L1176 1974L1176 1972L1180 1972L1180 1968L1182 1968Z" fill="currentColor" fill-rule="nonzero" />
  </g>
</svg>

