<svg viewBox="0 0 32 32" xmlns="http://www.w3.org/2000/svg" fill="none">
  <g transform="translate(-1296 -1944)">
<path id="Vector 1348" d="M1300 1968L1298 1968L1298 1972C1298 1972.53 1298.21 1973.04 1298.59 1973.41C1298.96 1973.79 1299.47 1974 1300 1974L1304 1974L1304 1972L1300 1972L1300 1968ZM1324 1946L1320 1946L1320 1948L1324 1948L1324 1952L1326 1952L1326 1948C1326 1947.47 1325.79 1946.96 1325.41 1946.59C1325.04 1946.21 1324.53 1946 1324 1946ZM1298 1948L1298 1952L1300 1952L1300 1948L1304 1948L1304 1946L1300 1946C1299.47 1946 1298.96 1946.21 1298.59 1946.59C1298.21 1946.96 1298 1947.47 1298 1948ZM1324 1972L1320 1972L1320 1974L1324 1974C1324.53 1974 1325.04 1973.79 1325.41 1973.41C1325.79 1973.04 1326 1972.53 1326 1972L1326 1968L1324 1968L1324 1972ZM1301 1963L1301 1965L1303 1965L1303 1963L1301 1963ZM1309 1955L1307 1955C1306.47 1955 1305.96 1955.21 1305.59 1955.59C1305.21 1955.96 1305 1956.47 1305 1957L1305 1963C1305 1963.53 1305.21 1964.04 1305.59 1964.41C1305.96 1964.79 1306.47 1965 1307 1965L1309 1965C1309.53 1965 1310.04 1964.79 1310.41 1964.41C1310.79 1964.04 1311 1963.53 1311 1963L1311 1957C1311 1956.47 1310.79 1955.96 1310.41 1955.59C1310.04 1955.21 1309.53 1955 1309 1955ZM1309 1963L1307 1963L1307 1957L1309 1957L1309 1963ZM1317 1955L1315 1955C1314.47 1955 1313.96 1955.21 1313.59 1955.59C1313.21 1955.96 1313 1956.47 1313 1957L1313 1963C1313 1963.53 1313.21 1964.04 1313.59 1964.41C1313.96 1964.79 1314.47 1965 1315 1965L1317 1965C1317.53 1965 1318.04 1964.79 1318.41 1964.41C1318.79 1964.04 1319 1963.53 1319 1963L1319 1957C1319 1956.47 1318.79 1955.96 1318.41 1955.59C1318.04 1955.21 1317.53 1955 1317 1955ZM1317 1963L1315 1963L1315 1957L1317 1957L1317 1963Z" fill="currentColor" fill-rule="nonzero" />
  </g>
</svg>

