<svg viewBox="0 0 32 32" xmlns="http://www.w3.org/2000/svg" fill="none">
  <g transform="translate(-72 -0)">
<path id="Vector 2" d="M76 24L74 24L74 28C74 28.5304 74.2107 29.0391 74.5858 29.4142C74.9609 29.7893 75.4696 30 76 30L80 30L80 28L76 28L76 24ZM74 4L74 8L76 8L76 4L80 4L80 2L76 2C75.4696 2 74.9609 2.21071 74.5858 2.58579C74.2107 2.96086 74 3.46957 74 4ZM100 2L96 2L96 4L100 4L100 8L102 8L102 4C102 3.46957 101.789 2.96086 101.414 2.58579C101.039 2.21071 100.53 2 100 2ZM100 28L96 28L96 30L100 30C100.53 30 101.039 29.7893 101.414 29.4142C101.789 29.0391 102 28.5304 102 28L102 24L100 24L100 28ZM88 16C88.6567 15.9999 89.3069 15.8705 89.9136 15.6192C90.5202 15.3678 91.0714 14.9994 91.5357 14.535C92 14.0706 92.3683 13.5194 92.6196 12.9126C92.8708 12.3059 93.0001 11.6557 93 10.999C92.9999 10.3423 92.8705 9.69209 92.6192 9.08543C92.3678 8.47877 91.9994 7.92755 91.535 7.46326C91.0706 6.99897 90.5194 6.63069 89.9126 6.37945C89.3059 6.12821 88.6557 5.99893 87.999 5.999C86.6728 5.99913 85.4009 6.5261 84.4633 7.46397C83.5256 8.40184 82.9989 9.67378 82.999 11C82.9991 12.3262 83.5261 13.5981 84.464 14.5357C85.4018 15.4734 86.6738 16.0001 88 16ZM87.899 8L88 8C88.5933 8 89.1734 8.17595 89.6667 8.50559C90.1601 8.83524 90.5446 9.30377 90.7716 9.85195C90.9987 10.4001 91.0581 11.0033 90.9424 11.5853C90.8266 12.1672 90.5409 12.7018 90.1213 13.1213C89.7018 13.5409 89.1672 13.8266 88.5853 13.9424C88.0033 14.0581 87.4001 13.9987 86.8519 13.7716C86.3038 13.5446 85.8352 13.1601 85.5056 12.6667C85.1759 12.1734 85 11.5933 85 11C84.9866 10.2177 85.2845 9.46222 85.8282 8.89962C86.3719 8.33701 87.1167 8.01341 87.899 8ZM90 18L86 18C84.6739 18 83.4021 18.5268 82.4645 19.4645C81.5268 20.4021 81 21.6739 81 23L81 26L83 26L83 23C83 22.2044 83.3161 21.4413 83.8787 20.8787C84.4413 20.3161 85.2044 20 86 20L90 20C90.7956 20 91.5587 20.3161 92.1213 20.8787C92.6839 21.4413 93 22.2044 93 23L93 26L95 26L95 23C95 22.3434 94.8707 21.6932 94.6194 21.0866C94.3681 20.48 93.9998 19.9288 93.5355 19.4645C93.0712 19.0002 92.52 18.6319 91.9134 18.3806C91.3068 18.1293 90.6566 18 90 18Z" fill="currentColor" fill-rule="nonzero" />
  </g>
</svg>

