<svg viewBox="0 0 32 32" xmlns="http://www.w3.org/2000/svg" fill="none">
  <g transform="translate(-1440.000122 -1944)">
<path id="Vector 1350" d="M1451 1963L1451 1965L1445 1965L1445 1963L1447 1963L1447 1958L1445 1958L1445 1956L1447 1956L1447 1955L1449 1955L1449 1963L1451 1963ZM1459 1963L1455 1963L1455 1961L1457 1961C1458.1 1961 1459 1960.1 1459 1959L1459 1957C1459 1955.9 1458.1 1955 1457 1955L1453 1955L1453 1957L1457 1957L1457 1959L1455 1959C1453.9 1959 1453 1959.9 1453 1961L1453 1965L1459 1965L1459 1963ZM1465 1955L1461 1955L1461 1957L1465 1957L1465 1959L1462 1959L1462 1961L1465 1961L1465 1963L1461 1963L1461 1965L1465 1965C1466.1 1965 1467 1964.1 1467 1963L1467 1957C1467 1955.9 1466.1 1955 1465 1955ZM1442 1948L1442 1952L1444 1952L1444 1948L1448 1948L1448 1946L1444 1946C1443.47 1946 1442.96 1946.21 1442.59 1946.59C1442.21 1946.96 1442 1947.47 1442 1948ZM1468 1946L1464 1946L1464 1948L1468 1948L1468 1952L1470 1952L1470 1948C1470 1947.47 1469.79 1946.96 1469.41 1946.59C1469.04 1946.21 1468.53 1946 1468 1946ZM1444 1972L1444 1968L1442 1968L1442 1972C1442 1972.53 1442.21 1973.04 1442.59 1973.41C1442.96 1973.79 1443.47 1974 1444 1974L1448 1974L1448 1972L1444 1972ZM1468 1968L1468 1972L1464 1972L1464 1974L1468 1974C1468.53 1974 1469.04 1973.79 1469.41 1973.41C1469.79 1973.04 1470 1972.53 1470 1972L1470 1968L1468 1968Z" fill="currentColor" fill-rule="nonzero" />
  </g>
</svg>

