<svg viewBox="0 0 32 32" xmlns="http://www.w3.org/2000/svg" fill="none">
  <g transform="translate(-1512.000122 -1944)">
<path id="Vector 1351" d="M1522 1951L1525 1951L1525 1953L1522 1953L1522 1957C1522 1958.2 1521.46 1959.27 1520.62 1960C1521.46 1960.73 1522 1961.8 1522 1963L1522 1967L1525 1967L1525 1969L1522 1969C1520.9 1969 1520 1968.1 1520 1967L1520 1963C1520 1961.9 1519.1 1961 1518 1961L1518 1959C1519.1 1959 1520 1958.1 1520 1957L1520 1953C1520 1951.9 1520.9 1951 1522 1951ZM1536 1957L1536 1953C1536 1951.9 1535.1 1951 1534 1951L1531 1951L1531 1953L1534 1953L1534 1957C1534 1958.2 1534.54 1959.27 1535.38 1960C1534.95 1960.37 1534.6 1960.83 1534.37 1961.35C1534.13 1961.87 1534 1962.43 1534 1963L1534 1967L1531 1967L1531 1969L1534 1969C1535.1 1969 1536 1968.1 1536 1967L1536 1963C1536 1961.9 1536.9 1961 1538 1961L1538 1959C1536.9 1959 1536 1958.1 1536 1957ZM1514 1948L1514 1952L1516 1952L1516 1948L1520 1948L1520 1946L1516 1946C1515.47 1946 1514.96 1946.21 1514.59 1946.59C1514.21 1946.96 1514 1947.47 1514 1948ZM1540 1946L1536 1946L1536 1948L1540 1948L1540 1952L1542 1952L1542 1948C1542 1947.47 1541.79 1946.96 1541.41 1946.59C1541.04 1946.21 1540.53 1946 1540 1946ZM1516 1972L1516 1968L1514 1968L1514 1972C1514 1972.53 1514.21 1973.04 1514.59 1973.41C1514.96 1973.79 1515.47 1974 1516 1974L1520 1974L1520 1972L1516 1972ZM1540 1968L1540 1972L1536 1972L1536 1974L1540 1974C1540.53 1974 1541.04 1973.79 1541.41 1973.41C1541.79 1973.04 1542 1972.53 1542 1972L1542 1968L1540 1968Z" fill="currentColor" fill-rule="nonzero" />
  </g>
</svg>

