<svg viewBox="0 0 32 32" xmlns="http://www.w3.org/2000/svg" fill="none">
  <g transform="translate(-1224 -1944)">
<path id="Vector 1347" d="M1244 1958C1242.41 1958 1240.88 1958.63 1239.76 1959.76C1238.63 1960.88 1238 1962.41 1238 1964C1238 1965.59 1238.63 1967.12 1239.76 1968.24C1240.88 1969.37 1242.41 1970 1244 1970C1245.59 1970 1247.12 1969.37 1248.24 1968.24C1249.37 1967.12 1250 1965.59 1250 1964C1250 1962.41 1249.37 1960.88 1248.24 1959.76C1247.12 1958.63 1245.59 1958 1244 1958ZM1245.59 1967L1243 1964.42L1243 1960L1245 1960L1245 1963.59L1247 1965.59L1245.59 1967ZM1232 1953L1235 1953L1235 1955L1237 1955L1237 1953L1243 1953L1243 1955L1245 1955L1245 1953L1248 1953L1248 1957L1250 1957L1250 1953C1250 1951.9 1249.1 1951 1248 1951L1245 1951L1245 1949L1243 1949L1243 1951L1237 1951L1237 1949L1235 1949L1235 1951L1232 1951C1230.9 1951 1230 1951.9 1230 1953L1230 1967C1230 1968.1 1230.9 1969 1232 1969L1236 1969L1236 1967L1232 1967L1232 1953ZM1228 1968L1226 1968L1226 1972C1226 1973.1 1226.9 1974 1228 1974L1232 1974L1232 1972L1228 1972L1228 1968ZM1252 1972L1248 1972L1248 1974L1252 1974C1253.1 1974 1254 1973.1 1254 1972L1254 1968L1252 1968L1252 1972ZM1228 1948L1232 1948L1232 1946L1228 1946C1226.9 1946 1226 1946.9 1226 1948L1226 1952L1228 1952L1228 1948ZM1252 1946L1248 1946L1248 1948L1252 1948L1252 1952L1254 1952L1254 1948C1254 1946.9 1253.1 1946 1252 1946Z" fill="currentColor" fill-rule="nonzero" />
  </g>
</svg>

