<svg viewBox="0 0 32 32" xmlns="http://www.w3.org/2000/svg" fill="none">
  <g transform="translate(-1584.000122 -1944)">
<path id="Vector 1352" d="M1588 1972L1592 1972L1592 1974L1588 1974C1587.47 1974 1586.96 1973.79 1586.59 1973.41C1586.21 1973.04 1586 1972.53 1586 1972L1586 1968L1588 1968L1588 1972ZM1595 1957L1595 1965L1590 1965C1589.47 1965 1588.96 1964.79 1588.59 1964.41C1588.21 1964.04 1588 1963.53 1588 1963L1588 1961C1588 1960.47 1588.21 1959.96 1588.59 1959.59C1588.96 1959.21 1589.47 1959 1590 1959L1593 1959L1593 1957L1589 1957L1589 1955L1593 1955C1594.1 1955 1595 1955.9 1595 1957ZM1593 1961L1590 1961L1590 1963L1593 1963L1593 1961ZM1588 1948L1592 1948L1592 1946L1588 1946C1587.47 1946 1586.96 1946.21 1586.59 1946.59C1586.21 1946.96 1586 1947.47 1586 1948L1586 1952L1588 1952L1588 1948ZM1612 1946L1608 1946L1608 1948L1612 1948L1612 1952L1614 1952L1614 1948C1614 1947.47 1613.79 1946.96 1613.41 1946.59C1613.04 1946.21 1612.53 1946 1612 1946ZM1612 1972L1608 1972L1608 1974L1612 1974C1612.53 1974 1613.04 1973.79 1613.41 1973.41C1613.79 1973.04 1614 1972.53 1614 1972L1614 1968L1612 1968L1612 1972ZM1612 1965L1612 1963L1608 1963L1608 1957L1612 1957L1612 1955L1608 1955C1606.9 1955 1606 1955.9 1606 1957L1606 1963C1606 1964.1 1606.9 1965 1608 1965L1612 1965ZM1604 1957L1604 1963C1604 1964.1 1603.1 1965 1602 1965L1597 1965L1597 1952L1599 1952L1599 1955L1602 1955C1603.1 1955 1604 1955.9 1604 1957ZM1602 1957L1599 1957L1599 1963L1602 1963L1602 1957Z" fill="currentColor" fill-rule="nonzero" />
  </g>
</svg>

