<svg viewBox="0 0 32 32" xmlns="http://www.w3.org/2000/svg" fill="none">
  <g transform="translate(-144 -0)">
<path id="Vector 3" d="M146 28L174 28L174 30L146 30L146 28ZM161.21 5.23L162.6 5.61L163.6 16.9L169.47 18.47C169.943 18.5816 170.358 18.8613 170.64 19.2569C170.921 19.6525 171.049 20.137 171 20.62C170.943 20.9786 170.783 21.313 170.54 21.5827C170.297 21.8525 169.981 22.046 169.63 22.14C169.302 22.2247 168.958 22.2247 168.63 22.14L149.93 17.14C149.45 17.0087 149.042 16.6937 148.793 16.2631C148.544 15.8326 148.474 15.3212 148.6 14.84L150.35 8.34L151.79 8.72L152.4 13.9L158.4 15.52L161.21 5.23ZM160.21 3.03C160.048 3.07798 159.9 3.16646 159.781 3.28716C159.662 3.40785 159.576 3.55679 159.53 3.72L157 13.07L154.19 12.32L153.69 7.79C153.659 7.60734 153.579 7.43676 153.457 7.29727C153.335 7.15778 153.177 7.05487 153 7L149.87 6.14C149.706 6.09486 149.534 6.09486 149.37 6.14C149.209 6.18706 149.062 6.27404 148.943 6.39289C148.824 6.51175 148.737 6.65864 148.69 6.82L146.69 14.31C146.558 14.8011 146.525 15.3134 146.592 15.8175C146.658 16.3215 146.823 16.8076 147.078 17.2478C147.332 17.688 147.671 18.0737 148.075 18.3829C148.478 18.6922 148.939 18.9188 149.43 19.05L168.14 24.05C168.66 24.1966 169.206 24.2325 169.741 24.1555C170.276 24.0785 170.789 23.8903 171.247 23.6029C171.704 23.3156 172.097 22.9355 172.399 22.4872C172.701 22.0389 172.906 21.5323 173 21C173.133 20.023 172.9 19.0316 172.346 18.2158C171.792 17.4001 170.957 16.8175 170 16.58L165.48 15.37L164.53 4.71C164.508 4.51288 164.428 4.32682 164.299 4.17546C164.171 4.02411 164.001 3.9143 163.81 3.86L160.73 3C160.566 2.96013 160.394 2.96013 160.23 3L160.21 3.03Z" fill="currentColor" fill-rule="nonzero" />
  </g>
</svg>

