<svg viewBox="0 0 32 32" xmlns="http://www.w3.org/2000/svg" fill="none">
  <g transform="translate(-576 -0)">
<path id="Vector 9" d="M599 6L599 16L604 16C604.198 16 604.391 16.0587 604.555 16.1686C604.72 16.2785 604.848 16.4346 604.924 16.6173C604.999 16.8 605.019 17.0011 604.981 17.195C604.942 17.389 604.847 17.5671 604.707 17.707L592.707 29.707C592.519 29.8945 592.265 29.9998 592 29.9998C591.735 29.9998 591.481 29.8945 591.293 29.707L579.293 17.707C579.153 17.5671 579.058 17.389 579.019 17.195C578.981 17.0011 579.001 16.8 579.076 16.6173C579.152 16.4346 579.28 16.2785 579.445 16.1686C579.609 16.0587 579.802 16 580 16L585 16L585 6C585 5.46957 585.211 4.96086 585.586 4.58579C585.961 4.21071 586.469 4 587 4L597 4C597.53 4.00079 598.038 4.21176 598.413 4.58666C598.788 4.96156 598.999 5.46981 599 6ZM592 27.586L601.586 18L597 18L597 6L587 6L587 18L582.414 18L592 27.586Z" fill="currentColor" fill-rule="nonzero" />
  </g>
</svg>

