<svg viewBox="0 0 32 32" xmlns="http://www.w3.org/2000/svg" fill="none">
  <g transform="translate(-1080 -0)">
<path id="Vector 16" d="M1094.98 3C1094.92 3.00019 1094.86 3.00554 1094.81 3.016C1091.62 3.58252 1088.76 5.30669 1086.77 7.85653C1084.78 10.4064 1083.81 13.6016 1084.04 16.8271C1084.26 20.0525 1085.67 23.0801 1088 25.327C1090.32 27.5738 1093.4 28.8811 1096.63 28.997C1096.79 29.003 1096.96 28.997 1097.12 28.997C1099.22 28.9985 1101.29 28.4945 1103.15 27.5276C1105.01 26.5607 1106.62 25.1593 1107.82 23.442C1107.92 23.294 1107.98 23.1229 1107.99 22.9458C1108 22.7687 1107.96 22.592 1107.88 22.4333C1107.8 22.2747 1107.68 22.1397 1107.54 22.0421C1107.39 21.9444 1107.22 21.8875 1107.04 21.877C1105.04 21.7017 1103.11 21.0693 1101.4 20.0288C1099.68 18.9884 1098.23 17.5676 1097.15 15.8764C1096.08 14.1852 1095.4 12.2688 1095.18 10.2754C1094.96 8.28193 1095.21 6.26484 1095.89 4.38C1095.95 4.22913 1095.97 4.06652 1095.95 3.90572C1095.94 3.74492 1095.88 3.59059 1095.79 3.45557C1095.7 3.32055 1095.58 3.20877 1095.44 3.12952C1095.3 3.05028 1095.14 3.00587 1094.98 3Z" fill="currentColor" fill-rule="nonzero" />
  </g>
</svg>

