<svg viewBox="0 0 32 32" xmlns="http://www.w3.org/2000/svg" fill="none">
  <g transform="translate(-1008 -0)">
<path id="Vector 15" d="M1021.5 5.414C1021.04 7.37115 1020.98 9.40018 1021.32 11.3817C1021.66 13.3633 1022.39 15.2574 1023.47 16.9526C1024.55 18.6478 1025.96 20.1099 1027.61 21.2528C1029.26 22.3958 1031.13 23.1966 1033.1 23.608C1032.06 24.679 1030.82 25.531 1029.45 26.1134C1028.08 26.6958 1026.61 26.9966 1025.12 26.998C1024.98 26.998 1024.84 27.003 1024.7 26.998C1022.11 26.9067 1019.63 25.9104 1017.7 24.1822C1015.77 22.454 1014.5 20.1031 1014.12 17.5379C1013.74 14.9727 1014.27 12.3553 1015.62 10.1405C1016.97 7.92564 1019.05 6.2533 1021.5 5.414ZM1022.98 3C1022.92 3.00019 1022.86 3.00554 1022.8 3.016C1019.62 3.58252 1016.76 5.30669 1014.77 7.85653C1012.78 10.4064 1011.81 13.6016 1012.04 16.8271C1012.26 20.0525 1013.67 23.0801 1016 25.327C1018.32 27.5738 1021.4 28.8811 1024.63 28.997C1024.79 29.003 1024.96 28.997 1025.12 28.997C1027.22 28.9985 1029.29 28.4945 1031.15 27.5276C1033.01 26.5607 1034.62 25.1593 1035.82 23.442C1035.92 23.294 1035.98 23.1229 1035.99 22.9458C1036 22.7687 1035.96 22.592 1035.88 22.4333C1035.8 22.2747 1035.68 22.1397 1035.54 22.0421C1035.39 21.9444 1035.22 21.8875 1035.04 21.877C1033.04 21.7017 1031.11 21.0693 1029.4 20.0288C1027.68 18.9884 1026.23 17.5676 1025.15 15.8764C1024.08 14.1852 1023.4 12.2688 1023.18 10.2754C1022.96 8.28193 1023.21 6.26484 1023.89 4.38C1023.95 4.22913 1023.97 4.06652 1023.95 3.90572C1023.93 3.74492 1023.88 3.59059 1023.79 3.45557C1023.7 3.32055 1023.58 3.20877 1023.44 3.12952C1023.3 3.05028 1023.14 3.00587 1022.98 3Z" fill="currentColor" fill-rule="nonzero" />
  </g>
</svg>

