<svg viewBox="0 0 32 32" xmlns="http://www.w3.org/2000/svg" fill="none">
  <g transform="translate(-1152 -0)">
<path id="Vector 17" d="M1160 9L1156 9C1154.9 9 1154 9.897 1154 11L1154 23L1156 23L1156 18L1160 18L1160 23L1162 23L1162 11C1162 9.897 1161.1 9 1160 9ZM1156 16L1156 11L1160 11L1160 16L1156 16ZM1172 21L1172 17C1172 15.897 1171.1 15 1170 15L1166 15L1166 11L1172 11L1172 9L1166 9C1164.9 9 1164 9.897 1164 11L1164 15C1164 16.103 1164.9 17 1166 17L1170 17L1170 21L1164 21L1164 23L1170 23C1171.1 23 1172 22.103 1172 21ZM1180 9L1178.48 14L1178 15.977L1177.54 14L1176 9L1174 9L1174 23L1176 23L1176 15L1175.84 13.004L1176.42 15L1178 19.626L1179.58 15L1180.16 13L1180 15L1180 23L1182 23L1182 9L1180 9Z" fill="currentColor" fill-rule="nonzero" />
  </g>
</svg>

