<svg viewBox="0 0 32 32" xmlns="http://www.w3.org/2000/svg" fill="none">
  <g transform="translate(-1512.000122 -0)">
<path id="Vector 24" d="M1533 27.18L1530.41 24.59L1529 26L1533 30L1540 23L1538.59 21.59L1533 27.18ZM1524 24C1523.21 24 1522.44 23.7654 1521.78 23.3259C1521.12 22.8864 1520.61 22.2616 1520.3 21.5307C1520 20.7998 1519.92 19.9956 1520.08 19.2196C1520.23 18.4437 1520.61 17.731 1521.17 17.1716C1521.73 16.6122 1522.44 16.2312 1523.22 16.0769C1524 15.9225 1524.8 16.0017 1525.53 16.3045C1526.26 16.6072 1526.89 17.1199 1527.33 17.7777C1527.77 18.4355 1528 19.2089 1528 20C1528 21.0605 1527.58 22.0773 1526.83 22.8273C1526.08 23.5772 1525.06 23.9989 1524 24ZM1524 18C1523.6 18 1523.22 18.1173 1522.89 18.3371C1522.56 18.5568 1522.3 18.8692 1522.15 19.2346C1522 19.6001 1521.96 20.0022 1522.04 20.3902C1522.12 20.7781 1522.31 21.1345 1522.59 21.4142C1522.87 21.6939 1523.22 21.8844 1523.61 21.9616C1524 22.0387 1524.4 21.9991 1524.77 21.8478C1525.13 21.6964 1525.44 21.44 1525.66 21.1111C1525.88 20.7822 1526 20.3956 1526 20C1526 19.4696 1525.79 18.9609 1525.41 18.5858C1525.04 18.2107 1524.53 18 1524 18Z" fill="currentColor" fill-rule="nonzero" />
		<path id="Vector 25" d="M1538 1.99997C1537.35 2.00236 1536.72 2.16742 1536.15 2.47997L1519.76 10.96C1517.7 11.9229 1516.03 13.5597 1515.03 15.6C1514.02 17.6403 1513.75 19.962 1514.24 22.1815C1514.73 24.4009 1515.97 26.3854 1517.74 27.807C1519.52 29.2285 1521.73 30.0022 1524 30C1524.67 30.0017 1525.34 29.9313 1526 29.79L1526 27.75C1525.35 27.9153 1524.67 27.9992 1524 28C1522.42 28 1520.87 27.5308 1519.56 26.6518C1518.24 25.7727 1517.21 24.5233 1516.61 23.0615C1516 21.5997 1515.85 19.9911 1516.15 18.4393C1516.46 16.8874 1517.22 15.462 1518.34 14.3431C1519.46 13.2243 1520.89 12.4624 1522.44 12.1537C1523.99 11.845 1525.6 12.0035 1527.06 12.609C1528.52 13.2145 1529.77 14.2398 1530.65 15.5554C1531.53 16.871 1532 18.4177 1532 20C1532 20.3343 1531.98 20.6682 1531.94 21L1534.72 21L1541.56 7.78997C1541.87 7.1823 1542.02 6.50429 1542 5.82145C1541.97 5.13862 1541.77 4.47405 1541.41 3.89194C1541.05 3.30984 1540.55 2.82989 1539.95 2.49847C1539.36 2.16704 1538.68 1.99535 1538 1.99997ZM1533.86 18.34C1533.51 16.2908 1532.53 14.4015 1531.06 12.934C1529.58 11.4666 1527.69 10.4936 1525.64 10.15L1534.02 5.80997C1534.02 5.86997 1534 5.92997 1534 5.99997C1534 7.06084 1534.42 8.07825 1535.17 8.8284C1535.92 9.57854 1536.94 9.99997 1538 9.99997C1538.06 9.99997 1538.12 9.97997 1538.19 9.97997L1533.86 18.34ZM1538 7.99997C1537.6 7.99997 1537.22 7.88267 1536.89 7.66291C1536.56 7.44315 1536.3 7.13079 1536.15 6.76534C1536 6.39988 1535.96 5.99775 1536.04 5.60979C1536.12 5.22183 1536.31 4.86546 1536.59 4.58576C1536.87 4.30605 1537.22 4.11557 1537.61 4.0384C1538 3.96123 1538.4 4.00084 1538.77 4.15221C1539.13 4.30359 1539.44 4.55993 1539.66 4.88883C1539.88 5.21773 1540 5.60441 1540 5.99997C1540 6.52992 1539.79 7.0377 1539.41 7.41243C1539.04 7.78716 1538.53 7.99839 1538 7.99997Z" fill="currentColor" fill-rule="nonzero" />
  </g>
</svg>

