<svg viewBox="0 0 32 32" xmlns="http://www.w3.org/2000/svg" fill="none">
  <g transform="translate(-1296 -0)">
<path id="Vector 20" d="M1317.3 4.9L1312.8 2.2C1312.5 2.1 1312.3 2 1312 2C1311.7 2 1311.5 2.1 1311.3 2.2L1306.8 4.9C1306.3 5.2 1306 5.7 1306 6.2L1306 11.8C1306 12.3 1306.3 12.8 1306.7 13.1L1311.2 15.8C1311.4 15.9 1311.7 16 1311.9 16C1312.1 16 1312.4 15.9 1312.6 15.8L1317.1 13.1C1317.5 12.8 1317.8 12.4 1317.8 11.8L1317.8 6.2C1318 5.7 1317.7 5.2 1317.3 4.9ZM1316 11.5L1312 13.9L1308 11.5L1308 6.5L1312 4.1L1316 6.5L1316 11.5ZM1325.3 18.9L1320.8 16.2C1320.5 16.1 1320.3 16 1320 16C1319.7 16 1319.5 16.1 1319.3 16.2L1314.8 18.9C1314.4 19.2 1314.1 19.6 1314.1 20.2L1314.1 25.8C1314.1 26.3 1314.4 26.8 1314.8 27.1L1319.3 29.8C1319.5 29.9 1319.8 30 1320 30C1320.2 30 1320.5 29.9 1320.7 29.8L1325.2 27.1C1325.6 26.8 1325.9 26.4 1325.9 25.8L1325.9 20.2C1326 19.7 1325.7 19.2 1325.3 18.9ZM1324 25.5L1320 27.9L1316 25.5L1316 20.5L1320 18.1L1324 20.5L1324 25.5ZM1309.3 18.9L1304.8 16.2C1304.5 16.1 1304.3 16 1304 16C1303.7 16 1303.5 16.1 1303.3 16.2L1298.8 18.9C1298.3 19.2 1298 19.7 1298 20.2L1298 25.8C1298 26.3 1298.3 26.8 1298.7 27.1L1303.2 29.8C1303.5 29.9 1303.7 30 1304 30C1304.3 30 1304.5 29.9 1304.7 29.8L1309.2 27.1C1309.6 26.8 1309.9 26.4 1309.9 25.8L1309.9 20.2C1310 19.7 1309.7 19.2 1309.3 18.9ZM1308 25.5L1304 27.9L1300 25.5L1300 20.5L1304 18.1L1308 20.5L1308 25.5Z" fill="currentColor" fill-rule="nonzero" />
  </g>
</svg>

