<svg viewBox="0 0 32 32" xmlns="http://www.w3.org/2000/svg" fill="none">
  <g transform="translate(-1656.000122 -0)">
<path id="Vector 68" d="M1668 13L1682.2 13L1679.6 15.6L1681 17L1686 12L1681 7L1679.6 8.4L1682.2 11L1668 11L1668 13ZM1684 19L1670.8 19L1673.4 16.4L1672 15L1667 20L1672 25L1673.4 23.6L1670.8 21L1684 21L1684 19ZM1678 7L1678 4C1678 2.9 1677.1 2 1676 2L1660 2C1658.9 2 1658 2.9 1658 4L1658 28C1658 29.1 1658.9 30 1660 30L1676 30C1677.1 30 1678 29.1 1678 28L1678 25L1676 25L1676 28L1660 28L1660 4L1676 4L1676 7L1678 7Z" fill="currentColor" fill-rule="nonzero" />
  </g>
</svg>

