<svg viewBox="0 0 32 32" xmlns="http://www.w3.org/2000/svg" fill="none">
  <g transform="translate(-1368.000122 -0)">
<path id="Vector 21" d="M1376.44 6.145L1379.45 4.365L1380.47 6.085L1377.46 7.867L1376.44 6.145ZM1374 12L1372 12L1372 9.9C1372 9.2 1372.4 8.5 1373 8.2L1374.5 7.3L1375.5 9L1374 9.9L1374 12ZM1372 14L1374 14L1374 18L1372 18L1372 14ZM1374.5 24.7L1373 23.8C1372.4 23.4 1372 22.8 1372 22.1L1372 20L1374 20L1374 22.1L1375.5 23L1374.5 24.7ZM1376.43 25.828L1377.45 24.106L1380.46 25.886L1379.45 27.608L1376.43 25.828ZM1385.5 27.1L1384 28L1382.5 27.1L1381.5 28.8L1383 29.7C1383.3 29.9 1383.7 30 1384 30C1384.4 30 1384.7 29.9 1385 29.7L1386.5 28.8L1385.5 27.1ZM1387.52 25.907L1390.54 24.126L1391.55 25.848L1388.54 27.628L1387.52 25.907ZM1393.2 24.9L1392.2 23.2L1394 22.2L1394 20L1396 20L1396 22.1C1396 22.8 1395.6 23.5 1395 23.8L1393.2 24.9ZM1394 14L1396 14L1396 18L1394 18L1394 14ZM1396 12L1394 12L1394 9.9L1392.2 8.9L1393.2 7.2L1395 8.2C1395.6 8.6 1396 9.2 1396 9.9L1396 12ZM1387.45 6.04L1388.47 4.318L1391.48 6.098L1390.46 7.82L1387.45 6.04ZM1385.5 4.9L1384 4L1382.5 4.9L1381.5 3.2L1383 2.3C1383.3 2.1 1383.6 2 1384 2C1384.4 2 1384.7 2.1 1385 2.3L1386.5 3.2L1385.5 4.9Z" fill="currentColor" fill-rule="nonzero" />
  </g>
</svg>

