<svg viewBox="0 0 32 32" xmlns="http://www.w3.org/2000/svg" fill="none">
  <g transform="translate(-1584.000122 -0)">
<path id="Vector 26" d="M1609 9C1610.1 9 1611 8.10457 1611 7C1611 5.89543 1610.1 5 1609 5C1607.9 5 1607 5.89543 1607 7C1607 8.10457 1607.9 9 1609 9Z" fill="currentColor" fill-rule="nonzero" />
		<path id="Vector 27" d="M1596 23C1595.41 23 1594.83 22.8241 1594.33 22.4944C1593.84 22.1648 1593.46 21.6962 1593.23 21.1481C1593 20.5999 1592.94 19.9967 1593.06 19.4147C1593.17 18.8328 1593.46 18.2982 1593.88 17.8787C1594.3 17.4591 1594.83 17.1734 1595.41 17.0576C1596 16.9419 1596.6 17.0013 1597.15 17.2284C1597.7 17.4554 1598.16 17.8399 1598.49 18.3333C1598.82 18.8266 1599 19.4067 1599 20C1599 20.7954 1598.68 21.558 1598.12 22.1204C1597.56 22.6829 1596.8 22.9992 1596 23ZM1596 19C1595.8 19 1595.61 19.0586 1595.44 19.1685C1595.28 19.2784 1595.15 19.4346 1595.08 19.6173C1595 19.8 1594.98 20.0011 1595.02 20.1951C1595.06 20.3891 1595.15 20.5673 1595.29 20.7071C1595.43 20.847 1595.61 20.9422 1595.81 20.9808C1596 21.0194 1596.2 20.9996 1596.38 20.9239C1596.57 20.8482 1596.72 20.72 1596.83 20.5556C1596.94 20.3911 1597 20.1978 1597 20C1597 19.7348 1596.89 19.4804 1596.71 19.2929C1596.52 19.1054 1596.27 19 1596 19Z" fill="currentColor" fill-rule="nonzero" />
		<path id="Vector 28" d="M1596 15C1596.55 15 1597 14.5523 1597 14C1597 13.4477 1596.55 13 1596 13C1595.45 13 1595 13.4477 1595 14C1595 14.5523 1595.45 15 1596 15Z" fill="currentColor" fill-rule="nonzero" />
		<path id="Vector 29" d="M1601.91 6.70496C1602.46 6.70496 1602.91 6.25725 1602.91 5.70496C1602.91 5.15268 1602.46 4.70496 1601.91 4.70496C1601.36 4.70496 1600.91 5.15268 1600.91 5.70496C1600.91 6.25725 1601.36 6.70496 1601.91 6.70496Z" fill="currentColor" fill-rule="nonzero" />
		<path id="Vector 30" d="M1593.79 10.907C1594.34 10.907 1594.79 10.4593 1594.79 9.90698C1594.79 9.35469 1594.34 8.90698 1593.79 8.90698C1593.23 8.90698 1592.79 9.35469 1592.79 9.90698C1592.79 10.4593 1593.23 10.907 1593.79 10.907Z" fill="currentColor" fill-rule="nonzero" />
		<path id="Vector 31" d="M1596.5 9.50598C1597.05 9.50598 1597.5 9.05826 1597.5 8.50598C1597.5 7.9537 1597.05 7.50598 1596.5 7.50598C1595.94 7.50598 1595.5 7.9537 1595.5 8.50598C1595.5 9.05826 1595.94 9.50598 1596.5 9.50598Z" fill="currentColor" fill-rule="nonzero" />
		<path id="Vector 32" d="M1599.2 8.10498C1599.75 8.10498 1600.2 7.65726 1600.2 7.10498C1600.2 6.55269 1599.75 6.10498 1599.2 6.10498C1598.65 6.10498 1598.2 6.55269 1598.2 7.10498C1598.2 7.65726 1598.65 8.10498 1599.2 8.10498Z" fill="currentColor" fill-rule="nonzero" />
		<path id="Vector 33" d="M1588.7 14.187C1589.25 14.187 1589.7 13.7393 1589.7 13.187C1589.7 12.6347 1589.25 12.187 1588.7 12.187C1588.14 12.187 1587.7 12.6347 1587.7 13.187C1587.7 13.7393 1588.14 14.187 1588.7 14.187Z" fill="currentColor" fill-rule="nonzero" />
		<path id="Vector 34" d="M1586.13 22.631C1586.69 22.631 1587.13 22.1833 1587.13 21.631C1587.13 21.0787 1586.69 20.631 1586.13 20.631C1585.58 20.631 1585.13 21.0787 1585.13 21.631C1585.13 22.1833 1585.58 22.631 1586.13 22.631Z" fill="currentColor" fill-rule="nonzero" />
		<path id="Vector 35" d="M1587.08 25.516C1587.63 25.516 1588.08 25.0683 1588.08 24.516C1588.08 23.9637 1587.63 23.516 1587.08 23.516C1586.53 23.516 1586.08 23.9637 1586.08 24.516C1586.08 25.0683 1586.53 25.516 1587.08 25.516Z" fill="currentColor" fill-rule="nonzero" />
		<path id="Vector 36" d="M1588.85 27.9821C1589.4 27.9821 1589.85 27.5344 1589.85 26.9821C1589.85 26.4298 1589.4 25.9821 1588.85 25.9821C1588.3 25.9821 1587.85 26.4298 1587.85 26.9821C1587.85 27.5344 1588.3 27.9821 1588.85 27.9821Z" fill="currentColor" fill-rule="nonzero" />
		<path id="Vector 37" d="M1591.27 29.8101C1591.82 29.8101 1592.27 29.3624 1592.27 28.8101C1592.27 28.2578 1591.82 27.8101 1591.27 27.8101C1590.72 27.8101 1590.27 28.2578 1590.27 28.8101C1590.27 29.3624 1590.72 29.8101 1591.27 29.8101Z" fill="currentColor" fill-rule="nonzero" />
		<path id="Vector 38" d="M1586.1 19.5959C1586.65 19.5959 1587.1 19.1482 1587.1 18.5959C1587.1 18.0436 1586.65 17.5959 1586.1 17.5959C1585.55 17.5959 1585.1 18.0436 1585.1 18.5959C1585.1 19.1482 1585.55 19.5959 1586.1 19.5959Z" fill="currentColor" fill-rule="nonzero" />
		<path id="Vector 39" d="M1586.98 16.691C1587.53 16.691 1587.98 16.2433 1587.98 15.691C1587.98 15.1387 1587.53 14.691 1586.98 14.691C1586.43 14.691 1585.98 15.1387 1585.98 15.691C1585.98 16.2433 1586.43 16.691 1586.98 16.691Z" fill="currentColor" fill-rule="nonzero" />
		<path id="Vector 40" d="M1591.08 12.308C1591.63 12.308 1592.08 11.8603 1592.08 11.308C1592.08 10.7557 1591.63 10.308 1591.08 10.308C1590.53 10.308 1590.08 10.7557 1590.08 11.308C1590.08 11.8603 1590.53 12.308 1591.08 12.308Z" fill="currentColor" fill-rule="nonzero" />
		<path id="Vector 41" d="M1604.62 5.30396C1605.17 5.30396 1605.62 4.85625 1605.62 4.30396C1605.62 3.75168 1605.17 3.30396 1604.62 3.30396C1604.06 3.30396 1603.62 3.75168 1603.62 4.30396C1603.62 4.85625 1604.06 5.30396 1604.62 5.30396Z" fill="currentColor" fill-rule="nonzero" />
		<path id="Vector 42" d="M1607.32 3.90295C1607.88 3.90295 1608.32 3.45523 1608.32 2.90295C1608.32 2.35067 1607.88 1.90295 1607.32 1.90295C1606.77 1.90295 1606.32 2.35067 1606.32 2.90295C1606.32 3.45523 1606.77 3.90295 1607.32 3.90295Z" fill="currentColor" fill-rule="nonzero" />
		<path id="Vector 43" d="M1612.99 9.89001C1613.54 9.89001 1613.99 9.4423 1613.99 8.89001C1613.99 8.33773 1613.54 7.89001 1612.99 7.89001C1612.44 7.89001 1611.99 8.33773 1611.99 8.89001C1611.99 9.4423 1612.44 9.89001 1612.99 9.89001Z" fill="currentColor" fill-rule="nonzero" />
		<path id="Vector 44" d="M1611.59 12.5959C1612.14 12.5959 1612.59 12.1482 1612.59 11.5959C1612.59 11.0436 1612.14 10.5959 1611.59 10.5959C1611.03 10.5959 1610.59 11.0436 1610.59 11.5959C1610.59 12.1482 1611.03 12.5959 1611.59 12.5959Z" fill="currentColor" fill-rule="nonzero" />
		<path id="Vector 45" d="M1610.19 15.303C1610.74 15.303 1611.19 14.8553 1611.19 14.303C1611.19 13.7507 1610.74 13.303 1610.19 13.303C1609.63 13.303 1609.19 13.7507 1609.19 14.303C1609.19 14.8553 1609.63 15.303 1610.19 15.303Z" fill="currentColor" fill-rule="nonzero" />
		<path id="Vector 46" d="M1608.78 18.01C1609.34 18.01 1609.78 17.5623 1609.78 17.01C1609.78 16.4577 1609.34 16.01 1608.78 16.01C1608.23 16.01 1607.78 16.4577 1607.78 17.01C1607.78 17.5623 1608.23 18.01 1608.78 18.01Z" fill="currentColor" fill-rule="nonzero" />
		<path id="Vector 47" d="M1607.38 20.717C1607.94 20.717 1608.38 20.2693 1608.38 19.717C1608.38 19.1647 1607.94 18.717 1607.38 18.717C1606.83 18.717 1606.38 19.1647 1606.38 19.717C1606.38 20.2693 1606.83 20.717 1607.38 20.717Z" fill="currentColor" fill-rule="nonzero" />
		<path id="Vector 48" d="M1605.98 23.424C1606.53 23.424 1606.98 22.9762 1606.98 22.424C1606.98 21.8717 1606.53 21.424 1605.98 21.424C1605.43 21.424 1604.98 21.8717 1604.98 22.424C1604.98 22.9762 1605.43 23.424 1605.98 23.424Z" fill="currentColor" fill-rule="nonzero" />
		<path id="Vector 49" d="M1602.64 28.464C1603.19 28.464 1603.64 28.0163 1603.64 27.464C1603.64 26.9117 1603.19 26.464 1602.64 26.464C1602.08 26.464 1601.64 26.9117 1601.64 27.464C1601.64 28.0163 1602.08 28.464 1602.64 28.464Z" fill="currentColor" fill-rule="nonzero" />
		<path id="Vector 50" d="M1600.09 30.1219C1600.64 30.1219 1601.09 29.6742 1601.09 29.1219C1601.09 28.5696 1600.64 28.1219 1600.09 28.1219C1599.54 28.1219 1599.09 28.5696 1599.09 29.1219C1599.09 29.6742 1599.54 30.1219 1600.09 30.1219Z" fill="currentColor" fill-rule="nonzero" />
		<path id="Vector 51" d="M1597.17 30.932C1597.72 30.932 1598.17 30.4843 1598.17 29.932C1598.17 29.3797 1597.72 28.932 1597.17 28.932C1596.61 28.932 1596.17 29.3797 1596.17 29.932C1596.17 30.4843 1596.61 30.932 1597.17 30.932Z" fill="currentColor" fill-rule="nonzero" />
		<path id="Vector 52" d="M1594.13 30.825C1594.69 30.825 1595.13 30.3773 1595.13 29.825C1595.13 29.2726 1594.69 28.825 1594.13 28.825C1593.58 28.825 1593.13 29.2726 1593.13 29.825C1593.13 30.3773 1593.58 30.825 1594.13 30.825Z" fill="currentColor" fill-rule="nonzero" />
		<path id="Vector 53" d="M1604.57 26.125C1605.12 26.125 1605.57 25.6773 1605.57 25.125C1605.57 24.5727 1605.12 24.125 1604.57 24.125C1604.02 24.125 1603.57 24.5727 1603.57 25.125C1603.57 25.6773 1604.02 26.125 1604.57 26.125Z" fill="currentColor" fill-rule="nonzero" />
		<path id="Vector 54" d="M1612.89 4.23999C1613.45 4.23999 1613.89 3.79228 1613.89 3.23999C1613.89 2.68771 1613.45 2.23999 1612.89 2.23999C1612.34 2.23999 1611.89 2.68771 1611.89 3.23999C1611.89 3.79228 1612.34 4.23999 1612.89 4.23999Z" fill="currentColor" fill-rule="nonzero" />
		<path id="Vector 55" d="M1610.19 3.00403C1610.74 3.00403 1611.19 2.55632 1611.19 2.00403C1611.19 1.45175 1610.74 1.00403 1610.19 1.00403C1609.64 1.00403 1609.19 1.45175 1609.19 2.00403C1609.19 2.55632 1609.64 3.00403 1610.19 3.00403Z" fill="currentColor" fill-rule="nonzero" />
		<path id="Vector 56" d="M1596 27C1596.55 27 1597 26.5523 1597 26C1597 25.4477 1596.55 25 1596 25C1595.45 25 1595 25.4477 1595 26C1595 26.5523 1595.45 27 1596 27Z" fill="currentColor" fill-rule="nonzero" />
		<path id="Vector 57" d="M1590 21C1590.55 21 1591 20.5523 1591 20C1591 19.4477 1590.55 19 1590 19C1589.45 19 1589 19.4477 1589 20C1589 20.5523 1589.45 21 1590 21Z" fill="currentColor" fill-rule="nonzero" />
		<path id="Vector 58" d="M1602 21C1602.55 21 1603 20.5523 1603 20C1603 19.4477 1602.55 19 1602 19C1601.45 19 1601 19.4477 1601 20C1601 20.5523 1601.45 21 1602 21Z" fill="currentColor" fill-rule="nonzero" />
		<path id="Vector 59" d="M1590.8 18C1591.36 18 1591.8 17.5523 1591.8 17C1591.8 16.4477 1591.36 16 1590.8 16C1590.25 16 1589.8 16.4477 1589.8 17C1589.8 17.5523 1590.25 18 1590.8 18Z" fill="currentColor" fill-rule="nonzero" />
		<path id="Vector 60" d="M1601.2 24C1601.75 24 1602.2 23.5523 1602.2 23C1602.2 22.4477 1601.75 22 1601.2 22C1600.64 22 1600.2 22.4477 1600.2 23C1600.2 23.5523 1600.64 24 1601.2 24Z" fill="currentColor" fill-rule="nonzero" />
		<path id="Vector 61" d="M1593 26.196C1593.55 26.196 1594 25.7483 1594 25.196C1594 24.6437 1593.55 24.196 1593 24.196C1592.45 24.196 1592 24.6437 1592 25.196C1592 25.7483 1592.45 26.196 1593 26.196Z" fill="currentColor" fill-rule="nonzero" />
		<path id="Vector 62" d="M1599 15.804C1599.55 15.804 1600 15.3563 1600 14.804C1600 14.2517 1599.55 13.804 1599 13.804C1598.45 13.804 1598 14.2517 1598 14.804C1598 15.3563 1598.45 15.804 1599 15.804Z" fill="currentColor" fill-rule="nonzero" />
		<path id="Vector 63" d="M1593 15.804C1593.55 15.804 1594 15.3563 1594 14.804C1594 14.2517 1593.55 13.804 1593 13.804C1592.45 13.804 1592 14.2517 1592 14.804C1592 15.3563 1592.45 15.804 1593 15.804Z" fill="currentColor" fill-rule="nonzero" />
		<path id="Vector 64" d="M1599 26.196C1599.55 26.196 1600 25.7483 1600 25.196C1600 24.6437 1599.55 24.196 1599 24.196C1598.45 24.196 1598 24.6437 1598 25.196C1598 25.7483 1598.45 26.196 1599 26.196Z" fill="currentColor" fill-rule="nonzero" />
		<path id="Vector 65" d="M1590.8 24C1591.36 24 1591.8 23.5523 1591.8 23C1591.8 22.4477 1591.36 22 1590.8 22C1590.25 22 1589.8 22.4477 1589.8 23C1589.8 23.5523 1590.25 24 1590.8 24Z" fill="currentColor" fill-rule="nonzero" />
		<path id="Vector 66" d="M1601.2 18C1601.75 18 1602.2 17.5523 1602.2 17C1602.2 16.4477 1601.75 16 1601.2 16C1600.64 16 1600.2 16.4477 1600.2 17C1600.2 17.5523 1600.64 18 1601.2 18Z" fill="currentColor" fill-rule="nonzero" />
		<path id="Vector 67" d="M1614 7.026C1614.55 7.026 1615 6.57829 1615 6.026C1615 5.47372 1614.55 5.026 1614 5.026C1613.45 5.026 1613 5.47372 1613 6.026C1613 6.57829 1613.45 7.026 1614 7.026Z" fill="currentColor" fill-rule="nonzero" />
  </g>
</svg>

