<svg viewBox="0 0 32 32" xmlns="http://www.w3.org/2000/svg" fill="none">
  <g transform="translate(-1224 -0)">
<path id="Vector 18" d="M1240 25.4L1232 20.7L1232 11.3L1240 6.59998L1248 11.3L1248 20.7L1240 25.4ZM1234 19.6L1240 23.1L1246 19.6L1246 12.5L1240 8.99998L1234 12.5L1234 19.6Z" fill="currentColor" fill-rule="nonzero" />
		<path id="Vector 19" d="M1251 8.2L1241 2.3C1240.7 2.1 1240.4 2 1240 2C1239.6 2 1239.3 2.1 1239 2.3L1229 8.2C1228.4 8.6 1228 9.2 1228 9.9L1228 22.1C1228 22.8 1228.4 23.5 1229 23.8L1239 29.7C1239.3 29.9 1239.7 30 1240 30C1240.3 30 1240.7 29.9 1241 29.7L1251 23.8C1251.6 23.4 1252 22.8 1252 22.1L1252 9.9C1252 9.2 1251.6 8.5 1251 8.2ZM1250 22.1L1240 28L1230 22.1L1230 9.9L1240 4L1250 9.9L1250 22.1Z" fill="currentColor" fill-rule="nonzero" />
  </g>
</svg>

