<svg viewBox="0 0 32 32" xmlns="http://www.w3.org/2000/svg" fill="none">
  <g transform="translate(-1800.000122 -0)">
<path id="Vector 70" d="M1822 26C1823.1 26 1824 25.1046 1824 24C1824 22.8954 1823.1 22 1822 22C1820.9 22 1820 22.8954 1820 24C1820 25.1046 1820.9 26 1822 26Z" fill="currentColor" fill-rule="nonzero" />
		<path id="Vector 71" d="M1829.78 23.479C1829.16 21.9049 1828.09 20.5467 1826.71 19.5728C1825.33 18.5988 1823.69 18.052 1822 18C1820.31 18.052 1818.67 18.5988 1817.29 19.5728C1815.91 20.5467 1814.84 21.9049 1814.22 23.479L1814 24L1814.22 24.522C1814.84 26.0959 1815.91 27.4539 1817.29 28.4277C1818.67 29.4014 1820.31 29.9481 1822 30C1823.69 29.9481 1825.33 29.4014 1826.71 28.4277C1828.09 27.4539 1829.16 26.0959 1829.78 24.522L1830 24L1829.78 23.479ZM1822 28C1821.21 28 1820.44 27.7654 1819.78 27.3259C1819.12 26.8864 1818.61 26.2616 1818.3 25.5307C1818 24.7998 1817.92 23.9956 1818.08 23.2196C1818.23 22.4437 1818.61 21.731 1819.17 21.1716C1819.73 20.6122 1820.44 20.2312 1821.22 20.0769C1822 19.9225 1822.8 20.0017 1823.53 20.3045C1824.26 20.6072 1824.89 21.1199 1825.33 21.7777C1825.77 22.4355 1826 23.2089 1826 24C1826 25.0605 1825.58 26.0771 1824.83 26.827C1824.08 27.5768 1823.06 27.9987 1822 28ZM1812 24C1811.33 24 1810.68 23.8331 1810.09 23.5146C1809.5 23.196 1809.01 22.7358 1808.64 22.176C1808.28 21.6161 1808.06 20.9743 1808.01 20.3091C1807.96 19.6439 1808.08 18.9764 1808.35 18.3673C1808.62 17.7582 1809.04 17.2269 1809.57 16.8218C1810.1 16.4166 1810.72 16.1506 1811.38 16.0478C1812.04 15.945 1812.72 16.0087 1813.35 16.2332C1813.97 16.4577 1814.54 16.8357 1814.98 17.333L1813.49 18.667C1813.27 18.4183 1812.99 18.2291 1812.67 18.1168C1812.36 18.0045 1812.02 17.9725 1811.69 18.0238C1811.36 18.0751 1811.05 18.2081 1810.79 18.4106C1810.52 18.6131 1810.31 18.8788 1810.17 19.1833C1810.04 19.4879 1809.98 19.8216 1810.01 20.1543C1810.03 20.4869 1810.14 20.8078 1810.32 21.0878C1810.5 21.3678 1810.75 21.5979 1811.05 21.7572C1811.34 21.9165 1811.67 22 1812 22L1812 24Z" fill="currentColor" fill-rule="nonzero" />
		<path id="Vector 72" d="M1826 1.99997C1825.35 2.00236 1824.72 2.16742 1824.15 2.47997L1807.76 10.96C1805.7 11.9229 1804.03 13.5597 1803.03 15.6C1802.02 17.6403 1801.75 19.962 1802.24 22.1815C1802.73 24.4009 1803.97 26.3854 1805.75 27.807C1807.52 29.2285 1809.73 30.0022 1812 30L1812 28C1810.69 28.0006 1809.39 27.6773 1808.23 27.0588C1807.07 26.4403 1806.08 25.5455 1805.35 24.4536C1804.62 23.3618 1804.17 22.1064 1804.04 20.7986C1803.91 19.4908 1804.1 18.1708 1804.6 16.9554C1805.1 15.7399 1805.89 14.6664 1806.9 13.8298C1807.92 12.9932 1809.12 12.4193 1810.41 12.1587C1811.7 11.8982 1813.03 11.9591 1814.29 12.3361C1815.55 12.713 1816.7 13.3944 1817.63 14.32L1819.03 12.92C1817.56 11.4614 1815.68 10.4936 1813.64 10.15L1822.02 5.80997C1822.02 5.86997 1822 5.92997 1822 5.99997C1822 7.06084 1822.42 8.07825 1823.17 8.8284C1823.92 9.57854 1824.94 9.99997 1826 9.99997C1826.06 9.99997 1826.12 9.97997 1826.19 9.97997L1823.07 16L1825.31 16L1829.56 7.78997C1829.87 7.1823 1830.02 6.50429 1830 5.82145C1829.97 5.13862 1829.77 4.47405 1829.41 3.89194C1829.05 3.30984 1828.55 2.82989 1827.95 2.49847C1827.36 2.16704 1826.68 1.99535 1826 1.99997ZM1826 7.99997C1825.6 7.99997 1825.22 7.88267 1824.89 7.66291C1824.56 7.44315 1824.3 7.13079 1824.15 6.76534C1824 6.39988 1823.96 5.99775 1824.04 5.60979C1824.12 5.22183 1824.31 4.86546 1824.59 4.58576C1824.87 4.30605 1825.22 4.11557 1825.61 4.0384C1826 3.96123 1826.4 4.00084 1826.77 4.15221C1827.13 4.30359 1827.44 4.55993 1827.66 4.88883C1827.88 5.21773 1828 5.60441 1828 5.99997C1828 6.52992 1827.79 7.0377 1827.41 7.41243C1827.04 7.78716 1826.53 7.99839 1826 7.99997Z" fill="currentColor" fill-rule="nonzero" />
  </g>
</svg>

