<svg viewBox="0 0 32 32" xmlns="http://www.w3.org/2000/svg" fill="none">
  <g transform="translate(-1440.000122 -0)">
<path id="Vector 22" d="M1452 24C1451.21 24 1450.44 23.7654 1449.78 23.3259C1449.12 22.8864 1448.61 22.2616 1448.3 21.5307C1448 20.7998 1447.92 19.9956 1448.08 19.2196C1448.23 18.4437 1448.61 17.731 1449.17 17.1716C1449.73 16.6122 1450.44 16.2312 1451.22 16.0769C1452 15.9225 1452.8 16.0017 1453.53 16.3045C1454.26 16.6072 1454.89 17.1199 1455.33 17.7777C1455.77 18.4355 1456 19.2089 1456 20C1456 21.0605 1455.58 22.0773 1454.83 22.8273C1454.08 23.5772 1453.06 23.9989 1452 24ZM1452 18C1451.6 18 1451.22 18.1173 1450.89 18.3371C1450.56 18.5568 1450.3 18.8692 1450.15 19.2346C1450 19.6001 1449.96 20.0022 1450.04 20.3902C1450.12 20.7781 1450.31 21.1345 1450.59 21.4142C1450.87 21.6939 1451.22 21.8844 1451.61 21.9616C1452 22.0387 1452.4 21.9991 1452.77 21.8478C1453.13 21.6964 1453.44 21.44 1453.66 21.1111C1453.88 20.7822 1454 20.3956 1454 20C1454 19.4696 1453.79 18.9609 1453.41 18.5858C1453.04 18.2107 1452.53 18 1452 18Z" fill="currentColor" fill-rule="nonzero" />
		<path id="Vector 23" d="M1470 6C1470 4.93946 1469.58 3.92266 1468.83 3.17274C1468.08 2.42283 1467.06 2.00106 1466 2C1465.35 2.00457 1464.72 2.16838 1464.15 2.477L1447.76 10.957C1446.3 11.6385 1445.03 12.6611 1444.06 13.9381C1443.08 15.2151 1442.43 16.7087 1442.15 18.2923C1441.87 19.8759 1441.98 21.5026 1442.47 23.0344C1442.96 24.5662 1443.81 25.9579 1444.95 27.0913C1446.09 28.2248 1447.48 29.0666 1449.02 29.5452C1450.55 30.0239 1452.18 30.1253 1453.76 29.8408C1455.34 29.5563 1456.83 28.8944 1458.11 27.9112C1459.38 26.928 1460.39 25.6525 1461.07 24.193L1469.56 7.793C1469.84 7.23882 1470 6.62436 1470 6ZM1466 4C1466.4 4 1466.78 4.1173 1467.11 4.33706C1467.44 4.55682 1467.7 4.86918 1467.85 5.23463C1468 5.60009 1468.04 6.00222 1467.96 6.39018C1467.88 6.77814 1467.69 7.13451 1467.41 7.41421C1467.13 7.69392 1466.78 7.8844 1466.39 7.96157C1466 8.03874 1465.6 7.99913 1465.23 7.84776C1464.87 7.69638 1464.56 7.44004 1464.34 7.11114C1464.12 6.78224 1464 6.39556 1464 6C1464 5.46957 1464.21 4.96086 1464.59 4.58579C1464.96 4.21071 1465.47 4 1466 4ZM1462.02 5.808C1462.02 5.873 1462 5.934 1462 6C1462 7.06054 1462.42 8.07734 1463.17 8.82726C1463.92 9.57717 1464.94 9.99894 1466 10C1466.07 10 1466.13 9.984 1466.19 9.981L1461.86 18.343C1461.51 16.2934 1460.53 14.4033 1459.06 12.9347C1457.58 11.4662 1455.69 10.4919 1453.64 10.147L1462.02 5.808ZM1452 28C1450.42 28 1448.87 27.5308 1447.56 26.6518C1446.24 25.7727 1445.21 24.5233 1444.61 23.0615C1444 21.5997 1443.85 19.9911 1444.15 18.4393C1444.46 16.8874 1445.22 15.462 1446.34 14.3431C1447.46 13.2243 1448.89 12.4624 1450.44 12.1537C1451.99 11.845 1453.6 12.0035 1455.06 12.609C1456.52 13.2145 1457.77 14.2398 1458.65 15.5554C1459.53 16.871 1460 18.4177 1460 20C1460 22.1209 1459.15 24.1542 1457.65 25.6539C1456.15 27.1536 1454.12 27.9974 1452 28Z" fill="currentColor" fill-rule="nonzero" />
  </g>
</svg>

