<svg viewBox="0 0 32 32" xmlns="http://www.w3.org/2000/svg" fill="none">
  <g transform="translate(-1728.000122 -0)">
<path id="Vector 69" d="M1749 2L1739 2C1734 2 1730 6 1730 11L1730 21C1730 26 1734 30 1739 30L1749 30C1754 30 1758 26 1758 21L1758 11C1758 6 1754 2 1749 2ZM1756 21C1756 24.9 1752.9 28 1749 28L1739 28C1735.1 28 1732 24.9 1732 21L1732 11C1732 7.1 1735.1 4 1739 4L1749 4C1752.9 4 1756 7.1 1756 11L1756 21ZM1737.5 19C1737.9 19 1738.28 19.158 1738.56 19.4393C1738.84 19.7206 1739 20.1022 1739 20.5C1739 20.8978 1738.84 21.2794 1738.56 21.5607C1738.28 21.842 1737.9 22 1737.5 22C1737.1 22 1736.72 21.842 1736.44 21.5607C1736.16 21.2794 1736 20.8978 1736 20.5C1736 20.1022 1736.16 19.7206 1736.44 19.4393C1736.72 19.158 1737.1 19 1737.5 19ZM1737.5 10C1737.9 10 1738.28 10.158 1738.56 10.4393C1738.84 10.7206 1739 11.1022 1739 11.5C1739 11.8978 1738.84 12.2794 1738.56 12.5607C1738.28 12.842 1737.9 13 1737.5 13C1737.1 13 1736.72 12.842 1736.44 12.5607C1736.16 12.2794 1736 11.8978 1736 11.5C1736 11.1022 1736.16 10.7206 1736.44 10.4393C1736.72 10.158 1737.1 10 1737.5 10ZM1742 12L1752 12L1752 14L1742 14L1742 12ZM1742 18L1752 18L1752 20L1742 20L1742 18Z" fill="currentColor" fill-rule="nonzero" />
  </g>
</svg>

