<svg viewBox="0 0 32 32" xmlns="http://www.w3.org/2000/svg" fill="none">
  <g transform="translate(-1944.000122 -0)">
<path id="Vector 74" d="M1967.22 4L1970 4L1970 2L1963 2L1963 8L1965 8L1965 5.096C1967.09 6.04898 1968.86 7.58416 1970.1 9.51791C1971.35 11.4517 1972 13.7021 1972 16C1972 22.617 1966.62 28 1960 28L1960 30C1967.72 30 1974 23.72 1974 16C1974 10.991 1971.37 6.488 1967.22 4Z" fill="currentColor" fill-rule="nonzero" />
		<path id="Vector 75" d="M1960 20C1959.6 20 1959.22 20.158 1958.94 20.4393C1958.66 20.7206 1958.5 21.1022 1958.5 21.5C1958.5 21.8978 1958.66 22.2794 1958.94 22.5607C1959.22 22.842 1959.6 23 1960 23C1960.4 23 1960.78 22.842 1961.06 22.5607C1961.34 22.2794 1961.5 21.8978 1961.5 21.5C1961.5 21.1022 1961.34 20.7206 1961.06 20.4393C1960.78 20.158 1960.4 20 1960 20ZM1959 9L1961 9L1961 18L1959 18L1959 9Z" fill="currentColor" fill-rule="nonzero" />
		<path id="Vector 76" d="M1960 4L1960 2C1952.28 2 1946 8.28 1946 16C1946 20.977 1948.61 25.494 1952.78 28L1950 28L1950 30L1957 30L1957 24L1955 24L1955 26.903C1952.91 25.9491 1951.14 24.4138 1949.9 22.4805C1948.66 20.5472 1948 18.2975 1948 16C1948 9.383 1953.38 4 1960 4Z" fill="currentColor" fill-rule="nonzero" />
  </g>
</svg>

