<svg viewBox="0 0 32 32" xmlns="http://www.w3.org/2000/svg" fill="none">
  <g transform="translate(-0 -72)">
<path id="Vector 77" d="M16 75C14.2899 74.9894 12.5946 75.3184 11.0126 75.9679C9.43054 76.6175 7.99322 77.5746 6.78394 78.7839C5.57465 79.9932 4.61748 81.4305 3.96793 83.0126C3.31839 84.5946 2.98938 86.2898 3.00001 88L3.00001 89C3.00001 92.4478 4.36964 95.7544 6.80762 98.1924C9.24559 100.63 12.5522 102 16 102L23 102L23 100L16 100C13.0826 100 10.2847 98.8411 8.22183 96.7782C6.15893 94.7153 5.00001 91.9174 5.00001 89L5.00001 88C4.99205 86.5532 5.27114 85.1193 5.82112 83.7811C6.37111 82.4429 7.18106 81.2271 8.20409 80.2041C9.22712 79.181 10.4429 78.3711 11.7811 77.8211C13.1193 77.2711 14.5532 76.992 16 77C17.4581 76.9497 18.9109 77.1999 20.2682 77.7349C21.6255 78.27 22.8583 79.0784 23.8899 80.1101C24.9216 81.1417 25.73 82.3745 26.265 83.7318C26.8001 85.0891 27.0502 86.5419 27 88C27 91.59 25.6 93 23.34 93C21.76 93 21 91.71 21 90L21 82L19 82L19 83.94C18.6513 83.3261 18.1402 82.8203 17.5227 82.478C16.9052 82.1358 16.2054 81.9704 15.5 82C14.0501 81.9946 12.6571 82.5642 11.6262 83.5838C10.5953 84.6035 10.0106 85.9901 10 87.44L10 89.56C10.0106 91.0099 10.5953 92.3965 11.6262 93.4162C12.6571 94.4358 14.0501 95.0053 15.5 95C16.3339 95.0244 17.1568 94.8046 17.8675 94.3676C18.5782 93.9305 19.1456 93.2953 19.5 92.54C19.855 93.2758 20.41 93.8968 21.1015 94.3319C21.793 94.767 22.593 94.9985 23.41 95C26.48 95 29 93 29 88C29.0383 86.2823 28.7281 84.5747 28.0884 82.9802C27.4486 81.3857 26.4924 79.9373 25.2776 78.7224C24.0627 77.5076 22.6143 76.5514 21.0198 75.9116C19.4253 75.2719 17.7177 74.9617 16 75ZM19 89.56C19 90.4883 18.6313 91.3785 17.9749 92.0349C17.3185 92.6913 16.4283 93.06 15.5 93.06C14.5717 93.06 13.6815 92.6913 13.0251 92.0349C12.3688 91.3785 12 90.4883 12 89.56L12 87.44C12 86.5117 12.3688 85.6215 13.0251 84.9651C13.6815 84.3087 14.5717 83.94 15.5 83.94C16.4283 83.94 17.3185 84.3087 17.9749 84.9651C18.6313 85.6215 19 86.5117 19 87.44L19 89.56Z" fill="currentColor" fill-rule="nonzero" />
  </g>
</svg>

