<svg viewBox="0 0 32 32" xmlns="http://www.w3.org/2000/svg" fill="none">
  <g transform="translate(-72 -72)">
<path id="Vector 78" d="M100.1 90.8999L85.1 75.8999C82.6 73.2999 78.5 73.2999 75.9 75.7999C73.3 78.2999 73.3 82.4999 75.9 84.9999L76 85.0999L78.8 87.9999L80.2 86.5999L77.3 83.6999C75.6 81.9999 75.6 79.0999 77.3 77.3999C79 75.6999 81.9 75.5999 83.6 77.2999L83.7 77.3999L98.6 92.2999C100.4 93.9999 100.4 96.8999 98.7 98.5999C97 100.4 94.1 100.4 92.4 98.6999L92.3 98.5999L84.9 91.1999C83.9 90.1999 84 88.5999 84.9 87.6999C85.9 86.7999 87.4 86.7999 88.4 87.6999L92.5 91.7999L93.9 90.3999L89.7 86.1999C87.9 84.4999 85.1 84.5999 83.4 86.3999C81.8 88.0999 81.8 90.7999 83.4 92.5999L90.9 100.1C93.4 102.7 97.5 102.7 100.1 100.2C102.7 97.6999 102.7 93.4999 100.1 90.8999Z" fill="currentColor" fill-rule="nonzero" />
  </g>
</svg>

