<svg viewBox="0 0 32 32" xmlns="http://www.w3.org/2000/svg" fill="none">
  <g transform="translate(-144 -72)">
<path id="Vector 79" d="M172 74L148 74C147.47 74 146.961 74.2107 146.586 74.5858C146.211 74.9609 146 75.4696 146 76L146 100C146 100.53 146.211 101.039 146.586 101.414C146.961 101.789 147.47 102 148 102L172 102C172.53 102 173.039 101.789 173.414 101.414C173.789 101.039 174 100.53 174 100L174 76C174 75.4696 173.789 74.9609 173.414 74.5858C173.039 74.2107 172.53 74 172 74ZM172 100L148 100L148 76L172 76L172 100ZM160.35 94.002L159.387 90.941L155.122 90.941L154.176 94.001L151.872 94.001L155.896 82L158.716 82L162.706 94.003L160.35 94.002ZM157.29 84.062L157.203 84.062L155.673 88.998L158.836 88.998L157.29 84.062ZM163.959 91.712L163.959 86.754L162.634 86.754L162.634 85L163.322 85C163.976 85 164.182 84.689 164.182 84.07L164.182 82.564L166.16 82.564L166.16 85L168 85L168 86.754L166.16 86.754L166.16 92.246L167.862 92.246L167.862 94L166.28 94C164.767 94 163.958 93.175 163.958 91.713" fill="currentColor" fill-rule="nonzero" />
  </g>
</svg>

