<svg viewBox="0 0 32 32" xmlns="http://www.w3.org/2000/svg" fill="none">
  <g transform="translate(-216 -72)">
<path id="Vector 80" d="M237 74L227 74C222.037 74 218 78.037 218 83L218 93C218 97.963 222.037 102 227 102L237 102C241.963 102 246 97.963 246 93L246 83C246 78.037 241.963 74 237 74ZM244 93C244 96.86 240.86 100 237 100L227 100C223.14 100 220 96.86 220 93L220 83C220 79.14 223.14 76 227 76L237 76C240.86 76 244 79.14 244 83L244 93ZM231.478 94.002L230.515 90.941L226.25 90.941L225.304 94.001L223 94.001L227.024 82L229.844 82L233.834 94.003L231.478 94.002ZM228.417 84.062L228.331 84.062L226.801 88.998L229.964 88.998L228.417 84.062ZM235.087 91.712L235.087 86.754L233.762 86.754L233.762 85L234.45 85C235.104 85 235.31 84.689 235.31 84.07L235.31 82.564L237.288 82.564L237.288 85L239.128 85L239.128 86.754L237.288 86.754L237.288 92.246L238.99 92.246L238.99 94L237.408 94C235.895 94 235.086 93.175 235.086 91.713" fill="currentColor" fill-rule="nonzero" />
  </g>
</svg>

