<svg viewBox="0 0 32 32" xmlns="http://www.w3.org/2000/svg" fill="none">
  <g transform="translate(-288 -72)">
<path id="Vector 81" d="M316 86.005L315 86.005L315 74.005L313 74.005L313 86.005L312 86.005C311.47 86.005 310.961 86.2157 310.586 86.5908C310.211 86.9659 310 87.4746 310 88.005L310 90.005C310 90.5354 310.211 91.0441 310.586 91.4192C310.961 91.7943 311.47 92.005 312 92.005L313 92.005L313 102.005L315 102.005L315 92.005L316 92.005C316.53 92.0042 317.038 91.7932 317.413 91.4183C317.788 91.0434 317.999 90.5352 318 90.005L318 88.005C318 87.4746 317.789 86.9659 317.414 86.5908C317.039 86.2157 316.53 86.005 316 86.005ZM316 90.005L312 90.005L312 88.005L316 88.005L316 90.005ZM306 78.005L305 78.005L305 74.005L303 74.005L303 78.005L302 78.005C301.47 78.005 300.961 78.2157 300.586 78.5908C300.211 78.9659 300 79.4746 300 80.005L300 82.005C300 82.5354 300.211 83.0441 300.586 83.4192C300.961 83.7943 301.47 84.005 302 84.005L303 84.005L303 102.005L305 102.005L305 84.005L306 84.005C306.53 84.005 307.039 83.7943 307.414 83.4192C307.789 83.0441 308 82.5354 308 82.005L308 80.005C308 79.4746 307.789 78.9659 307.414 78.5908C307.039 78.2157 306.53 78.005 306 78.005ZM306 82.005L302 82.005L302 80.005L306 80.005L306 82.005ZM296 92.005L295 92.005L295 74.005L293 74.005L293 92.005L292 92.005C291.47 92.005 290.961 92.2157 290.586 92.5908C290.211 92.9659 290 93.4746 290 94.005L290 96.005C290 96.5354 290.211 97.0441 290.586 97.4192C290.961 97.7943 291.47 98.005 292 98.005L293 98.005L293 102.005L295 102.005L295 98.005L296 98.005C296.53 98.005 297.039 97.7943 297.414 97.4192C297.789 97.0441 298 96.5354 298 96.005L298 94.005C298 93.4746 297.789 92.9659 297.414 92.5908C297.039 92.2157 296.53 92.005 296 92.005ZM296 96.005L292 96.005L292 94.005L296 94.005L296 96.005Z" fill="currentColor" fill-rule="nonzero" />
  </g>
</svg>

