<svg viewBox="0 0 32 32" xmlns="http://www.w3.org/2000/svg" fill="none">
  <g transform="translate(-360 -72)">
<path id="Vector 82" d="M387.447 81.106L381.447 78.106C381.308 78.0366 381.155 78.0005 381 78.0005C380.845 78.0005 380.692 78.0366 380.553 78.106L374.553 81.106C374.387 81.1889 374.247 81.3165 374.15 81.4744C374.052 81.6323 374 81.8143 374 82L374 89C374 89.1858 374.052 89.368 374.149 89.5261C374.247 89.6842 374.387 89.8119 374.553 89.895L380.553 92.895C380.692 92.9644 380.845 93.0005 381 93.0005C381.155 93.0005 381.308 92.9644 381.447 92.895L387.447 89.895C387.613 89.8119 387.753 89.6842 387.851 89.5261C387.948 89.368 388 89.1858 388 89L388 82C388 81.8141 387.948 81.632 387.851 81.4739C387.753 81.3158 387.613 81.188 387.447 81.105M381 80.118L384.764 82L381 83.882L377.236 82L381 80.118ZM376 83.618L380 85.618L380 90.382L376 88.382L376 83.618ZM382 90.382L382 85.618L386 83.618L386 88.382L382 90.382Z" fill="currentColor" fill-rule="nonzero" />
		<path id="Vector 83" d="M373.5 98C374.328 98 375 97.3284 375 96.5C375 95.6716 374.328 95 373.5 95C372.672 95 372 95.6716 372 96.5C372 97.3284 372.672 98 373.5 98Z" fill="currentColor" fill-rule="nonzero" />
		<path id="Vector 84" d="M380 102L367 102C366.47 102 365.961 101.789 365.586 101.414C365.211 101.039 365 100.53 365 100L365 76C365 75.4696 365.211 74.9609 365.586 74.5858C365.961 74.2107 366.47 74 367 74L380 74L380 76L367 76L367 100L380 100L380 96L382 96L382 100C382 100.53 381.789 101.039 381.414 101.414C381.039 101.789 380.53 102 380 102Z" fill="currentColor" fill-rule="nonzero" />
  </g>
</svg>

