<svg viewBox="0 0 32 32" xmlns="http://www.w3.org/2000/svg" fill="none">
  <g transform="translate(-432 -72)">
<path id="Vector 85" d="M458 88L454 88C453.47 88 452.961 88.2107 452.586 88.5858C452.211 88.9609 452 89.4696 452 90L452 102L454 102L454 97L458 97L458 102L460 102L460 90C460 89.4696 459.789 88.9609 459.414 88.5858C459.039 88.2107 458.53 88 458 88ZM454 95L454 90L458 90L458 95L454 95ZM448 99C446.169 99.0003 444.367 98.5431 442.757 97.6699C441.148 96.7967 439.782 95.5352 438.784 94L444 94L444 92L436 92L436 100L438 100L438 96.315C439.222 97.781 440.751 98.9606 442.479 99.7702C444.207 100.58 446.092 101 448 101L448 99ZM452 82L457.216 82C455.923 80.0121 454.022 78.4953 451.797 77.6758C449.572 76.8564 447.141 76.7782 444.868 77.4529C442.595 78.1276 440.6 79.5191 439.182 81.4198C437.765 83.3205 436.999 85.6287 437 88L435 88C435.001 85.3272 435.826 82.7197 437.362 80.5324C438.897 78.345 441.07 76.6839 443.583 75.7752C446.097 74.8665 448.829 74.7543 451.409 75.4539C453.989 76.1535 456.29 77.6309 458 79.685L458 76L460 76L460 84L452 84L452 82Z" fill="currentColor" fill-rule="nonzero" />
  </g>
</svg>

