<svg viewBox="0 0 32 32" xmlns="http://www.w3.org/2000/svg" fill="none">
  <g transform="translate(-504 -72)">
<path id="Vector 86" d="M526 100L516 100L516 98L526 98L526 82L510 82L510 92L508 92L508 82C508 81.4696 508.211 80.9609 508.586 80.5858C508.961 80.2107 509.47 80 510 80L526 80C526.53 80 527.039 80.2107 527.414 80.5858C527.789 80.9609 528 81.4696 528 82L528 98C528 98.5304 527.789 99.0391 527.414 99.4142C527.039 99.7893 526.53 100 526 100Z" fill="currentColor" fill-rule="nonzero" />
		<path id="Vector 87" d="M532 94L530 94L530 92L532 92L532 76L516 76L516 78L514 78L514 76C514 75.4696 514.211 74.9609 514.586 74.5858C514.961 74.2107 515.47 74 516 74L532 74C532.53 74 533.039 74.2107 533.414 74.5858C533.789 74.9609 534 75.4696 534 76L534 92C534 92.5304 533.789 93.0391 533.414 93.4142C533.039 93.7893 532.53 94 532 94Z" fill="currentColor" fill-rule="nonzero" />
		<path id="Vector 88" d="M514 86L514 88L518.586 88L507 99.586L508.414 101L520 89.414L520 94L522 94L522 86L514 86Z" fill="currentColor" fill-rule="nonzero" />
  </g>
</svg>

