<svg viewBox="0 0 32 32" xmlns="http://www.w3.org/2000/svg" fill="none">
  <g transform="translate(-648 -72)">
<path id="Vector 90" d="M653 83L651 83C649.9 83 649 83.9 649 85L649 93L651 93L651 89L653 89L653 93L655 93L655 85C655 83.9 654.1 83 653 83ZM653 87L651 87L651 85L653 85L653 87ZM669 83L665 83L665 93L667 93L667 89L667.4 89L669 93L671 93L669.4 89C670.3 88.8 671 88 671 87L671 85C671 83.9 670.1 83 669 83ZM669 87L667 87L667 85L669 85L669 87ZM660 90L659 83L657 83L659 93L661 93L663 83L661 83L660 90ZM677 83L675 83C673.9 83 673 83.9 673 85L673 91C673 92.1 673.9 93 675 93L677 93C678.1 93 679 92.1 679 91L679 85C679 83.9 678.1 83 677 83ZM677 91L675 91L675 85L677 85L677 91Z" fill="currentColor" fill-rule="nonzero" />
  </g>
</svg>

