<svg viewBox="0 0 32 32" xmlns="http://www.w3.org/2000/svg" fill="none">
  <g transform="translate(-576 -72)">
<path id="Vector 89" d="M591 74L593 74L593 78.96L591 78.96L591 74ZM597.687 80.89L601.194 77.384L602.608 78.798L599.101 82.305L597.687 80.89ZM601.04 87L606 87L606 89L601.04 89L601.04 87ZM597.693 95.104L599.107 93.69L602.614 97.197L601.2 98.61L597.693 95.104ZM591 97.04L593 97.04L593 102L591 102L591 97.04ZM581.396 97.202L584.904 93.695L586.318 95.109L582.811 98.616L581.396 97.202ZM578 87L582.96 87L582.96 89L578 89L578 87ZM581.39 78.803L582.805 77.389L586.312 80.896L584.898 82.31L581.39 78.803ZM592 84C592.791 84 593.565 84.2346 594.222 84.6741C594.88 85.1136 595.393 85.7384 595.695 86.4693C595.998 87.2002 596.078 88.0044 595.923 88.7804C595.769 89.5563 595.388 90.269 594.828 90.8284C594.269 91.3878 593.556 91.7688 592.78 91.9231C592.004 92.0775 591.2 91.9983 590.469 91.6955C589.738 91.3928 589.114 90.8801 588.674 90.2223C588.235 89.5645 588 88.7911 588 88C588 86.9391 588.421 85.9217 589.172 85.1716C589.922 84.4214 590.939 84 592 84ZM592 82C590.813 82 589.653 82.3519 588.667 83.0112C587.68 83.6705 586.911 84.6075 586.457 85.7039C586.003 86.8003 585.884 88.0067 586.115 89.1705C586.347 90.3344 586.918 91.4035 587.757 92.2426C588.596 93.0818 589.666 93.6532 590.83 93.8847C591.993 94.1162 593.2 93.9974 594.296 93.5433C595.393 93.0892 596.33 92.3201 596.989 91.3334C597.648 90.3467 598 89.1867 598 88C598 86.4087 597.368 84.8826 596.243 83.7574C595.117 82.6321 593.591 82 592 82Z" fill="currentColor" fill-rule="nonzero" />
  </g>
</svg>

