<svg viewBox="0 0 32 32" xmlns="http://www.w3.org/2000/svg" fill="none">
  <g transform="translate(-792 -72)">
<path id="Vector 93" d="M798 100C799.105 100 800 99.1046 800 98C800 96.8954 799.105 96 798 96C796.895 96 796 96.8954 796 98C796 99.1046 796.895 100 798 100Z" fill="currentColor" fill-rule="nonzero" />
		<path id="Vector 94" d="M820 90L817 90L817 88C817 87.4696 816.789 86.9609 816.414 86.5858C816.039 86.2107 815.53 86 815 86L811 86C810.47 86 809.961 86.2107 809.586 86.5858C809.211 86.9609 809 87.4696 809 88L809 90L806 90C805.47 90 804.961 90.2107 804.586 90.5858C804.211 90.9609 804 91.4696 804 92L804 100C804 100.53 804.211 101.039 804.586 101.414C804.961 101.789 805.47 102 806 102L820 102C820.53 102 821.039 101.789 821.414 101.414C821.789 101.039 822 100.53 822 100L822 92C822 91.4696 821.789 90.9609 821.414 90.5858C821.039 90.2107 820.53 90 820 90ZM811 88L815 88L815 90L811 90L811 88ZM820 100L806 100L806 92L820 92L820 100Z" fill="currentColor" fill-rule="nonzero" />
		<path id="Vector 95" d="M802 78L806 78L806 84L808 84L808 78L812 78L812 84L814 84L814 78L818 78L818 84L820 84L820 78.005C820 77.4732 819.789 76.9633 819.413 76.5872C819.037 76.2112 818.527 76 817.995 76L796.005 76C795.473 76 794.963 76.2112 794.587 76.5872C794.211 76.9633 794 77.4732 794 78.005L794 91.995C794 92.5268 794.211 93.0367 794.587 93.4127C794.963 93.7888 795.473 94 796.005 94L802 94L802 78ZM800 92L796 92L796 78L800 78L800 92Z" fill="currentColor" fill-rule="nonzero" />
  </g>
</svg>

