<svg viewBox="0 0 32 32" xmlns="http://www.w3.org/2000/svg" fill="none">
  <g transform="translate(-864 -72)">
<path id="Vector 96" d="M889 83L879 83C878.735 83 878.48 83.1054 878.293 83.2929C878.105 83.4804 878 83.7348 878 84L878 88C878.002 89.4166 878.506 90.7867 879.421 91.8682C880.336 92.9497 881.603 93.6729 883 93.91L883 100L880 100L880 102L888 102L888 100L885 100L885 93.91C886.397 93.6729 887.664 92.9497 888.579 91.8682C889.494 90.7867 889.998 89.4166 890 88L890 84C890 83.7348 889.895 83.4804 889.707 83.2929C889.52 83.1054 889.265 83 889 83ZM888 88C888 89.0609 887.579 90.0783 886.828 90.8284C886.078 91.5786 885.061 92 884 92C882.939 92 881.922 91.5786 881.172 90.8284C880.421 90.0783 880 89.0609 880 88L880 85L888 85L888 88Z" fill="currentColor" fill-rule="nonzero" />
		<path id="Vector 97" d="M879 73L874 73C873.735 73 873.48 73.1054 873.293 73.2929C873.105 73.4804 873 73.7348 873 74L873 81.37C872.028 81.9393 871.233 82.7669 870.704 83.7608C870.174 84.7547 869.931 85.8759 870 87L870 101C870 101.265 870.105 101.52 870.293 101.707C870.48 101.895 870.735 102 871 102L876 102L876 100L872 100L872 87C872 83.813 874.231 82.98 874.316 82.949L875 82.72L875 75L878 75L878 80L880 80L880 74C880 73.7348 879.895 73.4804 879.707 73.2929C879.52 73.1054 879.265 73 879 73Z" fill="currentColor" fill-rule="nonzero" />
  </g>
</svg>

