<svg viewBox="0 0 32 32" xmlns="http://www.w3.org/2000/svg" fill="none">
  <g transform="translate(-1080 -72)">
<path id="Vector 105" d="M1097 100L1097 94L1095 94L1095 100L1085 100L1085 102L1107 102L1107 100L1097 100Z" fill="currentColor" fill-rule="nonzero" />
		<path id="Vector 106" d="M1089 89C1089.55 89 1090 88.5523 1090 88C1090 87.4477 1089.55 87 1089 87C1088.45 87 1088 87.4477 1088 88C1088 88.5523 1088.45 89 1089 89Z" fill="currentColor" fill-rule="nonzero" />
		<path id="Vector 107" d="M1106 92L1086 92C1085.47 92 1084.96 91.7893 1084.59 91.4142C1084.21 91.0391 1084 90.5304 1084 90L1084 86C1084 85.4696 1084.21 84.9609 1084.59 84.5858C1084.96 84.2107 1085.47 84 1086 84L1106 84C1106.53 84 1107.04 84.2107 1107.41 84.5858C1107.79 84.9609 1108 85.4696 1108 86L1108 90C1108 90.5304 1107.79 91.0391 1107.41 91.4142C1107.04 91.7893 1106.53 92 1106 92ZM1086 86L1086 90L1106 90L1106 86L1086 86Z" fill="currentColor" fill-rule="nonzero" />
  </g>
</svg>

