<svg viewBox="0 0 32 32" xmlns="http://www.w3.org/2000/svg" fill="none">
  <g transform="translate(-1008 -72)">
<path id="Vector 99" d="M1017 79C1017.55 79 1018 78.5523 1018 78C1018 77.4477 1017.55 77 1017 77C1016.45 77 1016 77.4477 1016 78C1016 78.5523 1016.45 79 1017 79Z" fill="currentColor" fill-rule="nonzero" />
		<path id="Vector 100" d="M1034 82L1014 82C1013.47 82 1012.96 81.7893 1012.59 81.4142C1012.21 81.0391 1012 80.5304 1012 80L1012 76C1012 75.4696 1012.21 74.9609 1012.59 74.5858C1012.96 74.2107 1013.47 74 1014 74L1034 74C1034.53 74 1035.04 74.2107 1035.41 74.5858C1035.79 74.9609 1036 75.4696 1036 76L1036 80C1036 80.5304 1035.79 81.0391 1035.41 81.4142C1035.04 81.7893 1034.53 82 1034 82ZM1014 76L1014 80L1034 80L1034 76L1014 76Z" fill="currentColor" fill-rule="nonzero" />
		<path id="Vector 101" d="M1017 89C1017.55 89 1018 88.5523 1018 88C1018 87.4477 1017.55 87 1017 87C1016.45 87 1016 87.4477 1016 88C1016 88.5523 1016.45 89 1017 89Z" fill="currentColor" fill-rule="nonzero" />
		<path id="Vector 102" d="M1034 92L1014 92C1013.47 92 1012.96 91.7893 1012.59 91.4142C1012.21 91.0391 1012 90.5304 1012 90L1012 86C1012 85.4696 1012.21 84.9609 1012.59 84.5858C1012.96 84.2107 1013.47 84 1014 84L1034 84C1034.53 84 1035.04 84.2107 1035.41 84.5858C1035.79 84.9609 1036 85.4696 1036 86L1036 90C1036 90.5304 1035.79 91.0391 1035.41 91.4142C1035.04 91.7893 1034.53 92 1034 92ZM1014 86L1014 90L1034 90L1034 86L1014 86Z" fill="currentColor" fill-rule="nonzero" />
		<path id="Vector 103" d="M1017 99C1017.55 99 1018 98.5523 1018 98C1018 97.4477 1017.55 97 1017 97C1016.45 97 1016 97.4477 1016 98C1016 98.5523 1016.45 99 1017 99Z" fill="currentColor" fill-rule="nonzero" />
		<path id="Vector 104" d="M1034 102L1014 102C1013.47 102 1012.96 101.789 1012.59 101.414C1012.21 101.039 1012 100.53 1012 100L1012 96C1012 95.4696 1012.21 94.9609 1012.59 94.5858C1012.96 94.2107 1013.47 94 1014 94L1034 94C1034.53 94 1035.04 94.2107 1035.41 94.5858C1035.79 94.9609 1036 95.4696 1036 96L1036 100C1036 100.53 1035.79 101.039 1035.41 101.414C1035.04 101.789 1034.53 102 1034 102ZM1014 96L1014 100L1034 100L1034 96L1014 96Z" fill="currentColor" fill-rule="nonzero" />
  </g>
</svg>

