<svg viewBox="0 0 32 32" xmlns="http://www.w3.org/2000/svg" fill="none">
  <g transform="translate(-1152 -72)">
<path id="Vector 108" d="M1169 100L1169 94L1167 94L1167 100L1157 100L1157 102L1179 102L1179 100L1169 100Z" fill="currentColor" fill-rule="nonzero" />
		<path id="Vector 109" d="M1161 89C1161.55 89 1162 88.5523 1162 88C1162 87.4477 1161.55 87 1161 87C1160.45 87 1160 87.4477 1160 88C1160 88.5523 1160.45 89 1161 89Z" fill="currentColor" fill-rule="nonzero" />
		<path id="Vector 110" d="M1178 92L1158 92C1157.47 92 1156.96 91.7893 1156.59 91.4142C1156.21 91.0391 1156 90.5304 1156 90L1156 86C1156 85.4696 1156.21 84.9609 1156.59 84.5858C1156.96 84.2107 1157.47 84 1158 84L1178 84C1178.53 84 1179.04 84.2107 1179.41 84.5858C1179.79 84.9609 1180 85.4696 1180 86L1180 90C1180 90.5304 1179.79 91.0391 1179.41 91.4142C1179.04 91.7893 1178.53 92 1178 92ZM1158 86L1158 90L1178 90L1178 86L1158 86Z" fill="currentColor" fill-rule="nonzero" />
		<path id="Vector 111" d="M1161 79C1161.55 79 1162 78.5523 1162 78C1162 77.4477 1161.55 77 1161 77C1160.45 77 1160 77.4477 1160 78C1160 78.5523 1160.45 79 1161 79Z" fill="currentColor" fill-rule="nonzero" />
		<path id="Vector 112" d="M1178 82L1158 82C1157.47 82 1156.96 81.7893 1156.59 81.4142C1156.21 81.0391 1156 80.5304 1156 80L1156 76C1156 75.4696 1156.21 74.9609 1156.59 74.5858C1156.96 74.2107 1157.47 74 1158 74L1178 74C1178.53 74 1179.04 74.2107 1179.41 74.5858C1179.79 74.9609 1180 75.4696 1180 76L1180 80C1180 80.5304 1179.79 81.0391 1179.41 81.4142C1179.04 81.7893 1178.53 82 1178 82ZM1158 76L1158 80L1178 80L1178 76L1158 76Z" fill="currentColor" fill-rule="nonzero" />
  </g>
</svg>

