<svg viewBox="0 0 32 32" xmlns="http://www.w3.org/2000/svg" fill="none">
  <g transform="translate(-1224 -72)">
<path id="Vector 113" d="M1248 102C1244.7 102 1242 99.3 1242 96C1242 92.7 1244.7 90 1248 90C1251.3 90 1254 92.7 1254 96C1254 99.3 1251.3 102 1248 102ZM1248 92C1245.8 92 1244 93.8 1244 96C1244 98.2 1245.8 100 1248 100C1250.2 100 1252 98.2 1252 96C1252 93.8 1250.2 92 1248 92ZM1240 100L1236 100L1236 76L1244 76L1244 82C1244 83.1 1244.9 84 1246 84L1252 84L1252 88L1254 88L1254 82C1254 81.7 1253.9 81.5 1253.7 81.3L1246.7 74.3C1246.5 74.1 1246.3 74 1246 74L1236 74C1234.9 74 1234 74.9 1234 76L1234 100C1234 101.1 1234.9 102 1236 102L1240 102L1240 100ZM1246 76.4L1251.6 82L1246 82L1246 76.4ZM1228 79L1226 79L1226 99L1228 99L1228 79ZM1232 76L1230 76L1230 100L1232 100L1232 76Z" fill="currentColor" fill-rule="nonzero" />
  </g>
</svg>

