<svg viewBox="0 0 32 32" xmlns="http://www.w3.org/2000/svg" fill="none">
  <g transform="translate(-1296 -72)">
<path id="Vector 114" d="M1312 74C1309.23 74 1306.52 74.8211 1304.22 76.3594C1301.92 77.8978 1300.13 80.0843 1299.07 82.6424C1298.01 85.2006 1297.73 88.0155 1298.27 90.7313C1298.81 93.447 1300.14 95.9416 1302.1 97.8995C1304.06 99.8574 1306.55 101.191 1309.27 101.731C1311.98 102.271 1314.8 101.994 1317.36 100.934C1319.92 99.8747 1322.1 98.0803 1323.64 95.778C1325.18 93.4757 1326 90.7689 1326 88C1326 84.2883 1324.52 80.7298 1321.89 78.1052C1319.27 75.4806 1315.71 74.0042 1312 74ZM1323.95 87L1318.04 87C1318.29 84.4122 1319.24 81.9405 1320.78 79.847C1322.61 81.8074 1323.73 84.3271 1323.95 87ZM1313 87L1313 76.05C1315.29 76.2395 1317.47 77.0862 1319.29 78.488C1317.42 80.9582 1316.29 83.9114 1316.04 87L1313 87ZM1311 87L1307.96 87C1307.71 83.9114 1306.58 80.9582 1304.71 78.488C1306.53 77.0865 1308.71 76.2402 1311 76.051L1311 87ZM1311 89L1311 99.95C1308.71 99.7605 1306.53 98.9138 1304.71 97.512C1306.58 95.0418 1307.71 92.0886 1307.96 89L1311 89ZM1313 89L1316.04 89C1316.29 92.0887 1317.42 95.0419 1319.29 97.512C1317.47 98.9137 1315.29 99.76 1313 99.949L1313 89ZM1303.22 79.847C1304.76 81.9402 1305.71 84.412 1305.96 87L1300.05 87C1300.27 84.3273 1301.39 81.8076 1303.22 79.847M1300.05 89L1305.96 89C1305.71 91.5878 1304.76 94.0596 1303.22 96.153C1301.39 94.1926 1300.27 91.6729 1300.05 89ZM1320.78 96.153C1319.24 94.0598 1318.29 91.588 1318.04 89L1323.95 89C1323.72 91.6727 1322.61 94.1924 1320.78 96.153" fill="currentColor" fill-rule="nonzero" />
  </g>
</svg>

