<svg viewBox="0 0 32 32" xmlns="http://www.w3.org/2000/svg" fill="none">
  <g transform="translate(-1368.000122 -72)">
<path id="Vector 115" d="M1395.53 74.709C1395.34 74.4869 1395.11 74.3084 1394.84 74.186C1394.58 74.0636 1394.29 74.0001 1394 74L1391.31 74C1391.03 73.9998 1390.76 74.0774 1390.52 74.224C1390.28 74.3706 1390.09 74.5805 1389.97 74.83L1389.38 76L1388 76L1388 75.5C1388 75.1022 1387.84 74.7206 1387.56 74.4393C1387.28 74.158 1386.9 74 1386.5 74L1381.5 74C1381.1 74 1380.72 74.158 1380.44 74.4393C1380.16 74.7206 1380 75.1022 1380 75.5L1380 76L1378.62 76L1378.03 74.83C1377.91 74.5805 1377.72 74.3706 1377.48 74.224C1377.24 74.0774 1376.97 73.9998 1376.69 74L1374 74C1373.71 74 1373.42 74.0635 1373.16 74.1859C1372.89 74.3083 1372.66 74.4868 1372.47 74.7089C1372.29 74.931 1372.15 75.1914 1372.07 75.4719C1371.99 75.7524 1371.98 76.0462 1372.03 76.333L1372.73 80.5C1372.85 81.199 1373.21 81.8336 1373.75 82.2913C1374.3 82.7489 1374.98 83 1375.69 83L1376 83L1376 95C1375.2 95.0008 1374.44 95.3171 1373.88 95.8796C1373.32 96.442 1373 97.2046 1373 98L1373 102L1395 102L1395 98C1395 97.2046 1394.68 96.442 1394.12 95.8796C1393.56 95.3171 1392.8 95.0008 1392 95L1392 83L1392.31 83C1393.02 83 1393.71 82.7489 1394.25 82.2913C1394.79 81.8336 1395.15 81.199 1395.27 80.5L1395.97 76.333C1396.02 76.0462 1396.01 75.7524 1395.93 75.4719C1395.85 75.1914 1395.71 74.9311 1395.53 74.709ZM1393 98L1393 100L1375 100L1375 98C1375 97.7348 1375.11 97.4804 1375.29 97.2929C1375.48 97.1054 1375.73 97 1376 97L1392 97C1392.27 97 1392.52 97.1054 1392.71 97.2929C1392.89 97.4804 1393 97.7348 1393 98ZM1390 95L1378 95L1378 83L1390 83L1390 95ZM1393.3 80.167C1393.26 80.3999 1393.14 80.6114 1392.96 80.7639C1392.78 80.9164 1392.55 81 1392.31 81L1375.69 81C1375.45 81 1375.23 80.9164 1375.04 80.7639C1374.86 80.6114 1374.74 80.3999 1374.7 80.167L1374 76L1376.38 76L1377.38 78L1382 78L1382 76L1386 76L1386 78L1390.62 78L1391.62 76L1394 76L1393.3 80.167Z" fill="currentColor" fill-rule="nonzero" />
  </g>
</svg>

