<svg viewBox="0 0 32 32" xmlns="http://www.w3.org/2000/svg" fill="none">
  <g transform="translate(-1440.000122 -72)">
<path id="Vector 116" d="M1471.91 78.584C1471.83 78.4097 1471.7 78.2619 1471.54 78.1584C1471.38 78.0549 1471.19 77.9999 1471 78C1466.23 78 1462.74 78.889 1460 80.844L1460 75L1458 75L1458 78L1454 78L1454 75L1452 75L1452 80.844C1449.26 78.889 1445.77 78 1441 78C1440.81 78.0001 1440.62 78.0552 1440.46 78.1588C1440.3 78.2624 1440.17 78.4101 1440.09 78.5843C1440.01 78.7585 1439.98 78.952 1440.01 79.1416C1440.04 79.3312 1440.12 79.5091 1440.24 79.654C1441.95 81.622 1443 83.704 1443 88C1443 88.2652 1443.11 88.5196 1443.29 88.7071C1443.48 88.8946 1443.73 89 1444 89C1446.77 89 1450 90.31 1450 94C1450 94.2535 1450.1 94.4974 1450.27 94.6825C1450.44 94.8676 1450.68 94.9803 1450.93 94.998C1451.35 95.028 1455 95.388 1455 99C1455 99.2652 1455.11 99.5196 1455.29 99.7071C1455.48 99.8946 1455.73 100 1456 100C1456.27 100 1456.52 99.8946 1456.71 99.7071C1456.89 99.5196 1457 99.2652 1457 99C1457 95.387 1460.65 95.027 1461.06 94.998C1461.32 94.9822 1461.55 94.8702 1461.73 94.6848C1461.9 94.4994 1462 94.2545 1462 94C1462 90.31 1465.23 89 1468 89C1468.27 89 1468.52 88.8946 1468.71 88.7071C1468.89 88.5196 1469 88.2652 1469 88C1469 83.704 1470.06 81.622 1471.76 79.654C1471.88 79.509 1471.96 79.3311 1471.99 79.1414C1472.02 78.9518 1471.99 78.7583 1471.91 78.584ZM1467.02 87.044C1463.63 87.352 1460.46 89.273 1460.05 93.123C1458.43 93.4166 1456.99 94.3036 1456 95.609C1455.01 94.3034 1453.57 93.4164 1451.95 93.123C1451.54 89.273 1448.37 87.353 1444.98 87.044C1445 84.582 1444.33 82.1643 1443.05 80.064C1447.18 80.337 1450.08 81.492 1452.29 83.707C1452.43 83.8468 1452.61 83.942 1452.81 83.9806C1453 84.0192 1453.2 83.9993 1453.38 83.9237C1453.57 83.848 1453.72 83.7199 1453.83 83.5555C1453.94 83.391 1454 83.1978 1454 83L1454 80L1458 80L1458 83C1458 83.1978 1458.06 83.391 1458.17 83.5555C1458.28 83.7199 1458.43 83.848 1458.62 83.9237C1458.8 83.9993 1459 84.0192 1459.2 83.9806C1459.39 83.942 1459.57 83.8468 1459.71 83.707C1461.92 81.492 1464.82 80.337 1468.96 80.065C1467.67 82.1653 1467 84.583 1467.02 87.045L1467.02 87.044Z" fill="currentColor" fill-rule="nonzero" />
  </g>
</svg>

