<svg viewBox="0 0 32 32" xmlns="http://www.w3.org/2000/svg" fill="none">
  <g transform="translate(-1584.000122 -72)">
<path id="Vector 120" d="M1608 92L1608 96L1604 96L1604 100L1600 100L1600 102L1606 102L1606 98L1610 98L1610 94L1614 94L1614 92L1608 92ZM1592 76L1600 76L1600 82C1600 83.103 1600.9 84 1602 84L1608 84L1608 88L1610 88L1610 82C1610 81.7348 1609.89 81.4805 1609.71 81.293L1602.71 74.293C1602.52 74.1055 1602.27 74.0001 1602 74L1592 74C1590.9 74 1590 74.897 1590 76L1590 100C1590 101.103 1590.9 102 1592 102L1596 102L1596 100L1592 100L1592 76ZM1607.59 82L1602 82L1602 76.414L1607.59 82Z" fill="currentColor" fill-rule="nonzero" />
  </g>
</svg>

