<svg viewBox="0 0 32 32" xmlns="http://www.w3.org/2000/svg" fill="none">
  <g transform="translate(-1512.000122 -72)">
<path id="Vector 117" d="M1544 98L1544 96L1541.9 96C1541.77 95.3743 1541.52 94.7792 1541.17 94.247L1542.66 92.757L1541.24 91.343L1539.75 92.833C1539.22 92.4792 1538.63 92.2307 1538 92.101L1538 90L1536 90L1536 92.101C1535.37 92.2307 1534.78 92.4792 1534.25 92.833L1532.76 91.343L1531.34 92.757L1532.83 94.247C1532.48 94.7792 1532.23 95.3743 1532.1 96L1530 96L1530 98L1532.1 98C1532.23 98.637 1532.49 99.229 1532.83 99.753L1531.34 101.243L1532.76 102.657L1534.25 101.167C1534.78 101.521 1535.37 101.769 1536 101.899L1536 104L1538 104L1538 101.899C1538.63 101.769 1539.22 101.521 1539.75 101.167L1541.24 102.657L1542.66 101.243L1541.17 99.753C1541.52 99.2208 1541.77 98.6257 1541.9 98L1544 98ZM1537 100C1535.35 100 1534 98.654 1534 97C1534 95.346 1535.35 94 1537 94C1538.65 94 1540 95.346 1540 97C1540 98.654 1538.65 100 1537 100ZM1532 89L1524 89C1523.47 89 1522.96 88.7893 1522.59 88.4142C1522.21 88.0391 1522 87.5304 1522 87L1522 76C1522 75.4696 1522.21 74.9609 1522.59 74.5858C1522.96 74.2107 1523.47 74 1524 74L1532 74C1532.53 74 1533.04 74.2107 1533.41 74.5858C1533.79 74.9609 1534 75.4696 1534 76L1534 87C1534 87.5304 1533.79 88.0391 1533.41 88.4142C1533.04 88.7893 1532.53 89 1532 89ZM1524 87L1532 87L1532 76L1524 76L1524 87Z" fill="currentColor" fill-rule="nonzero" />
		<path id="Vector 118" d="M1529 93L1520 93C1519.47 93 1518.96 92.7893 1518.59 92.4142C1518.21 92.0391 1518 91.5304 1518 91L1518 79L1520 79L1520 91L1529 91L1529 93Z" fill="currentColor" fill-rule="nonzero" />
		<path id="Vector 119" d="M1525 97L1516 97C1514.9 97 1514 96.103 1514 95L1514 83L1516 83L1516 95L1525 95L1525 97Z" fill="currentColor" fill-rule="nonzero" />
  </g>
</svg>

