<svg viewBox="0 0 32 32" xmlns="http://www.w3.org/2000/svg" fill="none">
  <g transform="translate(-1944.000122 -72)">
<path id="Vector 127" d="M1968 96L1950 96C1949.47 96 1948.96 95.7893 1948.59 95.4142C1948.21 95.0391 1948 94.5304 1948 94L1948 82C1948 81.4696 1948.21 80.9609 1948.59 80.5858C1948.96 80.2107 1949.47 80 1950 80L1968 80C1968.53 80 1969.04 80.2107 1969.41 80.5858C1969.79 80.9609 1970 81.4696 1970 82L1970 83L1971 83C1971.53 83 1972.04 83.2107 1972.41 83.5858C1972.79 83.9609 1973 84.4696 1973 85L1973 91C1973 91.5304 1972.79 92.0391 1972.41 92.4142C1972.04 92.7893 1971.53 93 1971 93L1970 93L1970 94C1970 94.5304 1969.79 95.0391 1969.41 95.4142C1969.04 95.7893 1968.53 96 1968 96ZM1950 82L1950 94L1968 94L1968 91L1971 91L1971 85L1968 85L1968 82L1950 82Z" fill="currentColor" fill-rule="nonzero" />
		<path id="Vector 128" d="M1960 84L1960 92L1952 92L1952 84L1960 84Z" fill="currentColor" fill-rule="nonzero" />
  </g>
</svg>

