<svg viewBox="0 0 32 32" xmlns="http://www.w3.org/2000/svg" fill="none">
  <g transform="translate(-1800.000122 -72)">
<path id="Vector 124" d="M1827 83L1826 83L1826 82C1826 80.9 1825.1 80 1824 80L1817 80L1817 82L1824 82L1824 85L1827 85L1827 91L1824 91L1824 94L1806 94L1806 89L1804 89L1804 94C1804 95.1 1804.9 96 1806 96L1824 96C1825.1 96 1826 95.1 1826 94L1826 93L1827 93C1828.1 93 1829 92.1 1829 91L1829 85C1829 83.9 1828.1 83 1827 83ZM1809 87C1812.31 87 1815 84.31 1815 81C1815 77.69 1812.31 75 1809 75C1805.69 75 1803 77.69 1803 81C1803 84.31 1805.69 87 1809 87ZM1809 77C1811.21 77 1813 78.79 1813 81C1813 81.71 1812.8 82.41 1812.43 83.02L1806.98 77.57C1807.59 77.2036 1808.29 77.0068 1809 77ZM1805.57 78.98L1811.02 84.43C1810.41 84.7964 1809.71 84.9932 1809 85C1806.79 85 1805 83.21 1805 81C1805 80.29 1805.2 79.59 1805.57 78.98Z" fill="currentColor" fill-rule="nonzero" />
  </g>
</svg>

