<svg viewBox="0 0 32 32" xmlns="http://www.w3.org/2000/svg" fill="none">
  <g transform="translate(-1656.000122 -72)">
<path id="Vector 121" d="M1683 83L1682 83L1682 82C1682 81.4696 1681.79 80.9609 1681.41 80.5858C1681.04 80.2107 1680.53 80 1680 80L1676 80L1676 82L1680 82L1680 85L1683 85L1683 91L1680 91L1680 94L1675 94L1675 96L1680 96C1680.53 96 1681.04 95.7893 1681.41 95.4142C1681.79 95.0391 1682 94.5304 1682 94L1682 93L1683 93C1683.53 93 1684.04 92.7893 1684.41 92.4142C1684.79 92.0391 1685 91.5304 1685 91L1685 85C1685 84.4696 1684.79 83.9609 1684.41 83.5858C1684.04 83.2107 1683.53 83 1683 83ZM1667 94L1662 94L1662 82L1668 82L1668 80L1662 80C1661.47 80 1660.96 80.2107 1660.59 80.5858C1660.21 80.9609 1660 81.4696 1660 82L1660 94C1660 94.5304 1660.21 95.0391 1660.59 95.4142C1660.96 95.7893 1661.47 96 1662 96L1667 96L1667 94Z" fill="currentColor" fill-rule="nonzero" />
		<path id="Vector 122" d="M1670.81 95.58L1669.19 94.42L1673.06 89L1665.37 89L1672.22 80.38L1673.78 81.62L1669.51 87L1676.94 87L1670.81 95.58Z" fill="currentColor" fill-rule="nonzero" />
  </g>
</svg>

