<svg viewBox="0 0 32 32" xmlns="http://www.w3.org/2000/svg" fill="none">
  <g transform="translate(-1728.000122 -72)">
<path id="Vector 123" d="M1752 96L1734 96C1733.47 96 1732.96 95.7893 1732.59 95.4142C1732.21 95.0391 1732 94.5304 1732 94L1732 82C1732 81.4696 1732.21 80.9609 1732.59 80.5858C1732.96 80.2107 1733.47 80 1734 80L1752 80C1752.53 80 1753.04 80.2107 1753.41 80.5858C1753.79 80.9609 1754 81.4696 1754 82L1754 83L1755 83C1755.53 83 1756.04 83.2107 1756.41 83.5858C1756.79 83.9609 1757 84.4696 1757 85L1757 91C1757 91.5302 1756.79 92.0384 1756.41 92.4133C1756.04 92.7882 1755.53 92.9992 1755 93L1754 93L1754 94C1754 94.5302 1753.79 95.0384 1753.41 95.4133C1753.04 95.7882 1752.53 95.9992 1752 96ZM1734 82L1734 94L1752 94L1752 91L1755 91L1755 85L1752 85L1752 82L1734 82Z" fill="currentColor" fill-rule="nonzero" />
  </g>
</svg>

