<svg viewBox="0 0 32 32" xmlns="http://www.w3.org/2000/svg" fill="none">
  <g transform="translate(-1872.000122 -72)">
<path id="Vector 125" d="M1896 96L1878 96C1877.47 96 1876.96 95.7893 1876.59 95.4142C1876.21 95.0391 1876 94.5304 1876 94L1876 82C1876 81.4696 1876.21 80.9609 1876.59 80.5858C1876.96 80.2107 1877.47 80 1878 80L1896 80C1896.53 80 1897.04 80.2107 1897.41 80.5858C1897.79 80.9609 1898 81.4696 1898 82L1898 83L1899 83C1899.53 83 1900.04 83.2107 1900.41 83.5858C1900.79 83.9609 1901 84.4696 1901 85L1901 91C1901 91.5304 1900.79 92.0391 1900.41 92.4142C1900.04 92.7893 1899.53 93 1899 93L1898 93L1898 94C1898 94.5304 1897.79 95.0391 1897.41 95.4142C1897.04 95.7893 1896.53 96 1896 96ZM1878 82L1878 94L1896 94L1896 91L1899 91L1899 85L1896 85L1896 82L1878 82Z" fill="currentColor" fill-rule="nonzero" />
		<path id="Vector 126" d="M1894 84L1894 92L1880 92L1880 84L1894 84Z" fill="currentColor" fill-rule="nonzero" />
  </g>
</svg>

