<svg viewBox="0 0 32 32" xmlns="http://www.w3.org/2000/svg" fill="none">
  <g transform="translate(-0 -144)">
<path id="Vector 129" d="M27 155L29 155L29 159L27 159L27 155ZM3 155L5 155L5 159L3 159L3 155ZM20 164L22 164L22 166L20 166L20 164ZM10 164L12 164L12 166L10 166L10 164Z" fill="currentColor" fill-rule="nonzero" />
		<path id="Vector 130" d="M21 148L11 148C9.6744 148.002 8.40356 148.529 7.46622 149.466C6.52888 150.404 6.00159 151.674 6 153L6 167C6 167.53 6.21071 168.039 6.58579 168.414C6.96086 168.789 7.46957 169 8 169L8 172L10 172L10 169L22 169L22 172L24 172L24 169C24.5302 168.999 25.0384 168.788 25.4133 168.413C25.7882 168.038 25.9992 167.53 26 167L26 153C25.9984 151.674 25.4711 150.404 24.5338 149.466C23.5964 148.529 22.3256 148.002 21 148ZM24 154L24 160L8 160L8 154L24 154ZM11 150L21 150C21.6184 150.002 22.2211 150.195 22.7253 150.553C23.2296 150.911 23.6105 151.417 23.816 152L8.184 152C8.38945 151.417 8.77045 150.911 9.27465 150.553C9.77886 150.195 10.3816 150.002 11 150ZM8 167L8 162L24.001 162L24.002 167L8 167Z" fill="currentColor" fill-rule="nonzero" />
  </g>
</svg>

