<svg viewBox="0 0 32 32" xmlns="http://www.w3.org/2000/svg" fill="none">
  <g transform="translate(-72 -144)">
<path id="Vector 131" d="M94 174C93.8143 174 93.6324 173.948 93.4745 173.85C93.3166 173.753 93.189 173.613 93.106 173.447L91.382 170L88 170L88 168L92 168C92.1858 168 92.368 168.052 92.5261 168.149C92.6842 168.247 92.8119 168.387 92.895 168.553L94 170.763L97.106 164.553C97.29 164.184 97.645 164 98 164C98.355 164 98.71 164.184 98.894 164.553L100.618 168L104 168L104 170L100 170C99.8143 170 99.6324 169.948 99.4745 169.85C99.3166 169.753 99.189 169.613 99.106 169.447L98 167.237L94.895 173.447C94.8119 173.613 94.6842 173.753 94.5261 173.851C94.368 173.948 94.1858 174 94 174ZM95.414 154L94 152.586L89.285 157.3C88.8842 157.106 88.4453 157.003 88 157C86.346 157 85 158.346 85 160C85 161.654 86.346 163 88 163C89.654 163 91 161.654 91 160C91 159.538 90.887 159.106 90.7 158.715L95.414 154ZM88 161C87.449 161 87 160.551 87 160C87 159.449 87.449 159 88 159C88.551 159 89 159.449 89 160C89 160.551 88.551 161 88 161ZM98 160C98.0009 158.391 97.6096 156.806 96.86 155.382L95.365 156.878C95.773 157.838 96 158.893 96 160L98 160ZM88 152C89.107 152 90.162 152.227 91.122 152.635L92.618 151.139C91.1941 150.39 89.609 149.999 88 150C82.486 150 78 154.486 78 160L80 160C80 155.589 83.589 152 88 152Z" fill="currentColor" fill-rule="nonzero" />
		<path id="Vector 132" d="M79.51 168.49C78.3942 167.376 77.5097 166.053 76.9073 164.596C76.3049 163.138 75.9966 161.577 76 160C76 153.37 81.37 148 88 148C94.62 148 99.99 153.38 100 160L102 160C102 152.27 95.73 146 88 146C80.27 146 74 152.27 74 160C74 163.87 75.57 167.37 78.1 169.9L79.51 168.49Z" fill="currentColor" fill-rule="nonzero" />
  </g>
</svg>

