<svg viewBox="0 0 32 32" xmlns="http://www.w3.org/2000/svg" fill="none">
  <g transform="translate(-144 -144)">
<path id="Vector 133" d="M167 175L166.972 175C166.771 174.994 166.577 174.929 166.415 174.811C166.252 174.694 166.128 174.531 166.06 174.342L162.924 165.717L160.919 170.394C160.842 170.574 160.714 170.727 160.55 170.835C160.387 170.943 160.196 171 160 171L156 171L156 169L159.34 169L162.08 162.606C162.243 162.229 162.629 161.99 163.028 162C163.229 162.006 163.423 162.071 163.585 162.189C163.748 162.306 163.872 162.47 163.94 162.658L167.076 171.284L169.081 166.606C169.158 166.426 169.286 166.273 169.45 166.165C169.613 166.057 169.804 166 170 166L174 166L174 168L170.66 168L167.92 174.394C167.843 174.574 167.715 174.727 167.551 174.835C167.387 174.943 167.196 175 167 175Z" fill="currentColor" fill-rule="nonzero" />
		<path id="Vector 134" d="M153 169L148 169L148 154L172 154L172 163L174 163L174 154C174 152.897 173.103 152 172 152L166 152L166 148C166 146.897 165.103 146 164 146L156 146C154.897 146 154 146.897 154 148L154 152L148 152C146.897 152 146 152.897 146 154L146 169C146 170.103 146.897 171 148 171L153 171L153 169ZM156 148L164 148L164 152L156 152L156 148Z" fill="currentColor" fill-rule="nonzero" />
  </g>
</svg>

