<svg viewBox="0 0 32 32" xmlns="http://www.w3.org/2000/svg" fill="none">
  <g transform="translate(-216 -144)">
<path id="Vector 135" d="M225 159L239 159L239 161L225 161L225 159Z" fill="currentColor" fill-rule="nonzero" />
		<path id="Vector 136" d="M244 166L220 166C219.47 166 218.961 165.789 218.586 165.414C218.211 165.039 218 164.53 218 164L218 156C218 155.47 218.211 154.961 218.586 154.586C218.961 154.211 219.47 154 220 154L244 154C244.53 154 245.039 154.211 245.414 154.586C245.789 154.961 246 155.47 246 156L246 164C246 164.53 245.789 165.039 245.414 165.414C245.039 165.789 244.53 166 244 166ZM220 156L220 164L244 164L244 156L220 156Z" fill="currentColor" fill-rule="nonzero" />
  </g>
</svg>

