<svg viewBox="0 0 32 32" xmlns="http://www.w3.org/2000/svg" fill="none">
  <g transform="translate(-432 -144)">
<path id="Vector 140" d="M459.302 146C458.946 146 458.594 146.071 458.266 146.21C457.939 146.348 457.642 146.551 457.394 146.806L457.001 147.211L456.604 146.806C456.356 146.551 456.06 146.348 455.732 146.209C455.404 146.071 455.052 145.999 454.696 145.999C454.34 145.999 453.988 146.071 453.66 146.209C453.332 146.348 453.036 146.551 452.788 146.806C452.282 147.328 451.999 148.027 451.999 148.754C451.999 149.481 452.282 150.18 452.788 150.702L457.001 155L461.21 150.702C461.716 150.18 461.999 149.481 461.999 148.754C461.999 148.027 461.716 147.328 461.21 146.806C460.962 146.551 460.665 146.348 460.338 146.21C460.01 146.071 459.658 146 459.302 146ZM455.822 162L447.083 162L443.864 149.965C443.58 148.951 442.907 148.09 441.993 147.569C441.078 147.048 439.994 146.908 438.977 147.181C437.96 147.453 437.092 148.116 436.56 149.025C436.028 149.933 435.876 151.015 436.137 152.035L440.545 168.517C440.659 168.942 440.91 169.318 441.259 169.586C441.609 169.855 442.037 170 442.477 170L451 170L451 172L436 172L436 174L451 174C451.53 174 452.039 173.789 452.414 173.414C452.789 173.039 453 172.53 453 172L453 170L456 170C456.559 169.999 457.111 169.881 457.622 169.654C458.132 169.427 458.59 169.096 458.965 168.682C459.34 168.267 459.624 167.779 459.798 167.248C459.973 166.717 460.035 166.156 459.98 165.6C459.852 164.593 459.357 163.669 458.59 163.005C457.822 162.34 456.837 161.982 455.822 162ZM456 168L442.478 168L438.068 151.518C438 151.264 437.983 151 438.017 150.739C438.051 150.479 438.137 150.228 438.268 150C438.399 149.773 438.574 149.573 438.783 149.414C438.991 149.254 439.229 149.136 439.483 149.068C439.736 149.001 440.001 148.983 440.261 149.018C440.522 149.052 440.773 149.137 441 149.268C441.228 149.4 441.427 149.575 441.587 149.783C441.747 149.991 441.864 150.229 441.932 150.483L445.547 164L456 164C456.53 164 457.039 164.211 457.414 164.586C457.789 164.961 458 165.47 458 166C458 166.53 457.789 167.039 457.414 167.414C457.039 167.789 456.53 168 456 168Z" fill="currentColor" fill-rule="nonzero" />
  </g>
</svg>

