<svg viewBox="0 0 32 32" xmlns="http://www.w3.org/2000/svg" fill="none">
  <g transform="translate(-504 -144)">
<path id="Vector 141" d="M528 146L530 146L530 153L528 153L528 146Z" fill="currentColor" fill-rule="nonzero" />
		<path id="Vector 142" d="M530.5 156.5C530.5 155.672 529.828 155 529 155C528.172 155 527.5 155.672 527.5 156.5C527.5 157.328 528.172 158 529 158C529.828 158 530.5 157.328 530.5 156.5Z" fill="currentColor" fill-rule="nonzero" />
		<path id="Vector 143" d="M527.822 162L519.083 162L515.864 149.965C515.58 148.951 514.907 148.09 513.993 147.569C513.078 147.048 511.994 146.908 510.977 147.181C509.96 147.453 509.092 148.116 508.56 149.024C508.028 149.933 507.876 151.015 508.137 152.035L512.545 168.517C512.659 168.942 512.91 169.318 513.259 169.586C513.609 169.855 514.037 170 514.477 170L523 170L523 172L508 172L508 174L523 174C523.53 174 524.039 173.789 524.414 173.414C524.789 173.039 525 172.53 525 172L525 170L528 170C528.559 169.999 529.111 169.881 529.622 169.654C530.132 169.427 530.59 169.096 530.965 168.682C531.339 168.267 531.623 167.779 531.798 167.248C531.973 166.717 532.035 166.156 531.98 165.6C531.852 164.593 531.357 163.669 530.59 163.005C529.822 162.34 528.837 161.982 527.822 162ZM528 168L514.478 168L510.067 151.518C509.999 151.264 509.982 151 510.016 150.739C510.05 150.479 510.136 150.228 510.267 150C510.398 149.773 510.573 149.573 510.782 149.414C510.99 149.254 511.228 149.136 511.482 149.068C511.735 149.001 512 148.983 512.26 149.018C512.521 149.052 512.772 149.137 512.999 149.268C513.227 149.4 513.426 149.575 513.586 149.783C513.746 149.991 513.863 150.229 513.931 150.483L517.547 164L528 164C528.53 164 529.039 164.211 529.414 164.586C529.789 164.961 530 165.47 530 166C530 166.53 529.789 167.039 529.414 167.414C529.039 167.789 528.53 168 528 168Z" fill="currentColor" fill-rule="nonzero" />
  </g>
</svg>

