<svg viewBox="0 0 32 32" xmlns="http://www.w3.org/2000/svg" fill="none">
  <g transform="translate(-1080 -144)">
<path id="Vector 153" d="M1110 150.614L1108.69 151.051C1106.84 151.627 1104.93 151.946 1103 152C1101.27 152 1099.68 151.093 1098 150.132C1096.16 149.084 1094.27 148 1092 148C1089.12 148 1085.92 150.206 1084 151.772L1084 146L1082 146L1082 172C1082 172.53 1082.21 173.038 1082.59 173.413C1082.96 173.788 1083.47 173.999 1084 174L1110 174L1110 150.614ZM1084 164.294C1085.87 161.376 1089.56 157 1092 157C1093.64 157 1094.96 158.102 1096.36 159.269C1097.9 160.549 1099.64 162 1102 162C1104.24 161.893 1106.36 160.997 1108 159.471L1108 164.427C1106.16 165.428 1104.1 165.967 1102 166C1100.4 165.956 1098.81 165.635 1097.32 165.051C1095.62 164.395 1093.82 164.04 1092 164C1089.07 164 1085.93 166.959 1084 169.158L1084 164.294ZM1092 150C1093.73 150 1095.32 150.907 1097 151.868C1098.84 152.916 1100.73 154 1103 154C1104.69 153.972 1106.37 153.744 1108 153.322L1108 156.643C1107.32 157.446 1104.92 160 1102 160C1100.36 160 1099.04 158.898 1097.64 157.731C1096.1 156.451 1094.36 155 1092 155C1089.06 155 1085.94 158.34 1084 160.845L1084 154.424C1085.55 152.966 1089.26 150 1092 150ZM1084.25 172C1085.86 169.909 1089.41 166 1092 166C1093.6 166.044 1095.19 166.365 1096.68 166.949C1098.38 167.605 1100.18 167.96 1102 168C1104.07 167.981 1106.12 167.525 1108 166.66L1108 172L1084.25 172Z" fill="currentColor" fill-rule="nonzero" />
  </g>
</svg>

