<svg viewBox="0 0 32 32" xmlns="http://www.w3.org/2000/svg" fill="none">
  <g transform="translate(-576 -144)">
<path id="Vector 144" d="M605 167L600 167C599.47 166.999 598.962 166.788 598.587 166.413C598.212 166.038 598.001 165.53 598 165L598 159C598 158.47 598.211 157.961 598.586 157.586C598.961 157.211 599.47 157 600 157L605 157L605 159L600 159L600 165L605 165L605 167ZM594 157L590 157L590 153L588 153L588 167L594 167C594.53 166.999 595.038 166.788 595.413 166.413C595.788 166.038 595.999 165.53 596 165L596 159C596 158.47 595.789 157.961 595.414 157.586C595.039 157.211 594.53 157 594 157ZM590 165L590 159L594 159L594 165L590 165ZM584 153L580 153C579.47 153 578.961 153.211 578.586 153.586C578.211 153.961 578 154.47 578 155L578 167L580 167L580 162L584 162L584 167L586 167L586 155C586 154.47 585.789 153.961 585.414 153.586C585.039 153.211 584.53 153 584 153ZM580 160L580 155L584 155L584 160L580 160Z" fill="currentColor" fill-rule="nonzero" />
  </g>
</svg>

