<svg viewBox="0 0 32 32" xmlns="http://www.w3.org/2000/svg" fill="none">
  <g transform="translate(-792 -144)">
<path id="Vector 148" d="M803.857 165.514L802.143 164.486L804.234 161L799.234 161L803.143 154.486L804.857 155.514L802.766 159L807.766 159L803.857 165.514Z" fill="currentColor" fill-rule="nonzero" />
		<path id="Vector 149" d="M822 151L821 151L821 148L819 148L819 151L818 151L818 157L819 157L819 168.5C819 168.898 818.842 169.279 818.561 169.561C818.279 169.842 817.898 170 817.5 170C817.102 170 816.721 169.842 816.439 169.561C816.158 169.279 816 168.898 816 168.5L816 160C816 159.735 815.895 159.48 815.707 159.293C815.52 159.105 815.265 159 815 159L811 159L811 149C811 148.735 810.895 148.48 810.707 148.293C810.52 148.105 810.265 148 810 148L797 148C796.735 148 796.48 148.105 796.293 148.293C796.105 148.48 796 148.735 796 149L796 170L794 170L794 172L813 172L813 170L811 170L811 161L814 161L814 168.5C814 169.428 814.369 170.318 815.025 170.975C815.682 171.631 816.572 172 817.5 172C818.428 172 819.318 171.631 819.975 170.975C820.631 170.318 821 169.428 821 168.5L821 157L822 157L822 151ZM809 170L798 170L798 150L809 150L809 170Z" fill="currentColor" fill-rule="nonzero" />
  </g>
</svg>

