<svg viewBox="0 0 32 32" xmlns="http://www.w3.org/2000/svg" fill="none">
  <g transform="translate(-936 -144)">
<path id="Vector 151" d="M964 167L964 170.586L959 165.586L959 159C959 158.814 958.948 158.632 958.85 158.475C958.753 158.317 958.613 158.189 958.447 158.106L953 155.381L953 149.828L955.586 152.414L957 151L952 146L947 151L948.414 152.414L951 149.828L951 155.382L945.553 158.105C945.387 158.188 945.247 158.316 945.149 158.474C945.052 158.632 945 158.814 945 159L945 165.586L940 170.586L940 167L938 167L938 174L945 174L945 172L941.414 172L946.197 167.217L951.553 169.895C951.692 169.964 951.845 170.001 952 170.001C952.155 170.001 952.308 169.964 952.447 169.895L957.803 167.217L962.586 172L959 172L959 174L966 174L966 167L964 167ZM951 167.382L947 165.382L947 160.618L951 162.618L951 167.382ZM952 160.882L948.236 159L952 157.118L955.764 159L952 160.882ZM957 165.382L953 167.382L953 162.618L957 160.618L957 165.382Z" fill="currentColor" fill-rule="nonzero" />
  </g>
</svg>

