<svg viewBox="0 0 32 32" xmlns="http://www.w3.org/2000/svg" fill="none">
  <g transform="translate(-720 -144)">
<path id="Vector 146" d="M748 153L742 153L742 155L748 155L748 159L744 159L744 161L748 161L748 165L742 165L742 167L748 167C748.53 166.999 749.038 166.788 749.413 166.413C749.788 166.038 749.999 165.53 750 165L750 155C750 154.47 749.789 153.961 749.414 153.586C749.039 153.211 748.53 153 748 153ZM740 167L732 167L732 161C732 160.47 732.211 159.961 732.586 159.586C732.961 159.211 733.47 159 734 159L738 159L738 155L732 155L732 153L738 153C738.53 153 739.039 153.211 739.414 153.586C739.789 153.961 740 154.47 740 155L740 159C740 159.53 739.789 160.039 739.414 160.414C739.039 160.789 738.53 161 738 161L734 161L734 165L740 165L740 167ZM722.5 166.5L722.5 165.5L725.5 165.5L725.5 154.5L722.5 154.5L722.5 153.5L726.5 153.5L726.5 165.5L729.5 165.5L729.5 166.5L722.5 166.5Z" fill="currentColor" fill-rule="nonzero" />
		<path id="Vector 147" d="M727 153L722 153L722 155L725 155L725 165L722 165L722 167L730 167L730 165L727 165L727 153Z" fill="currentColor" fill-rule="nonzero" />
  </g>
</svg>

