<svg viewBox="0 0 32 32" xmlns="http://www.w3.org/2000/svg" fill="none">
  <g transform="translate(-648 -144)">
<path id="Vector 145" d="M678 167L672 167C671.47 167 670.961 166.789 670.586 166.414C670.211 166.039 670 165.53 670 165L670 155C670 154.47 670.211 153.961 670.586 153.586C670.961 153.211 671.47 153 672 153L678 153L678 155L672 155L672 165L678 165L678 167ZM668 156C667.999 155.205 667.683 154.442 667.12 153.88C666.558 153.317 665.795 153.001 665 153L660 153L660 167L665 167C665.795 166.999 666.558 166.683 667.12 166.12C667.683 165.558 667.999 164.795 668 164L668 162C667.997 161.26 667.719 160.547 667.22 160C667.719 159.453 667.997 158.74 668 158L668 156ZM662 155L665 155C665.265 155 665.52 155.105 665.707 155.293C665.895 155.48 666 155.735 666 156L666 158C666 158.265 665.895 158.52 665.707 158.707C665.52 158.895 665.265 159 665 159L662 159L662 155ZM666 164C666 164.265 665.895 164.52 665.707 164.707C665.52 164.895 665.265 165 665 165L662 165L662 161L665 161C665.265 161 665.52 161.105 665.707 161.293C665.895 161.48 666 161.735 666 162L666 164ZM656 153L652 153C651.47 153 650.961 153.211 650.586 153.586C650.211 153.961 650 154.47 650 155L650 167L652 167L652 162L656 162L656 167L658 167L658 155C658 154.47 657.789 153.961 657.414 153.586C657.039 153.211 656.53 153 656 153ZM652 160L652 155L656 155L656 160L652 160Z" fill="currentColor" fill-rule="nonzero" />
  </g>
</svg>

