<svg viewBox="0 0 32 32" xmlns="http://www.w3.org/2000/svg" fill="none">
  <g transform="translate(-1008 -144)">
<path id="Vector 152" d="M1028.48 152.015L1021.45 148.211C1021.11 148.044 1020.73 147.975 1020.36 148.011C1019.99 148.047 1019.63 148.188 1019.33 148.416L1012 154.001L1012 146L1010 146L1010 172C1010 172.53 1010.21 173.039 1010.59 173.414C1010.96 173.789 1011.47 174 1012 174L1038 174L1038 149.735L1028.48 152.015ZM1036 164.21L1028.38 166.012L1021.35 163.128C1021.01 163 1020.64 162.966 1020.29 163.032C1019.93 163.097 1019.6 163.258 1019.33 163.498L1012 169.836L1012 165.38L1020.38 155.98L1027.39 161.6C1027.68 161.815 1028.03 161.949 1028.39 161.986C1028.75 162.023 1029.11 161.963 1029.44 161.812L1036 158.602L1036 164.21ZM1020.52 149.985L1027.55 153.789C1027.97 153.996 1028.44 154.053 1028.89 153.949L1036 152.265L1036 156.378L1028.62 160.02L1021.6 154.4C1021.2 154.098 1020.7 153.957 1020.2 154.006C1019.71 154.055 1019.24 154.29 1018.91 154.664L1012 162.384L1012 156.514L1020.52 149.985ZM1012.55 172L1020.62 164.989L1027.65 167.873C1028.01 168.01 1028.41 168.037 1028.8 167.95L1036 166.26L1036 172L1012.55 172Z" fill="currentColor" fill-rule="nonzero" />
  </g>
</svg>

