<svg viewBox="0 0 32 32" xmlns="http://www.w3.org/2000/svg" fill="none">
  <g transform="translate(-864 -144)">
<path id="Vector 150" d="M893 151L893 148L891 148L891 151L890 151L890 157L891 157L891 168.5C891 168.898 890.842 169.279 890.561 169.561C890.279 169.842 889.898 170 889.5 170C889.102 170 888.721 169.842 888.439 169.561C888.158 169.279 888 168.898 888 168.5L888 160C888 159.735 887.895 159.48 887.707 159.293C887.52 159.105 887.265 159 887 159L883 159L883 149C883 148.735 882.895 148.48 882.707 148.293C882.52 148.105 882.265 148 882 148L869 148C868.735 148 868.48 148.105 868.293 148.293C868.105 148.48 868 148.735 868 149L868 170L866 170L866 172L885 172L885 170L883 170L883 161L886 161L886 168.5C886 169.428 886.369 170.318 887.025 170.975C887.682 171.631 888.572 172 889.5 172C890.428 172 891.318 171.631 891.975 170.975C892.631 170.318 893 169.428 893 168.5L893 157L894 157L894 151L893 151ZM875.857 165.515L874.143 164.485L876.233 161L871.233 161L875.143 154.485L876.857 155.515L874.767 159L879.767 159L875.857 165.515Z" fill="currentColor" fill-rule="nonzero" />
  </g>
</svg>

