<svg viewBox="0 0 32 32" xmlns="http://www.w3.org/2000/svg" fill="none">
  <g transform="translate(-1368.000122 -144)">
<path id="Vector 160" d="M1382 168C1380.02 168 1378.09 167.413 1376.44 166.315C1374.8 165.216 1373.52 163.654 1372.76 161.827C1372 160 1371.81 157.989 1372.19 156.049C1372.58 154.109 1373.53 152.327 1374.93 150.929C1376.33 149.53 1378.11 148.578 1380.05 148.192C1381.99 147.806 1384 148.004 1385.83 148.761C1387.65 149.518 1389.22 150.8 1390.31 152.444C1391.41 154.089 1392 156.022 1392 158L1394 158C1394 155.627 1393.3 153.307 1391.98 151.333C1390.66 149.36 1388.79 147.822 1386.59 146.913C1384.4 146.005 1381.99 145.768 1379.66 146.231C1377.33 146.694 1375.19 147.836 1373.51 149.515C1371.84 151.193 1370.69 153.331 1370.23 155.659C1369.77 157.987 1370.01 160.4 1370.91 162.592C1371.82 164.785 1373.36 166.659 1375.33 167.978C1377.31 169.296 1379.63 170 1382 170L1382 168Z" fill="currentColor" fill-rule="nonzero" />
		<path id="Vector 161" d="M1380 159.59L1377.41 157L1376 158.41L1380 162.41L1387 155.41L1385.59 154L1380 159.59ZM1395.38 172L1388.62 172L1392 165.236L1395.38 172ZM1392 162C1391.81 162 1391.63 162.052 1391.47 162.149C1391.32 162.247 1391.19 162.387 1391.11 162.553L1386.11 172.553C1386.03 172.706 1385.99 172.875 1386 173.045C1386.01 173.215 1386.06 173.381 1386.15 173.526C1386.24 173.671 1386.36 173.791 1386.51 173.874C1386.66 173.957 1386.83 174 1387 174L1397 174C1397.17 174 1397.33 173.959 1397.47 173.881C1397.62 173.803 1397.74 173.69 1397.83 173.552C1397.93 173.415 1397.98 173.257 1398 173.092C1398.01 172.928 1397.99 172.762 1397.92 172.61L1392.9 162.553C1392.81 162.387 1392.68 162.247 1392.53 162.149C1392.37 162.052 1392.19 162 1392 162Z" fill="currentColor" fill-rule="nonzero" />
  </g>
</svg>

