<svg viewBox="0 0 32 32" xmlns="http://www.w3.org/2000/svg" fill="none">
  <g transform="translate(-1296 -144)">
<path id="Vector 158" d="M1310 168C1308.02 168 1306.09 167.413 1304.44 166.315C1302.8 165.216 1301.52 163.654 1300.76 161.827C1300 160 1299.81 157.989 1300.19 156.049C1300.58 154.109 1301.53 152.327 1302.93 150.929C1304.33 149.53 1306.11 148.578 1308.05 148.192C1309.99 147.806 1312 148.004 1313.83 148.761C1315.65 149.518 1317.22 150.8 1318.31 152.444C1319.41 154.089 1320 156.022 1320 158L1322 158C1322 155.627 1321.3 153.307 1319.98 151.333C1318.66 149.36 1316.78 147.822 1314.59 146.913C1312.4 146.005 1309.99 145.768 1307.66 146.231C1305.33 146.694 1303.19 147.836 1301.51 149.515C1299.84 151.193 1298.69 153.331 1298.23 155.659C1297.77 157.987 1298.01 160.4 1298.91 162.592C1299.82 164.785 1301.36 166.659 1303.33 167.978C1305.31 169.296 1307.63 170 1310 170L1310 168Z" fill="currentColor" fill-rule="nonzero" />
		<path id="Vector 159" d="M1308 159.59L1305.41 157L1304 158.41L1308 162.41L1315 155.41L1313.59 154L1308 159.59ZM1326 168C1326 166.813 1325.65 165.653 1324.99 164.667C1324.33 163.68 1323.39 162.911 1322.3 162.457C1321.2 162.003 1319.99 161.884 1318.83 162.115C1317.67 162.347 1316.6 162.918 1315.76 163.757C1314.92 164.596 1314.35 165.666 1314.12 166.829C1313.88 167.993 1314 169.2 1314.46 170.296C1314.91 171.393 1315.68 172.329 1316.67 172.989C1317.65 173.648 1318.81 174 1320 174C1321.59 173.998 1323.12 173.365 1324.24 172.241C1325.37 171.116 1326 169.591 1326 168ZM1324 168C1324 168.712 1323.8 169.409 1323.43 170.019L1317.98 164.567C1318.59 164.199 1319.29 164.004 1320 164C1321.06 164.001 1322.08 164.423 1322.83 165.173C1323.58 165.923 1324 166.939 1324 168ZM1316 168C1316 167.288 1316.2 166.591 1316.57 165.981L1322.02 171.433C1321.41 171.801 1320.71 171.996 1320 172C1318.94 171.999 1317.92 171.577 1317.17 170.827C1316.42 170.077 1316 169.061 1316 168Z" fill="currentColor" fill-rule="nonzero" />
  </g>
</svg>

