<svg viewBox="0 0 32 32" xmlns="http://www.w3.org/2000/svg" fill="none">
  <g transform="translate(-1224 -144)">
<path id="Vector 156" d="M1238 165.414L1233 160.413L1234.41 159L1238 162.586L1245.58 155L1247 156.415L1238 165.414Z" fill="currentColor" fill-rule="nonzero" />
		<path id="Vector 157" d="M1240 146C1237.23 146 1234.52 146.821 1232.22 148.359C1229.92 149.898 1228.13 152.084 1227.07 154.642C1226.01 157.201 1225.73 160.016 1226.27 162.731C1226.81 165.447 1228.14 167.942 1230.1 169.9C1232.06 171.857 1234.55 173.191 1237.27 173.731C1239.98 174.271 1242.8 173.994 1245.36 172.934C1247.92 171.875 1250.1 170.08 1251.64 167.778C1253.18 165.476 1254 162.769 1254 160C1254 156.287 1252.53 152.726 1249.9 150.1C1247.27 147.475 1243.71 146 1240 146ZM1240 172C1237.63 172 1235.31 171.296 1233.33 169.978C1231.36 168.659 1229.82 166.785 1228.91 164.592C1228.01 162.4 1227.77 159.987 1228.23 157.659C1228.69 155.331 1229.84 153.193 1231.51 151.515C1233.19 149.836 1235.33 148.694 1237.66 148.231C1239.99 147.768 1242.4 148.005 1244.59 148.913C1246.78 149.822 1248.66 151.36 1249.98 153.333C1251.3 155.307 1252 157.627 1252 160C1252 163.183 1250.74 166.235 1248.49 168.485C1246.23 170.736 1243.18 172 1240 172Z" fill="currentColor" fill-rule="nonzero" />
  </g>
</svg>

