<svg viewBox="0 0 32 32" xmlns="http://www.w3.org/2000/svg" fill="none">
  <g transform="translate(-1152 -144)">
<path id="Vector 154" d="M1166 146C1164.28 145.998 1162.58 146.366 1161.01 147.08C1159.44 147.795 1158.05 148.838 1156.92 150.139C1155.79 151.44 1154.96 152.968 1154.47 154.62C1153.99 156.273 1153.86 158.01 1154.11 159.714C1154.35 161.419 1154.96 163.05 1155.9 164.498C1156.83 165.945 1158.06 167.175 1159.51 168.104C1160.96 169.033 1162.6 169.639 1164.3 169.881C1166 170.123 1167.74 169.995 1169.39 169.506L1173.32 161.656C1173.57 161.157 1173.95 160.738 1174.42 160.446C1174.9 160.153 1175.44 159.999 1176 160L1177.82 160C1178.12 158.279 1178.04 156.512 1177.59 154.825C1177.13 153.137 1176.31 151.571 1175.18 150.235C1174.06 148.9 1172.65 147.829 1171.06 147.097C1169.48 146.365 1167.75 145.99 1166 146ZM1164 162.59L1160 158.59L1161.59 157L1164 159.41L1169.41 154L1171 155.59L1164 162.59Z" fill="currentColor" fill-rule="nonzero" />
		<path id="Vector 155" d="M1179.38 172L1172.62 172L1176 165.236L1179.38 172ZM1176 162C1175.81 162 1175.63 162.052 1175.47 162.149C1175.32 162.247 1175.19 162.387 1175.11 162.553L1170.11 172.553C1170.03 172.706 1169.99 172.875 1170 173.045C1170.01 173.215 1170.06 173.381 1170.15 173.526C1170.24 173.671 1170.36 173.791 1170.51 173.874C1170.66 173.957 1170.83 174 1171 174L1181 174C1181.17 174 1181.33 173.959 1181.47 173.881C1181.62 173.803 1181.74 173.69 1181.83 173.552C1181.93 173.415 1181.98 173.257 1182 173.092C1182.01 172.928 1181.99 172.762 1181.92 172.61L1176.9 162.553C1176.81 162.387 1176.68 162.247 1176.53 162.149C1176.37 162.052 1176.19 162 1176 162Z" fill="currentColor" fill-rule="nonzero" />
  </g>
</svg>

