<svg viewBox="0 0 32 32" xmlns="http://www.w3.org/2000/svg" fill="none">
  <g transform="translate(-1512.000122 -144)">
<path id="Vector 163" d="M1516 164L1516 166L1520.59 166L1514 172.586L1515.41 174L1522 167.414L1522 172L1524 172L1524 164L1516 164Z" fill="currentColor" fill-rule="nonzero" />
		<path id="Vector 164" d="M1532 157.67L1532 148L1534 148L1534 146L1522 146L1522 148L1524 148L1524 157.67L1521.58 161L1524.06 161L1526 158.33L1526 148L1530 148L1530 158.33L1537.61 168.79C1537.77 169.004 1537.88 169.247 1537.94 169.504C1538.01 169.762 1538.02 170.029 1537.98 170.292C1537.94 170.553 1537.84 170.805 1537.7 171.031C1537.57 171.258 1537.38 171.454 1537.17 171.61C1536.82 171.861 1536.41 171.998 1535.98 172L1527 172L1527 174L1535.98 174C1536.72 174.001 1537.45 173.797 1538.08 173.41C1538.71 173.023 1539.23 172.468 1539.56 171.807C1539.9 171.147 1540.05 170.406 1539.99 169.667C1539.93 168.928 1539.67 168.219 1539.23 167.62L1532 157.67Z" fill="currentColor" fill-rule="nonzero" />
  </g>
</svg>

