<svg viewBox="0 0 32 32" xmlns="http://www.w3.org/2000/svg" fill="none">
  <g transform="translate(-1440.000122 -144)">
<path id="Vector 162" d="M1467.23 167.618L1460 157.675L1460 148L1462 148L1462 146L1450 146L1450 148L1452 148L1452 157.675L1444.77 167.618C1444.33 168.217 1444.07 168.926 1444.01 169.665C1443.95 170.404 1444.1 171.145 1444.44 171.805C1444.77 172.466 1445.29 173.021 1445.92 173.408C1446.55 173.795 1447.28 174 1448.02 174L1463.98 174C1464.72 174 1465.45 173.795 1466.08 173.408C1466.71 173.021 1467.23 172.466 1467.56 171.805C1467.9 171.145 1468.05 170.404 1467.99 169.665C1467.93 168.926 1467.67 168.217 1467.23 167.618M1454 158.325L1454 148L1458 148L1458 158.325L1460.67 162L1451.33 162L1454 158.325ZM1463.98 172L1448.02 172C1447.65 172 1447.28 171.896 1446.97 171.702C1446.65 171.507 1446.39 171.229 1446.22 170.897C1446.05 170.565 1445.98 170.193 1446.01 169.822C1446.04 169.451 1446.17 169.095 1446.39 168.794L1449.87 164L1462.13 164L1465.61 168.794C1465.83 169.095 1465.96 169.451 1465.99 169.822C1466.02 170.193 1465.95 170.565 1465.78 170.897C1465.61 171.229 1465.35 171.507 1465.04 171.702C1464.72 171.896 1464.35 172 1463.98 172Z" fill="currentColor" fill-rule="nonzero" />
  </g>
</svg>

