<svg viewBox="0 0 32 32" xmlns="http://www.w3.org/2000/svg" fill="none">
  <g transform="translate(-216 -216)">
<path id="Vector 175" d="M225.414 235.414L232 228.83L238.586 235.415L240 234L232 226L224 234L225.414 235.414Z" fill="currentColor" fill-rule="nonzero" />
		<path id="Vector 176" d="M246 232C246 239.72 239.72 246 232 246C224.28 246 218 239.72 218 232C218 224.28 224.28 218 232 218C239.72 218 246 224.28 246 232ZM220 232C220 238.617 225.383 244 232 244C238.617 244 244 238.617 244 232C244 225.383 238.617 220 232 220C225.383 220 220 225.383 220 232Z" fill="currentColor" fill-rule="nonzero" />
  </g>
</svg>

