<svg viewBox="0 0 32 32" xmlns="http://www.w3.org/2000/svg" fill="none">
  <g transform="translate(-1656.000122 -144)">
<path id="Vector 166" d="M1665.41 156.586L1672 163.17L1678.59 156.585L1680 158L1672 166L1664 158L1665.41 156.586Z" fill="currentColor" fill-rule="nonzero" />
		<path id="Vector 167" d="M1686 160C1686 167.72 1679.72 174 1672 174C1664.28 174 1658 167.72 1658 160C1658 152.28 1664.28 146 1672 146C1679.72 146 1686 152.28 1686 160ZM1660 160C1660 166.617 1665.38 172 1672 172C1678.62 172 1684 166.617 1684 160C1684 153.383 1678.62 148 1672 148C1665.38 148 1660 153.383 1660 160Z" fill="currentColor" fill-rule="nonzero" />
  </g>
</svg>

