<svg viewBox="0 0 32 32" xmlns="http://www.w3.org/2000/svg" fill="none">
  <g transform="translate(-288 -216)">
<path id="Vector 177" d="M311 236C308.59 236 306.57 237.72 306.1 240L302 240C299.79 240 298 238.21 298 236L298 227.9C298.927 227.711 299.781 227.262 300.463 226.607C301.146 225.952 301.628 225.116 301.855 224.198C302.081 223.279 302.042 222.315 301.743 221.418C301.443 220.521 300.895 219.727 300.163 219.128C299.43 218.53 298.543 218.152 297.603 218.038C296.664 217.923 295.712 218.078 294.857 218.483C294.003 218.889 293.28 219.528 292.775 220.328C292.269 221.127 292 222.054 292 223C292 225.41 293.72 227.43 296 227.9L296 236C296 239.31 298.69 242 302 242L306.1 242C306.289 242.927 306.737 243.781 307.393 244.463C308.048 245.146 308.883 245.628 309.802 245.855C310.721 246.081 311.685 246.042 312.582 245.743C313.479 245.443 314.273 244.895 314.872 244.163C315.47 243.43 315.848 242.542 315.962 241.603C316.077 240.664 315.922 239.712 315.517 238.857C315.111 238.002 314.472 237.28 313.672 236.774C312.873 236.269 311.946 236 311 236ZM294 223C294 221.35 295.35 220 297 220C298.65 220 300 221.35 300 223C300 224.65 298.65 226 297 226C295.35 226 294 224.65 294 223Z" fill="currentColor" fill-rule="nonzero" />
  </g>
</svg>

