<svg viewBox="0 0 32 32" xmlns="http://www.w3.org/2000/svg" fill="none">
  <g transform="translate(-360 -216)">
<path id="Vector 178" d="M371 227L371 237L381 237L381 227L371 227ZM379 235L373 235L373 229L379 229L379 235Z" fill="currentColor" fill-rule="nonzero" />
		<path id="Vector 179" d="M390 229L390 227L386 227L386 224C386 223.47 385.789 222.961 385.414 222.586C385.039 222.211 384.53 222 384 222L381 222L381 218L379 218L379 222L373 222L373 218L371 218L371 222L368 222C367.47 222 366.961 222.211 366.586 222.586C366.211 222.961 366 223.47 366 224L366 227L362 227L362 229L366 229L366 235L362 235L362 237L366 237L366 240C366 240.53 366.211 241.039 366.586 241.414C366.961 241.789 367.47 242 368 242L371 242L371 246L373 246L373 242L379 242L379 246L381 246L381 242L384 242C384.53 242 385.039 241.789 385.414 241.414C385.789 241.039 386 240.53 386 240L386 237L390 237L390 235L386 235L386 229L390 229ZM384 240L368 240L368 224L384 224L384 240Z" fill="currentColor" fill-rule="nonzero" />
  </g>
</svg>

