<svg viewBox="0 0 32 32" xmlns="http://www.w3.org/2000/svg" fill="none">
  <g transform="translate(-576 -216)">
<path id="Vector 182" d="M605.243 220.03L597.243 218.03C597.039 217.979 596.823 217.994 596.628 218.072L586.928 221.952L579.243 220.03C579.096 219.993 578.942 219.99 578.793 220.022C578.644 220.053 578.505 220.118 578.385 220.212C578.265 220.305 578.168 220.425 578.101 220.561C578.035 220.698 578 220.848 578 221L578 243C578 243.223 578.075 243.44 578.212 243.615C578.349 243.791 578.541 243.916 578.757 243.97L586.757 245.97C586.836 245.99 586.918 246 587 246C587.128 246 587.254 245.976 587.372 245.928L597.072 242.048L604.758 243.97C604.905 244.007 605.059 244.01 605.208 243.978C605.356 243.946 605.496 243.881 605.615 243.788C605.735 243.694 605.832 243.575 605.899 243.438C605.965 243.302 606 243.152 606 243L606 221C606 220.777 605.925 220.561 605.788 220.385C605.651 220.209 605.459 220.084 605.243 220.03ZM604 227L598 227L598 220.28L604 221.78L604 227ZM586 235L580 235L580 229L586 229L586 235ZM588 227L588 223.677L596 220.477L596 227L588 227ZM596 229L596 235L588 235L588 229L596 229ZM588 237L596 237L596 240.323L588 243.523L588 237ZM598 229L604 229L604 235L598 235L598 229ZM586 223.78L586 227L580 227L580 222.28L586 223.78ZM580 237L586 237L586 243.72L580 242.22L580 237ZM598 240.219L598 237L604 237L604 241.72L598 240.219Z" fill="currentColor" fill-rule="nonzero" />
  </g>
</svg>

