<svg viewBox="0 0 32 32" xmlns="http://www.w3.org/2000/svg" fill="none">
  <g transform="translate(-1440.000122 -216)">
<path id="Vector 204" d="M1468 218L1463 218L1463 220L1468 220L1468 244L1463 244L1463 246L1468 246C1468.53 245.998 1469.04 245.787 1469.41 245.413C1469.79 245.038 1470 244.53 1470 244L1470 220C1470 219.47 1469.79 218.962 1469.41 218.588C1469.04 218.213 1468.53 218.002 1468 218ZM1454 233L1448 233C1447.87 232.992 1447.73 233.012 1447.61 233.06C1447.48 233.107 1447.37 233.181 1447.28 233.275C1447.18 233.37 1447.11 233.483 1447.06 233.608C1447.01 233.733 1446.99 233.867 1447 234L1447 240C1446.99 240.133 1447.01 240.267 1447.06 240.392C1447.11 240.517 1447.18 240.63 1447.28 240.725C1447.37 240.819 1447.48 240.893 1447.61 240.94C1447.73 240.988 1447.87 241.008 1448 241L1454 241C1454.13 241.008 1454.27 240.988 1454.39 240.94C1454.52 240.893 1454.63 240.819 1454.72 240.725C1454.82 240.63 1454.89 240.517 1454.94 240.392C1454.99 240.267 1455.01 240.133 1455 240L1455 234C1455.01 233.867 1454.99 233.733 1454.94 233.608C1454.89 233.483 1454.82 233.37 1454.72 233.275C1454.63 233.181 1454.52 233.107 1454.39 233.06C1454.27 233.012 1454.13 232.992 1454 233ZM1453 239L1449 239L1449 235L1453 235L1453 239Z" fill="currentColor" fill-rule="nonzero" />
		<path id="Vector 205" d="M1465 240L1465 234C1465.01 233.867 1464.99 233.733 1464.94 233.608C1464.89 233.483 1464.82 233.37 1464.72 233.275C1464.63 233.181 1464.52 233.107 1464.39 233.06C1464.27 233.012 1464.13 232.992 1464 233L1458 233C1457.87 232.992 1457.73 233.012 1457.61 233.06C1457.48 233.107 1457.37 233.181 1457.28 233.275C1457.18 233.37 1457.11 233.483 1457.06 233.608C1457.01 233.733 1456.99 233.867 1457 234L1457 240C1456.99 240.133 1457.01 240.267 1457.06 240.392C1457.11 240.517 1457.18 240.63 1457.28 240.725C1457.37 240.819 1457.48 240.893 1457.61 240.94C1457.73 240.988 1457.87 241.008 1458 241L1464 241C1464.27 241 1464.52 240.895 1464.71 240.707C1464.89 240.52 1465 240.265 1465 240ZM1463 239L1459 239L1459 235L1463 235L1463 239ZM1454 223L1448 223C1447.87 222.992 1447.73 223.012 1447.61 223.06C1447.48 223.107 1447.37 223.181 1447.28 223.275C1447.18 223.37 1447.11 223.483 1447.06 223.608C1447.01 223.733 1446.99 223.867 1447 224L1447 230C1446.99 230.133 1447.01 230.267 1447.06 230.392C1447.11 230.517 1447.18 230.63 1447.28 230.725C1447.37 230.819 1447.48 230.893 1447.61 230.94C1447.73 230.988 1447.87 231.008 1448 231L1454 231C1454.13 231.008 1454.27 230.988 1454.39 230.94C1454.52 230.893 1454.63 230.819 1454.72 230.725C1454.82 230.63 1454.89 230.517 1454.94 230.392C1454.99 230.267 1455.01 230.133 1455 230L1455 224C1455.01 223.867 1454.99 223.733 1454.94 223.608C1454.89 223.483 1454.82 223.37 1454.72 223.275C1454.63 223.181 1454.52 223.107 1454.39 223.06C1454.27 223.012 1454.13 222.992 1454 223ZM1453 229L1449 229L1449 225L1453 225L1453 229ZM1458 231L1464 231C1464.13 231.008 1464.27 230.988 1464.39 230.94C1464.52 230.893 1464.63 230.819 1464.72 230.725C1464.82 230.63 1464.89 230.517 1464.94 230.392C1464.99 230.267 1465.01 230.133 1465 230L1465 224C1465.01 223.867 1464.99 223.733 1464.94 223.608C1464.89 223.483 1464.82 223.37 1464.72 223.275C1464.63 223.181 1464.52 223.107 1464.39 223.06C1464.27 223.012 1464.13 222.992 1464 223L1458 223C1457.87 222.992 1457.73 223.012 1457.61 223.06C1457.48 223.107 1457.37 223.181 1457.28 223.275C1457.18 223.37 1457.11 223.483 1457.06 223.608C1457.01 223.733 1456.99 223.867 1457 224L1457 230C1457 230.265 1457.11 230.52 1457.29 230.707C1457.48 230.895 1457.73 231 1458 231ZM1459 225L1463 225L1463 229L1459 229L1459 225Z" fill="currentColor" fill-rule="nonzero" />
		<path id="Vector 206" d="M1444 220L1449 220L1449 218L1444 218C1443.47 218.002 1442.96 218.213 1442.59 218.588C1442.21 218.962 1442 219.47 1442 220L1442 244C1442 244.53 1442.21 245.038 1442.59 245.413C1442.96 245.787 1443.47 245.998 1444 246L1449 246L1449 244L1444 244L1444 220Z" fill="currentColor" fill-rule="nonzero" />
  </g>
</svg>

