<svg viewBox="0 0 32 32" xmlns="http://www.w3.org/2000/svg" fill="none">
  <g transform="translate(-792 -216)">
<path id="Vector 187" d="M816 232L811.4 230.6L813.7 226.3L809.4 228.6L808 224L806.6 228.6L802.3 226.3L804.6 230.6L800 232L804.6 233.4L802.3 237.7L806.6 235.4L808 240L809.4 235.4L813.7 237.7L811.4 233.4L816 232Z" fill="currentColor" fill-rule="nonzero" />
		<path id="Vector 188" d="M808 246C805.231 246 802.524 245.179 800.222 243.641C797.92 242.102 796.125 239.916 795.066 237.358C794.006 234.799 793.729 231.984 794.269 229.269C794.809 226.553 796.143 224.058 798.101 222.101C800.058 220.143 802.553 218.809 805.269 218.269C807.984 217.729 810.799 218.006 813.358 219.066C815.916 220.125 818.102 221.92 819.641 224.222C821.179 226.524 822 229.231 822 232C821.996 235.712 820.519 239.27 817.895 241.895C815.27 244.519 811.712 245.996 808 246ZM808 220C805.627 220 803.307 220.704 801.333 222.022C799.36 223.341 797.822 225.215 796.913 227.408C796.005 229.6 795.768 232.013 796.231 234.341C796.694 236.669 797.836 238.807 799.515 240.485C801.193 242.163 803.331 243.306 805.659 243.769C807.987 244.232 810.399 243.995 812.592 243.087C814.785 242.178 816.659 240.64 817.978 238.667C819.296 236.693 820 234.373 820 232C819.996 228.818 818.731 225.768 816.481 223.519C814.232 221.269 811.182 220.004 808 220Z" fill="currentColor" fill-rule="nonzero" />
  </g>
</svg>

