<svg viewBox="0 0 32 32" xmlns="http://www.w3.org/2000/svg" fill="none">
  <g transform="translate(-1584.000122 -216)">
<path id="Vector 212" d="M1606 238L1608 238L1608 244L1606 244L1606 246L1612 246L1612 244L1610 244L1610 238L1612 238L1612 236L1606 236L1606 238ZM1602 244L1600 244L1600 236L1598 236L1598 244.6C1598.01 244.984 1598.18 245.348 1598.46 245.61C1598.74 245.872 1599.12 246.013 1599.5 246L1602.5 246C1602.88 246.013 1603.26 245.872 1603.54 245.61C1603.82 245.348 1603.99 244.984 1604 244.6L1604 236L1602 236L1602 244ZM1594.2 236L1594 244.5L1593 238L1591 238L1590 244.5L1589.8 236L1588 236L1588.72 246L1591 246L1592 239.5L1593 246L1595.28 246L1596 236L1594.2 236ZM1600 227L1597 227L1597 224L1595 224L1595 227L1592 227L1592 229L1595 229L1595 232L1597 232L1597 229L1600 229L1600 227Z" fill="currentColor" fill-rule="nonzero" />
		<path id="Vector 213" d="M1610 220L1590 220C1589.47 220.002 1588.96 220.213 1588.59 220.588C1588.21 220.962 1588 221.47 1588 222L1588 234L1590 234L1590 222L1610 222L1610 234L1612 234L1612 222C1612 221.47 1611.79 220.962 1611.41 220.588C1611.04 220.213 1610.53 220.002 1610 220Z" fill="currentColor" fill-rule="nonzero" />
  </g>
</svg>

