<svg viewBox="0 0 32 32" xmlns="http://www.w3.org/2000/svg" fill="none">
  <g transform="translate(-1008 -216)">
<path id="Vector 194" d="M1031.5 234L1029 234.7L1029 232L1027 232L1027 234.7L1024.5 234L1024 235.9L1026.4 236.6L1025 239L1026.7 240L1028 237.8L1029.3 240L1031 239L1029.6 236.6L1032 235.9L1031.5 234ZM1024 229L1024 227L1021 227L1021 224L1019 224L1019 227L1016 227L1016 229L1019 229L1019 232L1021 232L1021 229L1024 229Z" fill="currentColor" fill-rule="nonzero" />
		<path id="Vector 195" d="M1034 220L1014 220C1013.47 220.002 1012.96 220.213 1012.59 220.588C1012.21 220.962 1012 221.47 1012 222L1012 242C1012 242.53 1012.21 243.038 1012.59 243.413C1012.96 243.787 1013.47 243.998 1014 244L1034 244C1034.53 243.998 1035.04 243.787 1035.41 243.413C1035.79 243.038 1036 242.53 1036 242L1036 222C1036 221.47 1035.79 220.962 1035.41 220.588C1035.04 220.213 1034.53 220.002 1034 220ZM1014 242L1014 222L1034 222L1034 242L1014 242Z" fill="currentColor" fill-rule="nonzero" />
  </g>
</svg>

