<svg viewBox="0 0 32 32" xmlns="http://www.w3.org/2000/svg" fill="none">
  <g transform="translate(-1080 -216)">
<path id="Vector 196" d="M1111 229L1111 227L1107 227C1105.9 227 1105 227.898 1105 229L1105 231C1105 232.103 1105.9 233 1107 233L1109 233L1109 235L1105 235L1105 237L1109 237C1110.1 237 1111 236.103 1111 235L1111 233C1111 231.898 1110.1 231 1109 231L1107 231L1107 229L1111 229ZM1097 229L1097 235C1097 236.103 1097.9 237 1099 237L1103 237L1103 235L1099 235L1099 229L1103 229L1103 227L1099 227C1097.9 227 1097 227.898 1097 229ZM1089 229L1091 229L1091 235L1089 235L1089 237L1095 237L1095 235L1093 235L1093 229L1095 229L1095 227L1089 227L1089 229ZM1081 229L1081 235C1081 236.103 1081.9 237 1083 237L1087 237L1087 235L1083 235L1083 229L1087 229L1087 227L1083 227C1081.9 227 1081 227.898 1081 229Z" fill="currentColor" fill-rule="nonzero" />
  </g>
</svg>

