<svg viewBox="0 0 32 32" xmlns="http://www.w3.org/2000/svg" fill="none">
  <g transform="translate(-1368.000122 -216)">
<path id="Vector 203" d="M1399.71 236.293L1396.71 233.293C1396.52 233.105 1396.27 233 1396 233C1395.73 233 1395.48 233.105 1395.29 233.293L1386 242.586L1386 247L1390.41 247L1399.71 237.707C1399.89 237.52 1400 237.265 1400 237C1400 236.735 1399.89 236.48 1399.71 236.293ZM1392.29 242.293L1389.59 245L1388 245L1388 243.414L1390.71 240.707L1393 238.414L1394.59 240L1392.29 242.293ZM1396 238.586L1394.41 237L1396 235.414L1397.59 237L1396 238.586ZM1388 236L1388 234L1384 234L1384 227L1394 227L1394 229L1396 229L1396 222C1396 220.346 1394.65 219 1393 219L1373 219C1371.35 219 1370 220.346 1370 222L1370 242C1370 243.654 1371.35 245 1373 245L1384 245L1384 236L1388 236ZM1382 234L1372 234L1372 227L1382 227L1382 234ZM1373 221L1393 221C1393.27 221 1393.52 221.105 1393.71 221.293C1393.89 221.48 1394 221.735 1394 222L1394 225L1372 225L1372 222C1372 221.735 1372.11 221.48 1372.29 221.293C1372.48 221.105 1372.73 221 1373 221ZM1382 243L1373 243C1372.73 243 1372.48 242.895 1372.29 242.707C1372.11 242.52 1372 242.265 1372 242L1372 236L1382 236L1382 243Z" fill="currentColor" fill-rule="nonzero" />
  </g>
</svg>

