<svg viewBox="0 0 32 32" xmlns="http://www.w3.org/2000/svg" fill="none">
  <g transform="translate(-720 -216)">
<path id="Vector 185" d="M742.5 246C740.57 246 739 244.43 739 242.5C739 241.565 739.364 240.687 740.024 240.026L741.439 241.44C741.183 241.726 741.046 242.1 741.056 242.484C741.067 242.868 741.224 243.233 741.496 243.505C741.768 243.776 742.133 243.933 742.518 243.944C742.902 243.954 743.275 243.817 743.561 243.56L748.561 238.56C748.819 238.274 748.958 237.9 748.948 237.515C748.938 237.129 748.781 236.763 748.508 236.49C748.235 236.218 747.868 236.061 747.483 236.052C747.098 236.042 746.724 236.181 746.438 236.44L745.023 235.027C745.347 234.701 745.733 234.442 746.159 234.265C746.584 234.089 747.04 233.999 747.5 234C749.43 234 751 235.57 751 237.5C751 238.435 750.636 239.314 749.975 239.975L744.975 244.975C744.651 245.301 744.265 245.559 743.84 245.735C743.415 245.911 742.96 246.001 742.5 246Z" fill="currentColor" fill-rule="nonzero" />
		<path id="Vector 186" d="M736.5 247C734.57 247 733 245.43 733 243.5C733 242.565 733.364 241.686 734.025 241.025L739.025 236.025C739.349 235.699 739.735 235.441 740.16 235.265C740.585 235.089 741.04 234.999 741.5 235C743.43 235 745 236.57 745 238.5C745 239.435 744.636 240.313 743.976 240.974L742.56 239.56C742.816 239.274 742.953 238.9 742.943 238.516C742.932 238.132 742.775 237.767 742.503 237.495C742.231 237.224 741.865 237.067 741.481 237.056C741.097 237.046 740.724 237.183 740.438 237.44L735.438 242.44C735.18 242.726 735.041 243.1 735.051 243.486C735.061 243.871 735.219 244.238 735.491 244.51C735.764 244.782 736.131 244.939 736.516 244.949C736.901 244.958 737.275 244.819 737.561 244.56L738.976 245.973C738.652 246.299 738.266 246.558 737.841 246.734C737.416 246.911 736.96 247.001 736.5 247ZM736 218C730.702 218 725 219.252 725 222L725 240C725 241.68 727.134 242.798 730 243.415L730 241.369C728.006 240.896 727.055 240.226 727 240L727 236.428C728.494 237.177 730.674 237.643 733 237.858L733 235.86C729.122 235.483 727.123 234.438 727 234L727 230.428C729.128 231.495 732.643 232 736 232C741.298 232 747 230.748 747 228L747 222C747 219.252 741.298 218 736 218ZM726.999 222.015C727.15 221.46 730.149 220 736 220C741.798 220 744.795 221.434 744.997 222C744.795 222.566 741.797 224 736 224C730.15 224 727.15 222.54 726.999 222.015ZM745 227.987C744.84 228.544 741.841 230 736 230C730.15 230 727.15 228.54 727 228L727 224.428C729.128 225.495 732.643 226 736 226C739.357 226 742.872 225.495 745 224.428L745 227.987Z" fill="currentColor" fill-rule="nonzero" />
  </g>
</svg>

