<svg viewBox="0 0 32 32" xmlns="http://www.w3.org/2000/svg" fill="none">
  <g transform="translate(-936 -216)">
<path id="Vector 190" d="M956.17 235L953.58 237.59L955 239L959 235L955 231L953.58 232.41L956.17 235ZM947.83 235L950.42 232.41L949 231L945 235L949 239L950.42 237.59L947.83 235Z" fill="currentColor" fill-rule="nonzero" />
		<path id="Vector 191" d="M945 225C945.552 225 946 224.552 946 224C946 223.448 945.552 223 945 223C944.448 223 944 223.448 944 224C944 224.552 944.448 225 945 225Z" fill="currentColor" fill-rule="nonzero" />
		<path id="Vector 192" d="M942 225C942.552 225 943 224.552 943 224C943 223.448 942.552 223 942 223C941.448 223 941 223.448 941 224C941 224.552 941.448 225 942 225Z" fill="currentColor" fill-rule="nonzero" />
		<path id="Vector 193" d="M964 220L940 220C938.897 220 938 220.898 938 222L938 242C938 243.103 938.897 244 940 244L964 244C965.103 244 966 243.103 966 242L966 222C966 220.898 965.103 220 964 220ZM964 222L964 226L940 226L940 222L964 222ZM940 242L940 228L964 228L964 242L940 242Z" fill="currentColor" fill-rule="nonzero" />
  </g>
</svg>

