<svg viewBox="0 0 32 32" xmlns="http://www.w3.org/2000/svg" fill="none">
  <g transform="translate(-1512.000122 -216)">
<path id="Vector 207" d="M1540 228C1541.1 228 1542 227.105 1542 226C1542 224.895 1541.1 224 1540 224C1538.9 224 1538 224.895 1538 226C1538 227.105 1538.9 228 1540 228Z" fill="currentColor" fill-rule="nonzero" />
		<path id="Vector 208" d="M1530 245L1523 245L1523 243L1530 243C1534.96 243 1539 238.963 1539 234L1539 230L1541 230L1541 234C1541 240.065 1536.07 245 1530 245Z" fill="currentColor" fill-rule="nonzero" />
		<path id="Vector 209" d="M1528 237C1525.24 237 1523 234.757 1523 232C1523 229.243 1525.24 227 1528 227C1530.76 227 1533 229.243 1533 232C1533 234.757 1530.76 237 1528 237ZM1528 229C1526.35 229 1525 230.346 1525 232C1525 233.654 1526.35 235 1528 235C1529.65 235 1531 233.654 1531 232C1531 230.346 1529.65 229 1528 229Z" fill="currentColor" fill-rule="nonzero" />
		<path id="Vector 210" d="M1516 240C1517.1 240 1518 239.105 1518 238C1518 236.895 1517.1 236 1516 236C1514.9 236 1514 236.895 1514 238C1514 239.105 1514.9 240 1516 240Z" fill="currentColor" fill-rule="nonzero" />
		<path id="Vector 211" d="M1517 234L1515 234L1515 230C1515 223.935 1519.94 219 1526 219L1533 219L1533 221L1526 221C1521.04 221 1517 225.037 1517 230L1517 234Z" fill="currentColor" fill-rule="nonzero" />
  </g>
</svg>

