<svg viewBox="0 0 32 32" xmlns="http://www.w3.org/2000/svg" fill="none">
  <g transform="translate(-1224 -216)">
<path id="Vector 199" d="M1250 223L1252 223L1252 226L1250 226L1250 223ZM1253 220L1256 220L1256 222L1253 222L1253 220ZM1250 216L1252 216L1252 219L1250 219L1250 216ZM1246 220L1249 220L1249 222L1246 222L1246 220ZM1243 232L1243 234.7L1240.5 234L1240 235.9L1242.4 236.6L1241 239L1242.7 240L1244 237.8L1245.3 240L1247 239L1245.6 236.6L1248 235.9L1247.5 234L1245 234.7L1245 232L1243 232ZM1237 232L1237 229L1240 229L1240 227L1237 227L1237 224L1235 224L1235 227L1232 227L1232 229L1235 229L1235 232L1237 232Z" fill="currentColor" fill-rule="nonzero" />
		<path id="Vector 200" d="M1250 242L1230 242L1230 222L1243 222L1243 220L1230 220C1229.47 220.002 1228.96 220.213 1228.59 220.588C1228.21 220.962 1228 221.47 1228 222L1228 242C1228 242.53 1228.21 243.038 1228.59 243.413C1228.96 243.787 1229.47 243.998 1230 244L1250 244C1250.53 243.998 1251.04 243.787 1251.41 243.413C1251.79 243.038 1252 242.53 1252 242L1252 229L1250 229L1250 242Z" fill="currentColor" fill-rule="nonzero" />
  </g>
</svg>

