<svg viewBox="0 0 32 32" xmlns="http://www.w3.org/2000/svg" fill="none">
  <g transform="translate(-864 -216)">
<path id="Vector 189" d="M872 234.6L872 233L870 233L870 234.6C869.998 235.572 870.188 236.536 870.559 237.434C870.93 238.333 871.475 239.15 872.162 239.838C872.85 240.525 873.667 241.07 874.565 241.441C875.464 241.812 876.428 242.002 877.4 242L879 242L879 240L877.4 240C876.69 240.003 875.987 239.865 875.33 239.594C874.674 239.324 874.078 238.926 873.576 238.424C873.074 237.922 872.676 237.326 872.406 236.67C872.135 236.013 871.997 235.31 872 234.6ZM892 234L884 234C883.47 234.002 882.962 234.213 882.588 234.587C882.213 234.962 882.002 235.47 882 236L882 244C882.002 244.53 882.213 245.038 882.588 245.413C882.962 245.787 883.47 245.998 884 246L892 246C892.53 245.998 893.038 245.787 893.412 245.413C893.787 245.038 893.998 244.53 894 244L894 236C893.998 235.47 893.787 234.962 893.412 234.587C893.038 234.213 892.53 234.002 892 234ZM884 244L884 236L892 236L892 244L884 244ZM888 229.4L888 231L890 231L890 229.4C890.002 228.428 889.812 227.464 889.441 226.566C889.07 225.667 888.525 224.85 887.838 224.162C887.15 223.475 886.333 222.93 885.435 222.559C884.536 222.188 883.572 221.998 882.6 222L881 222L881 224L882.6 224C883.31 223.997 884.013 224.135 884.67 224.406C885.326 224.676 885.922 225.074 886.424 225.576C886.926 226.078 887.324 226.674 887.594 227.33C887.865 227.987 888.003 228.69 888 229.4ZM876 218L868 218C867.47 218.002 866.962 218.213 866.588 218.588C866.213 218.962 866.002 219.47 866 220L866 228C866.002 228.53 866.213 229.038 866.588 229.413C866.962 229.787 867.47 229.998 868 230L876 230C876.53 229.998 877.038 229.787 877.412 229.413C877.787 229.038 877.998 228.53 878 228L878 220C877.998 219.47 877.787 218.962 877.412 218.588C877.038 218.213 876.53 218.002 876 218ZM868 228L868 220L876 220L876 228L868 228Z" fill="currentColor" fill-rule="nonzero" />
  </g>
</svg>

