<svg viewBox="0 0 32 32" xmlns="http://www.w3.org/2000/svg" fill="none">
  <g transform="translate(-1296 -216)">
<path id="Vector 201" d="M1319 238L1326 243L1319 248L1319 238Z" fill="currentColor" fill-rule="nonzero" />
		<path id="Vector 202" d="M1322 219L1302 219C1300.35 219 1299 220.346 1299 222L1299 242C1299 243.654 1300.35 245 1302 245L1313 245L1313 236L1325 236L1325 222C1325 220.346 1323.65 219 1322 219ZM1302 221L1322 221C1322.27 221 1322.52 221.105 1322.71 221.293C1322.89 221.48 1323 221.735 1323 222L1323 225L1301 225L1301 222C1301 221.735 1301.11 221.48 1301.29 221.293C1301.48 221.105 1301.73 221 1302 221ZM1311 227L1311 234L1301 234L1301 227L1311 227ZM1311 243L1302 243C1301.73 243 1301.48 242.895 1301.29 242.707C1301.11 242.52 1301 242.265 1301 242L1301 236L1311 236L1311 243ZM1313 234L1313 227L1323 227L1323 234L1313 234Z" fill="currentColor" fill-rule="nonzero" />
  </g>
</svg>

