<svg viewBox="0 0 32 32" xmlns="http://www.w3.org/2000/svg" fill="none">
  <g transform="translate(-1152 -216)">
<path id="Vector 197" d="M1174 218L1174 220L1178.6 220L1172 226.6L1173.4 228L1180 221.4L1180 226L1182 226L1182 218L1174 218ZM1171 232L1171 234.7L1168.5 234L1168 235.9L1170.4 236.6L1169 239L1170.7 240L1172 237.8L1173.3 240L1175 239L1173.6 236.6L1176 235.9L1175.5 234L1173 234.7L1173 232L1171 232ZM1165 232L1165 229L1168 229L1168 227L1165 227L1165 224L1163 224L1163 227L1160 227L1160 229L1163 229L1163 232L1165 232Z" fill="currentColor" fill-rule="nonzero" />
		<path id="Vector 198" d="M1178 242L1158 242L1158 222L1171 222L1171 220L1158 220C1157.47 220.002 1156.96 220.213 1156.59 220.588C1156.21 220.962 1156 221.47 1156 222L1156 242C1156 242.53 1156.21 243.038 1156.59 243.413C1156.96 243.787 1157.47 243.998 1158 244L1178 244C1178.53 243.998 1179.04 243.787 1179.41 243.413C1179.79 243.038 1180 242.53 1180 242L1180 229L1178 229L1178 242Z" fill="currentColor" fill-rule="nonzero" />
  </g>
</svg>

