<svg viewBox="0 0 32 32" xmlns="http://www.w3.org/2000/svg" fill="none">
  <g transform="translate(-648 -216)">
<path id="Vector 183" d="M678.334 246L674 246L674 244L678 244L678 242L676 242C675.47 242 674.961 241.789 674.586 241.414C674.211 241.039 674 240.53 674 240L674 237.666C674.001 237.225 674.177 236.801 674.489 236.489C674.801 236.177 675.224 236.001 675.666 236L680 236L680 238L676 238L676 240L678 240C678.53 240 679.039 240.211 679.414 240.586C679.789 240.961 680 241.47 680 242L680 244.334C679.999 244.775 679.823 245.199 679.511 245.511C679.199 245.823 678.776 245.999 678.334 246ZM670.334 236L667.667 236C667.225 236 666.801 236.176 666.489 236.488C666.176 236.8 666 237.224 666 237.666L666 246L668 246L668 242L670 242L670 246L672 246L672 237.667C672 237.225 671.825 236.801 671.512 236.489C671.2 236.176 670.776 236 670.334 236ZM668 240L668 238L670 238L670 240L668 240ZM660.5 240L659 236L657 236L657 246L659 246L659 239L660.5 243L662 239L662 246L664 246L664 236L662 236L660.5 240ZM649 238L649 244.5C648.996 244.698 649.033 244.895 649.107 245.078C649.181 245.262 649.291 245.429 649.431 245.569C649.571 245.709 649.738 245.819 649.922 245.893C650.105 245.967 650.302 246.004 650.5 246L655 246L655 244L651 244L651 238L655 238L655 236L651 236C650.47 236.002 649.962 236.213 649.588 236.587C649.213 236.962 649.002 237.47 649 238ZM661 224L659 224L659 227L656 227L656 229L659 229L659 232L661 232L661 229L664 229L664 227L661 227L661 224Z" fill="currentColor" fill-rule="nonzero" />
		<path id="Vector 184" d="M654 222L674 222L674 234L676 234L676 222C675.998 221.47 675.787 220.962 675.412 220.588C675.038 220.213 674.53 220.002 674 220L654 220C653.47 220.002 652.962 220.213 652.588 220.588C652.213 220.962 652.002 221.47 652 222L652 234L654 234L654 222Z" fill="currentColor" fill-rule="nonzero" />
  </g>
</svg>

