<svg viewBox="0 0 32 32" xmlns="http://www.w3.org/2000/svg" fill="none">
  <g transform="translate(-1872.000122 -216)">
<path id="Vector 218" d="M1888 218C1885.23 218 1882.52 218.821 1880.22 220.359C1877.92 221.898 1876.13 224.084 1875.07 226.642C1874.01 229.201 1873.73 232.016 1874.27 234.731C1874.81 237.447 1876.14 239.942 1878.1 241.9C1880.06 243.857 1882.55 245.191 1885.27 245.731C1887.98 246.271 1890.8 245.994 1893.36 244.934C1895.92 243.875 1898.1 242.08 1899.64 239.778C1901.18 237.476 1902 234.769 1902 232C1902 228.287 1900.53 224.726 1897.9 222.1C1895.27 219.475 1891.71 218 1888 218ZM1895.5 225C1896.19 225 1896.87 225.205 1897.44 225.59C1898.02 225.974 1898.47 226.521 1898.73 227.161C1899 227.8 1899.07 228.504 1898.93 229.183C1898.8 229.862 1898.46 230.485 1897.97 230.975C1897.49 231.464 1896.86 231.798 1896.18 231.933C1895.5 232.068 1894.8 231.999 1894.16 231.734C1893.52 231.469 1892.97 231.02 1892.59 230.445C1892.21 229.869 1892 229.192 1892 228.5C1892 227.572 1892.37 226.682 1893.03 226.026C1893.68 225.37 1894.57 225.001 1895.5 225ZM1895.94 223.022C1895.79 223.009 1895.65 223.002 1895.5 223C1894.72 223 1893.94 223.167 1893.23 223.491C1892.52 223.815 1891.88 224.288 1891.37 224.878C1890.87 223.716 1890.11 222.688 1889.14 221.877C1888.18 221.066 1887.03 220.495 1885.8 220.211C1887.59 219.869 1889.44 219.944 1891.2 220.432C1892.95 220.919 1894.58 221.806 1895.94 223.022ZM1888 244C1887.21 244 1886.44 243.765 1885.78 243.326C1885.12 242.886 1884.61 242.262 1884.3 241.531C1884 240.8 1883.92 239.996 1884.08 239.22C1884.23 238.444 1884.61 237.731 1885.17 237.172C1885.73 236.612 1886.44 236.231 1887.22 236.077C1888 235.923 1888.8 236.002 1889.53 236.305C1890.26 236.607 1890.89 237.12 1891.33 237.778C1891.77 238.436 1892 239.209 1892 240C1892 241.061 1891.58 242.077 1890.83 242.827C1890.08 243.577 1889.06 243.999 1888 244ZM1884 234C1882.81 234 1881.65 233.648 1880.67 232.989C1879.68 232.329 1878.91 231.393 1878.46 230.296C1878 229.2 1877.88 227.993 1878.12 226.829C1878.35 225.666 1878.92 224.596 1879.76 223.757C1880.6 222.918 1881.67 222.347 1882.83 222.115C1883.99 221.884 1885.2 222.003 1886.3 222.457C1887.39 222.911 1888.33 223.68 1888.99 224.667C1889.65 225.653 1890 226.813 1890 228C1890 229.591 1889.37 231.116 1888.24 232.241C1887.12 233.365 1885.59 233.998 1884 234ZM1876 232C1876 231.262 1876.07 230.526 1876.21 229.801C1876.6 231.487 1877.53 233.001 1878.85 234.115C1880.18 235.229 1881.83 235.882 1883.56 235.977C1882.74 236.877 1882.21 238.008 1882.05 239.216C1881.89 240.424 1882.11 241.652 1882.67 242.734C1880.67 241.742 1878.98 240.212 1877.81 238.316C1876.63 236.419 1876 234.232 1876 232ZM1893.33 242.734C1893.76 241.908 1893.99 240.994 1894 240.064C1894.01 239.134 1893.81 238.215 1893.4 237.378C1893 236.541 1892.4 235.811 1891.66 235.244C1890.93 234.678 1890.07 234.291 1889.15 234.114C1889.94 233.454 1890.59 232.65 1891.07 231.746C1891.58 232.45 1892.25 233.022 1893.03 233.414C1893.81 233.806 1894.67 234.007 1895.54 234C1896.41 233.993 1897.27 233.779 1898.04 233.376C1898.82 232.972 1899.48 232.39 1899.98 231.678C1899.99 231.786 1900 231.892 1900 232C1900 234.232 1899.37 236.419 1898.19 238.316C1897.02 240.212 1895.33 241.742 1893.33 242.734Z" fill="currentColor" fill-rule="nonzero" />
  </g>
</svg>

