<svg viewBox="0 0 32 32" xmlns="http://www.w3.org/2000/svg" fill="none">
  <g transform="translate(-1728.000122 -216)">
<path id="Vector 215" d="M1744 242C1749.52 242 1754 237.523 1754 232C1754 226.477 1749.52 222 1744 222C1738.48 222 1734 226.477 1734 232C1734 237.523 1738.48 242 1744 242Z" fill="currentColor" fill-rule="nonzero" />
		<path id="Vector 216" d="M1744 246C1741.23 246 1738.52 245.179 1736.22 243.641C1733.92 242.102 1732.13 239.916 1731.07 237.358C1730.01 234.799 1729.73 231.984 1730.27 229.269C1730.81 226.553 1732.14 224.058 1734.1 222.101C1736.06 220.143 1738.55 218.809 1741.27 218.269C1743.98 217.729 1746.8 218.006 1749.36 219.066C1751.92 220.125 1754.1 221.92 1755.64 224.222C1757.18 226.524 1758 229.231 1758 232C1758 235.712 1756.52 239.27 1753.89 241.895C1751.27 244.519 1747.71 245.996 1744 246ZM1744 220C1741.63 220 1739.31 220.704 1737.33 222.022C1735.36 223.341 1733.82 225.215 1732.91 227.408C1732.01 229.6 1731.77 232.013 1732.23 234.341C1732.69 236.669 1733.84 238.807 1735.51 240.485C1737.19 242.163 1739.33 243.306 1741.66 243.769C1743.99 244.232 1746.4 243.995 1748.59 243.087C1750.79 242.178 1752.66 240.64 1753.98 238.667C1755.3 236.693 1756 234.373 1756 232C1756 228.818 1754.73 225.768 1752.48 223.519C1750.23 221.269 1747.18 220.004 1744 220Z" fill="currentColor" fill-rule="nonzero" />
  </g>
</svg>

