<svg viewBox="0 0 32 32" xmlns="http://www.w3.org/2000/svg" fill="none">
  <g transform="translate(-1656.000122 -216)">
<path id="Vector 214" d="M1663.7 220.7C1662.55 221.58 1661.54 222.625 1660.7 223.8L1662.3 225C1663.04 223.982 1663.91 223.073 1664.9 222.3L1663.7 220.7ZM1660.6 228.3L1658.7 227.7C1658.22 229.081 1657.98 230.537 1658 232L1660 232C1660 230.742 1660.2 229.492 1660.6 228.3ZM1658.7 236.4C1659.16 237.794 1659.84 239.11 1660.7 240.3L1662.3 239.1C1661.58 238.088 1661 236.976 1660.6 235.8L1658.7 236.4ZM1663.8 243.3C1664.99 244.162 1666.31 244.836 1667.7 245.3L1668.3 243.4C1667.12 242.995 1666.01 242.423 1665 241.7L1663.8 243.3ZM1667.7 218.7L1668.3 220.6C1669.49 220.199 1670.74 219.996 1672 220L1672 218C1670.54 217.98 1669.08 218.217 1667.7 218.7ZM1680.2 243.3C1681.38 242.422 1682.42 241.378 1683.3 240.2L1681.7 239C1680.96 240.044 1680.04 240.957 1679 241.7L1680.2 243.3ZM1683.4 235.7L1685.3 236.3C1685.73 234.907 1685.97 233.459 1686 232L1684 232C1684 233.258 1683.8 234.508 1683.4 235.7ZM1685.2 227.6C1684.74 226.206 1684.06 224.89 1683.2 223.7L1681.6 224.9C1682.32 225.912 1682.9 227.024 1683.3 228.2L1685.2 227.6ZM1680.1 220.6C1678.91 219.738 1677.59 219.064 1676.2 218.6L1675.6 220.5C1676.78 220.905 1677.89 221.477 1678.9 222.2L1680.1 220.6ZM1676.3 245.3L1675.7 243.4C1674.51 243.801 1673.26 244.004 1672 244L1672 246C1673.45 245.914 1674.89 245.679 1676.3 245.3Z" fill="currentColor" fill-rule="nonzero" />
  </g>
</svg>

