<svg viewBox="0 0 32 32" xmlns="http://www.w3.org/2000/svg" fill="none">
  <g transform="translate(-0 -288)">
<path id="Vector 220" d="M29.34 304.06C29.1469 303.99 28.9369 303.982 28.7387 304.035C28.5404 304.089 28.3635 304.202 28.232 304.36L24.46 308.886L19.025 307.898L15.423 298.946C15.2071 298.375 14.8227 297.883 14.3206 297.535C13.8185 297.188 13.2226 297.001 12.612 297L8.552 297C8.00839 297 7.47506 297.148 7.009 297.428L2 300.434L2 306.834L7 307.744L7 318L9 318L9 308.107L12.565 308.755L14 312.2L14 318L16 318L16 311.8L14.909 309.182L22.99 310.651L18.232 316.36C18.1104 316.506 18.0329 316.684 18.0086 316.872C17.9843 317.06 18.0142 317.252 18.0948 317.424C18.1753 317.596 18.3033 317.742 18.4636 317.844C18.6239 317.946 18.81 318 19 318L29 318C29.2652 318 29.5196 317.895 29.7071 317.707C29.8946 317.52 30 317.265 30 317L30 305C29.9999 304.794 29.9365 304.594 29.8184 304.426C29.7003 304.258 29.5333 304.13 29.34 304.06ZM4 305.166L4 301.566L7 299.766L7 305.711L4 305.166ZM9 306.075L9 299L12.614 299C12.8212 299.001 13.0231 299.066 13.1921 299.186C13.3612 299.306 13.4892 299.475 13.559 299.67L16.699 307.475L9 306.075ZM28 316L21.135 316L28 307.762L28 316ZM12.5 296C11.8078 296 11.1311 295.795 10.5555 295.41C9.97993 295.026 9.53133 294.479 9.26642 293.839C9.00151 293.2 8.9322 292.496 9.06725 291.817C9.2023 291.138 9.53564 290.515 10.0251 290.025C10.5146 289.536 11.1382 289.202 11.8172 289.067C12.4961 288.932 13.1999 289.002 13.8394 289.266C14.4789 289.531 15.0256 289.98 15.4101 290.556C15.7947 291.131 16 291.808 16 292.5C15.9989 293.428 15.6299 294.318 14.9737 294.974C14.3176 295.63 13.4279 295.999 12.5 296ZM12.5 291C12.2033 291 11.9133 291.088 11.6666 291.253C11.42 291.418 11.2277 291.652 11.1142 291.926C11.0006 292.2 10.9709 292.502 11.0288 292.793C11.0867 293.084 11.2296 293.351 11.4393 293.561C11.6491 293.77 11.9164 293.913 12.2074 293.971C12.4983 294.029 12.7999 293.999 13.074 293.886C13.3481 293.772 13.5824 293.58 13.7472 293.333C13.912 293.087 14 292.797 14 292.5C14 292.102 13.842 291.721 13.5607 291.439C13.2794 291.158 12.8978 291 12.5 291Z" fill="currentColor" fill-rule="nonzero" />
  </g>
</svg>

