<svg viewBox="0 0 32 32" xmlns="http://www.w3.org/2000/svg" fill="none">
  <g transform="translate(-144 -288)">
<path id="Vector 224" d="M154 298L166 298L166 300L154 300L154 298ZM154 303L166 303L166 305L154 305L154 303ZM154 308L166 308L166 310L154 310L154 308Z" fill="currentColor" fill-rule="nonzero" />
		<path id="Vector 225" d="M170 316L150 316C148.897 316 148 315.103 148 314L148 294C148 292.897 148.897 292 150 292L170 292C171.103 292 172 292.897 172 294L172 314C172 315.103 171.103 316 170 316ZM150 294L150 314L170 314L170 294L150 294Z" fill="currentColor" fill-rule="nonzero" />
  </g>
</svg>

