<svg viewBox="0 0 32 32" xmlns="http://www.w3.org/2000/svg" fill="none">
  <g transform="translate(-1224 -288)">
<path id="Vector 252" d="M1253.37 299.84C1253.1 298.97 1252.75 298.129 1252.31 297.33C1251.66 296.144 1250.85 295.057 1249.9 294.1C1247.94 292.142 1245.45 290.809 1242.73 290.269C1240.02 289.729 1237.2 290.006 1234.64 291.066C1232.09 292.125 1229.9 293.92 1228.36 296.222C1226.82 298.524 1226 301.231 1226 304C1226 306.769 1226.82 309.476 1228.36 311.778C1229.9 314.08 1232.09 315.875 1234.64 316.934C1237.2 317.994 1240.02 318.271 1242.73 317.731C1245.45 317.191 1247.94 315.858 1249.9 313.9C1250.85 312.943 1251.66 311.856 1252.31 310.67C1252.75 309.871 1253.1 309.03 1253.37 308.16C1254.21 305.451 1254.21 302.549 1253.37 299.84ZM1228 304C1228 300.817 1229.26 297.765 1231.51 295.515C1233.77 293.264 1236.82 292 1240 292L1240 316C1236.82 316 1233.77 314.736 1231.51 312.485C1229.26 310.235 1228 307.183 1228 304Z" fill="currentColor" fill-rule="nonzero" />
  </g>
</svg>

