<svg viewBox="0 0 32 32" xmlns="http://www.w3.org/2000/svg" fill="none">
  <g transform="translate(-1008 -288)">
<path id="Vector 249" d="M1018 316C1017.73 316 1017.48 315.895 1017.29 315.707C1017.11 315.52 1017 315.265 1017 315L1017 293C1017 292.824 1017.05 292.652 1017.13 292.5C1017.22 292.348 1017.35 292.222 1017.5 292.134C1017.65 292.046 1017.83 292 1018 292C1018.18 292.001 1018.35 292.047 1018.5 292.135L1037.5 303.135C1037.65 303.223 1037.78 303.349 1037.87 303.501C1037.95 303.653 1038 303.825 1038 304C1038 304.175 1037.95 304.347 1037.87 304.499C1037.78 304.651 1037.65 304.777 1037.5 304.865L1018.5 315.865C1018.35 315.953 1018.18 316 1018 316ZM1012 292L1014 292L1014 316L1012 316L1012 292Z" fill="currentColor" fill-rule="nonzero" />
  </g>
</svg>

