<svg viewBox="0 0 32 32" xmlns="http://www.w3.org/2000/svg" fill="none">
  <g transform="translate(-936 -288)">
<path id="Vector 248" d="M946 316C945.735 316 945.48 315.895 945.293 315.707C945.105 315.52 945 315.265 945 315L945 293C945 292.824 945.046 292.652 945.134 292.5C945.222 292.348 945.349 292.222 945.501 292.134C945.653 292.046 945.825 292 946.001 292C946.177 292.001 946.349 292.047 946.501 292.135L965.501 303.135C965.653 303.223 965.778 303.349 965.866 303.501C965.953 303.653 965.999 303.825 965.999 304C965.999 304.175 965.953 304.347 965.866 304.499C965.778 304.651 965.653 304.777 965.501 304.865L946.501 315.865C946.349 315.953 946.176 316 946 316ZM947 294.734L947 313.266L963 304L947 294.734ZM940 292L942 292L942 316L940 316L940 292Z" fill="currentColor" fill-rule="nonzero" />
  </g>
</svg>

