<svg viewBox="0 0 32 32" xmlns="http://www.w3.org/2000/svg" fill="none">
  <g transform="translate(-360 -288)">
<path id="Vector 228" d="M390 311L380 311C378.897 311 378 310.103 378 309L378 299C378 297.897 378.897 297 380 297L390 297C391.103 297 392 297.897 392 299L392 309C392 310.103 391.103 311 390 311ZM380 299L380 309L390 309L390 299L380 299ZM369 293L374 298L369 303L367.581 301.591L370.153 299L360 299L360 297L370.206 297L367.581 294.409L369 293ZM365 315L360 310L365 305L366.419 306.409L363.847 309L374 309L374 311L363.794 311L366.419 313.591L365 315Z" fill="currentColor" fill-rule="nonzero" />
  </g>
</svg>

