<svg viewBox="0 0 32 32" xmlns="http://www.w3.org/2000/svg" fill="none">
  <g transform="translate(-288 -288)">
<path id="Vector 227" d="M318 311L308 311C306.897 311 306 310.103 306 309L306 299C306 297.897 306.897 297 308 297L318 297C319.103 297 320 297.897 320 299L320 309C320 310.103 319.103 311 318 311ZM308 299L308 309L318 309L318 299L308 299ZM297 299L302 304L297 309L295.581 307.591L298.153 305L288 305L288 303L298.206 303L295.581 300.409L297 299Z" fill="currentColor" fill-rule="nonzero" />
  </g>
</svg>

