<svg viewBox="0 0 32 32" xmlns="http://www.w3.org/2000/svg" fill="none">
  <g transform="translate(-720 -288)">
<path id="Vector 238" d="M748 300L740 300L740 292L748 292L748 300ZM742 298L746 298L746 294L742 294L742 298Z" fill="currentColor" fill-rule="nonzero" />
		<path id="Vector 239" d="M737 303L737 297L729 297L729 311L743 311L743 303L737 303ZM731 299L735 299L735 303L731 303L731 299ZM735 309L731 309L731 305L735 305L735 309ZM741 309L737 309L737 305L741 305L741 309Z" fill="currentColor" fill-rule="nonzero" />
		<path id="Vector 240" d="M746 316L726 316C725.47 316 724.961 315.789 724.586 315.414C724.211 315.039 724 314.53 724 314L724 294C724 293.47 724.211 292.961 724.586 292.586C724.961 292.211 725.47 292 726 292L736 292L736 294L726 294L726 314L746 314L746 304L748 304L748 314C748 314.53 747.789 315.039 747.414 315.414C747.039 315.789 746.53 316 746 316Z" fill="currentColor" fill-rule="nonzero" />
  </g>
</svg>

