<svg viewBox="0 0 32 32" xmlns="http://www.w3.org/2000/svg" fill="none">
  <g transform="translate(-504 -288)">
<path id="Vector 232" d="M534 312L534 310L531.9 310C531.8 309.4 531.5 308.8 531.2 308.2L532.7 306.7L531.3 305.3L529.8 306.8C529.3 306.5 528.7 306.2 528 306.1L528 304L526 304L526 306.1C525.4 306.2 524.8 306.5 524.2 306.8L522.7 305.3L521.3 306.7L522.8 308.2C522.5 308.7 522.2 309.3 522.1 310L520 310L520 312L522.1 312C522.2 312.6 522.5 313.2 522.8 313.8L521.3 315.3L522.7 316.7L524.2 315.2C524.7 315.5 525.3 315.8 526 315.9L526 318L528 318L528 315.9C528.6 315.8 529.2 315.5 529.8 315.2L531.3 316.7L532.7 315.3L531.2 313.8C531.5 313.3 531.8 312.7 531.9 312L534 312ZM527 314C525.3 314 524 312.7 524 311C524 309.3 525.3 308 527 308C528.7 308 530 309.3 530 311C530 312.7 528.7 314 527 314Z" fill="currentColor" fill-rule="nonzero" />
		<path id="Vector 233" d="M518 316L510 316C508.897 316 508 315.103 508 314L508 294C508 292.897 508.897 292 510 292L530 292C531.103 292 532 292.897 532 294L532 302L530 302L530 294L510 294L510 314L518 314L518 316Z" fill="currentColor" fill-rule="nonzero" />
  </g>
</svg>

