<svg viewBox="0 0 32 32" xmlns="http://www.w3.org/2000/svg" fill="none">
  <g transform="translate(-864 -288)">
<path id="Vector 245" d="M880 309C881.105 309 882 308.105 882 307C882 305.895 881.105 305 880 305C878.895 305 878 305.895 878 307C878 308.105 878.895 309 880 309Z" fill="currentColor" fill-rule="nonzero" />
		<path id="Vector 246" d="M887.777 306.479C887.159 304.905 886.093 303.547 884.711 302.573C883.328 301.599 881.69 301.052 880 301C878.31 301.052 876.672 301.599 875.289 302.573C873.907 303.547 872.841 304.905 872.223 306.479L872 307L872.223 307.522C872.841 309.096 873.907 310.454 875.29 311.428C876.672 312.401 878.31 312.948 880 313C881.69 312.948 883.328 312.401 884.71 311.428C886.093 310.454 887.159 309.096 887.777 307.522L888 307L887.777 306.479ZM880 311C879.209 311 878.435 310.765 877.778 310.326C877.12 309.886 876.607 309.262 876.305 308.531C876.002 307.8 875.922 306.996 876.077 306.22C876.231 305.444 876.612 304.731 877.172 304.172C877.731 303.612 878.444 303.231 879.22 303.077C879.996 302.922 880.8 303.002 881.531 303.305C882.262 303.607 882.886 304.12 883.326 304.778C883.765 305.435 884 306.209 884 307C883.999 308.06 883.577 309.077 882.827 309.827C882.077 310.577 881.06 310.999 880 311Z" fill="currentColor" fill-rule="nonzero" />
		<path id="Vector 247" d="M891 291L869 291C868.47 291 867.961 291.211 867.586 291.586C867.211 291.961 867 292.47 867 293L867 315C867 315.53 867.211 316.039 867.586 316.414C867.961 316.789 868.47 317 869 317L891 317C891.53 317 892.039 316.789 892.414 316.414C892.789 316.039 893 315.53 893 315L893 293C893 292.47 892.789 291.961 892.414 291.586C892.039 291.211 891.53 291 891 291ZM869 293L891 293L891 297L869 297L869 293ZM869 315L869 299L891 299L891 315L869 315Z" fill="currentColor" fill-rule="nonzero" />
  </g>
</svg>

