<svg viewBox="0 0 32 32" xmlns="http://www.w3.org/2000/svg" fill="none">
  <g transform="translate(-1152 -288)">
<path id="Vector 251" d="M1183.9 303.5L1178.2 293.5C1177.9 293.2 1177.6 293 1177.3 293L1158.7 293C1158.4 293 1158.1 293.2 1157.9 293.5L1152.2 303.5C1152 303.7 1152 303.8 1152 304C1152 304.2 1152 304.3 1152.1 304.5L1157.8 314.5C1158.1 314.8 1158.4 315 1158.7 315L1177.2 315C1177.6 315 1177.9 314.8 1178.1 314.5L1183.8 304.5C1184 304.3 1184 304.2 1184 304C1184 303.8 1184 303.7 1183.9 303.5ZM1169.8 303L1161.8 303L1165.8 296L1169.8 303ZM1167.5 295L1175.5 295L1171.5 302L1167.5 295ZM1169.8 305L1165.8 312L1161.8 305L1169.8 305ZM1171.5 306L1175.5 313L1167.5 313L1171.5 306ZM1173.2 305L1181.2 305L1177.2 312L1173.2 305ZM1173.2 303L1177.2 296L1181.2 303L1173.2 303ZM1159.3 295L1164 295L1159.4 303L1154.7 303L1159.3 295ZM1159.3 313L1154.7 305L1159.4 305L1164 313L1159.3 313Z" fill="currentColor" fill-rule="nonzero" />
  </g>
</svg>

