<svg viewBox="0 0 32 32" xmlns="http://www.w3.org/2000/svg" fill="none">
  <g transform="translate(-792 -288)">
<path id="Vector 241" d="M813 311C814.105 311 815 310.105 815 309C815 307.895 814.105 307 813 307C811.895 307 811 307.895 811 309C811 310.105 811.895 311 813 311Z" fill="currentColor" fill-rule="nonzero" />
		<path id="Vector 242" d="M799 297C800.105 297 801 296.105 801 295C801 293.895 800.105 293 799 293C797.895 293 797 293.895 797 295C797 296.105 797.895 297 799 297Z" fill="currentColor" fill-rule="nonzero" />
		<path id="Vector 243" d="M819 319C818.209 319 817.435 318.765 816.778 318.326C816.12 317.886 815.607 317.262 815.305 316.531C815.002 315.8 814.922 314.996 815.077 314.22C815.231 313.444 815.612 312.731 816.172 312.172C816.731 311.612 817.444 311.231 818.22 311.077C818.996 310.923 819.8 311.002 820.531 311.305C821.262 311.607 821.886 312.12 822.326 312.778C822.765 313.436 823 314.209 823 315C822.997 316.06 822.575 317.076 821.826 317.826C821.076 318.575 820.06 318.997 819 319ZM819 313C818.604 313 818.218 313.117 817.889 313.337C817.56 313.557 817.304 313.869 817.152 314.235C817.001 314.6 816.961 315.002 817.038 315.39C817.116 315.778 817.306 316.134 817.586 316.414C817.865 316.694 818.222 316.884 818.61 316.962C818.998 317.039 819.4 316.999 819.765 316.848C820.131 316.696 820.443 316.44 820.663 316.111C820.883 315.782 821 315.396 821 315C820.998 314.47 820.787 313.962 820.412 313.587C820.038 313.213 819.53 313.002 819 313Z" fill="currentColor" fill-rule="nonzero" />
		<path id="Vector 244" d="M822 304C821.989 300.29 820.511 296.735 817.888 294.112C815.265 291.489 811.71 290.011 808 290C805.611 289.966 803.259 290.588 801.2 291.8L802.3 293.5C803.081 293.124 803.883 292.79 804.7 292.5C803.046 295.762 802.124 299.345 802 303L796 303C796.112 301.349 796.59 299.743 797.4 298.3L795.9 297C794.656 299.123 794 301.539 794 304C794 307.713 795.475 311.274 798.101 313.9C800.726 316.525 804.287 318 808 318C809.783 318.016 811.55 317.676 813.2 317L812.6 315.1C810.961 315.801 809.18 316.109 807.4 316C805.267 312.72 804.09 308.911 804 305L821.9 305C821.983 304.673 822.016 304.336 822 304ZM804.8 315.6C802.811 315.005 800.994 313.942 799.5 312.5C797.516 310.47 796.281 307.825 796 305L802 305C802.138 308.697 803.094 312.317 804.8 315.6ZM804 303C804.08 299.102 805.221 295.299 807.3 292L808.7 292C810.779 295.299 811.92 299.102 812 303L804 303ZM814 303C813.923 299.294 812.963 295.66 811.2 292.4C813.553 293.078 815.645 294.454 817.198 296.347C818.752 298.24 819.694 300.56 819.9 303L814 303Z" fill="currentColor" fill-rule="nonzero" />
  </g>
</svg>

