<svg viewBox="0 0 32 32" xmlns="http://www.w3.org/2000/svg" fill="none">
  <g transform="translate(-72 -288)">
<path id="Vector 221" d="M95 312C95.5523 312 96 311.552 96 311C96 310.448 95.5523 310 95 310C94.4477 310 94 310.448 94 311C94 311.552 94.4477 312 95 312Z" fill="currentColor" fill-rule="nonzero" />
		<path id="Vector 222" d="M97.79 306.854L88.8 300.616C88.2838 300.219 87.6513 300.002 87 300C85.346 300 84 301.346 84 303C84 303.655 84.217 304.257 84.575 304.752L90.916 313.867C91.3752 314.525 91.9862 315.062 92.6971 315.433C93.408 315.804 94.198 315.999 95 316C97.757 316 100 313.757 100 311C99.9995 310.181 99.7977 309.374 99.4123 308.651C99.0269 307.928 98.4698 307.311 97.79 306.854ZM90.27 309.452L87.787 305.882C88.2877 305.745 88.7441 305.48 89.1112 305.113C89.4784 304.746 89.7437 304.29 89.881 303.789L93.451 306.27C92.7086 306.514 92.034 306.929 91.4815 307.482C90.929 308.035 90.514 308.71 90.27 309.452ZM87 302C87.2575 302.012 87.5006 302.122 87.6787 302.308C87.8569 302.495 87.9563 302.742 87.9563 303C87.9563 303.258 87.8569 303.505 87.6787 303.692C87.5006 303.878 87.2575 303.988 87 304C86.7348 304 86.4804 303.895 86.2929 303.707C86.1054 303.52 86 303.265 86 303C86 302.735 86.1054 302.48 86.2929 302.293C86.4804 302.105 86.7348 302 87 302ZM95 314C93.346 314 92 312.654 92 311C92 309.346 93.346 308 95 308C96.654 308 98 309.346 98 311C98 312.654 96.654 314 95 314Z" fill="currentColor" fill-rule="nonzero" />
		<path id="Vector 223" d="M88 316L78 316C76.897 316 76 315.103 76 314L76 294C76 292.897 76.897 292 78 292L98 292C99.103 292 100 292.897 100 294L100 304L98 304L98 294L78 294L78 314L88 314L88 316Z" fill="currentColor" fill-rule="nonzero" />
  </g>
</svg>

