<svg viewBox="0 0 32 32" xmlns="http://www.w3.org/2000/svg" fill="none">
  <g transform="translate(-1080 -288)">
<path id="Vector 250" d="M1104 290L1098 296L1099.4 297.4L1103 293.8L1103 307C1103 312 1099 316 1094 316C1092.4 316 1090.9 315.6 1089.7 314.9C1090.1 315 1090.5 315 1091 315C1095.4 315 1099 311.4 1099 307C1099 302.6 1095.4 299 1091 299C1086.6 299 1083 302.6 1083 307C1083 313.1 1087.9 318 1094 318C1100.1 318 1105 313.1 1105 307L1105 293.8L1108.6 297.4L1110 296L1104 290ZM1085 307.6L1085 307C1085 303.7 1087.7 301 1091 301C1094.3 301 1097 303.7 1097 307C1097 310.3 1094.3 313 1091 313C1087.9 313 1085.3 310.6 1085 307.6Z" fill="currentColor" fill-rule="nonzero" />
  </g>
</svg>

