<svg viewBox="0 0 32 32" xmlns="http://www.w3.org/2000/svg" fill="none">
  <g transform="translate(-216 -288)">
<path id="Vector 226" d="M246 311L236 311C234.897 311 234 310.103 234 309L234 299C234 297.897 234.897 297 236 297L246 297C247.103 297 248 297.897 248 299L248 309C248 310.103 247.103 311 246 311ZM236 299L236 309L246 309L246 299L236 299ZM221 299L216 304L221 309L222.419 307.591L219.847 305L230 305L230 303L219.794 303L222.419 300.409L221 299Z" fill="currentColor" fill-rule="nonzero" />
  </g>
</svg>

