<svg viewBox="0 0 32 32" xmlns="http://www.w3.org/2000/svg" fill="none">
  <g transform="translate(-648 -288)">
<path id="Vector 237" d="M675 310L675 305C675 304.47 674.789 303.961 674.414 303.586C674.039 303.211 673.53 303 673 303L665 303L665 298L668 298C668.53 298 669.039 297.789 669.414 297.414C669.789 297.039 670 296.53 670 296L670 292C670 291.47 669.789 290.961 669.414 290.586C669.039 290.211 668.53 290 668 290L660 290C659.47 290 658.961 290.211 658.586 290.586C658.211 290.961 658 291.47 658 292L658 296C658 296.53 658.211 297.039 658.586 297.414C658.961 297.789 659.47 298 660 298L663 298L663 303L655 303C654.47 303 653.961 303.211 653.586 303.586C653.211 303.961 653 304.47 653 305L653 310L650 310L650 318L658 318L658 310L655 310L655 305L663 305L663 310L660 310L660 318L668 318L668 310L665 310L665 305L673 305L673 310L670 310L670 318L678 318L678 310L675 310ZM660 292L668 292L668 296L660 296L660 292ZM656 316L652 316L652 312L656 312L656 316ZM666 316L662 316L662 312L666 312L666 316ZM676 316L672 316L672 312L676 312L676 316Z" fill="currentColor" fill-rule="nonzero" />
  </g>
</svg>

