<svg viewBox="0 0 32 32" xmlns="http://www.w3.org/2000/svg" fill="none">
  <g transform="translate(-432 -288)">
<path id="Vector 229" d="M449 301L449 294L440 294L440 310L456 310L456 301L449 301ZM442 296L447 296L447 301L442 301L442 296ZM442 303L447 303L447 308L442 308L442 303ZM454 308L449 308L449 303L454 303L454 308Z" fill="currentColor" fill-rule="nonzero" />
		<path id="Vector 230" d="M460 299L451 299L451 290L460 290L460 299ZM453 297L458 297L458 292L453 292L453 297ZM460 308L458 308L458 310L460 310L460 316L436 316L436 310L438 310L438 308L436 308C435.47 308 434.961 308.211 434.586 308.586C434.211 308.961 434 309.47 434 310L434 316C434 316.53 434.211 317.039 434.586 317.414C434.961 317.789 435.47 318 436 318L460 318C460.53 318 461.039 317.789 461.414 317.414C461.789 317.039 462 316.53 462 316L462 310C462 309.47 461.789 308.961 461.414 308.586C461.039 308.211 460.53 308 460 308Z" fill="currentColor" fill-rule="nonzero" />
		<path id="Vector 231" d="M439 314C439.552 314 440 313.552 440 313C440 312.448 439.552 312 439 312C438.448 312 438 312.448 438 313C438 313.552 438.448 314 439 314Z" fill="currentColor" fill-rule="nonzero" />
  </g>
</svg>

