<svg viewBox="0 0 32 32" xmlns="http://www.w3.org/2000/svg" fill="none">
  <g transform="translate(-576 -288)">
<path id="Vector 234" d="M598 313C599.105 313 600 312.105 600 311C600 309.895 599.105 309 598 309C596.895 309 596 309.895 596 311C596 312.105 596.895 313 598 313Z" fill="currentColor" fill-rule="nonzero" />
		<path id="Vector 235" d="M605.777 310.479C605.159 308.905 604.093 307.547 602.711 306.573C601.328 305.599 599.69 305.052 598 305C596.31 305.052 594.672 305.599 593.289 306.573C591.907 307.547 590.841 308.905 590.223 310.479L590 311L590.223 311.522C590.841 313.096 591.907 314.454 593.29 315.428C594.672 316.401 596.31 316.948 598 317C599.69 316.948 601.328 316.401 602.71 315.428C604.093 314.454 605.159 313.096 605.777 311.522L606 311L605.777 310.479ZM598 315C596.939 315 595.922 314.579 595.172 313.828C594.421 313.078 594 312.061 594 311C594 309.939 594.421 308.922 595.172 308.172C595.922 307.421 596.939 307 598 307C599.061 307 600.078 307.421 600.828 308.172C601.579 308.922 602 309.939 602 311C602 312.061 601.579 313.078 600.828 313.828C600.078 314.579 599.061 315 598 315Z" fill="currentColor" fill-rule="nonzero" />
		<path id="Vector 236" d="M588 316L582 316C580.897 316 580 315.103 580 314L580 294C580 292.897 580.897 292 582 292L602 292C603.103 292 604 292.897 604 294L604 304L602 304L602 294L582 294L582 314L588 314L588 316Z" fill="currentColor" fill-rule="nonzero" />
  </g>
</svg>

