<svg viewBox="0 0 32 32" xmlns="http://www.w3.org/2000/svg" fill="none">
  <g transform="translate(-1296 -288)">
<path id="Vector 253" d="M1322.5 300L1315 300C1313.94 300 1312.92 299.579 1312.17 298.828C1311.42 298.078 1311 297.061 1311 296C1311 294.939 1311.42 293.922 1312.17 293.172C1312.92 292.421 1313.94 292 1315 292L1315.08 292C1315.53 291.378 1316.12 290.872 1316.8 290.524C1317.48 290.176 1318.23 289.996 1319 290C1320.01 290 1320.99 290.306 1321.83 290.878C1322.66 291.45 1323.29 292.261 1323.65 293.203C1324.34 293.438 1324.94 293.883 1325.36 294.474C1325.78 295.066 1326 295.774 1326 296.5C1326 297.428 1325.63 298.318 1324.97 298.974C1324.32 299.63 1323.43 299.999 1322.5 300ZM1315 294C1314.47 294 1313.96 294.211 1313.59 294.586C1313.21 294.961 1313 295.47 1313 296C1313 296.53 1313.21 297.039 1313.59 297.414C1313.96 297.789 1314.47 298 1315 298L1322.5 298C1322.9 298 1323.28 297.842 1323.56 297.561C1323.84 297.279 1324 296.898 1324 296.5C1324 296.142 1323.87 295.795 1323.64 295.524C1323.4 295.253 1323.08 295.076 1322.72 295.026L1322.06 294.927L1321.9 294.278C1321.76 293.693 1321.45 293.164 1321 292.762C1320.56 292.359 1320 292.102 1319.4 292.025C1318.81 291.948 1318.2 292.054 1317.67 292.329C1317.13 292.604 1316.69 293.036 1316.41 293.566L1316.11 294L1315 294ZM1319 302L1314 307L1315.41 308.414L1318 305.832L1318 312L1312 312L1312 314L1318 314C1318.53 313.999 1319.04 313.788 1319.41 313.413C1319.79 313.038 1320 312.53 1320 312L1320 305.833L1322.59 308.416L1324 307L1319 302ZM1298 308L1308 308L1308 310L1298 310L1298 308ZM1298 312L1308 312L1308 314L1298 314L1298 312ZM1298 316L1308 316L1308 318L1298 318L1298 316Z" fill="currentColor" fill-rule="nonzero" />
  </g>
</svg>

