<svg viewBox="0 0 32 32" xmlns="http://www.w3.org/2000/svg" fill="none">
  <g transform="translate(-1368.000122 -288)">
<path id="Vector 254" d="M1378 311C1379.1 311 1380 310.105 1380 309C1380 307.895 1379.1 307 1378 307C1376.9 307 1376 307.895 1376 309C1376 310.105 1376.9 311 1378 311Z" fill="currentColor" fill-rule="nonzero" />
		<path id="Vector 255" d="M1391 310C1392.1 310 1393 309.105 1393 308C1393 306.895 1392.1 306 1391 306C1389.9 306 1389 306.895 1389 308C1389 309.105 1389.9 310 1391 310Z" fill="currentColor" fill-rule="nonzero" />
		<path id="Vector 256" d="M1381 300C1382.1 300 1383 299.105 1383 298C1383 296.895 1382.1 296 1381 296C1379.9 296 1379 296.895 1379 298C1379 299.105 1379.9 300 1381 300Z" fill="currentColor" fill-rule="nonzero" />
		<path id="Vector 257" d="M1382 304C1382.55 304 1383 303.552 1383 303C1383 302.448 1382.55 302 1382 302C1381.45 302 1381 302.448 1381 303C1381 303.552 1381.45 304 1382 304Z" fill="currentColor" fill-rule="nonzero" />
		<path id="Vector 258" d="M1391 295C1392.1 295 1393 294.105 1393 293C1393 291.895 1392.1 291 1391 291C1389.9 291 1389 291.895 1389 293C1389 294.105 1389.9 295 1391 295Z" fill="currentColor" fill-rule="nonzero" />
		<path id="Vector 259" d="M1397 292C1397.55 292 1398 291.552 1398 291C1398 290.448 1397.55 290 1397 290C1396.45 290 1396 290.448 1396 291C1396 291.552 1396.45 292 1397 292Z" fill="currentColor" fill-rule="nonzero" />
		<path id="Vector 260" d="M1384 312C1384.55 312 1385 311.552 1385 311C1385 310.448 1384.55 310 1384 310C1383.45 310 1383 310.448 1383 311C1383 311.552 1383.45 312 1384 312Z" fill="currentColor" fill-rule="nonzero" />
		<path id="Vector 261" d="M1384 318C1376.3 318 1370 311.7 1370 304C1370 296.3 1376.3 290 1384 290L1384.3 290L1385.7 290.1L1385.4 291.3C1385.3 291.7 1385.2 292.2 1385.2 292.6C1385.2 295.4 1387.4 297.6 1390.2 297.6C1391.2 297.6 1392.2 297.3 1393.1 296.7L1394.4 298.2C1394 298.6 1393.8 299.1 1393.8 299.6C1393.8 300.9 1395.1 302 1396.5 301.5L1397.7 301L1397.9 302.3C1398 302.9 1398 303.5 1398 304C1398 311.7 1391.7 318 1384 318ZM1383.3 292C1377 292.4 1372 297.6 1372 304C1372 310.6 1377.4 316 1384 316C1390.6 316 1396 310.6 1396 304L1396 303.6C1393.7 303.7 1391.8 301.9 1391.8 299.6L1391.8 299.4C1391.3 299.5 1390.8 299.6 1390.2 299.6C1386.3 299.6 1383.2 296.5 1383.2 292.6C1383.2 292.4 1383.2 292.2 1383.3 292Z" fill="currentColor" fill-rule="nonzero" />
  </g>
</svg>

