<svg viewBox="0 0 32 32" xmlns="http://www.w3.org/2000/svg" fill="none">
  <g transform="translate(-1584.000122 -288)">
<path id="Vector 266" d="M1595.95 307C1594.97 307 1594.01 306.71 1593.2 306.166C1592.39 305.622 1591.75 304.85 1591.38 303.946C1591 303.042 1590.9 302.047 1591.09 301.087C1591.29 300.128 1591.76 299.246 1592.45 298.554L1597.55 293.449C1598.48 292.521 1599.74 292 1601.05 292C1602.37 292 1603.62 292.521 1604.55 293.449C1605.48 294.377 1606 295.636 1606 296.948C1606 298.26 1605.48 299.519 1604.55 300.447L1604 300.999L1602.58 299.586L1603.14 299.029C1603.69 298.475 1604 297.726 1604 296.945C1604 296.164 1603.69 295.415 1603.14 294.863C1602.58 294.327 1601.83 294.028 1601.05 294.028C1600.28 294.028 1599.53 294.327 1598.97 294.863L1593.86 299.967C1593.59 300.241 1593.37 300.566 1593.22 300.923C1593.08 301.281 1593 301.665 1593 302.052C1593 302.439 1593.08 302.823 1593.22 303.18C1593.37 303.538 1593.59 303.863 1593.86 304.137C1594.42 304.673 1595.17 304.972 1595.95 304.972C1596.72 304.972 1597.47 304.673 1598.03 304.137L1599.45 305.551C1598.99 306.012 1598.44 306.377 1597.84 306.626C1597.24 306.875 1596.6 307.002 1595.95 307Z" fill="currentColor" fill-rule="nonzero" />
		<path id="Vector 267" d="M1603.95 305C1602.97 305 1602.01 304.71 1601.2 304.166C1600.39 303.622 1599.75 302.85 1599.38 301.946C1599 301.042 1598.9 300.047 1599.09 299.087C1599.29 298.128 1599.76 297.246 1600.45 296.554L1601 296L1602.42 297.415L1601.86 297.967C1601.31 298.52 1601 299.27 1601 300.051C1601 300.833 1601.31 301.583 1601.86 302.136C1602.42 302.672 1603.17 302.971 1603.95 302.971C1604.72 302.971 1605.47 302.672 1606.03 302.136L1611.14 297.031C1611.69 296.478 1612 295.728 1612 294.947C1612 294.166 1611.69 293.416 1611.14 292.863C1610.58 292.327 1609.83 292.028 1609.05 292.028C1608.28 292.028 1607.53 292.327 1606.97 292.863L1605.55 291.448C1606.48 290.52 1607.74 289.999 1609.05 289.999C1610.37 289.999 1611.62 290.52 1612.55 291.448C1613.48 292.376 1614 293.635 1614 294.947C1614 296.259 1613.48 297.518 1612.55 298.446L1607.45 303.549C1606.99 304.01 1606.44 304.375 1605.84 304.624C1605.24 304.873 1604.6 305.001 1603.95 304.999" fill="currentColor" fill-rule="nonzero" />
		<path id="Vector 268" d="M1608 318L1588 318C1587.47 318 1586.96 317.789 1586.59 317.414C1586.21 317.039 1586 316.53 1586 316L1586 296C1586 295.47 1586.21 294.961 1586.59 294.586C1586.96 294.211 1587.47 294 1588 294L1592 294L1592 296L1588 296L1588 316L1608 316L1608 306L1610 306L1610 316C1610 316.53 1609.79 317.039 1609.41 317.414C1609.04 317.789 1608.53 318 1608 318Z" fill="currentColor" fill-rule="nonzero" />
  </g>
</svg>

