<svg viewBox="0 0 32 32" xmlns="http://www.w3.org/2000/svg" fill="none">
  <g transform="translate(-1512.000122 -288)">
<path id="Vector 264" d="M1539.4 302.7L1533.3 296.6C1533 296.2 1532.5 296 1532 296L1524 296C1522.9 296 1522 296.9 1522 298L1522 316C1522 317.1 1522.9 318 1524 318L1538 318C1539.1 318 1540 317.1 1540 316L1540 304.1C1540 303.6 1539.8 303.1 1539.4 302.7ZM1532 298L1537.9 304L1532 304L1532 298ZM1524 316L1524 298L1530 298L1530 304C1530 305.1 1530.9 306 1532 306L1538 306L1538 316L1524 316Z" fill="currentColor" fill-rule="nonzero" />
		<path id="Vector 265" d="M1518 306L1516 306L1516 292C1516 290.9 1516.9 290 1518 290L1532 290L1532 292L1518 292L1518 306Z" fill="currentColor" fill-rule="nonzero" />
  </g>
</svg>

