<svg viewBox="0 0 32 32" xmlns="http://www.w3.org/2000/svg" fill="none">
  <g transform="translate(-1656.000122 -288)">
<path id="Vector 269" d="M1663 295L1666 295L1666 298L1678 298L1678 295L1681 295L1681 306L1683 306L1683 295C1683 294.47 1682.79 293.962 1682.41 293.588C1682.04 293.213 1681.53 293.002 1681 293L1678 293L1678 292C1678 291.47 1677.79 290.962 1677.41 290.588C1677.04 290.213 1676.53 290.002 1676 290L1668 290C1667.47 290.002 1666.96 290.213 1666.59 290.588C1666.21 290.962 1666 291.47 1666 292L1666 293L1663 293C1662.47 293.002 1661.96 293.213 1661.59 293.588C1661.21 293.962 1661 294.47 1661 295L1661 316C1661 316.53 1661.21 317.038 1661.59 317.413C1661.96 317.787 1662.47 317.998 1663 318L1672 318L1672 316L1663 316L1663 295ZM1668 292L1676 292L1676 296L1668 296L1668 292ZM1686 312L1677.83 312L1680.41 309.414L1679 308L1674 313L1679 318L1680.41 316.586L1677.83 314L1686 314L1686 312ZM1668 301L1666 301L1666 303L1668 303L1668 301ZM1678 301L1670 301L1670 303L1678 303L1678 301ZM1668 306L1666 306L1666 308L1668 308L1668 306ZM1666 313L1668 313L1668 311L1666 311L1666 313ZM1670 308L1674 308L1674 306L1670 306L1670 308Z" fill="currentColor" fill-rule="nonzero" />
  </g>
</svg>

