<svg viewBox="0 0 32 32" xmlns="http://www.w3.org/2000/svg" fill="none">
  <g transform="translate(-1440.000122 -288)">
<path id="Vector 262" d="M1468 298L1468 316L1450 316L1450 298L1468 298ZM1468 296L1450 296C1449.47 296 1448.96 296.211 1448.59 296.586C1448.21 296.961 1448 297.47 1448 298L1448 316C1448 316.53 1448.21 317.039 1448.59 317.414C1448.96 317.789 1449.47 318 1450 318L1468 318C1468.53 318 1469.04 317.789 1469.41 317.414C1469.79 317.039 1470 316.53 1470 316L1470 298C1470 297.47 1469.79 296.961 1469.41 296.586C1469.04 296.211 1468.53 296 1468 296Z" fill="currentColor" fill-rule="nonzero" />
		<path id="Vector 263" d="M1444 306L1442 306L1442 292C1442 291.47 1442.21 290.961 1442.59 290.586C1442.96 290.211 1443.47 290 1444 290L1458 290L1458 292L1444 292L1444 306Z" fill="currentColor" fill-rule="nonzero" />
  </g>
</svg>

