<svg viewBox="0 0 32 32" xmlns="http://www.w3.org/2000/svg" fill="none">
  <g transform="translate(-1728.000122 -288)">
<path id="Vector 270" d="M1751 304C1750.66 304 1750.33 304.02 1750 304.05L1750 304C1750 296.115 1747.04 290 1744.5 290C1741.96 290 1739 296.115 1739 304L1739 309L1734 309L1734 312C1734 313.591 1734.63 315.116 1735.76 316.241C1736.88 317.365 1738.41 317.998 1740 318L1743 318C1745.92 317.997 1748.71 316.836 1750.77 314.774C1752.84 312.712 1754 309.916 1754 307L1754 304L1751 304ZM1741 304L1743 304L1743 302L1741.07 302C1741.16 300.654 1741.35 299.317 1741.64 298L1744 298L1744 296L1742.2 296C1743.01 293.594 1744.02 292.229 1744.5 292.014C1745.16 292.306 1746.78 294.717 1747.57 299L1746 299L1746 301L1747.84 301C1747.95 301.997 1748 302.998 1748 304L1748 304.426C1745.45 305.156 1743.24 306.78 1741.79 309L1741 309L1741 304ZM1740 316C1738.94 315.999 1737.92 315.577 1737.17 314.827C1736.42 314.077 1736 313.06 1736 312L1736 311L1740.76 311C1740.26 312.273 1740 313.63 1740 315L1740 316ZM1752 307C1752 309.386 1751.05 311.674 1749.36 313.361C1747.67 315.048 1745.39 315.997 1743 316L1742 316L1742 315C1742 312.614 1742.95 310.326 1744.64 308.639C1746.33 306.952 1748.61 306.003 1751 306L1752 306L1752 307Z" fill="currentColor" fill-rule="nonzero" />
  </g>
</svg>

