<svg viewBox="0 0 32 32" xmlns="http://www.w3.org/2000/svg" fill="none">
  <g transform="translate(-1872.000122 -288)">
<path id="Vector 272" d="M1887.5 301C1888.33 301 1889 300.328 1889 299.5C1889 298.672 1888.33 298 1887.5 298C1886.67 298 1886 298.672 1886 299.5C1886 300.328 1886.67 301 1887.5 301Z" fill="currentColor" fill-rule="nonzero" />
		<path id="Vector 273" d="M1892.5 305C1893.33 305 1894 304.328 1894 303.5C1894 302.672 1893.33 302 1892.5 302C1891.67 302 1891 302.672 1891 303.5C1891 304.328 1891.67 305 1892.5 305Z" fill="currentColor" fill-rule="nonzero" />
		<path id="Vector 274" d="M1888 305C1888.55 305 1889 304.552 1889 304C1889 303.448 1888.55 303 1888 303C1887.45 303 1887 303.448 1887 304C1887 304.552 1887.45 305 1888 305Z" fill="currentColor" fill-rule="nonzero" />
		<path id="Vector 275" d="M1888.5 310C1889.33 310 1890 309.328 1890 308.5C1890 307.672 1889.33 307 1888.5 307C1887.67 307 1887 307.672 1887 308.5C1887 309.328 1887.67 310 1888.5 310Z" fill="currentColor" fill-rule="nonzero" />
		<path id="Vector 276" d="M1883.5 306C1884.33 306 1885 305.328 1885 304.5C1885 303.672 1884.33 303 1883.5 303C1882.67 303 1882 303.672 1882 304.5C1882 305.328 1882.67 306 1883.5 306Z" fill="currentColor" fill-rule="nonzero" />
		<path id="Vector 277" d="M1900 301L1900 303L1897.95 303C1897.75 301.047 1896.98 299.195 1895.74 297.679L1897.17 296.242L1898.59 297.657L1900 296.243L1895.76 292L1894.34 293.414L1895.76 294.828L1894.32 296.265C1892.8 295.018 1890.95 294.247 1889 294.05L1889 292L1891 292L1891 290L1885 290L1885 292L1887 292L1887 294.05C1885.05 294.247 1883.2 295.018 1881.68 296.265L1880.24 294.828L1881.66 293.414L1880.24 292L1876 296.243L1877.41 297.657L1878.83 296.242L1880.27 297.68C1879.02 299.196 1878.25 301.047 1878.05 303L1876 303L1876 301L1874 301L1874 307L1876 307L1876 305L1878.05 305C1878.25 306.953 1879.02 308.805 1880.27 310.321L1878.83 311.758L1877.41 310.343L1876 311.757L1880.24 316L1881.66 314.586L1880.24 313.172L1881.68 311.735C1883.2 312.982 1885.05 313.753 1887 313.95L1887 316L1885 316L1885 318L1891 318L1891 316L1889 316L1889 313.95C1890.95 313.753 1892.8 312.982 1894.32 311.735L1895.76 313.172L1894.34 314.586L1895.76 316L1900 311.757L1898.59 310.343L1897.17 311.758L1895.74 310.321C1896.98 308.805 1897.75 306.953 1897.95 305L1900 305L1900 307L1902 307L1902 301L1900 301ZM1888 312C1886.42 312 1884.87 311.531 1883.56 310.652C1882.24 309.773 1881.21 308.523 1880.61 307.061C1880 305.6 1879.85 303.991 1880.15 302.439C1880.46 300.887 1881.22 299.462 1882.34 298.343C1883.46 297.224 1884.89 296.462 1886.44 296.154C1887.99 295.845 1889.6 296.003 1891.06 296.609C1892.52 297.214 1893.77 298.24 1894.65 299.555C1895.53 300.871 1896 302.418 1896 304C1896 306.121 1895.15 308.154 1893.65 309.654C1892.15 311.154 1890.12 311.997 1888 312Z" fill="currentColor" fill-rule="nonzero" />
  </g>
</svg>

