<svg viewBox="0 0 32 32" xmlns="http://www.w3.org/2000/svg" fill="none">
  <g transform="translate(-1944.000122 -288)">
<path id="Vector 278" d="M1960 311C1958.62 311 1957.26 310.59 1956.11 309.82C1954.96 309.051 1954.06 307.958 1953.53 306.679C1953 305.4 1952.86 303.992 1953.13 302.634C1953.4 301.276 1954.07 300.029 1955.05 299.05C1956.03 298.071 1957.28 297.405 1958.63 297.135C1959.99 296.864 1961.4 297.003 1962.68 297.533C1963.96 298.063 1965.05 298.96 1965.82 300.111C1966.59 301.262 1967 302.616 1967 304C1967 305.856 1966.26 307.635 1964.95 308.947C1963.63 310.259 1961.86 310.997 1960 311ZM1960 299C1959.01 299 1958.04 299.293 1957.22 299.843C1956.4 300.392 1955.76 301.173 1955.38 302.087C1955 303 1954.9 304.006 1955.1 304.975C1955.29 305.945 1955.77 306.836 1956.46 307.535C1957.16 308.235 1958.05 308.711 1959.02 308.904C1959.99 309.097 1961 308.998 1961.91 308.619C1962.83 308.241 1963.61 307.6 1964.16 306.778C1964.71 305.956 1965 304.989 1965 304C1965 302.674 1964.47 301.404 1963.53 300.466C1962.6 299.529 1961.33 299.002 1960 299Z" fill="currentColor" fill-rule="nonzero" />
		<path id="Vector 279" d="M1974 294.414L1972.59 293L1969.24 296.35C1968.76 295.773 1968.23 295.242 1967.65 294.764L1971 291.414L1969.59 290L1965.98 293.61C1963.69 292.291 1961.04 291.762 1958.42 292.106C1955.81 292.45 1953.38 293.647 1951.51 295.512C1949.65 297.378 1948.45 299.806 1948.11 302.421C1947.76 305.036 1948.29 307.692 1949.61 309.976L1946 313.586L1947.41 315L1950.76 311.65C1951.24 312.227 1951.77 312.758 1952.35 313.236L1949 316.586L1950.41 318L1954.02 314.39C1956.31 315.709 1958.96 316.238 1961.58 315.894C1964.19 315.55 1966.62 314.353 1968.49 312.487C1970.35 310.622 1971.55 308.194 1971.89 305.579C1972.24 302.964 1971.71 300.308 1970.39 298.024L1974 294.414ZM1960 314C1958.02 314 1956.09 313.414 1954.44 312.315C1952.8 311.216 1951.52 309.654 1950.76 307.827C1950 306 1949.81 303.989 1950.19 302.049C1950.58 300.109 1951.53 298.328 1952.93 296.929C1954.33 295.53 1956.11 294.578 1958.05 294.192C1959.99 293.806 1962 294.004 1963.83 294.761C1965.65 295.518 1967.22 296.8 1968.31 298.444C1969.41 300.089 1970 302.022 1970 304C1970 306.651 1968.94 309.193 1967.07 311.068C1965.19 312.943 1962.65 313.997 1960 314Z" fill="currentColor" fill-rule="nonzero" />
  </g>
</svg>

