<svg viewBox="0 0 32 32" xmlns="http://www.w3.org/2000/svg" fill="none">
  <g transform="translate(-0 -360)">
<path id="Vector 280" d="M10 373L22 373L22 375L10 375L10 373ZM10 378L22 378L22 380L10 380L10 378Z" fill="currentColor" fill-rule="nonzero" />
		<path id="Vector 281" d="M30 366.414L28.586 365L25.236 368.35C24.758 367.773 24.227 367.242 23.65 366.764L27 363.414L25.586 362L21.976 365.61C19.692 364.291 17.0364 363.762 14.4213 364.106C11.8061 364.45 9.37758 365.647 7.51246 367.512C5.64733 369.378 4.44989 371.806 4.10591 374.421C3.76192 377.036 4.29063 379.692 5.61 381.976L2 385.586L3.414 387L6.764 383.65C7.24199 384.227 7.77298 384.758 8.35 385.236L5 388.586L6.414 390L10.024 386.39C12.308 387.709 14.9636 388.238 17.5787 387.894C20.1939 387.55 22.6224 386.353 24.4875 384.487C26.3527 382.622 27.5501 380.194 27.8941 377.579C28.2381 374.964 27.7094 372.308 26.39 370.024L30 366.414ZM16 386C14.0222 386 12.0888 385.414 10.4443 384.315C8.79981 383.216 7.51808 381.654 6.7612 379.827C6.00433 378 5.8063 375.989 6.19215 374.049C6.578 372.109 7.53041 370.328 8.92893 368.929C10.3275 367.53 12.1093 366.578 14.0491 366.192C15.9889 365.806 17.9996 366.004 19.8268 366.761C21.6541 367.518 23.2159 368.8 24.3147 370.444C25.4135 372.089 26 374.022 26 376C25.9974 378.651 24.9429 381.193 23.0681 383.068C21.1934 384.943 18.6514 385.997 16 386Z" fill="currentColor" fill-rule="nonzero" />
  </g>
</svg>

