<svg viewBox="0 0 32 32" xmlns="http://www.w3.org/2000/svg" fill="none">
  <g transform="translate(-72 -360)">
<path id="Vector 282" d="M98 390L96 390L96 387L92 387C90.6744 386.998 89.4036 386.471 88.4662 385.534C87.5289 384.596 87.0016 383.326 87 382L87 380.72L84.684 379.949C84.542 379.902 84.4124 379.823 84.3049 379.719C84.1973 379.615 84.1145 379.488 84.0626 379.347C84.0107 379.207 83.991 379.056 84.0049 378.908C84.0188 378.758 84.066 378.614 84.143 378.486L87 373.723L87 371C87.0026 368.614 87.9517 366.326 89.639 364.639C91.3262 362.952 93.6139 362.003 96 362L101 362L101 364L96 364C94.1443 364.003 92.3654 364.741 91.0532 366.053C89.741 367.365 89.0026 369.144 89 371L89 374C88.9998 374.181 88.9503 374.359 88.857 374.514L86.5 378.446L88.317 379.051C88.516 379.117 88.6891 379.245 88.8116 379.415C88.9342 379.586 89.0001 379.79 89 380L89 382C89.0008 382.795 89.3171 383.558 89.8796 384.12C90.442 384.683 91.2046 384.999 92 385L97 385C97.2652 385 97.5196 385.105 97.7071 385.293C97.8946 385.48 98 385.735 98 386L98 390Z" fill="currentColor" fill-rule="nonzero" />
		<path id="Vector 283" d="M81 384C81.5523 384 82 383.552 82 383C82 382.448 81.5523 382 81 382C80.4477 382 80 382.448 80 383C80 383.552 80.4477 384 81 384Z" fill="currentColor" fill-rule="nonzero" />
		<path id="Vector 284" d="M78 381C78.5523 381 79 380.552 79 380C79 379.448 78.5523 379 78 379C77.4477 379 77 379.448 77 380C77 380.552 77.4477 381 78 381Z" fill="currentColor" fill-rule="nonzero" />
		<path id="Vector 285" d="M78 387C78.5523 387 79 386.552 79 386C79 385.448 78.5523 385 78 385C77.4477 385 77 385.448 77 386C77 386.552 77.4477 387 78 387Z" fill="currentColor" fill-rule="nonzero" />
		<path id="Vector 286" d="M75 378C75.5523 378 76 377.552 76 377C76 376.448 75.5523 376 75 376C74.4477 376 74 376.448 74 377C74 377.552 74.4477 378 75 378Z" fill="currentColor" fill-rule="nonzero" />
		<path id="Vector 287" d="M75 390C75.5523 390 76 389.552 76 389C76 388.448 75.5523 388 75 388C74.4477 388 74 388.448 74 389C74 389.552 74.4477 390 75 390Z" fill="currentColor" fill-rule="nonzero" />
		<path id="Vector 288" d="M75 384C75.5523 384 76 383.552 76 383C76 382.448 75.5523 382 75 382C74.4477 382 74 382.448 74 383C74 383.552 74.4477 384 75 384Z" fill="currentColor" fill-rule="nonzero" />
		<path id="Vector 289" d="M91 372L95 372L95 374L91 374L91 372Z" fill="currentColor" fill-rule="nonzero" />
  </g>
</svg>

