<svg viewBox="0 0 32 32" xmlns="http://www.w3.org/2000/svg" fill="none">
  <g transform="translate(-144 -360)">
<path id="Vector 290" d="M173 381.3L173 380C173 377.8 171.2 376 169 376C166.8 376 165 377.8 165 380L165 381.3C164.4 381.6 164 382.3 164 383L164 388C164 389.1 164.9 390 166 390L172 390C173.1 390 174 389.1 174 388L174 383C174 382.3 173.6 381.6 173 381.3ZM169 378C170.1 378 171 378.9 171 380L171 381L167 381L167 380C167 378.9 167.9 378 169 378ZM172 388L166 388L166 383L172 383L172 388ZM162 390L147 390C146.7 390 146.3 389.8 146.1 389.5C145.9 389.2 145.9 388.8 146.1 388.5L159.1 362.6C159.4 361.9 160.5 361.9 160.9 362.6L166.4 373.6L164.6 374.5L160 365.2L148.6 388L162 388L162 390Z" fill="currentColor" fill-rule="nonzero" />
  </g>
</svg>

