<svg viewBox="0 0 32 32" xmlns="http://www.w3.org/2000/svg" fill="none">
  <g transform="translate(-216 -360)">
<path id="Vector 291" d="M240 390L224 390C223.47 390 222.961 389.789 222.586 389.414C222.211 389.039 222 388.53 222 388L222 364C222 363.47 222.211 362.961 222.586 362.586C222.961 362.211 223.47 362 224 362L240 362C240.53 362 241.039 362.211 241.414 362.586C241.789 362.961 242 363.47 242 364L242 380.618L237 378.118L232 380.618L232 364L224 364L224 388L240 388L240 384L242 384L242 388C241.999 388.53 241.788 389.038 241.413 389.413C241.038 389.788 240.53 389.999 240 390ZM237 375.882L240 377.382L240 364L234 364L234 377.382L237 375.882Z" fill="currentColor" fill-rule="nonzero" />
  </g>
</svg>

