<svg viewBox="0 0 32 32" xmlns="http://www.w3.org/2000/svg" fill="none">
  <g transform="translate(-288 -360)">
<path id="Vector 292" d="M296 378C297.105 378 298 377.105 298 376C298 374.895 297.105 374 296 374C294.895 374 294 374.895 294 376C294 377.105 294.895 378 296 378Z" fill="currentColor" fill-rule="nonzero" />
		<path id="Vector 293" d="M302 370C303.105 370 304 369.105 304 368C304 366.895 303.105 366 302 366C300.895 366 300 366.895 300 368C300 369.105 300.895 370 302 370Z" fill="currentColor" fill-rule="nonzero" />
		<path id="Vector 294" d="M316 374C317.105 374 318 373.105 318 372C318 370.895 317.105 370 316 370C314.895 370 314 370.895 314 372C314 373.105 314.895 374 316 374Z" fill="currentColor" fill-rule="nonzero" />
		<path id="Vector 295" d="M309 380C310.105 380 311 379.105 311 378C311 376.895 310.105 376 309 376C307.895 376 307 376.895 307 378C307 379.105 307.895 380 309 380Z" fill="currentColor" fill-rule="nonzero" />
		<path id="Vector 296" d="M318 363.414L316.586 362L292 386.586L292 362L290 362L290 388C290 388.53 290.211 389.039 290.586 389.414C290.961 389.789 291.47 390 292 390L318 390L318 388L293.414 388L318 363.414Z" fill="currentColor" fill-rule="nonzero" />
  </g>
</svg>

