<svg viewBox="0 0 32 32" xmlns="http://www.w3.org/2000/svg" fill="none">
  <g transform="translate(-360 -360)">
<path id="Vector 297" d="M370 383L364 383C362.897 383 362 382.103 362 381L362 371C362 369.897 362.897 369 364 369L370 369L370 371L364 371L364 381L370 381L370 383ZM380 375L377 375L377 372L375 372L375 375L372 375L372 377L375 377L375 380L377 380L377 377L380 377L380 375ZM390 375L387 375L387 372L385 372L385 375L382 375L382 377L385 377L385 380L387 380L387 377L390 377L390 375Z" fill="currentColor" fill-rule="nonzero" />
  </g>
</svg>

