<svg viewBox="0 0 32 32" xmlns="http://www.w3.org/2000/svg" fill="none">
  <g transform="translate(-432 -360)">
<path id="Vector 298" d="M439 368L439 371L437 371L437 368L434 368L434 366L437 366L437 363L439 363L439 366L442 366L442 368L439 368ZM454.42 386.01L460.45 379.98C462.51 377.92 462.51 374.59 460.45 372.54C458.39 370.49 455.06 370.48 453.01 372.54L454.42 373.95C455.034 373.34 455.864 372.997 456.73 372.997C457.596 372.997 458.426 373.34 459.04 373.95C459.65 374.564 459.993 375.394 459.993 376.26C459.993 377.126 459.65 377.956 459.04 378.57L453.01 384.6C452.396 385.21 451.566 385.553 450.7 385.553C449.834 385.553 449.004 385.21 448.39 384.6C447.78 383.986 447.437 383.156 447.437 382.29C447.437 381.424 447.78 380.594 448.39 379.98L446.98 378.57C445.99 379.56 445.44 380.9 445.44 382.3C445.44 385.21 447.8 387.56 450.71 387.56C452.11 387.56 453.45 387.01 454.43 386.02L454.42 386.01ZM445.99 388.46L444.58 387.05C443.968 387.656 443.141 387.996 442.28 387.996C441.419 387.996 440.592 387.656 439.98 387.05C439.365 386.44 439.018 385.61 439.014 384.744C439.011 383.878 439.351 383.046 439.96 382.43L445.99 376.4L446.01 376.38C447.29 375.11 449.36 375.12 450.63 376.4C451.9 377.68 451.89 379.75 450.61 381.02L452.02 382.43L452.05 382.4C452.537 381.91 452.922 381.328 453.184 380.689C453.446 380.049 453.579 379.365 453.576 378.674C453.573 377.983 453.435 377.299 453.168 376.662C452.901 376.025 452.511 375.447 452.02 374.96C451.53 374.473 450.948 374.088 450.309 373.826C449.669 373.564 448.985 373.431 448.294 373.434C447.603 373.436 446.919 373.575 446.282 373.842C445.645 374.109 445.066 374.499 444.58 374.99L438.55 381.02C437.561 382.006 437.003 383.344 437 384.74C437 387.65 439.37 390 442.27 390C443.67 390 445.01 389.45 445.99 388.46Z" fill="currentColor" fill-rule="nonzero" />
  </g>
</svg>

