<svg viewBox="0 0 32 32" xmlns="http://www.w3.org/2000/svg" fill="none">
  <g transform="translate(-504 -360)">
<path id="Vector 299" d="M520 382C520.791 382 521.565 381.765 522.222 381.326C522.88 380.886 523.393 380.262 523.695 379.531C523.998 378.8 524.078 377.996 523.923 377.22C523.769 376.444 523.388 375.731 522.828 375.172C522.269 374.612 521.556 374.231 520.78 374.077C520.004 373.922 519.2 374.002 518.469 374.305C517.738 374.607 517.114 375.12 516.674 375.778C516.235 376.435 516 377.209 516 378C516 379.061 516.421 380.078 517.172 380.828C517.922 381.579 518.939 382 520 382ZM520 376C520.396 376 520.782 376.117 521.111 376.337C521.44 376.557 521.696 376.869 521.848 377.235C521.999 377.6 522.039 378.002 521.962 378.39C521.884 378.778 521.694 379.134 521.414 379.414C521.135 379.694 520.778 379.884 520.39 379.962C520.002 380.039 519.6 379.999 519.235 379.848C518.869 379.696 518.557 379.44 518.337 379.111C518.117 378.782 518 378.396 518 378C518 377.47 518.211 376.961 518.586 376.586C518.961 376.211 519.47 376 520 376ZM518 366L522 366L522 368L518 368L518 366Z" fill="currentColor" fill-rule="nonzero" />
		<path id="Vector 300" d="M528 362L512 362C511.47 362 510.961 362.211 510.586 362.586C510.211 362.961 510 363.47 510 364L510 388C510 388.53 510.211 389.039 510.586 389.414C510.961 389.789 511.47 390 512 390L528 390C528.53 389.999 529.038 389.788 529.413 389.413C529.788 389.038 529.999 388.53 530 388L530 364C530 363.47 529.789 362.961 529.414 362.586C529.039 362.211 528.53 362 528 362ZM524 388L516 388L516 386C516 385.735 516.105 385.48 516.293 385.293C516.48 385.105 516.735 385 517 385L523 385C523.265 385 523.52 385.105 523.707 385.293C523.895 385.48 524 385.735 524 386L524 388ZM526 388L526 386C526 385.204 525.684 384.441 525.121 383.879C524.559 383.316 523.796 383 523 383L517 383C516.204 383 515.441 383.316 514.879 383.879C514.316 384.441 514 385.204 514 386L514 388L512 388L512 364L528 364L528 388L526 388Z" fill="currentColor" fill-rule="nonzero" />
  </g>
</svg>

