<svg viewBox="0 0 32 32" xmlns="http://www.w3.org/2000/svg" fill="none">
  <g transform="translate(-648 -360)">
<path id="Vector 303" d="M674 373C675.06 372.999 676.077 372.577 676.827 371.827C677.577 371.077 677.999 370.06 678 369L678 366L675 366C673.976 366.002 672.992 366.398 672.253 367.106C671.735 366.166 670.975 365.382 670.051 364.835C669.127 364.289 668.073 364.001 667 364L664 364L664 367C664.002 368.591 664.635 370.116 665.759 371.241C666.884 372.365 668.409 372.998 670 373L671 373L671 386L659 386L659 381L660 381C661.06 380.999 662.077 380.577 662.827 379.827C663.577 379.077 663.999 378.06 664 377L664 374L661 374C659.976 374.002 658.992 374.398 658.253 375.106C657.735 374.166 656.975 373.382 656.051 372.835C655.127 372.289 654.073 372 653 372L650 372L650 375C650.002 376.591 650.635 378.116 651.759 379.241C652.884 380.365 654.409 380.998 656 381L657 381L657 386L650 386L650 388L678 388L678 386L673 386L673 373L674 373ZM673 370C673 369.47 673.211 368.961 673.586 368.586C673.961 368.211 674.47 368 675 368L676 368L676 369C676 369.53 675.789 370.039 675.414 370.414C675.039 370.789 674.53 371 674 371L673 371L673 370ZM659 378C659 377.47 659.211 376.961 659.586 376.586C659.961 376.211 660.47 376 661 376L662 376L662 377C662 377.53 661.789 378.039 661.414 378.414C661.039 378.789 660.53 379 660 379L659 379L659 378ZM657 379L656 379C654.94 378.999 653.923 378.577 653.173 377.827C652.423 377.077 652.001 376.06 652 375L652 374L653 374C654.06 374.001 655.077 374.423 655.827 375.173C656.577 375.923 656.999 376.94 657 378L657 379ZM671 371L670 371C668.94 370.999 667.923 370.577 667.173 369.827C666.423 369.077 666.001 368.06 666 367L666 366L667 366C668.06 366.001 669.077 366.423 669.827 367.173C670.577 367.923 670.999 368.94 671 370L671 371Z" fill="currentColor" fill-rule="nonzero" />
  </g>
</svg>

