<svg viewBox="0 0 32 32" xmlns="http://www.w3.org/2000/svg" fill="none">
  <g transform="translate(-576 -360)">
<path id="Vector 301" d="M601 380L599 380L599 369L588 369L588 367L599 367C599.53 367 600.039 367.211 600.414 367.586C600.789 367.961 601 368.47 601 369L601 380Z" fill="currentColor" fill-rule="nonzero" />
		<path id="Vector 302" d="M585 383L585 362L583 362L583 367L578 367L578 369L583 369L583 383C583 383.53 583.211 384.039 583.586 384.414C583.961 384.789 584.47 385 585 385L599 385L599 390L601 390L601 385L606 385L606 383L585 383Z" fill="currentColor" fill-rule="nonzero" />
  </g>
</svg>

