<svg viewBox="0 0 32 32" xmlns="http://www.w3.org/2000/svg" fill="none">
  <g transform="translate(-720 -360)">
<path id="Vector 304" d="M722 388L730 388L730 390L722 390L722 388ZM737 389C736.85 389 736.702 388.966 736.567 388.901C736.432 388.836 736.314 388.742 736.22 388.625L732.52 384L722 384L722 382L733 382C733.15 382 733.298 382.034 733.433 382.099C733.568 382.164 733.686 382.258 733.78 382.375L736.927 386.307L742.168 378.445C742.257 378.312 742.376 378.202 742.516 378.125C742.656 378.047 742.812 378.005 742.972 378C743.132 377.996 743.291 378.03 743.435 378.099C743.579 378.169 743.704 378.272 743.8 378.4L746.5 382L750 382L750 384L746 384C745.845 384 745.692 383.964 745.553 383.894C745.414 383.825 745.293 383.724 745.2 383.6L743.048 380.73L737.832 388.555C737.745 388.686 737.628 388.794 737.491 388.871C737.354 388.949 737.2 388.992 737.043 388.999L737 389ZM731 376L731 371L732 371C733.06 370.999 734.077 370.577 734.827 369.827C735.577 369.077 735.999 368.06 736 367L736 364L733 364C731.976 364.002 730.992 364.398 730.253 365.107C729.735 364.167 728.975 363.382 728.051 362.836C727.127 362.289 726.073 362.001 725 362L722 362L722 365C722.002 366.591 722.635 368.116 723.759 369.241C724.884 370.365 726.409 370.998 728 371L729 371L729 376L722 376L722 378L736 378L736 376L731 376ZM733 366L734 366L734 367C734 367.53 733.789 368.039 733.414 368.414C733.039 368.789 732.53 369 732 369L731 369L731 368C731 367.47 731.211 366.961 731.586 366.586C731.961 366.211 732.47 366 733 366ZM728 369C726.94 368.999 725.923 368.577 725.173 367.827C724.423 367.077 724.001 366.06 724 365L724 364L725 364C726.06 364.001 727.077 364.423 727.827 365.173C728.577 365.923 728.999 366.94 729 368L729 369L728 369Z" fill="currentColor" fill-rule="nonzero" />
  </g>
</svg>

