<svg viewBox="0 0 32 32" xmlns="http://www.w3.org/2000/svg" fill="none">
  <g transform="translate(-792 -360)">
<path id="Vector 305" d="M818.586 366.586C818.211 366.211 817.702 366 817.172 366L809 366L809 362L807 362L807 372L798.828 372C798.298 372 797.789 372.211 797.414 372.586L794 376L797.414 379.414C797.789 379.789 798.298 380 798.828 380L807 380L807 390L809 390L809 374L817.172 374C817.702 374 818.211 373.789 818.586 373.414L822 370L818.586 366.586ZM798.828 378L796.828 376L798.828 374L807 374L807 378L798.828 378ZM817.172 372L809 372L809 368L817.172 368L819.172 370L817.172 372Z" fill="currentColor" fill-rule="nonzero" />
  </g>
</svg>

