<svg viewBox="0 0 32 32" xmlns="http://www.w3.org/2000/svg" fill="none">
  <g transform="translate(-864 -360)">
<path id="Vector 306" d="M892 362L874 362C873.47 362 872.961 362.211 872.586 362.586C872.211 362.961 872 363.47 872 364L872 367L868 367C867.47 367 866.961 367.211 866.586 367.586C866.211 367.961 866 368.47 866 369L866 388C866 388.53 866.211 389.039 866.586 389.414C866.961 389.789 867.47 390 868 390L892 390C892.53 390 893.039 389.789 893.414 389.414C893.789 389.039 894 388.53 894 388L894 364C894 363.47 893.789 362.961 893.414 362.586C893.039 362.211 892.53 362 892 362ZM874 364L892 364L892 367L874 367L874 364ZM892 374L884 374L884 369L892 369L892 374ZM874 381L874 376L882 376L882 381L874 381ZM882 383L882 388L874 388L874 383L882 383ZM872 381L868 381L868 376L872 376L872 381ZM882 369L882 374L874 374L874 369L882 369ZM884 376L892 376L892 381L884 381L884 376ZM872 369L872 374L868 374L868 369L872 369ZM868 383L872 383L872 388L868 388L868 383ZM884 388L884 383L892 383L892 388L884 388Z" fill="currentColor" fill-rule="nonzero" />
  </g>
</svg>

