<svg viewBox="0 0 32 32" xmlns="http://www.w3.org/2000/svg" fill="none">
  <g transform="translate(-936 -360)">
<path id="Vector 307" d="M952.832 379.555L951.168 378.445L953.465 375L956 375L956 370L948 370L948 375L950 375L950 377L948 377C947.47 377 946.961 376.789 946.586 376.414C946.211 376.039 946 375.53 946 375L946 370C946 369.47 946.211 368.961 946.586 368.586C946.961 368.211 947.47 368 948 368L956 368C956.53 368 957.039 368.211 957.414 368.586C957.789 368.961 958 369.47 958 370L958 375C958 375.53 957.789 376.039 957.414 376.414C957.039 376.789 956.53 377 956 377L954.535 377L952.832 379.555Z" fill="currentColor" fill-rule="nonzero" />
		<path id="Vector 308" d="M952 390L943.564 380.051C943.447 379.902 943.331 379.751 943.216 379.6C941.776 377.701 940.997 375.383 941 373C941 370.083 942.159 367.285 944.222 365.222C946.285 363.159 949.083 362 952 362C954.917 362 957.715 363.159 959.778 365.222C961.841 367.285 963 370.083 963 373C963.002 375.382 962.224 377.699 960.785 379.597L960.784 379.6C960.784 379.6 960.484 379.994 960.439 380.047L952 390ZM944.813 378.395C944.813 378.395 945.046 378.703 945.099 378.769L952 386.908L958.91 378.758C958.954 378.703 959.188 378.393 959.189 378.392C960.366 376.841 961.002 374.947 961 373C961 370.613 960.052 368.324 958.364 366.636C956.676 364.948 954.387 364 952 364C949.613 364 947.324 364.948 945.636 366.636C943.948 368.324 943 370.613 943 373C942.998 374.948 943.634 376.844 944.813 378.395Z" fill="currentColor" fill-rule="nonzero" />
  </g>
</svg>

