<svg viewBox="0 0 32 32" xmlns="http://www.w3.org/2000/svg" fill="none">
  <g transform="translate(-1008 -360)">
<path id="Vector 309" d="M1024 362C1021.08 362.003 1018.29 363.163 1016.23 365.226C1014.16 367.288 1013 370.084 1013 373C1013 375.383 1013.78 377.701 1015.22 379.6C1015.22 379.6 1015.52 379.995 1015.57 380.052L1024 390L1032.44 380.047C1032.48 379.994 1032.78 379.6 1032.78 379.6L1032.79 379.597C1034.22 377.699 1035 375.382 1035 373C1035 370.084 1033.84 367.288 1031.77 365.226C1029.71 363.163 1026.92 362.003 1024 362ZM1030 375C1030 375.53 1029.79 376.039 1029.41 376.414C1029.04 376.789 1028.53 377 1028 377L1026.54 377L1024.83 379.555L1023.17 378.445L1025.46 375L1028 375L1028 370L1020 370L1020 375L1022 375L1022 377L1020 377C1019.47 377 1018.96 376.789 1018.59 376.414C1018.21 376.039 1018 375.53 1018 375L1018 370C1018 369.47 1018.21 368.961 1018.59 368.586C1018.96 368.211 1019.47 368 1020 368L1028 368C1028.53 368 1029.04 368.211 1029.41 368.586C1029.79 368.961 1030 369.47 1030 370L1030 375Z" fill="currentColor" fill-rule="nonzero" />
  </g>
</svg>

