<svg viewBox="0 0 32 32" xmlns="http://www.w3.org/2000/svg" fill="none">
  <g transform="translate(-1080 -360)">
<path id="Vector 310" d="M1108 369L1106 382L1104 369L1102 369L1104.52 383L1107.48 383L1110 369L1108 369ZM1098 383L1092 383L1092 381L1098 381L1098 377L1094 377C1093.47 377 1092.96 376.789 1092.59 376.414C1092.21 376.039 1092 375.53 1092 375L1092 371C1092 370.47 1092.21 369.961 1092.59 369.586C1092.96 369.211 1093.47 369 1094 369L1100 369L1100 371L1094 371L1094 375L1098 375C1098.53 375 1099.04 375.211 1099.41 375.586C1099.79 375.961 1100 376.47 1100 377L1100 381C1100 381.53 1099.79 382.039 1099.41 382.414C1099.04 382.789 1098.53 383 1098 383ZM1090 383L1084 383C1083.47 383 1082.96 382.789 1082.59 382.414C1082.21 382.039 1082 381.53 1082 381L1082 371C1082 370.47 1082.21 369.961 1082.59 369.586C1082.96 369.211 1083.47 369 1084 369L1090 369L1090 371L1084 371L1084 381L1090 381L1090 383Z" fill="currentColor" fill-rule="nonzero" />
  </g>
</svg>

