<svg viewBox="0 0 32 32" xmlns="http://www.w3.org/2000/svg" fill="none">
  <g transform="translate(-1152 -360)">
<path id="Vector 311" d="M1180.5 368.136L1168.5 361.136C1168.35 361.047 1168.18 361 1168 361C1167.82 361 1167.65 361.047 1167.5 361.136L1155.5 368.136C1155.34 368.224 1155.22 368.35 1155.13 368.502C1155.05 368.654 1155 368.825 1155 369L1155 383C1155 383.175 1155.05 383.347 1155.13 383.498C1155.22 383.65 1155.34 383.776 1155.5 383.864L1167.5 390.864C1167.65 390.953 1167.82 391 1168 391C1168.18 391 1168.35 390.953 1168.5 390.864L1180.5 383.864C1180.66 383.776 1180.78 383.65 1180.87 383.498C1180.95 383.347 1181 383.175 1181 383L1181 369C1181 368.825 1180.95 368.654 1180.87 368.502C1180.78 368.35 1180.66 368.224 1180.5 368.136ZM1168 363.158L1178.02 369L1168 374.842L1157.98 369L1168 363.158ZM1157 370.74L1167 376.573L1167 388.26L1157 382.426L1157 370.74ZM1169 388.26L1169 376.574L1179 370.741L1179 382.426L1169 388.26Z" fill="currentColor" fill-rule="nonzero" />
  </g>
</svg>

