<svg viewBox="0 0 32 32" xmlns="http://www.w3.org/2000/svg" fill="none">
  <g transform="translate(-1296 -360)">
<path id="Vector 314" d="M1312 378C1313.1 378 1314 377.105 1314 376C1314 374.895 1313.1 374 1312 374C1310.9 374 1310 374.895 1310 376C1310 377.105 1310.9 378 1312 378Z" fill="currentColor" fill-rule="nonzero" />
		<path id="Vector 315" d="M1319.78 375.479C1319.16 373.905 1318.09 372.547 1316.71 371.573C1315.33 370.599 1313.69 370.052 1312 370C1310.31 370.052 1308.67 370.599 1307.29 371.573C1305.91 372.547 1304.84 373.905 1304.22 375.479L1304 376L1304.22 376.522C1304.84 378.096 1305.91 379.454 1307.29 380.428C1308.67 381.401 1310.31 381.948 1312 382C1313.69 381.948 1315.33 381.401 1316.71 380.428C1318.09 379.454 1319.16 378.096 1319.78 376.522L1320 376L1319.78 375.479ZM1312 380C1311.21 380 1310.44 379.765 1309.78 379.326C1309.12 378.886 1308.61 378.262 1308.3 377.531C1308 376.8 1307.92 375.996 1308.08 375.22C1308.23 374.444 1308.61 373.731 1309.17 373.172C1309.73 372.612 1310.44 372.231 1311.22 372.077C1312 371.922 1312.8 372.002 1313.53 372.305C1314.26 372.607 1314.89 373.12 1315.33 373.778C1315.77 374.435 1316 375.209 1316 376C1316 377.06 1315.58 378.077 1314.83 378.827C1314.08 379.577 1313.06 379.999 1312 380Z" fill="currentColor" fill-rule="nonzero" />
		<path id="Vector 316" d="M1324.5 368.136L1312.5 361.136C1312.35 361.047 1312.18 361 1312 361C1311.82 361 1311.65 361.047 1311.5 361.136L1299.5 368.136C1299.34 368.224 1299.22 368.35 1299.13 368.502C1299.05 368.654 1299 368.825 1299 369L1299 383C1299 383.175 1299.05 383.347 1299.13 383.498C1299.22 383.65 1299.34 383.776 1299.5 383.864L1311.5 390.864C1311.65 390.953 1311.82 391 1312 391C1312.18 391 1312.35 390.953 1312.5 390.864L1324.5 383.864C1324.66 383.776 1324.78 383.65 1324.87 383.498C1324.95 383.347 1325 383.175 1325 383L1325 369C1325 368.825 1324.95 368.654 1324.87 368.502C1324.78 368.35 1324.66 368.224 1324.5 368.136ZM1323 382.426L1312 388.842L1301 382.426L1301 369.574L1312 363.158L1323 369.574L1323 382.426Z" fill="currentColor" fill-rule="nonzero" />
  </g>
</svg>

