<svg viewBox="0 0 32 32" xmlns="http://www.w3.org/2000/svg" fill="none">
  <g transform="translate(-1368.000122 -360)">
<path id="Vector 317" d="M1389.4 375.643C1389.91 375.179 1390.31 374.615 1390.58 373.988C1390.86 373.362 1391 372.685 1391 372L1391 371C1391 369.674 1390.47 368.404 1389.53 367.466C1388.6 366.529 1387.33 366.002 1386 366L1385 366L1385 363L1383 363L1383 366L1378 366L1378 386L1383 386L1383 389L1385 389L1385 386L1387 386C1388.33 385.998 1389.6 385.471 1390.53 384.534C1391.47 383.596 1392 382.326 1392 381L1392 380C1392 379.108 1391.75 378.232 1391.3 377.466C1390.84 376.699 1390.19 376.07 1389.4 375.643ZM1380 368L1386 368C1386.8 368.001 1387.56 368.317 1388.12 368.88C1388.68 369.442 1389 370.205 1389 371L1389 372C1389 372.795 1388.68 373.558 1388.12 374.12C1387.56 374.683 1386.8 374.999 1386 375L1380 375L1380 368ZM1390 381C1390 381.795 1389.68 382.558 1389.12 383.12C1388.56 383.683 1387.8 383.999 1387 384L1380 384L1380 377L1387 377C1387.8 377.001 1388.56 377.317 1389.12 377.88C1389.68 378.442 1390 379.205 1390 380L1390 381Z" fill="currentColor" fill-rule="nonzero" />
  </g>
</svg>

