<svg viewBox="0 0 32 32" xmlns="http://www.w3.org/2000/svg" fill="none">
  <g transform="translate(-1224 -360)">
<path id="Vector 312" d="M1245 372L1245 370L1241 370L1241 367L1239 367L1239 370L1237 370C1236.47 370 1235.96 370.211 1235.59 370.586C1235.21 370.961 1235 371.47 1235 372L1235 375C1235 375.53 1235.21 376.039 1235.59 376.414C1235.96 376.789 1236.47 377 1237 377L1243 377L1243 380L1235 380L1235 382L1239 382L1239 385L1241 385L1241 382L1243 382C1243.53 382 1244.04 381.789 1244.41 381.414C1244.79 381.039 1245 380.53 1245 380L1245 377C1245 376.47 1244.79 375.961 1244.41 375.586C1244.04 375.211 1243.53 375 1243 375L1237 375L1237 372L1245 372Z" fill="currentColor" fill-rule="nonzero" />
		<path id="Vector 313" d="M1240 364C1242.37 364 1244.69 364.704 1246.67 366.022C1248.64 367.341 1250.18 369.215 1251.09 371.408C1251.99 373.6 1252.23 376.013 1251.77 378.341C1251.31 380.669 1250.16 382.807 1248.49 384.485C1246.81 386.164 1244.67 387.306 1242.34 387.769C1240.01 388.232 1237.6 387.995 1235.41 387.087C1233.22 386.178 1231.34 384.64 1230.02 382.667C1228.7 380.694 1228 378.373 1228 376C1228.01 372.82 1229.28 369.773 1231.52 367.525C1233.77 365.276 1236.82 364.009 1240 364ZM1240 362C1237.23 362 1234.52 362.821 1232.22 364.359C1229.92 365.898 1228.13 368.084 1227.07 370.642C1226.01 373.201 1225.73 376.016 1226.27 378.731C1226.81 381.447 1228.14 383.942 1230.1 385.9C1232.06 387.857 1234.55 389.191 1237.27 389.731C1239.98 390.271 1242.8 389.994 1245.36 388.934C1247.92 387.875 1250.1 386.08 1251.64 383.778C1253.18 381.476 1254 378.769 1254 376C1253.99 372.29 1252.51 368.735 1249.89 366.112C1247.26 363.489 1243.71 362.011 1240 362Z" fill="currentColor" fill-rule="nonzero" />
  </g>
</svg>

