<svg viewBox="0 0 32 32" xmlns="http://www.w3.org/2000/svg" fill="none">
  <g transform="translate(-1512.000122 -360)">
<path id="Vector 319" d="M1517 384C1516.2 384 1515.44 384.316 1514.88 384.879C1514.32 385.441 1514 386.204 1514 387C1514 387.796 1514.32 388.559 1514.88 389.121C1515.44 389.684 1516.2 390 1517 390C1517.8 390 1518.56 389.684 1519.12 389.121C1519.68 388.559 1520 387.796 1520 387C1520 386.204 1519.68 385.441 1519.12 384.879C1518.56 384.316 1517.8 384 1517 384ZM1517 388C1516.73 388 1516.48 387.895 1516.29 387.707C1516.11 387.52 1516 387.265 1516 387C1516 386.735 1516.11 386.48 1516.29 386.293C1516.48 386.105 1516.73 386 1517 386C1517.27 386 1517.52 386.105 1517.71 386.293C1517.89 386.48 1518 386.735 1518 387C1518 387.265 1517.89 387.52 1517.71 387.707C1517.52 387.895 1517.27 388 1517 388ZM1528 384C1527.2 384 1526.44 384.316 1525.88 384.879C1525.32 385.441 1525 386.204 1525 387C1525 387.796 1525.32 388.559 1525.88 389.121C1526.44 389.684 1527.2 390 1528 390C1528.8 390 1529.56 389.684 1530.12 389.121C1530.68 388.559 1531 387.796 1531 387C1531 386.204 1530.68 385.441 1530.12 384.879C1529.56 384.316 1528.8 384 1528 384ZM1528 388C1527.73 388 1527.48 387.895 1527.29 387.707C1527.11 387.52 1527 387.265 1527 387C1527 386.735 1527.11 386.48 1527.29 386.293C1527.48 386.105 1527.73 386 1528 386C1528.27 386 1528.52 386.105 1528.71 386.293C1528.89 386.48 1529 386.735 1529 387C1529 387.265 1528.89 387.52 1528.71 387.707C1528.52 387.895 1528.27 388 1528 388ZM1539 384C1538.2 384 1537.44 384.316 1536.88 384.879C1536.32 385.441 1536 386.204 1536 387C1536 387.796 1536.32 388.559 1536.88 389.121C1537.44 389.684 1538.2 390 1539 390C1539.8 390 1540.56 389.684 1541.12 389.121C1541.68 388.559 1542 387.796 1542 387C1542 386.204 1541.68 385.441 1541.12 384.879C1540.56 384.316 1539.8 384 1539 384ZM1539 388C1538.73 388 1538.48 387.895 1538.29 387.707C1538.11 387.52 1538 387.265 1538 387C1538 386.735 1538.11 386.48 1538.29 386.293C1538.48 386.105 1538.73 386 1539 386C1539.27 386 1539.52 386.105 1539.71 386.293C1539.89 386.48 1540 386.735 1540 387C1540 387.265 1539.89 387.52 1539.71 387.707C1539.52 387.895 1539.27 388 1539 388ZM1541.59 377.586L1540 379.172L1540 376C1540 372.446 1537.34 369.508 1533.9 369.064C1533.96 368.719 1534 368.364 1534 368C1534 366.409 1533.37 364.883 1532.24 363.757C1531.12 362.632 1529.59 362 1528 362C1526.41 362 1524.88 362.632 1523.76 363.757C1522.63 364.883 1522 366.409 1522 368C1522 368.364 1522.04 368.719 1522.1 369.064C1518.67 369.508 1516 372.446 1516 376L1516 379.171L1514.41 377.586L1513 379L1517 383L1521 379L1519.59 377.586L1518 379.172L1518 376C1518 373.305 1520.15 371.115 1522.82 371.018C1523.26 371.777 1523.87 372.429 1524.59 372.928C1525.31 373.428 1526.13 373.763 1527 373.91L1527 379.172L1525.41 377.586L1524 379L1528 383L1532 379L1530.59 377.586L1529 379.172L1529 373.91C1529.87 373.763 1530.69 373.428 1531.41 372.928C1532.13 372.429 1532.74 371.777 1533.18 371.018C1535.85 371.115 1538 373.305 1538 376L1538 379.171L1536.41 377.586L1535 379L1539 383L1543 379L1541.59 377.586ZM1528 372C1525.79 372 1524 370.206 1524 368C1524 365.794 1525.79 364 1528 364C1530.21 364 1532 365.794 1532 368C1532 370.206 1530.21 372 1528 372Z" fill="currentColor" fill-rule="nonzero" />
  </g>
</svg>

