<svg viewBox="0 0 32 32" xmlns="http://www.w3.org/2000/svg" fill="none">
  <g transform="translate(-1440.000122 -360)">
<path id="Vector 318" d="M1466 384L1466 388L1446 388L1446 384L1444 384L1444 388C1444 388.53 1444.21 389.039 1444.59 389.414C1444.96 389.789 1445.47 390 1446 390L1466 390C1466.53 390 1467.04 389.789 1467.41 389.414C1467.79 389.039 1468 388.53 1468 388L1468 384L1466 384ZM1466 374L1464.59 372.59L1457 380.17L1457 362L1455 362L1455 380.17L1447.41 372.59L1446 374L1456 384L1466 374Z" fill="currentColor" fill-rule="nonzero" />
  </g>
</svg>

