<svg viewBox="0 0 32 32" xmlns="http://www.w3.org/2000/svg" fill="none">
  <g transform="translate(-1872.000122 -360)">
<path id="Vector 324" d="M1891.14 388C1890.46 388.003 1889.8 387.803 1889.23 387.427C1888.67 387.051 1888.23 386.515 1887.97 385.887C1887.71 385.26 1887.64 384.569 1887.77 383.904C1887.91 383.238 1888.24 382.628 1888.72 382.15L1893.86 377C1894.01 376.874 1894.14 376.717 1894.22 376.54C1894.31 376.364 1894.36 376.171 1894.37 375.974C1894.38 375.776 1894.35 375.58 1894.27 375.396C1894.2 375.212 1894.09 375.045 1893.95 374.905C1893.82 374.766 1893.65 374.657 1893.46 374.586C1893.28 374.514 1893.08 374.482 1892.89 374.491C1892.69 374.5 1892.5 374.55 1892.32 374.637C1892.14 374.725 1891.99 374.848 1891.86 375L1885 381.85C1884.35 382.476 1883.48 382.826 1882.58 382.826C1881.67 382.826 1880.8 382.476 1880.15 381.85C1879.51 381.207 1879.15 380.337 1879.15 379.43C1879.15 378.523 1879.51 377.653 1880.15 377.01L1888.73 368.43C1888.88 368.304 1889.01 368.147 1889.09 367.97C1889.18 367.794 1889.23 367.601 1889.24 367.404C1889.25 367.206 1889.22 367.01 1889.14 366.826C1889.07 366.642 1888.96 366.475 1888.82 366.335C1888.69 366.196 1888.52 366.087 1888.33 366.016C1888.15 365.944 1887.95 365.912 1887.76 365.921C1887.56 365.93 1887.37 365.98 1887.19 366.067C1887.01 366.155 1886.86 366.278 1886.73 366.43L1878.41 374.7L1877 373.3L1885.29 365C1885.94 364.409 1886.8 364.092 1887.68 364.114C1888.56 364.136 1889.4 364.497 1890.02 365.12C1890.64 365.743 1891 366.582 1891.02 367.463C1891.04 368.344 1890.72 369.198 1890.13 369.85L1881.56 378.42C1881.3 378.686 1881.15 379.045 1881.15 379.42C1881.15 379.795 1881.3 380.154 1881.56 380.42C1881.83 380.677 1882.19 380.82 1882.56 380.82C1882.93 380.82 1883.29 380.677 1883.56 380.42L1890.42 373.56C1890.73 373.216 1891.11 372.938 1891.53 372.744C1891.95 372.551 1892.41 372.445 1892.88 372.433C1893.34 372.421 1893.8 372.504 1894.23 372.676C1894.67 372.848 1895.06 373.106 1895.39 373.434C1895.71 373.762 1895.97 374.153 1896.15 374.585C1896.32 375.016 1896.4 375.477 1896.39 375.942C1896.38 376.406 1896.28 376.863 1896.08 377.286C1895.89 377.709 1895.61 378.088 1895.27 378.4L1890.12 383.55C1889.89 383.822 1889.78 384.169 1889.79 384.524C1889.81 384.878 1889.96 385.213 1890.21 385.463C1890.46 385.714 1890.79 385.862 1891.15 385.878C1891.5 385.894 1891.85 385.777 1892.12 385.55L1896.56 381.12L1898 382.56L1893.56 387C1893.24 387.319 1892.87 387.572 1892.45 387.744C1892.04 387.916 1891.59 388.003 1891.14 388Z" fill="currentColor" fill-rule="nonzero" />
  </g>
</svg>

