<svg viewBox="0 0 32 32" xmlns="http://www.w3.org/2000/svg" fill="none">
  <g transform="translate(-1944.000122 -360)">
<path id="Vector 325" d="M1950 382L1951.41 380.586L1947.83 377L1956 377L1956 375L1947.83 375L1951.41 371.414L1950 370L1944 376L1950 382Z" fill="currentColor" fill-rule="nonzero" />
		<path id="Vector 326" d="M1960 370C1959.21 369.999 1958.43 370.153 1957.7 370.455C1956.98 370.757 1956.31 371.199 1955.76 371.757L1960 376L1955.76 380.243C1956.45 380.941 1957.31 381.455 1958.26 381.742C1959.2 382.028 1960.2 382.077 1961.17 381.885C1962.14 381.692 1963.04 381.264 1963.81 380.638C1964.57 380.012 1965.17 379.208 1965.54 378.296C1965.92 377.385 1966.07 376.394 1965.97 375.412C1965.87 374.43 1965.54 373.487 1964.99 372.667C1964.44 371.846 1963.7 371.174 1962.83 370.709C1961.96 370.244 1960.99 370 1960 370Z" fill="currentColor" fill-rule="nonzero" />
		<path id="Vector 327" d="M1960 362C1958.16 361.999 1956.34 362.361 1954.64 363.066C1952.95 363.77 1951.4 364.803 1950.11 366.105L1951.52 367.519C1953.2 365.84 1955.33 364.695 1957.66 364.231C1959.99 363.767 1962.4 364.004 1964.6 364.912C1966.79 365.82 1968.67 367.358 1969.99 369.332C1971.3 371.306 1972.01 373.626 1972.01 376C1972.01 378.374 1971.3 380.694 1969.99 382.668C1968.67 384.642 1966.79 386.18 1964.6 387.088C1962.4 387.996 1959.99 388.233 1957.66 387.768C1955.33 387.305 1953.2 386.16 1951.52 384.481L1950.11 385.895C1951.73 387.523 1953.74 388.724 1955.94 389.392C1958.14 390.06 1960.48 390.174 1962.73 389.725C1964.99 389.276 1967.1 388.276 1968.88 386.816C1970.66 385.356 1972.05 383.479 1972.93 381.352C1973.81 379.225 1974.16 376.914 1973.93 374.624C1973.71 372.333 1972.92 370.133 1971.64 368.219C1970.36 366.306 1968.63 364.737 1966.6 363.652C1964.57 362.567 1962.3 362 1960 362Z" fill="currentColor" fill-rule="nonzero" />
  </g>
</svg>

