<svg viewBox="0 0 32 32" xmlns="http://www.w3.org/2000/svg" fill="none">
  <g transform="translate(-144 -432)">
<path id="Vector 330" d="M160 434C157.231 434 154.524 434.821 152.222 436.359C149.92 437.898 148.125 440.084 147.066 442.642C146.006 445.201 145.729 448.016 146.269 450.731C146.809 453.447 148.143 455.942 150.101 457.9C152.058 459.857 154.553 461.191 157.269 461.731C159.984 462.271 162.799 461.994 165.358 460.934C167.916 459.875 170.102 458.08 171.641 455.778C173.179 453.476 174 450.769 174 448C173.996 444.288 172.519 440.73 169.895 438.105C167.27 435.481 163.712 434.004 160 434ZM148.02 448.394L149.358 448.84L151 451.303L151 452.586C151 452.851 151.105 453.105 151.293 453.293L154 456L154 458.377C152.238 457.357 150.765 455.905 149.719 454.159C148.673 452.413 148.088 450.429 148.02 448.394ZM160 460C159.135 459.998 158.273 459.902 157.428 459.715L158 458L159.805 453.488C159.865 453.337 159.888 453.174 159.871 453.013C159.854 452.852 159.798 452.697 159.708 452.562L158.297 450.445C158.206 450.308 158.082 450.196 157.937 450.118C157.792 450.041 157.63 450 157.465 450L152.535 450L151.287 448.127L153.414 446L155 446L155 448L157 448L157 445.266L160.868 438.496L159.132 437.504L158.277 439L155.535 439L154.45 437.371C155.908 436.602 157.51 436.145 159.154 436.029C160.799 435.914 162.449 436.142 164 436.7L164 440C164 440.265 164.105 440.52 164.293 440.707C164.48 440.895 164.735 441 165 441L166.465 441C166.63 441 166.792 440.959 166.937 440.882C167.082 440.804 167.206 440.692 167.297 440.555L168.174 439.239C169.317 440.304 170.241 441.581 170.894 443L166.82 443C166.589 443 166.365 443.08 166.186 443.227C166.008 443.374 165.885 443.577 165.84 443.804L165.117 448.274C165.083 448.484 165.117 448.7 165.214 448.89C165.311 449.08 165.466 449.234 165.657 449.329L169 451L169.685 455.056C168.575 456.586 167.119 457.831 165.436 458.69C163.753 459.549 161.89 459.998 160 460Z" fill="currentColor" fill-rule="nonzero" />
  </g>
</svg>

