<svg viewBox="0 0 32 32" xmlns="http://www.w3.org/2000/svg" fill="none">
  <g transform="translate(-72 -432)">
<path id="Vector 329" d="M88 434C85.2311 434 82.5243 434.821 80.222 436.359C77.9197 437.898 76.1253 440.084 75.0657 442.642C74.0061 445.201 73.7288 448.016 74.269 450.731C74.8092 453.447 76.1426 455.942 78.1005 457.9C80.0584 459.857 82.553 461.191 85.2687 461.731C87.9845 462.271 90.7994 461.994 93.3576 460.934C95.9157 459.875 98.1022 458.08 99.6406 455.778C101.179 453.476 102 450.769 102 448C101.996 444.288 100.519 440.73 97.8948 438.105C95.2702 435.481 91.7117 434.004 88 434ZM76 448C76.0015 446.098 76.4558 444.224 77.3252 442.533C78.1947 440.841 79.4543 439.381 81 438.273L81 441C81 441.265 81.1054 441.52 81.2929 441.707C81.4804 441.895 81.7348 442 82 442L85.382 442C85.5677 442 85.7496 441.948 85.9075 441.85C86.0654 441.753 86.193 441.613 86.276 441.447L87 440L91 440L91 446L85.236 446C85.0808 446 84.9278 446.036 84.789 446.106L81.553 447.724C81.3869 447.807 81.2472 447.935 81.1496 448.092C81.0519 448.25 81.0001 448.432 81 448.618L81 452.323C80.9999 452.523 81.0598 452.718 81.172 452.884C81.2841 453.05 81.4433 453.178 81.629 453.252L86 455L86.824 459.94C83.861 459.645 81.1132 458.26 79.1133 456.054C77.1134 453.848 76.0039 450.978 76 448ZM94 458.376L94 455L95.755 452.368C95.8322 452.252 95.8844 452.121 95.9082 451.984C95.9319 451.847 95.9268 451.706 95.893 451.571L95 448L95 445L99.605 445C100.275 447.536 100.089 450.222 99.0756 452.641C98.062 455.059 96.2777 457.076 94 458.376Z" fill="currentColor" fill-rule="nonzero" />
  </g>
</svg>

