<svg viewBox="0 0 32 32" xmlns="http://www.w3.org/2000/svg" fill="none">
  <g transform="translate(-360 -432)">
<path id="Vector 334" d="M377 454L379 454L379 456L377 456L377 454ZM377 450L379 450L379 452L377 452L377 450ZM374 456L377 456L377 458L374 458L374 456Z" fill="currentColor" fill-rule="nonzero" />
		<path id="Vector 335" d="M376 434C373.231 434 370.524 434.821 368.222 436.359C365.92 437.898 364.125 440.084 363.066 442.642C362.006 445.201 361.729 448.016 362.269 450.731C362.809 453.447 364.143 455.942 366.101 457.9C368.058 459.857 370.553 461.191 373.269 461.731C375.984 462.271 378.799 461.994 381.358 460.934C383.916 459.875 386.102 458.08 387.641 455.778C389.179 453.476 390 450.769 390 448C389.996 444.288 388.519 440.73 385.895 438.105C383.27 435.481 379.712 434.004 376 434ZM364.7 452L366 452L370.177 454.6C370.397 454.737 370.663 454.783 370.917 454.728C371.17 454.673 371.393 454.522 371.537 454.306L372.545 452.794C372.673 452.602 372.73 452.371 372.708 452.141C372.685 451.911 372.583 451.696 372.42 451.533L370 449.112L371 446L376.323 446C376.523 446 376.718 445.94 376.884 445.828C377.049 445.716 377.178 445.557 377.252 445.372L378.833 441.417C378.885 441.286 378.91 441.145 378.904 441.004C378.898 440.863 378.862 440.724 378.799 440.598L376.513 436.026C378.575 436.108 380.58 436.723 382.334 437.809C384.088 438.895 385.532 440.417 386.524 442.225C387.517 444.034 388.025 446.069 387.999 448.132C387.973 450.195 387.414 452.217 386.376 454L383 454C382.735 454 382.48 454.105 382.293 454.293C382.105 454.48 382 454.735 382 455L382 458.377C380.478 459.263 378.778 459.802 377.023 459.955C375.268 460.108 373.501 459.872 371.848 459.263C370.195 458.653 368.698 457.686 367.462 456.431C366.226 455.175 365.283 453.662 364.7 452Z" fill="currentColor" fill-rule="nonzero" />
  </g>
</svg>

