<svg viewBox="0 0 32 32" xmlns="http://www.w3.org/2000/svg" fill="none">
  <g transform="translate(-0 -432)">
<path id="Vector 328" d="M16 434C13.2311 434 10.5243 434.821 8.222 436.359C5.91972 437.898 4.1253 440.084 3.06568 442.642C2.00605 445.201 1.7288 448.016 2.26899 450.731C2.80919 453.447 4.14256 455.942 6.10049 457.9C8.05843 459.857 10.553 461.191 13.2687 461.731C15.9845 462.271 18.7994 461.994 21.3576 460.934C23.9157 459.875 26.1022 458.08 27.6406 455.778C29.1789 453.476 30 450.769 30 448C29.9958 444.288 28.5194 440.73 25.8948 438.105C23.2702 435.481 19.7117 434.004 16 434ZM3.99999 448C4.00103 446.315 4.35789 444.65 5.04721 443.113C5.73653 441.576 6.74275 440.202 7.99999 439.081L7.99999 441C7.99999 441.53 8.2107 442.039 8.58578 442.414C8.96085 442.789 9.46956 443 9.99999 443L13.382 443C13.7537 443 14.118 442.897 14.4342 442.701C14.7504 442.506 15.0059 442.227 15.172 441.894L15.617 441L18 441L18 445L13.235 445C12.9251 445 12.6194 445.072 12.342 445.21L9.10499 446.83C8.77317 446.996 8.49408 447.251 8.29893 447.567C8.10379 447.882 8.00028 448.246 7.99999 448.617L7.99999 452.322C7.99996 452.722 8.1197 453.112 8.34375 453.443C8.5678 453.774 8.88589 454.03 9.25699 454.179L13.106 455.719L13.784 459.785C11.0366 459.266 8.55631 457.805 6.77037 455.654C4.98442 453.503 4.0047 450.796 3.99999 448ZM15.846 459.992L14.894 454.28L9.99999 452.323L9.99999 448.618L13.236 447L20 447L20 439L14.382 439L13.382 441L9.99999 441L9.99999 437.624C11.5224 436.738 13.2218 436.199 14.9766 436.046C16.7315 435.893 18.4986 436.129 20.1514 436.738C21.8043 437.347 23.3022 438.314 24.5379 439.57C25.7737 440.825 26.7169 442.338 27.3 444L22 444L22 448L22.922 451.814L21 454.697L21 458.894C19.4333 459.621 17.7272 459.999 16 460C15.948 460 15.898 459.993 15.846 459.992ZM23 457.727L23 455.303L24.586 452.923C24.7408 452.691 24.8454 452.43 24.8931 452.155C24.9408 451.88 24.9305 451.599 24.863 451.328L24 447.877L24 446L27.82 446C28.2109 448.211 27.9654 450.487 27.112 452.563C26.2586 454.639 24.8325 456.43 23 457.727Z" fill="currentColor" fill-rule="nonzero" />
  </g>
</svg>

