<svg viewBox="0 0 32 32" xmlns="http://www.w3.org/2000/svg" fill="none">
  <g transform="translate(-288 -432)">
<path id="Vector 332" d="M302 456L305 456L305 458L302 458L302 456ZM305 454L307 454L307 456L305 456L305 454ZM305 450L307 450L307 452L305 452L305 450Z" fill="currentColor" fill-rule="nonzero" />
		<path id="Vector 333" d="M304 434C301.231 434 298.524 434.821 296.222 436.359C293.92 437.898 292.125 440.084 291.066 442.642C290.006 445.201 289.729 448.016 290.269 450.731C290.809 453.447 292.143 455.942 294.101 457.9C296.058 459.857 298.553 461.191 301.269 461.731C303.984 462.271 306.799 461.994 309.358 460.934C311.916 459.875 314.102 458.08 315.641 455.778C317.179 453.476 318 450.769 318 448C317.996 444.288 316.519 440.73 313.895 438.105C311.27 435.481 307.712 434.004 304 434ZM303.397 436.03L305.904 441.046L304.323 445L298.27 445L296.86 449.387L299.712 452.239L298.705 453.751L294.286 451L292.395 451C291.94 449.277 291.877 447.475 292.21 445.725C292.543 443.974 293.263 442.321 294.318 440.885C295.373 439.45 296.736 438.269 298.307 437.428C299.878 436.588 301.617 436.11 303.397 436.03ZM293.106 453L293.714 453L297.649 455.449C298.09 455.726 298.621 455.82 299.13 455.71C299.638 455.599 300.083 455.294 300.37 454.86L301.378 453.348C301.633 452.963 301.748 452.502 301.702 452.042C301.657 451.582 301.454 451.152 301.128 450.825L299.139 448.836L299.729 447L304.323 447C304.723 447.001 305.114 446.882 305.445 446.658C305.777 446.434 306.033 446.115 306.18 445.743L307.761 441.79C307.866 441.528 307.915 441.246 307.903 440.964C307.892 440.681 307.82 440.405 307.694 440.152L305.684 436.132C307.535 436.389 309.299 437.076 310.837 438.138C312.374 439.2 313.641 440.607 314.536 442.247C315.432 443.887 315.931 445.714 315.993 447.581C316.055 449.448 315.678 451.304 314.894 453L311 453C310.47 453 309.961 453.211 309.586 453.586C309.211 453.961 309 454.47 309 455L309 458.895C307.57 459.556 306.023 459.929 304.449 459.99C302.875 460.052 301.304 459.802 299.827 459.254C298.35 458.706 296.995 457.871 295.842 456.798C294.689 455.725 293.759 454.434 293.106 453ZM311 457.727L311 455L313.727 455C312.971 456.05 312.05 456.971 311 457.727Z" fill="currentColor" fill-rule="nonzero" />
  </g>
</svg>

