<svg viewBox="0 0 32 32" xmlns="http://www.w3.org/2000/svg" fill="none">
  <g transform="translate(-216 -432)">
<path id="Vector 331" d="M232.612 434.214C232.435 434.076 232.216 434 231.991 434C231.766 434 231.547 434.076 231.37 434.214L217 445.419L218.243 446.991L220 445.621L220 458C220.001 458.53 220.212 459.038 220.587 459.413C220.962 459.788 221.47 459.999 222 460L242 460C242.53 459.999 243.038 459.788 243.413 459.413C243.788 459.038 243.999 458.53 244 458L244 445.63L245.757 447L247 445.428L232.612 434.214ZM222 444.062L231 437.05L231 444.414L234.458 447.872L227.724 452.682L230.382 458L222 458L222 444.062ZM242 458L232.618 458L230.276 453.317L237.542 448.127L233 443.587L233 437.052L242 444.072L242 458Z" fill="currentColor" fill-rule="nonzero" />
  </g>
</svg>

