<svg viewBox="0 0 32 32" xmlns="http://www.w3.org/2000/svg" fill="none">
  <g transform="translate(-432 -432)">
<path id="Vector 336" d="M448 439C447.407 439 446.827 438.824 446.333 438.494C445.84 438.165 445.455 437.696 445.228 437.148C445.001 436.6 444.942 435.997 445.058 435.415C445.173 434.833 445.459 434.298 445.879 433.879C446.298 433.459 446.833 433.173 447.415 433.058C447.997 432.942 448.6 433.001 449.148 433.228C449.696 433.455 450.165 433.84 450.494 434.333C450.824 434.827 451 435.407 451 436C450.999 436.795 450.683 437.558 450.12 438.12C449.558 438.683 448.795 438.999 448 439ZM448 435C447.802 435 447.609 435.059 447.444 435.169C447.28 435.278 447.152 435.435 447.076 435.617C447 435.8 446.981 436.001 447.019 436.195C447.058 436.389 447.153 436.567 447.293 436.707C447.433 436.847 447.611 436.942 447.805 436.981C447.999 437.019 448.2 437 448.383 436.924C448.565 436.848 448.722 436.72 448.832 436.556C448.941 436.391 449 436.198 449 436C449 435.735 448.895 435.48 448.707 435.293C448.52 435.105 448.265 435 448 435ZM443 462C442.407 462 441.827 461.824 441.333 461.494C440.84 461.165 440.455 460.696 440.228 460.148C440.001 459.6 439.942 458.997 440.058 458.415C440.173 457.833 440.459 457.298 440.879 456.879C441.298 456.459 441.833 456.173 442.415 456.058C442.997 455.942 443.6 456.001 444.148 456.228C444.696 456.455 445.165 456.84 445.494 457.333C445.824 457.827 446 458.407 446 459C445.999 459.795 445.683 460.558 445.12 461.12C444.558 461.683 443.795 461.999 443 462ZM443 458C442.802 458 442.609 458.059 442.444 458.168C442.28 458.278 442.152 458.435 442.076 458.617C442 458.8 441.981 459.001 442.019 459.195C442.058 459.389 442.153 459.567 442.293 459.707C442.433 459.847 442.611 459.942 442.805 459.981C442.999 460.019 443.2 460 443.383 459.924C443.565 459.848 443.722 459.72 443.832 459.556C443.941 459.391 444 459.198 444 459C444 458.735 443.895 458.48 443.707 458.293C443.52 458.105 443.265 458 443 458ZM439 443C438.407 443 437.827 442.824 437.333 442.494C436.84 442.165 436.455 441.696 436.228 441.148C436.001 440.6 435.942 439.997 436.058 439.415C436.173 438.833 436.459 438.298 436.879 437.879C437.298 437.459 437.833 437.173 438.415 437.058C438.997 436.942 439.6 437.001 440.148 437.228C440.696 437.455 441.165 437.84 441.494 438.333C441.824 438.827 442 439.407 442 440C441.999 440.795 441.683 441.558 441.12 442.12C440.558 442.683 439.795 442.999 439 443ZM439 439C438.802 439 438.609 439.059 438.444 439.169C438.28 439.278 438.152 439.435 438.076 439.617C438 439.8 437.981 440.001 438.019 440.195C438.058 440.389 438.153 440.567 438.293 440.707C438.433 440.847 438.611 440.942 438.805 440.981C438.999 441.019 439.2 441 439.383 440.924C439.565 440.848 439.722 440.72 439.831 440.556C439.941 440.391 440 440.198 440 440C440 439.735 439.895 439.48 439.707 439.293C439.52 439.105 439.265 439 439 439ZM453 462C452.407 462 451.827 461.824 451.333 461.494C450.84 461.165 450.455 460.696 450.228 460.148C450.001 459.6 449.942 458.997 450.058 458.415C450.173 457.833 450.459 457.298 450.879 456.879C451.298 456.459 451.833 456.173 452.415 456.058C452.997 455.942 453.6 456.001 454.148 456.228C454.696 456.455 455.165 456.84 455.494 457.333C455.824 457.827 456 458.407 456 459C455.999 459.795 455.683 460.558 455.12 461.12C454.558 461.683 453.795 461.999 453 462ZM453 458C452.802 458 452.609 458.059 452.444 458.168C452.28 458.278 452.152 458.435 452.076 458.617C452 458.8 451.981 459.001 452.019 459.195C452.058 459.389 452.153 459.567 452.293 459.707C452.433 459.847 452.611 459.942 452.805 459.981C452.999 460.019 453.2 460 453.383 459.924C453.565 459.848 453.722 459.72 453.831 459.556C453.941 459.391 454 459.198 454 459C454 458.735 453.895 458.48 453.707 458.293C453.52 458.105 453.265 458 453 458ZM457 443C456.407 443 455.827 442.824 455.333 442.494C454.84 442.165 454.455 441.696 454.228 441.148C454.001 440.6 453.942 439.997 454.058 439.415C454.173 438.833 454.459 438.298 454.879 437.879C455.298 437.459 455.833 437.173 456.415 437.058C456.997 436.942 457.6 437.001 458.148 437.228C458.696 437.455 459.165 437.84 459.494 438.333C459.824 438.827 460 439.407 460 440C459.999 440.795 459.683 441.558 459.12 442.12C458.558 442.683 457.795 442.999 457 443ZM457 439C456.802 439 456.609 439.059 456.444 439.169C456.28 439.278 456.152 439.435 456.076 439.617C456 439.8 455.981 440.001 456.019 440.195C456.058 440.389 456.153 440.567 456.293 440.707C456.433 440.847 456.611 440.942 456.805 440.981C456.999 441.019 457.2 441 457.383 440.924C457.565 440.848 457.722 440.72 457.831 440.556C457.941 440.391 458 440.198 458 440C458 439.735 457.895 439.48 457.707 439.293C457.52 439.105 457.265 439 457 439ZM436 453C435.407 453 434.827 452.824 434.333 452.494C433.84 452.165 433.455 451.696 433.228 451.148C433.001 450.6 432.942 449.997 433.058 449.415C433.173 448.833 433.459 448.298 433.879 447.879C434.298 447.459 434.833 447.173 435.415 447.058C435.997 446.942 436.6 447.001 437.148 447.228C437.696 447.455 438.165 447.84 438.494 448.333C438.824 448.827 439 449.407 439 450C438.999 450.795 438.683 451.558 438.12 452.12C437.558 452.683 436.795 452.999 436 453ZM436 449C435.802 449 435.609 449.059 435.444 449.168C435.28 449.278 435.152 449.435 435.076 449.617C435 449.8 434.981 450.001 435.019 450.195C435.058 450.389 435.153 450.567 435.293 450.707C435.433 450.847 435.611 450.942 435.805 450.981C435.999 451.019 436.2 451 436.383 450.924C436.565 450.848 436.722 450.72 436.831 450.556C436.941 450.391 437 450.198 437 450C437 449.735 436.895 449.48 436.707 449.293C436.52 449.105 436.265 449 436 449ZM460 453C459.407 453 458.827 452.824 458.333 452.494C457.84 452.165 457.455 451.696 457.228 451.148C457.001 450.6 456.942 449.997 457.058 449.415C457.173 448.833 457.459 448.298 457.879 447.879C458.298 447.459 458.833 447.173 459.415 447.058C459.997 446.942 460.6 447.001 461.148 447.228C461.696 447.455 462.165 447.84 462.494 448.333C462.824 448.827 463 449.407 463 450C462.999 450.795 462.683 451.558 462.12 452.12C461.558 452.683 460.795 452.999 460 453ZM460 449C459.802 449 459.609 449.059 459.444 449.168C459.28 449.278 459.152 449.435 459.076 449.617C459 449.8 458.981 450.001 459.019 450.195C459.058 450.389 459.153 450.567 459.293 450.707C459.433 450.847 459.611 450.942 459.805 450.981C459.999 451.019 460.2 451 460.383 450.924C460.565 450.848 460.722 450.72 460.831 450.556C460.941 450.391 461 450.198 461 450C461 449.735 460.895 449.48 460.707 449.293C460.52 449.105 460.265 449 460 449ZM448 454C446.813 454 445.653 453.648 444.667 452.989C443.68 452.329 442.911 451.392 442.457 450.296C442.003 449.2 441.884 447.993 442.115 446.829C442.347 445.666 442.918 444.596 443.757 443.757C444.596 442.918 445.666 442.347 446.829 442.115C447.993 441.884 449.2 442.003 450.296 442.457C451.392 442.911 452.329 443.68 452.989 444.667C453.648 445.653 454 446.813 454 448C453.998 449.591 453.365 451.116 452.241 452.241C451.116 453.365 449.591 453.998 448 454ZM448 444C447.209 444 446.435 444.235 445.778 444.674C445.12 445.114 444.607 445.738 444.305 446.469C444.002 447.2 443.922 448.004 444.077 448.78C444.231 449.556 444.612 450.269 445.172 450.828C445.731 451.388 446.444 451.769 447.22 451.923C447.996 452.077 448.8 451.998 449.531 451.695C450.262 451.393 450.886 450.88 451.326 450.222C451.765 449.565 452 448.791 452 448C451.999 446.94 451.577 445.923 450.827 445.173C450.077 444.423 449.06 444.001 448 444Z" fill="currentColor" fill-rule="nonzero" />
  </g>
</svg>

