<svg viewBox="0 0 32 32" xmlns="http://www.w3.org/2000/svg" fill="none">
  <g transform="translate(-504 -432)">
<path id="Vector 337" d="M513 453L527 453L527 455L513 455L513 453ZM515 446C514.604 446 514.218 446.117 513.889 446.337C513.56 446.557 513.304 446.869 513.152 447.235C513.001 447.6 512.961 448.002 513.038 448.39C513.116 448.778 513.306 449.135 513.586 449.414C513.865 449.694 514.222 449.884 514.61 449.962C514.998 450.039 515.4 449.999 515.765 449.848C516.131 449.697 516.443 449.44 516.663 449.111C516.883 448.782 517 448.396 517 448C517.003 447.737 516.953 447.475 516.853 447.232C516.754 446.988 516.606 446.766 516.42 446.58C516.234 446.394 516.012 446.246 515.768 446.147C515.525 446.047 515.263 445.997 515 446ZM525 446C524.604 446 524.218 446.117 523.889 446.337C523.56 446.557 523.304 446.869 523.152 447.235C523.001 447.6 522.961 448.002 523.038 448.39C523.116 448.778 523.306 449.135 523.586 449.414C523.865 449.694 524.222 449.884 524.61 449.962C524.998 450.039 525.4 449.999 525.765 449.848C526.131 449.697 526.443 449.44 526.663 449.111C526.883 448.782 527 448.396 527 448C527.003 447.737 526.953 447.475 526.853 447.232C526.754 446.988 526.606 446.766 526.42 446.58C526.234 446.394 526.012 446.246 525.768 446.147C525.525 446.047 525.263 445.997 525 446Z" fill="currentColor" fill-rule="nonzero" />
		<path id="Vector 338" d="M532 440L522.414 440L524.486 437.928C524.654 437.974 524.826 437.998 525 438C525.396 438 525.782 437.883 526.111 437.663C526.44 437.443 526.696 437.131 526.848 436.765C526.999 436.4 527.039 435.998 526.962 435.61C526.884 435.222 526.694 434.865 526.414 434.586C526.135 434.306 525.778 434.116 525.39 434.038C525.002 433.961 524.6 434.001 524.235 434.152C523.869 434.304 523.557 434.56 523.337 434.889C523.117 435.218 523 435.604 523 436C523.002 436.174 523.026 436.347 523.072 436.514L519.586 440L508 440C507.47 440.001 506.962 440.212 506.587 440.587C506.212 440.962 506.001 441.47 506 442L506 458C506.001 458.53 506.212 459.038 506.587 459.413C506.962 459.788 507.47 459.999 508 460L532 460C532.53 459.999 533.038 459.788 533.413 459.413C533.788 459.038 533.999 458.53 534 458L534 442C533.999 441.47 533.788 440.962 533.413 440.587C533.038 440.212 532.53 440.001 532 440ZM508 458L508 442L532 442L532 458L508 458Z" fill="currentColor" fill-rule="nonzero" />
  </g>
</svg>

