<svg viewBox="0 0 32 32" xmlns="http://www.w3.org/2000/svg" fill="none">
  <g transform="translate(-576 -432)">
<path id="Vector 339" d="M604 438L580 438C579.47 438 578.961 438.211 578.586 438.586C578.211 438.961 578 439.47 578 440L578 456C578 456.53 578.211 457.039 578.586 457.414C578.961 457.789 579.47 458 580 458L604 458C604.53 458 605.039 457.789 605.414 457.414C605.789 457.039 606 456.53 606 456L606 440C606 439.47 605.789 438.961 605.414 438.586C605.039 438.211 604.53 438 604 438ZM601.8 440L592 446.78L582.2 440L601.8 440ZM580 456L580 440.91L591.43 448.82C591.597 448.936 591.796 448.998 592 448.998C592.204 448.998 592.403 448.936 592.57 448.82L604 440.91L604 456L580 456Z" fill="currentColor" fill-rule="nonzero" />
  </g>
</svg>

