<svg viewBox="0 0 32 32" xmlns="http://www.w3.org/2000/svg" fill="none">
  <g transform="translate(-648 -432)">
<path id="Vector 340" d="M667 456L652 456L651.997 440.906L663.431 448.822C663.598 448.938 663.797 449 664 449C664.203 449 664.402 448.938 664.569 448.822L676 440.91L676 450L678 450L678 440C677.999 439.47 677.788 438.962 677.413 438.587C677.038 438.212 676.53 438.001 676 438L652 438C651.47 438 650.961 438.211 650.586 438.586C650.211 438.961 650 439.47 650 440L650 456C650.001 456.53 650.212 457.038 650.587 457.413C650.962 457.788 651.47 457.999 652 458L667 458L667 456ZM673.799 440L664 446.784L654.201 440L673.799 440Z" fill="currentColor" fill-rule="nonzero" />
		<path id="Vector 341" d="M674 460C676.209 460 678 458.209 678 456C678 453.791 676.209 452 674 452C671.791 452 670 453.791 670 456C670 458.209 671.791 460 674 460Z" fill="currentColor" fill-rule="nonzero" />
  </g>
</svg>

