<svg viewBox="0 0 32 32" xmlns="http://www.w3.org/2000/svg" fill="none">
  <g transform="translate(-720 -432)">
<path id="Vector 342" d="M724 434L722 434L722 460C722 460.53 722.211 461.039 722.586 461.414C722.961 461.789 723.47 462 724 462L735 462L735 460L724 460L724 434ZM743 436L743 438L746.586 438L739 445.586L734.707 441.293C734.519 441.106 734.265 441 734 441C733.735 441 733.481 441.106 733.293 441.293L726 448.586L727.414 450L734 443.414L738.293 447.707C738.48 447.895 738.735 448 739 448C739.265 448 739.52 447.895 739.707 447.707L748 439.414L748 443L750 443L750 436L743 436ZM742.48 452.863C741.775 452.303 740.901 451.999 740 452L737 452L737 455C737 457.206 738.794 459 741 459L742 459L742 462L744 462L744 459L745 459C747.757 459 750 456.757 750 454L750 450L747 450C746.053 450.001 745.126 450.271 744.326 450.778C743.526 451.284 742.886 452.007 742.48 452.863ZM742 457L741 457C739.897 457 739 456.103 739 455L739 454L740 454C741.103 454 742 454.897 742 456L742 457ZM748 454C748 455.654 746.654 457 745 457L744 457L744 455C744 453.346 745.346 452 747 452L748 452L748 454Z" fill="currentColor" fill-rule="nonzero" />
  </g>
</svg>

