<svg viewBox="0 0 32 32" xmlns="http://www.w3.org/2000/svg" fill="none">
  <g transform="translate(-792 -432)">
<path id="Vector 343" d="M821 444L795 444C794.4 444 794 443.6 794 443L794 435C794 434.4 794.4 434 795 434L821 434C821.6 434 822 434.4 822 435L822 443C822 443.6 821.6 444 821 444ZM796 436L796 442L820 442L820 436L796 436ZM815 459.2L812.4 456.6L811 458L815 462L822 455L820.6 453.6L815 459.2ZM809 454L796 454L796 448L820 448L820 451L822 451L822 447C822 446.4 821.6 446 821 446L795 446C794.4 446 794 446.5 794 447L794 455C794 455.5 794.4 456 795 456L809 456L809 454Z" fill="currentColor" fill-rule="nonzero" />
  </g>
</svg>

