<svg viewBox="0 0 32 32" xmlns="http://www.w3.org/2000/svg" fill="none">
  <g transform="translate(-864 -432)">
<path id="Vector 344" d="M893 453.278L893 451C893 449.939 892.579 448.922 891.828 448.172C891.078 447.421 890.061 447 889 447C887.939 447 886.922 447.421 886.172 448.172C885.421 448.922 885 449.939 885 451L885 453.278C884.697 453.453 884.446 453.704 884.271 454.006C884.095 454.308 884.002 454.651 884 455L884 460C884.001 460.53 884.212 461.038 884.587 461.413C884.962 461.788 885.47 461.999 886 462L892 462C892.53 461.999 893.038 461.788 893.413 461.413C893.788 461.038 893.999 460.53 894 460L894 455C893.998 454.651 893.905 454.308 893.729 454.006C893.554 453.704 893.303 453.453 893 453.278ZM889 449C889.53 449.001 890.038 449.212 890.413 449.587C890.788 449.962 890.999 450.47 891 451L891 453L887 453L887 451C887.001 450.47 887.212 449.962 887.587 449.587C887.962 449.212 888.47 449.001 889 449ZM886 460L886 455L892 455L892 460L886 460ZM866 434L868 434L868 438L866 438L866 434ZM878 434L880 434L880 438L878 438L878 434ZM882 434L884 434L884 438L882 438L882 434ZM866 440L868 440L868 448L866 448L866 440ZM866 450L868 450L868 458L866 458L866 450ZM878 450L880 450L880 458L878 458L878 450ZM870 440L872 440L872 448L870 448L870 440ZM882 440L884 440L884 446L882 446L882 440ZM874 458L872 458C871.47 458 870.961 457.789 870.586 457.414C870.211 457.039 870 456.53 870 456L870 452C870 451.47 870.211 450.961 870.586 450.586C870.961 450.211 871.47 450 872 450L874 450C874.53 450 875.039 450.211 875.414 450.586C875.789 450.961 876 451.47 876 452L876 456C876 456.53 875.789 457.039 875.414 457.414C875.039 457.789 874.53 458 874 458ZM872 452L872 456L874 456L874 452L872 452ZM878 448L876 448C875.47 448 874.961 447.789 874.586 447.414C874.211 447.039 874 446.53 874 446L874 442C874 441.47 874.211 440.961 874.586 440.586C874.961 440.211 875.47 440 876 440L878 440C878.53 440 879.039 440.211 879.414 440.586C879.789 440.961 880 441.47 880 442L880 446C880 446.53 879.789 447.039 879.414 447.414C879.039 447.789 878.53 448 878 448ZM876 442L876 446L878 446L878 442L876 442ZM874 438L872 438C871.47 438 870.961 437.789 870.586 437.414C870.211 437.039 870 436.53 870 436L870 434L872 434L872 436L874 436L874 434L876 434L876 436C876 436.53 875.789 437.039 875.414 437.414C875.039 437.789 874.53 438 874 438Z" fill="currentColor" fill-rule="nonzero" />
  </g>
</svg>

