<svg viewBox="0 0 32 32" xmlns="http://www.w3.org/2000/svg" fill="none">
  <g transform="translate(-936 -432)">
<path id="Vector 345" d="M965 446L964 446L964 442L962 442L962 446L960 446L960 442L958 442L958 446L957 446C956.735 446 956.48 446.105 956.293 446.293C956.105 446.48 956 446.735 956 447L956 451C956.002 452.152 956.401 453.268 957.129 454.16C957.858 455.053 958.872 455.667 960 455.899L960 459C960 459.265 959.895 459.52 959.707 459.707C959.52 459.895 959.265 460 959 460L941 460C940.735 460 940.48 459.895 940.293 459.707C940.105 459.52 940 459.265 940 459C940 458.735 940.105 458.48 940.293 458.293C940.48 458.105 940.735 458 941 458L946 458C946.796 458 947.559 457.684 948.121 457.121C948.684 456.559 949 455.796 949 455C949 454.204 948.684 453.441 948.121 452.879C947.559 452.316 946.796 452 946 452L941 452C940.735 452 940.48 451.895 940.293 451.707C940.105 451.52 940 451.265 940 451C940 450.735 940.105 450.48 940.293 450.293C940.48 450.105 940.735 450 941 450L946 450C946.795 449.999 947.558 449.683 948.12 449.12C948.683 448.558 948.999 447.795 949 447L949 443L950 443C951.06 442.999 952.077 442.577 952.827 441.827C953.577 441.077 953.999 440.06 954 439L954 436L951 436C949.976 436.002 948.992 436.398 948.253 437.106C947.735 436.166 946.975 435.382 946.051 434.835C945.127 434.289 944.073 434.001 943 434L940 434L940 437C940.002 438.591 940.635 440.116 941.759 441.241C942.884 442.365 944.409 442.998 946 443L947 443L947 447C947 447.265 946.895 447.52 946.707 447.707C946.52 447.895 946.265 448 946 448L941 448C940.204 448 939.441 448.316 938.879 448.879C938.316 449.441 938 450.204 938 451C938 451.796 938.316 452.559 938.879 453.121C939.441 453.684 940.204 454 941 454L946 454C946.265 454 946.52 454.105 946.707 454.293C946.895 454.48 947 454.735 947 455C947 455.265 946.895 455.52 946.707 455.707C946.52 455.895 946.265 456 946 456L941 456C940.204 456 939.441 456.316 938.879 456.879C938.316 457.441 938 458.204 938 459C938 459.796 938.316 460.559 938.879 461.121C939.441 461.684 940.204 462 941 462L959 462C959.795 461.999 960.558 461.683 961.12 461.12C961.683 460.558 961.999 459.795 962 459L962 455.899C963.128 455.667 964.142 455.053 964.871 454.16C965.599 453.268 965.998 452.152 966 451L966 447C966 446.735 965.895 446.48 965.707 446.293C965.52 446.105 965.265 446 965 446ZM949 440C949 439.47 949.211 438.961 949.586 438.586C949.961 438.211 950.47 438 951 438L952 438L952 439C952 439.53 951.789 440.039 951.414 440.414C951.039 440.789 950.53 441 950 441L949 441L949 440ZM946 441C944.94 440.999 943.923 440.577 943.173 439.827C942.423 439.077 942.001 438.06 942 437L942 436L943 436C944.06 436.001 945.077 436.423 945.827 437.173C946.577 437.923 946.999 438.94 947 440L947 441L946 441ZM964 451C964 451.796 963.684 452.559 963.121 453.121C962.559 453.684 961.796 454 961 454C960.204 454 959.441 453.684 958.879 453.121C958.316 452.559 958 451.796 958 451L958 448L964 448L964 451Z" fill="currentColor" fill-rule="nonzero" />
  </g>
</svg>

