<svg viewBox="0 0 32 32" xmlns="http://www.w3.org/2000/svg" fill="none">
  <g transform="translate(-1008 -432)">
<path id="Vector 346" d="M1016 440L1018 440L1018 444L1016 444L1016 440ZM1016 446L1018 446L1018 450L1016 450L1016 446ZM1022 440L1024 440L1024 444L1022 444L1022 440ZM1022 446L1024 446L1024 450L1022 450L1022 446ZM1016 452L1018 452L1018 456L1016 456L1016 452ZM1022 452L1024 452L1024 456L1022 456L1022 452Z" fill="currentColor" fill-rule="nonzero" />
		<path id="Vector 347" d="M1038 446C1038 445.47 1037.79 444.961 1037.41 444.586C1037.04 444.211 1036.53 444 1036 444L1030 444L1030 436C1030 435.47 1029.79 434.961 1029.41 434.586C1029.04 434.211 1028.53 434 1028 434L1012 434C1011.47 434 1010.96 434.211 1010.59 434.586C1010.21 434.961 1010 435.47 1010 436L1010 462L1038 462L1038 446ZM1012 436L1028 436L1028 460L1012 460L1012 436ZM1030 460L1030 446L1036 446L1036 460L1030 460Z" fill="currentColor" fill-rule="nonzero" />
  </g>
</svg>

