<svg viewBox="0 0 32 32" xmlns="http://www.w3.org/2000/svg" fill="none">
  <g transform="translate(-1152 -432)">
<path id="Vector 350" d="M1171.53 448.07C1171.53 447.106 1172.41 446.625 1173.32 446.625C1174.37 446.625 1174.8 447.278 1174.8 448.55L1174.8 454L1177 454L1177 448.327C1177 446.092 1175.97 444.82 1174.13 444.82C1172.74 444.82 1171.98 445.56 1171.62 446.522L1171.53 446.522L1171.53 445.026L1169.33 445.026L1169.33 454L1171.53 454L1171.53 448.07ZM1166.91 451.988L1161.27 451.988L1161.27 448.928L1166.26 448.928L1166.26 446.917L1161.27 446.917L1161.27 444.012L1166.91 444.012L1166.91 442L1159 442L1159 454L1166.91 454L1166.91 451.988Z" fill="currentColor" fill-rule="nonzero" />
		<path id="Vector 351" d="M1173 462L1163 462C1158.04 462 1154 457.963 1154 453L1154 443C1154 438.037 1158.04 434 1163 434L1173 434C1177.96 434 1182 438.037 1182 443L1182 453C1182 457.963 1177.96 462 1173 462ZM1163 436C1159.14 436 1156 439.14 1156 443L1156 453C1156 456.86 1159.14 460 1163 460L1173 460C1176.86 460 1180 456.86 1180 453L1180 443C1180 439.14 1176.86 436 1173 436L1163 436Z" fill="currentColor" fill-rule="nonzero" />
  </g>
</svg>

