<svg viewBox="0 0 32 32" xmlns="http://www.w3.org/2000/svg" fill="none">
  <g transform="translate(-1080 -432)">
<path id="Vector 348" d="M1099.53 448.07C1099.53 447.106 1100.41 446.625 1101.32 446.625C1102.37 446.625 1102.8 447.278 1102.8 448.55L1102.8 454L1105 454L1105 448.327C1105 446.092 1103.97 444.82 1102.13 444.82C1100.74 444.82 1099.98 445.56 1099.62 446.522L1099.53 446.522L1099.53 445.026L1097.33 445.026L1097.33 454L1099.53 454L1099.53 448.07ZM1094.91 451.988L1089.27 451.988L1089.27 448.928L1094.26 448.928L1094.26 446.917L1089.27 446.917L1089.27 444.012L1094.91 444.012L1094.91 442L1087 442L1087 454L1094.91 454L1094.91 451.988Z" fill="currentColor" fill-rule="nonzero" />
		<path id="Vector 349" d="M1082 436L1082 460C1082 460.53 1082.21 461.039 1082.59 461.414C1082.96 461.789 1083.47 462 1084 462L1108 462C1108.53 462 1109.04 461.789 1109.41 461.414C1109.79 461.039 1110 460.53 1110 460L1110 436C1110 435.47 1109.79 434.961 1109.41 434.586C1109.04 434.211 1108.53 434 1108 434L1084 434C1083.47 434 1082.96 434.211 1082.59 434.586C1082.21 434.961 1082 435.47 1082 436ZM1108 460L1084 460L1084 436L1108 436L1108 460Z" fill="currentColor" fill-rule="nonzero" />
  </g>
</svg>

