<svg viewBox="0 0 32 32" xmlns="http://www.w3.org/2000/svg" fill="none">
  <g transform="translate(-1296 -432)">
<path id="Vector 354" d="M1298 460L1306 460L1306 462L1298 462L1298 460ZM1298 456L1306 456L1306 458L1298 458L1298 456ZM1308 460L1316 460L1316 462L1308 462L1308 460ZM1308 456L1316 456L1316 458L1308 458L1308 456ZM1298 452L1306 452L1306 454L1298 454L1298 452ZM1308 452L1316 452L1316 454L1308 454L1308 452ZM1298 448L1306 448L1306 450L1298 450L1298 448ZM1308 448L1316 448L1316 450L1308 450L1308 448ZM1308 444L1316 444L1316 446L1308 446L1308 444ZM1308 440L1316 440L1316 442L1308 442L1308 440ZM1308 436L1316 436L1316 438L1308 438L1308 436ZM1318 460L1326 460L1326 462L1318 462L1318 460ZM1318 456L1326 456L1326 458L1318 458L1318 456Z" fill="currentColor" fill-rule="nonzero" />
  </g>
</svg>

