<svg viewBox="0 0 32 32" xmlns="http://www.w3.org/2000/svg" fill="none">
  <g transform="translate(-1224 -432)">
<path id="Vector 352" d="M1244 447C1242.22 447 1240.77 446.127 1239.49 445.358C1238.32 444.659 1237.22 444 1236 444C1234.6 444 1233.55 444.863 1232.71 445.707L1231.29 444.293C1232.36 443.225 1233.86 442 1236 442C1237.78 442 1239.23 442.873 1240.51 443.642C1241.68 444.341 1242.78 445 1244 445C1245.4 445 1246.45 444.137 1247.29 443.293L1248.71 444.707C1247.64 445.775 1246.14 447 1244 447ZM1244 454C1242.22 454 1240.77 453.127 1239.49 452.358C1238.32 451.659 1237.22 451 1236 451C1234.6 451 1233.55 451.863 1232.71 452.707L1231.29 451.293C1232.36 450.225 1233.86 449 1236 449C1237.78 449 1239.23 449.873 1240.51 450.642C1241.68 451.341 1242.78 452 1244 452C1245.4 452 1246.45 451.137 1247.29 450.293L1248.71 451.707C1247.64 452.775 1246.14 454 1244 454Z" fill="currentColor" fill-rule="nonzero" />
		<path id="Vector 353" d="M1240 462C1232.28 462 1226 455.72 1226 448C1226 440.28 1232.28 434 1240 434C1247.72 434 1254 440.28 1254 448C1254 455.72 1247.72 462 1240 462ZM1240 436C1233.38 436 1228 441.383 1228 448C1228 454.617 1233.38 460 1240 460C1246.62 460 1252 454.617 1252 448C1252 441.383 1246.62 436 1240 436Z" fill="currentColor" fill-rule="nonzero" />
  </g>
</svg>

