<svg viewBox="0 0 32 32" xmlns="http://www.w3.org/2000/svg" fill="none">
  <g transform="translate(-1368.000122 -432)">
<path id="Vector 355" d="M1375 459L1398 459L1398 461L1375 461L1375 459ZM1395.38 442.51L1387.45 434.59C1387.26 434.404 1387.04 434.257 1386.8 434.156C1386.56 434.055 1386.3 434.003 1386.04 434.003C1385.77 434.003 1385.51 434.055 1385.27 434.156C1385.03 434.257 1384.81 434.404 1384.62 434.59L1370.62 448.59C1370.43 448.776 1370.29 448.996 1370.19 449.239C1370.09 449.482 1370.03 449.742 1370.03 450.005C1370.03 450.268 1370.09 450.528 1370.19 450.771C1370.29 451.014 1370.43 451.234 1370.62 451.42L1375.13 456L1384.72 456L1395.38 445.34C1395.57 445.154 1395.71 444.934 1395.81 444.691C1395.91 444.448 1395.97 444.188 1395.97 443.925C1395.97 443.662 1395.91 443.402 1395.81 443.159C1395.71 442.916 1395.57 442.696 1395.38 442.51ZM1383.89 454L1376 454L1372 450L1378.31 443.69L1386.24 451.61L1383.89 454ZM1387.65 450.24L1379.73 442.31L1386 436L1394 443.93L1387.65 450.24Z" fill="currentColor" fill-rule="nonzero" />
  </g>
</svg>

