<svg viewBox="0 0 32 32" xmlns="http://www.w3.org/2000/svg" fill="none">
  <g transform="translate(-1584.000122 -432)">
<path id="Vector 358" d="M1593 442.555L1594.56 441L1607 453.444L1605.44 455L1593 442.555Z" fill="currentColor" fill-rule="nonzero" />
		<path id="Vector 359" d="M1600 434C1598.16 433.989 1596.33 434.343 1594.63 435.042C1592.93 435.742 1591.38 436.773 1590.08 438.075C1588.77 439.377 1587.74 440.925 1587.04 442.629C1586.34 444.333 1585.99 446.158 1586 448C1585.99 449.842 1586.34 451.667 1587.04 453.371C1587.74 455.075 1588.77 456.623 1590.08 457.925C1591.38 459.227 1592.93 460.258 1594.63 460.958C1596.33 461.657 1598.16 462.011 1600 462C1601.84 462.011 1603.67 461.657 1605.37 460.958C1607.07 460.258 1608.62 459.227 1609.93 457.925C1611.23 456.623 1612.26 455.075 1612.96 453.371C1613.66 451.667 1614.01 449.842 1614 448C1614.01 446.158 1613.66 444.333 1612.96 442.629C1612.26 440.925 1611.23 439.377 1609.93 438.075C1608.62 436.773 1607.07 435.742 1605.37 435.042C1603.67 434.343 1601.84 433.989 1600 434ZM1600 460C1597.63 460 1595.31 459.296 1593.33 457.978C1591.36 456.659 1589.82 454.785 1588.91 452.592C1588.01 450.4 1587.77 447.987 1588.23 445.659C1588.69 443.331 1589.84 441.193 1591.51 439.515C1593.19 437.837 1595.33 436.694 1597.66 436.231C1599.99 435.768 1602.4 436.005 1604.59 436.913C1606.79 437.822 1608.66 439.36 1609.98 441.333C1611.3 443.307 1612 445.627 1612 448C1611.99 451.18 1610.72 454.227 1608.48 456.475C1606.23 458.724 1603.18 459.991 1600 460Z" fill="currentColor" fill-rule="nonzero" />
  </g>
</svg>

