<svg viewBox="0 0 32 32" xmlns="http://www.w3.org/2000/svg" fill="none">
  <g transform="translate(-1440.000122 -432)">
<path id="Vector 356" d="M1442 448C1442 450.769 1442.82 453.476 1444.36 455.778C1445.9 458.08 1448.08 459.875 1450.64 460.934C1453.2 461.994 1456.02 462.271 1458.73 461.731C1461.45 461.191 1463.94 459.857 1465.9 457.9C1467.86 455.942 1469.19 453.447 1469.73 450.731C1470.27 448.016 1469.99 445.201 1468.93 442.642C1467.87 440.084 1466.08 437.898 1463.78 436.359C1461.48 434.821 1458.77 434 1456 434C1452.29 434 1448.73 435.475 1446.1 438.1C1443.48 440.726 1442 444.287 1442 448ZM1465.15 455.75L1448.25 438.85C1450.55 436.935 1453.48 435.949 1456.47 436.085C1459.46 436.222 1462.3 437.471 1464.41 439.588C1466.53 441.704 1467.78 444.536 1467.91 447.526C1468.05 450.516 1467.07 453.449 1465.15 455.75ZM1448.24 457.16C1445.82 455.104 1444.31 452.171 1444.05 449.004C1443.79 445.838 1444.79 442.697 1446.84 440.27L1463.73 457.16C1461.56 458.99 1458.82 459.994 1455.99 459.994C1453.15 459.994 1450.41 458.99 1448.24 457.16Z" fill="currentColor" fill-rule="nonzero" />
  </g>
</svg>

