<svg viewBox="0 0 32 32" xmlns="http://www.w3.org/2000/svg" fill="none">
  <g transform="translate(-1512.000122 -432)">
<path id="Vector 357" d="M1528 434C1526.16 433.989 1524.33 434.343 1522.63 435.042C1520.93 435.742 1519.38 436.773 1518.08 438.075C1516.77 439.377 1515.74 440.925 1515.04 442.629C1514.34 444.333 1513.99 446.158 1514 448C1513.99 449.842 1514.34 451.667 1515.04 453.371C1515.74 455.075 1516.77 456.623 1518.08 457.925C1519.38 459.227 1520.93 460.258 1522.63 460.958C1524.33 461.657 1526.16 462.011 1528 462C1529.84 462.011 1531.67 461.657 1533.37 460.958C1535.07 460.258 1536.62 459.227 1537.93 457.925C1539.23 456.623 1540.26 455.075 1540.96 453.371C1541.66 451.667 1542.01 449.842 1542 448C1542.01 446.158 1541.66 444.333 1540.96 442.629C1540.26 440.925 1539.23 439.377 1537.93 438.075C1536.62 436.773 1535.07 435.742 1533.37 435.042C1531.67 434.343 1529.84 433.989 1528 434ZM1533.45 455L1521 442.556L1522.56 441L1535 453.445L1533.45 455Z" fill="currentColor" fill-rule="nonzero" />
  </g>
</svg>

