<svg viewBox="0 0 32 32" xmlns="http://www.w3.org/2000/svg" fill="none">
  <g transform="translate(-1656.000122 -432)">
<path id="Vector 360" d="M1684 438C1684 437.47 1683.79 436.961 1683.41 436.586C1683.04 436.211 1682.53 436 1682 436L1678 436L1678 434L1676 434L1676 436L1668 436L1668 434L1666 434L1666 436L1662 436C1661.47 436 1660.96 436.211 1660.59 436.586C1660.21 436.961 1660 437.47 1660 438L1660 458C1660 458.53 1660.21 459.039 1660.59 459.414C1660.96 459.789 1661.47 460 1662 460L1666 460L1666 458L1662 458L1662 438L1666 438L1666 440L1668 440L1668 438L1676 438L1676 440L1678 440L1678 438L1682 438L1682 444L1684 444L1684 438Z" fill="currentColor" fill-rule="nonzero" />
		<path id="Vector 361" d="M1677 447L1679.55 451.938L1685 452.729L1681 456.573L1682 462L1677 459.438L1672 462L1673 456.573L1669 452.729L1674.6 451.938L1677 447Z" fill="currentColor" fill-rule="nonzero" />
  </g>
</svg>

