<svg viewBox="0 0 32 32" xmlns="http://www.w3.org/2000/svg" fill="none">
  <g transform="translate(-1728.000122 -432)">
<path id="Vector 362" d="M1746 454C1746 457.86 1742.86 461 1739 461L1739 459C1741.76 459 1744 456.757 1744 454C1744 451.243 1741.76 449 1739 449C1738.03 449.001 1737.08 449.286 1736.27 449.819C1735.45 450.351 1734.81 451.109 1734.42 452L1737 452L1737 454L1731 454L1731 448L1733 448L1733 450.413C1734.23 448.373 1736.45 447 1739 447C1742.86 447 1746 450.14 1746 454ZM1756 437L1756 459C1756 460.103 1755.1 461 1754 461L1748 461L1748 459L1754 459L1754 455L1748 455L1748 453L1754 453L1754 449L1748 449L1748 447L1754 447L1754 443L1732 443L1732 437C1732 435.897 1732.9 435 1734 435L1754 435C1755.1 435 1756 435.897 1756 437ZM1754 437L1734 437L1734 441L1754 441L1754 437Z" fill="currentColor" fill-rule="nonzero" />
  </g>
</svg>

