<svg viewBox="0 0 32 32" xmlns="http://www.w3.org/2000/svg" fill="none">
  <g transform="translate(-0 -504)">
<path id="Vector 366" d="M28 532L17 532C15.897 532 15 531.103 15 530L15 524C15 522.898 15.897 522 17 522L28 522C29.103 522 30 522.898 30 524L30 530C30 531.103 29.103 532 28 532ZM17 524L17 530L28.002 530L28 524L17 524ZM13 524L4 524L4 511L26 511L26 520L28 520L28 511C28 509.897 27.103 509 26 509L4 509C2.897 509 2 509.897 2 511L2 524C2 525.103 2.897 526 4 526L13 526L13 524ZM8 520L8 516.414L12.293 520.707L13.707 519.293L9.414 515L13 515L13 513L6 513L6 520L8 520Z" fill="currentColor" fill-rule="nonzero" />
  </g>
</svg>

