<svg viewBox="0 0 32 32" xmlns="http://www.w3.org/2000/svg" fill="none">
  <g transform="translate(-1872.000122 -432)">
<path id="Vector 364" d="M1884 442L1898 442C1898.53 441.999 1899.04 441.788 1899.41 441.413C1899.79 441.038 1900 440.53 1900 440L1900 436C1900 435.47 1899.79 434.962 1899.41 434.587C1899.04 434.212 1898.53 434.001 1898 434L1884 434C1883.47 434.001 1882.96 434.212 1882.59 434.587C1882.21 434.962 1882 435.47 1882 436L1882 437L1878 437L1878 434L1876 434L1876 457C1876 457.53 1876.21 458.038 1876.59 458.413C1876.96 458.788 1877.47 458.999 1878 459L1882 459L1882 460C1882 460.53 1882.21 461.038 1882.59 461.413C1882.96 461.788 1883.47 461.999 1884 462L1898 462C1898.53 461.999 1899.04 461.788 1899.41 461.413C1899.79 461.038 1900 460.53 1900 460L1900 456C1900 455.47 1899.79 454.962 1899.41 454.587C1899.04 454.212 1898.53 454.001 1898 454L1884 454C1883.47 454.001 1882.96 454.212 1882.59 454.587C1882.21 454.962 1882 455.47 1882 456L1882 457L1878 457L1878 449L1882 449L1882 450C1882 450.53 1882.21 451.038 1882.59 451.413C1882.96 451.788 1883.47 451.999 1884 452L1898 452C1898.53 451.999 1899.04 451.788 1899.41 451.413C1899.79 451.038 1900 450.53 1900 450L1900 446C1900 445.47 1899.79 444.962 1899.41 444.587C1899.04 444.212 1898.53 444.001 1898 444L1884 444C1883.47 444.001 1882.96 444.212 1882.59 444.587C1882.21 444.962 1882 445.47 1882 446L1882 447L1878 447L1878 439L1882 439L1882 440C1882 440.53 1882.21 441.038 1882.59 441.413C1882.96 441.788 1883.47 441.999 1884 442ZM1884 436L1898 436L1898 440L1884 440L1884 436ZM1884 456L1898 456L1898 460L1884 460L1884 456ZM1884 446L1898 446L1898 450L1884 450L1884 446Z" fill="currentColor" fill-rule="nonzero" />
  </g>
</svg>

