<svg viewBox="0 0 32 32" xmlns="http://www.w3.org/2000/svg" fill="none">
  <g transform="translate(-72 -504)">
<path id="Vector 367" d="M89 522L100 522C100.53 522 101.039 522.211 101.414 522.586C101.789 522.961 102 523.47 102 524L102 530C102 530.53 101.789 531.039 101.414 531.414C101.039 531.789 100.53 532 100 532L89 532C88.4696 532 87.9609 531.789 87.5858 531.414C87.2107 531.039 87 530.53 87 530L87 524C87 523.47 87.2107 522.961 87.5858 522.586C87.9609 522.211 88.4696 522 89 522ZM80 520L80 516.414L84.293 520.707L85.707 519.293L81.414 515L85 515L85 513L78 513L78 520L80 520ZM85 526L76 526C75.4696 526 74.9609 525.789 74.5858 525.414C74.2107 525.039 74 524.53 74 524L74 511C74 510.47 74.2107 509.961 74.5858 509.586C74.9609 509.211 75.4696 509 76 509L98 509C98.5304 509 99.0391 509.211 99.4142 509.586C99.7893 509.961 100 510.47 100 511L100 520L98 520L98 511L76 511L76 524L85 524L85 526Z" fill="currentColor" fill-rule="nonzero" />
  </g>
</svg>

