<svg viewBox="0 0 32 32" xmlns="http://www.w3.org/2000/svg" fill="none">
  <g transform="translate(-144 -504)">
<path id="Vector 368" d="M166.707 513.293C166.576 513.162 166.41 513.07 166.23 513.027C166.049 512.984 165.86 512.992 165.684 513.051L156.684 516.051C156.537 516.1 156.403 516.183 156.293 516.293C156.183 516.403 156.1 516.537 156.051 516.684L153.051 525.684C152.992 525.86 152.984 526.049 153.026 526.23C153.069 526.411 153.161 526.576 153.293 526.708C153.424 526.839 153.589 526.931 153.77 526.974C153.951 527.016 154.14 527.008 154.316 526.949L163.316 523.949C163.463 523.9 163.597 523.817 163.707 523.707C163.817 523.598 163.9 523.464 163.949 523.316L166.949 514.316C167.008 514.14 167.016 513.951 166.973 513.77C166.93 513.59 166.838 513.424 166.707 513.293ZM155.581 524.42L157.791 517.792L162.21 522.211L155.581 524.42Z" fill="currentColor" fill-rule="nonzero" />
		<path id="Vector 369" d="M160 534C157.231 534 154.524 533.179 152.222 531.641C149.92 530.102 148.125 527.916 147.066 525.358C146.006 522.799 145.729 519.984 146.269 517.269C146.809 514.553 148.143 512.058 150.101 510.101C152.058 508.143 154.553 506.809 157.269 506.269C159.984 505.729 162.799 506.006 165.358 507.066C167.916 508.125 170.102 509.92 171.641 512.222C173.179 514.524 174 517.231 174 520C173.996 523.712 172.519 527.27 169.895 529.895C167.27 532.519 163.712 533.996 160 534ZM160 508C157.627 508 155.307 508.704 153.333 510.022C151.36 511.341 149.822 513.215 148.913 515.408C148.005 517.601 147.768 520.013 148.231 522.341C148.694 524.669 149.836 526.807 151.515 528.485C153.193 530.164 155.331 531.306 157.659 531.769C159.987 532.232 162.4 531.995 164.592 531.087C166.785 530.178 168.659 528.64 169.978 526.667C171.296 524.693 172 522.373 172 520C171.996 516.818 170.731 513.768 168.481 511.519C166.232 509.269 163.182 508.004 160 508Z" fill="currentColor" fill-rule="nonzero" />
  </g>
</svg>

