<svg viewBox="0 0 32 32" xmlns="http://www.w3.org/2000/svg" fill="none">
  <g transform="translate(-216 -504)">
<path id="Vector 370" d="M242 528L242 532L222 532L222 528L220 528L220 532L220.008 531.995C220.007 532.525 220.216 533.034 220.589 533.41C220.963 533.786 221.47 533.998 222 534L242 534C242.53 534 243.039 533.789 243.414 533.414C243.789 533.039 244 532.53 244 532L244 528L242 528ZM222 516L223.411 517.405L231 509.825L231 528L233 528L233 509.825L240.591 517.405L242 516L232 506L222 516Z" fill="currentColor" fill-rule="nonzero" />
  </g>
</svg>

