<svg viewBox="0 0 32 32" xmlns="http://www.w3.org/2000/svg" fill="none">
  <g transform="translate(-288 -504)">
<path id="Vector 371" d="M318.866 514.16L313.866 505.5C313.733 505.27 313.515 505.103 313.259 505.034C313.003 504.965 312.73 505.001 312.5 505.134L305 509.464L305 508C305 507.735 304.895 507.48 304.707 507.293C304.52 507.105 304.265 507 304 507L292 507C291.735 507 291.48 507.105 291.293 507.293C291.105 507.48 291 507.735 291 508L291 532C291 532.265 291.105 532.52 291.293 532.707C291.48 532.895 291.735 533 292 533L316 533C316.265 533 316.52 532.895 316.707 532.707C316.895 532.52 317 532.265 317 532L317 520C317 519.735 316.895 519.48 316.707 519.293C316.52 519.105 316.265 519 316 519L312.484 519L318.5 515.527C318.614 515.461 318.714 515.374 318.794 515.27C318.874 515.165 318.932 515.046 318.966 514.919C319 514.792 319.009 514.66 318.992 514.53C318.975 514.399 318.932 514.274 318.866 514.16ZM293 509L303 509L303 519L293 519L293 509ZM293 521L303 521L303 531L293 531L293 521ZM315 531L305 531L305 521L315 521L315 531ZM305 519L305 514.144L307.804 519L305 519ZM309.706 518.294L305.706 511.366L312.634 507.366L316.634 514.294L309.706 518.294Z" fill="currentColor" fill-rule="nonzero" />
  </g>
</svg>

