<svg viewBox="0 0 32 32" xmlns="http://www.w3.org/2000/svg" fill="none">
  <g transform="translate(-360 -504)">
<path id="Vector 372" d="M362 531L365 531L365 534L362 534L362 531ZM389.71 511.29L384.71 506.29C384.523 506.104 384.269 505.999 384.005 505.999C383.741 505.999 383.487 506.104 383.3 506.29L380 509.59L378.71 508.29L377.29 509.71L378.59 511L368.29 521.29C368.197 521.383 368.124 521.494 368.074 521.616C368.024 521.738 367.999 521.868 368 522L368 523.59L365.29 526.29C365.104 526.477 364.999 526.731 364.999 526.995C364.999 527.259 365.104 527.513 365.29 527.7L368.29 530.7C368.477 530.886 368.731 530.991 368.995 530.991C369.259 530.991 369.513 530.886 369.7 530.7L372.41 528L374 528C374.132 528.001 374.262 527.976 374.384 527.926C374.506 527.876 374.617 527.803 374.71 527.71L385 517.41L386.29 518.71L387.71 517.29L386.41 516L389.71 512.71C389.896 512.523 390.001 512.269 390.001 512.005C390.001 511.741 389.896 511.487 389.71 511.3L389.71 511.29ZM373.59 526L371.59 526L369 528.59L367.41 527L370 524.41L370 522.41L380 512.41L383.59 516L373.59 526ZM385 514.59L381.41 511L384 508.41L387.59 512L385 514.59Z" fill="currentColor" fill-rule="nonzero" />
  </g>
</svg>

