<svg viewBox="0 0 32 32" xmlns="http://www.w3.org/2000/svg" fill="none">
  <g transform="translate(-936 -504)">
<path id="Vector 385" d="M952 506C949.231 506 946.524 506.821 944.222 508.359C941.92 509.898 940.125 512.084 939.066 514.642C938.006 517.201 937.729 520.016 938.269 522.731C938.809 525.447 940.143 527.942 942.101 529.899C944.058 531.857 946.553 533.191 949.269 533.731C951.984 534.271 954.799 533.994 957.358 532.934C959.916 531.875 962.102 530.08 963.641 527.778C965.179 525.476 966 522.769 966 520C966 516.287 964.525 512.726 961.899 510.1C959.274 507.475 955.713 506 952 506ZM952 532C949.627 532 947.307 531.296 945.333 529.978C943.36 528.659 941.822 526.785 940.913 524.592C940.005 522.399 939.768 519.987 940.231 517.659C940.694 515.331 941.836 513.193 943.515 511.515C945.193 509.836 947.331 508.694 949.659 508.231C951.987 507.768 954.399 508.005 956.592 508.913C958.785 509.822 960.659 511.36 961.978 513.333C963.296 515.307 964 517.627 964 520C964 523.183 962.736 526.235 960.485 528.485C958.235 530.736 955.183 532 952 532Z" fill="currentColor" fill-rule="nonzero" />
		<path id="Vector 386" d="M960.41 515L959 513.59L957 515.59L955 513.59L953.59 515L955.59 517L953.59 519L955 520.41L957 518.41L959 520.41L960.41 519L958.41 517L960.41 515ZM950.41 515L949 513.59L947 515.59L945 513.59L943.59 515L945.59 517L943.59 519L945 520.41L947 518.41L949 520.41L950.41 519L948.41 517L950.41 515ZM952 523C951.407 523 950.827 523.176 950.333 523.506C949.84 523.835 949.456 524.304 949.228 524.852C949.001 525.4 948.942 526.003 949.058 526.585C949.173 527.167 949.459 527.702 949.879 528.121C950.298 528.541 950.833 528.827 951.415 528.943C951.997 529.058 952.6 528.999 953.148 528.772C953.696 528.545 954.165 528.16 954.494 527.667C954.824 527.173 955 526.593 955 526C955 525.204 954.684 524.441 954.121 523.879C953.559 523.316 952.796 523 952 523Z" fill="currentColor" fill-rule="nonzero" />
  </g>
</svg>

