<svg viewBox="0 0 32 32" xmlns="http://www.w3.org/2000/svg" fill="none">
  <g transform="translate(-1512.000122 -504)">
<path id="Vector 398" d="M1528 506C1525.23 506 1522.52 506.821 1520.22 508.359C1517.92 509.898 1516.13 512.084 1515.07 514.642C1514.01 517.201 1513.73 520.016 1514.27 522.731C1514.81 525.447 1516.14 527.942 1518.1 529.899C1520.06 531.857 1522.55 533.191 1525.27 533.731C1527.98 534.271 1530.8 533.994 1533.36 532.934C1535.92 531.875 1538.1 530.08 1539.64 527.778C1541.18 525.476 1542 522.769 1542 520C1542 516.287 1540.53 512.726 1537.9 510.1C1535.27 507.475 1531.71 506 1528 506ZM1523.5 515C1523.99 515 1524.48 515.147 1524.89 515.421C1525.3 515.696 1525.62 516.086 1525.81 516.543C1526 517 1526.05 517.503 1525.95 517.988C1525.86 518.473 1525.62 518.918 1525.27 519.268C1524.92 519.617 1524.47 519.856 1523.99 519.952C1523.5 520.048 1523 519.999 1522.54 519.81C1522.09 519.62 1521.7 519.3 1521.42 518.889C1521.15 518.478 1521 517.995 1521 517.5C1521 517.171 1521.06 516.845 1521.19 516.54C1521.31 516.236 1521.49 515.959 1521.73 515.726C1521.96 515.494 1522.24 515.31 1522.54 515.185C1522.84 515.06 1523.17 514.997 1523.5 515ZM1528 528C1526.62 527.998 1525.26 527.638 1524.06 526.957C1522.86 526.275 1521.86 525.294 1521.15 524.11L1522.86 523.11C1523.39 523.996 1524.15 524.729 1525.05 525.238C1525.95 525.747 1526.97 526.015 1528 526.015C1529.03 526.015 1530.05 525.747 1530.95 525.238C1531.85 524.729 1532.61 523.996 1533.14 523.11L1534.85 524.11C1534.14 525.294 1533.14 526.275 1531.94 526.957C1530.74 527.638 1529.38 527.998 1528 528ZM1532.5 520C1532.01 520 1531.52 519.853 1531.11 519.579C1530.7 519.304 1530.38 518.914 1530.19 518.457C1530 518 1529.95 517.497 1530.05 517.012C1530.14 516.527 1530.38 516.082 1530.73 515.732C1531.08 515.383 1531.53 515.144 1532.01 515.048C1532.5 514.952 1533 515.001 1533.46 515.19C1533.91 515.38 1534.3 515.7 1534.58 516.111C1534.85 516.522 1535 517.005 1535 517.5C1535 517.829 1534.94 518.155 1534.82 518.46C1534.69 518.764 1534.51 519.041 1534.27 519.274C1534.04 519.506 1533.76 519.69 1533.46 519.815C1533.16 519.94 1532.83 520.003 1532.5 520Z" fill="currentColor" fill-rule="nonzero" />
  </g>
</svg>

