<svg viewBox="0 0 32 32" xmlns="http://www.w3.org/2000/svg" fill="none">
  <g transform="translate(-1368.000122 -504)">
<path id="Vector 395" d="M1384 506C1381.23 506 1378.52 506.821 1376.22 508.359C1373.92 509.898 1372.13 512.084 1371.07 514.642C1370.01 517.201 1369.73 520.016 1370.27 522.731C1370.81 525.447 1372.14 527.942 1374.1 529.899C1376.06 531.857 1378.55 533.191 1381.27 533.731C1383.98 534.271 1386.8 533.994 1389.36 532.934C1391.92 531.875 1394.1 530.08 1395.64 527.778C1397.18 525.476 1398 522.769 1398 520C1398 516.287 1396.53 512.726 1393.9 510.1C1391.27 507.475 1387.71 506 1384 506ZM1379.5 520C1379.01 520 1378.52 519.853 1378.11 519.579C1377.7 519.304 1377.38 518.914 1377.19 518.457C1377 518 1376.95 517.497 1377.05 517.012C1377.14 516.527 1377.38 516.082 1377.73 515.732C1378.08 515.383 1378.53 515.144 1379.01 515.048C1379.5 514.952 1380 515.001 1380.46 515.19C1380.91 515.38 1381.3 515.7 1381.58 516.111C1381.85 516.522 1382 517.005 1382 517.5C1382 517.829 1381.94 518.155 1381.82 518.46C1381.69 518.764 1381.51 519.041 1381.27 519.274C1381.04 519.506 1380.76 519.69 1380.46 519.815C1380.16 519.94 1379.83 520.003 1379.5 520ZM1388.5 520C1388.01 520 1387.52 519.853 1387.11 519.579C1386.7 519.304 1386.38 518.914 1386.19 518.457C1386 518 1385.95 517.497 1386.05 517.012C1386.14 516.527 1386.38 516.082 1386.73 515.732C1387.08 515.383 1387.53 515.144 1388.01 515.048C1388.5 514.952 1389 515.001 1389.46 515.19C1389.91 515.38 1390.3 515.7 1390.58 516.111C1390.85 516.522 1391 517.005 1391 517.5C1391 517.829 1390.94 518.155 1390.82 518.46C1390.69 518.764 1390.51 519.041 1390.27 519.274C1390.04 519.506 1389.76 519.69 1389.46 519.815C1389.16 519.94 1388.83 520.003 1388.5 520Z" fill="currentColor" fill-rule="nonzero" />
  </g>
</svg>

