<svg viewBox="0 0 32 32" xmlns="http://www.w3.org/2000/svg" fill="none">
  <g transform="translate(-1584.000122 -504)">
<path id="Vector 399" d="M1600 506C1597.23 506 1594.52 506.821 1592.22 508.359C1589.92 509.898 1588.13 512.084 1587.07 514.642C1586.01 517.201 1585.73 520.016 1586.27 522.731C1586.81 525.447 1588.14 527.942 1590.1 529.899C1592.06 531.857 1594.55 533.191 1597.27 533.731C1599.98 534.271 1602.8 533.994 1605.36 532.934C1607.92 531.875 1610.1 530.08 1611.64 527.778C1613.18 525.476 1614 522.769 1614 520C1614 516.287 1612.53 512.726 1609.9 510.1C1607.27 507.475 1603.71 506 1600 506ZM1600 532C1597.63 532 1595.31 531.296 1593.33 529.978C1591.36 528.659 1589.82 526.785 1588.91 524.592C1588.01 522.399 1587.77 519.987 1588.23 517.659C1588.69 515.331 1589.84 513.193 1591.51 511.515C1593.19 509.836 1595.33 508.694 1597.66 508.231C1599.99 507.768 1602.4 508.005 1604.59 508.913C1606.79 509.822 1608.66 511.36 1609.98 513.333C1611.3 515.307 1612 517.627 1612 520C1612 523.183 1610.74 526.235 1608.49 528.485C1606.23 530.736 1603.18 532 1600 532Z" fill="currentColor" fill-rule="nonzero" />
		<path id="Vector 400" d="M1604.5 515C1604.01 515 1603.52 515.147 1603.11 515.421C1602.7 515.696 1602.38 516.086 1602.19 516.543C1602 517 1601.95 517.503 1602.05 517.988C1602.14 518.473 1602.38 518.918 1602.73 519.268C1603.08 519.617 1603.53 519.856 1604.01 519.952C1604.5 520.048 1605 519.999 1605.46 519.81C1605.91 519.62 1606.3 519.3 1606.58 518.889C1606.85 518.478 1607 517.995 1607 517.5C1607 516.837 1606.74 516.201 1606.27 515.732C1605.8 515.263 1605.16 515 1604.5 515ZM1592 517L1598 517L1598 519L1592 519L1592 517ZM1600 528C1601.38 527.998 1602.74 527.638 1603.94 526.957C1605.14 526.275 1606.14 525.294 1606.85 524.11L1605.14 523.11C1604.61 523.996 1603.85 524.729 1602.95 525.238C1602.05 525.747 1601.03 526.015 1600 526.015C1598.97 526.015 1597.95 525.747 1597.05 525.238C1596.15 524.729 1595.39 523.996 1594.86 523.11L1593.15 524.11C1593.86 525.294 1594.86 526.275 1596.06 526.957C1597.26 527.638 1598.62 527.998 1600 528Z" fill="currentColor" fill-rule="nonzero" />
  </g>
</svg>

