<svg viewBox="0 0 32 32" xmlns="http://www.w3.org/2000/svg" fill="none">
  <g transform="translate(-1224 -504)">
<path id="Vector 392" d="M1240 506C1237.23 506 1234.52 506.821 1232.22 508.359C1229.92 509.898 1228.13 512.084 1227.07 514.642C1226.01 517.201 1225.73 520.016 1226.27 522.731C1226.81 525.447 1228.14 527.942 1230.1 529.899C1232.06 531.857 1234.55 533.191 1237.27 533.731C1239.98 534.271 1242.8 533.994 1245.36 532.934C1247.92 531.875 1250.1 530.08 1251.64 527.778C1253.18 525.476 1254 522.769 1254 520C1254 516.287 1252.53 512.726 1249.9 510.1C1247.27 507.475 1243.71 506 1240 506ZM1233 517.5C1233 517.005 1233.15 516.522 1233.42 516.111C1233.7 515.7 1234.09 515.38 1234.54 515.19C1235 515.001 1235.5 514.952 1235.99 515.048C1236.47 515.144 1236.92 515.383 1237.27 515.732C1237.62 516.082 1237.86 516.527 1237.95 517.012C1238.05 517.497 1238 518 1237.81 518.457C1237.62 518.914 1237.3 519.304 1236.89 519.579C1236.48 519.853 1235.99 520 1235.5 520C1234.84 520 1234.2 519.737 1233.73 519.268C1233.26 518.799 1233 518.163 1233 517.5ZM1246 526L1234 526L1234 524L1246 524L1246 526ZM1244.5 520C1244.01 520 1243.52 519.853 1243.11 519.579C1242.7 519.304 1242.38 518.914 1242.19 518.457C1242 518 1241.95 517.497 1242.05 517.012C1242.14 516.527 1242.38 516.082 1242.73 515.732C1243.08 515.383 1243.53 515.144 1244.01 515.048C1244.5 514.952 1245 515.001 1245.46 515.19C1245.91 515.38 1246.3 515.7 1246.58 516.111C1246.85 516.522 1247 517.005 1247 517.5C1247 518.163 1246.74 518.799 1246.27 519.268C1245.8 519.737 1245.16 520 1244.5 520Z" fill="currentColor" fill-rule="nonzero" />
  </g>
</svg>

