<svg viewBox="0 0 32 32" xmlns="http://www.w3.org/2000/svg" fill="none">
  <g transform="translate(-1152 -504)">
<path id="Vector 390" d="M1168 506C1165.23 506 1162.52 506.821 1160.22 508.359C1157.92 509.898 1156.13 512.084 1155.07 514.642C1154.01 517.201 1153.73 520.016 1154.27 522.731C1154.81 525.447 1156.14 527.942 1158.1 529.899C1160.06 531.857 1162.55 533.191 1165.27 533.731C1167.98 534.271 1170.8 533.994 1173.36 532.934C1175.92 531.875 1178.1 530.08 1179.64 527.778C1181.18 525.476 1182 522.769 1182 520C1182 516.287 1180.53 512.726 1177.9 510.1C1175.27 507.475 1171.71 506 1168 506ZM1168 532C1165.63 532 1163.31 531.296 1161.33 529.978C1159.36 528.659 1157.82 526.785 1156.91 524.592C1156.01 522.399 1155.77 519.987 1156.23 517.659C1156.69 515.331 1157.84 513.193 1159.51 511.515C1161.19 509.836 1163.33 508.694 1165.66 508.231C1167.99 507.768 1170.4 508.005 1172.59 508.913C1174.78 509.822 1176.66 511.36 1177.98 513.333C1179.3 515.307 1180 517.627 1180 520C1180 523.183 1178.74 526.235 1176.49 528.485C1174.23 530.736 1171.18 532 1168 532Z" fill="currentColor" fill-rule="nonzero" />
		<path id="Vector 391" d="M1163.5 515C1163.01 515 1162.52 515.147 1162.11 515.421C1161.7 515.696 1161.38 516.086 1161.19 516.543C1161 517 1160.95 517.503 1161.05 517.988C1161.14 518.473 1161.38 518.918 1161.73 519.268C1162.08 519.617 1162.53 519.856 1163.01 519.952C1163.5 520.048 1164 519.999 1164.46 519.81C1164.91 519.62 1165.3 519.3 1165.58 518.889C1165.85 518.478 1166 517.995 1166 517.5C1166 516.837 1165.74 516.201 1165.27 515.732C1164.8 515.263 1164.16 515 1163.5 515ZM1172.5 515C1172.01 515 1171.52 515.147 1171.11 515.421C1170.7 515.696 1170.38 516.086 1170.19 516.543C1170 517 1169.95 517.503 1170.05 517.988C1170.14 518.473 1170.38 518.918 1170.73 519.268C1171.08 519.617 1171.53 519.856 1172.01 519.952C1172.5 520.048 1173 519.999 1173.46 519.81C1173.91 519.62 1174.3 519.3 1174.58 518.889C1174.85 518.478 1175 517.995 1175 517.5C1175 516.837 1174.74 516.201 1174.27 515.732C1173.8 515.263 1173.16 515 1172.5 515ZM1162 524L1174 524L1174 526L1162 526L1162 524Z" fill="currentColor" fill-rule="nonzero" />
  </g>
</svg>

