<svg viewBox="0 0 32 32" xmlns="http://www.w3.org/2000/svg" fill="none">
  <g transform="translate(-864 -504)">
<path id="Vector 384" d="M880 506C877.231 506 874.524 506.821 872.222 508.359C869.92 509.898 868.125 512.084 867.066 514.642C866.006 517.201 865.729 520.016 866.269 522.731C866.809 525.447 868.143 527.942 870.101 529.899C872.058 531.857 874.553 533.191 877.269 533.731C879.984 534.271 882.799 533.994 885.358 532.934C887.916 531.875 890.102 530.08 891.641 527.778C893.179 525.476 894 522.769 894 520C894 516.287 892.525 512.726 889.899 510.1C887.274 507.475 883.713 506 880 506ZM875.5 515C875.995 515 876.478 515.147 876.889 515.421C877.3 515.696 877.62 516.086 877.81 516.543C877.999 517 878.048 517.503 877.952 517.988C877.856 518.473 877.617 518.918 877.268 519.268C876.918 519.617 876.473 519.856 875.988 519.952C875.503 520.048 875 519.999 874.543 519.81C874.086 519.62 873.696 519.3 873.421 518.889C873.147 518.478 873 517.995 873 517.5C872.997 517.167 873.061 516.838 873.188 516.531C873.316 516.224 873.503 515.945 873.74 515.712C873.977 515.479 874.259 515.295 874.568 515.173C874.877 515.051 875.208 514.992 875.54 515L875.5 515ZM885.14 527.92C884.606 527.034 883.853 526.301 882.952 525.792C882.051 525.283 881.034 525.015 880 525.015C878.966 525.015 877.949 525.283 877.048 525.792C876.147 526.301 875.394 527.034 874.86 527.92L873.15 526.92C873.862 525.74 874.867 524.764 876.067 524.086C877.267 523.409 878.622 523.052 880 523.052C881.378 523.052 882.733 523.409 883.933 524.086C885.133 524.764 886.138 525.74 886.85 526.92L885.14 527.92ZM884.5 520C883.837 520 883.201 519.737 882.732 519.268C882.263 518.799 882 518.163 882 517.5C882 516.837 882.263 516.201 882.732 515.732C883.201 515.263 883.837 515 884.5 515C885.163 515 885.799 515.263 886.268 515.732C886.737 516.201 887 516.837 887 517.5C887 518.163 886.737 518.799 886.268 519.268C885.799 519.737 885.163 520 884.5 520Z" fill="currentColor" fill-rule="nonzero" />
  </g>
</svg>

