<svg viewBox="0 0 32 32" xmlns="http://www.w3.org/2000/svg" fill="none">
  <g transform="translate(-720 -504)">
<path id="Vector 380" d="M736 528C737.38 527.998 738.737 527.638 739.937 526.956C741.137 526.275 742.141 525.294 742.85 524.11L741.14 523.11C740.606 523.996 739.853 524.729 738.952 525.238C738.051 525.747 737.034 526.015 736 526.015C734.966 526.015 733.949 525.747 733.048 525.238C732.147 524.729 731.394 523.996 730.86 523.11L729.15 524.11C729.859 525.294 730.863 526.275 732.063 526.956C733.263 527.638 734.62 527.998 736 528Z" fill="currentColor" fill-rule="nonzero" />
		<path id="Vector 381" d="M736 506C733.231 506 730.524 506.821 728.222 508.359C725.92 509.898 724.125 512.084 723.066 514.642C722.006 517.201 721.729 520.016 722.269 522.731C722.809 525.447 724.143 527.942 726.101 529.899C728.058 531.857 730.553 533.191 733.269 533.731C735.984 534.271 738.799 533.994 741.358 532.934C743.916 531.875 746.102 530.08 747.641 527.778C749.179 525.476 750 522.769 750 520C750 516.287 748.525 512.726 745.899 510.1C743.274 507.475 739.713 506 736 506ZM736 508C738.294 508.004 740.54 508.665 742.47 509.906C744.4 511.146 745.934 512.914 746.89 515L745 515C745 514.735 744.895 514.48 744.707 514.293C744.52 514.105 744.265 514 744 514L728 514C727.735 514 727.48 514.105 727.293 514.293C727.105 514.48 727 514.735 727 515L725.11 515C726.066 512.914 727.6 511.146 729.53 509.906C731.46 508.665 733.706 508.004 736 508ZM736 532C732.817 532 729.765 530.736 727.515 528.485C725.264 526.235 724 523.183 724 520C724.006 518.987 724.141 517.979 724.4 517L727 517L727 519C727 519.53 727.211 520.039 727.586 520.414C727.961 520.789 728.47 521 729 521L732.31 521C732.788 521.006 733.252 520.842 733.619 520.535C733.986 520.229 734.231 519.801 734.31 519.33L734.83 516L737.17 516L737.72 519.33C737.799 519.801 738.044 520.229 738.411 520.535C738.778 520.842 739.242 521.006 739.72 521L743 521C743.53 521 744.039 520.789 744.414 520.414C744.789 520.039 745 519.53 745 519L745 517L747.6 517C747.859 517.979 747.994 518.987 748 520C748 523.183 746.736 526.235 744.485 528.485C742.235 530.736 739.183 532 736 532Z" fill="currentColor" fill-rule="nonzero" />
  </g>
</svg>

