<svg viewBox="0 0 32 32" xmlns="http://www.w3.org/2000/svg" fill="none">
  <g transform="translate(-1656.000122 -504)">
<path id="Vector 401" d="M1672 506C1669.23 506 1666.52 506.821 1664.22 508.359C1661.92 509.898 1660.13 512.084 1659.07 514.642C1658.01 517.201 1657.73 520.016 1658.27 522.731C1658.81 525.447 1660.14 527.942 1662.1 529.899C1664.06 531.857 1666.55 533.191 1669.27 533.731C1671.98 534.271 1674.8 533.994 1677.36 532.934C1679.92 531.875 1682.1 530.08 1683.64 527.778C1685.18 525.476 1686 522.769 1686 520C1686 516.287 1684.53 512.726 1681.9 510.1C1679.27 507.475 1675.71 506 1672 506ZM1664 517L1670 517L1670 519L1664 519L1664 517ZM1672 528C1670.62 527.998 1669.26 527.638 1668.06 526.957C1666.86 526.275 1665.86 525.294 1665.15 524.11L1666.86 523.11C1667.39 523.996 1668.15 524.729 1669.05 525.238C1669.95 525.747 1670.97 526.015 1672 526.015C1673.03 526.015 1674.05 525.747 1674.95 525.238C1675.85 524.729 1676.61 523.996 1677.14 523.11L1678.85 524.11C1678.14 525.294 1677.14 526.275 1675.94 526.957C1674.74 527.638 1673.38 527.998 1672 528ZM1676.5 520C1675.84 520 1675.2 519.737 1674.73 519.268C1674.26 518.799 1674 518.163 1674 517.5C1674 516.837 1674.26 516.201 1674.73 515.732C1675.2 515.263 1675.84 515 1676.5 515C1677.16 515 1677.8 515.263 1678.27 515.732C1678.74 516.201 1679 516.837 1679 517.5C1679 518.163 1678.74 518.799 1678.27 519.268C1677.8 519.737 1677.16 520 1676.5 520Z" fill="currentColor" fill-rule="nonzero" />
  </g>
</svg>

