<svg viewBox="0 0 32 32" xmlns="http://www.w3.org/2000/svg" fill="none">
  <g transform="translate(-1440.000122 -504)">
<path id="Vector 396" d="M1456 506C1453.23 506 1450.52 506.821 1448.22 508.359C1445.92 509.898 1444.13 512.084 1443.07 514.642C1442.01 517.201 1441.73 520.016 1442.27 522.731C1442.81 525.447 1444.14 527.942 1446.1 529.899C1448.06 531.857 1450.55 533.191 1453.27 533.731C1455.98 534.271 1458.8 533.994 1461.36 532.934C1463.92 531.875 1466.1 530.08 1467.64 527.778C1469.18 525.476 1470 522.769 1470 520C1470 516.287 1468.53 512.726 1465.9 510.1C1463.27 507.475 1459.71 506 1456 506ZM1456 532C1453.63 532 1451.31 531.296 1449.33 529.978C1447.36 528.659 1445.82 526.785 1444.91 524.592C1444.01 522.399 1443.77 519.987 1444.23 517.659C1444.69 515.331 1445.84 513.193 1447.51 511.515C1449.19 509.836 1451.33 508.694 1453.66 508.231C1455.99 507.768 1458.4 508.005 1460.59 508.913C1462.79 509.822 1464.66 511.36 1465.98 513.333C1467.3 515.307 1468 517.627 1468 520C1468 523.183 1466.74 526.235 1464.49 528.485C1462.23 530.736 1459.18 532 1456 532Z" fill="currentColor" fill-rule="nonzero" />
		<path id="Vector 397" d="M1451.5 515C1451.01 515 1450.52 515.147 1450.11 515.421C1449.7 515.696 1449.38 516.087 1449.19 516.543C1449 517 1448.95 517.503 1449.05 517.988C1449.14 518.473 1449.38 518.918 1449.73 519.268C1450.08 519.617 1450.53 519.856 1451.01 519.952C1451.5 520.048 1452 519.999 1452.46 519.81C1452.91 519.621 1453.3 519.3 1453.58 518.889C1453.85 518.478 1454 517.995 1454 517.5C1454 517.171 1453.94 516.845 1453.82 516.54C1453.69 516.236 1453.51 515.959 1453.27 515.726C1453.04 515.494 1452.76 515.31 1452.46 515.185C1452.16 515.06 1451.83 514.997 1451.5 515ZM1460.5 515C1460.01 515 1459.52 515.147 1459.11 515.421C1458.7 515.696 1458.38 516.087 1458.19 516.543C1458 517 1457.95 517.503 1458.05 517.988C1458.14 518.473 1458.38 518.918 1458.73 519.268C1459.08 519.617 1459.53 519.856 1460.01 519.952C1460.5 520.048 1461 519.999 1461.46 519.81C1461.91 519.621 1462.3 519.3 1462.58 518.889C1462.85 518.478 1463 517.995 1463 517.5C1463 517.171 1462.94 516.845 1462.82 516.54C1462.69 516.236 1462.51 515.959 1462.27 515.726C1462.04 515.494 1461.76 515.31 1461.46 515.185C1461.16 515.06 1460.83 514.997 1460.5 515ZM1456 528C1457.38 527.998 1458.74 527.638 1459.94 526.957C1461.14 526.275 1462.14 525.294 1462.85 524.11L1461.14 523.11C1460.61 523.996 1459.85 524.729 1458.95 525.238C1458.05 525.747 1457.03 526.015 1456 526.015C1454.97 526.015 1453.95 525.747 1453.05 525.238C1452.15 524.729 1451.39 523.996 1450.86 523.11L1449.15 524.11C1449.86 525.294 1450.86 526.275 1452.06 526.957C1453.26 527.638 1454.62 527.998 1456 528Z" fill="currentColor" fill-rule="nonzero" />
  </g>
</svg>

