<svg viewBox="0 0 32 32" xmlns="http://www.w3.org/2000/svg" fill="none">
  <g transform="translate(-792 -504)">
<path id="Vector 382" d="M808 506C805.231 506 802.524 506.821 800.222 508.359C797.92 509.898 796.125 512.084 795.066 514.642C794.006 517.201 793.729 520.016 794.269 522.731C794.809 525.447 796.143 527.942 798.101 529.899C800.058 531.857 802.553 533.191 805.269 533.731C807.984 534.271 810.799 533.994 813.358 532.934C815.916 531.875 818.102 530.08 819.641 527.778C821.179 525.476 822 522.769 822 520C822 516.287 820.525 512.726 817.899 510.1C815.274 507.475 811.713 506 808 506ZM808 532C805.627 532 803.307 531.296 801.333 529.978C799.36 528.659 797.822 526.785 796.913 524.592C796.005 522.399 795.768 519.987 796.231 517.659C796.694 515.331 797.836 513.193 799.515 511.515C801.193 509.836 803.331 508.694 805.659 508.231C807.987 507.768 810.399 508.005 812.592 508.913C814.785 509.822 816.659 511.36 817.978 513.333C819.296 515.307 820 517.627 820 520C820 523.183 818.736 526.235 816.485 528.485C814.235 530.736 811.183 532 808 532Z" fill="currentColor" fill-rule="nonzero" />
		<path id="Vector 383" d="M803.5 515C803.005 515 802.522 515.147 802.111 515.421C801.7 515.696 801.38 516.086 801.19 516.543C801.001 517 800.952 517.503 801.048 517.988C801.145 518.473 801.383 518.918 801.732 519.268C802.082 519.617 802.527 519.856 803.012 519.952C803.497 520.048 804 519.999 804.457 519.81C804.914 519.62 805.304 519.3 805.579 518.889C805.853 518.478 806 517.995 806 517.5C806 516.837 805.737 516.201 805.268 515.732C804.799 515.263 804.163 515 803.5 515ZM812.5 515C812.005 515 811.522 515.147 811.111 515.421C810.7 515.696 810.38 516.086 810.19 516.543C810.001 517 809.952 517.503 810.048 517.988C810.145 518.473 810.383 518.918 810.732 519.268C811.082 519.617 811.527 519.856 812.012 519.952C812.497 520.048 813 519.999 813.457 519.81C813.914 519.62 814.304 519.3 814.579 518.889C814.853 518.478 815 517.995 815 517.5C815 516.837 814.737 516.201 814.268 515.732C813.799 515.263 813.163 515 812.5 515ZM808 523C806.62 523.002 805.263 523.362 804.063 524.043C802.863 524.725 801.859 525.706 801.15 526.89L802.86 527.89C803.394 527.004 804.147 526.271 805.048 525.762C805.949 525.253 806.966 524.985 808 524.985C809.034 524.985 810.051 525.253 810.952 525.762C811.853 526.271 812.606 527.004 813.14 527.89L814.85 526.89C814.141 525.706 813.137 524.725 811.937 524.043C810.737 523.362 809.38 523.002 808 523Z" fill="currentColor" fill-rule="nonzero" />
  </g>
</svg>

