<svg viewBox="0 0 32 32" xmlns="http://www.w3.org/2000/svg" fill="none">
  <g transform="translate(-432 -504)">
<path id="Vector 373" d="M448 506C445.231 506 442.524 506.821 440.222 508.359C437.92 509.898 436.125 512.084 435.066 514.642C434.006 517.201 433.729 520.016 434.269 522.731C434.809 525.447 436.143 527.942 438.101 529.899C440.058 531.857 442.553 533.191 445.269 533.731C447.984 534.271 450.799 533.994 453.358 532.934C455.916 531.875 458.102 530.08 459.641 527.778C461.179 525.476 462 522.769 462 520C462 516.287 460.525 512.726 457.9 510.1C455.274 507.475 451.713 506 448 506ZM448 532C445.627 532 443.307 531.296 441.333 529.978C439.36 528.659 437.822 526.785 436.913 524.592C436.005 522.399 435.768 519.987 436.231 517.659C436.694 515.331 437.836 513.193 439.515 511.515C441.193 509.836 443.331 508.694 445.659 508.231C447.987 507.768 450.4 508.005 452.592 508.913C454.785 509.822 456.659 511.36 457.978 513.333C459.296 515.307 460 517.627 460 520C460 523.183 458.736 526.235 456.485 528.485C454.235 530.736 451.183 532 448 532Z" fill="currentColor" fill-rule="nonzero" />
		<path id="Vector 374" d="M443.5 515C443.005 515 442.522 515.147 442.111 515.421C441.7 515.696 441.38 516.087 441.19 516.543C441.001 517 440.952 517.503 441.048 517.988C441.145 518.473 441.383 518.918 441.732 519.268C442.082 519.617 442.527 519.856 443.012 519.952C443.497 520.048 444 519.999 444.457 519.81C444.914 519.621 445.304 519.3 445.579 518.889C445.853 518.478 446 517.995 446 517.5C446.003 517.171 445.94 516.845 445.815 516.54C445.69 516.236 445.506 515.959 445.274 515.726C445.041 515.494 444.764 515.31 444.46 515.185C444.155 515.06 443.829 514.997 443.5 515ZM452.5 515C452.005 515 451.522 515.147 451.111 515.421C450.7 515.696 450.38 516.087 450.19 516.543C450.001 517 449.952 517.503 450.048 517.988C450.145 518.473 450.383 518.918 450.732 519.268C451.082 519.617 451.527 519.856 452.012 519.952C452.497 520.048 453 519.999 453.457 519.81C453.914 519.621 454.304 519.3 454.579 518.889C454.853 518.478 455 517.995 455 517.5C455.003 517.171 454.94 516.845 454.815 516.54C454.69 516.236 454.506 515.959 454.274 515.726C454.041 515.494 453.764 515.31 453.46 515.185C453.155 515.06 452.829 514.997 452.5 515ZM441 524C441.719 525.217 442.742 526.226 443.97 526.926C445.198 527.627 446.587 527.995 448 527.995C449.413 527.995 450.802 527.627 452.03 526.926C453.258 526.226 454.281 525.217 455 524L441 524Z" fill="currentColor" fill-rule="nonzero" />
  </g>
</svg>

