<svg viewBox="0 0 32 32" xmlns="http://www.w3.org/2000/svg" fill="none">
  <g transform="translate(-1008 -504)">
<path id="Vector 387" d="M1024 506C1021.23 506 1018.52 506.821 1016.22 508.359C1013.92 509.898 1012.13 512.084 1011.07 514.642C1010.01 517.201 1009.73 520.016 1010.27 522.731C1010.81 525.447 1012.14 527.942 1014.1 529.899C1016.06 531.857 1018.55 533.191 1021.27 533.731C1023.98 534.271 1026.8 533.994 1029.36 532.934C1031.92 531.875 1034.1 530.08 1035.64 527.778C1037.18 525.476 1038 522.769 1038 520C1038 516.287 1036.53 512.726 1033.9 510.1C1031.27 507.475 1027.71 506 1024 506ZM1017 520.41L1015.59 519L1017.59 517L1015.59 515L1017 513.59L1019 515.59L1021 513.59L1022.41 515L1020.41 517L1022.41 519L1021 520.41L1019 518.41L1017 520.41ZM1024 529C1023.41 529 1022.83 528.824 1022.33 528.494C1021.84 528.165 1021.46 527.696 1021.23 527.148C1021 526.6 1020.94 525.997 1021.06 525.415C1021.17 524.833 1021.46 524.298 1021.88 523.879C1022.3 523.459 1022.83 523.173 1023.41 523.058C1024 522.942 1024.6 523.001 1025.15 523.228C1025.7 523.455 1026.16 523.84 1026.49 524.333C1026.82 524.827 1027 525.407 1027 526C1027 526.796 1026.68 527.559 1026.12 528.121C1025.56 528.684 1024.8 529 1024 529ZM1032.41 519L1031 520.41L1029 518.41L1027 520.41L1025.59 519L1027.59 517L1025.59 515L1027 513.59L1029 515.59L1031 513.59L1032.41 515L1030.41 517L1032.41 519Z" fill="currentColor" fill-rule="nonzero" />
  </g>
</svg>

