<svg viewBox="0 0 32 32" xmlns="http://www.w3.org/2000/svg" fill="none">
  <g transform="translate(-648 -504)">
<path id="Vector 378" d="M664 526C662.964 525.998 661.946 525.729 661.045 525.217C660.145 524.705 659.392 523.969 658.86 523.08L657.15 524.08C657.862 525.26 658.867 526.236 660.067 526.914C661.267 527.591 662.622 527.948 664 527.948C665.378 527.948 666.733 527.591 667.933 526.914C669.133 526.236 670.138 525.26 670.85 524.08L669.14 523.08C668.608 523.969 667.855 524.705 666.955 525.217C666.054 525.729 665.036 525.998 664 526ZM678 508L674 508L674 504L672 504L672 508L668 508L668 510L672 510L672 514L674 514L674 510L678 510L678 508ZM659.5 515C659.005 515 658.522 515.147 658.111 515.421C657.7 515.696 657.38 516.086 657.19 516.543C657.001 517 656.952 517.503 657.048 517.988C657.145 518.473 657.383 518.918 657.732 519.268C658.082 519.617 658.527 519.856 659.012 519.952C659.497 520.048 660 519.999 660.457 519.81C660.914 519.62 661.304 519.3 661.579 518.889C661.853 518.478 662 517.995 662 517.5C662.003 517.171 661.94 516.845 661.815 516.54C661.69 516.236 661.506 515.959 661.274 515.726C661.041 515.494 660.764 515.31 660.46 515.185C660.155 515.06 659.829 514.997 659.5 515ZM668.5 515C668.005 515 667.522 515.147 667.111 515.421C666.7 515.696 666.38 516.086 666.19 516.543C666.001 517 665.952 517.503 666.048 517.988C666.145 518.473 666.383 518.918 666.732 519.268C667.082 519.617 667.527 519.856 668.012 519.952C668.497 520.048 669 519.999 669.457 519.81C669.914 519.62 670.304 519.3 670.579 518.889C670.853 518.478 671 517.995 671 517.5C671.003 517.171 670.94 516.845 670.815 516.54C670.69 516.236 670.506 515.959 670.274 515.726C670.041 515.494 669.764 515.31 669.46 515.185C669.155 515.06 668.829 514.997 668.5 515Z" fill="currentColor" fill-rule="nonzero" />
		<path id="Vector 379" d="M675.61 517C675.863 517.98 675.994 518.988 676 520C676 522.373 675.296 524.693 673.978 526.667C672.659 528.64 670.785 530.178 668.592 531.087C666.399 531.995 663.987 532.232 661.659 531.769C659.331 531.306 657.193 530.164 655.515 528.485C653.836 526.807 652.694 524.669 652.231 522.341C651.768 520.013 652.005 517.601 652.913 515.408C653.822 513.215 655.36 511.341 657.333 510.022C659.307 508.704 661.627 508 664 508L664 506C661.102 505.999 658.275 506.897 655.909 508.571C653.543 510.245 651.755 512.612 650.792 515.345C649.828 518.078 649.736 521.043 650.529 523.83C651.322 526.618 652.961 529.09 655.218 530.907C657.476 532.724 660.242 533.795 663.135 533.974C666.027 534.152 668.904 533.428 671.367 531.902C673.831 530.376 675.76 528.123 676.889 525.453C678.018 522.784 678.291 519.831 677.67 517L675.61 517Z" fill="currentColor" fill-rule="nonzero" />
  </g>
</svg>

