<svg viewBox="0 0 32 32" xmlns="http://www.w3.org/2000/svg" fill="none">
  <g transform="translate(-576 -504)">
<path id="Vector 377" d="M592 506C589.231 506 586.524 506.821 584.222 508.359C581.92 509.898 580.125 512.084 579.066 514.642C578.006 517.201 577.729 520.016 578.269 522.731C578.809 525.447 580.143 527.942 582.101 529.899C584.058 531.857 586.553 533.191 589.269 533.731C591.984 534.271 594.799 533.994 597.358 532.934C599.916 531.875 602.102 530.08 603.641 527.778C605.179 525.476 606 522.769 606 520C606 516.287 604.525 512.726 601.899 510.1C599.274 507.475 595.713 506 592 506ZM587.5 515C587.995 515 588.478 515.147 588.889 515.421C589.3 515.696 589.62 516.086 589.81 516.543C589.999 517 590.048 517.503 589.952 517.988C589.856 518.473 589.617 518.918 589.268 519.268C588.918 519.617 588.473 519.856 587.988 519.952C587.503 520.048 587 519.999 586.543 519.81C586.086 519.62 585.696 519.3 585.421 518.889C585.147 518.478 585 517.995 585 517.5C584.997 517.171 585.06 516.845 585.185 516.54C585.31 516.236 585.494 515.959 585.726 515.726C585.959 515.494 586.236 515.31 586.54 515.185C586.845 515.06 587.171 514.997 587.5 515ZM592 528C590.586 528.002 589.196 527.633 587.968 526.932C586.74 526.23 585.717 525.219 585 524L599 524C598.283 525.219 597.26 526.23 596.032 526.932C594.804 527.633 593.414 528.002 592 528ZM596.5 520C596.006 520 595.522 519.853 595.111 519.579C594.7 519.304 594.38 518.914 594.19 518.457C594.001 518 593.952 517.497 594.048 517.012C594.145 516.527 594.383 516.082 594.732 515.732C595.082 515.383 595.527 515.144 596.012 515.048C596.497 514.952 597 515.001 597.457 515.19C597.914 515.38 598.304 515.7 598.579 516.111C598.853 516.522 599 517.005 599 517.5C599.003 517.829 598.94 518.155 598.815 518.46C598.69 518.764 598.506 519.041 598.274 519.274C598.041 519.506 597.764 519.69 597.46 519.815C597.155 519.94 596.829 520.003 596.5 520Z" fill="currentColor" fill-rule="nonzero" />
  </g>
</svg>

