<svg viewBox="0 0 32 32" xmlns="http://www.w3.org/2000/svg" fill="none">
  <g transform="translate(-1080 -504)">
<path id="Vector 388" d="M1091.5 515C1091.01 515 1090.52 515.147 1090.11 515.421C1089.7 515.696 1089.38 516.086 1089.19 516.543C1089 517 1088.95 517.503 1089.05 517.988C1089.14 518.473 1089.38 518.918 1089.73 519.268C1090.08 519.617 1090.53 519.856 1091.01 519.952C1091.5 520.048 1092 519.999 1092.46 519.81C1092.91 519.62 1093.3 519.3 1093.58 518.889C1093.85 518.478 1094 517.995 1094 517.5C1094 516.837 1093.74 516.201 1093.27 515.732C1092.8 515.263 1092.16 515 1091.5 515ZM1100.5 515C1100.01 515 1099.52 515.147 1099.11 515.421C1098.7 515.696 1098.38 516.086 1098.19 516.543C1098 517 1097.95 517.503 1098.05 517.988C1098.14 518.473 1098.38 518.918 1098.73 519.268C1099.08 519.617 1099.53 519.856 1100.01 519.952C1100.5 520.048 1101 519.999 1101.46 519.81C1101.91 519.62 1102.3 519.3 1102.58 518.889C1102.85 518.478 1103 517.995 1103 517.5C1103 516.837 1102.74 516.201 1102.27 515.732C1101.8 515.263 1101.16 515 1100.5 515Z" fill="currentColor" fill-rule="nonzero" />
		<path id="Vector 389" d="M1110 520C1110 517.547 1109.36 515.135 1108.14 513.007C1106.92 510.879 1105.16 509.109 1103.04 507.875C1100.92 506.641 1098.51 505.986 1096.06 505.976C1093.6 505.966 1091.19 506.601 1089.06 507.817C1086.93 509.033 1085.16 510.788 1083.92 512.906C1082.68 515.023 1082.02 517.43 1082 519.883C1081.98 522.337 1082.61 524.752 1083.82 526.885C1085.03 529.02 1086.79 530.798 1088.9 532.042L1088.92 532.198C1088.96 532.692 1089.19 533.151 1089.56 533.484C1089.93 533.818 1090.41 534.002 1090.91 534L1101.09 534C1101.59 534.002 1102.07 533.818 1102.44 533.485C1102.81 533.152 1103.04 532.694 1103.08 532.2L1103.1 532.042C1105.2 530.81 1106.94 529.051 1108.15 526.939C1109.36 524.826 1110 522.435 1110 520ZM1096 508C1099.08 508.001 1102.03 509.185 1104.26 511.307C1106.49 513.428 1107.82 516.325 1107.97 519.397L1102.76 522L1089.24 522L1084.03 519.397C1084.18 516.325 1085.51 513.428 1087.74 511.307C1089.97 509.185 1092.92 508.001 1096 508ZM1084.12 521.678L1088.06 523.648L1088.64 529.458C1086.18 527.552 1084.56 524.761 1084.12 521.678ZM1101.09 532L1090.91 532L1090.1 524L1101.9 524L1101.09 532ZM1103.36 529.458L1103.94 523.648L1107.88 521.678C1107.44 524.761 1105.82 527.551 1103.36 529.458" fill="currentColor" fill-rule="nonzero" />
  </g>
</svg>

