<svg viewBox="0 0 32 32" xmlns="http://www.w3.org/2000/svg" fill="none">
  <g transform="translate(-504 -504)">
<path id="Vector 375" d="M534 508L530 508L530 504L528 504L528 508L524 508L524 510L528 510L528 514L530 514L530 510L534 510L534 508ZM515.5 515C515.005 515 514.522 515.147 514.111 515.421C513.7 515.696 513.38 516.086 513.19 516.543C513.001 517 512.952 517.503 513.048 517.988C513.145 518.473 513.383 518.918 513.732 519.268C514.082 519.617 514.527 519.856 515.012 519.952C515.497 520.048 516 519.999 516.457 519.81C516.914 519.62 517.304 519.3 517.579 518.889C517.853 518.478 518 517.995 518 517.5C518.003 517.171 517.94 516.845 517.815 516.54C517.69 516.236 517.506 515.959 517.274 515.726C517.041 515.494 516.764 515.31 516.46 515.185C516.155 515.06 515.829 514.997 515.5 515ZM524.5 515C524.005 515 523.522 515.147 523.111 515.421C522.7 515.696 522.38 516.086 522.19 516.543C522.001 517 521.952 517.503 522.048 517.988C522.145 518.473 522.383 518.918 522.732 519.268C523.082 519.617 523.527 519.856 524.012 519.952C524.497 520.048 525 519.999 525.457 519.81C525.914 519.62 526.304 519.3 526.579 518.889C526.853 518.478 527 517.995 527 517.5C527.003 517.171 526.94 516.845 526.815 516.54C526.69 516.236 526.506 515.959 526.274 515.726C526.041 515.494 525.764 515.31 525.46 515.185C525.155 515.06 524.829 514.997 524.5 515ZM513 524C513.719 525.217 514.742 526.226 515.97 526.926C517.198 527.627 518.587 527.995 520 527.995C521.413 527.995 522.802 527.627 524.03 526.926C525.258 526.226 526.281 525.217 527 524L513 524Z" fill="currentColor" fill-rule="nonzero" />
		<path id="Vector 376" d="M531.82 518C532.23 520.425 531.885 522.918 530.831 525.14C529.778 527.363 528.067 529.208 525.93 530.425C523.793 531.643 521.334 532.175 518.885 531.949C516.435 531.723 514.115 530.75 512.237 529.161C510.36 527.573 509.015 525.445 508.387 523.068C507.758 520.69 507.875 518.176 508.722 515.867C509.569 513.558 511.105 511.565 513.122 510.158C515.14 508.751 517.541 507.997 520 508L520 506C517.231 506 514.524 506.821 512.222 508.359C509.92 509.898 508.125 512.084 507.066 514.642C506.006 517.201 505.729 520.016 506.269 522.731C506.809 525.447 508.143 527.942 510.101 529.899C512.058 531.857 514.553 533.191 517.269 533.731C519.984 534.271 522.799 533.994 525.358 532.934C527.916 531.875 530.102 530.08 531.641 527.778C533.179 525.476 534 522.769 534 520C533.991 519.331 533.938 518.662 533.84 518L531.82 518Z" fill="currentColor" fill-rule="nonzero" />
  </g>
</svg>

