<svg viewBox="0 0 32 32" xmlns="http://www.w3.org/2000/svg" fill="none">
  <g transform="translate(-1296 -504)">
<path id="Vector 393" d="M1312 506C1309.23 506 1306.52 506.821 1304.22 508.359C1301.92 509.898 1300.13 512.084 1299.07 514.642C1298.01 517.201 1297.73 520.016 1298.27 522.731C1298.81 525.447 1300.14 527.942 1302.1 529.899C1304.06 531.857 1306.55 533.191 1309.27 533.731C1311.98 534.271 1314.8 533.994 1317.36 532.934C1319.92 531.875 1322.1 530.08 1323.64 527.778C1325.18 525.476 1326 522.769 1326 520C1326 516.287 1324.53 512.726 1321.9 510.1C1319.27 507.475 1315.71 506 1312 506ZM1312 532C1309.63 532 1307.31 531.296 1305.33 529.978C1303.36 528.659 1301.82 526.785 1300.91 524.592C1300.01 522.399 1299.77 519.987 1300.23 517.659C1300.69 515.331 1301.84 513.193 1303.51 511.515C1305.19 509.836 1307.33 508.694 1309.66 508.231C1311.99 507.768 1314.4 508.005 1316.59 508.913C1318.78 509.822 1320.66 511.36 1321.98 513.333C1323.3 515.307 1324 517.627 1324 520C1324 523.183 1322.74 526.235 1320.49 528.485C1318.23 530.736 1315.18 532 1312 532Z" fill="currentColor" fill-rule="nonzero" />
		<path id="Vector 394" d="M1307.5 515C1307.01 515 1306.52 515.147 1306.11 515.421C1305.7 515.696 1305.38 516.087 1305.19 516.543C1305 517 1304.95 517.503 1305.05 517.988C1305.14 518.473 1305.38 518.918 1305.73 519.268C1306.08 519.617 1306.53 519.856 1307.01 519.952C1307.5 520.048 1308 519.999 1308.46 519.81C1308.91 519.621 1309.3 519.3 1309.58 518.889C1309.85 518.478 1310 517.995 1310 517.5C1310 517.171 1309.94 516.845 1309.82 516.54C1309.69 516.236 1309.51 515.959 1309.27 515.726C1309.04 515.494 1308.76 515.31 1308.46 515.185C1308.16 515.06 1307.83 514.997 1307.5 515ZM1316.5 515C1316.01 515 1315.52 515.147 1315.11 515.421C1314.7 515.696 1314.38 516.087 1314.19 516.543C1314 517 1313.95 517.503 1314.05 517.988C1314.14 518.473 1314.38 518.918 1314.73 519.268C1315.08 519.617 1315.53 519.856 1316.01 519.952C1316.5 520.048 1317 519.999 1317.46 519.81C1317.91 519.621 1318.3 519.3 1318.58 518.889C1318.85 518.478 1319 517.995 1319 517.5C1319 517.171 1318.94 516.845 1318.82 516.54C1318.69 516.236 1318.51 515.959 1318.27 515.726C1318.04 515.494 1317.76 515.31 1317.46 515.185C1317.16 515.06 1316.83 514.997 1316.5 515Z" fill="currentColor" fill-rule="nonzero" />
  </g>
</svg>

