<svg viewBox="0 0 32 32" xmlns="http://www.w3.org/2000/svg" fill="none">
  <g transform="translate(-1728.000122 -504)">
<path id="Vector 402" d="M1755 532L1755 513L1752 513L1752 508L1754 508L1754 506L1748 506L1748 508L1750 508L1750 513L1747 513L1747 532L1743 532L1743 520L1740 520L1740 515L1742 515L1742 513L1736 513L1736 515L1738 515L1738 520L1735 520L1735 532L1732 532L1732 506L1730 506L1730 532C1730 532.53 1730.21 533.039 1730.59 533.414C1730.96 533.789 1731.47 534 1732 534L1758 534L1758 532L1755 532ZM1741 532L1737 532L1737 522L1741 522L1741 532ZM1749 515L1753 515L1753 532L1749 532L1749 515Z" fill="currentColor" fill-rule="nonzero" />
  </g>
</svg>

