<svg viewBox="0 0 32 32" xmlns="http://www.w3.org/2000/svg" fill="none">
  <g transform="translate(-1800.000122 -504)">
<path id="Vector 403" d="M1808.24 529.14L1807 530.67C1808.24 531.723 1809.65 532.549 1811.18 533.11L1811.87 531.24C1810.55 530.758 1809.32 530.048 1808.24 529.14ZM1804.19 522L1802.19 522.41C1802.48 524.026 1803.04 525.579 1803.86 527L1805.59 526C1804.9 524.757 1804.42 523.404 1804.19 522ZM1811.82 508.76L1811.13 506.89C1809.62 507.456 1808.22 508.282 1807 509.33L1808.24 510.86C1809.3 509.957 1810.51 509.247 1811.82 508.76ZM1805.59 514L1803.86 513C1803.06 514.426 1802.5 515.978 1802.22 517.59L1804.22 517.93C1804.44 516.55 1804.91 515.22 1805.59 514ZM1816 506L1816 508C1819.18 508 1822.23 509.264 1824.49 511.515C1826.74 513.765 1828 516.817 1828 520C1828 523.183 1826.74 526.235 1824.49 528.485C1822.23 530.736 1819.18 532 1816 532L1816 534C1819.71 534 1823.27 532.525 1825.9 529.899C1828.53 527.274 1830 523.713 1830 520C1830 516.287 1828.53 512.726 1825.9 510.1C1823.27 507.475 1819.71 506 1816 506Z" fill="currentColor" fill-rule="nonzero" />
  </g>
</svg>

