<svg viewBox="0 0 32 32" xmlns="http://www.w3.org/2000/svg" fill="none">
  <g transform="translate(-1872.000122 -504)">
<path id="Vector 404" d="M1894.45 510C1895.18 509.999 1895.9 510.144 1896.57 510.426C1897.24 510.707 1897.85 511.12 1898.36 511.64C1899.41 512.706 1900 514.143 1900 515.64C1900 517.137 1899.41 518.574 1898.36 519.64L1888 530.13L1877.64 519.64C1876.59 518.574 1876 517.137 1876 515.64C1876 514.143 1876.59 512.706 1877.64 511.64C1878.15 511.121 1878.76 510.708 1879.43 510.426C1880.1 510.145 1880.82 510 1881.55 510C1882.28 510 1883 510.145 1883.67 510.426C1884.34 510.708 1884.95 511.121 1885.46 511.64L1888 514.24L1890.53 511.66C1891.04 511.134 1891.65 510.716 1892.32 510.431C1892.99 510.145 1893.72 509.999 1894.45 510ZM1894.45 508C1893.46 507.999 1892.47 508.197 1891.55 508.582C1890.64 508.966 1889.81 509.53 1889.11 510.24L1888 511.36L1886.89 510.24C1886.19 509.531 1885.36 508.968 1884.45 508.584C1883.53 508.2 1882.54 508.002 1881.55 508.002C1880.56 508.002 1879.57 508.2 1878.66 508.584C1877.74 508.968 1876.91 509.531 1876.21 510.24C1874.79 511.684 1874 513.626 1874 515.65C1874 517.674 1874.79 519.616 1876.21 521.06L1888 533L1899.79 521.06C1901.21 519.616 1902 517.674 1902 515.65C1902 513.626 1901.21 511.684 1899.79 510.24C1899.09 509.531 1898.26 508.968 1897.35 508.584C1896.43 508.199 1895.44 508.001 1894.45 508Z" fill="currentColor" fill-rule="nonzero" />
  </g>
</svg>

