<svg viewBox="0 0 32 32" xmlns="http://www.w3.org/2000/svg" fill="none">
  <g transform="translate(-0 -576)">
<path id="Vector 406" d="M4.20998 593.062L16 605L27.79 593.061C29.2066 591.616 30.0002 589.673 30.0002 587.649C30.0002 585.626 29.2066 583.683 27.79 582.238C27.0926 581.529 26.2611 580.966 25.344 580.582C24.4268 580.198 23.4424 580 22.448 580C21.4536 580 20.4692 580.198 19.552 580.582C18.6349 580.966 17.8034 581.529 17.106 582.238L16 583.364L14.894 582.238C14.1966 581.529 13.3651 580.966 12.448 580.582C11.5308 580.198 10.5464 580 9.55198 580C8.5576 580 7.57315 580.198 6.65601 580.582C5.73887 580.966 4.90738 581.529 4.20998 582.238C2.79304 583.683 1.99933 585.626 1.99933 587.65C1.99933 589.674 2.79304 591.617 4.20998 593.062ZM26.355 591.645L16 602.125L16 586.23C16.8467 585.371 17.6937 584.513 18.541 583.656C19.0508 583.137 19.6588 582.725 20.3296 582.444C21.0004 582.162 21.7206 582.017 22.448 582.017C23.1754 582.017 23.8955 582.162 24.5663 582.444C25.2372 582.725 25.8452 583.137 26.355 583.656C27.3997 584.723 27.9848 586.157 27.9848 587.651C27.9848 589.144 27.3997 590.578 26.355 591.645Z" fill="currentColor" fill-rule="nonzero" />
  </g>
</svg>

