<svg viewBox="0 0 32 32" xmlns="http://www.w3.org/2000/svg" fill="none">
  <g transform="translate(-288 -576)">
<path id="Vector 410" d="M305.5 600C306.328 600 307 599.328 307 598.5C307 597.672 306.328 597 305.5 597C304.672 597 304 597.672 304 598.5C304 599.328 304.672 600 305.5 600Z" fill="currentColor" fill-rule="nonzero" />
		<path id="Vector 411" d="M294.5 600C295.328 600 296 599.328 296 598.5C296 597.672 295.328 597 294.5 597C293.672 597 293 597.672 293 598.5C293 599.328 293.672 600 294.5 600Z" fill="currentColor" fill-rule="nonzero" />
		<path id="Vector 412" d="M301 604L301 594L308 594C308.175 594 308.347 593.954 308.499 593.867C308.651 593.779 308.777 593.653 308.865 593.502C308.953 593.35 308.999 593.179 309 593.003C309 592.828 308.955 592.656 308.868 592.504L300.868 578.504C300.676 578.168 300.338 578 300 578C299.662 578 299.324 578.168 299.132 578.504L291.132 592.504C291.045 592.656 291 592.828 291 593.003C291.001 593.179 291.047 593.35 291.135 593.502C291.223 593.653 291.349 593.779 291.501 593.867C291.653 593.954 291.825 594 292 594L299 594L299 604C299 604.53 299.211 605.039 299.586 605.414C299.961 605.789 300.47 606 301 606L316 606L316 604L301 604ZM293.723 592L300 581.016L306.277 592L293.723 592Z" fill="currentColor" fill-rule="nonzero" />
  </g>
</svg>

