<svg viewBox="0 0 32 32" xmlns="http://www.w3.org/2000/svg" fill="none">
  <g transform="translate(-216 -576)">
<path id="Vector 409" d="M240 594L244 594C244.53 594 245.039 593.789 245.414 593.414C245.789 593.039 246 592.53 246 592L246 588C246 587.47 245.789 586.961 245.414 586.586C245.039 586.211 244.53 586 244 586L240 586C239.47 586 238.961 586.211 238.586 586.586C238.211 586.961 238 587.47 238 588L238 589L233 589L233 584C233 582.346 231.654 581 230 581L226 581L226 580C226 579.47 225.789 578.961 225.414 578.586C225.039 578.211 224.53 578 224 578L220 578C219.47 578 218.961 578.211 218.586 578.586C218.211 578.961 218 579.47 218 580L218 584C218 584.53 218.211 585.039 218.586 585.414C218.961 585.789 219.47 586 220 586L224 586C224.53 586 225.039 585.789 225.414 585.414C225.789 585.039 226 584.53 226 584L226 583L230 583C230.552 583 231 583.449 231 584L231 600C231 601.654 232.346 603 234 603L238 603L238 604C238 604.53 238.211 605.039 238.586 605.414C238.961 605.789 239.47 606 240 606L244 606C244.53 606 245.039 605.789 245.414 605.414C245.789 605.039 246 604.53 246 604L246 600C246 599.47 245.789 598.961 245.414 598.586C245.039 598.211 244.53 598 244 598L240 598C239.47 598 238.961 598.211 238.586 598.586C238.211 598.961 238 599.47 238 600L238 601L234 601C233.449 601 233 600.551 233 600L233 591L238 591L238 592C238 592.53 238.211 593.039 238.586 593.414C238.961 593.789 239.47 594 240 594ZM240 588L244 588L244 592L240 592L240 588Z" fill="currentColor" fill-rule="nonzero" />
  </g>
</svg>

