<svg viewBox="0 0 32 32" xmlns="http://www.w3.org/2000/svg" fill="none">
  <g transform="translate(-360 -576)">
<path id="Vector 413" d="M373 598C373.828 598 374.479 597.32 374.479 596.492C374.479 595.664 373.829 595 373 595C372.171 595 371.48 595.664 371.48 596.492C371.48 597.32 372.171 598 373 598Z" fill="currentColor" fill-rule="nonzero" />
		<path id="Vector 414" d="M373 578C366.372 578 361 583.369 361 590C361 596.631 366.366 602 372.994 602C373.334 602 373.694 601.98 374.015 601.94L374.015 599.937C373.675 599.977 373.335 599.997 372.995 599.997C367.487 599.997 363 595.51 363 590C363 584.49 367.494 580 373 580C378.506 580 383 584.49 383 590L385 590C385 583.369 379.628 578 373 578Z" fill="currentColor" fill-rule="nonzero" />
		<path id="Vector 415" d="M373.98 581.991L372.478 581.991C371.886 581.99 371.299 582.105 370.751 582.331C370.204 582.557 369.707 582.89 369.288 583.309C368.87 583.728 368.538 584.225 368.312 584.773C368.087 585.321 367.972 585.908 367.974 586.5L368 587L370 587L369.976 586.499C369.976 585.835 370.24 585.199 370.709 584.729C371.179 584.26 371.815 583.996 372.479 583.995L373.98 583.995C374.309 583.995 374.635 584.059 374.939 584.185C375.242 584.311 375.519 584.495 375.751 584.728C375.984 584.96 376.168 585.236 376.294 585.54C376.419 585.844 376.484 586.17 376.483 586.499C376.483 587.163 376.219 587.799 375.75 588.269C375.28 588.738 374.644 589.003 373.98 589.003L371.978 589.003L371.978 593.511L373.98 593.511L373.98 591.007C374.572 591.007 375.158 590.891 375.705 590.664C376.252 590.438 376.749 590.106 377.168 589.687C377.586 589.268 377.918 588.771 378.144 588.224C378.37 587.677 378.487 587.091 378.486 586.499C378.486 585.304 378.011 584.157 377.166 583.312C376.321 582.467 375.175 581.991 373.98 581.99L373.98 581.991ZM388.998 592.978L378.986 592.978C378.456 592.98 377.947 593.192 377.572 593.567C377.197 593.942 376.986 594.451 376.984 594.981L376.984 600.991C376.984 602.093 377.884 602.995 378.986 602.995L381.389 602.995L383.09 606L384.792 604.998L382.489 600.991L378.985 600.991L379 595L389 595L389 601L386 601L386 603L388.998 602.995C389.529 602.993 390.037 602.781 390.412 602.406C390.787 602.031 390.998 601.523 391 600.992L391 594.982C390.998 594.451 390.787 593.943 390.412 593.567C390.037 593.192 389.529 592.98 388.998 592.978Z" fill="currentColor" fill-rule="nonzero" />
  </g>
</svg>

