<svg viewBox="0 0 32 32" xmlns="http://www.w3.org/2000/svg" fill="none">
  <g transform="translate(-504 -576)">
<path id="Vector 418" d="M520 589L515 594L516.41 595.41L519 592.83L519 604L510 604L510 606L519 606C519.53 606 520.039 605.789 520.414 605.414C520.789 605.039 521 604.53 521 604L521 592.83L523.59 595.41L525 594L520 589Z" fill="currentColor" fill-rule="nonzero" />
		<path id="Vector 419" d="M527.5 598L527 598L527 596L527.5 596C528.66 595.997 529.774 595.546 530.61 594.741C531.445 593.936 531.938 592.84 531.984 591.68C532.03 590.521 531.626 589.389 530.857 588.52C530.087 587.651 529.012 587.114 527.856 587.019L527.041 586.955L526.942 586.143C526.733 584.449 525.912 582.89 524.634 581.759C523.355 580.628 521.707 580.004 520 580.004C518.294 580.004 516.646 580.628 515.367 581.759C514.089 582.89 513.268 584.449 513.059 586.143L512.959 586.955L512.144 587.019C510.988 587.114 509.913 587.651 509.143 588.52C508.374 589.389 507.97 590.521 508.016 591.68C508.062 592.84 508.555 593.936 509.39 594.741C510.226 595.546 511.34 595.997 512.5 596L513 596L513 598L512.5 598C510.889 598.002 509.334 597.405 508.139 596.325C506.943 595.245 506.191 593.759 506.029 592.156C505.867 590.553 506.307 588.947 507.262 587.65C508.218 586.353 509.621 585.457 511.2 585.136C511.626 583.118 512.733 581.307 514.335 580.008C515.937 578.709 517.937 578 520 578C522.063 578 524.063 578.709 525.665 580.008C527.267 581.307 528.374 583.118 528.8 585.136C530.379 585.457 531.782 586.353 532.738 587.65C533.693 588.947 534.133 590.553 533.971 592.156C533.809 593.759 533.057 595.245 531.861 596.325C530.666 597.405 529.111 598.002 527.5 598Z" fill="currentColor" fill-rule="nonzero" />
  </g>
</svg>

