<svg viewBox="0 0 32 32" xmlns="http://www.w3.org/2000/svg" fill="none">
  <g transform="translate(-432 -576)">
<path id="Vector 416" d="M448 583L438 593L439.41 594.41L447 586.83L447 604L434 604L434 606L447 606C447.53 606 448.039 605.789 448.414 605.414C448.789 605.039 449 604.53 449 604L449 586.83L456.59 594.41L458 593L448 583Z" fill="currentColor" fill-rule="nonzero" />
		<path id="Vector 417" d="M438 584L438 580L458 580L458 584L460 584L460 580C460 579.47 459.789 578.961 459.414 578.586C459.039 578.211 458.53 578 458 578L438 578C437.47 578 436.961 578.211 436.586 578.586C436.211 578.961 436 579.47 436 580L436 584L438 584Z" fill="currentColor" fill-rule="nonzero" />
  </g>
</svg>

