<svg viewBox="0 0 32 32" xmlns="http://www.w3.org/2000/svg" fill="none">
  <g transform="translate(-576 -576)">
<path id="Vector 420" d="M604 596L602 596L602 598L604 598L604 604L580 604L580 598L582 598L582 596L580 596C579.47 596 578.961 596.211 578.586 596.586C578.211 596.961 578 597.47 578 598L578 604C578 604.53 578.211 605.039 578.586 605.414C578.961 605.789 579.47 606 580 606L604 606C604.53 606 605.039 605.789 605.414 605.414C605.789 605.039 606 604.53 606 604L606 598C606 597.47 605.789 596.961 605.414 596.586C605.039 596.211 604.53 596 604 596Z" fill="currentColor" fill-rule="nonzero" />
		<path id="Vector 421" d="M583 602C583.552 602 584 601.552 584 601C584 600.448 583.552 600 583 600C582.448 600 582 600.448 582 601C582 601.552 582.448 602 583 602Z" fill="currentColor" fill-rule="nonzero" />
		<path id="Vector 422" d="M598.707 583.293L593.707 578.293C593.52 578.105 593.265 578 593 578L587 578C586.47 578 585.961 578.211 585.586 578.586C585.211 578.961 585 579.47 585 580L585 596C585 596.53 585.211 597.039 585.586 597.414C585.961 597.789 586.47 598 587 598L597 598C597.53 598 598.039 597.789 598.414 597.414C598.789 597.039 599 596.53 599 596L599 584C599 583.735 598.895 583.48 598.707 583.293ZM596.586 584L593 584L593 580.414L596.586 584ZM587 596L587 580L591 580L591 584C591 584.53 591.211 585.039 591.586 585.414C591.961 585.789 592.47 586 593 586L597 586L597 596L587 596Z" fill="currentColor" fill-rule="nonzero" />
  </g>
</svg>

