<svg viewBox="0 0 32 32" xmlns="http://www.w3.org/2000/svg" fill="none">
  <g transform="translate(-792 -576)">
<path id="Vector 426" d="M822 587.414L820.586 586L816 590.586L811.414 586L810 587.414L814.586 592L810 596.585L811.415 598L816 593.414L820.587 598L822 596.587L817.414 592L822 587.414Z" fill="currentColor" fill-rule="nonzero" />
		<path id="Vector 427" d="M796 580C795.47 580 794.961 580.211 794.586 580.586C794.211 580.961 794 581.47 794 582L794 585.17C794 585.433 794.052 585.693 794.152 585.936C794.253 586.179 794.4 586.399 794.586 586.585L802 594L802 602C802 602.53 802.211 603.039 802.586 603.414C802.961 603.789 803.47 604 804 604L808 604C808.53 604 809.039 603.789 809.414 603.414C809.789 603.039 810 602.53 810 602L810 600L808 600L808 602L804 602L804 593.17L803.414 592.585L796 585.171L796 582L816 582L816 584L818 584L818 582C818 581.47 817.789 580.961 817.414 580.586C817.039 580.211 816.53 580 816 580L796 580Z" fill="currentColor" fill-rule="nonzero" />
  </g>
</svg>

