<svg viewBox="0 0 32 32" xmlns="http://www.w3.org/2000/svg" fill="none">
  <g transform="translate(-648 -576)">
<path id="Vector 423" d="M666 604L662 604C661.47 604 660.961 603.789 660.586 603.414C660.211 603.039 660 602.53 660 602L660 594.41L652.59 587C652.214 586.627 652.002 586.12 652 585.59L652 582C652 581.47 652.211 580.961 652.586 580.586C652.961 580.211 653.47 580 654 580L674 580C674.53 580 675.039 580.211 675.414 580.586C675.789 580.961 676 581.47 676 582L676 585.59C675.998 586.12 675.786 586.627 675.41 587L668 594.41L668 602C668 602.53 667.789 603.039 667.414 603.414C667.039 603.789 666.53 604 666 604ZM654 582L654 585.59L662 593.59L662 602L666 602L666 593.59L674 585.59L674 582L654 582Z" fill="currentColor" fill-rule="nonzero" />
  </g>
</svg>

