<svg viewBox="0 0 32 32" xmlns="http://www.w3.org/2000/svg" fill="none">
  <g transform="translate(-720 -576)">
<path id="Vector 424" d="M746 582L724 582L724 585.17L731.41 592.59L732 593.17L732 602L736 602L736 600L738 600L738 602C738 602.53 737.789 603.039 737.414 603.414C737.039 603.789 736.53 604 736 604L732 604C731.47 604 730.961 603.789 730.586 603.414C730.211 603.039 730 602.53 730 602L730 594L722.59 586.59C722.403 586.404 722.254 586.183 722.153 585.939C722.052 585.695 722 585.434 722 585.17L722 582C722 581.47 722.211 580.961 722.586 580.586C722.961 580.211 723.47 580 724 580L746 580L746 582Z" fill="currentColor" fill-rule="nonzero" />
		<path id="Vector 425" d="M749.71 587.29L746.71 584.29C746.617 584.196 746.506 584.122 746.385 584.071C746.263 584.02 746.132 583.994 746 583.994C745.868 583.994 745.737 584.02 745.615 584.071C745.494 584.122 745.383 584.196 745.29 584.29L736 593.59L736 598L740.41 598L749.71 588.71C749.804 588.617 749.878 588.506 749.929 588.385C749.98 588.263 750.006 588.132 750.006 588C750.006 587.868 749.98 587.737 749.929 587.615C749.878 587.494 749.804 587.383 749.71 587.29ZM739.59 596L738 596L738 594.41L743 589.41L744.59 591L739.59 596ZM746 589.59L744.41 588L746 586.41L747.59 588L746 589.59Z" fill="currentColor" fill-rule="nonzero" />
  </g>
</svg>

