<svg viewBox="0 0 32 32" xmlns="http://www.w3.org/2000/svg" fill="none">
  <g transform="translate(-864 -576)">
<path id="Vector 428" d="M886.5 585C885.177 584.998 883.878 585.349 882.736 586.015C881.594 586.681 880.649 587.64 880 588.792L880 584L878 584L878 592L886 592L886 590L881.617 590C882.062 589.131 882.731 588.397 883.555 587.872C884.378 587.348 885.326 587.052 886.302 587.016C887.278 586.979 888.245 587.204 889.105 587.666C889.966 588.128 890.687 588.81 891.196 589.644C891.704 590.477 891.982 591.431 891.999 592.407C892.017 593.383 891.774 594.346 891.296 595.197C890.818 596.049 890.121 596.757 889.278 597.249C888.435 597.742 887.476 598.001 886.5 598L886 598L886 600L886.5 600C888.489 600 890.397 599.21 891.803 597.803C893.21 596.397 894 594.489 894 592.5C894 590.511 893.21 588.603 891.803 587.197C890.397 585.79 888.489 585 886.5 585Z" fill="currentColor" fill-rule="nonzero" />
		<path id="Vector 429" d="M890 582L868 582L868 585.171L875.414 592.585L876 593.171L876 602L880 602L880 600L882 600L882 602C882 602.53 881.789 603.039 881.414 603.414C881.039 603.789 880.53 604 880 604L876 604C875.47 604 874.961 603.789 874.586 603.414C874.211 603.039 874 602.53 874 602L874 594L866.586 586.585C866.211 586.21 866 585.701 866 585.171L866 582C866 581.47 866.211 580.961 866.586 580.586C866.961 580.211 867.47 580 868 580L890 580L890 582Z" fill="currentColor" fill-rule="nonzero" />
  </g>
</svg>

