<svg viewBox="0 0 32 32" xmlns="http://www.w3.org/2000/svg" fill="none">
  <g transform="translate(-1008 -576)">
<path id="Vector 431" d="M1035 592L1033 592L1033 594L1032 594C1030.9 594 1030 594.9 1030 596L1030 598C1030 599.1 1030.9 600 1032 600L1036 600L1036 602L1030 602L1030 604L1033 604L1033 606L1035 606L1035 604L1036 604C1037.1 604 1038 603.1 1038 602L1038 600C1038 598.9 1037.1 598 1036 598L1032 598L1032 596L1038 596L1038 594L1035 594L1035 592ZM1036 584L1030 584L1030 580C1030 578.9 1029.1 578 1028 578L1020 578C1018.9 578 1018 578.9 1018 580L1018 584L1012 584C1010.9 584 1010 584.9 1010 586L1010 600C1010 601.1 1010.9 602 1012 602L1027 602L1027 600L1012 600L1012 586L1036 586L1036 590L1038 590L1038 586C1038 584.9 1037.1 584 1036 584ZM1028 584L1020 584L1020 580L1028 580L1028 584Z" fill="currentColor" fill-rule="nonzero" />
  </g>
</svg>

