<svg viewBox="0 0 32 32" xmlns="http://www.w3.org/2000/svg" fill="none">
  <g transform="translate(-936 -576)">
<path id="Vector 430" d="M938 604L966 604L966 606L938 606L938 604ZM963 587C963.265 587 963.52 586.895 963.707 586.707C963.895 586.52 964 586.265 964 586L964 583C964 582.795 963.937 582.594 963.818 582.426C963.7 582.258 963.533 582.13 963.34 582.06L952.34 578.06C952.12 577.981 951.88 577.981 951.66 578.06L940.66 582.06C940.467 582.13 940.3 582.258 940.182 582.426C940.063 582.594 940 582.795 940 583L940 586C940 586.265 940.105 586.52 940.293 586.707C940.48 586.895 940.735 587 941 587L942 587L942 600L940 600L940 602L964 602L964 600L962 600L962 587L963 587ZM942 583.7L952 580.06L962 583.7L962 585L942 585L942 583.7ZM954 600L950 600L950 587L954 587L954 600ZM944 587L948 587L948 600L944 600L944 587ZM960 600L956 600L956 587L960 587L960 600Z" fill="currentColor" fill-rule="nonzero" />
  </g>
</svg>

