<svg viewBox="0 0 32 32" xmlns="http://www.w3.org/2000/svg" fill="none">
  <g transform="translate(-1080 -576)">
<path id="Vector 432" d="M1087 581.21C1086.84 581.208 1086.68 581.156 1086.56 581.062C1086.43 580.968 1086.33 580.835 1086.28 580.684C1086.23 580.532 1086.23 580.368 1086.27 580.215C1086.32 580.062 1086.41 579.928 1086.54 579.83C1089.3 577.878 1092.62 576.884 1096 577C1098.66 577 1102.48 577.45 1105.5 579.62C1105.67 579.739 1105.78 579.918 1105.81 580.118C1105.84 580.318 1105.8 580.524 1105.68 580.69C1105.56 580.854 1105.38 580.964 1105.17 580.996C1104.97 581.028 1104.77 580.979 1104.6 580.86C1102.04 579.23 1099.04 578.418 1096 578.53C1092.97 578.427 1089.99 579.311 1087.5 581.05C1087.36 581.163 1087.18 581.22 1087 581.21Z" fill="currentColor" fill-rule="nonzero" />
		<path id="Vector 433" d="M1108.23 588.26C1108.11 588.259 1107.98 588.228 1107.88 588.171C1107.77 588.114 1107.67 588.031 1107.6 587.93C1105.87 585.49 1102.78 582.24 1096 582.24C1093.75 582.183 1091.51 582.672 1089.49 583.664C1087.46 584.657 1085.71 586.123 1084.37 587.94C1084.25 588.104 1084.07 588.213 1083.87 588.245C1083.67 588.277 1083.46 588.228 1083.3 588.11C1083.21 588.05 1083.14 587.972 1083.09 587.882C1083.03 587.793 1083 587.692 1082.98 587.588C1082.97 587.484 1082.97 587.377 1083 587.276C1083.03 587.175 1083.08 587.081 1083.15 587C1084.63 584.999 1086.57 583.383 1088.81 582.288C1091.04 581.194 1093.51 580.652 1096 580.71C1101.61 580.71 1105.81 582.79 1108.84 587.05C1108.96 587.217 1109 587.424 1108.97 587.624C1108.93 587.825 1108.82 588.003 1108.65 588.12C1108.53 588.205 1108.38 588.254 1108.23 588.26Z" fill="currentColor" fill-rule="nonzero" />
		<path id="Vector 434" d="M1092.28 607C1092.12 606.999 1091.97 606.952 1091.85 606.865C1091.72 606.778 1091.62 606.654 1091.56 606.51C1091.52 606.416 1091.5 606.314 1091.5 606.212C1091.5 606.11 1091.52 606.008 1091.56 605.915C1091.61 605.821 1091.67 605.737 1091.74 605.667C1091.82 605.598 1091.9 605.544 1092 605.51C1096.37 603.83 1099 600.39 1099 596.3C1099.03 595.898 1098.97 595.495 1098.83 595.117C1098.69 594.74 1098.47 594.397 1098.19 594.112C1097.9 593.828 1097.56 593.607 1097.18 593.467C1096.8 593.327 1096.4 593.27 1096 593.3C1094.14 593.3 1093.24 594.3 1093 596.65C1092.89 597.749 1092.36 598.762 1091.51 599.476C1090.67 600.19 1089.58 600.55 1088.48 600.48C1087.89 600.489 1087.3 600.373 1086.75 600.142C1086.21 599.911 1085.71 599.569 1085.31 599.137C1084.9 598.705 1084.59 598.193 1084.39 597.634C1084.19 597.075 1084.12 596.481 1084.16 595.89C1084.22 592.798 1085.49 589.854 1087.71 587.699C1089.93 585.545 1092.91 584.355 1096 584.39C1099.17 584.39 1102.21 585.645 1104.46 587.88C1106.71 590.115 1107.98 593.149 1108 596.32C1107.93 598.552 1107.46 600.754 1106.61 602.82C1106.53 603.004 1106.38 603.15 1106.19 603.226C1106.01 603.303 1105.8 603.304 1105.61 603.23C1105.52 603.192 1105.43 603.135 1105.36 603.064C1105.29 602.993 1105.23 602.909 1105.2 602.815C1105.16 602.723 1105.14 602.623 1105.14 602.522C1105.14 602.422 1105.16 602.322 1105.2 602.23C1105.97 600.35 1106.4 598.349 1106.47 596.32C1106.46 593.554 1105.35 590.905 1103.38 588.956C1101.42 587.006 1098.77 585.915 1096 585.92C1094.66 585.893 1093.33 586.131 1092.08 586.62C1090.84 587.108 1089.7 587.838 1088.74 588.767C1087.77 589.695 1087 590.805 1086.47 592.033C1085.93 593.26 1085.64 594.581 1085.62 595.92C1085.58 596.309 1085.62 596.702 1085.74 597.074C1085.86 597.446 1086.06 597.787 1086.33 598.076C1086.59 598.365 1086.91 598.596 1087.27 598.751C1087.63 598.907 1088.02 598.985 1088.41 598.98C1088.77 599.016 1089.13 598.98 1089.48 598.874C1089.83 598.769 1090.15 598.596 1090.43 598.365C1090.71 598.135 1090.94 597.851 1091.1 597.531C1091.27 597.211 1091.38 596.86 1091.41 596.5C1091.77 593.39 1093.3 591.81 1095.97 591.81C1096.58 591.779 1097.18 591.877 1097.74 592.096C1098.31 592.314 1098.82 592.65 1099.25 593.08C1099.68 593.51 1100.01 594.026 1100.22 594.593C1100.43 595.159 1100.53 595.765 1100.49 596.37C1100.49 601.11 1097.49 605.09 1092.49 607C1092.42 607.007 1092.35 607.007 1092.28 607Z" fill="currentColor" fill-rule="nonzero" />
		<path id="Vector 435" d="M1099.77 606.28C1099.58 606.278 1099.39 606.207 1099.25 606.08C1099.18 606.009 1099.12 605.925 1099.08 605.833C1099.04 605.74 1099.02 605.64 1099.02 605.54C1099.02 605.44 1099.04 605.34 1099.08 605.247C1099.12 605.155 1099.18 605.071 1099.25 605C1101.5 602.668 1102.77 599.56 1102.79 596.32C1102.79 594.76 1102.31 589.67 1096.09 589.67C1095.18 589.638 1094.28 589.787 1093.43 590.108C1092.58 590.429 1091.81 590.916 1091.15 591.54C1090.56 592.122 1090.1 592.818 1089.78 593.584C1089.47 594.35 1089.31 595.172 1089.32 596C1089.32 596.203 1089.24 596.396 1089.09 596.538C1088.95 596.68 1088.75 596.76 1088.55 596.76C1088.45 596.761 1088.35 596.743 1088.26 596.705C1088.16 596.667 1088.08 596.612 1088.01 596.541C1087.93 596.47 1087.88 596.386 1087.84 596.293C1087.8 596.2 1087.78 596.101 1087.78 596C1087.76 594.976 1087.95 593.958 1088.33 593.007C1088.71 592.056 1089.28 591.19 1090 590.46C1090.8 589.695 1091.74 589.096 1092.77 588.698C1093.8 588.3 1094.9 588.11 1096 588.14C1102.08 588.14 1104.24 592.54 1104.24 596.32C1104.23 599.927 1102.83 603.391 1100.34 606C1100.27 606.086 1100.18 606.155 1100.09 606.203C1099.99 606.252 1099.88 606.278 1099.77 606.28Z" fill="currentColor" fill-rule="nonzero" />
		<path id="Vector 436" d="M1088.66 603.74C1088.14 603.739 1087.62 603.709 1087.1 603.65C1087 603.639 1086.9 603.608 1086.82 603.56C1086.73 603.511 1086.65 603.446 1086.59 603.367C1086.52 603.289 1086.48 603.199 1086.45 603.102C1086.42 603.006 1086.41 602.905 1086.43 602.805C1086.44 602.705 1086.47 602.609 1086.52 602.521C1086.56 602.433 1086.63 602.355 1086.71 602.293C1086.79 602.23 1086.88 602.183 1086.97 602.155C1087.07 602.128 1087.17 602.119 1087.27 602.13C1089.76 602.41 1091.72 601.97 1093.11 600.81C1093.75 600.237 1094.27 599.54 1094.63 598.762C1095 597.983 1095.2 597.139 1095.23 596.28C1095.23 596.179 1095.26 596.08 1095.3 595.988C1095.35 595.897 1095.41 595.816 1095.49 595.75C1095.56 595.683 1095.65 595.633 1095.75 595.602C1095.85 595.571 1095.95 595.56 1096.05 595.57C1096.25 595.585 1096.44 595.678 1096.57 595.83C1096.71 595.981 1096.78 596.178 1096.77 596.38C1096.73 597.45 1096.47 598.499 1096.01 599.465C1095.55 600.431 1094.89 601.294 1094.09 602C1092.55 603.211 1090.62 603.828 1088.66 603.74Z" fill="currentColor" fill-rule="nonzero" />
  </g>
</svg>

