<svg viewBox="0 0 32 32" xmlns="http://www.w3.org/2000/svg" fill="none">
  <g transform="translate(-1152 -576)">
<path id="Vector 437" d="M1176.83 592.969C1176.56 592.322 1176.25 591.589 1175.95 590.684C1175.16 588.315 1177.68 585.731 1177.71 585.707L1176.29 584.293C1176.15 584.433 1172.87 587.771 1174.05 591.316C1174.38 592.294 1174.7 593.066 1174.99 593.746C1175.66 595.065 1176 596.522 1176 598C1175.88 599.191 1175.43 600.323 1174.68 601.262C1173.94 602.201 1172.94 602.906 1171.81 603.293C1172.17 601.891 1172.16 600.42 1171.79 599.021C1171.43 597.621 1170.71 596.338 1169.71 595.293L1168.66 594.249L1168.08 595.606C1166.24 599.89 1164.06 601.76 1162.78 602.54C1161.99 602.057 1161.32 601.394 1160.84 600.604C1160.36 599.815 1160.07 598.922 1160 598C1160.07 596.741 1160.38 595.508 1160.93 594.371C1161.58 593 1161.94 591.514 1162 590L1162 588.222C1162.87 588.582 1164 589.525 1164 592L1164 594.604L1165.74 592.669C1168.85 589.215 1168.21 585.102 1166.95 582.361C1167.9 582.68 1168.72 583.31 1169.28 584.152C1169.83 584.993 1170.09 585.997 1170 587L1172 587C1172 581.463 1167.42 580 1165 580L1163 580L1164.2 581.599C1164.34 581.784 1167.06 585.526 1165.55 589.287C1165.22 588.342 1164.6 587.521 1163.79 586.934C1162.98 586.346 1162 586.021 1161 586L1160 586L1160 590C1159.93 591.259 1159.62 592.492 1159.07 593.629C1158.42 595 1158.06 596.486 1158 598C1158 601.848 1161.82 606 1168 606C1174.18 606 1178 601.848 1178 598C1178 596.256 1177.6 594.535 1176.83 592.969ZM1164.83 603.526C1166.68 601.999 1168.17 600.089 1169.2 597.928C1169.75 598.818 1170.07 599.834 1170.11 600.88C1170.16 601.926 1169.93 602.965 1169.46 603.899C1168.98 603.965 1168.49 603.999 1168 604C1166.93 604.008 1165.86 603.848 1164.83 603.526Z" fill="currentColor" fill-rule="nonzero" />
  </g>
</svg>

