<svg viewBox="0 0 32 32" xmlns="http://www.w3.org/2000/svg" fill="none">
  <g transform="translate(-1368.000122 -576)">
<path id="Vector 441" d="M1396 596L1396 593C1396 591.939 1395.58 590.922 1394.83 590.172C1394.08 589.421 1393.06 589 1392 589C1390.94 589 1389.92 589.421 1389.17 590.172C1388.42 590.922 1388 591.939 1388 593L1388 596C1387.47 596 1386.96 596.211 1386.59 596.586C1386.21 596.961 1386 597.47 1386 598L1386 604C1386 604.53 1386.21 605.039 1386.59 605.414C1386.96 605.789 1387.47 606 1388 606L1396 606C1396.53 606 1397.04 605.789 1397.41 605.414C1397.79 605.039 1398 604.53 1398 604L1398 598C1398 597.47 1397.79 596.961 1397.41 596.586C1397.04 596.211 1396.53 596 1396 596ZM1390 593C1390 592.47 1390.21 591.961 1390.59 591.586C1390.96 591.211 1391.47 591 1392 591C1392.53 591 1393.04 591.211 1393.41 591.586C1393.79 591.961 1394 592.47 1394 593L1394 596L1390 596L1390 593ZM1396 604L1388 604L1388 598L1396 598L1396 604ZM1383 603L1372 603C1371.47 603 1370.96 602.789 1370.59 602.414C1370.21 602.039 1370 601.53 1370 601L1370 598C1370 597.47 1370.21 596.961 1370.59 596.586C1370.96 596.211 1371.47 596 1372 596L1383 596L1383 598L1372 598L1372 601L1383 601L1383 603ZM1385 594L1376 594C1375.47 594 1374.96 593.789 1374.59 593.414C1374.21 593.039 1374 592.53 1374 592L1374 589C1374 588.47 1374.21 587.961 1374.59 587.586C1374.96 587.211 1375.47 587 1376 587L1387 587L1387 589L1376 589L1376 592L1385 592L1385 594ZM1390 585L1372 585C1371.47 585 1370.96 584.789 1370.59 584.414C1370.21 584.039 1370 583.53 1370 583L1370 580C1370 579.47 1370.21 578.961 1370.59 578.586C1370.96 578.211 1371.47 578 1372 578L1390 578C1390.53 578 1391.04 578.211 1391.41 578.586C1391.79 578.961 1392 579.47 1392 580L1392 583C1392 583.53 1391.79 584.039 1391.41 584.414C1391.04 584.789 1390.53 585 1390 585ZM1372 583L1390 583L1390 580L1372 580L1372 583Z" fill="currentColor" fill-rule="nonzero" />
  </g>
</svg>

