<svg viewBox="0 0 32 32" xmlns="http://www.w3.org/2000/svg" fill="none">
  <g transform="translate(-1296 -576)">
<path id="Vector 439" d="M1323 596.397L1323 599.397C1322 599.397 1321 597.897 1321 595.397L1321 592.397C1317 597.397 1316 599.397 1316 601.397C1316 602.378 1316.29 603.338 1316.83 604.157C1317.37 604.975 1318.14 605.616 1319.05 606C1319.35 604.641 1320.03 603.394 1321 602.397C1321.97 603.394 1322.65 604.641 1322.95 606C1323.86 605.616 1324.63 604.975 1325.17 604.157C1325.71 603.338 1326 602.378 1326 601.397C1326 599.397 1324.88 597.826 1323 596.397ZM1313 604L1300 604L1300 600L1313 600L1313 598L1300 598C1299.47 598 1298.96 598.211 1298.59 598.586C1298.21 598.961 1298 599.47 1298 600L1298 604C1298 604.53 1298.21 605.039 1298.59 605.414C1298.96 605.789 1299.47 606 1300 606L1313 606L1313 604Z" fill="currentColor" fill-rule="nonzero" />
		<path id="Vector 440" d="M1324 588L1303 588C1302.47 588 1301.96 588.211 1301.59 588.586C1301.21 588.961 1301 589.47 1301 590L1301 594C1301 594.53 1301.21 595.039 1301.59 595.414C1301.96 595.789 1302.47 596 1303 596L1313 596L1313 594L1303 594L1303 590L1324 590L1324 592L1326 592L1326 590C1326 589.47 1325.79 588.961 1325.41 588.586C1325.04 588.211 1324.53 588 1324 588ZM1321 586L1300 586C1299.47 586 1298.96 585.789 1298.59 585.414C1298.21 585.039 1298 584.53 1298 584L1298 580C1298 579.47 1298.21 578.961 1298.59 578.586C1298.96 578.211 1299.47 578 1300 578L1321 578C1321.53 578 1322.04 578.211 1322.41 578.586C1322.79 578.961 1323 579.47 1323 580L1323 584C1323 584.53 1322.79 585.039 1322.41 585.414C1322.04 585.789 1321.53 586 1321 586ZM1300 580L1300 584L1321 584L1321 580L1300 580Z" fill="currentColor" fill-rule="nonzero" />
  </g>
</svg>

