<svg viewBox="0 0 32 32" xmlns="http://www.w3.org/2000/svg" fill="none">
  <g transform="translate(-1224 -576)">
<path id="Vector 438" d="M1234.78 602.539C1235.13 602.329 1235.54 602.039 1236 601.629C1235.61 601.959 1235.2 602.259 1234.76 602.529C1234.77 602.529 1234.77 602.539 1234.78 602.539ZM1248.84 592.97C1248.56 592.32 1248.25 591.59 1247.95 590.68C1247.39 589 1248.53 587.143 1249.17 586.337C1249.35 586.115 1249.48 585.944 1249.7 585.707C1248.6 584.582 1246.9 584.249 1245.47 584.931C1244.93 585.186 1244.41 585.484 1243.92 585.821C1243.31 581.25 1239.24 580 1237 580L1235 580L1236.2 581.6C1236.34 581.78 1239.07 585.52 1237.56 589.28C1237.22 588.336 1236.6 587.517 1235.79 586.931C1234.98 586.346 1234 586.021 1233 586L1232 586L1232 590C1232 591.31 1231.55 592.43 1231.07 593.63C1230.55 594.94 1230 596.31 1230 598C1230 599.94 1230.97 601.95 1232.73 603.48C1233.45 603.24 1234.13 602.92 1234.76 602.53C1235.2 602.26 1235.61 601.96 1236 601.63C1236.18 601.47 1236.37 601.3 1236.54 601.14L1236.6 601.08C1236.88 600.78 1237.18 600.45 1237.49 600.07C1237.73 599.78 1237.95 599.47 1238.16 599.15C1238.81 598.21 1239.46 597.04 1240.08 595.6L1240.67 594.25L1241.71 595.29C1242.23 595.81 1242.83 596.62 1243.3 597.63C1243.35 597.75 1243.41 597.88 1243.46 598.02C1243.49 598.08 1243.51 598.15 1243.54 598.22C1243.93 599.23 1244.16 600.41 1244.08 601.69C1244.08 601.71 1244.08 601.73 1244.07 601.74C1244.07 601.87 1244.06 602.01 1244.04 602.14C1244.04 602.19 1244.03 602.24 1244.02 602.29C1244 602.42 1243.98 602.54 1243.95 602.67C1243.96 602.73 1243.94 602.78 1243.92 602.83C1243.89 602.96 1243.86 603.1 1243.82 603.24C1243.82 603.26 1243.82 603.28 1243.81 603.29C1243.56 604.17 1243.13 604.99 1242.5 605.69C1242.47 605.72 1242.45 605.75 1242.42 605.77C1247.16 604.85 1250 601.31 1250 598C1250 595.74 1249.46 594.45 1248.84 592.97Z" fill="currentColor" fill-rule="nonzero" />
  </g>
</svg>

