<svg viewBox="0 0 32 32" xmlns="http://www.w3.org/2000/svg" fill="none">
  <g transform="translate(-1512.000122 -576)">
<path id="Vector 444" d="M1542 590C1542 588.283 1541.67 586.582 1541.01 584.995C1540.35 583.409 1539.39 581.968 1538.17 580.757L1536.41 579L1535 580.414L1536.76 582.171C1537.79 583.199 1538.6 584.419 1539.16 585.763C1539.71 587.106 1540 588.546 1540 590C1540 591.453 1539.71 592.893 1539.16 594.236C1538.6 595.58 1537.79 596.8 1536.76 597.828L1534 600.586L1535.41 602L1538.17 599.243C1539.39 598.032 1540.35 596.591 1541.01 595.005C1541.67 593.418 1542 591.717 1542 590Z" fill="currentColor" fill-rule="nonzero" />
		<path id="Vector 445" d="M1529 588C1529.55 588 1530 587.552 1530 587C1530 586.448 1529.55 586 1529 586C1528.45 586 1528 586.448 1528 587C1528 587.552 1528.45 588 1529 588Z" fill="currentColor" fill-rule="nonzero" />
		<path id="Vector 446" d="M1534 590C1534 588.283 1533.67 586.582 1533.01 584.995C1532.35 583.409 1531.39 581.968 1530.17 580.757L1528.41 579L1527 580.414L1528.76 582.171C1529.79 583.199 1530.6 584.419 1531.16 585.763C1531.71 587.106 1532 588.546 1532 590C1532 591.453 1531.71 592.893 1531.16 594.236C1530.6 595.58 1529.79 596.8 1528.76 597.828L1526 600.586L1527.41 602L1530.17 599.243C1531.39 598.032 1532.35 596.591 1533.01 595.005C1533.67 593.418 1534 591.717 1534 590Z" fill="currentColor" fill-rule="nonzero" />
		<path id="Vector 447" d="M1537 588C1537.55 588 1538 587.552 1538 587C1538 586.448 1537.55 586 1537 586C1536.45 586 1536 586.448 1536 587C1536 587.552 1536.45 588 1537 588Z" fill="currentColor" fill-rule="nonzero" />
		<path id="Vector 448" d="M1521 588C1521.55 588 1522 587.552 1522 587C1522 586.448 1521.55 586 1521 586C1520.45 586 1520 586.448 1520 587C1520 587.552 1520.45 588 1521 588Z" fill="currentColor" fill-rule="nonzero" />
		<path id="Vector 449" d="M1521.41 600L1522.17 599.243C1523.39 598.029 1524.35 596.588 1525.01 595.002C1525.66 593.416 1526 591.717 1526 590C1526 588.283 1525.66 586.583 1525.01 584.998C1524.35 583.412 1523.39 581.971 1522.17 580.757L1520 578.586L1517.83 580.757C1516.62 581.971 1515.65 583.412 1515 584.998C1514.34 586.583 1514 588.283 1514 590C1514 591.717 1514.34 593.416 1515 595.002C1515.65 596.588 1516.62 598.029 1517.83 599.243L1518.59 600L1514.29 604.293C1514.15 604.433 1514.06 604.611 1514.02 604.805C1513.98 604.999 1514 605.2 1514.08 605.383C1514.15 605.565 1514.28 605.721 1514.44 605.831C1514.61 605.941 1514.8 606 1515 606L1525 606C1525.2 606 1525.39 605.941 1525.56 605.831C1525.72 605.721 1525.85 605.565 1525.92 605.383C1526 605.2 1526.02 604.999 1525.98 604.805C1525.94 604.611 1525.85 604.433 1525.71 604.293L1521.41 600ZM1516 590C1516 588.545 1516.28 587.104 1516.84 585.761C1517.39 584.417 1518.21 583.197 1519.24 582.171L1520 581.414L1520.76 582.171C1521.79 583.199 1522.6 584.419 1523.16 585.763C1523.71 587.106 1524 588.546 1524 589.999C1524 591.453 1523.71 592.893 1523.16 594.236C1522.6 595.58 1521.79 596.8 1520.76 597.828L1520 598.586L1519.24 597.828C1518.21 596.802 1517.39 595.582 1516.84 594.239C1516.28 592.895 1516 591.454 1516 590ZM1517.41 604L1520 601.414L1522.59 604L1517.41 604Z" fill="currentColor" fill-rule="nonzero" />
  </g>
</svg>

