<svg viewBox="0 0 32 32" xmlns="http://www.w3.org/2000/svg" fill="none">
  <g transform="translate(-1440.000122 -576)">
<path id="Vector 442" d="M1464 584C1464.55 584 1465 583.552 1465 583C1465 582.448 1464.55 582 1464 582C1463.45 582 1463 582.448 1463 583C1463 583.552 1463.45 584 1464 584Z" fill="currentColor" fill-rule="nonzero" />
		<path id="Vector 443" d="M1466 578C1461.76 578.005 1457.69 579.693 1454.69 582.692C1451.69 585.692 1450.01 589.758 1450 594L1450 596L1443 596C1442.8 596 1442.61 596.059 1442.44 596.169C1442.28 596.279 1442.15 596.435 1442.08 596.617C1442 596.8 1441.98 597.001 1442.02 597.195C1442.06 597.389 1442.15 597.567 1442.29 597.707L1450.29 605.707C1450.43 605.847 1450.61 605.942 1450.81 605.981C1451 606.019 1451.2 605.999 1451.38 605.924C1451.57 605.848 1451.72 605.72 1451.83 605.555C1451.94 605.391 1452 605.198 1452 605L1452 598L1454 598C1458.24 597.995 1462.31 596.307 1465.31 593.308C1468.31 590.308 1469.99 586.242 1470 582L1470 578L1466 578ZM1450 602.586L1445.41 598L1450 598L1450 602.586ZM1452 596L1452 594C1452 590.39 1453.4 586.92 1455.91 584.322L1463.68 592.092C1461.08 594.599 1457.61 596 1454 596L1452 596ZM1468 582C1468 585.122 1466.95 588.153 1465.02 590.606L1457.4 582.98C1459.85 581.049 1462.88 579.999 1466 580L1468 580L1468 582Z" fill="currentColor" fill-rule="nonzero" />
  </g>
</svg>

