<svg viewBox="0 0 32 32" xmlns="http://www.w3.org/2000/svg" fill="none">
  <g transform="translate(-1656.000122 -576)">
<path id="Vector 452" d="M1678 592L1680 592L1680 584L1672 584L1672 586L1678 586L1678 592ZM1664 600L1672 600L1672 598L1666 598L1666 592L1664 592L1664 600Z" fill="currentColor" fill-rule="nonzero" />
		<path id="Vector 453" d="M1682 604L1662 604C1661.47 604 1660.96 603.789 1660.59 603.414C1660.21 603.039 1660 602.53 1660 602L1660 582C1660 581.47 1660.21 580.961 1660.59 580.586C1660.96 580.211 1661.47 580 1662 580L1682 580C1682.53 580 1683.04 580.211 1683.41 580.586C1683.79 580.961 1684 581.47 1684 582L1684 602C1684 602.53 1683.79 603.039 1683.41 603.414C1683.04 603.789 1682.53 604 1682 604ZM1662 582L1662 602L1682 602L1682 582L1662 582Z" fill="currentColor" fill-rule="nonzero" />
  </g>
</svg>

