<svg viewBox="0 0 32 32" xmlns="http://www.w3.org/2000/svg" fill="none">
  <g transform="translate(-1584.000122 -576)">
<path id="Vector 450" d="M1595 586L1596.41 587.41L1599 584.83L1599 599.17L1596.41 596.59L1595 598L1600 603L1605 598L1603.59 596.59L1601 599.17L1601 584.83L1603.59 587.41L1605 586L1600 581L1595 586Z" fill="currentColor" fill-rule="nonzero" />
		<path id="Vector 451" d="M1612 606L1588 606C1587.47 606 1586.96 605.789 1586.59 605.414C1586.21 605.039 1586 604.53 1586 604L1586 580C1586 579.47 1586.21 578.961 1586.59 578.586C1586.96 578.211 1587.47 578 1588 578L1612 578C1612.53 578 1613.04 578.211 1613.41 578.586C1613.79 578.961 1614 579.47 1614 580L1614 604C1614 604.53 1613.79 605.039 1613.41 605.414C1613.04 605.789 1612.53 606 1612 606ZM1588 580L1588 604L1612 604L1612 580L1588 580Z" fill="currentColor" fill-rule="nonzero" />
  </g>
</svg>

