<svg viewBox="0 0 32 32" xmlns="http://www.w3.org/2000/svg" fill="none">
  <g transform="translate(-1728.000122 -576)">
<path id="Vector 454" d="M1750 587L1748.59 588.41L1751.17 591L1736.83 591L1739.41 588.41L1738 587L1733 592L1738 597L1739.41 595.59L1736.83 593L1751.17 593L1748.59 595.59L1750 597L1755 592L1750 587Z" fill="currentColor" fill-rule="nonzero" />
		<path id="Vector 455" d="M1756 606L1732 606C1731.47 606 1730.96 605.789 1730.59 605.414C1730.21 605.039 1730 604.53 1730 604L1730 580C1730 579.47 1730.21 578.961 1730.59 578.586C1730.96 578.211 1731.47 578 1732 578L1756 578C1756.53 578 1757.04 578.211 1757.41 578.586C1757.79 578.961 1758 579.47 1758 580L1758 604C1758 604.53 1757.79 605.039 1757.41 605.414C1757.04 605.789 1756.53 606 1756 606ZM1732 580L1732 604L1756 604L1756 580L1732 580Z" fill="currentColor" fill-rule="nonzero" />
  </g>
</svg>

