<svg viewBox="0 0 32 32" xmlns="http://www.w3.org/2000/svg" fill="none">
  <g transform="translate(-1944.000122 -576)">
<path id="Vector 458" d="M1968.8 578L1964.36 584.664C1964.08 585.075 1963.71 585.412 1963.28 585.645C1962.84 585.878 1962.35 586 1961.86 586L1956 586C1955.2 586.001 1954.44 586.317 1953.88 586.88C1953.32 587.442 1953 588.205 1953 589L1953 595C1953 595.53 1953.21 596.039 1953.59 596.414C1953.96 596.789 1954.47 597 1955 597L1955 604C1955 604.53 1955.21 605.039 1955.59 605.414C1955.96 605.789 1956.47 606 1957 606L1961 606C1961.53 606 1962.04 605.789 1962.41 605.414C1962.79 605.039 1963 604.53 1963 604L1963 592L1961 592L1961 604L1957 604L1957 595L1955 595L1955 589C1955 588.735 1955.11 588.48 1955.29 588.293C1955.48 588.105 1955.73 588 1956 588L1961.86 588C1962.68 588.001 1963.49 587.798 1964.22 587.409C1964.95 587.021 1965.56 586.459 1966.02 585.773L1970.46 579.109L1968.8 578Z" fill="currentColor" fill-rule="nonzero" />
		<path id="Vector 459" d="M1955 581C1955 580.209 1955.23 579.436 1955.67 578.778C1956.11 578.12 1956.74 577.607 1957.47 577.305C1958.2 577.002 1959 576.923 1959.78 577.077C1960.56 577.231 1961.27 577.612 1961.83 578.172C1962.39 578.731 1962.77 579.444 1962.92 580.22C1963.08 580.996 1963 581.8 1962.7 582.531C1962.39 583.262 1961.88 583.886 1961.22 584.326C1960.56 584.765 1959.79 585 1959 585C1957.94 584.999 1956.92 584.577 1956.17 583.827C1955.42 583.077 1955 582.061 1955 581ZM1957 581C1957 581.396 1957.12 581.782 1957.34 582.111C1957.56 582.44 1957.87 582.696 1958.23 582.848C1958.6 582.999 1959 583.039 1959.39 582.962C1959.78 582.884 1960.13 582.694 1960.41 582.414C1960.69 582.135 1960.88 581.778 1960.96 581.39C1961.04 581.002 1961 580.6 1960.85 580.235C1960.7 579.869 1960.44 579.557 1960.11 579.337C1959.78 579.117 1959.4 579 1959 579C1958.47 579 1957.96 579.211 1957.59 579.586C1957.21 579.961 1957 580.47 1957 581Z" fill="currentColor" fill-rule="nonzero" />
  </g>
</svg>

