<svg viewBox="0 0 32 32" xmlns="http://www.w3.org/2000/svg" fill="none">
  <g transform="translate(-72 -648)">
<path id="Vector 461" d="M83.61 677.92C83.4053 677.833 83.2353 677.681 83.1266 677.488C83.018 677.294 82.9769 677.069 83.01 676.85L84.83 665L80 665C79.8468 665.004 79.6948 664.973 79.5556 664.909C79.4164 664.845 79.2938 664.75 79.1972 664.631C79.1005 664.512 79.0325 664.373 78.9983 664.223C78.9641 664.074 78.9647 663.919 79 663.77L82 650.77C82.0528 650.546 82.181 650.347 82.3632 650.207C82.5453 650.067 82.7702 649.994 83 650L93 650C93.1494 649.999 93.297 650.032 93.432 650.096C93.5669 650.16 93.6859 650.254 93.78 650.37C93.8754 650.487 93.943 650.625 93.9777 650.772C94.0123 650.919 94.0131 651.072 93.98 651.22L92.25 659L97 659C97.1874 658.999 97.3712 659.052 97.5303 659.151C97.6894 659.25 97.8175 659.392 97.9 659.56C97.9716 659.721 97.9992 659.899 97.9799 660.075C97.9606 660.25 97.895 660.418 97.79 660.56L84.79 677.56C84.7021 677.69 84.5848 677.798 84.4476 677.874C84.3103 677.951 84.157 677.994 84 678C83.8662 677.997 83.734 677.97 83.61 677.92Z" fill="currentColor" fill-rule="nonzero" />
  </g>
</svg>

