<svg viewBox="0 0 32 32" xmlns="http://www.w3.org/2000/svg" fill="none">
  <g transform="translate(-216 -648)">
<path id="Vector 463" d="M246 676.59L219.41 650L218 651.41L224.4 657.82L223 663.77C222.965 663.919 222.964 664.074 222.998 664.223C223.033 664.373 223.101 664.512 223.197 664.631C223.294 664.75 223.416 664.845 223.556 664.909C223.695 664.973 223.847 665.004 224 665L228.83 665L227 676.85C226.967 677.069 227.008 677.294 227.117 677.488C227.225 677.681 227.395 677.833 227.6 677.92C227.727 677.971 227.863 677.998 228 678C228.153 677.999 228.303 677.964 228.44 677.897C228.577 677.829 228.697 677.731 228.79 677.61L235.47 668.88L244.59 678L246 676.59ZM238.53 664.87L241.79 660.61C241.895 660.468 241.961 660.3 241.98 660.125C241.999 659.949 241.972 659.771 241.9 659.61C241.825 659.432 241.7 659.28 241.54 659.172C241.38 659.064 241.193 659.004 241 659L236.25 659L238 651.22C238.033 651.072 238.032 650.919 237.998 650.772C237.963 650.625 237.895 650.487 237.8 650.37C237.704 650.251 237.582 650.156 237.443 650.092C237.304 650.028 237.153 649.996 237 650L227 650C226.77 649.994 226.545 650.067 226.363 650.207C226.181 650.347 226.053 650.546 226 650.77L225.7 652.07L238.53 664.87Z" fill="currentColor" fill-rule="nonzero" />
  </g>
</svg>

