<svg viewBox="0 0 32 32" xmlns="http://www.w3.org/2000/svg" fill="none">
  <g transform="translate(-144 -648)">
<path id="Vector 462" d="M155.13 654.89L155.8 652L163.8 652L161.8 661L167 661L164.51 664.25L165.94 665.68L169.81 660.61C169.915 660.468 169.981 660.3 170 660.125C170.019 659.949 169.992 659.771 169.92 659.61C169.843 659.429 169.715 659.275 169.552 659.166C169.388 659.058 169.196 659 169 659L164.25 659L166 651.22C166.033 651.072 166.032 650.919 165.998 650.772C165.963 650.625 165.895 650.487 165.8 650.37C165.704 650.251 165.582 650.156 165.443 650.092C165.304 650.028 165.153 649.996 165 650L155 650C154.77 649.994 154.545 650.067 154.363 650.207C154.181 650.347 154.053 650.546 154 650.77L153.46 653.22L155.13 654.89ZM174 676.59L164.69 667.28L163.27 665.85L154.6 657.19L152.93 655.52L147.41 650L146 651.41L152.4 657.82L151 663.77C150.965 663.919 150.964 664.074 150.998 664.223C151.033 664.373 151.101 664.512 151.197 664.631C151.294 664.75 151.416 664.845 151.556 664.909C151.695 664.973 151.847 665.004 152 665L156.83 665L155 676.85C154.967 677.069 155.008 677.294 155.117 677.488C155.225 677.681 155.395 677.833 155.6 677.92C155.727 677.971 155.863 677.998 156 678C156.153 677.999 156.303 677.964 156.44 677.897C156.577 677.829 156.697 677.731 156.79 677.61L163.47 668.88L172.59 678L174 676.59ZM153.26 663L154.07 659.48L157.59 663L153.26 663ZM157.58 673.28L159 664.37L162 667.45L157.58 673.28Z" fill="currentColor" fill-rule="nonzero" />
  </g>
</svg>

