<svg viewBox="0 0 32 32" xmlns="http://www.w3.org/2000/svg" fill="none">
  <g transform="translate(-0 -648)">
<path id="Vector 460" d="M11.61 677.92C11.4054 677.833 11.2353 677.681 11.1267 677.488C11.018 677.294 10.977 677.069 11.01 676.85L12.83 665L8.00001 665C7.84688 665.004 7.69486 664.973 7.55566 664.909C7.41647 664.845 7.29382 664.75 7.19719 664.631C7.10056 664.512 7.03253 664.373 6.99834 664.223C6.96415 664.074 6.96472 663.919 7.00001 663.77L10 650.77C10.0528 650.546 10.1811 650.347 10.3632 650.207C10.5453 650.067 10.7702 649.994 11 650L21 650C21.1494 649.999 21.297 650.032 21.432 650.096C21.567 650.16 21.6859 650.254 21.78 650.37C21.8755 650.487 21.943 650.625 21.9777 650.772C22.0123 650.919 22.0131 651.072 21.98 651.22L20.25 659L25 659C25.1874 658.999 25.3712 659.052 25.5303 659.151C25.6894 659.25 25.8175 659.392 25.9 659.56C25.9717 659.721 25.9992 659.899 25.9799 660.075C25.9606 660.25 25.8951 660.418 25.79 660.56L12.79 677.56C12.7021 677.69 12.5848 677.798 12.4476 677.874C12.3103 677.951 12.157 677.994 12 678C11.8662 677.997 11.7341 677.97 11.61 677.92ZM17.75 661L19.75 652L11.8 652L9.26001 663L15.17 663L13.58 673.28L23 661L17.75 661Z" fill="currentColor" fill-rule="nonzero" />
  </g>
</svg>

