<svg viewBox="0 0 32 32" xmlns="http://www.w3.org/2000/svg" fill="none">
  <g transform="translate(-432 -648)">
<path id="Vector 469" d="M457 671L462 673L462 671L457 668.5L457 666C457 665.735 456.895 665.48 456.707 665.293C456.52 665.105 456.265 665 456 665C455.735 665 455.48 665.105 455.293 665.293C455.105 665.48 455 665.735 455 666L455 668.5L450 671L450 673L455 671L455 674.5L453 676L453 677L456 676L459 677L459 676L457 674.5L457 671Z" fill="currentColor" fill-rule="evenodd" />
		<path id="Vector 470" d="M458 652L454 652L454 650L452 650L452 652L444 652L444 650L442 650L442 652L438 652C437.47 652 436.961 652.211 436.586 652.586C436.211 652.961 436 653.47 436 654L436 674C436 674.53 436.211 675.039 436.586 675.414C436.961 675.789 437.47 676 438 676L448 676L448 674L438 674L438 654L442 654L442 656L444 656L444 654L452 654L452 656L454 656L454 654L458 654L458 661L460 661L460 654C460 653.47 459.789 652.961 459.414 652.586C459.039 652.211 458.53 652 458 652Z" fill="currentColor" fill-rule="evenodd" />
  </g>
</svg>

