<svg viewBox="0 0 32 32" xmlns="http://www.w3.org/2000/svg" fill="none">
  <g transform="translate(-288 -648)">
<path id="Vector 464" d="M304 676C303.776 676 303.551 675.986 303.329 675.956C301.275 672.663 300.137 668.88 300.033 665L317.95 665C317.974 664.669 318 664.337 318 664C318 661.231 317.179 658.524 315.641 656.222C314.102 653.92 311.916 652.125 309.358 651.066C306.799 650.006 303.984 649.729 301.269 650.269C298.553 650.809 296.058 652.143 294.101 654.101C292.143 656.058 290.809 658.553 290.269 661.269C289.729 663.984 290.006 666.799 291.066 669.358C292.125 671.916 293.92 674.102 296.222 675.641C298.524 677.179 301.231 678 304 678L304 676ZM315.95 663L309.963 663C309.856 659.32 308.915 655.713 307.21 652.45C309.569 653.108 311.67 654.471 313.232 656.357C314.794 658.242 315.742 660.56 315.95 663ZM304.67 652.044C306.725 655.337 307.863 659.12 307.967 663L300.033 663C300.137 659.12 301.275 655.337 303.33 652.044C303.776 651.986 304.227 651.986 304.672 652.044M300.791 652.449C299.086 655.712 298.144 659.32 298.037 663L292.05 663C292.258 660.56 293.206 658.242 294.768 656.357C296.33 654.471 298.431 653.108 300.79 652.45M292.05 665L298.037 665C298.144 668.68 299.085 672.287 300.79 675.55C298.431 674.892 296.33 673.529 294.768 671.643C293.206 669.758 292.258 667.44 292.05 665Z" fill="currentColor" fill-rule="nonzero" />
		<path id="Vector 465" d="M313 673L318 675L318 673L313 670.5L313 668C313 667.735 312.895 667.48 312.707 667.293C312.52 667.105 312.265 667 312 667C311.735 667 311.48 667.105 311.293 667.293C311.105 667.48 311 667.735 311 668L311 670.5L306 673L306 675L311 673L311 676.5L309 678L309 679L312 678L315 679L315 678L313 676.5L313 673Z" fill="currentColor" fill-rule="evenodd" />
  </g>
</svg>

