<svg viewBox="0 0 32 32" xmlns="http://www.w3.org/2000/svg" fill="none">
  <g transform="translate(-360 -648)">
<path id="Vector 466" d="M386 654C386 653.47 385.789 652.961 385.414 652.586C385.039 652.211 384.53 652 384 652L368 652C367.47 652 366.961 652.211 366.586 652.586C366.211 652.961 366 653.47 366 654L366 674C366 674.53 366.211 675.039 366.586 675.414C366.961 675.789 367.47 676 368 676L376 676L376 674L368 674L368 654L384 654L384 660L386 660L386 654Z" fill="currentColor" fill-rule="evenodd" />
		<path id="Vector 467" d="M370 666L376 666L376 668L370 668L370 666ZM370 662L382 662L382 664L370 664L370 662Z" fill="currentColor" fill-rule="nonzero" />
		<path id="Vector 468" d="M382 658L382 660L370 660L370 658L382 658ZM385 671L390 673L390 671L385 668.5L385 666C385 665.735 384.895 665.48 384.707 665.293C384.52 665.105 384.265 665 384 665C383.735 665 383.48 665.105 383.293 665.293C383.105 665.48 383 665.735 383 666L383 668.5L378 671L378 673L383 671L383 674.5L381 676L381 677L384 676L387 677L387 676L385 674.5L385 671Z" fill="currentColor" fill-rule="evenodd" />
  </g>
</svg>

