<svg viewBox="0 0 32 32" xmlns="http://www.w3.org/2000/svg" fill="none">
  <g transform="translate(-504 -648)">
<path id="Vector 471" d="M529 659C527.848 659.002 526.732 659.401 525.84 660.129C524.947 660.858 524.333 661.872 524.101 663L515.9 663C515.652 661.786 514.962 660.707 513.964 659.973C512.966 659.238 511.731 658.901 510.498 659.025C509.266 659.15 508.123 659.728 507.292 660.647C506.461 661.566 506.001 662.761 506.001 664C506.001 665.239 506.461 666.434 507.292 667.353C508.123 668.272 509.266 668.85 510.498 668.975C511.731 669.099 512.966 668.762 513.964 668.027C514.962 667.293 515.652 666.214 515.9 665L524.1 665C524.289 665.927 524.737 666.781 525.393 667.464C526.048 668.146 526.884 668.628 527.802 668.855C528.721 669.081 529.685 669.042 530.582 668.743C531.479 668.443 532.273 667.895 532.872 667.163C533.47 666.43 533.848 665.543 533.963 664.603C534.077 663.664 533.922 662.712 533.517 661.857C533.111 661.003 532.472 660.28 531.672 659.775C530.873 659.269 529.946 659 529 659ZM529 667C528.407 667 527.827 666.824 527.333 666.494C526.84 666.165 526.455 665.696 526.228 665.148C526.001 664.6 525.942 663.997 526.058 663.415C526.173 662.833 526.459 662.298 526.879 661.879C527.298 661.459 527.833 661.173 528.415 661.058C528.997 660.942 529.6 661.001 530.148 661.228C530.696 661.455 531.165 661.84 531.494 662.333C531.824 662.827 532 663.407 532 664C531.999 664.795 531.683 665.558 531.12 666.121C530.558 666.683 529.795 666.999 529 667Z" fill="currentColor" fill-rule="nonzero" />
  </g>
</svg>

