<svg viewBox="0 0 32 32" xmlns="http://www.w3.org/2000/svg" fill="none">
  <g transform="translate(-720 -648)">
<path id="Vector 476" d="M748 650L724 650C722.9 650 722 650.9 722 652L722 676C722 677.1 722.9 678 724 678L739 678L739 676C739 673.2 741.2 671 744 671L744 669C740.1 669 737 672.1 737 676L734 676L734 672L732 672L732 676L724 676L724 652L732 652L732 666L734 666L734 661L738 661L738 659L734 659L734 652L748 652L748 659L744 659L744 661L748 661L748 676L744 676L744 678L748 678C749.1 678 750 677.1 750 676L750 652C750 650.9 749.1 650 748 650Z" fill="currentColor" fill-rule="nonzero" />
  </g>
</svg>

