<svg viewBox="0 0 32 32" xmlns="http://www.w3.org/2000/svg" fill="none">
  <g transform="translate(-648 -648)">
<path id="Vector 473" d="M677 676C676.659 675.999 676.32 675.937 676 675.818L676 675.812C675.532 675.613 675.108 675.322 674.755 674.955C674.403 674.589 674.128 674.155 673.947 673.679C673.884 673.479 673.758 673.304 673.587 673.181C673.416 673.059 673.21 672.995 673 673C672.79 673.001 672.586 673.068 672.416 673.191C672.246 673.313 672.119 673.486 672.051 673.684C671.829 674.329 671.421 674.894 670.878 675.306C670.334 675.718 669.681 675.96 669 676C668.318 675.96 667.664 675.718 667.12 675.304C666.576 674.891 666.168 674.325 665.947 673.679C665.881 673.48 665.754 673.307 665.584 673.185C665.414 673.063 665.209 672.998 665 673C664.79 673.001 664.586 673.068 664.416 673.191C664.246 673.313 664.119 673.486 664.051 673.684C663.829 674.329 663.421 674.894 662.878 675.306C662.334 675.718 661.681 675.96 661 676C660.318 675.96 659.664 675.718 659.12 675.304C658.576 674.891 658.168 674.325 657.947 673.679C657.88 673.481 657.752 673.308 657.582 673.186C657.411 673.065 657.207 672.999 656.997 673C656.788 673 656.584 673.067 656.414 673.189C656.244 673.312 656.117 673.485 656.051 673.684C655.829 674.329 655.421 674.894 654.878 675.306C654.334 675.718 653.681 675.96 653 676L650 676L650 678L653 678C653.776 678.007 654.543 677.831 655.238 677.485C655.933 677.14 656.537 676.636 657 676.013C657.468 676.63 658.073 677.131 658.767 677.476C659.461 677.82 660.225 678 661 678C661.775 678 662.539 677.82 663.233 677.476C663.927 677.131 664.532 676.63 665 676.013C665.468 676.63 666.073 677.131 666.767 677.476C667.461 677.82 668.225 678 669 678C669.775 678 670.539 677.82 671.233 677.476C671.927 677.131 672.532 676.63 673 676.013C673.557 676.733 674.294 677.292 675.138 677.633C675.728 677.878 676.361 678.003 677 678L678 678L678 676L677 676Z" fill="currentColor" fill-rule="nonzero" />
		<path id="Vector 474" d="M677.912 662.936L671.628 651.37C671.566 651.258 671.475 651.164 671.364 651.099C671.254 651.034 671.128 651 671 651C670.872 651 670.746 651.034 670.636 651.099C670.525 651.164 670.434 651.258 670.372 651.37L664.089 662.934C664.029 663.044 663.999 663.167 664 663.292C664.003 663.417 664.037 663.539 664.101 663.647C664.164 663.754 664.255 663.843 664.364 663.905C664.472 663.967 664.595 664 664.72 664L677.28 664C677.405 664 677.528 663.967 677.636 663.905C677.744 663.843 677.835 663.754 677.898 663.647C677.962 663.54 677.997 663.417 677.999 663.293C678.001 663.168 677.971 663.045 677.911 662.935M670.25 655L671.75 655L671.75 659L670.25 659L670.25 655ZM671 662C670.802 662 670.609 661.941 670.444 661.831C670.28 661.722 670.152 661.565 670.076 661.383C670 661.2 669.981 660.999 670.019 660.805C670.058 660.611 670.153 660.433 670.293 660.293C670.433 660.153 670.611 660.058 670.805 660.019C670.999 659.981 671.2 660 671.383 660.076C671.565 660.152 671.722 660.28 671.832 660.444C671.941 660.609 672 660.802 672 661C672 661.265 671.895 661.52 671.707 661.707C671.52 661.895 671.265 662 671 662Z" fill="currentColor" fill-rule="nonzero" />
		<path id="Vector 475" d="M676 669L676 666L674 666L674 669L673 669C672.319 668.96 671.666 668.718 671.122 668.306C670.579 667.894 670.171 667.329 669.949 666.684C669.883 666.485 669.756 666.312 669.586 666.189C669.416 666.067 669.212 666 669.003 666C668.793 665.999 668.589 666.064 668.419 666.186C668.248 666.308 668.12 666.481 668.053 666.679C667.832 667.325 667.424 667.891 666.88 668.304C666.336 668.718 665.682 668.96 665 669C664.319 668.96 663.666 668.718 663.122 668.306C662.579 667.894 662.171 667.329 661.949 666.684C661.881 666.486 661.754 666.313 661.584 666.191C661.414 666.068 661.21 666.001 661 666C660.791 665.998 660.586 666.063 660.416 666.185C660.246 666.307 660.119 666.48 660.053 666.679C659.832 667.325 659.424 667.891 658.88 668.304C658.336 668.718 657.682 668.96 657 669C656.341 668.969 655.705 668.746 655.172 668.358C654.639 667.969 654.231 667.433 654 666.815L654 660.06L664 652.27L666.533 654.246L667.501 652.464L664.612 650.213C664.435 650.075 664.216 650 663.991 650C663.766 650 663.547 650.075 663.37 650.213L649 661.419L650.243 662.991L652 661.621L652 666.809C651.625 667.715 650.906 668.436 650 668.812L650 670.896C651.196 670.655 652.263 669.986 653 669.013C653.468 669.63 654.073 670.131 654.767 670.476C655.461 670.82 656.225 671 657 671C657.775 671 658.539 670.82 659.233 670.476C659.927 670.131 660.532 669.63 661 669.013C661.468 669.63 662.073 670.131 662.767 670.476C663.461 670.82 664.225 671 665 671C665.775 671 666.539 670.82 667.233 670.476C667.927 670.131 668.532 669.63 669 669.013C669.463 669.636 670.067 670.14 670.762 670.485C671.457 670.831 672.224 671.007 673 671L678 671L678 669L676 669Z" fill="currentColor" fill-rule="nonzero" />
  </g>
</svg>

