<svg viewBox="0 0 32 32" xmlns="http://www.w3.org/2000/svg" fill="none">
  <g transform="translate(-576 -648)">
<path id="Vector 472" d="M605 676C604.659 675.999 604.32 675.937 604 675.818L604 675.812C603.532 675.613 603.108 675.322 602.755 674.955C602.403 674.589 602.128 674.155 601.947 673.679C601.884 673.478 601.758 673.304 601.587 673.181C601.416 673.059 601.21 672.995 601 673C600.79 673.001 600.586 673.068 600.416 673.191C600.246 673.313 600.119 673.486 600.051 673.684C599.829 674.329 599.421 674.894 598.878 675.306C598.334 675.718 597.681 675.96 597 676C596.318 675.96 595.664 675.718 595.12 675.304C594.576 674.891 594.168 674.325 593.947 673.679C593.881 673.48 593.754 673.307 593.584 673.185C593.414 673.063 593.209 672.998 593 673C592.79 673.001 592.586 673.068 592.416 673.191C592.246 673.313 592.119 673.486 592.051 673.684C591.829 674.329 591.421 674.894 590.878 675.306C590.334 675.718 589.681 675.96 589 676C588.318 675.96 587.664 675.718 587.12 675.304C586.576 674.891 586.168 674.325 585.947 673.679C585.88 673.48 585.752 673.308 585.582 673.186C585.411 673.064 585.207 672.999 584.997 673C584.788 673 584.584 673.067 584.414 673.189C584.244 673.312 584.117 673.485 584.051 673.684C583.829 674.329 583.421 674.894 582.878 675.306C582.334 675.718 581.681 675.96 581 676L578 676L578 678L581 678C581.776 678.007 582.543 677.831 583.238 677.485C583.933 677.14 584.537 676.636 585 676.013C585.468 676.63 586.073 677.131 586.767 677.476C587.461 677.82 588.225 678 589 678C589.775 678 590.539 677.82 591.233 677.476C591.927 677.131 592.532 676.63 593 676.013C593.468 676.63 594.073 677.131 594.767 677.476C595.461 677.82 596.225 678 597 678C597.775 678 598.539 677.82 599.233 677.476C599.927 677.131 600.532 676.63 601 676.013C601.557 676.733 602.294 677.292 603.138 677.633C603.728 677.878 604.361 678.003 605 678L606 678L606 676L605 676ZM604 661.63L605.757 663L607 661.428L592.612 650.214C592.435 650.076 592.216 650 591.991 650C591.766 650 591.547 650.076 591.37 650.214L577 661.419L578.243 662.991L580 661.621L580 666.809C579.625 667.715 578.906 668.436 578 668.812L578 670.896C579.196 670.655 580.263 669.986 581 669.013C581.468 669.63 582.073 670.131 582.767 670.476C583.461 670.82 584.225 671 585 671C585.775 671 586.539 670.82 587.233 670.476C587.927 670.131 588.532 669.63 589 669.013C589.468 669.63 590.073 670.131 590.767 670.476C591.461 670.82 592.225 671 593 671C593.775 671 594.539 670.82 595.233 670.476C595.927 670.131 596.532 669.63 597 669.013C597.463 669.636 598.067 670.14 598.762 670.485C599.457 670.831 600.224 671.007 601 671L606 671L606 669L604 669L604 661.63ZM597.949 666.683C597.883 666.484 597.756 666.311 597.586 666.188C597.416 666.066 597.212 665.999 597.003 665.999C596.793 665.998 596.589 666.063 596.419 666.185C596.248 666.307 596.12 666.479 596.053 666.678C595.832 667.324 595.424 667.89 594.88 668.304C594.336 668.717 593.682 668.96 593 669C592.319 668.96 591.666 668.718 591.122 668.306C590.579 667.894 590.171 667.329 589.949 666.684C589.881 666.486 589.754 666.313 589.584 666.191C589.414 666.068 589.21 666.001 589 666C588.791 665.998 588.586 666.063 588.416 666.185C588.246 666.307 588.119 666.48 588.053 666.679C587.832 667.325 587.424 667.891 586.88 668.304C586.336 668.718 585.682 668.96 585 669C584.34 668.969 583.704 668.745 583.17 668.356C582.636 667.967 582.229 667.429 581.998 666.81L582 660.062L591.991 652.272L602 660.072L602.002 669L601 669C600.319 668.96 599.666 668.718 599.122 668.306C598.579 667.894 598.171 667.328 597.949 666.683Z" fill="currentColor" fill-rule="nonzero" />
  </g>
</svg>

