<svg viewBox="0 0 32 32" xmlns="http://www.w3.org/2000/svg" fill="none">
  <g transform="translate(-1152 -648)">
<path id="Vector 484" d="M1182 678L1174 678L1174 670L1182 670L1182 678ZM1176 676L1180 676L1180 672L1176 672L1176 676ZM1156 668L1156 670L1160.59 670L1154 676.586L1155.41 678L1162 671.414L1162 676L1164 676L1164 668L1156 668ZM1171 659L1165 659L1162 663L1168 669L1174 663L1171 659Z" fill="currentColor" fill-rule="nonzero" />
		<path id="Vector 485" d="M1176 665L1176 663C1177.06 663 1178.08 662.579 1178.83 661.828C1179.58 661.078 1180 660.061 1180 659C1180 657.939 1179.58 656.922 1178.83 656.172C1178.08 655.421 1177.06 655 1176 655L1164 655L1164 653L1176 653C1177.59 653 1179.12 653.632 1180.24 654.757C1181.37 655.883 1182 657.409 1182 659C1182 660.591 1181.37 662.117 1180.24 663.243C1179.12 664.368 1177.59 665 1176 665ZM1162 658L1154 658L1154 650L1162 650L1162 658ZM1156 656L1160 656L1160 652L1156 652L1156 656Z" fill="currentColor" fill-rule="nonzero" />
  </g>
</svg>

