<svg viewBox="0 0 32 32" xmlns="http://www.w3.org/2000/svg" fill="none">
  <g transform="translate(-936 -648)">
<path id="Vector 479" d="M956 671L947.86 671C947.761 670.649 947.616 670.313 947.43 670L958 659.43C958.602 659.799 959.294 659.997 960 660C960.749 660.002 961.483 659.795 962.12 659.4C962.756 659.006 963.269 658.441 963.6 657.77C963.932 657.098 964.068 656.347 963.993 655.602C963.919 654.857 963.637 654.148 963.179 653.556C962.722 652.963 962.107 652.511 961.405 652.25C960.703 651.99 959.942 651.931 959.209 652.082C958.476 652.232 957.799 652.585 957.257 653.101C956.714 653.617 956.327 654.275 956.14 655L947.86 655C947.617 654.057 947.038 653.236 946.232 652.689C945.426 652.143 944.449 651.909 943.483 652.032C942.517 652.155 941.629 652.625 940.986 653.356C940.342 654.086 939.987 655.026 939.987 656C939.987 656.974 940.342 657.914 940.986 658.644C941.629 659.375 942.517 659.846 943.483 659.968C944.449 660.091 945.426 659.857 946.232 659.311C947.038 658.764 947.617 657.943 947.86 657L956.14 657C956.239 657.351 956.384 657.687 956.57 658L946 668.57C945.398 668.201 944.706 668.003 944 668C943.251 667.998 942.517 668.205 941.881 668.6C941.244 668.994 940.731 669.559 940.4 670.23C940.069 670.902 939.932 671.653 940.007 672.398C940.081 673.143 940.363 673.852 940.821 674.444C941.278 675.037 941.893 675.489 942.595 675.75C943.297 676.01 944.058 676.069 944.791 675.918C945.524 675.768 946.201 675.415 946.744 674.899C947.286 674.383 947.673 673.725 947.86 673L956 673L956 676L964 676L964 668L956 668L956 671ZM944 658C943.604 658 943.218 657.883 942.889 657.663C942.56 657.443 942.304 657.131 942.152 656.765C942.001 656.4 941.961 655.998 942.038 655.61C942.116 655.222 942.306 654.865 942.586 654.586C942.866 654.306 943.222 654.116 943.61 654.038C943.998 653.961 944.4 654.001 944.765 654.152C945.131 654.304 945.443 654.56 945.663 654.889C945.883 655.218 946 655.604 946 656C946 656.53 945.789 657.039 945.414 657.414C945.039 657.789 944.53 658 944 658ZM960 654C960.396 654 960.782 654.117 961.111 654.337C961.44 654.557 961.696 654.869 961.848 655.235C961.999 655.6 962.039 656.002 961.962 656.39C961.884 656.778 961.694 657.135 961.414 657.414C961.135 657.694 960.778 657.884 960.39 657.962C960.002 658.039 959.6 657.999 959.235 657.848C958.869 657.696 958.557 657.44 958.337 657.111C958.117 656.782 958 656.396 958 656C958 655.47 958.211 654.961 958.586 654.586C958.961 654.211 959.47 654 960 654ZM944 674C943.604 674 943.218 673.883 942.889 673.663C942.56 673.443 942.304 673.131 942.152 672.765C942.001 672.4 941.961 671.998 942.038 671.61C942.116 671.222 942.306 670.865 942.586 670.586C942.866 670.306 943.222 670.116 943.61 670.038C943.998 669.961 944.4 670.001 944.765 670.152C945.131 670.304 945.443 670.56 945.663 670.889C945.883 671.218 946 671.604 946 672C946 672.53 945.789 673.039 945.414 673.414C945.039 673.789 944.53 674 944 674ZM958 670L962 670L962 674L958 674L958 670Z" fill="currentColor" fill-rule="nonzero" />
  </g>
</svg>

