<svg viewBox="0 0 32 32" xmlns="http://www.w3.org/2000/svg" fill="none">
  <g transform="translate(-864 -648)">
<path id="Vector 478" d="M892 666L886 666C885.47 666 884.961 666.211 884.586 666.586C884.211 666.961 884 667.47 884 668L884 670L878.414 670L874 665.586L874 660L876 660C876.531 660 877.039 659.789 877.414 659.414C877.789 659.039 878 658.53 878 658L878 652C878 651.47 877.789 650.961 877.414 650.586C877.039 650.211 876.531 650 876 650L870 650C869.47 650 868.961 650.211 868.586 650.586C868.211 650.961 868 651.47 868 652L868 658C868 658.53 868.211 659.039 868.586 659.414C868.961 659.789 869.47 660 870 660L872 660L872 665.586L867.293 670.293C867.106 670.48 867 670.735 867 671C867 671.265 867.106 671.52 867.293 671.707L872.293 676.707C872.481 676.895 872.735 677 873 677C873.265 677 873.52 676.895 873.707 676.707L878.414 672L884 672L884 674C884 674.53 884.211 675.039 884.586 675.414C884.961 675.789 885.47 676 886 676L892 676C892.531 676 893.039 675.789 893.414 675.414C893.789 675.039 894 674.53 894 674L894 668C894 667.47 893.789 666.961 893.414 666.586C893.039 666.211 892.531 666 892 666ZM870 652L876 652L876 658L870 658L870 652ZM873 674.586L869.414 671L873 667.414L876.586 671L873 674.586ZM886 674L886 668L892 668L892 674L886 674Z" fill="currentColor" fill-rule="nonzero" />
  </g>
</svg>

