<svg viewBox="0 0 32 32" xmlns="http://www.w3.org/2000/svg" fill="none">
  <g transform="translate(-1008 -648)">
<path id="Vector 480" d="M1026 667L1038 667L1038 669L1026 669L1026 667ZM1026 671L1038 671L1038 673L1026 673L1026 671ZM1026 675L1034 675L1034 677L1026 677L1026 675Z" fill="currentColor" fill-rule="nonzero" />
		<path id="Vector 481" d="M1032 652C1031.12 652.003 1030.26 652.299 1029.56 652.841C1028.86 653.384 1028.36 654.143 1028.14 655L1020 655L1020 652L1012 652L1012 660L1020 660L1020 657L1028.14 657C1028.24 657.358 1028.38 657.701 1028.57 658.019L1018.02 668.567C1017.41 668.2 1016.71 668.004 1016 668C1015.25 667.997 1014.52 668.205 1013.88 668.599C1013.24 668.993 1012.73 669.557 1012.4 670.229C1012.07 670.9 1011.93 671.651 1012 672.396C1012.08 673.141 1012.36 673.851 1012.82 674.443C1013.28 675.036 1013.89 675.489 1014.59 675.75C1015.29 676.01 1016.06 676.069 1016.79 675.918C1017.52 675.768 1018.2 675.415 1018.74 674.899C1019.28 674.383 1019.67 673.725 1019.86 673L1024 673L1024 671L1019.86 671C1019.76 670.642 1019.62 670.299 1019.43 669.981L1029.98 659.433C1030.59 659.8 1031.29 659.996 1032 660C1033.06 660 1034.08 659.579 1034.83 658.828C1035.58 658.078 1036 657.061 1036 656C1036 654.939 1035.58 653.922 1034.83 653.172C1034.08 652.421 1033.06 652 1032 652ZM1018 658L1014 658L1014 654L1018 654L1018 658ZM1016 674C1015.6 674 1015.22 673.883 1014.89 673.663C1014.56 673.443 1014.3 673.131 1014.15 672.765C1014 672.4 1013.96 671.998 1014.04 671.61C1014.12 671.222 1014.31 670.865 1014.59 670.586C1014.87 670.306 1015.22 670.116 1015.61 670.038C1016 669.961 1016.4 670.001 1016.77 670.152C1017.13 670.304 1017.44 670.56 1017.66 670.889C1017.88 671.218 1018 671.604 1018 672C1018 672.53 1017.79 673.039 1017.41 673.414C1017.04 673.789 1016.53 674 1016 674ZM1032 658C1031.6 658 1031.22 657.883 1030.89 657.663C1030.56 657.443 1030.3 657.131 1030.15 656.765C1030 656.4 1029.96 655.998 1030.04 655.61C1030.12 655.222 1030.31 654.865 1030.59 654.586C1030.87 654.306 1031.22 654.116 1031.61 654.038C1032 653.961 1032.4 654.001 1032.77 654.152C1033.13 654.304 1033.44 654.56 1033.66 654.889C1033.88 655.218 1034 655.604 1034 656C1034 656.53 1033.79 657.039 1033.41 657.414C1033.04 657.789 1032.53 658 1032 658Z" fill="currentColor" fill-rule="nonzero" />
  </g>
</svg>

