<svg viewBox="0 0 32 32" xmlns="http://www.w3.org/2000/svg" fill="none">
  <g transform="translate(-1080 -648)">
<path id="Vector 482" d="M1090 658L1082 658L1082 650L1090 650L1090 658ZM1084 656L1088 656L1088 652L1084 652L1084 656ZM1110 678L1102 678L1102 670L1110 670L1110 678ZM1104 676L1108 676L1108 672L1104 672L1104 676ZM1100 675L1088 675C1086.41 675 1084.88 674.368 1083.76 673.243C1082.63 672.117 1082 670.591 1082 669C1082 667.409 1082.63 665.883 1083.76 664.757C1084.88 663.632 1086.41 663 1088 663L1088 665C1086.94 665 1085.92 665.421 1085.17 666.172C1084.42 666.922 1084 667.939 1084 669C1084 670.061 1084.42 671.078 1085.17 671.828C1085.92 672.579 1086.94 673 1088 673L1100 673L1100 675ZM1104 665L1104 663C1105.06 663 1106.08 662.579 1106.83 661.828C1107.58 661.078 1108 660.061 1108 659C1108 657.939 1107.58 656.922 1106.83 656.172C1106.08 655.421 1105.06 655 1104 655L1092 655L1092 653L1104 653C1105.59 653 1107.12 653.632 1108.24 654.757C1109.37 655.883 1110 657.409 1110 659C1110 660.591 1109.37 662.117 1108.24 663.243C1107.12 664.368 1105.59 665 1104 665Z" fill="currentColor" fill-rule="nonzero" />
		<path id="Vector 483" d="M1099 659L1093 659L1090 663L1096 669L1102 663L1099 659Z" fill="currentColor" fill-rule="nonzero" />
  </g>
</svg>

