<svg viewBox="0 0 32 32" xmlns="http://www.w3.org/2000/svg" fill="none">
  <g transform="translate(-1224 -648)">
<path id="Vector 486" d="M1244 671L1235.9 671C1235.9 670.6 1235.7 670.3 1235.5 670L1246 659.5C1246.6 659.9 1247.3 660.1 1248 660.1C1250.2 660.1 1252 658.3 1252 656.1C1252 653.9 1250.2 652.1 1248 652.1C1245.8 652.1 1244.6 653.4 1244.1 655.1L1237 655.1L1237 657.1L1244.1 657.1C1244.1 657.5 1244.3 657.8 1244.5 658.1L1234 668.6C1233.4 668.2 1232.7 668 1232 668C1229.8 668 1228 669.8 1228 672C1228 674.2 1229.8 676 1232 676C1234.2 676 1235.4 674.7 1235.9 673L1244 673L1244 676L1252 676L1252 668L1244 668L1244 671ZM1248 654C1249.1 654 1250 654.9 1250 656C1250 657.1 1249.1 658 1248 658C1246.9 658 1246 657.1 1246 656C1246 654.9 1246.9 654 1248 654ZM1232 674C1230.9 674 1230 673.1 1230 672C1230 670.9 1230.9 670 1232 670C1233.1 670 1234 670.9 1234 672C1234 673.1 1233.1 674 1232 674ZM1246 670L1250 670L1250 674L1246 674L1246 670ZM1228 660L1228 652L1235 656L1228 660Z" fill="currentColor" fill-rule="nonzero" />
  </g>
</svg>

