<svg viewBox="0 0 32 32" xmlns="http://www.w3.org/2000/svg" fill="none">
  <g transform="translate(-1296 -648)">
<path id="Vector 487" d="M1316 672L1307.86 672C1307.77 671.642 1307.62 671.299 1307.43 670.98L1317.98 660.434C1318.7 660.86 1319.54 661.048 1320.37 660.971C1321.21 660.895 1322 660.558 1322.63 660.009C1323.26 659.459 1323.71 658.724 1323.9 657.909C1324.09 657.093 1324.02 656.238 1323.7 655.464C1323.38 654.69 1322.82 654.036 1322.11 653.596C1321.4 653.156 1320.56 652.951 1319.73 653.01C1318.89 653.069 1318.1 653.39 1317.45 653.927C1316.81 654.463 1316.35 655.189 1316.14 656L1310 656L1310 658L1316.14 658C1316.23 658.358 1316.38 658.701 1316.57 659.02L1306.02 669.566C1305.3 669.14 1304.46 668.952 1303.63 669.029C1302.79 669.105 1302 669.442 1301.37 669.992C1300.74 670.541 1300.29 671.276 1300.1 672.091C1299.91 672.907 1299.98 673.762 1300.3 674.536C1300.62 675.31 1301.18 675.964 1301.89 676.404C1302.6 676.844 1303.44 677.049 1304.27 676.99C1305.11 676.931 1305.91 676.61 1306.55 676.074C1307.19 675.537 1307.65 674.812 1307.86 674L1316 674L1316 677L1324 677L1324 669L1316 669L1316 672ZM1320 655C1320.4 655 1320.78 655.117 1321.11 655.337C1321.44 655.557 1321.7 655.869 1321.85 656.235C1322 656.6 1322.04 657.002 1321.96 657.39C1321.88 657.778 1321.69 658.135 1321.41 658.414C1321.13 658.694 1320.78 658.884 1320.39 658.962C1320 659.039 1319.6 658.999 1319.23 658.848C1318.87 658.696 1318.56 658.44 1318.34 658.111C1318.12 657.782 1318 657.396 1318 657C1318 656.47 1318.21 655.961 1318.59 655.586C1318.96 655.211 1319.47 655 1320 655ZM1304 675C1303.6 675 1303.22 674.883 1302.89 674.663C1302.56 674.443 1302.3 674.131 1302.15 673.765C1302 673.4 1301.96 672.998 1302.04 672.61C1302.12 672.222 1302.31 671.866 1302.59 671.586C1302.87 671.306 1303.22 671.116 1303.61 671.038C1304 670.961 1304.4 671.001 1304.77 671.152C1305.13 671.304 1305.44 671.56 1305.66 671.889C1305.88 672.218 1306 672.604 1306 673C1306 673.53 1305.79 674.039 1305.41 674.414C1305.04 674.789 1304.53 675 1304 675ZM1318 671L1322 671L1322 675L1318 675L1318 671ZM1305.69 660.75C1305.16 660.281 1304.73 659.704 1304.44 659.057C1304.15 658.411 1304 657.709 1304 657C1304 656.291 1304.15 655.589 1304.44 654.943C1304.73 654.296 1305.16 653.719 1305.69 653.25L1307.02 654.75C1306.7 655.032 1306.44 655.378 1306.27 655.766C1306.09 656.154 1306 656.575 1306 657.001C1306 657.426 1306.09 657.847 1306.27 658.235C1306.44 658.623 1306.7 658.97 1307.02 659.251L1305.69 660.75Z" fill="currentColor" fill-rule="nonzero" />
		<path id="Vector 488" d="M1303.05 663.751C1302.09 662.906 1301.32 661.868 1300.8 660.704C1300.27 659.54 1300 658.278 1300 657C1300 655.724 1300.27 654.461 1300.8 653.297C1301.32 652.133 1302.09 651.095 1303.05 650.25L1304.37 651.75C1303.63 652.407 1303.03 653.215 1302.62 654.12C1302.21 655.025 1302 656.007 1302 657C1302 657.994 1302.21 658.976 1302.62 659.881C1303.03 660.786 1303.63 661.594 1304.37 662.251L1303.05 663.751Z" fill="currentColor" fill-rule="nonzero" />
  </g>
</svg>

