<svg viewBox="0 0 32 32" xmlns="http://www.w3.org/2000/svg" fill="none">
  <g transform="translate(-1368.000122 -648)">
<path id="Vector 489" d="M1388 672L1384 672L1384 674L1388 674L1388 677L1396 677L1396 669L1388 669L1388 672ZM1390 671L1394 671L1394 675L1390 675L1390 671ZM1372 668L1372 670L1376.59 670L1370 676.586L1371.41 678L1378 671.414L1378 676L1380 676L1380 668L1372 668ZM1392 653C1391.12 653.003 1390.26 653.299 1389.56 653.841C1388.86 654.384 1388.36 655.143 1388.14 656L1382 656L1382 658L1388.14 658C1388.24 658.358 1388.38 658.701 1388.57 659.019L1382 665.586L1383.41 667L1389.98 660.433C1390.59 660.8 1391.29 660.996 1392 661C1393.06 661 1394.08 660.579 1394.83 659.828C1395.58 659.078 1396 658.061 1396 657C1396 655.939 1395.58 654.922 1394.83 654.172C1394.08 653.421 1393.06 653 1392 653ZM1392 659C1391.6 659 1391.22 658.883 1390.89 658.663C1390.56 658.443 1390.3 658.131 1390.15 657.765C1390 657.4 1389.96 656.998 1390.04 656.61C1390.12 656.222 1390.31 655.865 1390.59 655.586C1390.87 655.306 1391.22 655.116 1391.61 655.038C1392 654.961 1392.4 655.001 1392.77 655.152C1393.13 655.304 1393.44 655.56 1393.66 655.889C1393.88 656.218 1394 656.604 1394 657C1394 657.53 1393.79 658.039 1393.41 658.414C1393.04 658.789 1392.53 659 1392 659ZM1377.69 660.75C1377.16 660.281 1376.73 659.704 1376.44 659.057C1376.15 658.411 1376 657.709 1376 657C1376 656.291 1376.15 655.589 1376.44 654.943C1376.73 654.296 1377.16 653.719 1377.69 653.25L1379.02 654.75C1378.7 655.032 1378.44 655.378 1378.27 655.766C1378.09 656.154 1378 656.575 1378 657C1378 657.426 1378.09 657.847 1378.27 658.235C1378.44 658.623 1378.7 658.969 1379.02 659.251L1377.69 660.75Z" fill="currentColor" fill-rule="nonzero" />
		<path id="Vector 490" d="M1375.05 663.751C1374.09 662.906 1373.32 661.868 1372.8 660.704C1372.27 659.54 1372 658.278 1372 657C1372 655.724 1372.27 654.461 1372.8 653.297C1373.32 652.133 1374.09 651.095 1375.05 650.25L1376.37 651.75C1375.63 652.407 1375.03 653.215 1374.62 654.12C1374.21 655.025 1374 656.007 1374 657C1374 657.994 1374.21 658.976 1374.62 659.881C1375.03 660.786 1375.63 661.594 1376.37 662.251L1375.05 663.751Z" fill="currentColor" fill-rule="nonzero" />
  </g>
</svg>

