<svg viewBox="0 0 32 32" xmlns="http://www.w3.org/2000/svg" fill="none">
  <g transform="translate(-792 -648)">
<path id="Vector 477" d="M819 670.14L819 665C819 664.47 818.789 663.961 818.414 663.586C818.039 663.211 817.53 663 817 663L809 663L809 657.86C809.943 657.617 810.764 657.038 811.311 656.232C811.857 655.426 812.091 654.449 811.968 653.483C811.846 652.517 811.375 651.629 810.644 650.986C809.914 650.342 808.974 649.987 808 649.987C807.026 649.987 806.086 650.342 805.356 650.986C804.625 651.629 804.155 652.517 804.032 653.483C803.909 654.449 804.143 655.426 804.689 656.232C805.236 657.038 806.057 657.617 807 657.86L807 663L799 663C798.47 663 797.961 663.211 797.586 663.586C797.211 663.961 797 664.47 797 665L797 670.14C796.057 670.383 795.236 670.962 794.689 671.768C794.143 672.574 793.909 673.551 794.032 674.517C794.155 675.483 794.625 676.371 795.356 677.014C796.086 677.658 797.026 678.013 798 678.013C798.974 678.013 799.914 677.658 800.644 677.014C801.375 676.371 801.845 675.483 801.968 674.517C802.091 673.551 801.857 672.574 801.311 671.768C800.764 670.962 799.943 670.383 799 670.14L799 665L817 665L817 670.14C816.057 670.383 815.236 670.962 814.689 671.768C814.143 672.574 813.909 673.551 814.032 674.517C814.155 675.483 814.625 676.371 815.356 677.014C816.086 677.658 817.026 678.013 818 678.013C818.974 678.013 819.914 677.658 820.644 677.014C821.375 676.371 821.846 675.483 821.968 674.517C822.091 673.551 821.857 672.574 821.311 671.768C820.764 670.962 819.943 670.383 819 670.14ZM800 674C800 674.396 799.883 674.782 799.663 675.111C799.443 675.44 799.131 675.696 798.765 675.848C798.4 675.999 797.998 676.039 797.61 675.962C797.222 675.884 796.865 675.694 796.586 675.414C796.306 675.135 796.116 674.778 796.038 674.39C795.961 674.002 796.001 673.6 796.152 673.235C796.304 672.869 796.56 672.557 796.889 672.337C797.218 672.117 797.604 672 798 672C798.53 672 799.039 672.211 799.414 672.586C799.789 672.961 800 673.47 800 674ZM806 654C806 653.604 806.117 653.218 806.337 652.889C806.557 652.56 806.869 652.304 807.235 652.152C807.6 652.001 808.002 651.961 808.39 652.038C808.778 652.116 809.135 652.306 809.414 652.586C809.694 652.866 809.884 653.222 809.962 653.61C810.039 653.998 809.999 654.4 809.848 654.765C809.696 655.131 809.44 655.443 809.111 655.663C808.782 655.883 808.396 656 808 656C807.47 656 806.961 655.789 806.586 655.414C806.211 655.039 806 654.53 806 654ZM818 676C817.604 676 817.218 675.883 816.889 675.663C816.56 675.443 816.304 675.131 816.152 674.765C816.001 674.4 815.961 673.998 816.038 673.61C816.116 673.222 816.306 672.866 816.586 672.586C816.865 672.306 817.222 672.116 817.61 672.038C817.998 671.961 818.4 672.001 818.765 672.152C819.131 672.304 819.443 672.56 819.663 672.889C819.883 673.218 820 673.605 820 674C820 674.53 819.789 675.039 819.414 675.414C819.039 675.789 818.53 676 818 676Z" fill="currentColor" fill-rule="nonzero" />
  </g>
</svg>

