<svg viewBox="0 0 32 32" xmlns="http://www.w3.org/2000/svg" fill="none">
  <g transform="translate(-1440.000122 -648)">
<path id="Vector 491" d="M1464.8 659.138C1464.37 657.12 1463.27 655.309 1461.67 654.01C1460.06 652.711 1458.06 652.002 1456 652.002C1453.94 652.002 1451.94 652.711 1450.34 654.01C1448.73 655.309 1447.63 657.12 1447.2 659.138C1445.74 659.443 1444.42 660.241 1443.47 661.399C1442.53 662.557 1442.01 664.004 1442 665.5L1442 667C1442 667.265 1442.11 667.52 1442.29 667.707C1442.48 667.895 1442.73 668 1443 668L1455 668C1455.27 668 1455.52 667.895 1455.71 667.707C1455.89 667.52 1456 667.265 1456 667C1456 666.735 1455.89 666.48 1455.71 666.293C1455.52 666.105 1455.27 666 1455 666L1444 666L1444 665.503C1444.01 664.373 1444.43 663.286 1445.2 662.457C1445.97 661.627 1447.02 661.115 1448.14 661.021L1448.96 660.957L1449.06 660.145C1449.27 658.451 1450.09 656.892 1451.37 655.761C1452.65 654.63 1454.29 654.006 1456 654.006C1457.71 654.006 1459.36 654.63 1460.63 655.761C1461.91 656.892 1462.73 658.451 1462.94 660.145L1463.04 660.958L1463.86 661.021C1465.02 661.109 1466.1 661.645 1466.87 662.514C1467.65 663.383 1468.05 664.519 1468.01 665.682C1467.96 666.845 1467.47 667.945 1466.62 668.751C1465.78 669.556 1464.66 670.004 1463.5 670L1447 670C1446.73 670 1446.48 670.105 1446.29 670.293C1446.11 670.48 1446 670.735 1446 671C1446 671.265 1446.11 671.52 1446.29 671.707C1446.48 671.895 1446.73 672 1447 672L1463.5 672C1465.11 672.002 1466.67 671.405 1467.86 670.325C1469.06 669.245 1469.81 667.76 1469.97 666.157C1470.13 664.555 1469.69 662.949 1468.74 661.652C1467.78 660.354 1466.38 659.459 1464.8 659.138Z" fill="currentColor" fill-rule="nonzero" />
		<path id="Vector 492" d="M1459 674L1443 674C1442.45 674 1442 674.448 1442 675C1442 675.552 1442.45 676 1443 676L1459 676C1459.55 676 1460 675.552 1460 675C1460 674.448 1459.55 674 1459 674Z" fill="currentColor" fill-rule="nonzero" />
  </g>
</svg>

