<svg viewBox="0 0 32 32" xmlns="http://www.w3.org/2000/svg" fill="none">
  <g transform="translate(-1872.000122 -648)">
<path id="Vector 501" d="M1900 656L1897.41 656L1902 651.414L1900.59 650L1874 676.586L1875.41 678L1877.41 676L1900 676C1900.53 676 1901.04 675.789 1901.41 675.414C1901.79 675.039 1902 674.53 1902 674L1902 658C1902 657.47 1901.79 656.961 1901.41 656.586C1901.04 656.211 1900.53 656 1900 656ZM1900 674L1879.41 674L1895.41 658L1900 658L1900 674ZM1876 654L1883.17 654L1886.59 657.414L1887.17 658L1890 658L1890 656L1888 656L1884.59 652.586C1884.21 652.211 1883.7 652 1883.17 652L1876 652C1875.47 652 1874.96 652.211 1874.59 652.586C1874.21 652.961 1874 653.47 1874 654L1874 672L1876 672L1876 654Z" fill="currentColor" fill-rule="nonzero" />
  </g>
</svg>

