<svg viewBox="0 0 32 32" xmlns="http://www.w3.org/2000/svg" fill="none">
  <g transform="translate(-1584.000122 -648)">
<path id="Vector 494" d="M1610 668L1608 668L1608 672L1604 672L1604 674L1608 674L1608 678L1610 678L1610 674L1614 674L1614 672L1610 672L1610 668Z" fill="currentColor" fill-rule="nonzero" />
		<path id="Vector 495" d="M1612 656L1600 656L1596.6 652.6C1596.2 652.2 1595.7 652 1595.2 652L1588 652C1586.9 652 1586 652.9 1586 654L1586 674C1586 675.1 1586.9 676 1588 676L1602 676L1602 674L1588 674L1588 654L1595.2 654L1598.6 657.4L1599.2 658L1612 658L1612 666L1614 666L1614 658C1614 656.9 1613.1 656 1612 656Z" fill="currentColor" fill-rule="nonzero" />
  </g>
</svg>

