<svg viewBox="0 0 32 32" xmlns="http://www.w3.org/2000/svg" fill="none">
  <g transform="translate(-1656.000122 -648)">
<path id="Vector 496" d="M1672 668L1686 668L1686 670L1672 670L1672 668ZM1672 672L1686 672L1686 674L1672 674L1672 672ZM1672 676L1679 676L1679 678L1672 678L1672 676Z" fill="currentColor" fill-rule="nonzero" />
		<path id="Vector 497" d="M1670 674L1660 674L1660 654L1667.17 654L1670.59 657.41L1671.17 658L1684 658L1684 666L1686 666L1686 658C1686 657.47 1685.79 656.961 1685.41 656.586C1685.04 656.211 1684.53 656 1684 656L1672 656L1668.59 652.59C1668.4 652.403 1668.18 652.254 1667.94 652.153C1667.7 652.052 1667.43 652 1667.17 652L1660 652C1659.47 652 1658.96 652.211 1658.59 652.586C1658.21 652.961 1658 653.47 1658 654L1658 674C1658 674.53 1658.21 675.039 1658.59 675.414C1658.96 675.789 1659.47 676 1660 676L1670 676L1670 674Z" fill="currentColor" fill-rule="nonzero" />
  </g>
</svg>

