<svg viewBox="0 0 32 32" xmlns="http://www.w3.org/2000/svg" fill="none">
  <g transform="translate(-1512.000122 -648)">
<path id="Vector 493" d="M1523.17 654L1526.59 657.41L1527.17 658L1540 658L1540 674L1516 674L1516 654L1523.17 654ZM1523.17 652L1516 652C1515.47 652 1514.96 652.211 1514.59 652.586C1514.21 652.961 1514 653.47 1514 654L1514 674C1514 674.53 1514.21 675.039 1514.59 675.414C1514.96 675.789 1515.47 676 1516 676L1540 676C1540.53 676 1541.04 675.789 1541.41 675.414C1541.79 675.039 1542 674.53 1542 674L1542 658C1542 657.47 1541.79 656.961 1541.41 656.586C1541.04 656.211 1540.53 656 1540 656L1528 656L1524.59 652.59C1524.4 652.403 1524.18 652.254 1523.94 652.153C1523.7 652.052 1523.43 652 1523.17 652Z" fill="currentColor" fill-rule="nonzero" />
  </g>
</svg>

