<svg viewBox="0 0 32 32" xmlns="http://www.w3.org/2000/svg" fill="none">
  <g transform="translate(-1728.000122 -648)">
<path id="Vector 498" d="M1744 676L1751 676L1751 678L1744 678L1744 676ZM1744 672L1758 672L1758 674L1744 674L1744 672ZM1744 668L1758 668L1758 670L1744 670L1744 668ZM1732 668L1732 670L1736.59 670L1730 676.586L1731.41 678L1738 671.414L1738 676L1740 676L1740 668L1732 668ZM1756 656L1744 656L1740.59 652.586C1740.21 652.211 1739.7 652 1739.17 652L1732 652C1731.47 652 1730.96 652.211 1730.59 652.586C1730.21 652.961 1730 653.47 1730 654L1730 666L1732 666L1732 654L1739.17 654L1742.59 657.414L1743.17 658L1756 658L1756 666L1758 666L1758 658C1758 657.47 1757.79 656.961 1757.41 656.586C1757.04 656.211 1756.53 656 1756 656Z" fill="currentColor" fill-rule="nonzero" />
  </g>
</svg>

