<svg viewBox="0 0 32 32" xmlns="http://www.w3.org/2000/svg" fill="none">
  <g transform="translate(-216 -720)">
<path id="Vector 507" d="M232 735L243 735C243.265 735 243.52 734.895 243.707 734.707C243.895 734.52 244 734.265 244 734L244 727C244 726.735 243.895 726.48 243.707 726.293C243.52 726.105 243.265 726 243 726L238 726L237.28 724.55C237.196 724.384 237.067 724.244 236.908 724.147C236.749 724.049 236.566 723.999 236.38 724L232 724C231.735 724 231.48 724.105 231.293 724.293C231.105 724.48 231 724.735 231 725L231 729L222 729L222 722L220 722L220 744C220 745.103 220.897 746 222 746L231 746L231 749C231 749.265 231.105 749.52 231.293 749.707C231.48 749.895 231.735 750 232 750L243 750C243.265 750 243.52 749.895 243.707 749.707C243.895 749.52 244 749.265 244 749L244 742C244 741.735 243.895 741.48 243.707 741.293C243.52 741.105 243.265 741 243 741L238 741L237.28 739.55C237.196 739.384 237.067 739.244 236.908 739.147C236.749 739.049 236.566 738.999 236.38 739L232 739C231.735 739 231.48 739.105 231.293 739.293C231.105 739.48 231 739.735 231 740L231 744L222 744L222 731L231 731L231 734C231 734.265 231.105 734.52 231.293 734.707C231.48 734.895 231.735 735 232 735ZM233 726L235.76 726L236.21 726.89L236.76 728L242 728L242 733L233 733L233 726ZM233 741L235.76 741L236.21 741.89L236.76 743L242 743L242 748L233 748L233 741Z" fill="currentColor" fill-rule="nonzero" />
  </g>
</svg>

