<svg viewBox="0 0 32 32" xmlns="http://www.w3.org/2000/svg" fill="none">
  <g transform="translate(-144 -720)">
<path id="Vector 505" d="M172 728L160 728L156.59 724.59C156.404 724.403 156.183 724.254 155.939 724.153C155.695 724.052 155.434 724 155.17 724L148 724C147.47 724 146.961 724.211 146.586 724.586C146.211 724.961 146 725.47 146 726L146 746C146 746.53 146.211 747.039 146.586 747.414C146.961 747.789 147.47 748 148 748L172 748C172.53 748 173.039 747.789 173.414 747.414C173.789 747.039 174 746.53 174 746L174 730C174 729.47 173.789 728.961 173.414 728.586C173.039 728.211 172.53 728 172 728ZM166 746L158 746L158 745C158 744.735 158.105 744.48 158.293 744.293C158.48 744.105 158.735 744 159 744L165 744C165.265 744 165.52 744.105 165.707 744.293C165.895 744.48 166 744.735 166 745L166 746ZM172 746L168 746L168 745C168 744.204 167.684 743.441 167.121 742.879C166.559 742.316 165.796 742 165 742L159 742C158.204 742 157.441 742.316 156.879 742.879C156.316 743.441 156 744.204 156 745L156 746L148 746L148 726L155.17 726L158.59 729.41L159.17 730L172 730L172 746Z" fill="currentColor" fill-rule="nonzero" />
		<path id="Vector 506" d="M158 737C158 737.791 158.235 738.565 158.674 739.222C159.114 739.88 159.738 740.393 160.469 740.695C161.2 740.998 162.004 741.078 162.78 740.923C163.556 740.769 164.269 740.388 164.828 739.828C165.388 739.269 165.769 738.556 165.923 737.78C166.077 737.004 165.998 736.2 165.695 735.469C165.393 734.738 164.88 734.114 164.222 733.674C163.564 733.235 162.791 733 162 733C160.939 733 159.922 733.421 159.172 734.172C158.421 734.922 158 735.939 158 737ZM162 735C162.396 735 162.782 735.117 163.111 735.337C163.44 735.557 163.696 735.869 163.848 736.235C163.999 736.6 164.039 737.002 163.962 737.39C163.884 737.778 163.694 738.135 163.414 738.414C163.135 738.694 162.778 738.884 162.39 738.962C162.002 739.039 161.6 738.999 161.235 738.848C160.869 738.696 160.557 738.44 160.337 738.111C160.117 737.782 160 737.396 160 737C160 736.47 160.211 735.961 160.586 735.586C160.961 735.211 161.47 735 162 735Z" fill="currentColor" fill-rule="nonzero" />
  </g>
</svg>

