<svg viewBox="0 0 32 32" xmlns="http://www.w3.org/2000/svg" fill="none">
  <g transform="translate(-0 -720)">
<path id="Vector 503" d="M28 728L16 728L12.586 724.586C12.211 724.211 11.7024 724 11.172 724L4 724C3.46957 724 2.96086 724.211 2.58579 724.586C2.21071 724.961 2 725.47 2 726L2 746C2 746.53 2.21071 747.039 2.58579 747.414C2.96086 747.789 3.46957 748 4 748L16 748C16.5304 748 17.0391 747.789 17.4142 747.414C17.7893 747.039 18 746.53 18 746L18 736.83L20.59 739.41L22 738L17 733L12 738L13.41 739.41L16 736.83L16 746L4 746L4 726L11.172 726L15.172 730L28 730L28 746L22 746L22 748L28 748C28.5304 748 29.0391 747.789 29.4142 747.414C29.7893 747.039 30 746.53 30 746L30 730C30 729.47 29.7893 728.961 29.4142 728.586C29.0391 728.211 28.5304 728 28 728Z" fill="currentColor" fill-rule="nonzero" />
  </g>
</svg>

