<svg viewBox="0 0 32 32" xmlns="http://www.w3.org/2000/svg" fill="none">
  <g transform="translate(-1800.000122 -648)">
<path id="Vector 499" d="M1818 661L1816.59 662.41L1819.17 665L1810 665L1810 667L1819.17 667L1816.59 669.59L1818 671L1823 666L1818 661Z" fill="currentColor" fill-rule="nonzero" />
		<path id="Vector 500" d="M1811.17 654L1814.59 657.414L1815.17 658L1828 658L1828 674L1804 674L1804 654L1811.17 654ZM1811.17 652L1804 652C1803.47 652 1802.96 652.211 1802.59 652.586C1802.21 652.961 1802 653.47 1802 654L1802 674C1802 674.53 1802.21 675.039 1802.59 675.414C1802.96 675.789 1803.47 676 1804 676L1828 676C1828.53 676 1829.04 675.789 1829.41 675.414C1829.79 675.039 1830 674.53 1830 674L1830 658C1830 657.47 1829.79 656.961 1829.41 656.586C1829.04 656.211 1828.53 656 1828 656L1816 656L1812.59 652.586C1812.21 652.211 1811.7 652 1811.17 652Z" fill="currentColor" fill-rule="nonzero" />
  </g>
</svg>

