<svg viewBox="0 0 32 32" xmlns="http://www.w3.org/2000/svg" fill="none">
  <g transform="translate(-1944.000122 -648)">
<path id="Vector 502" d="M1972 656L1964.83 656L1961.41 652.586C1961.04 652.211 1960.53 652 1960 652L1948 652C1947.47 652 1946.96 652.211 1946.59 652.586C1946.21 652.961 1946 653.47 1946 654L1946 674C1946 674.53 1946.21 675.039 1946.59 675.414C1946.96 675.789 1947.47 676 1948 676L1972 676C1972.53 676 1973.04 675.789 1973.41 675.414C1973.79 675.039 1974 674.53 1974 674L1974 658C1974 657.47 1973.79 656.961 1973.41 656.586C1973.04 656.211 1972.53 656 1972 656ZM1952 674L1952 662L1960 662L1960 668.17L1957.41 665.59L1956 667L1961 672L1966 667L1964.59 665.59L1962 668.17L1962 662C1962 661.47 1961.79 660.962 1961.41 660.587C1961.04 660.212 1960.53 660.001 1960 660L1952 660C1951.47 660.001 1950.96 660.212 1950.59 660.587C1950.21 660.962 1950 661.47 1950 662L1950 674L1948 674L1948 654L1960 654L1964 658L1972 658L1972 660L1966 660L1966 662L1972 662L1972 674L1952 674Z" fill="currentColor" fill-rule="nonzero" />
  </g>
</svg>

