<svg viewBox="0 0 32 32" xmlns="http://www.w3.org/2000/svg" fill="none">
  <g transform="translate(-72 -720)">
<path id="Vector 504" d="M98 748L78 748C77.4696 748 76.9609 747.789 76.5858 747.414C76.2107 747.039 76 746.53 76 746L76 731C76 730.47 76.2107 729.961 76.5858 729.586C76.9609 729.211 77.4696 729 78 729L83.667 729C84.0997 729 84.5208 729.14 84.867 729.4L88.334 732L98 732C98.5304 732 99.0391 732.211 99.4142 732.586C99.7893 732.961 100 733.47 100 734L100 746C100 746.53 99.7893 747.039 99.4142 747.414C99.0391 747.789 98.5304 748 98 748ZM83.667 731L77.998 731L78 746L98 746L98 734L87.667 734L83.667 731ZM100 729L89.667 729L85.667 726L78 726L78 724L85.667 724C86.0997 724 86.5208 724.14 86.867 724.4L90.334 727L100 727L100 729Z" fill="currentColor" fill-rule="nonzero" />
  </g>
</svg>

