<svg viewBox="0 0 32 32" xmlns="http://www.w3.org/2000/svg" fill="none">
  <g transform="translate(-288 -720)">
<path id="Vector 508" d="M295 727L298 727L298 730L310 730L310 727L313 727L313 735L315 735L315 727C315 725.9 314.1 725 313 725L310 725L310 724C310 722.9 309.1 722 308 722L300 722C298.9 722 298 722.9 298 724L298 725L295 725C293.9 725 293 725.9 293 727L293 748C293 749.1 293.9 750 295 750L299 750L299 748L295 748L295 727ZM300 724L308 724L308 728L300 728L300 724ZM312.414 738L311 739.414L313.586 742L306 742C303.794 742 302 743.794 302 746C302 748.206 303.794 750 306 750L308 750L308 748L306 748C304.898 748 304 747.103 304 746C304 744.897 304.898 744 306 744L313.586 744L311 746.586L312.414 748L317.414 743L312.414 738Z" fill="currentColor" fill-rule="nonzero" />
  </g>
</svg>

