<svg viewBox="0 0 32 32" xmlns="http://www.w3.org/2000/svg" fill="none">
  <g transform="translate(-792 -720)">
<path id="Vector 526" d="M815 743L822 743L822 750L820 750L820 746.648C819.16 747.696 818.094 748.542 816.882 749.122C815.67 749.703 814.344 750.003 813 750L803 750C798 750 794 746 794 741L794 733L796 733L796 741C796 744.9 799.1 748 803 748L813 748C814.13 748.005 815.245 747.735 816.247 747.212C817.25 746.69 818.109 745.93 818.752 745L815 745L815 743ZM813 722L803 722C801.656 721.997 800.33 722.297 799.118 722.878C797.906 723.458 796.84 724.304 796 725.352L796 722L794 722L794 729L801 729L801 727L797.248 727C797.891 726.07 798.75 725.31 799.753 724.788C800.755 724.265 801.87 723.995 803 724L813 724C816.9 724 820 727.1 820 731L820 739L822 739L822 731C822 726 818 722 813 722ZM812.721 732.012L812.721 730L805 730L805 742L807.27 742L807.27 736.927L812.016 736.927L812.016 734.915L807.27 734.915L807.27 732.012L812.721 732.012Z" fill="currentColor" fill-rule="nonzero" />
  </g>
</svg>

