<svg viewBox="0 0 32 32" xmlns="http://www.w3.org/2000/svg" fill="none">
  <g transform="translate(-360 -720)">
<path id="Vector 509" d="M386 738C386 739.978 385.414 741.911 384.315 743.556C383.216 745.2 381.654 746.482 379.827 747.239C378 747.996 375.989 748.194 374.049 747.808C372.109 747.422 370.328 746.47 368.929 745.071C367.53 743.672 366.578 741.891 366.192 739.951C365.806 738.011 366.004 736 366.761 734.173C367.518 732.346 368.8 730.784 370.444 729.685C372.089 728.586 374.022 728 376 728L380 728L380 733L386 727L380 721L380 726L376 726C373.627 726 371.307 726.704 369.333 728.022C367.36 729.341 365.822 731.215 364.913 733.408C364.005 735.601 363.768 738.013 364.231 740.341C364.694 742.669 365.836 744.807 367.515 746.485C369.193 748.164 371.331 749.306 373.659 749.769C375.987 750.232 378.4 749.995 380.592 749.087C382.785 748.178 384.659 746.64 385.978 744.667C387.296 742.693 388 740.373 388 738L386 738Z" fill="currentColor" fill-rule="nonzero" />
		<path id="Vector 510" d="M374.5 745C375.328 745 376 744.328 376 743.5C376 742.672 375.328 742 374.5 742C373.672 742 373 742.672 373 743.5C373 744.328 373.672 745 374.5 745Z" fill="currentColor" fill-rule="nonzero" />
		<path id="Vector 511" d="M371.5 741C372.328 741 373 740.328 373 739.5C373 738.672 372.328 738 371.5 738C370.672 738 370 738.672 370 739.5C370 740.328 370.672 741 371.5 741Z" fill="currentColor" fill-rule="nonzero" />
		<path id="Vector 512" d="M377.5 741C378.328 741 379 740.328 379 739.5C379 738.672 378.328 738 377.5 738C376.672 738 376 738.672 376 739.5C376 740.328 376.672 741 377.5 741Z" fill="currentColor" fill-rule="nonzero" />
		<path id="Vector 513" d="M373 736.586L376.586 733L378 734.413L374.413 738L373 736.586ZM379 736.586L382.586 733L384 734.413L380.413 738L379 736.586Z" fill="currentColor" fill-rule="nonzero" />
  </g>
</svg>

