<svg viewBox="0 0 32 32" xmlns="http://www.w3.org/2000/svg" fill="none">
  <g transform="translate(-504 -720)">
<path id="Vector 520" d="M519.67 744L517.934 743L520.221 739L516.332 739L520.325 732L522.062 733L519.778 737L523.668 737L519.67 744Z" fill="currentColor" fill-rule="nonzero" />
		<path id="Vector 521" d="M530 738C530 739.978 529.414 741.911 528.315 743.556C527.216 745.2 525.654 746.482 523.827 747.239C522 747.996 519.989 748.194 518.049 747.808C516.109 747.422 514.328 746.47 512.929 745.071C511.53 743.672 510.578 741.891 510.192 739.951C509.806 738.011 510.004 736 510.761 734.173C511.518 732.346 512.8 730.784 514.444 729.685C516.089 728.586 518.022 728 520 728L524 728L524 733L530 727L524 721L524 726L520 726C517.627 726 515.307 726.704 513.333 728.022C511.36 729.341 509.822 731.215 508.913 733.408C508.005 735.601 507.768 738.013 508.231 740.341C508.694 742.669 509.836 744.807 511.515 746.485C513.193 748.164 515.331 749.306 517.659 749.769C519.987 750.232 522.399 749.995 524.592 749.087C526.785 748.178 528.659 746.64 529.978 744.667C531.296 742.693 532 740.373 532 738L530 738Z" fill="currentColor" fill-rule="nonzero" />
  </g>
</svg>

