<svg viewBox="0 0 32 32" xmlns="http://www.w3.org/2000/svg" fill="none">
  <g transform="translate(-432 -720)">
<path id="Vector 514" d="M441 735.586L444.586 732L446 733.413L442.413 737L441 735.586ZM447 735.585L448.586 734L450 735.413L448.414 737L447 735.585Z" fill="currentColor" fill-rule="nonzero" />
		<path id="Vector 515" d="M442.5 744C443.328 744 444 743.328 444 742.5C444 741.672 443.328 741 442.5 741C441.672 741 441 741.672 441 742.5C441 743.328 441.672 744 442.5 744Z" fill="currentColor" fill-rule="nonzero" />
		<path id="Vector 516" d="M439.5 740C440.328 740 441 739.328 441 738.5C441 737.672 440.328 737 439.5 737C438.672 737 438 737.672 438 738.5C438 739.328 438.672 740 439.5 740Z" fill="currentColor" fill-rule="nonzero" />
		<path id="Vector 517" d="M445.5 740C446.328 740 447 739.328 447 738.5C447 737.672 446.328 737 445.5 737C444.672 737 444 737.672 444 738.5C444 739.328 444.672 740 445.5 740Z" fill="currentColor" fill-rule="nonzero" />
		<path id="Vector 518" d="M446 748C443.348 748 440.804 746.946 438.929 745.071C437.054 743.196 436 740.652 436 738C436 735.348 437.054 732.804 438.929 730.929C440.804 729.054 443.348 728 446 728L450 728L450 733L456 727L450 721L450 726L446 726C442.817 726 439.765 727.264 437.515 729.515C435.264 731.765 434 734.817 434 738C434 741.183 435.264 744.235 437.515 746.485C439.765 748.736 442.817 750 446 750L446 748Z" fill="currentColor" fill-rule="nonzero" />
		<path id="Vector 519" d="M452 740L448 740L448 742L452 742L452 744L449 744L449 746L452 746L452 748L448 748L448 750L452 750C452.53 749.999 453.038 749.788 453.413 749.413C453.788 749.038 453.999 748.53 454 748L454 742C454 741.47 453.789 740.961 453.414 740.586C453.039 740.211 452.53 740 452 740ZM460 750L458 750C457.47 750 456.961 749.789 456.586 749.414C456.211 749.039 456 748.53 456 748L456 742C456 741.47 456.211 740.961 456.586 740.586C456.961 740.211 457.47 740 458 740L460 740C460.53 740 461.039 740.211 461.414 740.586C461.789 740.961 462 741.47 462 742L462 748C462 748.53 461.789 749.039 461.414 749.414C461.039 749.789 460.53 750 460 750ZM458 742L458 748L460 748L460 742L458 742Z" fill="currentColor" fill-rule="nonzero" />
  </g>
</svg>

