<svg viewBox="0 0 32 32" xmlns="http://www.w3.org/2000/svg" fill="none">
  <g transform="translate(-576 -720)">
<path id="Vector 522" d="M590 748C587.348 748 584.804 746.946 582.929 745.071C581.054 743.196 580 740.652 580 738C580 735.348 581.054 732.804 582.929 730.929C584.804 729.054 587.348 728 590 728L594 728L594 733L600 727L594 721L594 726L590 726C586.817 726 583.765 727.264 581.515 729.515C579.264 731.765 578 734.817 578 738C578 741.183 579.264 744.235 581.515 746.485C583.765 748.736 586.817 750 590 750L590 748Z" fill="currentColor" fill-rule="nonzero" />
		<path id="Vector 523" d="M587.67 744L585.934 743L588.221 739L584.332 739L588.325 732L590.062 733L587.778 737L591.668 737L587.67 744ZM596 740L592 740L592 742L596 742L596 744L593 744L593 746L596 746L596 748L592 748L592 750L596 750C596.53 749.999 597.038 749.788 597.413 749.413C597.788 749.038 597.999 748.53 598 748L598 742C598 741.47 597.789 740.961 597.414 740.586C597.039 740.211 596.53 740 596 740ZM604 750L602 750C601.469 750 600.961 749.789 600.586 749.414C600.211 749.039 600 748.53 600 748L600 742C600 741.47 600.211 740.961 600.586 740.586C600.961 740.211 601.469 740 602 740L604 740C604.53 740 605.039 740.211 605.414 740.586C605.789 740.961 606 741.47 606 742L606 748C606 748.53 605.789 749.039 605.414 749.414C605.039 749.789 604.53 750 604 750ZM602 742L602 748L604 748L604 742L602 742Z" fill="currentColor" fill-rule="nonzero" />
  </g>
</svg>

