<svg viewBox="0 0 32 32" xmlns="http://www.w3.org/2000/svg" fill="none">
  <g transform="translate(-648 -720)">
<path id="Vector 524" d="M668 726C668 727.858 669.28 729.41 671 729.858L671 735L657 735L657 729.858C658.72 729.411 660 727.858 660 726C660 723.794 658.206 722 656 722C653.794 722 652 723.794 652 726C652 727.858 653.28 729.41 655 729.858L655 735C655 736.103 655.897 737 657 737L663 737L663 742.142C661.28 742.589 660 744.142 660 746C660 748.206 661.794 750 664 750C666.206 750 668 748.206 668 746C668 744.142 666.72 742.59 665 742.142L665 737L671 737C672.103 737 673 736.103 673 735L673 729.858C674.72 729.411 676 727.858 676 726C676 723.794 674.206 722 672 722C669.794 722 668 723.794 668 726ZM654 726C654 724.897 654.897 724 656 724C657.103 724 658 724.897 658 726C658 727.103 657.103 728 656 728C654.897 728 654 727.103 654 726ZM666 746C666 747.103 665.103 748 664 748C662.897 748 662 747.103 662 746C662 744.897 662.897 744 664 744C665.103 744 666 744.897 666 746ZM674 726C674 727.103 673.103 728 672 728C670.897 728 670 727.103 670 726C670 724.897 670.897 724 672 724C673.103 724 674 724.897 674 726Z" fill="currentColor" fill-rule="nonzero" />
  </g>
</svg>

