<svg viewBox="0 0 32 32" xmlns="http://www.w3.org/2000/svg" fill="none">
  <g transform="translate(-864 -720)">
<path id="Vector 527" d="M892 726L872 726C870.8 726 870 726.8 870 728L870 742C870 743.2 870.8 744 872 744L880 744L880 742L872 742L872 728L892 728L892 742L884.8 742L880 748.8L881.6 750L885.8 744L892 744C893.2 744 894 743.2 894 742L894 728C894 726.8 893.2 726 892 726Z" fill="currentColor" fill-rule="nonzero" />
		<path id="Vector 528" d="M868 738L866 738L866 725C866 723.3 867.3 722 869 722L882 722L882 724L869 724C868.4 724 868 724.4 868 725L868 738Z" fill="currentColor" fill-rule="nonzero" />
  </g>
</svg>

