<svg viewBox="0 0 32 32" xmlns="http://www.w3.org/2000/svg" fill="none">
  <g transform="translate(-1080 -720)">
<path id="Vector 533" d="M1106 738C1106 739.978 1105.41 741.911 1104.31 743.556C1103.22 745.2 1101.65 746.482 1099.83 747.239C1098 747.996 1095.99 748.194 1094.05 747.808C1092.11 747.422 1090.33 746.47 1088.93 745.071C1087.53 743.672 1086.58 741.891 1086.19 739.951C1085.81 738.011 1086 736 1086.76 734.173C1087.52 732.346 1088.8 730.784 1090.44 729.685C1092.09 728.586 1094.02 728 1096 728L1100 728L1100 733L1106 727L1100 721L1100 726L1096 726C1093.63 726 1091.31 726.704 1089.33 728.022C1087.36 729.341 1085.82 731.215 1084.91 733.408C1084.01 735.601 1083.77 738.013 1084.23 740.341C1084.69 742.669 1085.84 744.807 1087.51 746.485C1089.19 748.164 1091.33 749.306 1093.66 749.769C1095.99 750.232 1098.4 749.995 1100.59 749.087C1102.78 748.178 1104.66 746.64 1105.98 744.667C1107.3 742.693 1108 740.373 1108 738L1106 738Z" fill="currentColor" fill-rule="nonzero" />
		<path id="Vector 534" d="M1099.64 742.13C1099.2 742.142 1098.76 742.05 1098.36 741.86C1098 741.683 1097.7 741.418 1097.47 741.09C1097.23 740.709 1097.07 740.284 1097 739.84C1096.88 739.289 1096.82 738.725 1096.83 738.16C1096.82 737.595 1096.88 737.032 1097 736.48C1097.09 736.034 1097.27 735.609 1097.52 735.23C1097.75 734.902 1098.05 734.638 1098.41 734.46C1098.81 734.27 1099.25 734.178 1099.69 734.19C1100.11 734.159 1100.52 734.234 1100.9 734.409C1101.28 734.584 1101.61 734.853 1101.85 735.19C1102.36 736.079 1102.6 737.096 1102.55 738.12C1102.6 739.144 1102.36 740.162 1101.85 741.05C1101.61 741.41 1101.28 741.699 1100.89 741.889C1100.5 742.079 1100.07 742.162 1099.64 742.13ZM1099.64 740.91C1099.84 740.931 1100.05 740.89 1100.23 740.792C1100.4 740.694 1100.55 740.543 1100.64 740.36C1100.86 739.888 1100.96 739.37 1100.94 738.85L1100.94 737.47C1100.96 736.953 1100.86 736.439 1100.64 735.97C1100.53 735.799 1100.38 735.658 1100.2 735.56C1100.02 735.463 1099.82 735.412 1099.61 735.412C1099.41 735.412 1099.21 735.463 1099.03 735.56C1098.85 735.658 1098.7 735.799 1098.59 735.97C1098.37 736.439 1098.27 736.954 1098.3 737.47L1098.3 738.85C1098.27 739.369 1098.37 739.887 1098.59 740.36C1098.68 740.552 1098.84 740.709 1099.02 740.808C1099.21 740.906 1099.43 740.942 1099.64 740.91ZM1092.62 737.42C1092.98 737.455 1093.33 737.359 1093.62 737.15C1093.72 737.068 1093.8 736.965 1093.85 736.847C1093.91 736.729 1093.93 736.6 1093.93 736.47L1093.93 736.39C1093.94 736.252 1093.91 736.115 1093.86 735.987C1093.81 735.859 1093.73 735.744 1093.63 735.65C1093.4 735.459 1093.1 735.363 1092.8 735.38C1092.49 735.374 1092.18 735.457 1091.91 735.62C1091.63 735.791 1091.4 736.024 1091.23 736.3L1090.3 735.47C1090.44 735.29 1090.58 735.12 1090.74 734.96C1090.9 734.805 1091.08 734.67 1091.28 734.56C1091.5 734.437 1091.73 734.346 1091.98 734.29C1092.26 734.218 1092.56 734.185 1092.85 734.19C1093.21 734.189 1093.56 734.236 1093.91 734.33C1094.21 734.407 1094.49 734.543 1094.73 734.73C1094.95 734.898 1095.14 735.113 1095.27 735.36C1095.39 735.62 1095.45 735.903 1095.45 736.19C1095.45 736.418 1095.41 736.645 1095.34 736.86C1095.26 737.05 1095.16 737.226 1095.02 737.38C1094.88 737.525 1094.73 737.647 1094.55 737.74C1094.37 737.832 1094.18 737.899 1093.98 737.94L1093.98 738C1094.2 738.039 1094.41 738.11 1094.61 738.21C1094.8 738.304 1094.98 738.433 1095.12 738.59C1095.26 738.753 1095.38 738.939 1095.46 739.14C1095.54 739.374 1095.58 739.622 1095.58 739.87C1095.59 740.188 1095.52 740.504 1095.38 740.79C1095.25 741.072 1095.05 741.319 1094.8 741.51C1094.53 741.714 1094.23 741.867 1093.91 741.96C1093.54 742.072 1093.15 742.126 1092.76 742.12C1092.42 742.126 1092.09 742.089 1091.76 742.01C1091.49 741.942 1091.24 741.838 1091 741.7C1090.79 741.575 1090.61 741.424 1090.44 741.25C1090.28 741.08 1090.13 740.896 1090 740.7L1091.07 739.89C1091.15 740.038 1091.24 740.178 1091.35 740.31C1091.46 740.438 1091.58 740.552 1091.71 740.65C1091.85 740.747 1092 740.821 1092.16 740.87C1092.35 740.921 1092.54 740.944 1092.73 740.94C1093.09 740.968 1093.45 740.861 1093.73 740.64C1093.84 740.53 1093.93 740.398 1093.99 740.251C1094.05 740.105 1094.08 739.948 1094.07 739.79L1094.07 739.71C1094.07 739.557 1094.04 739.406 1093.98 739.267C1093.91 739.129 1093.82 739.006 1093.7 738.91C1093.38 738.708 1093.01 738.61 1092.64 738.63L1091.88 738.63L1091.88 737.42L1092.62 737.42Z" fill="currentColor" fill-rule="nonzero" />
  </g>
</svg>

