<svg viewBox="0 0 32 32" xmlns="http://www.w3.org/2000/svg" fill="none">
  <g transform="translate(-936 -720)">
<path id="Vector 529" d="M962 738C962 739.978 961.414 741.911 960.315 743.556C959.216 745.2 957.654 746.482 955.827 747.239C954 747.996 951.989 748.194 950.049 747.808C948.109 747.422 946.328 746.47 944.929 745.071C943.53 743.672 942.578 741.891 942.192 739.951C941.806 738.011 942.004 736 942.761 734.173C943.518 732.346 944.8 730.784 946.444 729.685C948.089 728.586 950.022 728 952 728L956 728L956 733L962 727L956 721L956 726L952 726C949.627 726 947.307 726.704 945.333 728.022C943.36 729.341 941.822 731.215 940.913 733.408C940.005 735.601 939.768 738.013 940.231 740.341C940.694 742.669 941.836 744.807 943.515 746.485C945.193 748.164 947.331 749.306 949.659 749.769C951.987 750.232 954.399 749.995 956.592 749.087C958.785 748.178 960.659 746.64 961.978 744.667C963.296 742.693 964 740.373 964 738L962 738Z" fill="currentColor" fill-rule="nonzero" />
		<path id="Vector 530" d="M954.58 735.58L951.13 735.58L951 738.15C951.079 737.996 951.166 737.845 951.26 737.7C951.352 737.567 951.463 737.449 951.59 737.35C951.723 737.249 951.872 737.172 952.03 737.12C952.225 737.063 952.427 737.036 952.63 737.04C952.944 737.035 953.256 737.089 953.55 737.2C953.828 737.306 954.08 737.469 954.29 737.68C954.507 737.901 954.677 738.162 954.79 738.45C954.913 738.769 954.974 739.108 954.97 739.45C954.975 739.816 954.91 740.179 954.78 740.52C954.658 740.836 954.471 741.122 954.23 741.36C953.977 741.607 953.673 741.794 953.34 741.91C952.953 742.054 952.542 742.122 952.13 742.11C951.813 742.113 951.497 742.076 951.19 742C950.93 741.927 950.681 741.82 950.45 741.68C950.246 741.557 950.061 741.405 949.9 741.23C949.748 741.059 949.611 740.875 949.49 740.68L950.55 739.87L950.82 740.28C950.918 740.408 951.032 740.522 951.16 740.62C951.291 740.715 951.436 740.789 951.59 740.84C951.767 740.901 951.953 740.928 952.14 740.92C952.323 740.934 952.506 740.909 952.678 740.847C952.851 740.785 953.008 740.687 953.14 740.56C953.376 740.282 953.494 739.924 953.47 739.56L953.47 739.5C953.484 739.329 953.46 739.157 953.4 738.996C953.341 738.835 953.247 738.689 953.125 738.568C953.003 738.447 952.856 738.354 952.695 738.296C952.533 738.237 952.361 738.215 952.19 738.23C951.922 738.217 951.655 738.279 951.42 738.41C951.241 738.514 951.079 738.646 950.94 738.8L949.75 738.63L950.04 734.32L954.56 734.32L954.58 735.58Z" fill="currentColor" fill-rule="nonzero" />
  </g>
</svg>

