<svg viewBox="0 0 32 32" xmlns="http://www.w3.org/2000/svg" fill="none">
  <g transform="translate(-1008 -720)">
<path id="Vector 531" d="M1034 738C1034 739.978 1033.41 741.911 1032.31 743.556C1031.22 745.2 1029.65 746.482 1027.83 747.239C1026 747.996 1023.99 748.194 1022.05 747.808C1020.11 747.422 1018.33 746.47 1016.93 745.071C1015.53 743.672 1014.58 741.891 1014.19 739.951C1013.81 738.011 1014 736 1014.76 734.173C1015.52 732.346 1016.8 730.784 1018.44 729.685C1020.09 728.586 1022.02 728 1024 728L1028 728L1028 733L1034 727L1028 721L1028 726L1024 726C1021.63 726 1019.31 726.704 1017.33 728.022C1015.36 729.341 1013.82 731.215 1012.91 733.408C1012.01 735.601 1011.77 738.013 1012.23 740.341C1012.69 742.669 1013.84 744.807 1015.51 746.485C1017.19 748.164 1019.33 749.306 1021.66 749.769C1023.99 750.232 1026.4 749.995 1028.59 749.087C1030.78 748.178 1032.66 746.64 1033.98 744.667C1035.3 742.693 1036 740.373 1036 738L1034 738Z" fill="currentColor" fill-rule="nonzero" />
		<path id="Vector 532" d="M1027.63 742.13C1027.19 742.141 1026.75 742.049 1026.35 741.86C1025.99 741.68 1025.69 741.416 1025.46 741.09C1025.21 740.71 1025.03 740.286 1024.94 739.84C1024.82 739.288 1024.76 738.725 1024.77 738.16C1024.77 737.596 1024.82 737.033 1024.94 736.48C1025.03 736.035 1025.21 735.611 1025.46 735.23C1025.69 734.905 1025.99 734.64 1026.35 734.46C1026.75 734.272 1027.19 734.179 1027.63 734.19C1028.05 734.159 1028.46 734.234 1028.84 734.409C1029.22 734.584 1029.55 734.853 1029.79 735.19C1030.31 736.077 1030.55 737.096 1030.49 738.12C1030.55 739.144 1030.31 740.163 1029.79 741.05C1029.55 741.402 1029.23 741.687 1028.85 741.876C1028.47 742.065 1028.05 742.153 1027.63 742.13ZM1027.63 740.91C1027.83 740.922 1028.03 740.877 1028.21 740.78C1028.39 740.682 1028.53 740.537 1028.63 740.36C1028.87 739.892 1028.99 739.375 1029 738.85L1029 737.47C1029.02 736.954 1028.92 736.441 1028.71 735.97C1028.6 735.799 1028.45 735.658 1028.27 735.561C1028.09 735.463 1027.88 735.412 1027.68 735.412C1027.48 735.412 1027.27 735.463 1027.09 735.561C1026.91 735.658 1026.76 735.799 1026.65 735.97C1026.44 736.441 1026.34 736.954 1026.36 737.47L1026.36 738.85C1026.34 739.369 1026.44 739.886 1026.65 740.36C1026.75 740.534 1026.89 740.678 1027.06 740.776C1027.23 740.873 1027.43 740.92 1027.63 740.91ZM1018.63 742L1018.63 740.82L1020.63 740.82L1020.63 735.63L1018.77 736.63L1018.22 735.57L1020.54 734.27L1022 734.27L1022 740.77L1023.78 740.77L1023.78 742L1018.63 742Z" fill="currentColor" fill-rule="nonzero" />
  </g>
</svg>

