<svg viewBox="0 0 32 32" xmlns="http://www.w3.org/2000/svg" fill="none">
  <g transform="translate(-1152 -720)">
<path id="Vector 535" d="M1175 732L1175 726L1173 726L1173 732C1173 733.326 1172.47 734.598 1171.54 735.536C1170.6 736.473 1169.33 737 1168 737C1166.67 737 1165.4 736.473 1164.46 735.536C1163.53 734.598 1163 733.326 1163 732L1163 724L1168.59 724L1166.29 726.293C1166.11 726.481 1166 726.735 1166 727C1166 727.265 1166.11 727.519 1166.29 727.707L1167.59 729L1165.29 731.293L1166.71 732.707L1169.71 729.707C1169.89 729.519 1170 729.265 1170 729C1170 728.735 1169.89 728.481 1169.71 728.293L1168.41 727L1171.71 723.707C1171.85 723.567 1171.94 723.389 1171.98 723.195C1172.02 723.001 1172 722.8 1171.92 722.617C1171.85 722.435 1171.72 722.279 1171.56 722.169C1171.39 722.059 1171.2 722 1171 722L1162 722C1161.73 722 1161.48 722.105 1161.29 722.293C1161.11 722.48 1161 722.735 1161 723L1161 732C1161 733.682 1161.61 735.306 1162.71 736.576C1163.81 737.847 1165.34 738.679 1167 738.92L1167 748L1162 748L1162 750L1174 750L1174 748L1169 748L1169 738.92C1170.66 738.679 1172.19 737.847 1173.29 736.576C1174.39 735.306 1175 733.682 1175 732Z" fill="currentColor" fill-rule="nonzero" />
  </g>
</svg>

