<svg viewBox="0 0 32 32" xmlns="http://www.w3.org/2000/svg" fill="none">
  <g transform="translate(-1224 -720)">
<path id="Vector 536" d="M1240 750C1238.85 749.998 1237.73 749.6 1236.84 748.871C1235.95 748.143 1235.33 747.128 1235.1 746L1230 746C1228.9 746 1228 745.103 1228 744L1228 739L1229 739C1230.65 739 1232 737.654 1232 736C1232 734.346 1230.65 733 1229 733L1228 733L1228 728C1228 726.897 1228.9 726 1230 726L1235.1 726C1235.56 723.72 1237.58 722 1240 722C1242.42 722 1244.44 723.72 1244.9 726L1250 726C1251.1 726 1252 726.897 1252 728L1252 733L1251 733C1249.35 733 1248 734.346 1248 736C1248 737.654 1249.35 739 1251 739L1252 739L1252 744C1252 745.103 1251.1 746 1250 746L1244.9 746C1244.67 747.128 1244.05 748.143 1243.16 748.871C1242.27 749.6 1241.15 749.998 1240 750ZM1230 740.9L1230 744L1237 744L1237 745C1237 746.654 1238.35 748 1240 748C1241.65 748 1243 746.654 1243 745L1243 744L1250 744L1250 740.9C1247.72 740.435 1246 738.415 1246 736C1246 733.585 1247.72 731.565 1250 731.1L1250 728L1243 728L1243 727C1243 725.346 1241.65 724 1240 724C1238.35 724 1237 725.346 1237 727L1237 728L1230 728L1230 731.1C1232.28 731.565 1234 733.586 1234 736C1234 738.414 1232.28 740.435 1230 740.9Z" fill="currentColor" fill-rule="nonzero" />
  </g>
</svg>

