<svg viewBox="0 0 32 32" xmlns="http://www.w3.org/2000/svg" fill="none">
  <g transform="translate(-1296 -720)">
<path id="Vector 537" d="M1321 730L1303 730C1302.2 730.001 1301.44 730.317 1300.88 730.88C1300.32 731.442 1300 732.205 1300 733L1300 739C1300 739.53 1300.21 740.039 1300.59 740.414C1300.96 740.789 1301.47 741 1302 741L1302 748C1302 748.53 1302.21 749.039 1302.59 749.414C1302.96 749.789 1303.47 750 1304 750L1308 750C1308.53 750 1309.04 749.789 1309.41 749.414C1309.79 749.039 1310 748.53 1310 748L1310 736L1308 736L1308 748L1304 748L1304 739L1302 739L1302 733C1302 732.735 1302.11 732.48 1302.29 732.293C1302.48 732.105 1302.73 732 1303 732L1321 732C1321.27 732 1321.52 732.105 1321.71 732.293C1321.89 732.48 1322 732.735 1322 733L1322 739L1320 739L1320 748L1316 748L1316 736L1314 736L1314 748C1314 748.53 1314.21 749.039 1314.59 749.414C1314.96 749.789 1315.47 750 1316 750L1320 750C1320.53 750 1321.04 749.789 1321.41 749.414C1321.79 749.039 1322 748.53 1322 748L1322 741C1322.53 741 1323.04 740.789 1323.41 740.414C1323.79 740.039 1324 739.53 1324 739L1324 733C1324 732.205 1323.68 731.442 1323.12 730.88C1322.56 730.317 1321.8 730.001 1321 730ZM1306 729C1305.21 729 1304.44 728.765 1303.78 728.326C1303.12 727.886 1302.61 727.262 1302.3 726.531C1302 725.8 1301.92 724.996 1302.08 724.22C1302.23 723.444 1302.61 722.731 1303.17 722.172C1303.73 721.612 1304.44 721.231 1305.22 721.077C1306 720.923 1306.8 721.002 1307.53 721.305C1308.26 721.607 1308.89 722.12 1309.33 722.778C1309.77 723.436 1310 724.209 1310 725C1310 726.061 1309.58 727.077 1308.83 727.827C1308.08 728.577 1307.06 728.999 1306 729ZM1306 723C1305.6 723 1305.22 723.117 1304.89 723.337C1304.56 723.557 1304.3 723.869 1304.15 724.235C1304 724.6 1303.96 725.002 1304.04 725.39C1304.12 725.778 1304.31 726.135 1304.59 726.414C1304.87 726.694 1305.22 726.884 1305.61 726.962C1306 727.039 1306.4 726.999 1306.77 726.848C1307.13 726.696 1307.44 726.44 1307.66 726.111C1307.88 725.782 1308 725.396 1308 725C1308 724.47 1307.79 723.961 1307.41 723.586C1307.04 723.211 1306.53 723 1306 723ZM1318 729C1317.21 729 1316.44 728.765 1315.78 728.326C1315.12 727.886 1314.61 727.262 1314.3 726.531C1314 725.8 1313.92 724.996 1314.08 724.22C1314.23 723.444 1314.61 722.731 1315.17 722.172C1315.73 721.612 1316.44 721.231 1317.22 721.077C1318 720.923 1318.8 721.002 1319.53 721.305C1320.26 721.607 1320.89 722.12 1321.33 722.778C1321.77 723.436 1322 724.209 1322 725C1322 726.061 1321.58 727.077 1320.83 727.827C1320.08 728.577 1319.06 728.999 1318 729ZM1318 723C1317.6 723 1317.22 723.117 1316.89 723.337C1316.56 723.557 1316.3 723.869 1316.15 724.235C1316 724.6 1315.96 725.002 1316.04 725.39C1316.12 725.778 1316.31 726.135 1316.59 726.414C1316.87 726.694 1317.22 726.884 1317.61 726.962C1318 727.039 1318.4 726.999 1318.77 726.848C1319.13 726.696 1319.44 726.44 1319.66 726.111C1319.88 725.782 1320 725.396 1320 725C1320 724.47 1319.79 723.961 1319.41 723.586C1319.04 723.211 1318.53 723 1318 723Z" fill="currentColor" fill-rule="nonzero" />
  </g>
</svg>

