<svg viewBox="0 0 32 32" xmlns="http://www.w3.org/2000/svg" fill="none">
  <g transform="translate(-1368.000122 -720)">
<path id="Vector 538" d="M1394 735C1394 733.927 1393.71 732.873 1393.16 731.949C1392.62 731.025 1391.83 730.265 1390.89 729.747C1391.6 729.008 1392 728.024 1392 727L1390 727C1390 727.53 1389.79 728.039 1389.41 728.414C1389.04 728.789 1388.53 729 1388 729C1386.43 729.002 1384.92 729.62 1383.8 730.722C1382.68 731.823 1382.03 733.321 1382.01 734.892C1380.72 733.586 1380 731.83 1380 730C1380 729.116 1379.7 728.257 1379.16 727.559C1378.62 726.861 1377.86 726.362 1377 726.142L1377 724L1375 724L1375 726.142C1374.14 726.362 1373.38 726.861 1372.84 727.559C1372.3 728.257 1372 729.116 1372 730L1372 735L1370 735L1370 736C1370 739.713 1371.48 743.274 1374.1 745.899C1376.73 748.525 1380.29 750 1384 750C1387.71 750 1391.27 748.525 1393.9 745.899C1396.53 743.274 1398 739.713 1398 736L1398 735L1394 735ZM1388 731C1389.06 731.001 1390.08 731.423 1390.83 732.173C1391.58 732.923 1392 733.94 1392 735L1384 735C1384 733.94 1384.42 732.923 1385.17 732.173C1385.92 731.423 1386.94 731.001 1388 731ZM1374 730C1374 729.47 1374.21 728.961 1374.59 728.586C1374.96 728.211 1375.47 728 1376 728C1376.53 728 1377.04 728.211 1377.41 728.586C1377.79 728.961 1378 729.47 1378 730C1378 731.782 1378.54 733.522 1379.53 735L1374 735L1374 730ZM1384 748C1380.99 747.996 1378.09 746.864 1375.88 744.827C1373.67 742.791 1372.3 739.997 1372.04 737L1395.96 737C1395.7 739.998 1394.33 742.791 1392.12 744.828C1389.91 746.864 1387.01 747.996 1384 748Z" fill="currentColor" fill-rule="nonzero" />
  </g>
</svg>

