<svg viewBox="0 0 32 32" xmlns="http://www.w3.org/2000/svg" fill="none">
  <g transform="translate(-1584.000122 -720)">
<path id="Vector 543" d="M1610 738L1608 738L1606 741.897L1604 738L1602 738L1604.91 743L1602 748L1604 748L1606 744.201L1608 748L1610 748L1607.1 743L1610 738ZM1603 726L1603 724L1597.91 724C1597.41 723.998 1596.93 724.183 1596.56 724.521C1596.19 724.857 1595.96 725.321 1595.92 725.819L1595.27 733L1591 733L1591 735L1595.09 735L1594.09 746L1589 746L1589 748L1594.09 748C1594.59 748.002 1595.07 747.817 1595.44 747.48C1595.81 747.143 1596.04 746.679 1596.08 746.181L1597.1 735L1602 735L1602 733L1597.28 733L1597.91 726L1603 726Z" fill="currentColor" fill-rule="nonzero" />
  </g>
</svg>

