<svg viewBox="0 0 32 32" xmlns="http://www.w3.org/2000/svg" fill="none">
  <g transform="translate(-1512.000122 -720)">
<path id="Vector 542" d="M1524.3 733L1523 746.2C1522.9 747.193 1522.1 748 1521.1 748L1516 748L1516 746L1521 746L1522.3 733L1518 733L1518 731L1522.5 731L1523 725.8C1523.09 724.798 1524 724 1525 724L1530 724L1530 726L1525 726L1524.5 731L1529 731L1529 733L1524.3 733ZM1528 739L1528 746C1528 747.1 1528.9 748 1530 748L1532 748L1532 746L1530 746L1530 739L1532 739L1532 737L1530 737C1528.9 737 1528 737.9 1528 739ZM1538 737L1536 737L1536 739L1538 739L1538 746L1536 746L1536 748L1538 748C1539.1 748 1540 747.1 1540 746L1540 739C1540 737.9 1539.1 737 1538 737Z" fill="currentColor" fill-rule="nonzero" />
  </g>
</svg>

