<svg viewBox="0 0 32 32" xmlns="http://www.w3.org/2000/svg" fill="none">
  <g transform="translate(-1440.000122 -720)">
<path id="Vector 539" d="M1459.63 749.526L1459.11 747.593C1461.05 747.071 1462.83 746.068 1464.29 744.678C1465.74 743.288 1466.83 741.554 1467.44 739.636C1468.04 737.718 1468.16 735.678 1467.78 733.703C1467.39 731.728 1466.52 729.881 1465.23 728.333L1466.77 727.053C1468.27 728.859 1469.29 731.014 1469.74 733.319C1470.19 735.624 1470.05 738.005 1469.34 740.243C1468.63 742.481 1467.37 744.504 1465.67 746.126C1463.97 747.748 1461.89 748.917 1459.63 749.526Z" fill="currentColor" fill-rule="nonzero" />
		<path id="Vector 540" d="M1450 749L1448 749L1448 745.18L1448.8 745.02C1450.26 744.727 1452 743.62 1452 740L1452 738.618L1448 736.618L1448 734.382L1452 732.382L1452 732C1452 726.533 1455.93 723 1462 723L1464 723L1464 726.82L1463.2 726.98C1461.74 727.273 1460 728.38 1460 732L1460 732.382L1464 734.382L1464 736.618L1460 738.618L1460 740C1460 745.467 1456.08 749 1450 749ZM1450 747C1454.94 747 1458 744.318 1458 740L1458 737.382L1461.76 735.5L1458 733.618L1458 732C1458 727.422 1460.39 725.808 1462 725.24L1462 725C1457.07 725 1454 727.682 1454 732L1454 733.618L1450.24 735.5L1454 737.382L1454 740C1454 744.578 1451.62 746.192 1450 746.76L1450 747Z" fill="currentColor" fill-rule="nonzero" />
		<path id="Vector 541" d="M1445.23 744.947C1443.73 743.141 1442.71 740.985 1442.26 738.68C1441.81 736.375 1441.95 733.994 1442.66 731.755C1443.37 729.517 1444.63 727.494 1446.33 725.872C1448.03 724.25 1450.11 723.081 1452.38 722.473L1452.89 724.405C1450.95 724.927 1449.17 725.929 1447.71 727.319C1446.26 728.709 1445.17 730.444 1444.56 732.362C1443.95 734.28 1443.84 736.321 1444.22 738.297C1444.61 740.272 1445.48 742.12 1446.77 743.668L1445.23 744.947Z" fill="currentColor" fill-rule="nonzero" />
  </g>
</svg>

