<svg viewBox="0 0 32 32" xmlns="http://www.w3.org/2000/svg" fill="none">
  <g transform="translate(-1656.000122 -720)">
<path id="Vector 544" d="M1685 728L1665 728C1663.9 728 1663 728.9 1663 730L1663 733.6C1663 734.1 1663.2 734.6 1663.6 735L1671 742.4L1671 748C1671 749.1 1671.9 750 1673 750L1677 750C1678.1 750 1679 749.1 1679 748L1679 742.4L1686.4 735C1686.8 734.6 1687 734.1 1687 733.6L1687 730C1687 728.9 1686.1 728 1685 728ZM1685 733.6L1677 741.6L1677 748L1673 748L1673 741.6L1665 733.6L1665 730L1685 730L1685 733.6ZM1660 727.6L1661 728.6L1661 731.4L1658.6 729C1658.2 728.6 1658 728.1 1658 727.6L1658 724C1658 722.9 1658.9 722 1660 722L1680 722C1681.1 722 1682 722.9 1682 724L1682 726L1680 726L1680 724L1660 724L1660 727.6Z" fill="currentColor" fill-rule="nonzero" />
  </g>
</svg>

