<svg viewBox="0 0 32 32" xmlns="http://www.w3.org/2000/svg" fill="none">
  <g transform="translate(-1728.000122 -720)">
<path id="Vector 545" d="M1749.4 735.6L1752 738.2L1754.6 735.6L1756 737L1752 741L1748 737L1749.4 735.6ZM1749.4 733.4L1752 730.8L1754.6 733.4L1756 732L1752 728L1748 732L1749.4 733.4ZM1754 724L1732 724C1730.9 724 1730 724.9 1730 726L1730 729.2C1730 729.7 1730.2 730.2 1730.6 730.6L1738 738L1738 746C1738 747.1 1738.9 748 1740 748L1744 748C1745.1 748 1746 747.1 1746 746L1746 742L1744 742L1744 746L1740 746L1740 737.2L1739.4 736.6L1732 729.2L1732 726L1754 726L1754 724Z" fill="currentColor" fill-rule="nonzero" />
  </g>
</svg>

