<svg viewBox="0 0 32 32" xmlns="http://www.w3.org/2000/svg" fill="none">
  <g transform="translate(-1872.000122 -720)">
<path id="Vector 552" d="M1879.51 750C1879.02 750.001 1878.54 749.937 1878.07 749.81C1876.66 749.408 1875.47 748.47 1874.74 747.197C1874.01 745.924 1873.82 744.417 1874.19 743L1876.52 734.16C1876.7 733.448 1877.03 732.78 1877.47 732.195C1877.92 731.609 1878.47 731.118 1879.11 730.75C1879.73 730.39 1880.42 730.157 1881.13 730.064C1881.84 729.971 1882.57 730.021 1883.26 730.21C1884 730.412 1884.68 730.765 1885.27 731.245C1885.86 731.725 1886.35 732.323 1886.7 733L1889.3 733C1889.65 732.318 1890.13 731.716 1890.72 731.232C1891.32 730.748 1892 730.393 1892.74 730.19C1893.43 730.001 1894.16 729.951 1894.87 730.044C1895.58 730.137 1896.27 730.37 1896.89 730.73C1897.53 731.099 1898.08 731.59 1898.53 732.175C1898.97 732.761 1899.3 733.428 1899.48 734.14L1901.81 743C1902.19 744.421 1901.99 745.934 1901.26 747.212C1900.54 748.49 1899.34 749.43 1897.92 749.83C1897.23 750.019 1896.5 750.069 1895.79 749.976C1895.08 749.883 1894.39 749.65 1893.77 749.29C1893.13 748.922 1892.58 748.431 1892.13 747.845C1891.69 747.26 1891.36 746.592 1891.18 745.88L1891 745L1885 745L1884.77 745.86C1884.59 746.572 1884.26 747.24 1883.82 747.825C1883.37 748.411 1882.82 748.902 1882.18 749.27C1881.37 749.739 1880.45 749.99 1879.51 750ZM1881.83 732C1881.23 732.003 1880.63 732.161 1880.11 732.46C1879.7 732.698 1879.35 733.014 1879.06 733.389C1878.78 733.765 1878.57 734.194 1878.45 734.65L1876.12 743.49C1875.88 744.401 1876 745.371 1876.46 746.192C1876.93 747.013 1877.69 747.619 1878.6 747.88C1879.04 747.999 1879.49 748.031 1879.94 747.972C1880.39 747.914 1880.83 747.767 1881.22 747.54C1881.63 747.303 1881.98 746.987 1882.27 746.611C1882.55 746.235 1882.76 745.807 1882.88 745.35L1883.5 743L1892.5 743L1893.11 745.35C1893.35 746.271 1893.95 747.058 1894.77 747.54C1895.16 747.767 1895.6 747.914 1896.05 747.972C1896.5 748.03 1896.96 747.999 1897.4 747.88C1898.31 747.621 1899.08 747.015 1899.54 746.193C1900 745.371 1900.12 744.4 1899.87 743.49L1897.54 734.65C1897.43 734.193 1897.22 733.764 1896.94 733.388C1896.65 733.012 1896.3 732.697 1895.89 732.46C1895.5 732.233 1895.06 732.086 1894.61 732.028C1894.16 731.97 1893.7 732.001 1893.26 732.12C1892.72 732.275 1892.22 732.557 1891.81 732.943C1891.39 733.329 1891.08 733.808 1890.89 734.34L1890.65 735L1885.35 735L1885.11 734.34C1884.92 733.807 1884.6 733.328 1884.19 732.942C1883.77 732.556 1883.27 732.274 1882.73 732.12C1882.44 732.041 1882.13 732.001 1881.83 732Z" fill="currentColor" fill-rule="nonzero" />
		<path id="Vector 553" d="M1882 740C1881.6 740 1881.22 739.883 1880.89 739.663C1880.56 739.443 1880.3 739.131 1880.15 738.765C1880 738.4 1879.96 737.998 1880.04 737.61C1880.12 737.222 1880.31 736.865 1880.59 736.586C1880.87 736.306 1881.22 736.116 1881.61 736.038C1882 735.961 1882.4 736.001 1882.77 736.152C1883.13 736.304 1883.44 736.56 1883.66 736.889C1883.88 737.218 1884 737.604 1884 738C1884 738.53 1883.79 739.039 1883.41 739.414C1883.04 739.789 1882.53 740 1882 740Z" fill="currentColor" fill-rule="nonzero" />
		<path id="Vector 554" d="M1894 737C1894.55 737 1895 736.552 1895 736C1895 735.448 1894.55 735 1894 735C1893.45 735 1893 735.448 1893 736C1893 736.552 1893.45 737 1894 737Z" fill="currentColor" fill-rule="nonzero" />
		<path id="Vector 555" d="M1894 741C1894.55 741 1895 740.552 1895 740C1895 739.448 1894.55 739 1894 739C1893.45 739 1893 739.448 1893 740C1893 740.552 1893.45 741 1894 741Z" fill="currentColor" fill-rule="nonzero" />
		<path id="Vector 556" d="M1892 739C1892.55 739 1893 738.552 1893 738C1893 737.448 1892.55 737 1892 737C1891.45 737 1891 737.448 1891 738C1891 738.552 1891.45 739 1892 739Z" fill="currentColor" fill-rule="nonzero" />
		<path id="Vector 557" d="M1896 739C1896.55 739 1897 738.552 1897 738C1897 737.448 1896.55 737 1896 737C1895.45 737 1895 737.448 1895 738C1895 738.552 1895.45 739 1896 739Z" fill="currentColor" fill-rule="nonzero" />
		<path id="Vector 558" d="M1885.75 729L1884.25 727.67C1884.72 727.138 1885.3 726.712 1885.94 726.42C1886.59 726.128 1887.29 725.977 1888 725.977C1888.71 725.977 1889.41 726.128 1890.06 726.42C1890.7 726.712 1891.28 727.138 1891.75 727.67L1890.25 729C1889.97 728.681 1889.62 728.425 1889.23 728.25C1888.85 728.075 1888.43 727.984 1888 727.984C1887.57 727.984 1887.15 728.075 1886.77 728.25C1886.38 728.425 1886.03 728.681 1885.75 729Z" fill="currentColor" fill-rule="nonzero" />
		<path id="Vector 559" d="M1893.25 726.37C1892.59 725.625 1891.79 725.029 1890.88 724.62C1889.97 724.211 1888.99 724 1888 724C1887.01 724 1886.03 724.211 1885.12 724.62C1884.21 725.029 1883.41 725.625 1882.75 726.37L1881.25 725.05C1882.09 724.092 1883.13 723.325 1884.3 722.8C1885.46 722.275 1886.72 722.003 1888 722.003C1889.28 722.003 1890.54 722.275 1891.7 722.8C1892.87 723.325 1893.91 724.092 1894.75 725.05L1893.25 726.37Z" fill="currentColor" fill-rule="nonzero" />
  </g>
</svg>

