<svg viewBox="0 0 32 32" xmlns="http://www.w3.org/2000/svg" fill="none">
  <g transform="translate(-1800.000122 -720)">
<path id="Vector 546" d="M1807.51 746C1807.02 746.001 1806.54 745.937 1806.07 745.81C1804.66 745.408 1803.47 744.47 1802.74 743.197C1802.01 741.924 1801.82 740.417 1802.19 739L1804.52 730.16C1804.7 729.445 1805.02 728.773 1805.47 728.184C1805.91 727.595 1806.47 727.1 1807.11 726.73C1807.73 726.37 1808.42 726.137 1809.13 726.044C1809.84 725.951 1810.57 726.001 1811.26 726.19C1812 726.395 1812.68 726.75 1813.28 727.234C1813.87 727.717 1814.35 728.319 1814.7 729L1817.3 729C1817.65 728.318 1818.13 727.716 1818.72 727.232C1819.32 726.748 1820 726.393 1820.74 726.19C1821.43 726.001 1822.16 725.951 1822.87 726.044C1823.58 726.137 1824.27 726.37 1824.89 726.73C1825.53 727.099 1826.08 727.591 1826.53 728.176C1826.97 728.761 1827.29 729.429 1827.48 730.14L1829.81 739C1830.19 740.421 1829.99 741.934 1829.26 743.212C1828.54 744.49 1827.34 745.43 1825.92 745.83C1825.23 746.019 1824.5 746.069 1823.79 745.976C1823.08 745.883 1822.39 745.65 1821.77 745.29C1821.13 744.922 1820.58 744.431 1820.13 743.845C1819.69 743.26 1819.36 742.592 1819.18 741.88L1819 741L1813 741L1812.77 741.86C1812.59 742.572 1812.26 743.24 1811.82 743.825C1811.37 744.411 1810.82 744.902 1810.18 745.27C1809.37 745.739 1808.45 745.99 1807.51 746ZM1809.83 728C1809.23 728.003 1808.63 728.161 1808.11 728.46C1807.29 728.942 1806.69 729.729 1806.45 730.65L1804.12 739.49C1803.88 740.401 1804 741.371 1804.46 742.192C1804.93 743.013 1805.69 743.619 1806.6 743.88C1807.04 743.999 1807.49 744.031 1807.94 743.972C1808.39 743.914 1808.83 743.767 1809.22 743.54C1809.63 743.304 1809.99 742.989 1810.27 742.613C1810.56 742.237 1810.76 741.807 1810.88 741.35L1811.5 739L1820.5 739L1821.11 741.35C1821.23 741.806 1821.44 742.235 1821.72 742.611C1822.01 742.986 1822.36 743.302 1822.77 743.54C1823.16 743.767 1823.6 743.914 1824.05 743.972C1824.5 744.03 1824.96 743.999 1825.4 743.88C1826.31 743.621 1827.08 743.015 1827.54 742.193C1828 741.371 1828.12 740.4 1827.87 739.49L1825.54 730.65C1825.42 730.194 1825.22 729.765 1824.94 729.389C1824.65 729.013 1824.3 728.697 1823.89 728.46C1823.5 728.233 1823.06 728.086 1822.61 728.028C1822.16 727.97 1821.7 728.001 1821.26 728.12C1820.72 728.275 1820.22 728.557 1819.81 728.943C1819.39 729.329 1819.08 729.808 1818.89 730.34L1818.65 731L1813.35 731L1813.11 730.34C1812.92 729.807 1812.6 729.328 1812.19 728.942C1811.77 728.556 1811.27 728.274 1810.73 728.12C1810.44 728.041 1810.13 728.001 1809.83 728Z" fill="currentColor" fill-rule="nonzero" />
		<path id="Vector 547" d="M1810 736C1809.6 736 1809.22 735.883 1808.89 735.663C1808.56 735.443 1808.3 735.131 1808.15 734.765C1808 734.4 1807.96 733.998 1808.04 733.61C1808.12 733.222 1808.31 732.865 1808.59 732.586C1808.87 732.306 1809.22 732.116 1809.61 732.038C1810 731.961 1810.4 732.001 1810.77 732.152C1811.13 732.304 1811.44 732.56 1811.66 732.889C1811.88 733.218 1812 733.604 1812 734C1812 734.53 1811.79 735.039 1811.41 735.414C1811.04 735.789 1810.53 736 1810 736Z" fill="currentColor" fill-rule="nonzero" />
		<path id="Vector 548" d="M1822 733C1822.55 733 1823 732.552 1823 732C1823 731.448 1822.55 731 1822 731C1821.45 731 1821 731.448 1821 732C1821 732.552 1821.45 733 1822 733Z" fill="currentColor" fill-rule="nonzero" />
		<path id="Vector 549" d="M1822 737C1822.55 737 1823 736.552 1823 736C1823 735.448 1822.55 735 1822 735C1821.45 735 1821 735.448 1821 736C1821 736.552 1821.45 737 1822 737Z" fill="currentColor" fill-rule="nonzero" />
		<path id="Vector 550" d="M1820 735C1820.55 735 1821 734.552 1821 734C1821 733.448 1820.55 733 1820 733C1819.45 733 1819 733.448 1819 734C1819 734.552 1819.45 735 1820 735Z" fill="currentColor" fill-rule="nonzero" />
		<path id="Vector 551" d="M1824 735C1824.55 735 1825 734.552 1825 734C1825 733.448 1824.55 733 1824 733C1823.45 733 1823 733.448 1823 734C1823 734.552 1823.45 735 1824 735Z" fill="currentColor" fill-rule="nonzero" />
  </g>
</svg>

