<svg viewBox="0 0 32 32" xmlns="http://www.w3.org/2000/svg" fill="none">
  <g transform="translate(-1944.000122 -720)">
<path id="Vector 560" d="M1967 743L1966.87 743L1967.83 741.555C1967.94 741.391 1968 741.198 1968 741L1968 732C1968 722.115 1960.08 722 1960 722C1959.73 722 1959.48 722.105 1959.29 722.293C1959.11 722.48 1959 722.735 1959 723L1959 725L1958 725C1957.79 725 1957.59 725.066 1957.42 725.187L1950.42 730.187C1950.24 730.311 1950.12 730.488 1950.05 730.691C1949.98 730.895 1949.98 731.114 1950.05 731.317L1951.05 734.317C1951.13 734.539 1951.28 734.728 1951.47 734.851C1951.67 734.974 1951.91 735.023 1952.14 734.99L1957.01 734.294L1953.15 740.47C1953.05 740.633 1953 740.823 1953 741.015C1953 741.208 1953.06 741.395 1953.17 741.555L1954.13 743L1954 743C1953.2 743.001 1952.44 743.317 1951.88 743.88C1951.32 744.442 1951 745.205 1951 746L1951 750L1970 750L1970 746C1970 745.205 1969.68 744.442 1969.12 743.88C1968.56 743.317 1967.8 743.001 1967 743ZM1959.85 733.53C1959.95 733.368 1960 733.181 1960 732.991C1960 732.8 1959.94 732.614 1959.84 732.454C1959.73 732.294 1959.59 732.168 1959.41 732.089C1959.24 732.01 1959.05 731.983 1958.86 732.01L1952.68 732.892L1952.18 731.384L1958.32 727L1960 727C1960.26 727 1960.52 726.895 1960.71 726.707C1960.89 726.52 1961 726.266 1961 726.001L1961 724.129C1962.5 724.464 1965.22 725.67 1965.86 730L1963 730L1963 732L1966 732L1966 734L1963 734L1963 736L1966 736L1966 738L1963 738L1963 740L1966 740L1966 740.697L1964.47 743L1956.54 743L1955.19 740.982L1959.85 733.53ZM1968 748L1953 748L1953 746C1953 745.735 1953.11 745.48 1953.29 745.293C1953.48 745.105 1953.73 745 1954 745L1967 745C1967.27 745 1967.52 745.105 1967.71 745.293C1967.89 745.48 1968 745.735 1968 746L1968 748Z" fill="currentColor" fill-rule="nonzero" />
  </g>
</svg>

