<svg viewBox="0 0 32 32" xmlns="http://www.w3.org/2000/svg" fill="none">
  <g transform="translate(-72 -792)">
<path id="Vector 563" d="M100.414 800L95.414 795L94 796.414L97 799.414L97 804C97 804.53 97.2107 805.039 97.5858 805.414C97.9609 805.789 98.4696 806 99 806L99 816.5C99 816.898 98.842 817.279 98.5607 817.561C98.2794 817.842 97.8978 818 97.5 818C97.1022 818 96.7206 817.842 96.4393 817.561C96.158 817.279 96 816.898 96 816.5L96 808C96 807.735 95.8946 807.48 95.7071 807.293C95.5196 807.105 95.2652 807 95 807L91 807L91 797C91 796.735 90.8946 796.48 90.7071 796.293C90.5196 796.105 90.2652 796 90 796L77 796C76.7348 796 76.4804 796.105 76.2929 796.293C76.1054 796.48 76 796.735 76 797L76 818L74 818L74 820L93 820L93 818L91 818L91 809L94 809L94 816.4C93.9884 817.215 94.2565 818.01 94.7596 818.651C95.2628 819.292 95.9705 819.742 96.765 819.925C97.2755 820.034 97.8038 820.027 98.3114 819.905C98.8189 819.783 99.2929 819.55 99.6987 819.222C100.104 818.893 100.432 818.479 100.657 818.008C100.882 817.537 100.999 817.022 101 816.5L101 801.415C101 801.152 100.948 800.892 100.848 800.649C100.747 800.406 100.6 800.186 100.414 800ZM87 804L80 804L80 802L87 802L87 804Z" fill="currentColor" fill-rule="nonzero" />
  </g>
</svg>

