<svg viewBox="0 0 32 32" xmlns="http://www.w3.org/2000/svg" fill="none">
  <g transform="translate(-0 -792)">
<path id="Vector 561" d="M8 802L15 802L15 804L8 804L8 802Z" fill="currentColor" fill-rule="nonzero" />
		<path id="Vector 562" d="M28.414 800L23.414 795L22 796.414L25 799.414L25 804C25 804.53 25.2107 805.039 25.5858 805.414C25.9609 805.789 26.4696 806 27 806L27 816.5C27 816.898 26.842 817.279 26.5607 817.561C26.2794 817.842 25.8978 818 25.5 818C25.1022 818 24.7206 817.842 24.4393 817.561C24.158 817.279 24 816.898 24 816.5L24 808C24 807.735 23.8946 807.48 23.7071 807.293C23.5196 807.105 23.2652 807 23 807L19 807L19 797C19 796.735 18.8946 796.48 18.7071 796.293C18.5196 796.105 18.2652 796 18 796L5 796C4.73478 796 4.48043 796.105 4.29289 796.293C4.10536 796.48 4 796.735 4 797L4 818L2 818L2 820L21 820L21 818L19 818L19 809L22 809L22 816.4C21.9882 817.215 22.2562 818.01 22.7594 818.651C23.2626 819.293 23.9705 819.742 24.765 819.925C25.2755 820.034 25.8038 820.027 26.3114 819.905C26.8189 819.783 27.2929 819.55 27.6987 819.222C28.1045 818.893 28.4319 818.479 28.657 818.008C28.8822 817.537 28.9993 817.022 29 816.5L29 801.414C28.9999 800.884 28.7891 800.375 28.414 800ZM17 818L6 818L6 798L17 798L17 818Z" fill="currentColor" fill-rule="nonzero" />
  </g>
</svg>

