<svg viewBox="0 0 32 32" xmlns="http://www.w3.org/2000/svg" fill="none">
  <g transform="translate(-144 -792)">
<path id="Vector 564" d="M175 808C175 807.47 174.789 806.961 174.414 806.586L168.621 800.793L171.489 797.925C171.914 798.039 172.365 798.01 172.772 797.841C173.179 797.673 173.519 797.375 173.739 796.993C173.959 796.612 174.047 796.169 173.99 795.732C173.932 795.296 173.732 794.89 173.421 794.579C173.11 794.268 172.704 794.068 172.268 794.01C171.831 793.953 171.388 794.041 171.007 794.261C170.625 794.481 170.327 794.821 170.159 795.228C169.99 795.635 169.961 796.086 170.075 796.511L167.207 799.38L161.414 793.587C161.039 793.212 160.53 793.001 160 793.001C159.47 793.001 158.961 793.212 158.586 793.587L152.793 799.379L149.925 796.51C150.039 796.085 150.009 795.634 149.841 795.227C149.673 794.82 149.375 794.48 148.993 794.26C148.612 794.04 148.169 793.952 147.732 794.009C147.296 794.067 146.89 794.267 146.579 794.578C146.268 794.889 146.068 795.295 146.01 795.731C145.953 796.168 146.041 796.611 146.261 796.992C146.481 797.374 146.821 797.672 147.228 797.84C147.635 798.008 148.086 798.038 148.511 797.924L151.379 800.792L145.586 806.585C145.211 806.96 145 807.469 145 807.999C145 808.529 145.211 809.038 145.586 809.413L151.379 815.206L148.511 818.074C148.086 817.96 147.635 817.99 147.228 818.158C146.821 818.326 146.481 818.624 146.261 819.006C146.041 819.387 145.953 819.83 146.01 820.267C146.068 820.703 146.268 821.109 146.579 821.42C146.89 821.731 147.296 821.931 147.732 821.989C148.169 822.046 148.612 821.958 148.993 821.738C149.375 821.518 149.673 821.178 149.841 820.771C150.009 820.364 150.039 819.913 149.925 819.488L152.793 816.62L158.586 822.413C158.961 822.788 159.47 822.999 160 822.999C160.53 822.999 161.039 822.788 161.414 822.413L167.207 816.62L170.075 819.488C169.961 819.913 169.99 820.364 170.159 820.771C170.327 821.178 170.625 821.518 171.007 821.738C171.388 821.958 171.831 822.046 172.268 821.989C172.704 821.931 173.11 821.731 173.421 821.42C173.732 821.109 173.932 820.703 173.99 820.267C174.047 819.83 173.959 819.387 173.739 819.006C173.519 818.624 173.179 818.326 172.772 818.158C172.365 817.99 171.914 817.96 171.489 818.074L168.621 815.206L174.414 809.413C174.789 809.038 175 808.53 175 808ZM167.207 813.793L164.414 811L163 812.414L165.793 815.207L160 821L154.207 815.207L157 812.414L155.586 811L152.793 813.793L147 808L152.793 802.207L155.586 805L157 803.586L154.207 800.793L160 795L165.794 800.793L163 803.586L164.414 805L167.208 802.207L173 808L167.207 813.793Z" fill="currentColor" fill-rule="nonzero" />
  </g>
</svg>

