<svg viewBox="0 0 32 32" xmlns="http://www.w3.org/2000/svg" fill="none">
  <g transform="translate(-576 -792)">
<path id="Vector 575" d="M596 806.278L596 804C596 802.939 595.579 801.922 594.828 801.172C594.078 800.421 593.061 800 592 800C590.939 800 589.922 800.421 589.172 801.172C588.421 801.922 588 802.939 588 804L588 806.278C587.697 806.452 587.445 806.703 587.269 807.005C587.094 807.307 587.001 807.65 587 808L587 813C587 813.53 587.211 814.039 587.586 814.414C587.961 814.789 588.47 815 589 815L595 815C595.53 815 596.039 814.789 596.414 814.414C596.789 814.039 597 813.53 597 813L597 808C596.999 807.65 596.906 807.307 596.731 807.005C596.555 806.703 596.303 806.452 596 806.278ZM592 802C592.53 802 593.039 802.211 593.414 802.586C593.789 802.961 594 803.47 594 804L594 806L590 806L590 804C590 803.47 590.211 802.961 590.586 802.586C590.961 802.211 591.47 802 592 802ZM595 813L589 813L589 808L595 808L595 813Z" fill="currentColor" fill-rule="nonzero" />
		<path id="Vector 576" d="M606.414 809.414C606.789 809.039 607 808.53 607 808C607 807.47 606.789 806.961 606.414 806.586L600.627 800.799L603.527 797.937C603.955 798.044 604.406 798.006 604.81 797.83C605.214 797.654 605.549 797.349 605.762 796.964C605.976 796.578 606.056 796.133 605.99 795.697C605.925 795.261 605.717 794.859 605.4 794.553C605.083 794.247 604.673 794.054 604.235 794.005C603.797 793.956 603.355 794.052 602.977 794.28C602.6 794.507 602.308 794.853 602.147 795.263C601.986 795.674 601.965 796.126 602.087 796.549L599.213 799.385L593.414 793.585C593.039 793.21 592.53 793 592 793C591.47 793 590.961 793.21 590.586 793.585L584.799 799.374L581.937 796.472C582.043 796.044 582.005 795.593 581.828 795.189C581.652 794.786 581.347 794.451 580.961 794.238C580.575 794.025 580.13 793.945 579.694 794.011C579.258 794.077 578.856 794.285 578.551 794.603C578.245 794.921 578.053 795.33 578.004 795.768C577.955 796.206 578.052 796.648 578.28 797.026C578.508 797.403 578.854 797.695 579.264 797.855C579.675 798.016 580.127 798.037 580.55 797.914L583.385 800.787L577.585 806.586C577.21 806.961 576.999 807.47 576.999 808C576.999 808.53 577.21 809.039 577.585 809.414L583.385 815.213L580.55 818.086C580.128 817.964 579.677 817.985 579.267 818.146C578.858 818.307 578.513 818.598 578.286 818.974C578.059 819.351 577.962 819.792 578.011 820.229C578.06 820.666 578.252 821.074 578.557 821.391C578.862 821.708 579.263 821.915 579.697 821.981C580.132 822.047 580.576 821.968 580.961 821.756C581.347 821.544 581.651 821.21 581.827 820.807C582.004 820.405 582.042 819.955 581.937 819.528L584.799 816.628L590.586 822.414C590.961 822.789 591.47 823 592 823C592.53 823 593.039 822.789 593.414 822.414L599.214 816.615L602.086 819.451C601.964 819.874 601.985 820.324 602.146 820.734C602.307 821.143 602.598 821.488 602.974 821.715C603.351 821.942 603.792 822.039 604.229 821.99C604.666 821.941 605.074 821.749 605.391 821.444C605.708 821.139 605.915 820.738 605.981 820.304C606.047 819.869 605.968 819.425 605.756 819.04C605.544 818.655 605.21 818.35 604.807 818.174C604.405 817.997 603.955 817.959 603.528 818.064L600.628 815.201L606.414 809.414ZM592 821L579 808L592 795L605 808L592 821Z" fill="currentColor" fill-rule="nonzero" />
  </g>
</svg>

