<svg viewBox="0 0 32 32" xmlns="http://www.w3.org/2000/svg" fill="none">
  <g transform="translate(-216 -792)">
<path id="Vector 565" d="M233 810.184L233 805.816C233.667 805.58 234.23 805.116 234.588 804.505C234.946 803.895 235.077 803.178 234.957 802.48C234.837 801.783 234.475 801.15 233.934 800.694C233.393 800.238 232.708 799.988 232 799.988C231.292 799.988 230.607 800.238 230.066 800.694C229.525 801.15 229.163 801.783 229.043 802.48C228.924 803.178 229.054 803.895 229.412 804.505C229.771 805.116 230.333 805.58 231 805.816L231 810.185C230.333 810.421 229.771 810.885 229.412 811.495C229.054 812.106 228.924 812.823 229.043 813.521C229.163 814.218 229.525 814.851 230.066 815.307C230.607 815.763 231.292 816.013 232 816.013C232.708 816.013 233.393 815.763 233.934 815.307C234.475 814.851 234.837 814.218 234.957 813.521C235.077 812.823 234.946 812.106 234.588 811.495C234.23 810.885 233.667 810.42 233 810.184ZM232 802C232.198 802 232.391 802.059 232.556 802.169C232.72 802.278 232.848 802.435 232.924 802.617C233 802.8 233.019 803.001 232.981 803.195C232.942 803.389 232.847 803.567 232.707 803.707C232.567 803.847 232.389 803.942 232.195 803.981C232.001 804.019 231.8 804 231.617 803.924C231.435 803.848 231.278 803.72 231.169 803.555C231.059 803.391 231 803.198 231 803C231 802.735 231.105 802.48 231.293 802.293C231.48 802.105 231.735 802 232 802ZM232 814C231.802 814 231.609 813.941 231.444 813.831C231.28 813.722 231.152 813.565 231.076 813.383C231 813.2 230.981 812.999 231.019 812.805C231.058 812.611 231.153 812.433 231.293 812.293C231.433 812.153 231.611 812.058 231.805 812.019C231.999 811.981 232.2 812 232.383 812.076C232.565 812.152 232.722 812.28 232.831 812.444C232.941 812.609 233 812.802 233 813C233 813.265 232.895 813.519 232.707 813.707C232.52 813.895 232.265 814 232 814Z" fill="currentColor" fill-rule="nonzero" />
		<path id="Vector 566" d="M246.414 809.414C246.789 809.039 247 808.53 247 808C247 807.47 246.789 806.961 246.414 806.586L240.627 800.799L243.527 797.937C243.955 798.044 244.406 798.006 244.81 797.83C245.214 797.654 245.549 797.349 245.762 796.964C245.976 796.578 246.056 796.133 245.99 795.697C245.925 795.261 245.717 794.859 245.4 794.553C245.083 794.247 244.673 794.054 244.235 794.005C243.797 793.956 243.355 794.052 242.977 794.28C242.6 794.507 242.308 794.853 242.147 795.263C241.986 795.674 241.965 796.126 242.087 796.549L239.213 799.385L233.414 793.585C233.039 793.21 232.53 793 232 793C231.47 793 230.961 793.21 230.586 793.585L224.799 799.374L221.937 796.472C222.043 796.044 222.005 795.593 221.828 795.189C221.652 794.786 221.347 794.451 220.961 794.238C220.575 794.025 220.13 793.945 219.694 794.011C219.258 794.077 218.856 794.285 218.551 794.603C218.245 794.921 218.053 795.33 218.004 795.768C217.955 796.206 218.052 796.648 218.28 797.026C218.508 797.403 218.854 797.695 219.264 797.855C219.675 798.016 220.127 798.037 220.55 797.914L223.385 800.787L217.585 806.586C217.21 806.961 216.999 807.47 216.999 808C216.999 808.53 217.21 809.039 217.585 809.414L223.385 815.213L220.55 818.086C220.128 817.964 219.677 817.985 219.267 818.146C218.858 818.307 218.513 818.598 218.286 818.974C218.059 819.351 217.962 819.792 218.011 820.229C218.06 820.666 218.252 821.074 218.557 821.391C218.862 821.708 219.263 821.915 219.697 821.981C220.132 822.047 220.576 821.968 220.962 821.756C221.347 821.544 221.651 821.21 221.827 820.807C222.004 820.405 222.042 819.955 221.937 819.528L224.799 816.628L230.586 822.414C230.961 822.789 231.47 823 232 823C232.53 823 233.039 822.789 233.414 822.414L239.214 816.615L242.086 819.451C241.964 819.874 241.985 820.324 242.146 820.734C242.307 821.143 242.598 821.488 242.974 821.715C243.351 821.942 243.792 822.039 244.229 821.99C244.666 821.941 245.074 821.749 245.391 821.444C245.708 821.139 245.915 820.738 245.981 820.304C246.047 819.869 245.968 819.425 245.756 819.04C245.544 818.655 245.21 818.35 244.807 818.174C244.405 817.997 243.955 817.959 243.528 818.064L240.628 815.201L246.414 809.414ZM232 821L219 808L232 795L245 808L232 821Z" fill="currentColor" fill-rule="nonzero" />
  </g>
</svg>

