<svg viewBox="0 0 32 32" xmlns="http://www.w3.org/2000/svg" fill="none">
  <g transform="translate(-504 -792)">
<path id="Vector 573" d="M525 814L523 814L523 812C523 811.735 522.895 811.48 522.707 811.293C522.52 811.105 522.265 811 522 811L518 811C517.735 811 517.48 811.105 517.293 811.293C517.105 811.48 517 811.735 517 812L517 814L515 814L515 812C515.001 811.205 515.317 810.442 515.88 809.88C516.442 809.317 517.205 809.001 518 809L522 809C522.795 809.001 523.558 809.317 524.12 809.88C524.683 810.442 524.999 811.205 525 812L525 814ZM520 808C519.308 808 518.631 807.795 518.055 807.41C517.48 807.026 517.031 806.479 516.766 805.839C516.502 805.2 516.432 804.496 516.567 803.817C516.702 803.138 517.036 802.515 517.525 802.025C518.015 801.536 518.638 801.202 519.317 801.067C519.996 800.932 520.7 801.002 521.339 801.266C521.979 801.531 522.526 801.98 522.91 802.555C523.295 803.131 523.5 803.808 523.5 804.5C523.499 805.428 523.13 806.318 522.474 806.974C521.818 807.63 520.928 807.999 520 808ZM520 803C519.703 803 519.413 803.088 519.167 803.253C518.92 803.418 518.728 803.652 518.614 803.926C518.501 804.2 518.471 804.502 518.529 804.793C518.587 805.084 518.73 805.351 518.939 805.561C519.149 805.77 519.416 805.913 519.707 805.971C519.998 806.029 520.3 805.999 520.574 805.886C520.848 805.772 521.082 805.58 521.247 805.333C521.412 805.087 521.5 804.797 521.5 804.5C521.5 804.102 521.342 803.721 521.061 803.439C520.779 803.158 520.398 803 520 803Z" fill="currentColor" fill-rule="nonzero" />
		<path id="Vector 574" d="M534.414 809.414C534.789 809.039 535 808.53 535 808C535 807.47 534.789 806.961 534.414 806.586L528.627 800.799L531.527 797.937C531.955 798.044 532.406 798.006 532.81 797.83C533.214 797.654 533.549 797.349 533.762 796.964C533.976 796.578 534.056 796.133 533.99 795.697C533.925 795.261 533.717 794.859 533.4 794.553C533.083 794.247 532.673 794.054 532.235 794.005C531.797 793.956 531.355 794.052 530.977 794.28C530.6 794.507 530.308 794.853 530.147 795.263C529.986 795.674 529.965 796.126 530.087 796.549L527.213 799.385L521.414 793.585C521.039 793.21 520.53 793 520 793C519.47 793 518.961 793.21 518.586 793.585L512.799 799.374L509.937 796.472C510.043 796.044 510.005 795.593 509.828 795.189C509.652 794.786 509.347 794.451 508.961 794.238C508.575 794.025 508.13 793.945 507.694 794.011C507.258 794.077 506.856 794.285 506.551 794.603C506.245 794.921 506.053 795.33 506.004 795.768C505.955 796.206 506.052 796.648 506.28 797.026C506.508 797.403 506.854 797.695 507.264 797.855C507.675 798.016 508.127 798.037 508.55 797.914L511.385 800.787L505.585 806.586C505.21 806.961 504.999 807.47 504.999 808C504.999 808.53 505.21 809.039 505.585 809.414L511.385 815.213L508.55 818.086C508.127 817.964 507.677 817.985 507.267 818.146C506.858 818.307 506.513 818.598 506.286 818.974C506.059 819.351 505.962 819.792 506.011 820.229C506.06 820.666 506.252 821.074 506.557 821.391C506.862 821.708 507.263 821.915 507.697 821.981C508.132 822.047 508.576 821.968 508.961 821.756C509.346 821.544 509.651 821.21 509.827 820.807C510.004 820.405 510.042 819.955 509.937 819.528L512.799 816.628L518.586 822.414C518.961 822.789 519.47 823 520 823C520.53 823 521.039 822.789 521.414 822.414L527.214 816.615L530.086 819.451C529.964 819.874 529.985 820.324 530.146 820.734C530.307 821.143 530.598 821.488 530.974 821.715C531.351 821.942 531.792 822.039 532.229 821.99C532.666 821.941 533.074 821.749 533.391 821.444C533.708 821.139 533.915 820.738 533.981 820.304C534.047 819.869 533.968 819.425 533.756 819.04C533.544 818.655 533.21 818.35 532.807 818.174C532.405 817.997 531.955 817.959 531.528 818.064L528.628 815.201L534.414 809.414ZM520 821L507 808L520 795L533 808L520 821Z" fill="currentColor" fill-rule="nonzero" />
  </g>
</svg>

