<svg viewBox="0 0 32 32" xmlns="http://www.w3.org/2000/svg" fill="none">
  <g transform="translate(-360 -792)">
<path id="Vector 569" d="M379 806L374 806L374 804C374 803.47 374.211 802.961 374.586 802.586C374.961 802.211 375.47 802 376 802C376.53 802 377.039 802.211 377.414 802.586C377.789 802.961 378 803.47 378 804L380 804C380 802.939 379.579 801.922 378.828 801.172C378.078 800.421 377.061 800 376 800C374.939 800 373.922 800.421 373.172 801.172C372.421 801.922 372 802.939 372 804L372 806.278C371.697 806.452 371.445 806.703 371.269 807.005C371.094 807.307 371.001 807.65 371 808L371 813C371 813.53 371.211 814.039 371.586 814.414C371.961 814.789 372.47 815 373 815L379 815C379.53 815 380.039 814.789 380.414 814.414C380.789 814.039 381 813.53 381 813L381 808C381 807.47 380.789 806.961 380.414 806.586C380.039 806.211 379.53 806 379 806ZM379 813L373 813L373 808L379 808L379 813Z" fill="currentColor" fill-rule="nonzero" />
		<path id="Vector 570" d="M390.414 809.414C390.789 809.039 391 808.53 391 808C391 807.47 390.789 806.961 390.414 806.586L384.627 800.799L387.527 797.937C387.955 798.044 388.406 798.006 388.81 797.83C389.214 797.654 389.549 797.349 389.762 796.964C389.976 796.578 390.056 796.133 389.99 795.697C389.925 795.261 389.717 794.859 389.4 794.553C389.083 794.247 388.673 794.054 388.235 794.005C387.797 793.956 387.355 794.052 386.977 794.28C386.6 794.507 386.308 794.853 386.147 795.263C385.986 795.674 385.965 796.126 386.087 796.549L383.213 799.385L377.414 793.585C377.039 793.21 376.53 793 376 793C375.47 793 374.961 793.21 374.586 793.585L368.799 799.374L365.937 796.472C366.043 796.044 366.005 795.593 365.828 795.189C365.652 794.786 365.347 794.451 364.961 794.238C364.575 794.025 364.13 793.945 363.694 794.011C363.258 794.077 362.856 794.285 362.551 794.603C362.245 794.921 362.053 795.33 362.004 795.768C361.955 796.206 362.052 796.648 362.28 797.026C362.508 797.403 362.854 797.695 363.264 797.855C363.675 798.016 364.127 798.037 364.55 797.914L367.385 800.787L361.585 806.586C361.21 806.961 360.999 807.47 360.999 808C360.999 808.53 361.21 809.039 361.585 809.414L367.385 815.213L364.55 818.086C364.128 817.964 363.677 817.985 363.267 818.146C362.858 818.307 362.513 818.598 362.286 818.974C362.059 819.351 361.962 819.792 362.011 820.229C362.06 820.666 362.252 821.074 362.557 821.391C362.862 821.708 363.263 821.915 363.697 821.981C364.132 822.047 364.576 821.968 364.962 821.756C365.347 821.544 365.651 821.21 365.827 820.807C366.004 820.405 366.042 819.955 365.937 819.528L368.799 816.628L374.586 822.414C374.961 822.789 375.47 823 376 823C376.53 823 377.039 822.789 377.414 822.414L383.214 816.615L386.086 819.451C385.964 819.874 385.985 820.324 386.146 820.734C386.307 821.143 386.598 821.488 386.974 821.715C387.351 821.942 387.792 822.039 388.229 821.99C388.666 821.941 389.074 821.749 389.391 821.444C389.708 821.139 389.915 820.738 389.981 820.304C390.047 819.869 389.968 819.425 389.756 819.04C389.543 818.655 389.21 818.35 388.807 818.174C388.405 817.997 387.955 817.959 387.528 818.064L384.628 815.201L390.414 809.414ZM376 821L363 808L376 795L389 808L376 821Z" fill="currentColor" fill-rule="nonzero" />
  </g>
</svg>

