<svg viewBox="0 0 32 32" xmlns="http://www.w3.org/2000/svg" fill="none">
  <g transform="translate(-432 -792)">
<path id="Vector 571" d="M443 803L443 809.468C443.002 810.414 443.272 811.341 443.778 812.141C444.284 812.941 445.007 813.581 445.861 813.988L448 815L450.139 813.987C450.993 813.58 451.716 812.94 452.222 812.14C452.728 811.34 452.998 810.414 453 809.467L453 803L443 803ZM451 809.468C450.999 810.036 450.836 810.591 450.533 811.071C450.229 811.55 449.796 811.934 449.283 812.178L448 812.787L446.717 812.18C446.204 811.936 445.771 811.552 445.467 811.072C445.163 810.592 445.001 810.036 445 809.468L445 805L451 805L451 809.468Z" fill="currentColor" fill-rule="nonzero" />
		<path id="Vector 572" d="M462.414 809.414C462.789 809.039 463 808.53 463 808C463 807.47 462.789 806.961 462.414 806.586L456.627 800.799L459.527 797.937C459.955 798.044 460.406 798.006 460.81 797.83C461.214 797.654 461.549 797.349 461.762 796.964C461.976 796.578 462.056 796.133 461.99 795.697C461.925 795.261 461.717 794.859 461.4 794.553C461.083 794.247 460.673 794.054 460.235 794.005C459.797 793.956 459.355 794.052 458.977 794.28C458.6 794.507 458.308 794.853 458.147 795.263C457.986 795.674 457.965 796.126 458.087 796.549L455.213 799.385L449.414 793.585C449.039 793.21 448.53 793 448 793C447.47 793 446.961 793.21 446.586 793.585L440.799 799.374L437.937 796.472C438.043 796.044 438.005 795.593 437.828 795.189C437.652 794.786 437.347 794.451 436.961 794.238C436.575 794.025 436.13 793.945 435.694 794.011C435.258 794.077 434.856 794.285 434.551 794.603C434.245 794.921 434.053 795.33 434.004 795.768C433.955 796.206 434.052 796.648 434.28 797.026C434.508 797.403 434.854 797.695 435.264 797.855C435.675 798.016 436.127 798.037 436.55 797.914L439.385 800.787L433.585 806.586C433.21 806.961 432.999 807.47 432.999 808C432.999 808.53 433.21 809.039 433.585 809.414L439.385 815.213L436.55 818.086C436.128 817.964 435.677 817.985 435.267 818.146C434.858 818.307 434.513 818.598 434.286 818.974C434.059 819.351 433.962 819.792 434.011 820.229C434.06 820.666 434.252 821.074 434.557 821.391C434.862 821.708 435.263 821.915 435.697 821.981C436.132 822.047 436.576 821.968 436.962 821.756C437.347 821.544 437.651 821.21 437.827 820.807C438.004 820.405 438.042 819.955 437.937 819.528L440.799 816.628L446.586 822.414C446.961 822.789 447.47 823 448 823C448.53 823 449.039 822.789 449.414 822.414L455.214 816.615L458.086 819.451C457.964 819.874 457.985 820.324 458.146 820.734C458.307 821.143 458.598 821.488 458.974 821.715C459.351 821.942 459.792 822.039 460.229 821.99C460.666 821.941 461.074 821.749 461.391 821.444C461.708 821.139 461.915 820.738 461.981 820.304C462.047 819.869 461.968 819.425 461.756 819.04C461.543 818.655 461.21 818.35 460.807 818.174C460.405 817.997 459.955 817.959 459.528 818.064L456.628 815.201L462.414 809.414ZM448 821L435 808L448 795L461 808L448 821Z" fill="currentColor" fill-rule="nonzero" />
  </g>
</svg>

