<svg viewBox="0 0 32 32" xmlns="http://www.w3.org/2000/svg" fill="none">
  <g transform="translate(-288 -792)">
<path id="Vector 567" d="M307.878 804.122C307.822 804.066 307.751 804.028 307.673 804.01C307.596 803.993 307.516 803.998 307.441 804.025L298.274 807.358C298.195 807.387 298.126 807.439 298.077 807.508C298.028 807.577 298.001 807.659 298 807.743C297.999 807.828 298.023 807.911 298.07 807.981C298.116 808.051 298.184 808.106 298.262 808.137L302.262 809.737L303.862 813.737C303.893 813.814 303.947 813.881 304.016 813.928C304.085 813.975 304.167 814 304.25 814L304.257 814C304.341 813.998 304.423 813.971 304.492 813.922C304.56 813.873 304.613 813.805 304.642 813.726L307.975 804.559C308.002 804.484 308.007 804.404 307.99 804.327C307.972 804.249 307.934 804.178 307.878 804.122Z" fill="currentColor" fill-rule="nonzero" />
		<path id="Vector 568" d="M318.414 809.414C318.789 809.039 319 808.53 319 808C319 807.47 318.789 806.961 318.414 806.586L312.627 800.799L315.527 797.937C315.955 798.044 316.406 798.006 316.81 797.83C317.214 797.654 317.549 797.349 317.762 796.964C317.976 796.578 318.056 796.133 317.99 795.697C317.925 795.261 317.717 794.859 317.4 794.553C317.083 794.247 316.673 794.054 316.235 794.005C315.797 793.956 315.355 794.052 314.977 794.28C314.6 794.507 314.308 794.853 314.147 795.263C313.986 795.674 313.965 796.126 314.087 796.549L311.213 799.385L305.414 793.585C305.039 793.21 304.53 793 304 793C303.47 793 302.961 793.21 302.586 793.585L296.799 799.374L293.937 796.472C294.043 796.044 294.005 795.593 293.828 795.189C293.652 794.786 293.347 794.451 292.961 794.238C292.575 794.025 292.13 793.945 291.694 794.011C291.258 794.077 290.856 794.285 290.551 794.603C290.245 794.921 290.053 795.33 290.004 795.768C289.955 796.206 290.052 796.648 290.28 797.026C290.508 797.403 290.854 797.695 291.264 797.855C291.675 798.016 292.127 798.037 292.55 797.914L295.385 800.787L289.585 806.586C289.21 806.961 288.999 807.47 288.999 808C288.999 808.53 289.21 809.039 289.585 809.414L295.385 815.213L292.55 818.086C292.128 817.964 291.677 817.985 291.267 818.146C290.858 818.307 290.513 818.598 290.286 818.974C290.059 819.351 289.962 819.792 290.011 820.229C290.06 820.666 290.252 821.074 290.557 821.391C290.862 821.708 291.263 821.915 291.697 821.981C292.132 822.047 292.576 821.968 292.962 821.756C293.347 821.544 293.651 821.21 293.827 820.807C294.004 820.405 294.042 819.955 293.937 819.528L296.799 816.628L302.586 822.414C302.961 822.789 303.47 823 304 823C304.53 823 305.039 822.789 305.414 822.414L311.214 816.615L314.086 819.451C313.964 819.874 313.985 820.324 314.146 820.734C314.307 821.143 314.598 821.488 314.974 821.715C315.351 821.942 315.792 822.039 316.229 821.99C316.666 821.941 317.074 821.749 317.391 821.444C317.708 821.139 317.915 820.738 317.981 820.304C318.047 819.869 317.968 819.425 317.756 819.04C317.543 818.655 317.21 818.35 316.807 818.174C316.405 817.997 315.955 817.959 315.528 818.064L312.628 815.201L318.414 809.414ZM304 821L291 808L304 795L317 808L304 821Z" fill="currentColor" fill-rule="nonzero" />
  </g>
</svg>

