<svg viewBox="0 0 32 32" xmlns="http://www.w3.org/2000/svg" fill="none">
  <g transform="translate(-648 -792)">
<path id="Vector 577" d="M676 813.985C675.999 813.535 675.947 813.087 675.845 812.649L678 811.822L677.283 809.955L675.077 810.802C674.626 810.081 674.027 809.464 673.32 808.992L674.29 806.813L672.463 806L671.492 808.18C671.014 808.057 670.516 807.985 670 807.985C669.484 807.985 668.986 808.057 668.508 808.18L667.538 806L665.71 806.814L666.68 808.991C665.973 809.463 665.374 810.08 664.923 810.801L662.717 809.955L662 811.822L664.155 812.649C664.053 813.087 664.001 813.535 664 813.985C664 814.425 664.05 814.852 664.14 815.265L662 816.218L662.813 818.045L664.893 817.119C665.333 817.837 665.919 818.455 666.613 818.932L665.71 821.283L667.577 822L668.433 819.77C668.933 819.906 669.457 819.985 670 819.985C670.543 819.985 671.066 819.905 671.567 819.77L672.423 822L674.29 821.283L673.387 818.933C674.081 818.456 674.667 817.838 675.107 817.119L677.187 818.045L678 816.218L675.86 815.265C675.95 814.852 676 814.425 676 813.985ZM670 817.985C667.794 817.985 666 816.19 666 813.985C666 811.78 667.794 809.985 670 809.985C672.206 809.985 674 811.779 674 813.985C674 816.191 672.206 817.985 670 817.985ZM661.471 806.885L662.95 808.364L664.364 806.95L662.885 805.471C663.409 804.736 663.76 803.891 663.91 803.001L666 803.001L666 801L663.91 801C663.76 800.109 663.41 799.264 662.885 798.528L664.364 797.049L662.95 795.635L661.471 797.114C660.736 796.59 659.891 796.24 659 796.09L659 794L657 794L657 796.09C656.109 796.24 655.264 796.591 654.529 797.115L653.05 795.636L651.636 797.05L653.115 798.53C652.591 799.265 652.24 800.11 652.09 801L650 801L650 803L652.09 803C652.24 803.891 652.591 804.736 653.115 805.471L651.636 806.95L653.05 808.364L654.529 806.885C655.264 807.409 656.109 807.76 657 807.91L657 810L659 810L659 807.91C659.891 807.76 660.736 807.409 661.471 806.885ZM654 802C654 799.794 655.794 798 658 798C660.206 798 662 799.794 662 802C662 804.206 660.206 806 658 806C655.794 806 654 804.206 654 802Z" fill="currentColor" fill-rule="nonzero" />
  </g>
</svg>

