<svg viewBox="0 0 32 32" xmlns="http://www.w3.org/2000/svg" fill="none">
  <g transform="translate(-792 -792)">
<path id="Vector 579" d="M796 812L796 814L800.586 814L794 820.586L795.414 822L802 815.414L802 820L804 820L804 812L796 812Z" fill="currentColor" fill-rule="nonzero" />
		<path id="Vector 580" d="M815.5 796L800.5 796L793.716 805.045L798.01 810L799.521 808.69L797.19 806L802.445 806L808 814.887L813.554 806L818.81 806L807.813 818.692L809.324 820L822.284 805.045L815.5 796ZM797 804L801.5 798L806.196 798L802.446 804L797 804ZM808 798.887L811.196 804L804.804 804L808 798.887ZM808 811.113L804.804 806L811.196 806L808 811.113ZM813.554 804L809.804 798L814.5 798L819 804L813.554 804Z" fill="currentColor" fill-rule="nonzero" />
  </g>
</svg>

