<svg viewBox="0 0 32 32" xmlns="http://www.w3.org/2000/svg" fill="none">
  <g transform="translate(-720 -792)">
<path id="Vector 578" d="M743.5 796L728.5 796L721.716 805.045L736 821.527L750.284 805.045L743.5 796ZM747 804L741.554 804L737.804 798L742.5 798L747 804ZM730.302 806L734.056 816.23L725.19 806L730.302 806ZM732.432 806L739.568 806L735.999 815.721L732.432 806ZM732.805 804L736 798.887L739.196 804L732.805 804ZM741.698 806L746.81 806L737.943 816.231L741.698 806ZM729.5 798L734.196 798L730.446 804L725 804L729.5 798Z" fill="currentColor" fill-rule="nonzero" />
  </g>
</svg>

