<svg viewBox="0 0 32 32" xmlns="http://www.w3.org/2000/svg" fill="none">
  <g transform="translate(-864 -792)">
<path id="Vector 581" d="M885.5 823C886.328 823 887 822.328 887 821.5C887 820.672 886.328 820 885.5 820C884.672 820 884 820.672 884 821.5C884 822.328 884.672 823 885.5 823Z" fill="currentColor" fill-rule="nonzero" />
		<path id="Vector 582" d="M888.5 819C889.328 819 890 818.328 890 817.5C890 816.672 889.328 816 888.5 816C887.672 816 887 816.672 887 817.5C887 818.328 887.672 819 888.5 819Z" fill="currentColor" fill-rule="nonzero" />
		<path id="Vector 583" d="M871.5 819C872.328 819 873 818.328 873 817.5C873 816.672 872.328 816 871.5 816C870.672 816 870 816.672 870 817.5C870 818.328 870.672 819 871.5 819Z" fill="currentColor" fill-rule="nonzero" />
		<path id="Vector 584" d="M868.5 823C869.328 823 870 822.328 870 821.5C870 820.672 869.328 820 868.5 820C867.672 820 867 820.672 867 821.5C867 822.328 867.672 823 868.5 823Z" fill="currentColor" fill-rule="nonzero" />
		<path id="Vector 585" d="M874.499 823C875.327 823 875.999 822.328 875.999 821.5C875.999 820.672 875.327 820 874.499 820C873.671 820 872.999 820.672 872.999 821.5C872.999 822.328 873.671 823 874.499 823Z" fill="currentColor" fill-rule="nonzero" />
		<path id="Vector 586" d="M879.868 822.496L878.132 821.504L881.276 816L875.277 816L880.132 807.504L881.868 808.496L878.723 814L884.724 814L879.868 822.496Z" fill="currentColor" fill-rule="nonzero" />
		<path id="Vector 587" d="M887.5 814L887 814L887 812L887.5 812C888.66 811.997 889.774 811.546 890.61 810.741C891.445 809.936 891.938 808.84 891.984 807.68C892.03 806.521 891.626 805.389 890.857 804.52C890.087 803.651 889.012 803.114 887.856 803.019L887.041 802.955L886.942 802.143C886.733 800.449 885.912 798.89 884.634 797.759C883.355 796.628 881.707 796.004 880 796.004C878.294 796.004 876.646 796.628 875.367 797.759C874.089 798.89 873.268 800.449 873.059 802.143L872.959 802.955L872.144 803.019C870.988 803.114 869.913 803.651 869.143 804.52C868.374 805.389 867.97 806.521 868.016 807.68C868.062 808.84 868.555 809.936 869.39 810.741C870.226 811.546 871.34 811.997 872.5 812L873 812L873 814L872.5 814C870.889 814.002 869.334 813.405 868.139 812.325C866.943 811.245 866.191 809.759 866.029 808.156C865.867 806.553 866.307 804.947 867.262 803.65C868.218 802.353 869.621 801.457 871.2 801.136C871.626 799.118 872.733 797.307 874.335 796.008C875.937 794.709 877.937 794 880 794C882.063 794 884.063 794.709 885.665 796.008C887.267 797.307 888.374 799.118 888.8 801.136C890.379 801.457 891.782 802.353 892.738 803.65C893.693 804.947 894.133 806.553 893.971 808.156C893.809 809.759 893.057 811.245 891.861 812.325C890.666 813.405 889.111 814.002 887.5 814Z" fill="currentColor" fill-rule="nonzero" />
  </g>
</svg>

