<svg viewBox="0 0 32 32" xmlns="http://www.w3.org/2000/svg" fill="none">
  <g transform="translate(-936 -792)">
<path id="Vector 588" d="M963 809C962.997 811.743 961.97 814.386 960.12 816.411C958.27 818.436 955.731 819.698 953 819.95L953 806L959 806L959 804L953 804L953 801.858C953.943 801.615 954.764 801.036 955.311 800.23C955.857 799.424 956.091 798.447 955.968 797.481C955.845 796.515 955.375 795.627 954.644 794.984C953.914 794.34 952.974 793.985 952 793.985C951.026 793.985 950.086 794.34 949.356 794.984C948.625 795.627 948.155 796.515 948.032 797.481C947.909 798.447 948.143 799.424 948.689 800.23C949.236 801.036 950.057 801.615 951 801.858L951 804L945 804L945 806L951 806L951 819.95C948.269 819.698 945.73 818.436 943.88 816.411C942.03 814.386 941.003 811.743 941 809L939 809C939 812.448 940.37 815.754 942.808 818.192C945.246 820.63 948.552 822 952 822C955.448 822 958.754 820.63 961.192 818.192C963.63 815.754 965 812.448 965 809L963 809ZM950 798C950 797.605 950.117 797.218 950.337 796.889C950.557 796.56 950.869 796.304 951.235 796.152C951.6 796.001 952.002 795.961 952.39 796.039C952.778 796.116 953.135 796.306 953.414 796.586C953.694 796.866 953.884 797.222 953.962 797.61C954.039 797.998 953.999 798.4 953.848 798.765C953.696 799.131 953.44 799.443 953.111 799.663C952.782 799.883 952.396 800 952 800C951.47 800 950.961 799.789 950.586 799.414C950.211 799.039 950 798.531 950 798Z" fill="currentColor" fill-rule="nonzero" />
  </g>
</svg>

