<svg viewBox="0 0 32 32" xmlns="http://www.w3.org/2000/svg" fill="none">
  <g transform="translate(-1008 -792)">
<path id="Vector 589" d="M1029.5 801C1030.33 801 1031 800.328 1031 799.5C1031 798.672 1030.33 798 1029.5 798C1028.67 798 1028 798.672 1028 799.5C1028 800.328 1028.67 801 1029.5 801Z" fill="currentColor" fill-rule="nonzero" />
		<path id="Vector 590" d="M1022.41 812L1017 812L1017 806.586L1023.03 800.556C1023.01 800.371 1023 800.186 1023 800C1023 798.813 1023.35 797.653 1024.01 796.667C1024.67 795.68 1025.61 794.911 1026.7 794.457C1027.8 794.003 1029.01 793.884 1030.17 794.115C1031.33 794.347 1032.4 794.918 1033.24 795.757C1034.08 796.596 1034.65 797.666 1034.88 798.829C1035.12 799.993 1035 801.2 1034.54 802.296C1034.09 803.393 1033.32 804.33 1032.33 804.989C1031.35 805.648 1030.19 806 1029 806C1028.81 806 1028.63 805.99 1028.44 805.97L1022.41 812ZM1019 810L1021.59 810L1027.76 803.83L1028.27 803.925C1028.51 803.972 1028.76 803.997 1029 804C1029.84 804.01 1030.66 803.761 1031.34 803.287C1032.03 802.813 1032.56 802.138 1032.85 801.353C1033.14 800.568 1033.18 799.713 1032.96 798.905C1032.75 798.097 1032.29 797.376 1031.64 796.84C1031 796.304 1030.21 795.981 1029.37 795.913C1028.54 795.846 1027.71 796.039 1026.99 796.465C1026.27 796.891 1025.7 797.529 1025.35 798.292C1025.01 799.056 1024.91 799.906 1025.07 800.727L1025.17 801.244L1019 807.414L1019 810ZM1036 812L1027 812L1027 814L1036 814L1036 820L1012 820L1012 814L1014 814L1014 812L1012 812C1011.47 812 1010.96 812.211 1010.59 812.586C1010.21 812.961 1010 813.47 1010 814L1010 820C1010 820.53 1010.21 821.039 1010.59 821.414C1010.96 821.789 1011.47 822 1012 822L1036 822C1036.53 822 1037.04 821.789 1037.41 821.414C1037.79 821.039 1038 820.53 1038 820L1038 814C1038 813.47 1037.79 812.961 1037.41 812.586C1037.04 812.211 1036.53 812 1036 812Z" fill="currentColor" fill-rule="nonzero" />
		<path id="Vector 591" d="M1015 818C1015.55 818 1016 817.552 1016 817C1016 816.448 1015.55 816 1015 816C1014.45 816 1014 816.448 1014 817C1014 817.552 1014.45 818 1015 818Z" fill="currentColor" fill-rule="nonzero" />
  </g>
</svg>

