<svg viewBox="0 0 32 32" xmlns="http://www.w3.org/2000/svg" fill="none">
  <g transform="translate(-1080 -792)">
<path id="Vector 592" d="M1108 804L1108 802L1102 802L1102 796L1100 796L1100 802L1092 802L1092 796L1090 796L1090 802L1084 802L1084 804L1090 804L1090 812L1084 812L1084 814L1090 814L1090 820L1092 820L1092 814L1100 814L1100 820L1102 820L1102 814L1108 814L1108 812L1102 812L1102 804L1108 804ZM1100 812L1092 812L1092 804L1100 804L1100 812Z" fill="currentColor" fill-rule="nonzero" />
  </g>
</svg>

