<svg viewBox="0 0 32 32" xmlns="http://www.w3.org/2000/svg" fill="none">
  <g transform="translate(-1224 -792)">
<path id="Vector 595" d="M1253 814L1237 814C1236.73 814 1236.48 814.105 1236.29 814.293C1236.11 814.48 1236 814.735 1236 815C1236 815.265 1236.11 815.52 1236.29 815.707C1236.48 815.895 1236.73 816 1237 816L1246.68 816C1244.63 817.919 1241.93 818.99 1239.12 818.998C1238.98 818.998 1238.84 819.002 1238.7 818.998C1236.11 818.906 1233.64 817.909 1231.7 816.18C1229.77 814.452 1228.5 812.102 1228.12 809.537C1227.74 806.973 1228.27 804.356 1229.62 802.141C1230.97 799.927 1233.05 798.254 1235.5 797.414C1235 799.579 1234.99 801.828 1235.45 804L1237.5 804C1236.87 801.477 1237.01 798.826 1237.89 796.38C1237.95 796.229 1237.97 796.067 1237.95 795.906C1237.94 795.745 1237.88 795.591 1237.79 795.456C1237.7 795.321 1237.58 795.209 1237.44 795.13C1237.3 795.05 1237.14 795.006 1236.98 795C1236.92 795 1236.86 795.006 1236.81 795.016C1233.62 795.583 1230.76 797.307 1228.77 799.857C1226.78 802.406 1225.81 805.602 1226.04 808.827C1226.26 812.052 1227.67 815.08 1230 817.327C1232.32 819.574 1235.4 820.881 1238.63 820.997C1238.79 821.003 1238.96 820.997 1239.12 820.997C1241.1 820.996 1243.05 820.546 1244.83 819.68C1246.6 818.815 1248.16 817.556 1249.38 816L1253 816C1253.27 816 1253.52 815.895 1253.71 815.707C1253.89 815.52 1254 815.265 1254 815C1254 814.735 1253.89 814.48 1253.71 814.293C1253.52 814.105 1253.27 814 1253 814Z" fill="currentColor" fill-rule="nonzero" />
		<path id="Vector 596" d="M1251 812L1241 812C1240.73 812 1240.48 811.895 1240.29 811.707C1240.11 811.52 1240 811.265 1240 811C1240 810.735 1240.11 810.48 1240.29 810.293C1240.48 810.105 1240.73 810 1241 810L1251 810C1251.27 810 1251.52 810.105 1251.71 810.293C1251.89 810.48 1252 810.735 1252 811C1252 811.265 1251.89 811.52 1251.71 811.707C1251.52 811.895 1251.27 812 1251 812ZM1249 808L1237 808C1236.73 808 1236.48 807.895 1236.29 807.707C1236.11 807.52 1236 807.265 1236 807C1236 806.735 1236.11 806.48 1236.29 806.293C1236.48 806.105 1236.73 806 1237 806L1249 806C1249.27 806 1249.52 806.105 1249.71 806.293C1249.89 806.48 1250 806.735 1250 807C1250 807.265 1249.89 807.52 1249.71 807.707C1249.52 807.895 1249.27 808 1249 808Z" fill="currentColor" fill-rule="nonzero" />
  </g>
</svg>

