<svg viewBox="0 0 32 32" xmlns="http://www.w3.org/2000/svg" fill="none">
  <g transform="translate(-1152 -792)">
<path id="Vector 593" d="M1171 820L1155 820C1154.73 820 1154.48 819.895 1154.29 819.707C1154.11 819.52 1154 819.265 1154 819C1154 818.735 1154.11 818.48 1154.29 818.293C1154.48 818.105 1154.73 818 1155 818L1171 818C1171.27 818 1171.52 818.105 1171.71 818.293C1171.89 818.48 1172 818.735 1172 819C1172 819.265 1171.89 819.52 1171.71 819.707C1171.52 819.895 1171.27 820 1171 820ZM1167 812L1155 812C1154.73 812 1154.48 811.895 1154.29 811.707C1154.11 811.52 1154 811.265 1154 811C1154 810.735 1154.11 810.48 1154.29 810.293C1154.48 810.105 1154.73 810 1155 810L1167 810C1167.27 810 1167.52 810.105 1167.71 810.293C1167.89 810.48 1168 810.735 1168 811C1168 811.265 1167.89 811.52 1167.71 811.707C1167.52 811.895 1167.27 812 1167 812ZM1177.79 814.379L1180.62 817.207L1179.21 818.621L1176.38 815.793L1177.79 814.379ZM1180 807L1184 807L1184 809L1180 809L1180 807ZM1176.38 800.207L1179.21 797.379L1180.62 798.793L1177.79 801.621L1176.38 800.207ZM1169 794L1171 794L1171 798L1169 798L1169 794ZM1162.21 801.621L1159.38 798.793L1160.79 797.379L1163.62 800.207L1162.21 801.621Z" fill="currentColor" fill-rule="nonzero" />
		<path id="Vector 594" d="M1170 800C1167.88 800.003 1165.85 800.846 1164.35 802.346C1162.85 803.846 1162 805.879 1162 808L1164 808C1164 806.813 1164.35 805.653 1165.01 804.667C1165.67 803.68 1166.61 802.911 1167.7 802.457C1168.8 802.003 1170.01 801.884 1171.17 802.115C1172.33 802.347 1173.4 802.918 1174.24 803.757C1175.08 804.596 1175.65 805.666 1175.88 806.83C1176.12 807.993 1176 809.2 1175.54 810.296C1175.09 811.393 1174.32 812.33 1173.33 812.989C1172.35 813.648 1171.19 814 1170 814L1159 814C1158.73 814 1158.48 814.105 1158.29 814.293C1158.11 814.48 1158 814.735 1158 815C1158 815.265 1158.11 815.52 1158.29 815.707C1158.48 815.895 1158.73 816 1159 816L1170 816C1172.12 816 1174.16 815.157 1175.66 813.657C1177.16 812.157 1178 810.122 1178 808C1178 805.878 1177.16 803.843 1175.66 802.343C1174.16 800.843 1172.12 800 1170 800Z" fill="currentColor" fill-rule="nonzero" />
  </g>
</svg>

