<svg viewBox="0 0 32 32" xmlns="http://www.w3.org/2000/svg" fill="none">
  <g transform="translate(-1368.000122 -792)">
<path id="Vector 599" d="M1390 805L1388 805L1388 811L1390 811C1390.27 811 1390.52 810.895 1390.71 810.707C1390.89 810.52 1391 810.265 1391 810L1391 806C1391 805.735 1390.89 805.48 1390.71 805.293C1390.52 805.105 1390.27 805 1390 805Z" fill="currentColor" fill-rule="nonzero" />
		<path id="Vector 600" d="M1396 798L1372 798C1371.47 798 1370.96 798.211 1370.59 798.586C1370.21 798.961 1370 799.47 1370 800L1370 816C1370 816.53 1370.21 817.039 1370.59 817.414C1370.96 817.789 1371.47 818 1372 818L1396 818C1396.53 818 1397.04 817.789 1397.41 817.414C1397.79 817.039 1398 816.53 1398 816L1398 800C1398 799.47 1397.79 798.961 1397.41 798.586C1397.04 798.211 1396.53 798 1396 798ZM1383 813L1381 813L1381 809L1378 809L1378 813L1376 813L1376 803L1378 803L1378 807L1381 807L1381 803L1383 803L1383 813ZM1393 810C1393 810.796 1392.68 811.559 1392.12 812.121C1391.56 812.684 1390.8 813 1390 813L1386 813L1386 803L1390 803C1390.8 803 1391.56 803.316 1392.12 803.879C1392.68 804.441 1393 805.204 1393 806L1393 810Z" fill="currentColor" fill-rule="nonzero" />
  </g>
</svg>

