<svg viewBox="0 0 32 32" xmlns="http://www.w3.org/2000/svg" fill="none">
  <g transform="translate(-1296 -792)">
<path id="Vector 597" d="M1324 798L1300 798C1299.47 798 1298.96 798.211 1298.59 798.586C1298.21 798.961 1298 799.47 1298 800L1298 816C1298 816.53 1298.21 817.039 1298.59 817.414C1298.96 817.789 1299.47 818 1300 818L1324 818C1324.53 818 1325.04 817.789 1325.41 817.414C1325.79 817.039 1326 816.53 1326 816L1326 800C1326 799.47 1325.79 798.961 1325.41 798.586C1325.04 798.211 1324.53 798 1324 798ZM1300 816L1300 800L1324 800L1324 816L1300 816Z" fill="currentColor" fill-rule="nonzero" />
		<path id="Vector 598" d="M1318 803L1314 803L1314 813L1318 813C1318.8 813 1319.56 812.684 1320.12 812.121C1320.68 811.559 1321 810.796 1321 810L1321 806C1321 805.204 1320.68 804.441 1320.12 803.879C1319.56 803.316 1318.8 803 1318 803ZM1319 810C1319 810.265 1318.89 810.52 1318.71 810.707C1318.52 810.895 1318.27 811 1318 811L1316 811L1316 805L1318 805C1318.27 805 1318.52 805.105 1318.71 805.293C1318.89 805.48 1319 805.735 1319 806L1319 810ZM1309 803L1309 807L1306 807L1306 803L1304 803L1304 813L1306 813L1306 809L1309 809L1309 813L1311 813L1311 803L1309 803Z" fill="currentColor" fill-rule="nonzero" />
  </g>
</svg>

