<svg viewBox="0 0 32 32" xmlns="http://www.w3.org/2000/svg" fill="none">
  <g transform="translate(-1440.000122 -792)">
<path id="Vector 601" d="M1470 807L1470 803C1470 802.47 1469.79 801.961 1469.41 801.586C1469.04 801.211 1468.53 801 1468 801L1462 801L1462 815L1464 815L1464 809L1465.48 809L1467.82 815L1470 815L1467.67 809L1468 809C1468.53 809 1469.04 808.789 1469.41 808.414C1469.79 808.039 1470 807.53 1470 807ZM1464 803L1468 803L1468 807L1464 807L1464 803ZM1456 815L1452 815L1452 801L1456 801C1457.06 801 1458.08 801.421 1458.83 802.172C1459.58 802.922 1460 803.939 1460 805L1460 811C1460 812.061 1459.58 813.078 1458.83 813.828C1458.08 814.579 1457.06 815 1456 815ZM1454 813L1456 813C1456.53 813 1457.04 812.789 1457.41 812.414C1457.79 812.039 1458 811.53 1458 811L1458 805C1458 804.47 1457.79 803.961 1457.41 803.586C1457.04 803.211 1456.53 803 1456 803L1454 803L1454 813ZM1448 801L1448 807L1444 807L1444 801L1442 801L1442 815L1444 815L1444 809L1448 809L1448 815L1450 815L1450 801L1448 801Z" fill="currentColor" fill-rule="nonzero" />
  </g>
</svg>

