<svg viewBox="0 0 32 32" xmlns="http://www.w3.org/2000/svg" fill="none">
  <g transform="translate(-1656.000122 -792)">
<path id="Vector 604" d="M1681 802L1680.94 802C1680.69 799.807 1679.63 797.785 1677.99 796.317C1676.34 794.849 1674.21 794.038 1672 794.038C1669.79 794.038 1667.66 794.849 1666.01 796.317C1664.37 797.785 1663.31 799.807 1663.06 802L1663 802C1661.67 802 1660.4 802.527 1659.46 803.465C1658.53 804.402 1658 805.674 1658 807C1658 808.326 1658.53 809.598 1659.46 810.536C1660.4 811.473 1661.67 812 1663 812L1665 812L1665 803C1665 801.144 1665.74 799.363 1667.05 798.05C1668.36 796.738 1670.14 796 1672 796C1673.86 796 1675.64 796.738 1676.95 798.05C1678.26 799.363 1679 801.144 1679 803L1679 813C1679 813.916 1678.68 814.805 1678.11 815.516C1677.53 816.228 1676.73 816.72 1675.83 816.91C1675.56 815.974 1674.96 815.167 1674.14 814.641C1673.33 814.115 1672.34 813.906 1671.38 814.053C1670.42 814.199 1669.54 814.692 1668.92 815.439C1668.29 816.185 1667.96 817.134 1667.98 818.107C1668.01 819.08 1668.39 820.011 1669.05 820.725C1669.71 821.439 1670.61 821.888 1671.58 821.986C1672.55 822.085 1673.52 821.827 1674.31 821.26C1675.1 820.694 1675.66 819.859 1675.88 818.91C1677.3 818.7 1678.6 817.988 1679.54 816.904C1680.47 815.819 1680.99 814.435 1681 813L1681 812C1682.33 812 1683.6 811.473 1684.54 810.536C1685.47 809.598 1686 808.326 1686 807C1686 805.674 1685.47 804.402 1684.54 803.465C1683.6 802.527 1682.33 802 1681 802ZM1660 807C1660 806.204 1660.32 805.441 1660.88 804.879C1661.44 804.316 1662.2 804 1663 804L1663 810C1662.2 810 1661.44 809.684 1660.88 809.121C1660.32 808.559 1660 807.796 1660 807ZM1672 820C1671.6 820 1671.22 819.883 1670.89 819.663C1670.56 819.443 1670.3 819.131 1670.15 818.765C1670 818.4 1669.96 817.998 1670.04 817.61C1670.12 817.222 1670.31 816.866 1670.59 816.586C1670.87 816.306 1671.22 816.116 1671.61 816.039C1672 815.961 1672.4 816.001 1672.77 816.152C1673.13 816.304 1673.44 816.56 1673.66 816.889C1673.88 817.218 1674 817.604 1674 818C1674 818.531 1673.79 819.039 1673.41 819.414C1673.04 819.789 1672.53 820 1672 820ZM1681 810L1681 804C1681.8 804 1682.56 804.316 1683.12 804.879C1683.68 805.441 1684 806.204 1684 807C1684 807.796 1683.68 808.559 1683.12 809.121C1682.56 809.684 1681.8 810 1681 810Z" fill="currentColor" fill-rule="nonzero" />
  </g>
</svg>

