<svg viewBox="0 0 32 32" xmlns="http://www.w3.org/2000/svg" fill="none">
  <g transform="translate(-1584.000122 -792)">
<path id="Vector 603" d="M1609 808L1609 807C1609 804.613 1608.05 802.324 1606.36 800.636C1604.68 798.948 1602.39 798 1600 798C1597.61 798 1595.32 798.948 1593.64 800.636C1591.95 802.324 1591 804.613 1591 807L1591 808C1589.67 808 1588.4 808.527 1587.46 809.464C1586.53 810.402 1586 811.674 1586 813C1586 814.326 1586.53 815.598 1587.46 816.536C1588.4 817.473 1589.67 818 1591 818L1593 818L1593 807C1593 805.143 1593.74 803.363 1595.05 802.05C1596.36 800.737 1598.14 800 1600 800C1601.86 800 1603.64 800.737 1604.95 802.05C1606.26 803.363 1607 805.143 1607 807L1607 818L1609 818C1610.33 818 1611.6 817.473 1612.54 816.536C1613.47 815.598 1614 814.326 1614 813C1614 811.674 1613.47 810.402 1612.54 809.464C1611.6 808.527 1610.33 808 1609 808ZM1588 813C1588 812.204 1588.32 811.441 1588.88 810.879C1589.44 810.316 1590.2 810 1591 810L1591 816C1590.2 816 1589.44 815.684 1588.88 815.121C1588.32 814.559 1588 813.796 1588 813ZM1609 816L1609 810C1609.8 810 1610.56 810.316 1611.12 810.879C1611.68 811.441 1612 812.204 1612 813C1612 813.796 1611.68 814.559 1611.12 815.121C1610.56 815.684 1609.8 816 1609 816Z" fill="currentColor" fill-rule="nonzero" />
  </g>
</svg>

