<svg viewBox="0 0 32 32" xmlns="http://www.w3.org/2000/svg" fill="none">
  <g transform="translate(-1728.000122 -792)">
<path id="Vector 605" d="M1747 820L1741 820C1740.47 820 1739.96 819.789 1739.59 819.414C1739.21 819.039 1739 818.53 1739 818L1739 813L1734 813C1733.47 813 1732.96 812.789 1732.59 812.414C1732.21 812.039 1732 811.53 1732 811L1732 805C1732 804.47 1732.21 803.961 1732.59 803.586C1732.96 803.211 1733.47 803 1734 803L1739 803L1739 798C1739 797.47 1739.21 796.961 1739.59 796.586C1739.96 796.211 1740.47 796 1741 796L1747 796C1747.53 796 1748.04 796.211 1748.41 796.586C1748.79 796.961 1749 797.47 1749 798L1749 803L1754 803C1754.53 803 1755.04 803.211 1755.41 803.586C1755.79 803.961 1756 804.47 1756 805L1756 811C1756 811.53 1755.79 812.038 1755.41 812.413C1755.04 812.788 1754.53 812.999 1754 813L1749 813L1749 818C1749 818.53 1748.79 819.038 1748.41 819.413C1748.04 819.788 1747.53 819.999 1747 820ZM1734 805L1734 811L1741 811L1741 818L1747 818L1747 811L1754 811L1754 805L1747 805L1747 798L1741 798L1741 805L1734 805Z" fill="currentColor" fill-rule="nonzero" />
  </g>
</svg>

