<svg viewBox="0 0 32 32" xmlns="http://www.w3.org/2000/svg" fill="none">
  <g transform="translate(-1800.000122 -792)">
<path id="Vector 606" d="M1818 822L1818 820C1820.65 819.997 1823.19 818.943 1825.07 817.068C1826.94 815.193 1828 812.651 1828 810L1830 810C1830 813.182 1828.73 816.232 1826.48 818.482C1824.23 820.731 1821.18 821.997 1818 822Z" fill="currentColor" fill-rule="nonzero" />
		<path id="Vector 607" d="M1818 818L1818 816C1819.59 815.998 1821.12 815.365 1822.24 814.241C1823.37 813.116 1824 811.591 1824 810L1826 810C1826 812.121 1825.15 814.154 1823.65 815.654C1822.15 817.154 1820.12 817.997 1818 818Z" fill="currentColor" fill-rule="nonzero" />
		<path id="Vector 608" d="M1818 814L1818 812C1818.53 812 1819.04 811.789 1819.41 811.414C1819.79 811.039 1820 810.53 1820 810L1822 810C1822 811.06 1821.58 812.077 1820.83 812.827C1820.08 813.577 1819.06 813.999 1818 814ZM1810 794C1807.61 794.003 1805.33 794.952 1803.64 796.639C1801.95 798.326 1801 800.614 1801 803L1803 803C1803 801.143 1803.74 799.363 1805.05 798.05C1806.36 796.737 1808.14 796 1810 796C1811.86 796 1813.64 796.737 1814.95 798.05C1816.26 799.363 1817 801.143 1817 803C1817 804.239 1816.68 805.458 1816.07 806.534C1815.45 807.611 1814.57 808.508 1813.5 809.135L1813 809.423L1813 812.496C1813 812.897 1812.93 813.295 1812.77 813.665C1812.62 814.035 1812.39 814.37 1812.1 814.648C1811.52 815.269 1810.77 815.7 1809.94 815.884C1809.12 816.068 1808.25 815.996 1807.47 815.678C1806.75 815.367 1806.13 814.854 1805.69 814.202C1805.26 813.55 1805.01 812.785 1805 812L1803 812C1803.02 813.174 1803.37 814.318 1804.03 815.295C1804.68 816.273 1805.59 817.042 1806.67 817.512C1807.4 817.831 1808.19 817.997 1808.98 817.998C1810.66 817.961 1812.26 817.286 1813.46 816.11C1813.95 815.645 1814.34 815.084 1814.61 814.462C1814.87 813.841 1815 813.172 1815 812.496L1815 810.554C1816.23 809.718 1817.24 808.592 1817.94 807.275C1818.64 805.958 1819 804.49 1819 803C1819 800.614 1818.05 798.326 1816.36 796.639C1814.67 794.952 1812.39 794.003 1810 794Z" fill="currentColor" fill-rule="nonzero" />
		<path id="Vector 609" d="M1809.28 800.083C1809.72 799.975 1810.18 799.969 1810.63 800.065C1811.07 800.161 1811.49 800.357 1811.85 800.638C1812.21 800.919 1812.5 801.277 1812.7 801.686C1812.9 802.096 1813 802.545 1813 803L1815 803C1815 802.248 1814.83 801.506 1814.51 800.828C1814.18 800.151 1813.71 799.557 1813.12 799.089C1812.52 798.617 1811.83 798.286 1811.09 798.12C1810.34 797.955 1809.57 797.959 1808.84 798.132C1807.93 798.341 1807.11 798.799 1806.45 799.454C1805.8 800.108 1805.34 800.933 1805.13 801.835C1804.89 802.872 1804.98 803.958 1805.4 804.939C1805.81 805.92 1806.52 806.744 1807.44 807.293C1807.9 807.557 1808.29 807.939 1808.57 808.401C1808.84 808.862 1808.99 809.387 1809 809.924L1809 812L1811 812L1811 809.923C1810.99 809.04 1810.76 808.175 1810.31 807.412C1809.87 806.65 1809.23 806.017 1808.46 805.577C1807.95 805.273 1807.54 804.823 1807.29 804.285C1807.03 803.747 1806.94 803.145 1807.03 802.556C1807.12 801.967 1807.38 801.418 1807.78 800.977C1808.18 800.537 1808.7 800.226 1809.28 800.083Z" fill="currentColor" fill-rule="nonzero" />
  </g>
</svg>

