<svg viewBox="0 0 32 32" xmlns="http://www.w3.org/2000/svg" fill="none">
  <g transform="translate(-72 -864)">
<path id="Vector 616" d="M99 867L77 867C76.4696 867 75.9609 867.211 75.5858 867.586C75.2107 867.961 75 868.47 75 869L75 891C75 891.53 75.2107 892.039 75.5858 892.414C75.9609 892.789 76.4696 893 77 893L99 893C99.5304 893 100.039 892.789 100.414 892.414C100.789 892.039 101 891.53 101 891L101 869C101 868.47 100.789 867.961 100.414 867.586C100.039 867.211 99.5304 867 99 867ZM81 885L77 885L77 881L81 881L81 885ZM83 887L87 887L87 891L83 891L83 887ZM89 887L93 887L93 891L89 891L89 887ZM89 879L89 875L93 875L93 879L89 879ZM93 873L89 873L89 869L93 869L93 873ZM95 875L99 875L99 879L95 879L95 875ZM87 869L87 879L77 879L77 869L87 869ZM95 891L95 881L99 881L99 891L95 891Z" fill="currentColor" fill-rule="nonzero" />
  </g>
</svg>

