<svg viewBox="0 0 32 32" xmlns="http://www.w3.org/2000/svg" fill="none">
  <g transform="translate(-0 -864)">
<path id="Vector 615" d="M27 867L5 867C4.46957 867 3.96086 867.211 3.58579 867.586C3.21071 867.961 3 868.47 3 869L3 891C3 891.53 3.21071 892.039 3.58579 892.414C3.96086 892.789 4.46957 893 5 893L27 893C27.5304 893 28.0391 892.789 28.4142 892.414C28.7893 892.039 29 891.53 29 891L29 869C29 868.47 28.7893 867.961 28.4142 867.586C28.0391 867.211 27.5304 867 27 867ZM19 873L13 873L13 869L19 869L19 873ZM19 875L19 879L13 879L13 875L19 875ZM11 875L11 879L5 879L5 875L11 875ZM11 881L11 885L5 885L5 881L11 881ZM13 881L19 881L19 885L13 885L13 881ZM21 879L21 875L27 875L27 879L21 879ZM5 887L11 887L11 891L5 891L5 887ZM21 891L21 887L27 887L27 891L21 891Z" fill="currentColor" fill-rule="nonzero" />
  </g>
</svg>

