<svg viewBox="0 0 32 32" xmlns="http://www.w3.org/2000/svg" fill="none">
  <g transform="translate(-1944.000122 -792)">
<path id="Vector 611" d="M1965 814C1966.1 814 1967 813.105 1967 812C1967 810.895 1966.1 810 1965 810C1963.9 810 1963 810.895 1963 812C1963 813.105 1963.9 814 1965 814Z" fill="currentColor" fill-rule="nonzero" />
		<path id="Vector 612" d="M1958 806C1959.1 806 1960 805.105 1960 804C1960 802.895 1959.1 802 1958 802C1956.9 802 1956 802.895 1956 804C1956 805.105 1956.9 806 1958 806Z" fill="currentColor" fill-rule="nonzero" />
		<path id="Vector 613" d="M1973 812C1973.55 812 1974 811.552 1974 811C1974 810.448 1973.55 810 1973 810C1972.45 810 1972 810.448 1972 811C1972 811.552 1972.45 812 1973 812Z" fill="currentColor" fill-rule="nonzero" />
		<path id="Vector 614" d="M1970.5 822C1969.81 822 1969.13 821.795 1968.56 821.41C1967.98 821.026 1967.53 820.479 1967.27 819.839C1967 819.2 1966.93 818.496 1967.07 817.817C1967.2 817.138 1967.54 816.515 1968.03 816.025C1968.51 815.536 1969.14 815.202 1969.82 815.067C1970.5 814.932 1971.2 815.002 1971.84 815.266C1972.48 815.531 1973.03 815.98 1973.41 816.555C1973.79 817.131 1974 817.808 1974 818.5C1974 819.428 1973.63 820.318 1972.97 820.974C1972.32 821.63 1971.43 821.999 1970.5 822ZM1970.5 817C1970.2 817 1969.91 817.088 1969.67 817.253C1969.42 817.418 1969.23 817.652 1969.11 817.926C1969 818.2 1968.97 818.502 1969.03 818.793C1969.09 819.084 1969.23 819.351 1969.44 819.561C1969.65 819.771 1969.92 819.913 1970.21 819.971C1970.5 820.029 1970.8 819.999 1971.07 819.886C1971.35 819.772 1971.58 819.58 1971.75 819.333C1971.91 819.087 1972 818.797 1972 818.5C1972 818.102 1971.84 817.721 1971.56 817.439C1971.28 817.158 1970.9 817 1970.5 817ZM1958 822C1957.25 821.999 1956.51 821.784 1955.87 821.379C1954.51 821.991 1953 822.153 1951.54 821.841C1950.08 821.529 1948.76 820.76 1947.77 819.646C1946.78 818.531 1946.17 817.129 1946.03 815.645C1945.9 814.16 1946.24 812.671 1947 811.393C1947.77 810.115 1948.93 809.116 1950.3 808.541C1951.68 807.966 1953.2 807.846 1954.65 808.197C1956.1 808.549 1957.4 809.353 1958.36 810.495C1959.32 811.636 1959.89 813.053 1959.98 814.541C1960.75 814.978 1961.35 815.655 1961.69 816.468C1962.03 817.281 1962.09 818.183 1961.86 819.034C1961.64 819.885 1961.14 820.638 1960.44 821.174C1959.74 821.711 1958.88 822.001 1958 822ZM1956.12 818.972L1956.66 819.467C1956.87 819.669 1957.13 819.82 1957.42 819.908C1957.7 819.997 1958 820.021 1958.29 819.98C1958.58 819.938 1958.87 819.831 1959.11 819.667C1959.36 819.503 1959.57 819.286 1959.72 819.032C1959.87 818.777 1959.97 818.492 1959.99 818.197C1960.02 817.902 1959.98 817.604 1959.88 817.325C1959.78 817.047 1959.62 816.794 1959.41 816.586C1959.19 816.378 1958.94 816.221 1958.66 816.124L1957.97 815.881L1958 815.034C1958.01 813.93 1957.65 812.854 1956.99 811.973C1956.32 811.092 1955.38 810.455 1954.32 810.162C1953.26 809.869 1952.13 809.935 1951.1 810.351C1950.08 810.766 1949.22 811.508 1948.67 812.461C1948.11 813.414 1947.88 814.524 1948.02 815.62C1948.16 816.715 1948.65 817.733 1949.43 818.517C1950.21 819.301 1951.22 819.807 1952.32 819.955C1953.41 820.103 1954.52 819.885 1955.48 819.336L1956.12 818.972ZM1968 808C1966.41 807.998 1964.88 807.365 1963.76 806.241C1962.63 805.116 1962 803.591 1962 802C1962 801.822 1962.01 801.644 1962.03 801.467C1961.41 801.122 1960.9 800.619 1960.54 800.01C1960.19 799.4 1960 798.706 1960 798C1960 796.94 1960.42 795.923 1961.17 795.173C1961.92 794.423 1962.94 794.001 1964 794C1964.71 793.998 1965.4 794.185 1966.01 794.541C1966.62 794.898 1967.12 795.411 1967.47 796.027C1967.65 796.009 1967.83 796 1968 796C1969.59 796 1971.12 796.632 1972.24 797.757C1973.37 798.883 1974 800.409 1974 802C1974 803.591 1973.37 805.117 1972.24 806.243C1971.12 807.368 1969.59 808 1968 808ZM1964 796C1963.47 796 1962.96 796.211 1962.59 796.586C1962.21 796.961 1962 797.47 1962 798C1962 798.429 1962.14 798.847 1962.4 799.19C1962.66 799.533 1963.02 799.783 1963.43 799.902L1964.33 800.172L1964.12 801.089C1963.93 801.897 1964 802.743 1964.31 803.51C1964.63 804.277 1965.17 804.927 1965.87 805.37C1966.57 805.813 1967.4 806.027 1968.22 805.982C1969.05 805.937 1969.84 805.636 1970.49 805.12C1971.14 804.603 1971.61 803.898 1971.84 803.101C1972.07 802.305 1972.05 801.456 1971.78 800.674C1971.5 799.891 1970.99 799.213 1970.32 798.734C1969.64 798.255 1968.83 797.999 1968 798C1967.69 798.003 1967.39 798.042 1967.09 798.116L1966.17 798.33L1965.9 797.43C1965.78 797.018 1965.53 796.655 1965.19 796.397C1964.85 796.14 1964.43 796 1964 796ZM1950.5 803C1949.61 803 1948.74 802.736 1948 802.242C1947.26 801.747 1946.68 801.044 1946.34 800.222C1946 799.4 1945.91 798.495 1946.09 797.622C1946.26 796.749 1946.69 795.947 1947.32 795.318C1947.95 794.689 1948.75 794.26 1949.62 794.086C1950.5 793.913 1951.4 794.002 1952.22 794.343C1953.04 794.683 1953.75 795.26 1954.24 796C1954.74 796.74 1955 797.61 1955 798.5C1955 799.693 1954.52 800.837 1953.68 801.681C1952.84 802.524 1951.69 802.999 1950.5 803ZM1950.5 796C1950.01 796 1949.52 796.147 1949.11 796.421C1948.7 796.696 1948.38 797.086 1948.19 797.543C1948 798 1947.95 798.503 1948.05 798.988C1948.14 799.473 1948.38 799.918 1948.73 800.268C1949.08 800.617 1949.53 800.856 1950.01 800.952C1950.5 801.048 1951 800.999 1951.46 800.81C1951.91 800.62 1952.3 800.3 1952.58 799.889C1952.85 799.478 1953 798.994 1953 798.5C1953 797.837 1952.74 797.202 1952.27 796.733C1951.8 796.264 1951.16 796.001 1950.5 796Z" fill="currentColor" fill-rule="nonzero" />
  </g>
</svg>

