<svg viewBox="0 0 32 32" xmlns="http://www.w3.org/2000/svg" fill="none">
  <g transform="translate(-1872.000122 -792)">
<path id="Vector 610" d="M1892 810L1894 810L1894 812L1892 812L1892 810ZM1900 808L1902 808L1902 810L1900 810L1900 808ZM1886 798L1888 798L1888 800L1886 800L1886 798ZM1888 814L1884 814L1884 808C1884 807.47 1883.79 806.961 1883.41 806.586C1883.04 806.211 1882.53 806 1882 806L1876 806C1875.47 806 1874.96 806.211 1874.59 806.586C1874.21 806.961 1874 807.47 1874 808L1874 814C1874 814.53 1874.21 815.039 1874.59 815.414C1874.96 815.789 1875.47 816 1876 816L1882 816L1882 820C1882 820.53 1882.21 821.039 1882.59 821.414C1882.96 821.789 1883.47 822 1884 822L1888 822C1888.53 822 1889.04 821.789 1889.41 821.414C1889.79 821.039 1890 820.53 1890 820L1890 816C1890 815.47 1889.79 814.961 1889.41 814.586C1889.04 814.211 1888.53 814 1888 814ZM1876 814L1876 808L1882 808L1882 814L1876 814ZM1884 820L1884 816L1888 816L1888 820L1884 820ZM1900 822L1896 822C1895.47 822 1894.96 821.789 1894.59 821.414C1894.21 821.039 1894 820.53 1894 820L1894 816C1894 815.47 1894.21 814.961 1894.59 814.586C1894.96 814.211 1895.47 814 1896 814L1900 814C1900.53 814 1901.04 814.211 1901.41 814.586C1901.79 814.961 1902 815.47 1902 816L1902 820C1902 820.53 1901.79 821.039 1901.41 821.414C1901.04 821.789 1900.53 822 1900 822ZM1896 816L1896 820L1900 820L1900 816L1896 816ZM1900 794L1894 794C1893.47 794 1892.96 794.211 1892.59 794.586C1892.21 794.961 1892 795.47 1892 796L1892 802L1890 802C1889.47 802 1888.96 802.211 1888.59 802.586C1888.21 802.961 1888 803.47 1888 804L1888 806C1888 806.53 1888.21 807.039 1888.59 807.414C1888.96 807.789 1889.47 808 1890 808L1892 808C1892.53 808 1893.04 807.789 1893.41 807.414C1893.79 807.039 1894 806.53 1894 806L1894 804L1900 804C1900.53 804 1901.04 803.789 1901.41 803.414C1901.79 803.039 1902 802.53 1902 802L1902 796C1902 795.47 1901.79 794.961 1901.41 794.586C1901.04 794.211 1900.53 794 1900 794ZM1890 806L1890 804L1892 804L1892 806L1890 806ZM1894 802L1894 796L1900 796L1900 802L1894 802ZM1880 802L1876 802C1875.47 802 1874.96 801.789 1874.59 801.414C1874.21 801.039 1874 800.53 1874 800L1874 796C1874 795.47 1874.21 794.961 1874.59 794.586C1874.96 794.211 1875.47 794 1876 794L1880 794C1880.53 794 1881.04 794.211 1881.41 794.586C1881.79 794.961 1882 795.47 1882 796L1882 800C1882 800.53 1881.79 801.039 1881.41 801.414C1881.04 801.789 1880.53 802 1880 802ZM1876 796L1876 800L1880 800L1880 796L1876 796Z" fill="currentColor" fill-rule="nonzero" />
  </g>
</svg>

