<svg viewBox="0 0 32 32" xmlns="http://www.w3.org/2000/svg" fill="none">
  <g transform="translate(-144 -864)">
<path id="Vector 617" d="M174 872L174 870L152 870L152 872L162 872L162 876L148 876L148 872L146 872L146 880L148 880L148 878L154.22 878L156.273 886.213C156.542 887.295 157.166 888.257 158.045 888.943C158.924 889.63 160.008 890.002 161.123 890L170 890C171.061 889.999 172.077 889.577 172.827 888.827C173.577 888.077 173.999 887.06 174 886L174 883.362C174 882.894 173.836 882.441 173.536 882.082L169.068 876.72C168.88 876.495 168.646 876.313 168.38 876.189C168.115 876.065 167.825 876 167.532 876L164 876L164 872L174 872ZM170 888L161.123 888C160.454 888.001 159.804 887.778 159.276 887.366C158.749 886.954 158.374 886.377 158.213 885.728L156.281 878L162 878L162 884L172 884L172 886C172 886.53 171.789 887.039 171.414 887.414C171.039 887.789 170.53 888 170 888ZM167.532 878L170.865 882L164 882L164 878L167.532 878Z" fill="currentColor" fill-rule="nonzero" />
  </g>
</svg>

