<svg viewBox="0 0 32 32" xmlns="http://www.w3.org/2000/svg" fill="none">
  <g transform="translate(-360 -864)">
<path id="Vector 622" d="M376 866C373.231 866 370.524 866.821 368.222 868.359C365.92 869.898 364.125 872.084 363.066 874.642C362.006 877.201 361.729 880.016 362.269 882.731C362.809 885.447 364.143 887.942 366.1 889.899C368.058 891.857 370.553 893.191 373.269 893.731C375.984 894.271 378.799 893.994 381.358 892.934C383.916 891.875 386.102 890.08 387.641 887.778C389.179 885.476 390 882.769 390 880C390 876.287 388.525 872.726 385.9 870.101C383.274 867.475 379.713 866 376 866ZM376 889C375.703 889 375.413 888.912 375.167 888.747C374.92 888.582 374.728 888.348 374.614 888.074C374.501 887.8 374.471 887.498 374.529 887.207C374.587 886.916 374.73 886.649 374.939 886.439C375.149 886.23 375.416 886.087 375.707 886.029C375.998 885.971 376.3 886.001 376.574 886.114C376.848 886.228 377.082 886.42 377.247 886.667C377.412 886.913 377.5 887.203 377.5 887.5C377.5 887.898 377.342 888.279 377.061 888.561C376.779 888.842 376.398 889 376 889ZM377.142 881.246L377.142 883.747L374.892 883.747L374.892 879L377.017 879C377.647 879 378.252 878.75 378.697 878.304C379.143 877.858 379.393 877.254 379.393 876.623C379.393 875.993 379.143 875.389 378.697 874.943C378.252 874.497 377.647 874.247 377.017 874.247L375.517 874.247C374.888 874.248 374.284 874.499 373.839 874.944C373.394 875.389 373.143 875.992 373.142 876.622L373.142 877.26L370.892 877.26L370.892 876.622C370.894 875.396 371.382 874.221 372.249 873.355C373.116 872.489 374.291 872.001 375.517 872L377.017 872C378.231 872.003 379.395 872.483 380.258 873.336C381.121 874.189 381.614 875.348 381.63 876.562C381.646 877.775 381.185 878.946 380.345 879.823C379.506 880.699 378.355 881.21 377.142 881.246Z" fill="currentColor" fill-rule="nonzero" />
  </g>
</svg>

