<svg viewBox="0 0 32 32" xmlns="http://www.w3.org/2000/svg" fill="none">
  <g transform="translate(-288 -864)">
<path id="Vector 621" d="M315 874L309 874C308.205 874.001 307.442 874.317 306.88 874.88C306.317 875.442 306.001 876.205 306 877L306 883C306 883.53 306.211 884.039 306.586 884.414C306.961 884.789 307.47 885 308 885L308 892C308 892.53 308.211 893.039 308.586 893.414C308.961 893.789 309.47 894 310 894L314 894C314.53 894 315.039 893.789 315.414 893.414C315.789 893.039 316 892.53 316 892L316 885C316.53 885 317.039 884.789 317.414 884.414C317.789 884.039 318 883.53 318 883L318 877C317.999 876.205 317.683 875.442 317.12 874.88C316.558 874.317 315.795 874.001 315 874ZM316 883L314 883L314 892L310 892L310 883L308 883L308 877C308 876.735 308.105 876.48 308.293 876.293C308.48 876.105 308.735 876 309 876L315 876C315.265 876 315.52 876.105 315.707 876.293C315.895 876.48 316 876.735 316 877L316 883ZM308 869C308 868.209 308.235 867.436 308.674 866.778C309.114 866.12 309.738 865.607 310.469 865.305C311.2 865.002 312.004 864.923 312.78 865.077C313.556 865.231 314.269 865.612 314.828 866.172C315.388 866.731 315.769 867.444 315.923 868.22C316.078 868.996 315.998 869.8 315.695 870.531C315.393 871.262 314.88 871.886 314.222 872.326C313.565 872.765 312.791 873 312 873C310.94 872.999 309.923 872.577 309.173 871.827C308.423 871.077 308.001 870.061 308 869ZM310 869C310 869.396 310.117 869.782 310.337 870.111C310.557 870.44 310.869 870.696 311.235 870.848C311.6 870.999 312.002 871.039 312.39 870.962C312.778 870.884 313.134 870.694 313.414 870.414C313.694 870.135 313.884 869.778 313.962 869.39C314.039 869.002 313.999 868.6 313.848 868.235C313.696 867.869 313.44 867.557 313.111 867.337C312.782 867.117 312.396 867 312 867C311.47 867 310.961 867.211 310.586 867.586C310.211 867.961 310 868.47 310 869ZM302 880L302 877C301.999 876.205 301.683 875.442 301.12 874.88C300.558 874.317 299.795 874.001 299 874L293 874C292.205 874.001 291.442 874.317 290.88 874.88C290.317 875.442 290.001 876.205 290 877L290 880L288 880L288 882L304 882L304 880L302 880ZM292 877C292 876.735 292.105 876.48 292.293 876.293C292.48 876.105 292.735 876 293 876L299 876C299.265 876 299.52 876.105 299.707 876.293C299.895 876.48 300 876.735 300 877L300 880L292 880L292 877ZM292 869C292 868.209 292.235 867.436 292.674 866.778C293.114 866.12 293.738 865.607 294.469 865.305C295.2 865.002 296.004 864.923 296.78 865.077C297.556 865.231 298.269 865.612 298.828 866.172C299.388 866.731 299.769 867.444 299.923 868.22C300.078 868.996 299.998 869.8 299.695 870.531C299.393 871.262 298.88 871.886 298.222 872.326C297.564 872.765 296.791 873 296 873C294.939 872.999 293.923 872.577 293.173 871.827C292.423 871.077 292.001 870.061 292 869ZM294 869C294 869.396 294.117 869.782 294.337 870.111C294.557 870.44 294.869 870.696 295.235 870.848C295.6 870.999 296.002 871.039 296.39 870.962C296.778 870.884 297.135 870.694 297.414 870.414C297.694 870.135 297.884 869.778 297.962 869.39C298.039 869.002 297.999 868.6 297.848 868.235C297.696 867.869 297.44 867.557 297.111 867.337C296.782 867.117 296.396 867 296 867C295.47 867 294.961 867.211 294.586 867.586C294.211 867.961 294 868.47 294 869Z" fill="currentColor" fill-rule="nonzero" />
  </g>
</svg>

