<svg viewBox="0 0 32 32" xmlns="http://www.w3.org/2000/svg" fill="none">
  <g transform="translate(-216 -864)">
<path id="Vector 618" d="M232 866C229.231 866 226.524 866.821 224.222 868.359C221.92 869.898 220.125 872.084 219.066 874.642C218.006 877.201 217.729 880.016 218.269 882.731C218.809 885.447 220.143 887.942 222.101 889.899C224.058 891.857 226.553 893.191 229.269 893.731C231.984 894.271 234.799 893.994 237.358 892.934C239.916 891.875 242.102 890.08 243.641 887.778C245.179 885.476 246 882.769 246 880C246 876.287 244.525 872.726 241.9 870.101C239.274 867.475 235.713 866 232 866ZM232 892C229.627 892 227.307 891.296 225.333 889.978C223.36 888.659 221.822 886.785 220.913 884.592C220.005 882.399 219.768 879.987 220.231 877.659C220.694 875.331 221.836 873.193 223.515 871.515C225.193 869.836 227.331 868.694 229.659 868.231C231.987 867.768 234.4 868.005 236.592 868.913C238.785 869.822 240.659 871.36 241.978 873.333C243.296 875.307 244 877.627 244 880C244 883.183 242.736 886.235 240.485 888.485C238.235 890.736 235.183 892 232 892Z" fill="currentColor" fill-rule="nonzero" />
		<path id="Vector 619" d="M232 889C232.828 889 233.5 888.328 233.5 887.5C233.5 886.672 232.828 886 232 886C231.172 886 230.5 886.672 230.5 887.5C230.5 888.328 231.172 889 232 889Z" fill="currentColor" fill-rule="nonzero" />
		<path id="Vector 620" d="M233 872L231.5 872C230.909 871.999 230.323 872.114 229.776 872.34C229.23 872.566 228.733 872.897 228.315 873.315C227.897 873.733 227.565 874.23 227.34 874.776C227.114 875.323 226.999 875.909 227 876.5L227 877L229 877L229 876.5C229 875.837 229.263 875.201 229.732 874.732C230.201 874.263 230.837 874 231.5 874L233 874C233.663 874 234.299 874.263 234.768 874.732C235.237 875.201 235.5 875.837 235.5 876.5C235.5 877.163 235.237 877.799 234.768 878.268C234.299 878.737 233.663 879 233 879L231 879L231 883.5L233 883.5L233 881C234.193 881 235.338 880.526 236.182 879.682C237.026 878.838 237.5 877.693 237.5 876.5C237.5 875.307 237.026 874.162 236.182 873.318C235.338 872.474 234.193 872 233 872Z" fill="currentColor" fill-rule="nonzero" />
  </g>
</svg>

