<svg viewBox="0 0 32 32" xmlns="http://www.w3.org/2000/svg" fill="none">
  <g transform="translate(-432 -864)">
<path id="Vector 623" d="M455 893L441 893C440.825 893 440.653 892.954 440.502 892.867C440.35 892.78 440.224 892.655 440.136 892.504L433.136 880.504C433.047 880.351 433 880.177 433 880C433 879.823 433.047 879.649 433.136 879.496L440.136 867.496C440.224 867.345 440.35 867.22 440.502 867.133C440.653 867.046 440.825 867 441 867L455 867C455.175 867 455.347 867.046 455.498 867.133C455.65 867.22 455.776 867.345 455.864 867.496L462.864 879.496C462.953 879.649 463 879.823 463 880C463 880.177 462.953 880.351 462.864 880.504L455.864 892.504C455.776 892.655 455.65 892.78 455.498 892.867C455.347 892.954 455.175 893 455 893ZM441.574 891L454.426 891L460.842 880L454.426 869L441.574 869L435.158 880L441.574 891Z" fill="currentColor" fill-rule="nonzero" />
  </g>
</svg>

