<svg viewBox="0 0 32 32" xmlns="http://www.w3.org/2000/svg" fill="none">
  <g transform="translate(-576 -864)">
<path id="Vector 625" d="M579 887L579 873C579 872.825 579.046 872.654 579.133 872.502C579.22 872.35 579.345 872.224 579.496 872.136L591.496 865.136C591.649 865.047 591.823 865 592 865C592.177 865 592.351 865.047 592.504 865.136L604.504 872.136C604.655 872.224 604.78 872.35 604.867 872.502C604.954 872.654 605 872.825 605 873L605 887C605 887.175 604.954 887.347 604.867 887.498C604.78 887.65 604.655 887.776 604.504 887.864L592.504 894.864C592.351 894.953 592.177 895 592 895C591.823 895 591.649 894.953 591.496 894.864L579.496 887.864C579.345 887.776 579.22 887.65 579.133 887.498C579.046 887.347 579 887.175 579 887ZM581 873.574L581 886.426L592 892.842L603 886.426L603 873.574L592 867.158L581 873.574Z" fill="currentColor" fill-rule="nonzero" />
  </g>
</svg>

