<svg viewBox="0 0 32 32" xmlns="http://www.w3.org/2000/svg" fill="none">
  <g transform="translate(-648 -864)">
<path id="Vector 626" d="M664.551 894.85L676.468 887.887C676.63 887.793 676.764 887.658 676.857 887.496C676.95 887.334 677 887.151 677 886.964L677 873.036C677 872.656 676.798 872.306 676.468 872.113L664.55 865.15C664.383 865.052 664.193 865 663.999 865C663.805 865 663.615 865.052 663.448 865.15L651.532 872.113C651.37 872.207 651.236 872.342 651.143 872.504C651.05 872.666 651 872.849 651 873.036L651 886.964C651 887.344 651.202 887.694 651.532 887.887L663.45 894.85C663.79 895.049 664.211 895.049 664.551 894.85Z" fill="currentColor" fill-rule="nonzero" />
  </g>
</svg>

