<svg viewBox="0 0 32 32" xmlns="http://www.w3.org/2000/svg" fill="none">
  <g transform="translate(-720 -864)">
<path id="Vector 627" d="M736.612 866.214C736.435 866.076 736.216 866 735.991 866C735.766 866 735.547 866.076 735.37 866.214L721 877.419L722.243 878.991L724 877.621L724 890C724.001 890.53 724.212 891.038 724.587 891.413C724.962 891.788 725.47 891.999 726 892L746 892C746.53 891.999 747.038 891.788 747.413 891.413C747.788 891.038 747.999 890.53 748 890L748 877.63L749.757 879L751 877.428L736.612 866.214ZM738 890L734 890L734 882L738 882L738 890ZM740 890L740 882C740 881.47 739.789 880.961 739.414 880.586C739.039 880.211 738.53 880 738 880L734 880C733.47 880 732.961 880.211 732.586 880.586C732.211 880.961 732 881.47 732 882L732 890L726 890L726 876.062L736 868.272L746 876.072L746 890L740 890Z" fill="currentColor" fill-rule="nonzero" />
  </g>
</svg>

