<svg viewBox="0 0 32 32" xmlns="http://www.w3.org/2000/svg" fill="none">
  <g transform="translate(-936 -864)">
<path id="Vector 630" d="M964 894L940 894C939.47 894 938.961 893.789 938.586 893.414C938.211 893.039 938 892.53 938 892L938 884C938 883.47 938.211 882.961 938.586 882.586C938.961 882.211 939.47 882 940 882L964 882C964.53 882 965.039 882.211 965.414 882.586C965.789 882.961 966 883.47 966 884L966 892C966 892.53 965.789 893.039 965.414 893.414C965.039 893.789 964.53 894 964 894ZM940 884L939.998 884L940 892L964 892L964 884L940 884ZM964 878L940 878C939.47 878 938.961 877.789 938.586 877.414C938.211 877.039 938 876.53 938 876L938 868C938 867.47 938.211 866.961 938.586 866.586C938.961 866.211 939.47 866 940 866L964 866C964.53 866 965.039 866.211 965.414 866.586C965.789 866.961 966 867.47 966 868L966 876C966 876.53 965.789 877.039 965.414 877.414C965.039 877.789 964.53 878 964 878ZM940 868L939.998 868L940 876L964 876L964 868L940 868Z" fill="currentColor" fill-rule="nonzero" />
  </g>
</svg>

