<svg viewBox="0 0 32 32" xmlns="http://www.w3.org/2000/svg" fill="none">
  <g transform="translate(-1080 -864)">
<path id="Vector 633" d="M1105 880L1097 880C1096.47 880 1095.96 880.211 1095.59 880.586C1095.21 880.961 1095 881.47 1095 882L1095 888L1084 888L1084 878L1082 878L1082 894L1084 894L1084 890L1108 890L1108 894L1110 894L1110 885C1110 883.674 1109.47 882.404 1108.53 881.466C1107.6 880.529 1106.33 880.002 1105 880ZM1108 888L1097 888L1097 882L1105 882C1105.8 882.001 1106.56 882.317 1107.12 882.88C1107.68 883.442 1108 884.205 1108 885L1108 888Z" fill="currentColor" fill-rule="nonzero" />
		<path id="Vector 634" d="M1089.5 881C1089.8 881 1090.09 881.088 1090.33 881.253C1090.58 881.418 1090.77 881.652 1090.89 881.926C1091 882.2 1091.03 882.502 1090.97 882.793C1090.91 883.084 1090.77 883.351 1090.56 883.561C1090.35 883.77 1090.08 883.913 1089.79 883.971C1089.5 884.029 1089.2 883.999 1088.93 883.886C1088.65 883.772 1088.42 883.58 1088.25 883.333C1088.09 883.087 1088 882.797 1088 882.5C1088 882.102 1088.16 881.721 1088.44 881.439C1088.72 881.158 1089.1 881 1089.5 881ZM1089.5 879C1088.81 879 1088.13 879.205 1087.56 879.59C1086.98 879.974 1086.53 880.521 1086.27 881.161C1086 881.8 1085.93 882.504 1086.07 883.183C1086.2 883.862 1086.54 884.485 1087.03 884.975C1087.51 885.464 1088.14 885.798 1088.82 885.933C1089.5 886.068 1090.2 885.998 1090.84 885.734C1091.48 885.469 1092.03 885.02 1092.41 884.445C1092.79 883.869 1093 883.192 1093 882.5C1093 881.572 1092.63 880.682 1091.97 880.025C1091.32 879.369 1090.43 879 1089.5 879ZM1101 870L1097 870L1097 866L1095 866L1095 870L1091 870L1091 872L1095 872L1095 876L1097 876L1097 872L1101 872L1101 870Z" fill="currentColor" fill-rule="nonzero" />
  </g>
</svg>

