<svg viewBox="0 0 32 32" xmlns="http://www.w3.org/2000/svg" fill="none">
  <g transform="translate(-1008 -864)">
<path id="Vector 631" d="M1029 874L1025 874L1025 870L1023 870L1023 874L1019 874L1019 876L1023 876L1023 880L1025 880L1025 876L1029 876L1029 874Z" fill="currentColor" fill-rule="nonzero" />
		<path id="Vector 632" d="M1036 874L1034 874L1034 868C1034 867.47 1033.79 866.961 1033.41 866.586C1033.04 866.211 1032.53 866 1032 866L1016 866C1015.47 866 1014.96 866.211 1014.59 866.586C1014.21 866.961 1014 867.47 1014 868L1014 874L1012 874C1011.47 874 1010.96 874.211 1010.59 874.586C1010.21 874.961 1010 875.47 1010 876L1010 894L1038 894L1038 876C1038 875.47 1037.79 874.961 1037.41 874.586C1037.04 874.211 1036.53 874 1036 874ZM1022 892L1022 886L1026 886L1026 892L1022 892ZM1028 892L1028 885C1028 884.735 1027.89 884.48 1027.71 884.293C1027.52 884.105 1027.27 884 1027 884L1021 884C1020.73 884 1020.48 884.105 1020.29 884.293C1020.11 884.48 1020 884.735 1020 885L1020 892L1012 892L1012 876L1016 876L1016 868L1032 868L1032 876L1036 876L1036 892L1028 892Z" fill="currentColor" fill-rule="nonzero" />
  </g>
</svg>

