<svg viewBox="0 0 32 32" xmlns="http://www.w3.org/2000/svg" fill="none">
  <g transform="translate(-1152 -864)">
<path id="Vector 635" d="M1175.48 877.993L1168.85 867.437C1168.75 867.302 1168.62 867.192 1168.48 867.116C1168.33 867.04 1168.17 867 1168 867C1167.83 867 1167.67 867.04 1167.52 867.116C1167.38 867.192 1167.25 867.302 1167.15 867.437L1160.49 878.044C1159.57 879.536 1159.05 881.245 1159 883C1159 885.387 1159.95 887.676 1161.64 889.364C1163.32 891.052 1165.61 892 1168 892C1170.39 892 1172.68 891.052 1174.36 889.364C1176.05 887.676 1177 885.387 1177 883C1176.94 881.226 1176.42 879.498 1175.48 877.993ZM1168 890C1166.14 889.997 1164.37 889.259 1163.05 887.947C1161.74 886.635 1161 884.856 1161 883C1161.05 881.602 1161.47 880.242 1162.22 879.057L1163.15 877.567L1173.23 887.641C1172.57 888.382 1171.77 888.976 1170.87 889.383C1169.97 889.789 1168.99 889.999 1168 890Z" fill="currentColor" fill-rule="nonzero" />
  </g>
</svg>

