<svg viewBox="0 0 32 32" xmlns="http://www.w3.org/2000/svg" fill="none">
  <g transform="translate(-72 -936)">
<path id="Vector 658" d="M80 963C80.5523 963 81 962.552 81 962C81 961.448 80.5523 961 80 961C79.4477 961 79 961.448 79 962C79 962.552 79.4477 963 80 963Z" fill="currentColor" fill-rule="nonzero" />
		<path id="Vector 659" d="M77 966L99 966C100.1 966 101 965.1 101 964L101 960C101 958.9 100.1 958 99 958L77 958C75.9 958 75 958.9 75 960L75 964C75 965.1 75.9 966 77 966ZM77 960L99 960L99 964L77 964L77 960ZM95 956L81 956C77.69 956 75 953.31 75 950C75 946.95 77.29 944.42 80.25 944.05C81.13 940.55 84.33 938 88 938C91.67 938 94.87 940.55 95.75 944.05C98.71 944.42 101 946.95 101 950C101 953.31 98.31 956 95 956ZM80.95 946C79.8986 946.016 78.8955 946.444 78.1567 947.192C77.4179 947.94 77.0025 948.948 77 950C77 952.21 78.79 954 81 954L95 954C97.21 954 99 952.21 99 950C99.0001 948.949 98.5869 947.941 97.8497 947.193C97.1125 946.444 96.1104 946.016 95.06 946L94.94 946.01L94.06 946.03L93.94 945.15C93.51 942.21 90.96 940 88 940C85.04 940 82.49 942.21 82.07 945.15L81.95 946.03L80.95 946Z" fill="currentColor" fill-rule="nonzero" />
  </g>
</svg>

