<svg viewBox="0 0 32 32" xmlns="http://www.w3.org/2000/svg" fill="none">
  <g transform="translate(-1224 -936)">
<path id="Vector 700" d="M1252 948C1253.1 948 1254 947.1 1254 946L1254 940C1254 938.9 1253.1 938 1252 938L1248 938C1246.9 938 1246 938.9 1246 940L1246 946C1246 947.1 1246.9 948 1248 948L1249 948L1249 952L1246 952L1246 954L1254 954L1254 952L1251 952L1251 948L1252 948ZM1248 940L1252 940L1252 946L1248 946L1248 940ZM1245 958.4L1243.6 957L1240 960.6L1236.4 957L1235 958.4L1238.6 962L1235 965.6L1236.4 967L1240 963.4L1243.6 967L1245 965.6L1241.4 962L1245 958.4ZM1236 954L1239 954L1239 957L1241 957L1241 954L1244 954L1244 952L1236 952L1236 954ZM1234 948L1234 940C1234 938.9 1233.1 938 1232 938L1227 938L1227 940L1232 940L1232 942L1228 942C1226.9 942 1226 942.9 1226 944L1226 946C1226 947.1 1226.9 948 1228 948L1229 948L1229 952L1226 952L1226 954L1234 954L1234 952L1231 952L1231 948L1234 948ZM1228 944L1232 944L1232 946L1228 946L1228 944Z" fill="currentColor" fill-rule="nonzero" />
  </g>
</svg>

