<svg viewBox="0 0 32 32" xmlns="http://www.w3.org/2000/svg" fill="none">
  <g transform="translate(-1008 -936)">
<path id="Vector 689" d="M1028 961L1035 961L1035 963L1028 963L1028 961ZM1030 965L1033 965L1033 967L1030 967L1030 965ZM1035 959L1033 959C1033 957.9 1033.4 957 1034.2 956.2L1034.7 955.7C1035.5 954.9 1036 953.7 1036 952.5C1036 950 1034 948 1031.5 948C1029 948 1027 950 1027 952.5C1027 953.7 1027.5 954.8 1028.3 955.7L1028.8 956.2C1029.6 957 1030 957.9 1030 959L1028 959C1028 958.5 1027.8 958 1027.4 957.6L1026.9 957.1C1025.7 955.9 1025 954.2 1025 952.5C1025 948.9 1027.9 946 1031.5 946C1035.1 946 1038 948.9 1038 952.5C1038 954.2 1037.3 955.9 1036.1 957.1L1035.6 957.6C1035.2 958 1035 958.5 1035 959ZM1014 958L1022 958L1022 960L1014 960L1014 958Z" fill="currentColor" fill-rule="nonzero" />
		<path id="Vector 690" d="M1020 956C1020.55 956 1021 955.552 1021 955C1021 954.448 1020.55 954 1020 954C1019.45 954 1019 954.448 1019 955C1019 955.552 1019.45 956 1020 956Z" fill="currentColor" fill-rule="nonzero" />
		<path id="Vector 691" d="M1014 954L1017 954L1017 956L1014 956L1014 954ZM1014 950L1021 950L1021 952L1014 952L1014 950ZM1018 946L1025 946L1025 948L1018 948L1018 946Z" fill="currentColor" fill-rule="nonzero" />
		<path id="Vector 692" d="M1015 948C1015.55 948 1016 947.552 1016 947C1016 946.448 1015.55 946 1015 946C1014.45 946 1014 946.448 1014 947C1014 947.552 1014.45 948 1015 948Z" fill="currentColor" fill-rule="nonzero" />
		<path id="Vector 693" d="M1024 942L1028 942L1028 944L1024 944L1024 942Z" fill="currentColor" fill-rule="nonzero" />
		<path id="Vector 694" d="M1021 944C1021.55 944 1022 943.552 1022 943C1022 942.448 1021.55 942 1021 942C1020.45 942 1020 942.448 1020 943C1020 943.552 1020.45 944 1021 944Z" fill="currentColor" fill-rule="nonzero" />
		<path id="Vector 695" d="M1014 942L1018 942L1018 944L1014 944L1014 942Z" fill="currentColor" fill-rule="nonzero" />
		<path id="Vector 696" d="M1026 964L1012 964L1012 940L1030 940L1030 944L1032 944L1032 940C1032 938.9 1031.1 938 1030 938L1012 938C1010.9 938 1010 938.9 1010 940L1010 964C1010 965.1 1010.9 966 1012 966L1026 966L1026 964Z" fill="currentColor" fill-rule="nonzero" />
  </g>
</svg>

