<svg viewBox="0 0 32 32" xmlns="http://www.w3.org/2000/svg" fill="none">
  <g transform="translate(-1224 -864)">
<path id="Vector 636" d="M1256 887L1251 892L1249.6 890.6L1252.2 888L1244 888L1244 886L1252.2 886L1249.6 883.4L1251 882L1256 887Z" fill="currentColor" fill-rule="nonzero" />
		<path id="Vector 637" d="M1249.5 866.7C1249.1 866.3 1248.6 866 1248 866L1245.3 866C1244.7 866 1244.2 866.3 1244 866.8L1243.4 868L1242 868L1242 867.5C1242 866.7 1241.3 866 1240.5 866L1235.5 866C1234.7 866 1234 866.7 1234 867.5L1234 868L1232.6 868L1232 866.8C1231.8 866.3 1231.3 866 1230.7 866L1228 866C1227.4 866 1226.9 866.3 1226.5 866.7C1226.1 867.2 1225.9 867.8 1226 868.4L1226.7 872.5C1227 873.9 1228.2 875 1229.7 875L1230 875L1230 887C1228.3 887 1227 888.3 1227 890L1227 894L1246 894L1246 892L1241 892L1241 885C1241 883.3 1239.7 882 1238 882C1236.3 882 1235 883.3 1235 885L1235 892L1229 892L1229 890C1229 889.4 1229.4 889 1230 889L1232 889L1232 875L1244 875L1244 882L1246 882L1246 875L1246.3 875C1247.8 875 1249 873.9 1249.3 872.5L1250 868.4C1250.1 867.8 1249.9 867.2 1249.5 866.7ZM1237 885C1237 884.4 1237.4 884 1238 884C1238.6 884 1239 884.4 1239 885L1239 892L1237 892L1237 885ZM1247.3 872.2C1247.2 872.7 1246.8 873 1246.3 873L1229.7 873C1229.2 873 1228.8 872.6 1228.7 872.2L1228 868L1230.4 868L1231.4 870L1236 870L1236 868L1240 868L1240 870L1244.6 870L1245.6 868L1248 868L1247.3 872.2Z" fill="currentColor" fill-rule="nonzero" />
  </g>
</svg>

