<svg viewBox="0 0 32 32" xmlns="http://www.w3.org/2000/svg" fill="none">
  <g transform="translate(-720 -936)">
<path id="Vector 675" d="M729 957L723 957C721.897 957 721 956.103 721 955L721 949C721 947.897 721.897 947 723 947L729 947C730.103 947 731 947.897 731 949L731 955C731 956.103 730.103 957 729 957ZM723 949L723 955L729 955L729 949L723 949ZM736 966C735.638 966 735.279 965.987 734.924 965.96C730.572 965.628 726.564 963.228 724.201 959.54L725.886 958.46C726.89 960.024 728.242 961.334 729.836 962.289C731.43 963.244 733.224 963.817 735.076 963.965C735.381 963.988 735.689 964 736 964L736 966ZM748 966L740 966C738.897 966 738 965.103 738 964L738 956C738 954.897 738.897 954 740 954L748 954C749.103 954 750 954.897 750 956L750 964C750 965.103 749.103 966 748 966ZM740 956L740 964L748 964L748 956L740 956ZM747.303 948C747.756 949.282 748 950.621 748 952L750 952C750 950.63 749.801 949.292 749.416 948L747.303 948ZM747 946L744 946C742.897 946 742 945.103 742 944L742 941C742 939.897 742.897 939 744 939L747 939C748.103 939 749 939.897 749 941L749 944C749 945.103 748.103 946 747 946ZM744 941L744 944L747 944L747 941L744 941ZM740 938.584C738.702 938.197 737.355 938 736 938C733.648 937.995 731.334 938.585 729.271 939.714C727.208 940.844 725.465 942.476 724.202 944.46L725.886 945.54C727.341 943.253 729.531 941.528 732.095 940.648C734.66 939.768 737.447 939.786 740 940.698L740 938.584Z" fill="currentColor" fill-rule="nonzero" />
  </g>
</svg>

