<svg viewBox="0 0 32 32" xmlns="http://www.w3.org/2000/svg" fill="none">
  <g transform="translate(-1440.000122 -936)">
<path id="Vector 705" d="M1468 949L1466 949L1466 947C1466 944.2 1463.8 942 1461 942L1458 942L1458 940L1461 940C1464.9 940 1468 943.1 1468 947L1468 949ZM1462 956L1465 956L1465 958L1462 958L1462 956ZM1462 960L1465 960L1465 962L1462 962L1462 960Z" fill="currentColor" fill-rule="nonzero" />
		<path id="Vector 706" d="M1467 966L1462 966L1462 964L1467 964L1467 954L1460 954L1460 963C1460 964.7 1458.7 966 1457 966C1455.3 966 1454 964.7 1454 963L1454 960L1456 960L1456 963C1456 963.6 1456.4 964 1457 964C1457.6 964 1458 963.6 1458 963L1458 952L1469 952L1469 964C1469 965.1 1468.1 966 1467 966ZM1452 964L1451 964C1447.1 964 1444 960.9 1444 957L1444 953L1446 953L1446 957C1446 959.8 1448.2 962 1451 962L1452 962L1452 964ZM1451 946L1451 948L1454 948C1455.1 948 1456 947.1 1456 946L1456 940C1456 938.9 1455.1 938 1454 938L1444 938C1442.9 938 1442 938.9 1442 940L1442 946C1442 947.1 1442.9 948 1444 948L1446.4 948L1448.1 951L1449.8 950L1447.5 946L1444 946L1444 940L1454 940L1454 946L1451 946Z" fill="currentColor" fill-rule="nonzero" />
  </g>
</svg>

