<svg viewBox="0 0 32 32" xmlns="http://www.w3.org/2000/svg" fill="none">
  <g transform="translate(-216 -936)">
<path id="Vector 662" d="M244 966L220 966C218.9 966 218 965.1 218 964L218 952L220 952L220 964L244 964L244 940L232 940L232 938L244 938C245.1 938 246 938.9 246 940L246 964C246 965.1 245.1 966 244 966ZM238.5 948.1L232.5 945.1C232.2 945 231.9 945 231.6 945.1L225.6 948.1C225.3 948.3 225.1 948.6 225 949L225 956C225 956.4 225.2 956.7 225.6 956.9L231.6 959.9C231.9 960 232.2 960 232.5 959.9L238.5 956.9C238.8 956.7 239 956.4 239.1 956L239.1 949C239.1 948.6 238.9 948.3 238.6 948.1L238.5 948.1ZM232 947.1L235.8 949L232 950.9L228.2 949L232 947.1ZM227 950.6L231 952.6L231 957.4L227 955.4L227 950.6ZM233 957.4L233 952.6L237 950.6L237 955.4L233 957.4ZM216 946L221 946L221 948L216 948L216 946ZM228 936L228 941L226 941L226 936L228 936ZM219.4 938L222.9 941.5L221.5 942.9L218 939.4L219.4 938Z" fill="currentColor" fill-rule="nonzero" />
  </g>
</svg>

