<svg viewBox="0 0 32 32" xmlns="http://www.w3.org/2000/svg" fill="none">
  <g transform="translate(-1944.000122 -864)">
<path id="Vector 653" d="M1956.5 871.5L1955.1 870.1L1958.6 866.6C1959.4 865.8 1960.7 865.8 1961.4 866.6L1964.9 870.1L1963.5 871.5L1960 868L1956.5 871.5ZM1963.5 888.5L1964.9 889.9L1961.4 893.4C1960.6 894.2 1959.3 894.2 1958.6 893.4L1955.1 889.9L1956.5 888.5L1960 892L1963.5 888.5ZM1968.5 876.5L1969.9 875.1L1973.4 878.6C1974.2 879.4 1974.2 880.7 1973.4 881.4L1969.9 884.9L1968.5 883.5L1972 880L1968.5 876.5ZM1951.5 883.5L1950.1 884.9L1946.6 881.4C1945.8 880.6 1945.8 879.3 1946.6 878.6L1950.1 875.1L1951.5 876.5L1948 880L1951.5 883.5Z" fill="currentColor" fill-rule="nonzero" />
		<path id="Vector 654" d="M1970 888C1969.8 888 1969.7 888 1969.5 888.1L1963.4 882C1964.2 880.8 1964.2 879.2 1963.4 878L1969.5 871.9C1969.7 872 1969.8 872 1970 872C1971.1 872 1972 871.1 1972 870C1972 868.9 1971.1 868 1970 868C1968.9 868 1968 868.9 1968 870C1968 870.2 1968 870.3 1968.1 870.5L1962 876.6C1960.8 875.8 1959.2 875.8 1958 876.6L1951.9 870.5C1952 870.3 1952 870.2 1952 870C1952 868.9 1951.1 868 1950 868C1948.9 868 1948 868.9 1948 870C1948 871.1 1948.9 872 1950 872C1950.2 872 1950.3 872 1950.5 871.9L1956.6 878C1955.8 879.2 1955.8 880.8 1956.6 882L1950.5 888.1C1950.3 888 1950.2 888 1950 888C1948.9 888 1948 888.9 1948 890C1948 891.1 1948.9 892 1950 892C1951.1 892 1952 891.1 1952 890C1952 889.8 1952 889.7 1951.9 889.5L1958 883.4C1959.2 884.2 1960.8 884.2 1962 883.4L1968.1 889.5C1968.1 889.7 1968 889.8 1968 890C1968 891.1 1968.9 892 1970 892C1971.1 892 1972 891.1 1972 890C1972 888.9 1971.1 888 1970 888ZM1960 882C1958.9 882 1958 881.1 1958 880C1958 878.9 1958.9 878 1960 878C1961.1 878 1962 878.9 1962 880C1962 881.1 1961.1 882 1960 882Z" fill="currentColor" fill-rule="nonzero" />
  </g>
</svg>

