<svg viewBox="0 0 32 32" xmlns="http://www.w3.org/2000/svg" fill="none">
  <g transform="translate(-1368.000122 -936)">
<path id="Vector 703" d="M1372 964C1370.3 964 1369 962.7 1369 961C1369 959.3 1370.3 958 1372 958C1373.7 958 1375 959.3 1375 961C1375 962.7 1373.7 964 1372 964ZM1372 960C1371.4 960 1371 960.4 1371 961C1371 961.6 1371.4 962 1372 962C1372.6 962 1373 961.6 1373 961C1373 960.4 1372.6 960 1372 960ZM1396 964C1394.3 964 1393 962.7 1393 961C1393 959.3 1394.3 958 1396 958C1397.7 958 1399 959.3 1399 961C1399 962.7 1397.7 964 1396 964ZM1396 960C1395.4 960 1395 960.4 1395 961C1395 961.6 1395.4 962 1396 962C1396.6 962 1397 961.6 1397 961C1397 960.4 1396.6 960 1396 960ZM1390.4 940.4L1389.5 942.2C1394.1 944.4 1397 949 1397 954C1397 954.7 1396.9 955.4 1396.8 956.1L1398.8 956.4C1398.9 955.6 1399 954.8 1399 953.9C1399 948.2 1395.6 942.9 1390.4 940.4ZM1384 943C1382.3 943 1381 941.7 1381 940C1381 938.3 1382.3 937 1384 937C1385.7 937 1387 938.3 1387 940C1387 941.7 1385.7 943 1384 943ZM1384 939C1383.4 939 1383 939.4 1383 940C1383 940.6 1383.4 941 1384 941C1384.6 941 1385 940.6 1385 940C1385 939.4 1384.6 939 1384 939Z" fill="currentColor" fill-rule="nonzero" />
		<path id="Vector 704" d="M1393.5 949.6L1392.5 947.9L1385 952.3L1385 945L1383 945L1383 952.2L1374.2 947C1373.7 946.7 1373.1 946.9 1372.8 947.3C1372.5 947.7 1372.7 948.4 1373.1 948.7L1382 954L1375.8 957.6L1376.8 959.3L1383 955.7L1383 966C1383 966.6 1383.4 967 1384 967C1384.6 967 1385 966.6 1385 966L1385 955.8L1391.2 959.5L1392.2 957.8L1386 954L1393.5 949.6Z" fill="currentColor" fill-rule="nonzero" />
  </g>
</svg>

