<svg viewBox="0 0 32 32" xmlns="http://www.w3.org/2000/svg" fill="none">
  <g transform="translate(-1368.000122 -864)">
<path id="Vector 639" d="M1392 888L1392 894L1398 894L1398 888L1392 888ZM1396 892L1394 892L1394 890L1396 890L1396 892ZM1370 894L1376 894L1376 888L1370 888L1370 894ZM1372 890L1374 890L1374 892L1372 892L1372 890Z" fill="currentColor" fill-rule="nonzero" />
		<path id="Vector 640" d="M1394 879L1385 879L1385 872.837C1386.44 872.403 1387.5 871.08 1387.5 869.5C1387.5 867.57 1385.93 866 1384 866C1382.07 866 1380.5 867.57 1380.5 869.5C1380.5 871.08 1381.56 872.403 1383 872.837L1383 879L1374 879C1372.9 879 1372 879.897 1372 881L1372 886L1374 886L1374 881L1383 881L1383 888L1381 888L1381 894L1387 894L1387 888L1385 888L1385 881L1394 881L1394 886L1396 886L1396 881C1396 879.897 1395.1 879 1394 879ZM1382.5 869.5C1382.5 868.673 1383.17 868 1384 868C1384.83 868 1385.5 868.673 1385.5 869.5C1385.5 870.327 1384.83 871 1384 871C1383.17 871 1382.5 870.327 1382.5 869.5ZM1385 892L1383 892L1383 890L1385 890L1385 892ZM1394.5 873C1396.43 873 1398 871.43 1398 869.5C1398 867.57 1396.43 866 1394.5 866C1392.57 866 1391 867.57 1391 869.5C1391 871.43 1392.57 873 1394.5 873ZM1394.5 868C1395.33 868 1396 868.673 1396 869.5C1396 870.327 1395.33 871 1394.5 871C1393.67 871 1393 870.327 1393 869.5C1393 868.673 1393.67 868 1394.5 868ZM1373.5 873C1375.43 873 1377 871.43 1377 869.5C1377 867.57 1375.43 866 1373.5 866C1371.57 866 1370 867.57 1370 869.5C1370 871.43 1371.57 873 1373.5 873ZM1373.5 868C1374.33 868 1375 868.673 1375 869.5C1375 870.327 1374.33 871 1373.5 871C1372.67 871 1372 870.327 1372 869.5C1372 868.673 1372.67 868 1373.5 868Z" fill="currentColor" fill-rule="nonzero" />
  </g>
</svg>

