<svg viewBox="0 0 32 32" xmlns="http://www.w3.org/2000/svg" fill="none">
  <g transform="translate(-1728.000122 -864)">
<path id="Vector 649" d="M1750.86 889.86C1750.14 890.61 1749.32 891.28 1748.4 891.8L1743 895L1737.5 891.8C1734.1 889.8 1732 886.2 1732 882.3L1732 868C1732 866.9 1732.9 866 1734 866L1752 866C1753.1 866 1754 866.9 1754 868L1754 873L1752 873L1752 868L1734 868L1734 882.3C1734 885.5 1735.7 888.5 1738.5 890.1L1743 892.8L1747.5 890.1C1748.23 889.63 1748.91 889.11 1749.5 888.5L1750.86 889.86ZM1756 876L1746 876L1746 878L1756 878L1756 876ZM1756 884L1746 884L1746 886L1756 886L1756 884ZM1758 880L1748 880L1748 882L1758 882L1758 880Z" fill="currentColor" fill-rule="nonzero" />
  </g>
</svg>

