<svg viewBox="0 0 32 32" xmlns="http://www.w3.org/2000/svg" fill="none">
  <g transform="translate(-144 -936)">
<path id="Vector 660" d="M167.414 958L154 944.586L154 938L146 938L146 946L152.586 946L166 959.414L166 966L174 966L174 958L167.414 958ZM152 944L148 944L148 940L152 940L152 944ZM172 964L168 964L168 960L172 960L172 964Z" fill="currentColor" fill-rule="nonzero" />
		<path id="Vector 661" d="M174 942C174 939.794 172.206 938 170 938C168.142 938 166.59 939.28 166.142 941L157 941L157 943L166.142 943C166.322 943.687 166.681 944.314 167.184 944.817C167.686 945.319 168.313 945.678 169 945.858L169 955L171 955L171 945.858C172.72 945.411 174 943.858 174 942ZM170 944C168.897 944 168 943.103 168 942C168 940.897 168.897 940 170 940C171.103 940 172 940.898 172 942C172 943.102 171.103 944 170 944ZM163 961L153.858 961C153.678 960.313 153.319 959.686 152.817 959.183C152.314 958.681 151.687 958.322 151 958.142L151 949L149 949L149 958.142C147.28 958.589 146 960.142 146 962C146 964.206 147.794 966 150 966C151.858 966 153.41 964.72 153.858 963L163 963L163 961ZM150 964C148.897 964 148 963.103 148 962C148 960.897 148.897 960 150 960C151.103 960 152 960.898 152 962C152 963.102 151.103 964 150 964Z" fill="currentColor" fill-rule="nonzero" />
  </g>
</svg>

