<svg viewBox="0 0 32 32" xmlns="http://www.w3.org/2000/svg" fill="none">
  <g transform="translate(-1872.000122 -864)">
<path id="Vector 651" d="M1897 878L1894.9 877C1893.2 876.2 1892 874.4 1892 872.5L1892 866L1902 866L1902 872.5C1902 874.4 1900.9 876.2 1899.1 877L1897 878ZM1894 868L1894 872.5C1894 873.7 1894.7 874.7 1895.7 875.2L1897 875.8L1898.3 875.2C1899.3 874.7 1900 873.6 1900 872.5L1900 868L1894 868Z" fill="currentColor" fill-rule="nonzero" />
		<path id="Vector 652" d="M1900 880L1900 886L1876 886L1876 870L1888 870L1888 868L1876 868C1874.9 868 1874 868.9 1874 870L1874 886C1874 887.1 1874.9 888 1876 888L1884 888L1884 892L1880 892L1880 894L1896 894L1896 892L1892 892L1892 888L1900 888C1901.1 888 1902 887.1 1902 886L1902 880L1900 880ZM1890 892L1886 892L1886 888L1890 888L1890 892Z" fill="currentColor" fill-rule="nonzero" />
  </g>
</svg>

