<svg viewBox="0 0 32 32" xmlns="http://www.w3.org/2000/svg" fill="none">
  <g transform="translate(-432 -936)">
<path id="Vector 665" d="M457 957C456.26 957 455.576 957.216 454.98 957.567L452.95 955.536L451.535 956.95L453.567 958.981C453.199 959.591 453.004 960.288 453 961C453 963.206 454.794 965 457 965C457.356 965 457.694 964.939 458.023 964.85L455.586 962.414C455.211 962.039 455 961.53 455 961C455.001 960.605 455.119 960.219 455.339 959.891C455.559 959.563 455.871 959.307 456.236 959.156C456.601 959.004 457.003 958.965 457.39 959.041C457.778 959.118 458.134 959.307 458.414 959.586L460.851 962.023C460.945 961.69 460.995 961.346 461 961C461 958.794 459.205 957 457 957ZM452.95 948.464L456.714 944.7C457.105 944.887 457.538 945 458 945C458.593 945 459.173 944.824 459.667 944.494C460.16 944.165 460.545 943.696 460.772 943.148C460.999 942.6 461.058 941.997 460.942 941.415C460.827 940.833 460.541 940.298 460.121 939.879C459.702 939.459 459.167 939.173 458.585 939.058C458.003 938.942 457.4 939.001 456.852 939.228C456.304 939.455 455.835 939.84 455.506 940.333C455.176 940.827 455 941.407 455 942C455 942.462 455.113 942.895 455.3 943.286L451.536 947.05L452.95 948.464ZM458 941C458.551 941 459 941.449 459 942C459 942.551 458.551 943 458 943C457.449 943 457 942.551 457 942C457 941.449 457.449 941 458 941ZM448 948C446.939 948 445.922 948.421 445.172 949.172C444.421 949.922 444 950.939 444 952C444 952.74 444.215 953.425 444.566 954.02L439.286 959.3C438.885 959.106 438.446 959.003 438 959C437.407 959 436.827 959.176 436.333 959.506C435.84 959.835 435.455 960.304 435.228 960.852C435.001 961.4 434.942 962.003 435.058 962.585C435.173 963.167 435.459 963.702 435.879 964.121C436.298 964.541 436.833 964.827 437.415 964.942C437.997 965.058 438.6 964.999 439.148 964.772C439.696 964.545 440.165 964.16 440.494 963.667C440.824 963.173 441 962.593 441 962C441 961.538 440.887 961.105 440.7 960.714L445.98 955.434C446.59 955.801 447.288 955.996 448 956C449.061 956 450.078 955.579 450.828 954.828C451.579 954.078 452 953.061 452 952C452 950.939 451.579 949.922 450.828 949.172C450.078 948.421 449.061 948 448 948ZM438 963C437.743 962.989 437.499 962.878 437.321 962.692C437.143 962.505 437.044 962.258 437.044 962C437.044 961.742 437.143 961.495 437.321 961.308C437.499 961.122 437.743 961.011 438 961C438.257 961.011 438.501 961.122 438.679 961.308C438.857 961.495 438.956 961.742 438.956 962C438.956 962.258 438.857 962.505 438.679 962.692C438.501 962.878 438.257 962.989 438 963ZM448 954C446.897 954 446 953.103 446 952C446 950.897 446.897 950 448 950C449.103 950 450 950.897 450 952C450 953.103 449.103 954 448 954ZM439 947C439.74 947 440.424 946.785 441.02 946.433L443.05 948.464L444.464 947.05L442.434 945.019C442.783 944.424 443 943.739 443 943C443 940.794 441.206 939 439 939C438.644 939 438.306 939.062 437.977 939.15L440.414 941.586C440.693 941.866 440.882 942.222 440.959 942.61C441.035 942.997 440.996 943.399 440.844 943.764C440.693 944.129 440.437 944.441 440.109 944.661C439.781 944.881 439.395 944.999 439 945C438.47 945 437.961 944.789 437.586 944.414L435.149 941.977C435.055 942.31 435.005 942.654 435 943C435 945.206 436.794 947 439 947Z" fill="currentColor" fill-rule="nonzero" />
  </g>
</svg>

