<svg viewBox="0 0 32 32" xmlns="http://www.w3.org/2000/svg" fill="none">
  <g transform="translate(-1152 -936)">
<path id="Vector 698" d="M1155.6 958.5C1154.6 956.5 1154 954.3 1154 952C1154 944.3 1160.3 938 1168 938L1168 940C1161.4 940 1156 945.4 1156 952C1156 954 1156.5 955.8 1157.4 957.5L1155.6 958.5ZM1180 952C1180 958.6 1174.6 964 1168 964C1165.1 964 1162.4 963 1160.3 961.2L1166 955.5L1164.6 954L1158.1 960.5C1157.7 960.9 1157.7 961.5 1158.1 961.9C1160.7 964.5 1164.3 966 1168 966C1175.7 966 1182 959.7 1182 952L1180 952Z" fill="currentColor" fill-rule="nonzero" />
		<path id="Vector 699" d="M1170 961C1169.9 961 1169.7 961 1169.6 960.9C1169.3 960.8 1169 960.5 1169 960.1L1168.3 955.1L1170.3 954.8L1170.7 958.1L1172.9 956.4L1172.9 951C1172.9 950.7 1173 950.5 1173.2 950.3L1176.4 947.1C1177.3 946.2 1177.9 944.9 1177.9 943.6L1177.9 942L1176.4 942C1175.1 942 1173.8 942.5 1172.9 943.5L1169.7 946.7C1169.5 946.9 1169.3 947 1169 947L1163.5 947L1161.8 949.2L1165.1 949.6L1164.8 951.6L1159.8 950.9C1159.4 950.9 1159.1 950.6 1159 950.3C1158.9 950 1158.9 949.6 1159.1 949.3L1162.1 945.3C1162.4 945.1 1162.7 945 1163 945L1168.6 945L1171.6 942C1172.9 940.7 1174.7 940 1176.5 940L1178 940C1179.1 940 1180 940.9 1180 942L1180 943.5C1180 945.4 1179.3 947.1 1178 948.4L1175 951.4L1175 957C1175 957.3 1174.9 957.6 1174.6 957.8L1170.6 960.8C1170.4 960.9 1170.2 961 1170 961Z" fill="currentColor" fill-rule="nonzero" />
  </g>
</svg>

