<svg viewBox="0 0 32 32" xmlns="http://www.w3.org/2000/svg" fill="none">
  <g transform="translate(-288 -936)">
<path id="Vector 663" d="M304 938C296.3 938 290 944.3 290 952C290 959.7 296.3 966 304 966L305 966L305 938L304 938ZM303 940L303 951L298 951C298.2 946.8 299.9 942.9 302.8 940.1L303 940.1L303 940ZM303 953L303 964L302.8 964C299.9 961.2 298.2 957.3 298 953.1L303 953.1L303 953ZM299.5 940.9C297.4 943.8 296.2 947.3 296 951L292 951C292.4 946.4 295.4 942.5 299.5 940.9ZM292 953L296 953C296.2 956.7 297.4 960.2 299.5 963.1C295.4 961.4 292.4 957.6 292 953ZM317 959L316 959L316 957C316 955.3 314.7 954 313 954C311.3 954 310 955.3 310 957L310 959L309 959C308.4 959 308 959.4 308 960L308 965C308 965.6 308.4 966 309 966L317 966C317.6 966 318 965.6 318 965L318 960C318 959.4 317.6 959 317 959ZM312 957C312 956.4 312.4 956 313 956C313.6 956 314 956.4 314 957L314 959L312 959L312 957ZM316 964L310 964L310 961L316 961L316 964ZM313 944C314.7 944 316 942.7 316 941C316 939.3 314.7 938 313 938C311.3 938 310 939.3 310 941C310 942.7 311.3 944 313 944ZM313 940C313.6 940 314 940.4 314 941C314 941.6 313.6 942 313 942C312.4 942 312 941.6 312 941C312 940.4 312.4 940 313 940ZM313 950C313.6 950 314 950.4 314 951C314 951.6 313.6 952 313 952C312.4 952 312 951.6 312 951C312 950.4 312.4 950 313 950ZM313 946C313.6 946 314 946.4 314 947C314 947.6 313.6 948 313 948C312.4 948 312 947.6 312 947C312 946.4 312.4 946 313 946Z" fill="currentColor" fill-rule="nonzero" />
  </g>
</svg>

