<svg viewBox="0 0 32 32" xmlns="http://www.w3.org/2000/svg" fill="none">
  <g transform="translate(-1800.000122 -864)">
<path id="Vector 650" d="M1826 886C1825.29 885.998 1824.59 886.207 1824 886.6L1819.41 882L1818 883.414L1822.6 888C1822.42 888.315 1822.29 888.651 1822.2 889L1809.86 889C1809.76 888.645 1809.6 888.308 1809.4 888L1824 873.4C1824.59 873.793 1825.29 874.002 1826 874C1826.75 874.003 1827.48 873.796 1828.12 873.402C1828.76 873.008 1829.27 872.443 1829.6 871.772C1829.93 871.1 1830.07 870.349 1830 869.604C1829.92 868.859 1829.64 868.15 1829.18 867.557C1828.73 866.964 1828.11 866.511 1827.41 866.251C1826.71 865.99 1825.95 865.931 1825.21 866.081C1824.48 866.232 1823.8 866.585 1823.26 867.101C1822.72 867.617 1822.33 868.275 1822.14 869L1809.9 869C1809.67 868.144 1809.16 867.387 1808.45 866.846C1807.75 866.305 1806.89 866.008 1806 866C1804.94 866 1803.92 866.421 1803.17 867.172C1802.42 867.922 1802 868.939 1802 870C1802 871.061 1802.42 872.078 1803.17 872.828C1803.92 873.579 1804.94 874 1806 874C1806.71 874.002 1807.41 873.793 1808 873.4L1812.59 878L1814 876.586L1809.4 872C1809.58 871.685 1809.71 871.349 1809.8 871L1822.14 871C1822.24 871.355 1822.4 871.692 1822.6 872L1808 886.6C1807.41 886.207 1806.71 885.998 1806 886C1805.25 885.997 1804.52 886.204 1803.88 886.598C1803.24 886.992 1802.73 887.557 1802.4 888.228C1802.07 888.9 1801.93 889.651 1802 890.396C1802.08 891.141 1802.36 891.85 1802.82 892.443C1803.27 893.036 1803.89 893.489 1804.59 893.75C1805.29 894.01 1806.05 894.069 1806.79 893.919C1807.52 893.768 1808.2 893.415 1808.74 892.899C1809.28 892.383 1809.67 891.725 1809.86 891L1822.1 891C1822.28 891.727 1822.67 892.388 1823.21 892.908C1823.75 893.427 1824.43 893.784 1825.16 893.938C1825.9 894.093 1826.66 894.038 1827.37 893.78C1828.07 893.522 1828.69 893.071 1829.15 892.479C1829.61 891.888 1829.9 891.178 1829.98 890.432C1830.06 889.685 1829.92 888.932 1829.6 888.257C1829.27 887.582 1828.76 887.013 1828.12 886.614C1827.49 886.215 1826.75 886.002 1826 886ZM1826 868C1826.4 868 1826.78 868.117 1827.11 868.337C1827.44 868.557 1827.7 868.869 1827.85 869.235C1828 869.6 1828.04 870.002 1827.96 870.39C1827.88 870.778 1827.69 871.135 1827.41 871.414C1827.13 871.694 1826.78 871.884 1826.39 871.962C1826 872.039 1825.6 871.999 1825.23 871.848C1824.87 871.696 1824.56 871.44 1824.34 871.111C1824.12 870.782 1824 870.396 1824 870C1824 869.47 1824.21 868.962 1824.59 868.588C1824.96 868.213 1825.47 868.002 1826 868ZM1806 872C1805.6 872 1805.22 871.883 1804.89 871.663C1804.56 871.443 1804.3 871.131 1804.15 870.765C1804 870.4 1803.96 869.998 1804.04 869.61C1804.12 869.222 1804.31 868.865 1804.59 868.586C1804.87 868.306 1805.22 868.116 1805.61 868.038C1806 867.961 1806.4 868.001 1806.77 868.152C1807.13 868.304 1807.44 868.56 1807.66 868.889C1807.88 869.218 1808 869.604 1808 870C1808 870.53 1807.79 871.038 1807.41 871.412C1807.04 871.787 1806.53 871.998 1806 872ZM1806 892C1805.6 892 1805.22 891.883 1804.89 891.663C1804.56 891.443 1804.3 891.131 1804.15 890.765C1804 890.4 1803.96 889.998 1804.04 889.61C1804.12 889.222 1804.31 888.865 1804.59 888.586C1804.87 888.306 1805.22 888.116 1805.61 888.038C1806 887.961 1806.4 888.001 1806.77 888.152C1807.13 888.304 1807.44 888.56 1807.66 888.889C1807.88 889.218 1808 889.604 1808 890C1808 890.53 1807.79 891.038 1807.41 891.412C1807.04 891.787 1806.53 891.998 1806 892ZM1826 892C1825.6 892 1825.22 891.883 1824.89 891.663C1824.56 891.443 1824.3 891.131 1824.15 890.765C1824 890.4 1823.96 889.998 1824.04 889.61C1824.12 889.222 1824.31 888.865 1824.59 888.586C1824.87 888.306 1825.22 888.116 1825.61 888.038C1826 887.961 1826.4 888.001 1826.77 888.152C1827.13 888.304 1827.44 888.56 1827.66 888.889C1827.88 889.218 1828 889.604 1828 890C1828 890.53 1827.79 891.038 1827.41 891.412C1827.04 891.787 1826.53 891.998 1826 892Z" fill="currentColor" fill-rule="nonzero" />
  </g>
</svg>

