<svg viewBox="0 0 32 32" xmlns="http://www.w3.org/2000/svg" fill="none">
  <g transform="translate(-792 -936)">
<path id="Vector 676" d="M820 938L810 938C808.9 938 808 938.9 808 940L808 946C808 947.1 808.9 948 810 948L812.4 948L814.1 951L815.8 950L813.5 946L810 946L810 940L820 940L820 946L817 946L817 948L820 948C821.1 948 822 947.1 822 946L822 940C822 938.9 821.1 938 820 938ZM806.7 967L805 966L808.5 960L814 960C815.1 960 816 959.1 816 958L816 953L818 953L818 958C818 960.2 816.2 962 814 962L809.6 962L806.7 967Z" fill="currentColor" fill-rule="nonzero" />
		<path id="Vector 677" d="M802 954C802.552 954 803 953.552 803 953C803 952.448 802.552 952 802 952C801.448 952 801 952.448 801 953C801 953.552 801.448 954 802 954Z" fill="currentColor" fill-rule="nonzero" />
		<path id="Vector 678" d="M806 954C806.552 954 807 953.552 807 953C807 952.448 806.552 952 806 952C805.448 952 805 952.448 805 953C805 953.552 805.448 954 806 954Z" fill="currentColor" fill-rule="nonzero" />
		<path id="Vector 679" d="M810 954C810.552 954 811 953.552 811 953C811 952.448 810.552 952 810 952C809.448 952 809 952.448 809 953C809 953.552 809.448 954 810 954Z" fill="currentColor" fill-rule="nonzero" />
		<path id="Vector 680" d="M804 962L798 962C795.8 962 794 960.2 794 958L794 948C794 945.8 795.8 944 798 944L806 944L806 946L798 946C796.9 946 796 946.9 796 948L796 958C796 959.1 796.9 960 798 960L804 960L804 962Z" fill="currentColor" fill-rule="nonzero" />
  </g>
</svg>

