<svg viewBox="0 0 32 32" xmlns="http://www.w3.org/2000/svg" fill="none">
  <g transform="translate(-864 -936)">
<path id="Vector 681" d="M870 953L878 953L878 955L870 955L870 953Z" fill="currentColor" fill-rule="nonzero" />
		<path id="Vector 682" d="M867 955C867.552 955 868 954.552 868 954C868 953.448 867.552 953 867 953C866.448 953 866 953.448 866 954C866 954.552 866.448 955 867 955Z" fill="currentColor" fill-rule="nonzero" />
		<path id="Vector 683" d="M877 951C877.552 951 878 950.552 878 950C878 949.448 877.552 949 877 949C876.448 949 876 949.448 876 950C876 950.552 876.448 951 877 951Z" fill="currentColor" fill-rule="nonzero" />
		<path id="Vector 684" d="M866 949L874 949L874 951L866 951L866 949ZM870 945L878 945L878 947L870 947L870 945Z" fill="currentColor" fill-rule="nonzero" />
		<path id="Vector 685" d="M867 947C867.552 947 868 946.552 868 946C868 945.448 867.552 945 867 945C866.448 945 866 945.448 866 946C866 946.552 866.448 947 867 947Z" fill="currentColor" fill-rule="nonzero" />
		<path id="Vector 686" d="M894 964.6L886.6 957.2C888.1 955.2 889 952.7 889 950C889 943.4 883.6 938 877 938C873.7 938 870.6 939.3 868.3 941.8L869.8 943.2C871.6 941.1 874.2 940 877 940C882.5 940 887 944.5 887 950C887 955.5 882.5 960 877 960C874 960 871.2 958.7 869.3 956.4L867.8 957.7C870 960.4 873.4 962 877 962C880.2 962 883.1 960.7 885.3 958.7L892.6 966L894 964.6Z" fill="currentColor" fill-rule="nonzero" />
  </g>
</svg>

