<svg viewBox="0 0 32 32" xmlns="http://www.w3.org/2000/svg" fill="none">
  <g transform="translate(-1440.000122 -864)">
<path id="Vector 641" d="M1460 880C1460 879.3 1459.8 878.6 1459.4 878L1462.7 874.7L1461.3 873.3L1458 876.6C1457.4 876.2 1456.7 876 1456 876C1455.3 876 1454.6 876.2 1454 876.6L1450.7 873.3L1449.3 874.7L1452.6 878C1452.2 878.6 1452 879.3 1452 880C1452 880.7 1452.2 881.4 1452.6 882L1449.3 885.3L1450.7 886.7L1454 883.4C1454.6 883.8 1455.3 884 1456 884C1456.7 884 1457.4 883.8 1458 883.4L1461.3 886.7L1462.7 885.3L1459.4 882C1459.8 881.4 1460 880.7 1460 880ZM1456 882C1454.9 882 1454 881.1 1454 880C1454 878.9 1454.9 878 1456 878C1457.1 878 1458 878.9 1458 880C1458 881.1 1457.1 882 1456 882Z" fill="currentColor" fill-rule="nonzero" />
		<path id="Vector 642" d="M1466 881L1472 881L1472 879L1469.9 879C1469.4 871.7 1463.4 866 1456 866C1448.3 866 1442 872.3 1442 880C1442 887.7 1448.3 894 1456 894C1461.2 894 1465.7 891.2 1468.1 887L1466.4 886C1464.3 889.6 1460.5 892 1456 892C1449.4 892 1444 886.6 1444 880C1444 873.4 1449.4 868 1456 868C1462.3 868 1467.4 872.9 1467.9 879L1466 879L1466 881Z" fill="currentColor" fill-rule="nonzero" />
  </g>
</svg>

