<svg viewBox="0 0 32 32" xmlns="http://www.w3.org/2000/svg" fill="none">
  <g transform="translate(-1584.000122 -864)">
<path id="Vector 644" d="M1614 882L1614 887.5C1614 889 1613.1 890.3 1611.7 891L1610 891.8L1608.3 891C1606.9 890.4 1606 889 1606 887.5L1606 882L1614 882ZM1616 880L1604 880L1604 887.5C1604 889.7 1605.3 891.8 1607.4 892.8L1610 894L1612.6 892.8C1614.7 891.8 1616 889.8 1616 887.5L1616 880Z" fill="currentColor" fill-rule="nonzero" />
		<path id="Vector 645" d="M1600 889L1591.5 889C1587.4 889 1584 885.6 1584 881.5C1584 877.8 1586.7 874.8 1590.2 874.1C1591.1 869.4 1595.2 866 1600 866C1605.5 866 1610 870.5 1610 876L1608 876C1608 871.6 1604.4 868 1600 868C1595.9 868 1592.5 871.1 1592 875.1L1592 876L1591.1 876C1588.2 876.2 1586 878.6 1586 881.5C1586 884.5 1588.5 887 1591.5 887L1600 887L1600 889Z" fill="currentColor" fill-rule="nonzero" />
  </g>
</svg>

