<svg viewBox="0 0 32 32" xmlns="http://www.w3.org/2000/svg" fill="none">
  <g transform="translate(-648 -936)">
<path id="Vector 673" d="M677 959L677 957C677 955.35 675.65 954 674 954C672.35 954 671 955.35 671 957L671 959C669.9 959 669 959.9 669 961L669 965C669 966.1 669.9 967 671 967L677 967C678.1 967 679 966.1 679 965L679 961C679 959.9 678.1 959 677 959ZM673 957C673 956.45 673.45 956 674 956C674.55 956 675 956.45 675 957L675 959L673 959L673 957ZM677 965L671 965L671 961L677 961L677 965ZM655 958.14L655 949L653 949L653 958.14C651.28 958.59 650 960.14 650 962C650 964.21 651.79 966 654 966C655.86 966 657.41 964.72 657.86 963L666 963L666 961L657.86 961C657.679 960.313 657.318 959.687 656.816 959.184C656.313 958.682 655.687 958.321 655 958.14ZM654 964C652.9 964 652 963.1 652 962C652 960.9 652.9 960 654 960C655.1 960 656 960.9 656 962C656 963.1 655.1 964 654 964ZM678 942C678 939.79 676.21 938 674 938C672.14 938 670.59 939.28 670.14 941L661 941L661 943L670.14 943C670.51 944.4 671.6 945.49 673 945.86L673 951L675 951L675 945.86C676.72 945.41 678 943.86 678 942ZM674 944C672.9 944 672 943.1 672 942C672 940.9 672.9 940 674 940C675.1 940 676 940.9 676 942C676 943.1 675.1 944 674 944Z" fill="currentColor" fill-rule="nonzero" />
		<path id="Vector 674" d="M658 944.59L658 938L650 938L650 946L656.59 946L667.586 957L669 955.586L658 944.59ZM656 944L652 944L652 940L656 940L656 944Z" fill="currentColor" fill-rule="nonzero" />
  </g>
</svg>

