<svg viewBox="0 0 32 32" xmlns="http://www.w3.org/2000/svg" fill="none">
  <g transform="translate(-1656.000122 -864)">
<path id="Vector 646" d="M1676 882L1676 888.5C1676 890.4 1677.1 892.2 1678.9 893L1681 894L1683.1 893C1684.8 892.2 1686 890.4 1686 888.5L1686 882L1676 882ZM1684 888.5C1684 889.7 1683.3 890.7 1682.3 891.2L1681 891.8L1679.7 891.2C1678.7 890.7 1678 889.6 1678 888.5L1678 884L1684 884L1684 888.5ZM1672 884C1669.8 884 1668 882.2 1668 880C1668 877.8 1669.8 876 1672 876C1674.2 876 1676 877.8 1676 880L1674 880C1674 878.9 1673.1 878 1672 878C1670.9 878 1670 878.9 1670 880C1670 881.1 1670.9 882 1672 882L1672 884Z" fill="currentColor" fill-rule="nonzero" />
		<path id="Vector 647" d="M1672 889C1667 889 1663 885 1663 880C1663 875 1667 871 1672 871C1677 871 1681 875 1681 880L1679 880C1679 876.1 1675.9 873 1672 873C1668.1 873 1665 876.1 1665 880C1665 883.9 1668.1 887 1672 887L1672 889Z" fill="currentColor" fill-rule="nonzero" />
		<path id="Vector 648" d="M1672 894C1664.3 894 1658 887.7 1658 880C1658 872.3 1664.3 866 1672 866C1679.7 866 1686 872.3 1686 880L1684 880C1684 873.4 1678.6 868 1672 868C1665.4 868 1660 873.4 1660 880C1660 886.6 1665.4 892 1672 892L1672 894Z" fill="currentColor" fill-rule="nonzero" />
  </g>
</svg>

