<svg viewBox="0 0 32 32" xmlns="http://www.w3.org/2000/svg" fill="none">
  <g transform="translate(-936 -936)">
<path id="Vector 687" d="M959 963.2L956.4 960.6L955 962L959 966L966 959L964.6 957.6L959 963.2ZM948 954L956 954L956 956L948 956L948 954ZM948 949L956 949L956 951L948 951L948 949ZM948 944L956 944L956 946L948 946L948 944Z" fill="currentColor" fill-rule="nonzero" />
		<path id="Vector 688" d="M952 964L942 964L942 960L944 960L944 958L942 958L942 953L944 953L944 951L942 951L942 946L944 946L944 944L942 944L942 940L960 940L960 956L962 956L962 940C962 938.9 961.1 938 960 938L942 938C940.9 938 940 938.9 940 940L940 944L938 944L938 946L940 946L940 951L938 951L938 953L940 953L940 958L938 958L938 960L940 960L940 964C940 965.1 940.9 966 942 966L952 966L952 964Z" fill="currentColor" fill-rule="nonzero" />
  </g>
</svg>

