<svg viewBox="0 0 32 32" xmlns="http://www.w3.org/2000/svg" fill="none">
  <g transform="translate(-504 -936)">
<path id="Vector 666" d="M532.8 959.4C531.8 961.7 526.8 964 520 964C512.3 964 507 961.1 507 958.5C507 956.4 510.6 954 516.1 953.3L515.8 951.3C509.5 952.2 505 955 505 958.5C505 962.7 511.6 966 520 966C527.1 966 532.9 963.6 534.5 960.4L532.8 959.4Z" fill="currentColor" fill-rule="nonzero" />
		<path id="Vector 667" d="M528.5 956.9C527.3 957.9 524.3 959 520 959C515.7 959 512.7 957.9 511.5 956.9L509.7 957.9C511.4 959.9 515.8 961 519.9 961C524.1 961 528.4 959.9 530.1 957.9L528.5 956.9Z" fill="currentColor" fill-rule="nonzero" />
		<path id="Vector 668" d="M520 954C521.105 954 522 953.105 522 952C522 950.895 521.105 950 520 950C518.895 950 518 950.895 518 952C518 953.105 518.895 954 520 954Z" fill="currentColor" fill-rule="nonzero" />
		<path id="Vector 669" d="M520 943C515.8 943 511.5 944.1 509.8 946.1L511.6 947.1C512.7 946.1 515.8 945 520 945C524.2 945 527.3 946.1 528.5 947.1L530.3 946.1C528.5 944.1 524.2 943 520 943Z" fill="currentColor" fill-rule="nonzero" />
		<path id="Vector 670" d="M535 945.5C535 941.3 528.4 938 520 938C512.9 938 507.1 940.4 505.5 943.6L507.2 944.6C508.2 942.3 513.2 940 520 940C527.7 940 533 942.9 533 945.5C533 947.6 529.4 950 523.9 950.7L524.2 952.7C530.5 951.8 535 949 535 945.5Z" fill="currentColor" fill-rule="nonzero" />
  </g>
</svg>

