<svg viewBox="0 0 32 32" xmlns="http://www.w3.org/2000/svg" fill="none">
  <g transform="translate(-1296 -936)">
<path id="Vector 701" d="M1302 959L1307 959L1307 961L1302 961L1302 959ZM1302 955L1307 955L1307 957L1302 957L1302 955Z" fill="currentColor" fill-rule="nonzero" />
		<path id="Vector 702" d="M1309 966L1300 966C1298.9 966 1298 965.1 1298 964L1298 953C1298 951.9 1298.9 951 1300 951L1309 951C1310.1 951 1311 951.9 1311 953L1311 964C1311 965.1 1310.1 966 1309 966ZM1300 953L1300 964L1309 964L1309 953L1300 953ZM1315 938L1323 938L1323 940L1315 940L1315 938ZM1318 942L1326 942L1326 944L1318 944L1318 942ZM1318 946L1326 946L1326 948L1318 948L1318 946ZM1315 950L1323 950L1323 952L1315 952L1315 950ZM1318 954L1326 954L1326 956L1318 956L1318 954ZM1308 937L1306.6 938.4L1309.2 941L1300 941C1298.9 941 1298 941.9 1298 943L1298 948L1300 948L1300 943L1309.2 943L1306.6 945.6L1308 947L1313 942L1308 937Z" fill="currentColor" fill-rule="nonzero" />
  </g>
</svg>

