<svg viewBox="0 0 32 32" xmlns="http://www.w3.org/2000/svg" fill="none">
  <g transform="translate(-1080 -936)">
<path id="Vector 697" d="M1096 964L1093 964C1089.1 964 1086 960.9 1086 957L1086 953L1088 953L1088 957C1088 959.8 1090.2 962 1093 962L1096 962L1096 964ZM1108 966L1110.2 966L1105.6 955L1103.4 955L1098.8 966L1101 966L1101.8 964L1107.1 964L1108 966ZM1102.7 962L1104.5 957.6L1106.3 962L1102.7 962ZM1108 951L1106 951L1106 947C1106 944.2 1103.8 942 1101 942L1097 942L1097 940L1101 940C1104.9 940 1108 943.1 1108 947L1108 951ZM1094 941L1094 939L1089 939L1089 937L1087 937L1087 939L1082 939L1082 941L1090.2 941C1090 941.9 1089.4 943.5 1088 945C1087.4 944.3 1086.9 943.6 1086.6 943L1084.3 943C1084.7 944 1085.4 945.2 1086.4 946.3C1085.6 947 1084.4 947.6 1083 948.1L1083.7 950C1085.5 949.3 1086.9 948.5 1088 947.7C1089.1 948.6 1090.5 949.4 1092.3 950L1093 948.1C1091.6 947.6 1090.4 946.9 1089.5 946.3C1091.4 944.3 1092 942.2 1092.2 941L1094 941Z" fill="currentColor" fill-rule="nonzero" />
  </g>
</svg>

