<svg viewBox="0 0 32 32" xmlns="http://www.w3.org/2000/svg" fill="none">
  <g transform="translate(-1512.000122 -936)">
<path id="Vector 707" d="M1534 960L1533.5 960L1530.2 954C1530.7 953.5 1531 952.8 1531 952C1531 950.3 1529.7 949 1528 949C1526.3 949 1525 950.3 1525 952C1525 952.8 1525.3 953.5 1525.8 954L1522.5 960L1522 960C1520.3 960 1519 961.3 1519 963C1519 964.7 1520.3 966 1522 966C1523.7 966 1525 964.7 1525 963C1525 962.2 1524.7 961.5 1524.2 961L1527.5 954.9L1528.5 954.9L1531.8 961C1531.3 961.5 1531 962.2 1531 963C1531 964.7 1532.3 966 1534 966C1535.7 966 1537 964.7 1537 963C1537 961.3 1535.7 960 1534 960ZM1528 951C1528.6 951 1529 951.4 1529 952C1529 952.6 1528.6 953 1528 953C1527.4 953 1527 952.6 1527 952C1527 951.4 1527.4 951 1528 951ZM1522 964C1521.4 964 1521 963.6 1521 963C1521 962.4 1521.4 962 1522 962C1522.6 962 1523 962.4 1523 963C1523 963.6 1522.6 964 1522 964ZM1534 964C1533.4 964 1533 963.6 1533 963C1533 962.4 1533.4 962 1534 962C1534.6 962 1535 962.4 1535 963C1535 963.6 1534.6 964 1534 964Z" fill="currentColor" fill-rule="nonzero" />
		<path id="Vector 708" d="M1536.8 945.1C1535.9 941 1532.3 938 1528 938C1523.7 938 1520.1 941 1519.2 945.1C1516.2 945.7 1514 948.4 1514 951.5C1514 955.1 1516.9 958 1520.5 958L1521 958L1521 956L1520.5 956C1518 956 1516 954 1516 951.5C1516 949.2 1517.8 947.2 1520.1 947L1521 947L1521.1 946.2C1521.5 942.6 1524.5 940 1528 940C1531.5 940 1534.5 942.6 1534.9 946.1L1535 947L1535.8 947.1C1538.1 947.3 1539.9 949.3 1539.9 951.6C1539.9 954.1 1537.9 956.1 1535.4 956.1L1535 956.1L1535 958.1L1535.5 958.1C1539.1 958.1 1542 955.2 1542 951.6C1542 948.4 1539.8 945.7 1536.8 945.1Z" fill="currentColor" fill-rule="nonzero" />
  </g>
</svg>

