<svg viewBox="0 0 32 32" xmlns="http://www.w3.org/2000/svg" fill="none">
  <g transform="translate(-0 -936)">
<path id="Vector 655" d="M9 963C9.55228 963 10 962.552 10 962C10 961.448 9.55228 961 9 961C8.44772 961 8 961.448 8 962C8 962.552 8.44772 963 9 963Z" fill="currentColor" fill-rule="nonzero" />
		<path id="Vector 656" d="M26 958L21 958L21 960L26 960L26 964L6 964L6 960L15 960C16.1 960 17 959.1 17 958L17 948.83L19.59 951.42L21 950L16 945L11 950L12.41 951.41L15 948.83L15 958L6 958C4.9 958 4 958.9 4 960L4 964C4 965.1 4.9 966 6 966L26 966C27.1 966 28 965.1 28 964L28 960C28 958.9 27.1 958 26 958Z" fill="currentColor" fill-rule="nonzero" />
		<path id="Vector 657" d="M23.75 944.05C22.87 940.55 19.67 938 16 938C12.33 938 9.13 940.55 8.25 944.05C5.29 944.42 3 946.95 3 950C3 953.31 5.69 956 9 956L11 956L11 954L9 954C6.79 954 5 952.21 5 950C5 947.81 6.77 946.03 8.95 946L9.94 946.02L10.06 945.14C10.49 942.21 13.04 940 16 940C18.96 940 21.51 942.21 21.93 945.15L22.05 946.03L22.93 946.01L23.06 946C24.1104 946.016 25.1125 946.444 25.8497 947.193C26.5869 947.941 27.0001 948.949 27 950C27 952.21 25.21 954 23 954L21 954L21 956L23 956C26.31 956 29 953.31 29 950C29 946.95 26.71 944.42 23.75 944.05Z" fill="currentColor" fill-rule="nonzero" />
  </g>
</svg>

