<svg viewBox="0 0 32 32" xmlns="http://www.w3.org/2000/svg" fill="none">
  <g transform="translate(-576 -936)">
<path id="Vector 671" d="M598 946C595.794 946 594 944.206 594 942C594 939.794 595.794 938 598 938C600.206 938 602 939.794 602 942C602 944.206 600.206 946 598 946ZM598 940C596.898 940 596 940.897 596 942C596 943.103 596.898 944 598 944C599.102 944 600 943.103 600 942C600 940.897 599.103 940 598 940ZM597 955L590 955L590 948L597 948L597 955ZM592 953L595 953L595 950L592 950L592 953ZM588.618 948L579.382 948L584 938.764L588.618 948ZM582.618 946L585.382 946L584 943.236L582.618 946Z" fill="currentColor" fill-rule="nonzero" />
		<path id="Vector 672" d="M596 966L588 966C586.897 966 586 965.103 586 964L586 959.535L580.89 956.13C580.616 955.947 580.391 955.7 580.236 955.409C580.081 955.119 580 954.794 580 954.465L580 950L582 950L582 954.465L587.11 957.871C587.667 958.243 588 958.865 588 959.535L588 964L596 964L596 959.535C596 958.865 596.333 958.243 596.89 957.871L602 954.465L602 948L604 948L604 954.465C604 955.135 603.667 955.757 603.11 956.129L598 959.535L598 964C598 965.103 597.103 966 596 966Z" fill="currentColor" fill-rule="nonzero" />
  </g>
</svg>

