<svg viewBox="0 0 32 32" xmlns="http://www.w3.org/2000/svg" fill="none">
  <g transform="translate(-1296 -864)">
<path id="Vector 638" d="M1326 882L1316 882L1316 888.468C1316 889.414 1316.27 890.341 1316.78 891.141C1317.28 891.941 1318.01 892.581 1318.86 892.988L1321 894L1323.14 892.987C1323.99 892.58 1324.72 891.94 1325.22 891.14C1325.73 890.34 1326 889.414 1326 888.467L1326 882ZM1321 891.786L1319.72 891.179C1319.2 890.935 1318.77 890.551 1318.47 890.071C1318.16 889.592 1318 889.036 1318 888.468L1318 884L1324 884L1324 888.468C1324 889.036 1323.84 889.591 1323.53 890.071C1323.23 890.55 1322.8 890.934 1322.28 891.178L1321 891.786ZM1313 882L1301 882C1300.47 882 1299.96 882.211 1299.59 882.586C1299.21 882.961 1299 883.47 1299 884L1299 889C1299 889.53 1299.21 890.039 1299.59 890.414C1299.96 890.789 1300.47 891 1301 891L1313 891L1313 889L1301 889L1301 884L1313 884L1313 882ZM1323 868L1318 868C1317.47 868 1316.96 868.211 1316.59 868.586C1316.21 868.961 1316 869.47 1316 870L1316 879L1318 879L1318 870L1323 870L1323 879L1325 879L1325 870C1325 869.47 1324.79 868.961 1324.41 868.586C1324.04 868.211 1323.53 868 1323 868ZM1311 868L1301 868C1300.47 868 1299.96 868.211 1299.59 868.586C1299.21 868.961 1299 869.47 1299 870L1299 877C1299 877.53 1299.21 878.039 1299.59 878.414C1299.96 878.789 1300.47 879 1301 879L1311 879C1311.53 879 1312.04 878.789 1312.41 878.414C1312.79 878.039 1313 877.53 1313 877L1313 870C1313 869.47 1312.79 868.961 1312.41 868.586C1312.04 868.211 1311.53 868 1311 868ZM1301 877L1301 870L1311 870L1311 877L1301 877Z" fill="currentColor" fill-rule="nonzero" />
  </g>
</svg>

