<svg viewBox="0 0 32 32" xmlns="http://www.w3.org/2000/svg" fill="none">
  <g transform="translate(-1584.000122 -936)">
<path id="Vector 709" d="M1611 949C1610.38 949.002 1609.78 949.195 1609.27 949.553C1608.77 949.911 1608.39 950.417 1608.18 951L1606 951L1606 953L1608.18 953C1608.39 953.583 1608.77 954.089 1609.27 954.447C1609.78 954.805 1610.38 954.998 1611 955C1612.65 955 1614 953.654 1614 952C1614 950.346 1612.65 949 1611 949ZM1611 953C1610.73 953 1610.48 952.894 1610.29 952.707C1610.11 952.519 1610 952.264 1610 951.999C1610 951.734 1610.11 951.479 1610.29 951.292C1610.48 951.104 1610.74 950.999 1611 950.999C1611.27 950.999 1611.52 951.105 1611.71 951.292C1611.9 951.48 1612 951.735 1612 952C1612 952.265 1611.9 952.52 1611.71 952.707C1611.52 952.895 1611.27 953 1611 953ZM1609 958C1608.54 958 1608.11 958.114 1607.72 958.3L1604.97 955.552L1603.55 956.966L1606.3 959.715C1606.11 960.105 1606 960.538 1606 961C1606 962.654 1607.35 964 1609 964C1610.65 964 1612 962.654 1612 961C1612 959.346 1610.65 958 1609 958ZM1609 962C1608.73 962 1608.48 961.894 1608.29 961.707C1608.11 961.519 1608 961.264 1608 960.999C1608 960.734 1608.11 960.479 1608.29 960.292C1608.48 960.104 1608.74 959.999 1609 959.999C1609.13 959.999 1609.26 960.025 1609.38 960.075C1609.51 960.126 1609.62 960.199 1609.71 960.292C1609.8 960.385 1609.87 960.496 1609.93 960.617C1609.98 960.739 1610 960.869 1610 961C1610 961.131 1609.98 961.261 1609.92 961.383C1609.87 961.504 1609.8 961.615 1609.71 961.707C1609.61 961.8 1609.5 961.874 1609.38 961.924C1609.26 961.974 1609.13 962 1609 962ZM1609 940C1607.35 940 1606 941.346 1606 943C1606 943.462 1606.11 943.894 1606.3 944.285L1603.32 947.269L1604.73 948.683L1607.72 945.7C1608.11 945.887 1608.54 946.001 1609 946.001C1610.65 946.001 1612 944.655 1612 943.001C1612 941.347 1610.65 940 1609 940ZM1609 944.001C1608.73 944.001 1608.48 943.895 1608.29 943.708C1608.11 943.52 1608 943.265 1608 943C1608 942.735 1608.11 942.48 1608.29 942.293C1608.48 942.105 1608.74 942 1609 942C1609.27 942 1609.52 942.106 1609.71 942.293C1609.9 942.481 1610 942.735 1610 943C1610 943.266 1609.9 943.52 1609.71 943.707C1609.52 943.895 1609.27 944 1609 944M1600 966C1592.28 966 1586 959.72 1586 952C1586 944.28 1592.28 938 1600 938C1601.87 938 1603.68 938.361 1605.39 939.073L1604.62 940.919C1603.15 940.309 1601.58 939.996 1600 940C1593.38 940 1588 945.383 1588 952C1588 958.617 1593.38 964 1600 964C1601.6 964 1603.15 963.69 1604.62 963.081L1605.39 964.927C1603.68 965.639 1601.85 966.004 1600 966ZM1600 956C1597.79 956 1596 954.206 1596 952C1596 949.794 1597.79 948 1600 948C1602.21 948 1604 949.794 1604 952C1604 954.206 1602.21 956 1600 956ZM1600 950C1598.9 950 1598 950.898 1598 952C1598 953.102 1598.9 954 1600 954C1601.1 954 1602 953.103 1602 952C1602 950.897 1601.1 950 1600 950Z" fill="currentColor" fill-rule="nonzero" />
  </g>
</svg>

