<svg viewBox="0 0 32 32" xmlns="http://www.w3.org/2000/svg" fill="none">
  <g transform="translate(-1512.000122 -864)">
<path id="Vector 643" d="M1538 887L1530 887C1527.79 887 1526 885.21 1526 883C1526 882.1 1526.31 881.227 1526.87 880.521C1527.42 879.816 1528.2 879.319 1529.08 879.11C1529.5 876.78 1531.55 875 1534 875C1536.45 875 1538.5 876.77 1538.92 879.11C1539.8 879.319 1540.58 879.816 1541.13 880.521C1541.69 881.227 1542 882.1 1542 883C1542 885.21 1540.21 887 1538 887ZM1530 885L1538 885C1539.1 885 1540 884.1 1540 883C1540 881.9 1539.1 881 1538 881L1537 881L1537 880C1537 878.35 1535.65 877 1534 877C1532.35 877 1531 878.35 1531 880L1531 881L1530 881C1528.9 881 1528 881.9 1528 883C1528 884.1 1528.9 885 1530 885ZM1536 866L1518 866C1516.9 866 1516 866.9 1516 868L1516 882.3C1516 886.2 1518.1 889.8 1521.5 891.8L1527 895L1532.4 891.8C1532.9 891.51 1533.37 891.18 1533.82 890.82L1532.45 889.45C1532.15 889.68 1531.83 889.9 1531.51 890.11L1527.01 892.81L1522.51 890.11C1519.71 888.51 1518.01 885.51 1518.01 882.31L1518.01 868L1536.01 868L1536.01 873L1538.01 873L1538.01 868C1538.01 866.9 1537.11 866 1536.01 866L1536 866Z" fill="currentColor" fill-rule="nonzero" />
  </g>
</svg>

