<svg viewBox="0 0 32 32" xmlns="http://www.w3.org/2000/svg" fill="none">
  <g transform="translate(-1656.000122 -936)">
<path id="Vector 710" d="M1681 955L1681 951C1681 950.47 1680.79 949.961 1680.41 949.586C1680.04 949.211 1679.53 949 1679 949L1675 949C1674.47 949 1673.96 949.211 1673.59 949.586C1673.21 949.961 1673 950.47 1673 951L1673 957C1673 957.53 1673.21 958.037 1673.59 958.411C1673.96 958.786 1674.47 958.997 1675 959L1680 959L1680 957L1675 957L1675 955L1681 955ZM1675 951L1679 951L1679 953L1675 953L1675 951ZM1671 947L1671 945L1663 945L1663 959L1671 959L1671 957L1665 957L1665 953L1670 953L1670 951L1665 951L1665 947L1671 947Z" fill="currentColor" fill-rule="nonzero" />
  </g>
</svg>

