<svg viewBox="0 0 32 32" xmlns="http://www.w3.org/2000/svg" fill="none">
  <g transform="translate(-0 -1008)">
<path id="Vector 715" d="M20 1017L22 1017L22 1019L20 1019L20 1017ZM20 1033L17 1033L17 1035L20 1035C20.5304 1035 21.0391 1034.79 21.4142 1034.41C21.7893 1034.04 22 1033.53 22 1033L22 1021L20 1021L20 1033ZM14 1031L10 1031C9.46957 1031 8.96086 1030.79 8.58579 1030.41C8.21071 1030.04 8 1029.53 8 1029L8 1027L10 1027L10 1029L14 1029L14 1017L16 1017L16 1029C16 1029.53 15.7893 1030.04 15.4142 1030.41C15.0391 1030.79 14.5304 1031 14 1031Z" fill="currentColor" fill-rule="nonzero" />
  </g>
</svg>

