<svg viewBox="0 0 32 32" xmlns="http://www.w3.org/2000/svg" fill="none">
  <g transform="translate(-504 -1008)">
<path id="Vector 722" d="M523 1021C522.47 1021 521.961 1021.21 521.586 1021.59C521.211 1021.96 521 1022.47 521 1023L521 1029C521 1029.53 521.211 1030.04 521.586 1030.41C521.961 1030.79 522.47 1031 523 1031L527 1031L527 1035L529 1035L529 1021L523 1021ZM527 1029L523 1029L523 1023L527 1023L527 1029ZM517 1017L513 1017C512.47 1017 511.961 1017.21 511.586 1017.59C511.211 1017.96 511 1018.47 511 1019L511 1029C511 1029.53 511.211 1030.04 511.586 1030.41C511.961 1030.79 512.47 1031 513 1031L514 1031L514 1033C514 1033.53 514.211 1034.04 514.586 1034.41C514.961 1034.79 515.47 1035 516 1035L518 1035L518 1033L516 1033L516 1031L517 1031C517.53 1031 518.039 1030.79 518.414 1030.41C518.789 1030.04 519 1029.53 519 1029L519 1019C519 1018.47 518.789 1017.96 518.414 1017.59C518.039 1017.21 517.53 1017 517 1017ZM513 1029L513 1019L517 1019L517 1029L513 1029Z" fill="currentColor" fill-rule="nonzero" />
  </g>
</svg>

