<svg viewBox="0 0 32 32" xmlns="http://www.w3.org/2000/svg" fill="none">
  <g transform="translate(-1728.000122 -936)">
<path id="Vector 711" d="M1744 947L1744 945L1736 945L1736 959L1738 959L1738 953L1743 953L1743 951L1738 951L1738 947L1744 947ZM1752 947L1752 945L1749 945C1748.47 945 1747.96 945.211 1747.59 945.586C1747.21 945.961 1747 946.47 1747 947L1747 949L1745 949L1745 951L1747 951L1747 959L1749 959L1749 951L1752 951L1752 949L1749 949L1749 947L1752 947Z" fill="currentColor" fill-rule="nonzero" />
  </g>
</svg>

