<svg viewBox="0 0 32 32" xmlns="http://www.w3.org/2000/svg" fill="none">
  <g transform="translate(-360 -1008)">
<path id="Vector 720" d="M383 1031L379 1031C378.47 1031 377.961 1030.79 377.586 1030.41C377.211 1030.04 377 1029.53 377 1029L377 1023C377 1022.47 377.211 1021.96 377.586 1021.59C377.961 1021.21 378.47 1021 379 1021L383 1021C383.53 1021 384.039 1021.21 384.414 1021.59C384.789 1021.96 385 1022.47 385 1023L385 1029C385 1029.53 384.789 1030.04 384.414 1030.41C384.039 1030.79 383.53 1031 383 1031ZM379 1023L379 1029L383 1029L383 1023L379 1023ZM373 1031L369 1031C368.47 1031 367.961 1030.79 367.586 1030.41C367.211 1030.04 367 1029.53 367 1029L367 1019C367 1018.47 367.211 1017.96 367.586 1017.59C367.961 1017.21 368.47 1017 369 1017L373 1017C373.53 1017 374.039 1017.21 374.414 1017.59C374.789 1017.96 375 1018.47 375 1019L375 1029C375 1029.53 374.789 1030.04 374.414 1030.41C374.039 1030.79 373.53 1031 373 1031ZM369 1019L369 1029L373 1029L373 1019L369 1019Z" fill="currentColor" fill-rule="nonzero" />
  </g>
</svg>

