<svg viewBox="0 0 32 32" xmlns="http://www.w3.org/2000/svg" fill="none">
  <g transform="translate(-432 -1008)">
<path id="Vector 721" d="M455 1021L449 1021L449 1035L451 1035L451 1031L455 1031C455.53 1031 456.039 1030.79 456.414 1030.41C456.789 1030.04 457 1029.53 457 1029L457 1023C457 1022.47 456.789 1021.96 456.414 1021.59C456.039 1021.21 455.53 1021 455 1021ZM451 1029L451 1023L455 1023L455 1029L451 1029ZM441 1031L439 1031L439 1017L445 1017C445.53 1017 446.039 1017.21 446.414 1017.59C446.789 1017.96 447 1018.47 447 1019L447 1024C447 1024.53 446.789 1025.04 446.414 1025.41C446.039 1025.79 445.53 1026 445 1026L441 1026L441 1031ZM441 1024L445 1024L445 1019L441 1019L441 1024Z" fill="currentColor" fill-rule="nonzero" />
  </g>
</svg>

