<svg viewBox="0 0 32 32" xmlns="http://www.w3.org/2000/svg" fill="none">
  <g transform="translate(-576 -1008)">
<path id="Vector 723" d="M592 1023L592 1019C592 1018.47 591.789 1017.96 591.414 1017.59C591.039 1017.21 590.53 1017 590 1017L584 1017L584 1031L586 1031L586 1025L587.48 1025L589.82 1031L592 1031L589.67 1025L590 1025C590.53 1025 591.039 1024.79 591.414 1024.41C591.789 1024.04 592 1023.53 592 1023ZM586 1019L590 1019L590 1023L586 1023L586 1019ZM600 1021L594 1021L594 1031L596 1031L596 1023L600 1023L600 1021Z" fill="currentColor" fill-rule="nonzero" />
  </g>
</svg>

