<svg viewBox="0 0 32 32" xmlns="http://www.w3.org/2000/svg" fill="none">
  <g transform="translate(-216 -1008)">
<path id="Vector 718" d="M240 1021L232 1021L232 1031L234 1031L234 1023L236 1023L236 1031L238 1031L238 1023L240 1023L240 1031L242 1031L242 1023C242 1022.47 241.789 1021.96 241.414 1021.59C241.039 1021.21 240.53 1021 240 1021ZM228 1017L226.48 1022L226 1023.98L225.54 1022L224 1017L222 1017L222 1031L224 1031L224 1023L223.84 1021L224.42 1023L226 1027.63L227.58 1023L228.16 1021L228 1023L228 1031L230 1031L230 1017L228 1017Z" fill="currentColor" fill-rule="nonzero" />
  </g>
</svg>

