<svg viewBox="0 0 32 32" xmlns="http://www.w3.org/2000/svg" fill="none">
  <g transform="translate(-1872.000122 -936)">
<path id="Vector 713" d="M1885 945L1885 951L1881 951L1881 945L1879 945L1879 959L1881 959L1881 953L1885 953L1885 959L1887 959L1887 945L1885 945ZM1895 949L1891 949L1891 945L1889 945L1889 959L1891 959L1891 951L1895 951L1895 959L1897 959L1897 951C1897 950.47 1896.79 949.961 1896.41 949.586C1896.04 949.211 1895.53 949 1895 949Z" fill="currentColor" fill-rule="nonzero" />
  </g>
</svg>

