<svg viewBox="0 0 32 32" xmlns="http://www.w3.org/2000/svg" fill="none">
  <g transform="translate(-648 -1008)">
<path id="Vector 724" d="M670 1031L665 1031L665 1029L670 1029L670 1027L667 1027C666.47 1027 665.961 1026.79 665.586 1026.41C665.211 1026.04 665 1025.53 665 1025L665 1023C665 1022.47 665.211 1021.96 665.586 1021.59C665.961 1021.21 666.47 1021 667 1021L672 1021L672 1023L667 1023L667 1025L670 1025C670.53 1025 671.039 1025.21 671.414 1025.59C671.789 1025.96 672 1026.47 672 1027L672 1029C672 1029.53 671.789 1030.04 671.414 1030.41C671.039 1030.79 670.53 1031 670 1031ZM661 1031L655 1031L655 1029L661 1029L661 1025L657 1025C656.47 1025 655.961 1024.79 655.586 1024.41C655.211 1024.04 655 1023.53 655 1023L655 1019C655 1018.47 655.211 1017.96 655.586 1017.59C655.961 1017.21 656.47 1017 657 1017L663 1017L663 1019L657 1019L657 1023L661 1023C661.53 1023 662.039 1023.21 662.414 1023.59C662.789 1023.96 663 1024.47 663 1025L663 1029C663 1029.53 662.789 1030.04 662.414 1030.41C662.039 1030.79 661.53 1031 661 1031Z" fill="currentColor" fill-rule="nonzero" />
  </g>
</svg>

