<svg viewBox="0 0 32 32" xmlns="http://www.w3.org/2000/svg" fill="none">
  <g transform="translate(-936 -1008)">
<path id="Vector 728" d="M960.3 1021L959.39 1029.61L958 1021L956 1021L954.61 1029.61L953.7 1021L952 1021L953.36 1031L955.64 1031L957 1022.63L958.36 1031L960.64 1031L962 1021L960.3 1021ZM948.21 1017L947.87 1025L947.61 1029.54L947.2 1026L946.52 1020.54L944.5 1020.54L943.82 1026L943.41 1029.54L943.16 1025L942.81 1017L941.01 1017L942.01 1031L944.28 1031L945.04 1026.07L945.5 1022L945.51 1021.97L945.52 1022L945.98 1026.07L946.74 1031L949.01 1031L950.01 1017L948.21 1017Z" fill="currentColor" fill-rule="nonzero" />
  </g>
</svg>

