<svg viewBox="0 0 32 32" xmlns="http://www.w3.org/2000/svg" fill="none">
  <g transform="translate(-1800.000122 -936)">
<path id="Vector 712" d="M1819 949C1818.47 949 1817.96 949.211 1817.59 949.586C1817.21 949.961 1817 950.47 1817 951L1817 957C1817 957.53 1817.21 958.039 1817.59 958.414C1817.96 958.789 1818.47 959 1819 959L1823 959L1823 961L1818 961L1818 963L1823 963C1823.53 963 1824.04 962.789 1824.41 962.414C1824.79 962.039 1825 961.53 1825 961L1825 949L1819 949ZM1823 957L1819 957L1819 951L1823 951L1823 957ZM1815 959L1809 959C1808.47 959 1807.96 958.789 1807.59 958.414C1807.21 958.039 1807 957.53 1807 957L1807 947C1807 946.47 1807.21 945.961 1807.59 945.586C1807.96 945.211 1808.47 945 1809 945L1815 945L1815 947L1809 947L1809 957L1813 957L1813 953L1811 953L1811 951L1815 951L1815 959Z" fill="currentColor" fill-rule="nonzero" />
  </g>
</svg>

