<svg viewBox="0 0 32 32" xmlns="http://www.w3.org/2000/svg" fill="none">
  <g transform="translate(-792 -1008)">
<path id="Vector 726" d="M815 1031L811 1031C810.47 1031 809.961 1030.79 809.586 1030.41C809.211 1030.04 809 1029.53 809 1029L809 1021L811 1021L811 1029L815 1029L815 1021L817 1021L817 1029C817 1029.53 816.789 1030.04 816.414 1030.41C816.039 1030.79 815.53 1031 815 1031ZM805 1031L801 1031C800.47 1031 799.961 1030.79 799.586 1030.41C799.211 1030.04 799 1029.53 799 1029L799 1017L801 1017L801 1029L805 1029L805 1017L807 1017L807 1029C807 1029.53 806.789 1030.04 806.414 1030.41C806.039 1030.79 805.53 1031 805 1031Z" fill="currentColor" fill-rule="nonzero" />
  </g>
</svg>

