<svg viewBox="0 0 32 32" xmlns="http://www.w3.org/2000/svg" fill="none">
  <g transform="translate(-1224 -1008)">
<path id="Vector 732" d="M1234 1014L1246 1014L1246 1016L1234 1016L1234 1014ZM1234 1018L1246 1018L1246 1020L1234 1020L1234 1018ZM1234 1032L1240 1032L1240 1034L1234 1034L1234 1032ZM1234 1022L1240 1022L1240 1024L1234 1024L1234 1022Z" fill="currentColor" fill-rule="nonzero" />
		<path id="Vector 733" d="M1248 1038L1232 1038C1231.47 1038 1230.96 1037.79 1230.59 1037.41C1230.21 1037.04 1230 1036.53 1230 1036L1230 1012C1230 1011.47 1230.21 1010.96 1230.59 1010.59C1230.96 1010.21 1231.47 1010 1232 1010L1248 1010C1248.53 1010 1249.04 1010.21 1249.41 1010.59C1249.79 1010.96 1250 1011.47 1250 1012L1250 1036C1250 1036.53 1249.79 1037.04 1249.41 1037.41C1249.04 1037.79 1248.53 1038 1248 1038ZM1232 1012L1232 1036L1248 1036L1248 1012L1232 1012Z" fill="currentColor" fill-rule="nonzero" />
  </g>
</svg>

