<svg viewBox="0 0 32 32" xmlns="http://www.w3.org/2000/svg" fill="none">
  <g transform="translate(-1512.000122 -1008)">
<path id="Vector 740" d="M1541.71 1027.29L1538.71 1024.29C1538.52 1024.11 1538.27 1024 1538 1024C1537.73 1024 1537.48 1024.11 1537.29 1024.29L1528 1033.59L1528 1038L1532.41 1038L1541.71 1028.71C1541.89 1028.52 1542 1028.27 1542 1028C1542 1027.73 1541.89 1027.48 1541.71 1027.29ZM1531.59 1036L1530 1036L1530 1034.41L1535 1029.41L1536.59 1031L1531.59 1036ZM1538 1029.59L1536.41 1028L1538 1026.41L1539.59 1028L1538 1029.59ZM1532 1021L1532 1019L1529.86 1019C1529.76 1018.64 1529.62 1018.3 1529.43 1017.98L1530.95 1016.46L1529.54 1015.05L1528.02 1016.57C1527.7 1016.38 1527.36 1016.24 1527 1016.14L1527 1014L1525 1014L1525 1016.14C1524.64 1016.24 1524.3 1016.38 1523.98 1016.57L1522.46 1015.05L1521.05 1016.46L1522.57 1017.98C1522.38 1018.3 1522.24 1018.64 1522.14 1019L1520 1019L1520 1021L1522.14 1021C1522.24 1021.36 1522.38 1021.7 1522.57 1022.02L1521.05 1023.54L1522.46 1024.95L1523.98 1023.43C1524.3 1023.62 1524.64 1023.76 1525 1023.86L1525 1026L1527 1026L1527 1023.86C1527.36 1023.76 1527.7 1023.62 1528.02 1023.43L1529.54 1024.95L1530.95 1023.54L1529.43 1022.02C1529.62 1021.7 1529.76 1021.36 1529.86 1021L1532 1021ZM1526 1022C1525.6 1022 1525.22 1021.88 1524.89 1021.66C1524.56 1021.44 1524.3 1021.13 1524.15 1020.77C1524 1020.4 1523.96 1020 1524.04 1019.61C1524.12 1019.22 1524.31 1018.87 1524.59 1018.59C1524.87 1018.31 1525.22 1018.12 1525.61 1018.04C1526 1017.96 1526.4 1018 1526.77 1018.15C1527.13 1018.3 1527.44 1018.56 1527.66 1018.89C1527.88 1019.22 1528 1019.6 1528 1020C1528 1020.53 1527.79 1021.04 1527.41 1021.41C1527.04 1021.79 1526.53 1022 1526 1022Z" fill="currentColor" fill-rule="nonzero" />
		<path id="Vector 741" d="M1524 1038L1518 1038C1517.47 1038 1516.96 1037.79 1516.59 1037.41C1516.21 1037.04 1516 1036.53 1516 1036L1516 1012C1516 1011.47 1516.21 1010.96 1516.59 1010.59C1516.96 1010.21 1517.47 1010 1518 1010L1534 1010C1534.53 1010 1535.04 1010.21 1535.41 1010.59C1535.79 1010.96 1536 1011.47 1536 1012L1536 1022L1534 1022L1534 1012L1518 1012L1518 1036L1524 1036L1524 1038Z" fill="currentColor" fill-rule="nonzero" />
  </g>
</svg>

