<svg viewBox="0 0 32 32" xmlns="http://www.w3.org/2000/svg" fill="none">
  <g transform="translate(-1296 -1008)">
<path id="Vector 734" d="M1304 1014L1316 1014L1316 1016L1304 1016L1304 1014ZM1304 1018L1316 1018L1316 1020L1304 1020L1304 1018ZM1304 1022L1310 1022L1310 1024L1304 1024L1304 1022ZM1304 1032L1308 1032L1308 1034L1304 1034L1304 1032ZM1325.71 1027.29L1322.71 1024.29C1322.52 1024.11 1322.27 1024 1322 1024C1321.73 1024 1321.48 1024.11 1321.29 1024.29L1312 1033.59L1312 1038L1316.41 1038L1325.71 1028.71C1325.89 1028.52 1326 1028.27 1326 1028C1326 1027.73 1325.89 1027.48 1325.71 1027.29ZM1315.59 1036L1314 1036L1314 1034.41L1319 1029.41L1320.59 1031L1315.59 1036ZM1322 1029.59L1320.41 1028L1322 1026.41L1323.59 1028L1322 1029.59Z" fill="currentColor" fill-rule="nonzero" />
		<path id="Vector 735" d="M1308 1038L1302 1038C1301.47 1038 1300.96 1037.79 1300.59 1037.41C1300.21 1037.04 1300 1036.53 1300 1036L1300 1012C1300 1011.47 1300.21 1010.96 1300.59 1010.59C1300.96 1010.21 1301.47 1010 1302 1010L1318 1010C1318.53 1010 1319.04 1010.21 1319.41 1010.59C1319.79 1010.96 1320 1011.47 1320 1012L1320 1022L1318 1022L1318 1012L1302 1012L1302 1036L1308 1036L1308 1038Z" fill="currentColor" fill-rule="nonzero" />
  </g>
</svg>

