<svg viewBox="0 0 32 32" xmlns="http://www.w3.org/2000/svg" fill="none">
  <g transform="translate(-1584.000122 -1008)">
<path id="Vector 742" d="M1592 1022L1598 1022L1598 1024L1592 1024L1592 1022ZM1592 1014L1604 1014L1604 1016L1592 1016L1592 1014ZM1592 1018L1604 1018L1604 1020L1592 1020L1592 1018ZM1592 1032L1598 1032L1598 1034L1592 1034L1592 1032ZM1611 1033L1605 1033C1604.2 1033 1603.44 1033.32 1602.88 1033.88C1602.32 1034.44 1602 1035.2 1602 1036L1602 1038L1604 1038L1604 1036C1604 1035.73 1604.11 1035.48 1604.29 1035.29C1604.48 1035.11 1604.73 1035 1605 1035L1611 1035C1611.27 1035 1611.52 1035.11 1611.71 1035.29C1611.89 1035.48 1612 1035.73 1612 1036L1612 1038L1614 1038L1614 1036C1614 1035.2 1613.68 1034.44 1613.12 1033.88C1612.56 1033.32 1611.8 1033 1611 1033ZM1608 1032C1608.79 1032 1609.56 1031.77 1610.22 1031.33C1610.88 1030.89 1611.39 1030.26 1611.7 1029.53C1612 1028.8 1612.08 1028 1611.92 1027.22C1611.77 1026.44 1611.39 1025.73 1610.83 1025.17C1610.27 1024.61 1609.56 1024.23 1608.78 1024.08C1608 1023.92 1607.2 1024 1606.47 1024.3C1605.74 1024.61 1605.11 1025.12 1604.67 1025.78C1604.23 1026.44 1604 1027.21 1604 1028C1604 1029.06 1604.42 1030.08 1605.17 1030.83C1605.92 1031.58 1606.94 1032 1608 1032ZM1608 1026C1608.4 1026 1608.78 1026.12 1609.11 1026.34C1609.44 1026.56 1609.7 1026.87 1609.85 1027.23C1610 1027.6 1610.04 1028 1609.96 1028.39C1609.88 1028.78 1609.69 1029.13 1609.41 1029.41C1609.13 1029.69 1608.78 1029.88 1608.39 1029.96C1608 1030.04 1607.6 1030 1607.23 1029.85C1606.87 1029.7 1606.56 1029.44 1606.34 1029.11C1606.12 1028.78 1606 1028.4 1606 1028C1606 1027.47 1606.21 1026.96 1606.59 1026.59C1606.96 1026.21 1607.47 1026 1608 1026Z" fill="currentColor" fill-rule="nonzero" />
		<path id="Vector 743" d="M1598 1038L1590 1038C1589.47 1038 1588.96 1037.79 1588.59 1037.41C1588.21 1037.04 1588 1036.53 1588 1036L1588 1012C1588 1011.47 1588.21 1010.96 1588.59 1010.59C1588.96 1010.21 1589.47 1010 1590 1010L1606 1010C1606.53 1010 1607.04 1010.21 1607.41 1010.59C1607.79 1010.96 1608 1011.47 1608 1012L1608 1022L1606 1022L1606 1012L1590 1012L1590 1036L1598 1036L1598 1038Z" fill="currentColor" fill-rule="nonzero" />
  </g>
</svg>

