<svg viewBox="0 0 32 32" xmlns="http://www.w3.org/2000/svg" fill="none">
  <g transform="translate(-1368.000122 -1008)">
<path id="Vector 736" d="M1390 1022C1388.42 1022 1386.87 1022.47 1385.56 1023.35C1384.24 1024.23 1383.21 1025.48 1382.61 1026.94C1382 1028.4 1381.85 1030.01 1382.15 1031.56C1382.46 1033.11 1383.22 1034.54 1384.34 1035.66C1385.46 1036.78 1386.89 1037.54 1388.44 1037.85C1389.99 1038.16 1391.6 1038 1393.06 1037.39C1394.52 1036.79 1395.77 1035.76 1396.65 1034.44C1397.53 1033.13 1398 1031.58 1398 1030C1398 1027.88 1397.15 1025.85 1395.65 1024.35C1394.15 1022.85 1392.12 1022 1390 1022ZM1395.91 1029L1393.96 1029C1393.83 1027.49 1393.41 1026.02 1392.74 1024.67C1393.57 1025.09 1394.28 1025.71 1394.83 1026.46C1395.39 1027.21 1395.75 1028.08 1395.91 1029ZM1388.06 1029C1388.24 1027.19 1388.91 1025.47 1390 1024.02C1391.09 1025.47 1391.76 1027.19 1391.95 1029L1388.06 1029ZM1391.95 1031C1391.76 1032.81 1391.09 1034.53 1390 1035.98C1388.91 1034.53 1388.24 1032.81 1388.06 1031L1391.95 1031ZM1387.26 1024.67C1386.59 1026.02 1386.17 1027.49 1386.04 1029L1384.09 1029C1384.25 1028.08 1384.61 1027.21 1385.17 1026.46C1385.72 1025.71 1386.43 1025.09 1387.26 1024.67ZM1384.09 1031L1386.04 1031C1386.17 1032.51 1386.59 1033.98 1387.26 1035.33C1386.43 1034.91 1385.72 1034.29 1385.17 1033.54C1384.61 1032.79 1384.25 1031.92 1384.09 1031ZM1392.74 1035.33C1393.41 1033.98 1393.83 1032.51 1393.96 1031L1395.91 1031C1395.75 1031.92 1395.39 1032.79 1394.83 1033.54C1394.28 1034.29 1393.57 1034.91 1392.74 1035.33ZM1374 1022L1380 1022L1380 1024L1374 1024L1374 1022ZM1374 1014L1386 1014L1386 1016L1374 1016L1374 1014ZM1374 1018L1386 1018L1386 1020L1374 1020L1374 1018ZM1374 1032L1380 1032L1380 1034L1374 1034L1374 1032Z" fill="currentColor" fill-rule="nonzero" />
		<path id="Vector 737" d="M1380 1038L1372 1038C1371.47 1038 1370.96 1037.79 1370.59 1037.41C1370.21 1037.04 1370 1036.53 1370 1036L1370 1012C1370 1011.47 1370.21 1010.96 1370.59 1010.59C1370.96 1010.21 1371.47 1010 1372 1010L1388 1010C1388.53 1010 1389.04 1010.21 1389.41 1010.59C1389.79 1010.96 1390 1011.47 1390 1012L1390 1020L1388 1020L1388 1012L1372 1012L1372 1036L1380 1036L1380 1038Z" fill="currentColor" fill-rule="nonzero" />
  </g>
</svg>

