<svg viewBox="0 0 32 32" xmlns="http://www.w3.org/2000/svg" fill="none">
  <g transform="translate(-1440.000122 -1008)">
<path id="Vector 738" d="M1448 1022L1454 1022L1454 1024L1448 1024L1448 1022ZM1448 1014L1460 1014L1460 1016L1448 1016L1448 1014ZM1448 1018L1460 1018L1460 1020L1448 1020L1448 1018ZM1448 1032L1454 1032L1454 1034L1448 1034L1448 1032ZM1470 1032L1470 1030L1467.9 1030C1467.77 1029.37 1467.52 1028.78 1467.17 1028.25L1468.66 1026.76L1467.24 1025.34L1465.75 1026.83C1465.22 1026.48 1464.63 1026.23 1464 1026.1L1464 1024L1462 1024L1462 1026.1C1461.37 1026.23 1460.78 1026.48 1460.25 1026.83L1458.76 1025.34L1457.34 1026.76L1458.83 1028.25C1458.48 1028.78 1458.23 1029.37 1458.1 1030L1456 1030L1456 1032L1458.1 1032C1458.23 1032.63 1458.48 1033.22 1458.83 1033.75L1457.34 1035.24L1458.76 1036.66L1460.25 1035.17C1460.78 1035.52 1461.37 1035.77 1462 1035.9L1462 1038L1464 1038L1464 1035.9C1464.63 1035.77 1465.22 1035.52 1465.75 1035.17L1467.24 1036.66L1468.66 1035.24L1467.17 1033.75C1467.52 1033.22 1467.77 1032.63 1467.9 1032L1470 1032ZM1463 1034C1462.41 1034 1461.83 1033.82 1461.33 1033.49C1460.84 1033.16 1460.46 1032.7 1460.23 1032.15C1460 1031.6 1459.94 1031 1460.06 1030.41C1460.17 1029.83 1460.46 1029.3 1460.88 1028.88C1461.3 1028.46 1461.83 1028.17 1462.41 1028.06C1463 1027.94 1463.6 1028 1464.15 1028.23C1464.7 1028.46 1465.16 1028.84 1465.49 1029.33C1465.82 1029.83 1466 1030.41 1466 1031C1466 1031.8 1465.68 1032.56 1465.12 1033.12C1464.56 1033.68 1463.8 1034 1463 1034Z" fill="currentColor" fill-rule="nonzero" />
		<path id="Vector 739" d="M1454 1038L1446 1038C1445.47 1038 1444.96 1037.79 1444.59 1037.41C1444.21 1037.04 1444 1036.53 1444 1036L1444 1012C1444 1011.47 1444.21 1010.96 1444.59 1010.59C1444.96 1010.21 1445.47 1010 1446 1010L1462 1010C1462.53 1010 1463.04 1010.21 1463.41 1010.59C1463.79 1010.96 1464 1011.47 1464 1012L1464 1022L1462 1022L1462 1012L1446 1012L1446 1036L1454 1036L1454 1038Z" fill="currentColor" fill-rule="nonzero" />
  </g>
</svg>

