<svg viewBox="0 0 32 32" xmlns="http://www.w3.org/2000/svg" fill="none">
  <g transform="translate(-1656.000122 -1008)">
<path id="Vector 744" d="M1685.71 1027.29L1682.71 1024.29C1682.52 1024.11 1682.27 1024 1682 1024C1681.73 1024 1681.48 1024.11 1681.29 1024.29L1672 1033.59L1672 1038L1676.41 1038L1685.71 1028.71C1685.89 1028.52 1686 1028.27 1686 1028C1686 1027.73 1685.89 1027.48 1685.71 1027.29ZM1675.59 1036L1674 1036L1674 1034.41L1679 1029.41L1680.59 1031L1675.59 1036ZM1682 1029.59L1680.41 1028L1682 1026.41L1683.59 1028L1682 1029.59ZM1673 1023L1667 1023C1666.2 1023 1665.44 1023.32 1664.88 1023.88C1664.32 1024.44 1664 1025.2 1664 1026L1664 1027L1666 1027L1666 1026C1666 1025.73 1666.11 1025.48 1666.29 1025.29C1666.48 1025.11 1666.73 1025 1667 1025L1673 1025C1673.27 1025 1673.52 1025.11 1673.71 1025.29C1673.89 1025.48 1674 1025.73 1674 1026L1674 1027L1676 1027L1676 1026C1676 1025.2 1675.68 1024.44 1675.12 1023.88C1674.56 1023.32 1673.8 1023 1673 1023ZM1670 1022C1670.79 1022 1671.56 1021.77 1672.22 1021.33C1672.88 1020.89 1673.39 1020.26 1673.7 1019.53C1674 1018.8 1674.08 1018 1673.92 1017.22C1673.77 1016.44 1673.39 1015.73 1672.83 1015.17C1672.27 1014.61 1671.56 1014.23 1670.78 1014.08C1670 1013.92 1669.2 1014 1668.47 1014.3C1667.74 1014.61 1667.11 1015.12 1666.67 1015.78C1666.23 1016.44 1666 1017.21 1666 1018C1666 1019.06 1666.42 1020.08 1667.17 1020.83C1667.92 1021.58 1668.94 1022 1670 1022ZM1670 1016C1670.4 1016 1670.78 1016.12 1671.11 1016.34C1671.44 1016.56 1671.7 1016.87 1671.85 1017.23C1672 1017.6 1672.04 1018 1671.96 1018.39C1671.88 1018.78 1671.69 1019.13 1671.41 1019.41C1671.13 1019.69 1670.78 1019.88 1670.39 1019.96C1670 1020.04 1669.6 1020 1669.23 1019.85C1668.87 1019.7 1668.56 1019.44 1668.34 1019.11C1668.12 1018.78 1668 1018.4 1668 1018C1668 1017.47 1668.21 1016.96 1668.59 1016.59C1668.96 1016.21 1669.47 1016 1670 1016Z" fill="currentColor" fill-rule="nonzero" />
		<path id="Vector 745" d="M1668 1038L1662 1038C1661.47 1038 1660.96 1037.79 1660.59 1037.41C1660.21 1037.04 1660 1036.53 1660 1036L1660 1012C1660 1011.47 1660.21 1010.96 1660.59 1010.59C1660.96 1010.21 1661.47 1010 1662 1010L1678 1010C1678.53 1010 1679.04 1010.21 1679.41 1010.59C1679.79 1010.96 1680 1011.47 1680 1012L1680 1022L1678 1022L1678 1012L1662 1012L1662 1036L1668 1036L1668 1038Z" fill="currentColor" fill-rule="nonzero" />
  </g>
</svg>

