<svg viewBox="0 0 32 32" xmlns="http://www.w3.org/2000/svg" fill="none">
  <g transform="translate(-1728.000122 -1008)">
<path id="Vector 746" d="M1756.23 1030.81C1757.39 1028.73 1758 1026.38 1758 1024C1758 1021.62 1757.39 1019.27 1756.23 1017.19L1756.41 1017C1756.79 1016.62 1757 1016.12 1757 1015.59C1757 1015.06 1756.79 1014.55 1756.41 1014.17L1753.83 1011.59C1753.45 1011.21 1752.94 1011 1752.41 1011C1751.88 1011 1751.38 1011.21 1751 1011.59L1750.81 1011.77C1748.73 1010.61 1746.39 1010 1744 1010C1741.62 1010 1739.27 1010.61 1737.19 1011.77L1737 1011.59C1736.63 1011.21 1736.12 1011 1735.59 1011C1735.06 1011 1734.55 1011.21 1734.17 1011.59L1731.59 1014.17C1731.21 1014.55 1731 1015.06 1731 1015.59C1731 1016.12 1731.21 1016.62 1731.59 1017L1731.77 1017.19C1730.61 1019.27 1730 1021.62 1730 1024C1730 1026.39 1730.61 1028.73 1731.77 1030.81L1731.59 1031C1731.21 1031.38 1731 1031.88 1731 1032.41C1731 1032.94 1731.21 1033.45 1731.59 1033.83L1734.17 1036.41C1734.55 1036.79 1735.06 1037 1735.59 1037C1736.12 1037 1736.63 1036.79 1737 1036.41L1737.19 1036.23C1739.27 1037.39 1741.62 1038 1744 1038C1746.39 1038 1748.73 1037.39 1750.81 1036.23L1751 1036.41C1751.38 1036.79 1751.88 1037 1752.41 1037C1752.94 1037 1753.45 1036.79 1753.83 1036.41L1756.41 1033.83C1756.79 1033.45 1757 1032.94 1757 1032.41C1757 1031.88 1756.79 1031.38 1756.41 1031L1756.23 1030.81ZM1756 1024C1756 1025.85 1755.57 1027.68 1754.75 1029.33L1750.85 1025.44C1751.05 1024.49 1751.05 1023.51 1750.85 1022.56L1754.75 1018.67C1755.57 1020.32 1756 1022.15 1756 1024ZM1755 1015.59L1750.07 1020.52C1749.45 1019.45 1748.55 1018.55 1747.48 1017.93L1752.41 1013L1755 1015.59ZM1744 1029C1743.01 1029 1742.04 1028.71 1741.22 1028.16C1740.4 1027.61 1739.76 1026.83 1739.38 1025.91C1739 1025 1738.9 1023.99 1739.1 1023.02C1739.29 1022.05 1739.77 1021.16 1740.46 1020.46C1741.16 1019.77 1742.05 1019.29 1743.02 1019.1C1743.99 1018.9 1745 1019 1745.91 1019.38C1746.83 1019.76 1747.61 1020.4 1748.16 1021.22C1748.71 1022.04 1749 1023.01 1749 1024C1749 1025.33 1748.47 1026.6 1747.53 1027.53C1746.6 1028.47 1745.33 1029 1744 1029ZM1749.32 1013.27L1745.44 1017.15C1744.49 1016.95 1743.51 1016.95 1742.56 1017.15L1738.69 1013.27C1740.34 1012.47 1742.16 1012.06 1744 1012.06C1745.84 1012.06 1747.66 1012.47 1749.32 1013.27ZM1735.59 1013L1740.52 1017.93C1739.45 1018.55 1738.55 1019.45 1737.94 1020.52L1733 1015.59L1735.59 1013ZM1732 1024C1732 1022.15 1732.43 1020.33 1733.26 1018.67L1737.15 1022.56C1736.95 1023.51 1736.95 1024.49 1737.15 1025.44L1733.26 1029.33C1732.43 1027.67 1732 1025.85 1732 1024ZM1735.59 1035L1733 1032.41L1737.94 1027.48C1738.55 1028.55 1739.45 1029.45 1740.52 1030.07L1735.59 1035ZM1738.69 1034.73L1742.56 1030.85C1743.51 1031.05 1744.49 1031.05 1745.44 1030.85L1749.32 1034.73C1747.66 1035.53 1745.84 1035.94 1744 1035.94C1742.16 1035.94 1740.34 1035.53 1738.69 1034.73ZM1752.42 1035L1747.48 1030.06C1748.55 1029.45 1749.45 1028.55 1750.07 1027.48L1755 1032.41L1752.42 1035Z" fill="currentColor" fill-rule="nonzero" />
  </g>
</svg>

