<svg viewBox="0 0 32 32" xmlns="http://www.w3.org/2000/svg" fill="none">
  <g transform="translate(-1872.000122 -1008)">
<path id="Vector 748" d="M1887 1010L1889 1010L1889 1015L1887 1015L1887 1010ZM1893.69 1016.9L1897.19 1013.39L1898.61 1014.81L1895.1 1018.31L1893.69 1016.9ZM1897 1023L1902 1023L1902 1025L1897 1025L1897 1023ZM1893.69 1031.1L1895.1 1029.69L1898.61 1033.19L1897.19 1034.61L1893.69 1031.1ZM1887 1033L1889 1033L1889 1038L1887 1038L1887 1033ZM1877.39 1033.19L1880.9 1029.69L1882.31 1031.1L1878.81 1034.61L1877.39 1033.19ZM1874 1023L1879 1023L1879 1025L1874 1025L1874 1023ZM1877.4 1014.81L1878.81 1013.39L1882.32 1016.9L1880.9 1018.31L1877.4 1014.81ZM1888 1018C1886.81 1018 1885.65 1018.35 1884.67 1019.01C1883.68 1019.67 1882.91 1020.61 1882.46 1021.7C1882 1022.8 1881.88 1024.01 1882.12 1025.17C1882.35 1026.33 1882.92 1027.4 1883.76 1028.24C1884.6 1029.08 1885.67 1029.65 1886.83 1029.88C1887.99 1030.12 1889.2 1030 1890.3 1029.54C1891.39 1029.09 1892.33 1028.32 1892.99 1027.33C1893.65 1026.35 1894 1025.19 1894 1024C1894 1022.41 1893.37 1020.88 1892.24 1019.76C1891.12 1018.63 1889.59 1018 1888 1018Z" fill="currentColor" fill-rule="nonzero" />
  </g>
</svg>

