<svg viewBox="0 0 32 32" xmlns="http://www.w3.org/2000/svg" fill="none">
  <g transform="translate(-1800.000122 -1008)">
<path id="Vector 747" d="M1815 1010L1817 1010L1817 1015L1815 1015L1815 1010ZM1821.69 1016.9L1825.19 1013.39L1826.61 1014.81L1823.1 1018.31L1821.69 1016.9ZM1825 1023L1830 1023L1830 1025L1825 1025L1825 1023ZM1821.69 1031.1L1823.1 1029.69L1826.61 1033.19L1825.19 1034.61L1821.69 1031.1ZM1815 1033L1817 1033L1817 1038L1815 1038L1815 1033ZM1805.39 1033.19L1808.9 1029.69L1810.31 1031.1L1806.81 1034.61L1805.39 1033.19ZM1802 1023L1807 1023L1807 1025L1802 1025L1802 1023ZM1805.4 1014.81L1806.81 1013.39L1810.32 1016.9L1808.9 1018.31L1805.4 1014.81ZM1816 1020C1816.79 1020 1817.56 1020.23 1818.22 1020.67C1818.88 1021.11 1819.39 1021.74 1819.7 1022.47C1820 1023.2 1820.08 1024 1819.92 1024.78C1819.77 1025.56 1819.39 1026.27 1818.83 1026.83C1818.27 1027.39 1817.56 1027.77 1816.78 1027.92C1816 1028.08 1815.2 1028 1814.47 1027.7C1813.74 1027.39 1813.11 1026.88 1812.67 1026.22C1812.23 1025.56 1812 1024.79 1812 1024C1812 1022.94 1812.42 1021.92 1813.17 1021.17C1813.92 1020.42 1814.94 1020 1816 1020ZM1816 1018C1814.81 1018 1813.65 1018.35 1812.67 1019.01C1811.68 1019.67 1810.91 1020.61 1810.46 1021.7C1810 1022.8 1809.88 1024.01 1810.12 1025.17C1810.35 1026.33 1810.92 1027.4 1811.76 1028.24C1812.6 1029.08 1813.67 1029.65 1814.83 1029.88C1815.99 1030.12 1817.2 1030 1818.3 1029.54C1819.39 1029.09 1820.33 1028.32 1820.99 1027.33C1821.65 1026.35 1822 1025.19 1822 1024C1822 1022.41 1821.37 1020.88 1820.24 1019.76C1819.12 1018.63 1817.59 1018 1816 1018Z" fill="currentColor" fill-rule="nonzero" />
  </g>
</svg>

