<svg viewBox="0 0 32 32" xmlns="http://www.w3.org/2000/svg" fill="none">
  <g transform="translate(-1944.000122 -1008)">
<path id="Vector 749" d="M1973.06 1019.19C1973.06 1013.12 1969.08 1011.34 1969.08 1011.34C1967.07 1010.42 1963.63 1010.03 1960.05 1010L1959.96 1010C1956.38 1010.03 1952.94 1010.42 1950.93 1011.34C1950.93 1011.34 1946.95 1013.12 1946.95 1019.19C1946.95 1020.58 1946.92 1022.25 1946.97 1024.01C1947.11 1029.95 1948.06 1035.81 1953.55 1037.26C1956.08 1037.93 1958.25 1038.07 1960.01 1037.97C1963.18 1037.8 1964.96 1036.84 1964.96 1036.84L1964.86 1034.54C1964.86 1034.54 1962.59 1035.25 1960.04 1035.16C1957.52 1035.08 1954.85 1034.89 1954.44 1031.79C1954.4 1031.5 1954.38 1031.21 1954.39 1030.92C1954.39 1030.92 1956.86 1031.53 1960.01 1031.67C1961.93 1031.76 1963.73 1031.56 1965.56 1031.34C1969.06 1030.92 1972.12 1028.76 1972.5 1026.79C1973.11 1023.67 1973.06 1019.19 1973.06 1019.19ZM1968.36 1027.02L1965.45 1027.02L1965.45 1019.88C1965.45 1018.38 1964.82 1017.61 1963.55 1017.61C1962.15 1017.61 1961.45 1018.52 1961.45 1020.31L1961.45 1024.22L1958.55 1024.22L1958.55 1020.31C1958.55 1018.52 1957.85 1017.61 1956.45 1017.61C1955.18 1017.61 1954.55 1018.38 1954.55 1019.88L1954.55 1027.02L1951.64 1027.02L1951.64 1019.66C1951.64 1018.16 1952.02 1016.97 1952.79 1016.08C1953.58 1015.2 1954.62 1014.75 1955.91 1014.75C1957.4 1014.75 1958.53 1015.32 1959.27 1016.47L1960 1017.68L1960.73 1016.46C1961.47 1015.32 1962.6 1014.74 1964.09 1014.74C1965.38 1014.74 1966.42 1015.2 1967.21 1016.08C1967.98 1016.97 1968.36 1018.16 1968.36 1019.66L1968.36 1027.02Z" fill="currentColor" fill-rule="nonzero" />
  </g>
</svg>

