<svg viewBox="0 0 32 32" xmlns="http://www.w3.org/2000/svg" fill="none">
  <g transform="translate(-72 -1080)">
<path id="Vector 751" d="M79 1092L76 1092C75.4696 1092 74.9609 1091.79 74.5858 1091.41C74.2107 1091.04 74 1090.53 74 1090L74 1086C74 1085.47 74.2107 1084.96 74.5858 1084.59C74.9609 1084.21 75.4696 1084 76 1084L79 1084L79 1086L76 1086L76 1090L79 1090L79 1092ZM81 1090L87 1090L87 1092L81 1092L81 1090ZM89 1090L95 1090L95 1092L89 1092L89 1090ZM100 1092L97 1092L97 1090L100 1090L100 1086L97 1086L97 1084L100 1084C100.53 1084 101.039 1084.21 101.414 1084.59C101.789 1084.96 102 1085.47 102 1086L102 1090C102 1090.53 101.789 1091.04 101.414 1091.41C101.039 1091.79 100.53 1092 100 1092ZM89 1084L95 1084L95 1086L89 1086L89 1084ZM81 1084L87 1084L87 1086L81 1086L81 1084ZM100 1108L76 1108C75.4696 1108 74.9609 1107.79 74.5858 1107.41C74.2107 1107.04 74 1106.53 74 1106L74 1102C74 1101.47 74.2107 1100.96 74.5858 1100.59C74.9609 1100.21 75.4696 1100 76 1100L100 1100C100.53 1100 101.039 1100.21 101.414 1100.59C101.789 1100.96 102 1101.47 102 1102L102 1106C102 1106.53 101.789 1107.04 101.414 1107.41C101.039 1107.79 100.53 1108 100 1108ZM76 1102L76 1106L100 1106L100 1102L76 1102ZM74 1095L102 1095L102 1097L74 1097L74 1095Z" fill="currentColor" fill-rule="nonzero" />
  </g>
</svg>

