<svg viewBox="0 0 32 32" xmlns="http://www.w3.org/2000/svg" fill="none">
  <g transform="translate(-144 -1080)">
<path id="Vector 752" d="M166 1088L158 1088L158 1090L166 1090L166 1088ZM158 1096L166 1096L166 1094L158 1094L158 1096ZM154 1094L152 1094L152 1090L154 1090L154 1088L152 1088L152 1084L170 1084L170 1096L172 1096L172 1084C172 1083.47 171.789 1082.96 171.414 1082.59C171.039 1082.21 170.53 1082 170 1082L152 1082C151.47 1082 150.961 1082.21 150.586 1082.59C150.211 1082.96 150 1083.47 150 1084L150 1088L148 1088L148 1090L150 1090L150 1094L148 1094L148 1096L154 1096L154 1094ZM157.105 1100L154.895 1100C153.85 1100 153 1100.85 153 1101.9L153 1108.1C153 1109.15 153.85 1110 154.895 1110L157.105 1110C158.15 1110 159 1109.15 159 1108.1L159 1101.9C159 1100.85 158.15 1100 157.106 1100M157 1108L155 1108L155 1102L157 1102L157 1108ZM145 1102L145 1108C145 1109.1 145.897 1110 147 1110L151 1110L151 1108L147 1108L147 1102L151 1102L151 1100L147 1100C145.897 1100 145 1100.9 145 1102ZM165 1106L163 1100L161 1100L161 1110L163 1110L163 1104L165 1110L167 1110L167 1100L165 1100L165 1106ZM173 1100L172 1108L171 1100L169 1100L171 1110L173 1110L175 1100L173 1100Z" fill="currentColor" fill-rule="nonzero" />
  </g>
</svg>

