<svg viewBox="0 0 32 32" xmlns="http://www.w3.org/2000/svg" fill="none">
  <g transform="translate(-288 -1080)">
<path id="Vector 754" d="M304 1100C303.209 1100 302.436 1099.77 301.778 1099.33C301.12 1098.89 300.607 1098.26 300.305 1097.53C300.002 1096.8 299.923 1096 300.077 1095.22C300.231 1094.44 300.612 1093.73 301.172 1093.17C301.731 1092.61 302.444 1092.23 303.22 1092.08C303.996 1091.92 304.8 1092 305.531 1092.3C306.262 1092.61 306.886 1093.12 307.326 1093.78C307.765 1094.44 308 1095.21 308 1096C307.999 1097.06 307.577 1098.08 306.827 1098.83C306.077 1099.58 305.061 1100 304 1100ZM304 1094C303.604 1094 303.218 1094.12 302.889 1094.34C302.56 1094.56 302.304 1094.87 302.152 1095.23C302.001 1095.6 301.961 1096 302.038 1096.39C302.116 1096.78 302.306 1097.13 302.586 1097.41C302.866 1097.69 303.222 1097.88 303.61 1097.96C303.998 1098.04 304.4 1098 304.765 1097.85C305.131 1097.7 305.443 1097.44 305.663 1097.11C305.883 1096.78 306 1096.4 306 1096C306 1095.47 305.789 1094.96 305.414 1094.59C305.039 1094.21 304.53 1094 304 1094Z" fill="currentColor" fill-rule="nonzero" />
		<path id="Vector 755" d="M312 1104L296 1104C295.47 1104 294.961 1103.79 294.586 1103.41C294.211 1103.04 294 1102.53 294 1102L294 1090C294 1089.47 294.211 1088.96 294.586 1088.59C294.961 1088.21 295.47 1088 296 1088L312 1088C312.53 1088 313.039 1088.21 313.414 1088.59C313.789 1088.96 314 1089.47 314 1090L314 1102C314 1102.53 313.789 1103.04 313.414 1103.41C313.039 1103.79 312.53 1104 312 1104ZM296 1090L296 1102L312 1102L312 1090L296 1090Z" fill="currentColor" fill-rule="nonzero" />
		<path id="Vector 756" d="M316 1108L292 1108C291.47 1108 290.961 1107.79 290.586 1107.41C290.211 1107.04 290 1106.53 290 1106L290 1086C290 1085.47 290.211 1084.96 290.586 1084.59C290.961 1084.21 291.47 1084 292 1084L316 1084C316.53 1084 317.039 1084.21 317.414 1084.59C317.789 1084.96 318 1085.47 318 1086L318 1106C318 1106.53 317.789 1107.04 317.414 1107.41C317.039 1107.79 316.53 1108 316 1108ZM292 1086L292 1106L316 1106L316 1086L292 1086Z" fill="currentColor" fill-rule="nonzero" />
  </g>
</svg>

