<svg viewBox="0 0 32 32" xmlns="http://www.w3.org/2000/svg" fill="none">
  <g transform="translate(-504 -1080)">
<path id="Vector 762" d="M520 1104C518.418 1104 516.871 1103.53 515.555 1102.65C514.24 1101.77 513.214 1100.52 512.609 1099.06C512.003 1097.6 511.845 1095.99 512.154 1094.44C512.462 1092.89 513.224 1091.46 514.343 1090.34C515.462 1089.22 516.887 1088.46 518.439 1088.15C519.991 1087.85 521.6 1088 523.062 1088.61C524.523 1089.21 525.773 1090.24 526.652 1091.56C527.531 1092.87 528 1094.42 528 1096C527.997 1098.12 527.154 1100.15 525.654 1101.65C524.154 1103.15 522.121 1104 520 1104ZM520 1090C518.813 1090 517.653 1090.35 516.667 1091.01C515.68 1091.67 514.911 1092.61 514.457 1093.7C514.003 1094.8 513.884 1096.01 514.115 1097.17C514.347 1098.33 514.918 1099.4 515.757 1100.24C516.596 1101.08 517.666 1101.65 518.83 1101.88C519.993 1102.12 521.2 1102 522.296 1101.54C523.393 1101.09 524.33 1100.32 524.989 1099.33C525.648 1098.35 526 1097.19 526 1096C525.998 1094.41 525.365 1092.88 524.241 1091.76C523.116 1090.63 521.591 1090 520 1090Z" fill="currentColor" fill-rule="nonzero" />
		<path id="Vector 763" d="M534 1094L531.82 1094C531.402 1091.55 530.232 1089.29 528.473 1087.53C526.714 1085.77 524.452 1084.6 522 1084.18L522 1082L518 1082L518 1084.18C515.548 1084.6 513.286 1085.77 511.527 1087.53C509.768 1089.29 508.598 1091.55 508.18 1094L506 1094L506 1098L508.18 1098C508.598 1100.45 509.768 1102.71 511.527 1104.47C513.286 1106.23 515.548 1107.4 518 1107.82L518 1110L522 1110L522 1107.82C524.452 1107.4 526.714 1106.23 528.473 1104.47C530.232 1102.71 531.402 1100.45 531.82 1098L534 1098L534 1094ZM520 1106C518.022 1106 516.089 1105.41 514.444 1104.31C512.8 1103.22 511.518 1101.65 510.761 1099.83C510.004 1098 509.806 1095.99 510.192 1094.05C510.578 1092.11 511.53 1090.33 512.929 1088.93C514.328 1087.53 516.109 1086.58 518.049 1086.19C519.989 1085.81 522 1086 523.827 1086.76C525.654 1087.52 527.216 1088.8 528.315 1090.44C529.414 1092.09 530 1094.02 530 1096C529.997 1098.65 528.943 1101.19 527.068 1103.07C525.193 1104.94 522.651 1106 520 1106Z" fill="currentColor" fill-rule="nonzero" />
  </g>
</svg>

