<svg viewBox="0 0 32 32" xmlns="http://www.w3.org/2000/svg" fill="none">
  <g transform="translate(-792 -1080)">
<path id="Vector 794" d="M812 1098C811.997 1098.88 811.701 1099.74 811.159 1100.44C810.616 1101.14 809.857 1101.64 809 1101.86L809 1097L811 1097L811 1095L809 1095L809 1093.82C809.667 1093.58 810.23 1093.12 810.588 1092.51C810.946 1091.9 811.076 1091.18 810.957 1090.48C810.837 1089.78 810.475 1089.15 809.934 1088.69C809.393 1088.24 808.708 1087.99 808 1087.99C807.292 1087.99 806.607 1088.24 806.066 1088.69C805.525 1089.15 805.163 1089.78 805.043 1090.48C804.924 1091.18 805.054 1091.9 805.412 1092.51C805.77 1093.12 806.333 1093.58 807 1093.82L807 1095L805 1095L805 1097L807 1097L807 1101.86C806.143 1101.64 805.384 1101.14 804.841 1100.44C804.299 1099.74 804.003 1098.88 804 1098L802 1098C802 1099.59 802.632 1101.12 803.757 1102.24C804.883 1103.37 806.409 1104 808 1104C809.591 1104 811.117 1103.37 812.243 1102.24C813.368 1101.12 814 1099.59 814 1098L812 1098ZM808 1090C808.198 1090 808.391 1090.06 808.556 1090.17C808.72 1090.28 808.848 1090.43 808.924 1090.62C809 1090.8 809.019 1091 808.981 1091.2C808.942 1091.39 808.847 1091.57 808.707 1091.71C808.567 1091.85 808.389 1091.94 808.195 1091.98C808.001 1092.02 807.8 1092 807.617 1091.92C807.435 1091.85 807.278 1091.72 807.169 1091.56C807.059 1091.39 807 1091.2 807 1091C807 1090.73 807.105 1090.48 807.293 1090.29C807.48 1090.11 807.735 1090 808 1090Z" fill="currentColor" fill-rule="nonzero" />
		<path id="Vector 795" d="M822 1094L819.82 1094C819.402 1091.55 818.232 1089.29 816.473 1087.53C814.714 1085.77 812.452 1084.6 810 1084.18L810 1082L806 1082L806 1084.18C803.548 1084.6 801.286 1085.77 799.527 1087.53C797.768 1089.29 796.598 1091.55 796.18 1094L794 1094L794 1098L796.18 1098C796.598 1100.45 797.768 1102.71 799.527 1104.47C801.286 1106.23 803.548 1107.4 806 1107.82L806 1110L810 1110L810 1107.82C812.452 1107.4 814.714 1106.23 816.473 1104.47C818.232 1102.71 819.402 1100.45 819.82 1098L822 1098L822 1094ZM808 1106C806.022 1106 804.089 1105.41 802.444 1104.31C800.8 1103.22 799.518 1101.65 798.761 1099.83C798.004 1098 797.806 1095.99 798.192 1094.05C798.578 1092.11 799.53 1090.33 800.929 1088.93C802.328 1087.53 804.109 1086.58 806.049 1086.19C807.989 1085.81 810 1086 811.827 1086.76C813.654 1087.52 815.216 1088.8 816.315 1090.44C817.414 1092.09 818 1094.02 818 1096C817.997 1098.65 816.943 1101.19 815.068 1103.07C813.193 1104.94 810.651 1106 808 1106Z" fill="currentColor" fill-rule="nonzero" />
  </g>
</svg>

