<svg viewBox="0 0 32 32" xmlns="http://www.w3.org/2000/svg" fill="none">
  <g transform="translate(-432 -1080)">
<path id="Vector 759" d="M448 1110C445.231 1110 442.524 1109.18 440.222 1107.64C437.92 1106.1 436.125 1103.92 435.066 1101.36C434.006 1098.8 433.729 1095.98 434.269 1093.27C434.809 1090.55 436.143 1088.06 438.101 1086.1C440.058 1084.14 442.553 1082.81 445.269 1082.27C447.984 1081.73 450.799 1082.01 453.358 1083.07C455.916 1084.13 458.102 1085.92 459.641 1088.22C461.179 1090.52 462 1093.23 462 1096C461.996 1099.71 460.519 1103.27 457.895 1105.89C455.27 1108.52 451.712 1110 448 1110ZM448 1084C445.627 1084 443.307 1084.7 441.333 1086.02C439.36 1087.34 437.822 1089.22 436.913 1091.41C436.005 1093.6 435.768 1096.01 436.231 1098.34C436.694 1100.67 437.836 1102.81 439.515 1104.49C441.193 1106.16 443.331 1107.31 445.659 1107.77C447.987 1108.23 450.4 1107.99 452.592 1107.09C454.785 1106.18 456.659 1104.64 457.978 1102.67C459.296 1100.69 460 1098.37 460 1096C459.996 1092.82 458.731 1089.77 456.481 1087.52C454.232 1085.27 451.181 1084 448 1084Z" fill="currentColor" fill-rule="nonzero" />
		<path id="Vector 760" d="M448 1104C446.418 1104 444.871 1103.53 443.555 1102.65C442.24 1101.77 441.214 1100.52 440.609 1099.06C440.003 1097.6 439.845 1095.99 440.154 1094.44C440.462 1092.89 441.224 1091.46 442.343 1090.34C443.462 1089.22 444.887 1088.46 446.439 1088.15C447.991 1087.85 449.6 1088 451.061 1088.61C452.523 1089.21 453.773 1090.24 454.652 1091.56C455.531 1092.87 456 1094.42 456 1096C455.997 1098.12 455.154 1100.15 453.654 1101.65C452.154 1103.15 450.121 1104 448 1104ZM448 1090C446.813 1090 445.653 1090.35 444.667 1091.01C443.68 1091.67 442.911 1092.61 442.457 1093.7C442.003 1094.8 441.884 1096.01 442.115 1097.17C442.347 1098.33 442.918 1099.4 443.757 1100.24C444.596 1101.08 445.666 1101.65 446.829 1101.88C447.993 1102.12 449.2 1102 450.296 1101.54C451.392 1101.09 452.329 1100.32 452.989 1099.33C453.648 1098.35 454 1097.19 454 1096C453.998 1094.41 453.365 1092.88 452.241 1091.76C451.116 1090.63 449.591 1090 448 1090Z" fill="currentColor" fill-rule="nonzero" />
		<path id="Vector 761" d="M448 1098C449.105 1098 450 1097.1 450 1096C450 1094.9 449.105 1094 448 1094C446.895 1094 446 1094.9 446 1096C446 1097.1 446.895 1098 448 1098Z" fill="currentColor" fill-rule="nonzero" />
  </g>
</svg>

