<svg viewBox="0 0 32 32" xmlns="http://www.w3.org/2000/svg" fill="none">
  <g transform="translate(-360 -1080)">
<path id="Vector 757" d="M378 1089L378 1095L374 1095L374 1089L372 1089L372 1103L374 1103L374 1097L378 1097L378 1103L380 1103L380 1089L378 1089Z" fill="currentColor" fill-rule="nonzero" />
		<path id="Vector 758" d="M376 1110C373.231 1110 370.524 1109.18 368.222 1107.64C365.92 1106.1 364.125 1103.92 363.066 1101.36C362.006 1098.8 361.729 1095.98 362.269 1093.27C362.809 1090.55 364.143 1088.06 366.101 1086.1C368.058 1084.14 370.553 1082.81 373.269 1082.27C375.984 1081.73 378.799 1082.01 381.358 1083.07C383.916 1084.13 386.102 1085.92 387.641 1088.22C389.179 1090.52 390 1093.23 390 1096C389.996 1099.71 388.519 1103.27 385.895 1105.89C383.27 1108.52 379.712 1110 376 1110ZM376 1084C373.627 1084 371.307 1084.7 369.333 1086.02C367.36 1087.34 365.822 1089.22 364.913 1091.41C364.005 1093.6 363.768 1096.01 364.231 1098.34C364.694 1100.67 365.836 1102.81 367.515 1104.49C369.193 1106.16 371.331 1107.31 373.659 1107.77C375.987 1108.23 378.4 1107.99 380.592 1107.09C382.785 1106.18 384.659 1104.64 385.978 1102.67C387.296 1100.69 388 1098.37 388 1096C387.996 1092.82 386.731 1089.77 384.481 1087.52C382.232 1085.27 379.181 1084 376 1084Z" fill="currentColor" fill-rule="nonzero" />
  </g>
</svg>

