<svg viewBox="0 0 32 32" xmlns="http://www.w3.org/2000/svg" fill="none">
  <g transform="translate(-1080 -1080)">
<path id="Vector 802" d="M1096 1098C1097.1 1098 1098 1097.1 1098 1096C1098 1094.9 1097.1 1094 1096 1094C1094.9 1094 1094 1094.9 1094 1096C1094 1097.1 1094.9 1098 1096 1098Z" fill="currentColor" fill-rule="nonzero" />
		<path id="Vector 803" d="M1110 1086C1110 1085.47 1109.79 1084.96 1109.41 1084.59C1109.04 1084.21 1108.53 1084 1108 1084L1084 1084C1083.47 1084 1082.96 1084.21 1082.59 1084.59C1082.21 1084.96 1082 1085.47 1082 1086L1082 1106C1082 1106.53 1082.21 1107.04 1082.59 1107.41C1082.96 1107.79 1083.47 1108 1084 1108L1108 1108C1108.53 1108 1109.04 1107.79 1109.41 1107.41C1109.79 1107.04 1110 1106.53 1110 1106L1110 1086ZM1108 1092.93L1102.96 1086L1108 1086L1108 1092.93ZM1107.76 1096L1100.49 1106L1091.51 1106L1084.24 1096L1091.51 1086L1100.49 1086L1107.76 1096ZM1089.04 1086L1084 1092.93L1084 1086L1089.04 1086ZM1084 1099.07L1089.04 1106L1084 1106L1084 1099.07ZM1102.96 1106L1108 1099.07L1108 1106L1102.96 1106Z" fill="currentColor" fill-rule="nonzero" />
  </g>
</svg>

