<svg viewBox="0 0 32 32" xmlns="http://www.w3.org/2000/svg" fill="none">
  <g transform="translate(-576 -1080)">
<path id="Vector 764" d="M592 1104C590.418 1104 588.871 1103.53 587.555 1102.65C586.24 1101.77 585.214 1100.52 584.609 1099.06C584.003 1097.6 583.845 1095.99 584.154 1094.44C584.462 1092.89 585.224 1091.46 586.343 1090.34C587.462 1089.22 588.887 1088.46 590.439 1088.15C591.991 1087.85 593.6 1088 595.062 1088.61C596.523 1089.21 597.773 1090.24 598.652 1091.56C599.531 1092.87 600 1094.42 600 1096C599.997 1098.12 599.154 1100.15 597.654 1101.65C596.154 1103.15 594.121 1104 592 1104ZM592 1090C590.813 1090 589.653 1090.35 588.667 1091.01C587.68 1091.67 586.911 1092.61 586.457 1093.7C586.003 1094.8 585.884 1096.01 586.115 1097.17C586.347 1098.33 586.918 1099.4 587.757 1100.24C588.596 1101.08 589.666 1101.65 590.83 1101.88C591.993 1102.12 593.2 1102 594.296 1101.54C595.393 1101.09 596.33 1100.32 596.989 1099.33C597.648 1098.35 598 1097.19 598 1096C597.998 1094.41 597.365 1092.88 596.241 1091.76C595.116 1090.63 593.591 1090 592 1090Z" fill="currentColor" fill-rule="nonzero" />
		<path id="Vector 765" d="M592 1098C593.105 1098 594 1097.1 594 1096C594 1094.9 593.105 1094 592 1094C590.895 1094 590 1094.9 590 1096C590 1097.1 590.895 1098 592 1098Z" fill="currentColor" fill-rule="nonzero" />
		<path id="Vector 766" d="M592 1086C593.105 1086 594 1085.1 594 1084C594 1082.9 593.105 1082 592 1082C590.895 1082 590 1082.9 590 1084C590 1085.1 590.895 1086 592 1086Z" fill="currentColor" fill-rule="nonzero" />
		<path id="Vector 767" d="M592 1110C593.105 1110 594 1109.1 594 1108C594 1106.9 593.105 1106 592 1106C590.895 1106 590 1106.9 590 1108C590 1109.1 590.895 1110 592 1110Z" fill="currentColor" fill-rule="nonzero" />
		<path id="Vector 768" d="M604 1098C605.105 1098 606 1097.1 606 1096C606 1094.9 605.105 1094 604 1094C602.895 1094 602 1094.9 602 1096C602 1097.1 602.895 1098 604 1098Z" fill="currentColor" fill-rule="nonzero" />
		<path id="Vector 769" d="M580 1098C581.105 1098 582 1097.1 582 1096C582 1094.9 581.105 1094 580 1094C578.895 1094 578 1094.9 578 1096C578 1097.1 578.895 1098 580 1098Z" fill="currentColor" fill-rule="nonzero" />
		<path id="Vector 770" d="M583.515 1089.52C584.62 1089.52 585.515 1088.62 585.515 1087.52C585.515 1086.41 584.62 1085.52 583.515 1085.52C582.41 1085.52 581.515 1086.41 581.515 1087.52C581.515 1088.62 582.41 1089.52 583.515 1089.52Z" fill="currentColor" fill-rule="nonzero" />
		<path id="Vector 771" d="M600.485 1106.48C601.59 1106.48 602.485 1105.59 602.485 1104.48C602.485 1103.38 601.59 1102.48 600.485 1102.48C599.38 1102.48 598.485 1103.38 598.485 1104.48C598.485 1105.59 599.38 1106.48 600.485 1106.48Z" fill="currentColor" fill-rule="nonzero" />
		<path id="Vector 772" d="M600.485 1089.52C601.59 1089.52 602.485 1088.62 602.485 1087.52C602.485 1086.41 601.59 1085.52 600.485 1085.52C599.38 1085.52 598.485 1086.41 598.485 1087.52C598.485 1088.62 599.38 1089.52 600.485 1089.52Z" fill="currentColor" fill-rule="nonzero" />
		<path id="Vector 773" d="M583.515 1106.48C584.62 1106.48 585.515 1105.59 585.515 1104.48C585.515 1103.38 584.62 1102.48 583.515 1102.48C582.41 1102.48 581.515 1103.38 581.515 1104.48C581.515 1105.59 582.41 1106.48 583.515 1106.48Z" fill="currentColor" fill-rule="nonzero" />
  </g>
</svg>

