<svg viewBox="0 0 32 32" xmlns="http://www.w3.org/2000/svg" fill="none">
  <g transform="translate(-648 -1080)">
<path id="Vector 774" d="M652 1092L650 1092L650 1084C650 1083.47 650.211 1082.96 650.586 1082.59C650.961 1082.21 651.47 1082 652 1082L660 1082L660 1084L652 1084L652 1092ZM660 1110L652 1110C651.47 1110 650.961 1109.79 650.586 1109.41C650.211 1109.04 650 1108.53 650 1108L650 1100L652 1100L652 1108L660 1108L660 1110ZM676 1110L668 1110L668 1108L676 1108L676 1100L678 1100L678 1108C678 1108.53 677.789 1109.04 677.414 1109.41C677.039 1109.79 676.53 1110 676 1110ZM678 1092L676 1092L676 1084L668 1084L668 1082L676 1082C676.53 1082 677.039 1082.21 677.414 1082.59C677.789 1082.96 678 1083.47 678 1084L678 1092ZM664 1102C662.813 1102 661.653 1101.65 660.667 1100.99C659.68 1100.33 658.911 1099.39 658.457 1098.3C658.003 1097.2 657.884 1095.99 658.115 1094.83C658.347 1093.67 658.918 1092.6 659.757 1091.76C660.596 1090.92 661.666 1090.35 662.83 1090.12C663.993 1089.88 665.2 1090 666.296 1090.46C667.393 1090.91 668.33 1091.68 668.989 1092.67C669.648 1093.65 670 1094.81 670 1096C669.998 1097.59 669.365 1099.12 668.241 1100.24C667.116 1101.37 665.591 1102 664 1102ZM664 1092C663.209 1092 662.435 1092.23 661.778 1092.67C661.12 1093.11 660.607 1093.74 660.305 1094.47C660.002 1095.2 659.922 1096 660.077 1096.78C660.231 1097.56 660.612 1098.27 661.172 1098.83C661.731 1099.39 662.444 1099.77 663.22 1099.92C663.996 1100.08 664.8 1100 665.531 1099.7C666.262 1099.39 666.886 1098.88 667.326 1098.22C667.765 1097.56 668 1096.79 668 1096C667.999 1094.94 667.577 1093.92 666.827 1093.17C666.077 1092.42 665.06 1092 664 1092Z" fill="currentColor" fill-rule="nonzero" />
		<path id="Vector 775" d="M664 1098C665.105 1098 666 1097.1 666 1096C666 1094.9 665.105 1094 664 1094C662.895 1094 662 1094.9 662 1096C662 1097.1 662.895 1098 664 1098Z" fill="currentColor" fill-rule="nonzero" />
		<path id="Vector 776" d="M664 1088C664.552 1088 665 1087.55 665 1087C665 1086.45 664.552 1086 664 1086C663.448 1086 663 1086.45 663 1087C663 1087.55 663.448 1088 664 1088Z" fill="currentColor" fill-rule="nonzero" />
		<path id="Vector 777" d="M664 1084C664.552 1084 665 1083.55 665 1083C665 1082.45 664.552 1082 664 1082C663.448 1082 663 1082.45 663 1083C663 1083.55 663.448 1084 664 1084Z" fill="currentColor" fill-rule="nonzero" />
		<path id="Vector 778" d="M664 1106C664.552 1106 665 1105.55 665 1105C665 1104.45 664.552 1104 664 1104C663.448 1104 663 1104.45 663 1105C663 1105.55 663.448 1106 664 1106Z" fill="currentColor" fill-rule="nonzero" />
		<path id="Vector 779" d="M664 1110C664.552 1110 665 1109.55 665 1109C665 1108.45 664.552 1108 664 1108C663.448 1108 663 1108.45 663 1109C663 1109.55 663.448 1110 664 1110Z" fill="currentColor" fill-rule="nonzero" />
		<path id="Vector 780" d="M673 1097C673.552 1097 674 1096.55 674 1096C674 1095.45 673.552 1095 673 1095C672.448 1095 672 1095.45 672 1096C672 1096.55 672.448 1097 673 1097Z" fill="currentColor" fill-rule="nonzero" />
		<path id="Vector 781" d="M677 1097C677.552 1097 678 1096.55 678 1096C678 1095.45 677.552 1095 677 1095C676.448 1095 676 1095.45 676 1096C676 1096.55 676.448 1097 677 1097Z" fill="currentColor" fill-rule="nonzero" />
		<path id="Vector 782" d="M655 1097C655.552 1097 656 1096.55 656 1096C656 1095.45 655.552 1095 655 1095C654.448 1095 654 1095.45 654 1096C654 1096.55 654.448 1097 655 1097Z" fill="currentColor" fill-rule="nonzero" />
		<path id="Vector 783" d="M651 1097C651.552 1097 652 1096.55 652 1096C652 1095.45 651.552 1095 651 1095C650.448 1095 650 1095.45 650 1096C650 1096.55 650.448 1097 651 1097Z" fill="currentColor" fill-rule="nonzero" />
		<path id="Vector 784" d="M657.636 1090.64C658.188 1090.64 658.636 1090.19 658.636 1089.64C658.636 1089.08 658.188 1088.64 657.636 1088.64C657.084 1088.64 656.636 1089.08 656.636 1089.64C656.636 1090.19 657.084 1090.64 657.636 1090.64Z" fill="currentColor" fill-rule="nonzero" />
		<path id="Vector 785" d="M655 1088C655.552 1088 656 1087.55 656 1087C656 1086.45 655.552 1086 655 1086C654.448 1086 654 1086.45 654 1087C654 1087.55 654.448 1088 655 1088Z" fill="currentColor" fill-rule="nonzero" />
		<path id="Vector 786" d="M670.364 1103.36C670.916 1103.36 671.364 1102.92 671.364 1102.36C671.364 1101.81 670.916 1101.36 670.364 1101.36C669.812 1101.36 669.364 1101.81 669.364 1102.36C669.364 1102.92 669.812 1103.36 670.364 1103.36Z" fill="currentColor" fill-rule="nonzero" />
		<path id="Vector 787" d="M673 1106C673.552 1106 674 1105.55 674 1105C674 1104.45 673.552 1104 673 1104C672.448 1104 672 1104.45 672 1105C672 1105.55 672.448 1106 673 1106Z" fill="currentColor" fill-rule="nonzero" />
		<path id="Vector 788" d="M670.364 1090.64C670.916 1090.64 671.364 1090.19 671.364 1089.64C671.364 1089.08 670.916 1088.64 670.364 1088.64C669.812 1088.64 669.364 1089.08 669.364 1089.64C669.364 1090.19 669.812 1090.64 670.364 1090.64Z" fill="currentColor" fill-rule="nonzero" />
		<path id="Vector 789" d="M673 1088C673.552 1088 674 1087.55 674 1087C674 1086.45 673.552 1086 673 1086C672.448 1086 672 1086.45 672 1087C672 1087.55 672.448 1088 673 1088Z" fill="currentColor" fill-rule="nonzero" />
		<path id="Vector 790" d="M657.636 1103.36C658.188 1103.36 658.636 1102.92 658.636 1102.36C658.636 1101.81 658.188 1101.36 657.636 1101.36C657.084 1101.36 656.636 1101.81 656.636 1102.36C656.636 1102.92 657.084 1103.36 657.636 1103.36Z" fill="currentColor" fill-rule="nonzero" />
		<path id="Vector 791" d="M655 1106C655.552 1106 656 1105.55 656 1105C656 1104.45 655.552 1104 655 1104C654.448 1104 654 1104.45 654 1105C654 1105.55 654.448 1106 655 1106Z" fill="currentColor" fill-rule="nonzero" />
  </g>
</svg>

