<svg viewBox="0 0 32 32" xmlns="http://www.w3.org/2000/svg" fill="none">
  <g transform="translate(-1152 -1080)">
<path id="Vector 804" d="M1168 1096C1169.1 1096 1170 1095.1 1170 1094C1170 1092.9 1169.1 1092 1168 1092C1166.9 1092 1166 1092.9 1166 1094C1166 1095.1 1166.9 1096 1168 1096Z" fill="currentColor" fill-rule="nonzero" />
		<path id="Vector 805" d="M1181.87 1090.5L1177.87 1083.5C1177.8 1083.39 1177.71 1083.29 1177.61 1083.21C1177.5 1083.13 1177.38 1083.07 1177.25 1083.03C1177.12 1083 1176.99 1082.99 1176.86 1083.01C1176.73 1083.03 1176.6 1083.07 1176.48 1083.14L1171.72 1086L1164.28 1086L1159.52 1083.14C1159.4 1083.07 1159.27 1083.03 1159.14 1083.01C1159.01 1082.99 1158.88 1083 1158.75 1083.03C1158.62 1083.07 1158.5 1083.12 1158.39 1083.21C1158.29 1083.29 1158.2 1083.39 1158.13 1083.5L1154.13 1090.5C1154 1090.73 1153.97 1091 1154.03 1091.25C1154.1 1091.51 1154.26 1091.72 1154.48 1091.86L1159.26 1094.72L1163 1101.27L1163 1107C1163 1107.27 1163.11 1107.52 1163.29 1107.71C1163.48 1107.89 1163.73 1108 1164 1108L1172 1108C1172.27 1108 1172.52 1107.89 1172.71 1107.71C1172.89 1107.52 1173 1107.27 1173 1107L1173 1101.27L1176.74 1094.72L1181.52 1091.86C1181.74 1091.72 1181.9 1091.51 1181.97 1091.25C1182.03 1091 1182 1090.73 1181.87 1090.5ZM1170.85 1101L1165.15 1101L1160.58 1092.99L1163.43 1088L1172.57 1088L1175.42 1092.99L1170.85 1101Z" fill="currentColor" fill-rule="nonzero" />
  </g>
</svg>

