<svg viewBox="0 0 32 32" xmlns="http://www.w3.org/2000/svg" fill="none">
  <g transform="translate(-864 -1080)">
<path id="Vector 796" d="M880 1096C881.105 1096 882 1095.1 882 1094C882 1092.9 881.105 1092 880 1092C878.895 1092 878 1092.9 878 1094C878 1095.1 878.895 1096 880 1096Z" fill="currentColor" fill-rule="nonzero" />
		<path id="Vector 797" d="M884 1108L876 1108C875.735 1108 875.48 1107.89 875.293 1107.71C875.105 1107.52 875 1107.27 875 1107L875 1101.27L871.261 1094.72L866.485 1091.86C866.261 1091.72 866.099 1091.51 866.033 1091.25C865.967 1091 866.002 1090.73 866.132 1090.5L870.132 1083.5C870.198 1083.39 870.287 1083.29 870.392 1083.21C870.498 1083.13 870.619 1083.07 870.748 1083.03C870.876 1083 871.011 1082.99 871.142 1083.01C871.274 1083.03 871.401 1083.07 871.515 1083.14L876.277 1086L883.723 1086L888.485 1083.14C888.599 1083.07 888.726 1083.03 888.857 1083.01C888.989 1082.99 889.123 1083 889.252 1083.03C889.381 1083.07 889.502 1083.12 889.607 1083.21C889.713 1083.29 889.802 1083.39 889.868 1083.5L893.868 1090.5C893.998 1090.73 894.034 1091 893.968 1091.25C893.902 1091.51 893.739 1091.72 893.515 1091.86L888.739 1094.72L885 1101.27L885 1107C885 1107.27 884.895 1107.52 884.707 1107.71C884.52 1107.89 884.265 1108 884 1108ZM877 1106L883 1106L883 1100.73L887.262 1093.28L891.646 1090.65L888.639 1085.38L884.277 1088L875.723 1088L871.361 1085.38L868.354 1090.65L872.738 1093.28L877 1100.74L877 1106Z" fill="currentColor" fill-rule="nonzero" />
  </g>
</svg>

