<svg viewBox="0 0 32 32" xmlns="http://www.w3.org/2000/svg" fill="none">
  <g transform="translate(-216 -1080)">
<path id="Vector 753" d="M246 1094L243.82 1094C243.402 1091.55 242.232 1089.29 240.473 1087.53C238.714 1085.77 236.452 1084.6 234 1084.18L234 1082L230 1082L230 1084.18C227.548 1084.6 225.286 1085.77 223.527 1087.53C221.768 1089.29 220.598 1091.55 220.18 1094L218 1094L218 1098L220.18 1098C220.598 1100.45 221.768 1102.71 223.527 1104.47C225.286 1106.23 227.548 1107.4 230 1107.82L230 1110L234 1110L234 1107.82C236.452 1107.4 238.714 1106.23 240.473 1104.47C242.232 1102.71 243.402 1100.45 243.82 1098L246 1098L246 1094ZM232 1106C230.022 1106 228.089 1105.41 226.444 1104.31C224.8 1103.22 223.518 1101.65 222.761 1099.83C222.004 1098 221.806 1095.99 222.192 1094.05C222.578 1092.11 223.53 1090.33 224.929 1088.93C226.327 1087.53 228.109 1086.58 230.049 1086.19C231.989 1085.81 234 1086 235.827 1086.76C237.654 1087.52 239.216 1088.8 240.315 1090.44C241.413 1092.09 242 1094.02 242 1096C241.997 1098.65 240.943 1101.19 239.068 1103.07C237.193 1104.94 234.651 1106 232 1106Z" fill="currentColor" fill-rule="nonzero" />
  </g>
</svg>

