<svg viewBox="0 0 32 32" xmlns="http://www.w3.org/2000/svg" fill="none">
  <g transform="translate(-936 -1080)">
<path id="Vector 798" d="M958 1108L946 1108C945.832 1108 945.666 1107.96 945.519 1107.88C945.371 1107.8 945.246 1107.68 945.156 1107.54L938.156 1096.54C938.054 1096.38 938 1096.19 938 1096C938 1095.81 938.054 1095.62 938.156 1095.46L945.156 1084.46C945.246 1084.32 945.371 1084.2 945.519 1084.12C945.666 1084.04 945.832 1084 946 1084L958 1084C958.168 1084 958.334 1084.04 958.481 1084.12C958.629 1084.2 958.754 1084.32 958.844 1084.46L965.844 1095.46C965.946 1095.62 966 1095.81 966 1096C966 1096.19 965.946 1096.38 965.844 1096.54L958.844 1107.54C958.754 1107.68 958.629 1107.8 958.481 1107.88C958.334 1107.96 958.168 1108 958 1108ZM946.549 1106L957.45 1106L963.813 1096L957.45 1086L946.55 1086L940.186 1096L946.549 1106Z" fill="currentColor" fill-rule="nonzero" />
		<path id="Vector 799" d="M955.5 1104L948.5 1104C948.333 1104 948.168 1103.96 948.021 1103.88C947.874 1103.8 947.75 1103.68 947.659 1103.54L943.159 1096.54C943.056 1096.38 943.001 1096.19 943.001 1096C943.001 1095.81 943.056 1095.62 943.159 1095.46L947.659 1088.46C947.75 1088.32 947.874 1088.2 948.021 1088.12C948.168 1088.04 948.333 1088 948.5 1088L955.5 1088C955.667 1088 955.832 1088.04 955.979 1088.12C956.126 1088.2 956.251 1088.32 956.341 1088.46L960.841 1095.46C960.944 1095.62 960.999 1095.81 960.999 1096C960.999 1096.19 960.944 1096.38 960.841 1096.54L956.341 1103.54C956.251 1103.68 956.126 1103.8 955.979 1103.88C955.832 1103.96 955.667 1104 955.5 1104ZM949.046 1102L954.954 1102L958.811 1096L954.954 1090L949.046 1090L945.189 1096L949.046 1102Z" fill="currentColor" fill-rule="nonzero" />
  </g>
</svg>

