<svg viewBox="0 0 32 32" xmlns="http://www.w3.org/2000/svg" fill="none">
  <g transform="translate(-1008 -1080)">
<path id="Vector 800" d="M1024 1098C1025.1 1098 1026 1097.1 1026 1096C1026 1094.9 1025.1 1094 1024 1094C1022.9 1094 1022 1094.9 1022 1096C1022 1097.1 1022.9 1098 1024 1098Z" fill="currentColor" fill-rule="nonzero" />
		<path id="Vector 801" d="M1038.86 1095.5L1031.86 1083.5C1031.78 1083.34 1031.65 1083.22 1031.5 1083.13C1031.35 1083.05 1031.17 1083 1031 1083L1017 1083C1016.83 1083 1016.65 1083.05 1016.5 1083.13C1016.35 1083.22 1016.22 1083.34 1016.14 1083.5L1009.14 1095.5C1009.05 1095.65 1009 1095.82 1009 1096C1009 1096.18 1009.05 1096.35 1009.14 1096.5L1016.14 1108.5C1016.22 1108.66 1016.35 1108.78 1016.5 1108.87C1016.65 1108.95 1016.83 1109 1017 1109L1031 1109C1031.17 1109 1031.35 1108.95 1031.5 1108.87C1031.65 1108.78 1031.78 1108.66 1031.86 1108.5L1038.86 1096.5C1038.95 1096.35 1039 1096.18 1039 1096C1039 1095.82 1038.95 1095.65 1038.86 1095.5ZM1030.43 1107L1017.57 1107L1011.16 1096L1017.57 1085L1030.43 1085L1036.84 1096L1030.43 1107Z" fill="currentColor" fill-rule="nonzero" />
  </g>
</svg>

