<svg viewBox="0 0 32 32" xmlns="http://www.w3.org/2000/svg" fill="none">
  <g transform="translate(-720 -1080)">
<path id="Vector 792" d="M740 1095L740 1091C740 1090.47 739.789 1089.96 739.414 1089.59C739.039 1089.21 738.53 1089 738 1089L732 1089L732 1103L734 1103L734 1097L735.48 1097L737.815 1103L739.96 1103L737.627 1097L738 1097C738.53 1097 739.038 1096.79 739.413 1096.41C739.788 1096.04 739.999 1095.53 740 1095ZM734 1091L738 1091L738 1095L734 1095L734 1091Z" fill="currentColor" fill-rule="nonzero" />
		<path id="Vector 793" d="M736 1110C733.231 1110 730.524 1109.18 728.222 1107.64C725.92 1106.1 724.125 1103.92 723.066 1101.36C722.006 1098.8 721.729 1095.98 722.269 1093.27C722.809 1090.55 724.143 1088.06 726.101 1086.1C728.058 1084.14 730.553 1082.81 733.269 1082.27C735.984 1081.73 738.799 1082.01 741.358 1083.07C743.916 1084.13 746.102 1085.92 747.641 1088.22C749.179 1090.52 750 1093.23 750 1096C749.996 1099.71 748.519 1103.27 745.895 1105.89C743.27 1108.52 739.712 1110 736 1110ZM736 1084C733.627 1084 731.307 1084.7 729.333 1086.02C727.36 1087.34 725.822 1089.22 724.913 1091.41C724.005 1093.6 723.768 1096.01 724.231 1098.34C724.694 1100.67 725.836 1102.81 727.515 1104.49C729.193 1106.16 731.331 1107.31 733.659 1107.77C735.987 1108.23 738.399 1107.99 740.592 1107.09C742.785 1106.18 744.659 1104.64 745.978 1102.67C747.296 1100.69 748 1098.37 748 1096C747.996 1092.82 746.731 1089.77 744.481 1087.52C742.232 1085.27 739.182 1084 736 1084Z" fill="currentColor" fill-rule="nonzero" />
  </g>
</svg>

