<svg viewBox="0 0 32 32" xmlns="http://www.w3.org/2000/svg" fill="none">
  <g transform="translate(-1224 -1080)">
<path id="Vector 806" d="M1253.12 1096.88C1252.84 1096.6 1252.52 1096.38 1252.15 1096.23C1251.79 1096.08 1251.4 1096 1251.01 1096L1251 1096C1250.61 1096 1250.22 1096.08 1249.85 1096.23C1249.49 1096.38 1249.16 1096.6 1248.88 1096.88L1243.98 1101.78C1243.92 1101.03 1243.59 1100.32 1243.03 1099.81C1242.48 1099.29 1241.76 1099 1241 1099L1234 1099C1232.67 1099 1231.4 1099.53 1230.47 1100.47C1229.53 1101.4 1229 1102.67 1229 1104L1229 1104.67L1226 1108.66L1227.6 1109.86L1231 1105.33L1231 1104C1231 1103.2 1231.32 1102.44 1231.88 1101.88C1232.44 1101.32 1233.2 1101 1234 1101L1241 1101C1241.27 1101 1241.52 1101.11 1241.71 1101.29C1241.89 1101.48 1242 1101.73 1242 1102C1242 1102.27 1241.89 1102.52 1241.71 1102.71C1241.52 1102.89 1241.27 1103 1241 1103L1237 1103L1237 1105L1241.93 1105C1242.45 1105 1242.98 1104.9 1243.46 1104.7C1243.95 1104.5 1244.39 1104.2 1244.76 1103.83L1250.29 1098.29C1250.48 1098.11 1250.73 1098 1251 1098L1251 1098C1251.2 1098 1251.39 1098.06 1251.56 1098.17C1251.72 1098.28 1251.85 1098.44 1251.92 1098.62C1252 1098.8 1252.02 1099 1251.98 1099.2C1251.94 1099.39 1251.85 1099.57 1251.71 1099.71L1244.29 1107.12C1244.02 1107.4 1243.68 1107.62 1243.32 1107.77C1242.96 1107.92 1242.57 1108 1242.17 1108L1235 1108L1235 1110L1242.17 1110C1242.83 1110 1243.48 1109.87 1244.09 1109.62C1244.69 1109.37 1245.24 1109 1245.71 1108.54L1253.12 1101.12C1253.68 1100.56 1254 1099.8 1254 1099C1254 1098.2 1253.68 1097.44 1253.12 1096.88ZM1245.59 1088.59L1242 1092L1242 1082L1240 1082L1240 1092L1236.41 1088.59L1235 1090L1241 1096L1247 1090L1245.59 1088.59Z" fill="currentColor" fill-rule="nonzero" />
  </g>
</svg>

