<svg viewBox="0 0 32 32" xmlns="http://www.w3.org/2000/svg" fill="none">
  <g transform="translate(-1584.000122 -1080)">
<path id="Vector 814" d="M1605 1108C1606.1 1108 1607 1107.1 1607 1106C1607 1104.9 1606.1 1104 1605 1104C1603.9 1104 1603 1104.9 1603 1106C1603 1107.1 1603.9 1108 1605 1108Z" fill="currentColor" fill-rule="nonzero" />
		<path id="Vector 815" d="M1605 1088C1606.1 1088 1607 1087.1 1607 1086C1607 1084.9 1606.1 1084 1605 1084C1603.9 1084 1603 1084.9 1603 1086C1603 1087.1 1603.9 1088 1605 1088Z" fill="currentColor" fill-rule="nonzero" />
		<path id="Vector 816" d="M1588 1098C1589.1 1098 1590 1097.1 1590 1096C1590 1094.9 1589.1 1094 1588 1094C1586.9 1094 1586 1094.9 1586 1096C1586 1097.1 1586.9 1098 1588 1098Z" fill="currentColor" fill-rule="nonzero" />
		<path id="Vector 817" d="M1612 1092C1611.12 1092 1610.26 1092.3 1609.56 1092.84C1608.86 1093.38 1608.36 1094.14 1608.14 1095L1603.86 1095C1603.72 1094.44 1603.45 1093.91 1603.09 1093.46C1602.72 1093.01 1602.26 1092.64 1601.73 1092.39C1601.21 1092.14 1600.63 1092.01 1600.05 1092C1599.47 1091.99 1598.9 1092.12 1598.37 1092.36L1595.19 1088.39C1595.71 1087.7 1596 1086.86 1596 1086C1596 1085.21 1595.77 1084.44 1595.33 1083.78C1594.89 1083.12 1594.26 1082.61 1593.53 1082.3C1592.8 1082 1592 1081.92 1591.22 1082.08C1590.44 1082.23 1589.73 1082.61 1589.17 1083.17C1588.61 1083.73 1588.23 1084.44 1588.08 1085.22C1587.92 1086 1588 1086.8 1588.3 1087.53C1588.61 1088.26 1589.12 1088.89 1589.78 1089.33C1590.44 1089.77 1591.21 1090 1592 1090C1592.56 1090 1593.12 1089.88 1593.63 1089.64L1596.81 1093.61C1596.29 1094.3 1596 1095.14 1596 1096C1596 1096.86 1596.29 1097.7 1596.81 1098.39L1593.63 1102.36C1593.12 1102.12 1592.56 1102 1592 1102C1591.21 1102 1590.44 1102.23 1589.78 1102.67C1589.12 1103.11 1588.61 1103.74 1588.3 1104.47C1588 1105.2 1587.92 1106 1588.08 1106.78C1588.23 1107.56 1588.61 1108.27 1589.17 1108.83C1589.73 1109.39 1590.44 1109.77 1591.22 1109.92C1592 1110.08 1592.8 1110 1593.53 1109.7C1594.26 1109.39 1594.89 1108.88 1595.33 1108.22C1595.77 1107.56 1596 1106.79 1596 1106C1596 1105.14 1595.71 1104.3 1595.19 1103.61L1598.37 1099.64C1598.9 1099.88 1599.47 1100.01 1600.05 1100C1600.63 1099.99 1601.21 1099.86 1601.73 1099.61C1602.26 1099.36 1602.72 1098.99 1603.09 1098.54C1603.45 1098.09 1603.72 1097.56 1603.86 1097L1608.14 1097C1608.33 1097.72 1608.72 1098.38 1609.26 1098.89C1609.8 1099.41 1610.48 1099.76 1611.21 1099.91C1611.94 1100.05 1612.7 1100 1613.4 1099.74C1614.1 1099.47 1614.71 1099.02 1615.17 1098.43C1615.62 1097.84 1615.9 1097.13 1615.98 1096.39C1616.05 1095.65 1615.92 1094.9 1615.59 1094.23C1615.26 1093.56 1614.75 1093 1614.11 1092.6C1613.48 1092.21 1612.75 1092 1612 1092ZM1590 1086C1590 1085.6 1590.12 1085.22 1590.34 1084.89C1590.56 1084.56 1590.87 1084.3 1591.23 1084.15C1591.6 1084 1592 1083.96 1592.39 1084.04C1592.78 1084.12 1593.13 1084.31 1593.41 1084.59C1593.69 1084.87 1593.88 1085.22 1593.96 1085.61C1594.04 1086 1594 1086.4 1593.85 1086.77C1593.7 1087.13 1593.44 1087.44 1593.11 1087.66C1592.78 1087.88 1592.4 1088 1592 1088C1591.47 1088 1590.96 1087.79 1590.59 1087.41C1590.21 1087.04 1590 1086.53 1590 1086ZM1592 1108C1591.6 1108 1591.22 1107.88 1590.89 1107.66C1590.56 1107.44 1590.3 1107.13 1590.15 1106.77C1590 1106.4 1589.96 1106 1590.04 1105.61C1590.12 1105.22 1590.31 1104.87 1590.59 1104.59C1590.87 1104.31 1591.22 1104.12 1591.61 1104.04C1592 1103.96 1592.4 1104 1592.77 1104.15C1593.13 1104.3 1593.44 1104.56 1593.66 1104.89C1593.88 1105.22 1594 1105.6 1594 1106C1594 1106.53 1593.79 1107.04 1593.41 1107.41C1593.04 1107.79 1592.53 1108 1592 1108ZM1600 1098C1599.6 1098 1599.22 1097.88 1598.89 1097.66C1598.56 1097.44 1598.3 1097.13 1598.15 1096.77C1598 1096.4 1597.96 1096 1598.04 1095.61C1598.12 1095.22 1598.31 1094.87 1598.59 1094.59C1598.87 1094.31 1599.22 1094.12 1599.61 1094.04C1600 1093.96 1600.4 1094 1600.77 1094.15C1601.13 1094.3 1601.44 1094.56 1601.66 1094.89C1601.88 1095.22 1602 1095.6 1602 1096C1602 1096.53 1601.79 1097.04 1601.41 1097.41C1601.04 1097.79 1600.53 1098 1600 1098ZM1612 1098C1611.6 1098 1611.22 1097.88 1610.89 1097.66C1610.56 1097.44 1610.3 1097.13 1610.15 1096.77C1610 1096.4 1609.96 1096 1610.04 1095.61C1610.12 1095.22 1610.31 1094.87 1610.59 1094.59C1610.87 1094.31 1611.22 1094.12 1611.61 1094.04C1612 1093.96 1612.4 1094 1612.77 1094.15C1613.13 1094.3 1613.44 1094.56 1613.66 1094.89C1613.88 1095.22 1614 1095.6 1614 1096C1614 1096.53 1613.79 1097.04 1613.41 1097.41C1613.04 1097.79 1612.53 1098 1612 1098Z" fill="currentColor" fill-rule="nonzero" />
  </g>
</svg>

