<svg viewBox="0 0 32 32" xmlns="http://www.w3.org/2000/svg" fill="none">
  <g transform="translate(-1368.000122 -1080)">
<path id="Vector 808" d="M1385 1097L1390.14 1097C1390.39 1097.94 1390.96 1098.76 1391.77 1099.31C1392.58 1099.86 1393.55 1100.09 1394.52 1099.97C1395.48 1099.85 1396.37 1099.37 1397.02 1098.64C1397.66 1097.91 1398.02 1096.97 1398.02 1096C1398.02 1095.03 1397.66 1094.09 1397.02 1093.36C1396.37 1092.63 1395.48 1092.15 1394.52 1092.03C1393.55 1091.91 1392.58 1092.14 1391.77 1092.69C1390.96 1093.24 1390.39 1094.06 1390.14 1095L1385 1095L1385 1087L1390.14 1087C1390.39 1087.94 1390.96 1088.76 1391.77 1089.31C1392.58 1089.86 1393.55 1090.09 1394.52 1089.97C1395.48 1089.85 1396.37 1089.37 1397.02 1088.64C1397.66 1087.91 1398.02 1086.97 1398.02 1086C1398.02 1085.03 1397.66 1084.09 1397.02 1083.36C1396.37 1082.63 1395.48 1082.15 1394.52 1082.03C1393.55 1081.91 1392.58 1082.14 1391.77 1082.69C1390.96 1083.24 1390.39 1084.06 1390.14 1085L1385 1085C1384.47 1085 1383.96 1085.21 1383.59 1085.59C1383.21 1085.96 1383 1086.47 1383 1087L1383 1095L1377.86 1095C1377.61 1094.06 1377.04 1093.24 1376.23 1092.69C1375.42 1092.14 1374.45 1091.91 1373.48 1092.03C1372.52 1092.15 1371.63 1092.63 1370.98 1093.36C1370.34 1094.09 1369.99 1095.03 1369.99 1096C1369.99 1096.97 1370.34 1097.91 1370.98 1098.64C1371.63 1099.37 1372.52 1099.85 1373.48 1099.97C1374.45 1100.09 1375.42 1099.86 1376.23 1099.31C1377.04 1098.76 1377.61 1097.94 1377.86 1097L1383 1097L1383 1105C1383 1105.53 1383.21 1106.04 1383.59 1106.41C1383.96 1106.79 1384.47 1107 1385 1107L1390.14 1107C1390.39 1107.94 1390.96 1108.76 1391.77 1109.31C1392.58 1109.86 1393.55 1110.09 1394.52 1109.97C1395.48 1109.85 1396.37 1109.37 1397.02 1108.64C1397.66 1107.91 1398.02 1106.97 1398.02 1106C1398.02 1105.03 1397.66 1104.09 1397.02 1103.36C1396.37 1102.63 1395.48 1102.15 1394.52 1102.03C1393.55 1101.91 1392.58 1102.14 1391.77 1102.69C1390.96 1103.24 1390.39 1104.06 1390.14 1105L1385 1105L1385 1097ZM1394 1094C1394.4 1094 1394.78 1094.12 1395.11 1094.34C1395.44 1094.56 1395.7 1094.87 1395.85 1095.23C1396 1095.6 1396.04 1096 1395.96 1096.39C1395.88 1096.78 1395.69 1097.13 1395.41 1097.41C1395.13 1097.69 1394.78 1097.88 1394.39 1097.96C1394 1098.04 1393.6 1098 1393.23 1097.85C1392.87 1097.7 1392.56 1097.44 1392.34 1097.11C1392.12 1096.78 1392 1096.4 1392 1096C1392 1095.47 1392.21 1094.96 1392.59 1094.59C1392.96 1094.21 1393.47 1094 1394 1094ZM1394 1084C1394.4 1084 1394.78 1084.12 1395.11 1084.34C1395.44 1084.56 1395.7 1084.87 1395.85 1085.23C1396 1085.6 1396.04 1086 1395.96 1086.39C1395.88 1086.78 1395.69 1087.13 1395.41 1087.41C1395.13 1087.69 1394.78 1087.88 1394.39 1087.96C1394 1088.04 1393.6 1088 1393.23 1087.85C1392.87 1087.7 1392.56 1087.44 1392.34 1087.11C1392.12 1086.78 1392 1086.4 1392 1086C1392 1085.47 1392.21 1084.96 1392.59 1084.59C1392.96 1084.21 1393.47 1084 1394 1084ZM1374 1098C1373.6 1098 1373.22 1097.88 1372.89 1097.66C1372.56 1097.44 1372.3 1097.13 1372.15 1096.77C1372 1096.4 1371.96 1096 1372.04 1095.61C1372.12 1095.22 1372.31 1094.87 1372.59 1094.59C1372.87 1094.31 1373.22 1094.12 1373.61 1094.04C1374 1093.96 1374.4 1094 1374.77 1094.15C1375.13 1094.3 1375.44 1094.56 1375.66 1094.89C1375.88 1095.22 1376 1095.6 1376 1096C1376 1096.53 1375.79 1097.04 1375.41 1097.41C1375.04 1097.79 1374.53 1098 1374 1098ZM1394 1104C1394.4 1104 1394.78 1104.12 1395.11 1104.34C1395.44 1104.56 1395.7 1104.87 1395.85 1105.23C1396 1105.6 1396.04 1106 1395.96 1106.39C1395.88 1106.78 1395.69 1107.13 1395.41 1107.41C1395.13 1107.69 1394.78 1107.88 1394.39 1107.96C1394 1108.04 1393.6 1108 1393.23 1107.85C1392.87 1107.7 1392.56 1107.44 1392.34 1107.11C1392.12 1106.78 1392 1106.4 1392 1106C1392 1105.47 1392.21 1104.96 1392.59 1104.59C1392.96 1104.21 1393.47 1104 1394 1104Z" fill="currentColor" fill-rule="nonzero" />
  </g>
</svg>

