<svg viewBox="0 0 32 32" xmlns="http://www.w3.org/2000/svg" fill="none">
  <g transform="translate(-1440.000122 -1080)">
<path id="Vector 809" d="M1470 1110L1462 1110L1462 1102L1470 1102L1470 1110ZM1464 1108L1468 1108L1468 1104L1464 1104L1464 1108ZM1460 1107L1448 1107C1446.41 1107 1444.88 1106.37 1443.76 1105.24C1442.63 1104.12 1442 1102.59 1442 1101C1442 1099.41 1442.63 1097.88 1443.76 1096.76C1444.88 1095.63 1446.41 1095 1448 1095L1450 1095L1450 1097L1448 1097C1446.94 1097 1445.92 1097.42 1445.17 1098.17C1444.42 1098.92 1444 1099.94 1444 1101C1444 1102.06 1444.42 1103.08 1445.17 1103.83C1445.92 1104.58 1446.94 1105 1448 1105L1460 1105L1460 1107Z" fill="currentColor" fill-rule="nonzero" />
		<path id="Vector 810" d="M1460 1100L1452 1100L1452 1092L1460 1092L1460 1100ZM1454 1098L1458 1098L1458 1094L1454 1094L1454 1098Z" fill="currentColor" fill-rule="nonzero" />
		<path id="Vector 811" d="M1464 1097L1462 1097L1462 1095L1464 1095C1465.06 1095 1466.08 1094.58 1466.83 1093.83C1467.58 1093.08 1468 1092.06 1468 1091C1468 1089.94 1467.58 1088.92 1466.83 1088.17C1466.08 1087.42 1465.06 1087 1464 1087L1452 1087L1452 1085L1464 1085C1465.59 1085 1467.12 1085.63 1468.24 1086.76C1469.37 1087.88 1470 1089.41 1470 1091C1470 1092.59 1469.37 1094.12 1468.24 1095.24C1467.12 1096.37 1465.59 1097 1464 1097ZM1450 1090L1442 1090L1442 1082L1450 1082L1450 1090ZM1444 1088L1448 1088L1448 1084L1444 1084L1444 1088Z" fill="currentColor" fill-rule="nonzero" />
  </g>
</svg>

