<svg viewBox="0 0 32 32" xmlns="http://www.w3.org/2000/svg" fill="none">
  <g transform="translate(-1728.000122 -1080)">
<path id="Vector 823" d="M1755 1100.42L1753.59 1099L1751 1101.59L1748.41 1099L1747 1100.42L1749.59 1103L1747 1105.59L1748.41 1107L1751 1104.41L1753.59 1107L1755 1105.59L1752.41 1103L1755 1100.42ZM1752 1084C1750.94 1084 1749.92 1084.42 1749.17 1085.17C1748.42 1085.92 1748 1086.94 1748 1088C1748 1088.71 1748.2 1089.41 1748.57 1090.02L1738.02 1100.57C1737.41 1100.2 1736.71 1100 1736 1100C1735.21 1100 1734.44 1100.23 1733.78 1100.67C1733.12 1101.11 1732.61 1101.74 1732.3 1102.47C1732 1103.2 1731.92 1104 1732.08 1104.78C1732.23 1105.56 1732.61 1106.27 1733.17 1106.83C1733.73 1107.39 1734.44 1107.77 1735.22 1107.92C1736 1108.08 1736.8 1108 1737.53 1107.7C1738.26 1107.39 1738.89 1106.88 1739.33 1106.22C1739.77 1105.56 1740 1104.79 1740 1104C1740 1103.29 1739.8 1102.59 1739.43 1101.98L1749.98 1091.43C1750.59 1091.8 1751.29 1092 1752 1092C1753.06 1092 1754.08 1091.58 1754.83 1090.83C1755.58 1090.08 1756 1089.06 1756 1088C1756 1086.94 1755.58 1085.92 1754.83 1085.17C1754.08 1084.42 1753.06 1084 1752 1084ZM1736 1106C1735.6 1106 1735.22 1105.88 1734.89 1105.66C1734.56 1105.44 1734.3 1105.13 1734.15 1104.77C1734 1104.4 1733.96 1104 1734.04 1103.61C1734.12 1103.22 1734.31 1102.87 1734.59 1102.59C1734.87 1102.31 1735.22 1102.12 1735.61 1102.04C1736 1101.96 1736.4 1102 1736.77 1102.15C1737.13 1102.3 1737.44 1102.56 1737.66 1102.89C1737.88 1103.22 1738 1103.6 1738 1104C1738 1104.53 1737.79 1105.04 1737.41 1105.41C1737.04 1105.79 1736.53 1106 1736 1106ZM1752 1090C1751.6 1090 1751.22 1089.88 1750.89 1089.66C1750.56 1089.44 1750.3 1089.13 1750.15 1088.77C1750 1088.4 1749.96 1088 1750.04 1087.61C1750.12 1087.22 1750.31 1086.87 1750.59 1086.59C1750.87 1086.31 1751.22 1086.12 1751.61 1086.04C1752 1085.96 1752.4 1086 1752.77 1086.15C1753.13 1086.3 1753.44 1086.56 1753.66 1086.89C1753.88 1087.22 1754 1087.6 1754 1088C1754 1088.53 1753.79 1089.04 1753.41 1089.41C1753.04 1089.79 1752.53 1090 1752 1090ZM1736 1091.18L1733.41 1088.59L1732 1090L1736 1094L1743 1087L1741.59 1085.59L1736 1091.18Z" fill="currentColor" fill-rule="nonzero" />
  </g>
</svg>

