<svg viewBox="0 0 32 32" xmlns="http://www.w3.org/2000/svg" fill="none">
  <g transform="translate(-72 -1152)">
<path id="Vector 832" d="M90.8 1179C90.5 1178.1 89.8 1177.5 89 1177.2L89 1174C94 1173.5 98 1169.2 98 1164.1C98 1159 93.5 1154.1 88 1154.1C82.5 1154.1 78 1158.5 78 1164C78 1169.5 81.9 1173.5 87 1174L87 1177.2C86.1 1177.5 85.5 1178.2 85.2 1179L76 1179L76 1181L85.2 1181C85.6 1182.2 86.7 1183 88 1183C89.3 1183 90.4 1182.2 90.8 1181L100 1181L100 1179L90.8 1179ZM80 1164C80 1159.6 83.6 1156 88 1156C92.4 1156 96 1159.6 96 1164C96 1168.4 92.4 1172 88 1172C83.6 1172 80 1168.4 80 1164ZM88 1181C87.4 1181 87 1180.5 87 1180C87 1179.5 87.4 1179 88 1179C88.6 1179 89 1179.5 89 1180C89 1180.5 88.5 1181 88 1181ZM91.3 1168.7L87 1164.4L87 1158L89 1158L89 1163.6L92.7 1167.3L91.3 1168.7Z" fill="currentColor" fill-rule="nonzero" />
  </g>
</svg>

