<svg viewBox="0 0 32 32" xmlns="http://www.w3.org/2000/svg" fill="none">
  <g transform="translate(-1872.000122 -1080)">
<path id="Vector 827" d="M1900 1098L1898 1098L1898 1086L1885 1086L1885 1084L1898 1084C1899.1 1084 1900 1084.9 1900 1086L1900 1098ZM1890 1108L1878 1108C1876.9 1108 1876 1107.1 1876 1106L1876 1093L1878 1093L1878 1106L1890 1106L1890 1108ZM1898 1101L1896.21 1102.79L1890.7 1097.29C1890.89 1096.9 1891 1096.46 1891 1096C1891 1094.35 1889.65 1093 1888 1093C1887.55 1093 1887.12 1093.1 1886.72 1093.3L1881.43 1088.02C1881.78 1087.42 1882 1086.74 1882 1086C1882 1083.8 1880.21 1082 1878 1082C1875.79 1082 1874 1083.79 1874 1086C1874 1088.21 1875.79 1090 1878 1090C1878.74 1090 1879.42 1089.79 1880.02 1089.43L1885.3 1094.71C1885.11 1095.1 1885 1095.54 1885 1096C1885 1097.65 1886.35 1099 1888 1099C1888.45 1099 1888.88 1098.9 1889.29 1098.7L1894.79 1104.21L1893 1106L1898 1111L1903 1106L1898 1101ZM1876 1086C1876 1084.9 1876.9 1084 1878 1084C1879.1 1084 1880 1084.9 1880 1086C1880 1087.1 1879.1 1088 1878 1088C1876.9 1088 1876 1087.1 1876 1086ZM1887 1096C1887 1095.45 1887.45 1095 1888 1095C1888.55 1095 1889 1095.45 1889 1096C1889 1096.55 1888.55 1097 1888 1097C1887.45 1097 1887 1096.55 1887 1096ZM1895.83 1106L1898 1103.83L1900.17 1106L1898 1108.17L1895.83 1106Z" fill="currentColor" fill-rule="nonzero" />
  </g>
</svg>

