<svg viewBox="0 0 32 32" xmlns="http://www.w3.org/2000/svg" fill="none">
  <g transform="translate(-0 -1152)">
<path id="Vector 830" d="M22.5 1165C17.8 1165 14 1168.8 14 1173.5C14 1178.2 17.8 1182 22.5 1182C27.2 1182 31 1178.2 31 1173.5C31 1168.8 27.2 1165 22.5 1165ZM29 1173L26 1173C26 1171 25.7 1169 25.1 1167.5C27.2 1168.5 28.8 1170.5 29 1173ZM22.5 1180C22.1 1179.8 21.2 1178.2 21 1175L23.9 1175C23.7 1178.2 22.9 1179.8 22.5 1180ZM21 1173C21.1 1169.2 22.1 1167.2 22.4 1167C22.8 1167.2 23.8 1169.2 23.9 1173L21 1173ZM19.9 1167.5C19.3 1169 19.1 1171 19 1173L16 1173C16.2 1170.5 17.8 1168.5 19.9 1167.5ZM16.2 1175L19 1175C19.1 1176.6 19.4 1178.2 19.9 1179.5C18.1 1178.7 16.7 1177 16.2 1175ZM25.1 1179.5C25.6 1178.2 25.9 1176.7 26 1175L28.9 1175C28.3 1177 26.9 1178.7 25.1 1179.5Z" fill="currentColor" fill-rule="nonzero" />
		<path id="Vector 831" d="M25.8 1162C24.9 1157.4 20.8 1154 16 1154C11.2 1154 7.1 1157.4 6.2 1162.1C2.7 1162.8 0 1165.8 0 1169.5C0 1173.6 3.4 1177 7.5 1177L11 1177L11 1175L7.5 1175C4.5 1175 2 1172.5 2 1169.5C2 1166.6 4.2 1164.2 7.1 1164L8 1164L8 1163.1C8.5 1159.1 11.9 1156 16 1156C19.7 1156 22.8 1158.6 23.7 1162L25.8 1162Z" fill="currentColor" fill-rule="nonzero" />
  </g>
</svg>

