<svg viewBox="0 0 32 32" xmlns="http://www.w3.org/2000/svg" fill="none">
  <g transform="translate(-1800.000122 -1080)">
<g id="clip path group" mask="url(#mask_0)">
			<g id="Group 6">
				<path id="Vector 824" d="M1825.8 1090C1825.33 1087.73 1824.1 1085.69 1822.3 1084.23C1820.5 1082.78 1818.25 1081.99 1815.94 1082C1813.62 1082.02 1811.38 1082.83 1809.6 1084.31C1807.82 1085.8 1806.61 1087.85 1806.18 1090.12C1804.33 1090.45 1802.68 1091.46 1801.54 1092.95C1800.4 1094.44 1799.86 1096.3 1800.03 1098.17C1800.19 1100.03 1801.05 1101.77 1802.43 1103.04C1803.82 1104.3 1805.63 1105 1807.5 1105L1808 1105L1808 1103L1807.5 1103C1806.07 1103 1804.7 1102.45 1803.67 1101.46C1802.64 1100.47 1802.04 1099.12 1801.99 1097.69C1801.94 1096.27 1802.45 1094.88 1803.41 1093.82C1804.37 1092.76 1805.7 1092.11 1807.12 1092.02L1807.96 1091.96L1808.05 1091.13C1808.25 1089.27 1809.1 1087.54 1810.45 1086.24C1811.8 1084.94 1813.56 1084.15 1815.42 1084.02C1817.29 1083.89 1819.14 1084.41 1820.66 1085.5C1822.18 1086.6 1823.27 1088.19 1823.74 1090L1825.8 1090Z" fill="currentColor" fill-rule="evenodd" />
				<path id="Vector 825" d="M1828 1092L1818 1092C1817.47 1092 1816.96 1092.21 1816.59 1092.59C1816.21 1092.96 1816 1093.47 1816 1094L1816 1098L1812 1098C1811.47 1098 1810.96 1098.21 1810.59 1098.59C1810.21 1098.96 1810 1099.47 1810 1100L1810 1110L1830 1110L1830 1094C1830 1093.47 1829.79 1092.96 1829.41 1092.59C1829.04 1092.21 1828.53 1092 1828 1092ZM1812 1108L1812 1100L1816 1100L1816 1108L1812 1108ZM1828 1108L1818 1108L1818 1094L1828 1094L1828 1108Z" fill="currentColor" fill-rule="evenodd" />
				<path id="Vector 826" d="M1820 1096L1822 1096L1822 1100L1820 1100L1820 1096ZM1824 1096L1826 1096L1826 1100L1824 1100L1824 1096ZM1820 1102L1822 1102L1822 1106L1820 1106L1820 1102ZM1824 1102L1826 1102L1826 1106L1824 1106L1824 1102Z" fill="currentColor" fill-rule="evenodd" />
  </g>
</svg>

