<svg viewBox="0 0 32 32" xmlns="http://www.w3.org/2000/svg" fill="none">
  <g transform="translate(-1944.000122 -1080)">
<g id="clip path group" mask="url(#mask_1)">
			<g id="Group 8">
				<path id="Vector 828" d="M1966 1103L1957.83 1103L1960.41 1100.41L1959 1099L1954 1104L1959 1109L1960.41 1107.59L1957.83 1105L1966 1105L1966 1103ZM1955 1093L1963.17 1093L1960.59 1090.41L1962 1089L1967 1094L1962 1099L1960.59 1097.59L1963.17 1095L1955 1095L1955 1093Z" fill="currentColor" fill-rule="evenodd" />
				<path id="Vector 829" d="M1968.5 1105L1968 1105L1968 1103L1968.5 1103C1969.93 1103 1971.3 1102.45 1972.33 1101.46C1973.36 1100.47 1973.96 1099.12 1974.01 1097.69C1974.06 1096.27 1973.55 1094.88 1972.59 1093.82C1971.63 1092.76 1970.3 1092.11 1968.88 1092.02L1968.04 1091.96L1967.95 1091.13C1967.74 1089.17 1966.81 1087.36 1965.34 1086.04C1963.87 1084.73 1961.97 1084 1960 1084C1958.03 1084 1956.13 1084.73 1954.66 1086.04C1953.19 1087.36 1952.26 1089.17 1952.05 1091.13L1951.96 1091.96L1951.12 1092.02C1949.7 1092.12 1948.37 1092.77 1947.42 1093.82C1946.47 1094.88 1945.96 1096.27 1946.01 1097.69C1946.06 1099.12 1946.66 1100.47 1947.68 1101.46C1948.71 1102.45 1950.08 1103 1951.5 1103L1952 1103L1952 1105L1951.5 1105C1949.63 1105 1947.82 1104.3 1946.43 1103.04C1945.05 1101.77 1944.19 1100.03 1944.03 1098.17C1943.86 1096.3 1944.4 1094.44 1945.54 1092.95C1946.68 1091.46 1948.33 1090.45 1950.18 1090.12C1950.62 1087.84 1951.83 1085.78 1953.63 1084.3C1955.42 1082.81 1957.67 1082 1960 1082C1962.33 1082 1964.58 1082.81 1966.37 1084.3C1968.17 1085.78 1969.39 1087.84 1969.82 1090.12C1971.67 1090.45 1973.32 1091.46 1974.46 1092.95C1975.6 1094.44 1976.14 1096.3 1975.98 1098.17C1975.81 1100.03 1974.95 1101.77 1973.57 1103.04C1972.18 1104.3 1970.37 1105 1968.5 1105Z" fill="currentColor" fill-rule="evenodd" />
  </g>
</svg>

