<svg viewBox="0 0 32 32" xmlns="http://www.w3.org/2000/svg" fill="none">
  <g transform="translate(-1512.000122 -1080)">
<path id="Vector 812" d="M1516 1100L1516 1102L1520.59 1102L1514 1108.59L1515.41 1110L1522 1103.41L1522 1108L1524 1108L1524 1100L1516 1100ZM1542 1110L1534 1110L1534 1102L1542 1102L1542 1110ZM1536 1108L1540 1108L1540 1104L1536 1104L1536 1108ZM1532 1100L1524 1100L1524 1092L1532 1092L1532 1100ZM1526 1098L1530 1098L1530 1094L1526 1094L1526 1098Z" fill="currentColor" fill-rule="nonzero" />
		<path id="Vector 813" d="M1536 1097L1534 1097L1534 1095L1536 1095C1537.06 1095 1538.08 1094.58 1538.83 1093.83C1539.58 1093.08 1540 1092.06 1540 1091C1540 1089.94 1539.58 1088.92 1538.83 1088.17C1538.08 1087.42 1537.06 1087 1536 1087L1524 1087L1524 1085L1536 1085C1537.59 1085 1539.12 1085.63 1540.24 1086.76C1541.37 1087.88 1542 1089.41 1542 1091C1542 1092.59 1541.37 1094.12 1540.24 1095.24C1539.12 1096.37 1537.59 1097 1536 1097ZM1522 1090L1514 1090L1514 1082L1522 1082L1522 1090ZM1516 1088L1520 1088L1520 1084L1516 1084L1516 1088Z" fill="currentColor" fill-rule="nonzero" />
  </g>
</svg>

