<svg viewBox="0 0 32 32" xmlns="http://www.w3.org/2000/svg" fill="none">
  <g transform="translate(-1296 -1080)">
<path id="Vector 807" d="M1312 1100C1311.21 1100 1310.44 1099.77 1309.78 1099.33C1309.12 1098.89 1308.61 1098.26 1308.3 1097.53C1308 1096.8 1307.92 1096 1308.08 1095.22C1308.23 1094.44 1308.61 1093.73 1309.17 1093.17C1309.73 1092.61 1310.44 1092.23 1311.22 1092.08C1312 1091.92 1312.8 1092 1313.53 1092.3C1314.26 1092.61 1314.89 1093.12 1315.33 1093.78C1315.77 1094.44 1316 1095.21 1316 1096C1316 1097.06 1315.58 1098.08 1314.83 1098.83C1314.08 1099.58 1313.06 1100 1312 1100ZM1312 1094C1311.6 1094 1311.22 1094.12 1310.89 1094.34C1310.56 1094.56 1310.3 1094.87 1310.15 1095.23C1310 1095.6 1309.96 1096 1310.04 1096.39C1310.12 1096.78 1310.31 1097.13 1310.59 1097.41C1310.87 1097.69 1311.22 1097.88 1311.61 1097.96C1312 1098.04 1312.4 1098 1312.77 1097.85C1313.13 1097.7 1313.44 1097.44 1313.66 1097.11C1313.88 1096.78 1314 1096.4 1314 1096C1314 1095.47 1313.79 1094.96 1313.41 1094.59C1313.04 1094.21 1312.53 1094 1312 1094ZM1301 1100C1300.21 1100 1299.44 1099.77 1298.78 1099.33C1298.12 1098.89 1297.61 1098.26 1297.3 1097.53C1297 1096.8 1296.92 1096 1297.08 1095.22C1297.23 1094.44 1297.61 1093.73 1298.17 1093.17C1298.73 1092.61 1299.44 1092.23 1300.22 1092.08C1301 1091.92 1301.8 1092 1302.53 1092.3C1303.26 1092.61 1303.89 1093.12 1304.33 1093.78C1304.77 1094.44 1305 1095.21 1305 1096C1305 1097.06 1304.58 1098.08 1303.83 1098.83C1303.08 1099.58 1302.06 1100 1301 1100ZM1301 1094C1300.6 1094 1300.22 1094.12 1299.89 1094.34C1299.56 1094.56 1299.3 1094.87 1299.15 1095.23C1299 1095.6 1298.96 1096 1299.04 1096.39C1299.12 1096.78 1299.31 1097.13 1299.59 1097.41C1299.87 1097.69 1300.22 1097.88 1300.61 1097.96C1301 1098.04 1301.4 1098 1301.77 1097.85C1302.13 1097.7 1302.44 1097.44 1302.66 1097.11C1302.88 1096.78 1303 1096.4 1303 1096C1303 1095.47 1302.79 1094.96 1302.41 1094.59C1302.04 1094.21 1301.53 1094 1301 1094ZM1306 1111C1305.21 1111 1304.44 1110.77 1303.78 1110.33C1303.12 1109.89 1302.61 1109.26 1302.3 1108.53C1302 1107.8 1301.92 1107 1302.08 1106.22C1302.23 1105.44 1302.61 1104.73 1303.17 1104.17C1303.73 1103.61 1304.44 1103.23 1305.22 1103.08C1306 1102.92 1306.8 1103 1307.53 1103.3C1308.26 1103.61 1308.89 1104.12 1309.33 1104.78C1309.77 1105.44 1310 1106.21 1310 1107C1310 1108.06 1309.58 1109.08 1308.83 1109.83C1308.08 1110.58 1307.06 1111 1306 1111ZM1306 1105C1305.6 1105 1305.22 1105.12 1304.89 1105.34C1304.56 1105.56 1304.3 1105.87 1304.15 1106.23C1304 1106.6 1303.96 1107 1304.04 1107.39C1304.12 1107.78 1304.31 1108.13 1304.59 1108.41C1304.87 1108.69 1305.22 1108.88 1305.61 1108.96C1306 1109.04 1306.4 1109 1306.77 1108.85C1307.13 1108.7 1307.44 1108.44 1307.66 1108.11C1307.88 1107.78 1308 1107.4 1308 1107C1308 1106.47 1307.79 1105.96 1307.41 1105.59C1307.04 1105.21 1306.53 1105 1306 1105ZM1318 1111C1317.21 1111 1316.44 1110.77 1315.78 1110.33C1315.12 1109.89 1314.61 1109.26 1314.3 1108.53C1314 1107.8 1313.92 1107 1314.08 1106.22C1314.23 1105.44 1314.61 1104.73 1315.17 1104.17C1315.73 1103.61 1316.44 1103.23 1317.22 1103.08C1318 1102.92 1318.8 1103 1319.53 1103.3C1320.26 1103.61 1320.89 1104.12 1321.33 1104.78C1321.77 1105.44 1322 1106.21 1322 1107C1322 1108.06 1321.58 1109.08 1320.83 1109.83C1320.08 1110.58 1319.06 1111 1318 1111ZM1318 1105C1317.6 1105 1317.22 1105.12 1316.89 1105.34C1316.56 1105.56 1316.3 1105.87 1316.15 1106.23C1316 1106.6 1315.96 1107 1316.04 1107.39C1316.12 1107.78 1316.31 1108.13 1316.59 1108.41C1316.87 1108.69 1317.22 1108.88 1317.61 1108.96C1318 1109.04 1318.4 1109 1318.77 1108.85C1319.13 1108.7 1319.44 1108.44 1319.66 1108.11C1319.88 1107.78 1320 1107.4 1320 1107C1320 1106.47 1319.79 1105.96 1319.41 1105.59C1319.04 1105.21 1318.53 1105 1318 1105ZM1323 1100C1322.21 1100 1321.44 1099.77 1320.78 1099.33C1320.12 1098.89 1319.61 1098.26 1319.3 1097.53C1319 1096.8 1318.92 1096 1319.08 1095.22C1319.23 1094.44 1319.61 1093.73 1320.17 1093.17C1320.73 1092.61 1321.44 1092.23 1322.22 1092.08C1323 1091.92 1323.8 1092 1324.53 1092.3C1325.26 1092.61 1325.89 1093.12 1326.33 1093.78C1326.77 1094.44 1327 1095.21 1327 1096C1327 1097.06 1326.58 1098.08 1325.83 1098.83C1325.08 1099.58 1324.06 1100 1323 1100ZM1323 1094C1322.6 1094 1322.22 1094.12 1321.89 1094.34C1321.56 1094.56 1321.3 1094.87 1321.15 1095.23C1321 1095.6 1320.96 1096 1321.04 1096.39C1321.12 1096.78 1321.31 1097.13 1321.59 1097.41C1321.87 1097.69 1322.22 1097.88 1322.61 1097.96C1323 1098.04 1323.4 1098 1323.77 1097.85C1324.13 1097.7 1324.44 1097.44 1324.66 1097.11C1324.88 1096.78 1325 1096.4 1325 1096C1325 1095.47 1324.79 1094.96 1324.41 1094.59C1324.04 1094.21 1323.53 1094 1323 1094ZM1318 1089C1317.21 1089 1316.44 1088.77 1315.78 1088.33C1315.12 1087.89 1314.61 1087.26 1314.3 1086.53C1314 1085.8 1313.92 1085 1314.08 1084.22C1314.23 1083.44 1314.61 1082.73 1315.17 1082.17C1315.73 1081.61 1316.44 1081.23 1317.22 1081.08C1318 1080.92 1318.8 1081 1319.53 1081.3C1320.26 1081.61 1320.89 1082.12 1321.33 1082.78C1321.77 1083.44 1322 1084.21 1322 1085C1322 1086.06 1321.58 1087.08 1320.83 1087.83C1320.08 1088.58 1319.06 1089 1318 1089ZM1318 1083C1317.6 1083 1317.22 1083.12 1316.89 1083.34C1316.56 1083.56 1316.3 1083.87 1316.15 1084.23C1316 1084.6 1315.96 1085 1316.04 1085.39C1316.12 1085.78 1316.31 1086.13 1316.59 1086.41C1316.87 1086.69 1317.22 1086.88 1317.61 1086.96C1318 1087.04 1318.4 1087 1318.77 1086.85C1319.13 1086.7 1319.44 1086.44 1319.66 1086.11C1319.88 1085.78 1320 1085.4 1320 1085C1320 1084.47 1319.79 1083.96 1319.41 1083.59C1319.04 1083.21 1318.53 1083 1318 1083ZM1306 1089C1305.21 1089 1304.44 1088.77 1303.78 1088.33C1303.12 1087.89 1302.61 1087.26 1302.3 1086.53C1302 1085.8 1301.92 1085 1302.08 1084.22C1302.23 1083.44 1302.61 1082.73 1303.17 1082.17C1303.73 1081.61 1304.44 1081.23 1305.22 1081.08C1306 1080.92 1306.8 1081 1307.53 1081.3C1308.26 1081.61 1308.89 1082.12 1309.33 1082.78C1309.77 1083.44 1310 1084.21 1310 1085C1310 1086.06 1309.58 1087.08 1308.83 1087.83C1308.08 1088.58 1307.06 1089 1306 1089ZM1306 1083C1305.6 1083 1305.22 1083.12 1304.89 1083.34C1304.56 1083.56 1304.3 1083.87 1304.15 1084.23C1304 1084.6 1303.96 1085 1304.04 1085.39C1304.12 1085.78 1304.31 1086.13 1304.59 1086.41C1304.87 1086.69 1305.22 1086.88 1305.61 1086.96C1306 1087.04 1306.4 1087 1306.77 1086.85C1307.13 1086.7 1307.44 1086.44 1307.66 1086.11C1307.88 1085.78 1308 1085.4 1308 1085C1308 1084.47 1307.79 1083.96 1307.41 1083.59C1307.04 1083.21 1306.53 1083 1306 1083Z" fill="currentColor" fill-rule="nonzero" />
  </g>
</svg>

