<svg viewBox="0 0 32 32" xmlns="http://www.w3.org/2000/svg" fill="none">
  <g transform="translate(-1656.000122 -1080)">
<path id="Vector 818" d="M1677 1108C1678.1 1108 1679 1107.1 1679 1106C1679 1104.9 1678.1 1104 1677 1104C1675.9 1104 1675 1104.9 1675 1106C1675 1107.1 1675.9 1108 1677 1108Z" fill="currentColor" fill-rule="nonzero" />
		<path id="Vector 819" d="M1660 1100L1660 1102L1664.59 1102L1658 1108.59L1659.41 1110L1666 1103.41L1666 1108L1668 1108L1668 1100L1660 1100Z" fill="currentColor" fill-rule="nonzero" />
		<path id="Vector 820" d="M1677 1088C1678.1 1088 1679 1087.1 1679 1086C1679 1084.9 1678.1 1084 1677 1084C1675.9 1084 1675 1084.9 1675 1086C1675 1087.1 1675.9 1088 1677 1088Z" fill="currentColor" fill-rule="nonzero" />
		<path id="Vector 821" d="M1660 1098C1661.1 1098 1662 1097.1 1662 1096C1662 1094.9 1661.1 1094 1660 1094C1658.9 1094 1658 1094.9 1658 1096C1658 1097.1 1658.9 1098 1660 1098Z" fill="currentColor" fill-rule="nonzero" />
		<path id="Vector 822" d="M1684 1092C1683.12 1092 1682.26 1092.3 1681.56 1092.84C1680.86 1093.38 1680.36 1094.14 1680.14 1095L1675.86 1095C1675.72 1094.44 1675.45 1093.91 1675.09 1093.46C1674.72 1093.01 1674.26 1092.64 1673.73 1092.39C1673.21 1092.14 1672.63 1092.01 1672.05 1092C1671.47 1091.99 1670.9 1092.12 1670.37 1092.36L1667.19 1088.39C1667.71 1087.7 1668 1086.86 1668 1086C1668 1085.21 1667.77 1084.44 1667.33 1083.78C1666.89 1083.12 1666.26 1082.61 1665.53 1082.3C1664.8 1082 1664 1081.92 1663.22 1082.08C1662.44 1082.23 1661.73 1082.61 1661.17 1083.17C1660.61 1083.73 1660.23 1084.44 1660.08 1085.22C1659.92 1086 1660 1086.8 1660.3 1087.53C1660.61 1088.26 1661.12 1088.89 1661.78 1089.33C1662.44 1089.77 1663.21 1090 1664 1090C1664.56 1090 1665.12 1089.88 1665.63 1089.64L1668.81 1093.61C1668.29 1094.3 1668 1095.14 1668 1096C1668 1096.97 1668.35 1097.91 1668.99 1098.64C1669.64 1099.37 1670.52 1099.84 1671.49 1099.96C1672.45 1100.09 1673.43 1099.85 1674.23 1099.31C1675.04 1098.76 1675.62 1097.94 1675.86 1097L1680.14 1097C1680.33 1097.72 1680.72 1098.38 1681.26 1098.89C1681.8 1099.41 1682.48 1099.76 1683.21 1099.91C1683.94 1100.05 1684.7 1100 1685.4 1099.74C1686.1 1099.47 1686.71 1099.02 1687.17 1098.43C1687.62 1097.84 1687.9 1097.13 1687.98 1096.39C1688.05 1095.65 1687.92 1094.9 1687.59 1094.23C1687.26 1093.56 1686.75 1093 1686.11 1092.6C1685.48 1092.21 1684.75 1092 1684 1092ZM1664 1088C1663.6 1088 1663.22 1087.88 1662.89 1087.66C1662.56 1087.44 1662.3 1087.13 1662.15 1086.77C1662 1086.4 1661.96 1086 1662.04 1085.61C1662.12 1085.22 1662.31 1084.87 1662.59 1084.59C1662.87 1084.31 1663.22 1084.12 1663.61 1084.04C1664 1083.96 1664.4 1084 1664.77 1084.15C1665.13 1084.3 1665.44 1084.56 1665.66 1084.89C1665.88 1085.22 1666 1085.6 1666 1086C1666 1086.53 1665.79 1087.04 1665.41 1087.41C1665.04 1087.79 1664.53 1088 1664 1088ZM1672 1098C1671.6 1098 1671.22 1097.88 1670.89 1097.66C1670.56 1097.44 1670.3 1097.13 1670.15 1096.77C1670 1096.4 1669.96 1096 1670.04 1095.61C1670.12 1095.22 1670.31 1094.87 1670.59 1094.59C1670.87 1094.31 1671.22 1094.12 1671.61 1094.04C1672 1093.96 1672.4 1094 1672.77 1094.15C1673.13 1094.3 1673.44 1094.56 1673.66 1094.89C1673.88 1095.22 1674 1095.6 1674 1096C1674 1096.53 1673.79 1097.04 1673.41 1097.41C1673.04 1097.79 1672.53 1098 1672 1098ZM1684 1098C1683.6 1098 1683.22 1097.88 1682.89 1097.66C1682.56 1097.44 1682.3 1097.13 1682.15 1096.77C1682 1096.4 1681.96 1096 1682.04 1095.61C1682.12 1095.22 1682.31 1094.87 1682.59 1094.59C1682.87 1094.31 1683.22 1094.12 1683.61 1094.04C1684 1093.96 1684.4 1094 1684.77 1094.15C1685.13 1094.3 1685.44 1094.56 1685.66 1094.89C1685.88 1095.22 1686 1095.6 1686 1096C1686 1096.53 1685.79 1097.04 1685.41 1097.41C1685.04 1097.79 1684.53 1098 1684 1098Z" fill="currentColor" fill-rule="nonzero" />
  </g>
</svg>

