<svg viewBox="0 0 32 32" xmlns="http://www.w3.org/2000/svg" fill="none">
  <g transform="translate(-144 -1152)">
<path id="Vector 833" d="M170 1178L150 1178L150 1158L160 1158L160 1156L150 1156C149.47 1156 148.961 1156.21 148.586 1156.59C148.211 1156.96 148 1157.47 148 1158L148 1178C148 1178.53 148.211 1179.04 148.586 1179.41C148.961 1179.79 149.47 1180 150 1180L170 1180C170.53 1180 171.039 1179.79 171.414 1179.41C171.789 1179.04 172 1178.53 172 1178L172 1168L170 1168L170 1178Z" fill="currentColor" fill-rule="nonzero" />
		<path id="Vector 834" d="M170 1178L150 1178L150 1158L160 1158L160 1156L150 1156C149.47 1156 148.961 1156.21 148.586 1156.59C148.211 1156.96 148 1157.47 148 1158L148 1178C148 1178.53 148.211 1179.04 148.586 1179.41C148.961 1179.79 149.47 1180 150 1180L170 1180C170.53 1180 171.039 1179.79 171.414 1179.41C171.789 1179.04 172 1178.53 172 1178L172 1168L170 1168L170 1178Z" fill="currentColor" fill-rule="nonzero" />
		<path id="Vector 835" d="M170 1158L170 1154L168 1154L168 1158L164 1158L164 1160L168 1160L168 1164L170 1164L170 1160L174 1160L174 1158L170 1158Z" fill="currentColor" fill-rule="nonzero" />
  </g>
</svg>

