<svg viewBox="0 0 32 32" xmlns="http://www.w3.org/2000/svg" fill="none">
  <g transform="translate(-216 -1152)">
<path id="Vector 836" d="M218 1168C218 1170.77 218.821 1173.48 220.359 1175.78C221.898 1178.08 224.084 1179.87 226.642 1180.93C229.201 1181.99 232.016 1182.27 234.731 1181.73C237.447 1181.19 239.942 1179.86 241.9 1177.9C243.857 1175.94 245.191 1173.45 245.731 1170.73C246.271 1168.02 245.994 1165.2 244.934 1162.64C243.875 1160.08 242.08 1157.9 239.778 1156.36C237.476 1154.82 234.769 1154 232 1154C228.287 1154 224.726 1155.47 222.1 1158.1C219.475 1160.73 218 1164.29 218 1168ZM224 1167L236.15 1167L230.57 1161.39L232 1160L240 1168L232 1176L230.57 1174.57L236.15 1169L224 1169L224 1167Z" fill="currentColor" fill-rule="nonzero" />
  </g>
</svg>

