<svg viewBox="0 0 32 32" xmlns="http://www.w3.org/2000/svg" fill="none">
  <g transform="translate(-288 -1152)">
<path id="Vector 837" d="M304 1160L302.57 1161.39L308.15 1167L296 1167L296 1169L308.15 1169L302.57 1174.57L304 1176L312 1168L304 1160Z" fill="currentColor" fill-rule="nonzero" />
		<path id="Vector 838" d="M304 1182C301.231 1182 298.524 1181.18 296.222 1179.64C293.92 1178.1 292.125 1175.92 291.066 1173.36C290.006 1170.8 289.729 1167.98 290.269 1165.27C290.809 1162.55 292.143 1160.06 294.101 1158.1C296.058 1156.14 298.553 1154.81 301.269 1154.27C303.984 1153.73 306.799 1154.01 309.358 1155.07C311.916 1156.13 314.102 1157.92 315.641 1160.22C317.179 1162.52 318 1165.23 318 1168C317.996 1171.71 316.519 1175.27 313.895 1177.89C311.27 1180.52 307.712 1182 304 1182ZM304 1156C301.627 1156 299.307 1156.7 297.333 1158.02C295.36 1159.34 293.822 1161.22 292.913 1163.41C292.005 1165.6 291.768 1168.01 292.231 1170.34C292.694 1172.67 293.836 1174.81 295.515 1176.49C297.193 1178.16 299.331 1179.31 301.659 1179.77C303.987 1180.23 306.4 1179.99 308.592 1179.09C310.785 1178.18 312.659 1176.64 313.978 1174.67C315.296 1172.69 316 1170.37 316 1168C315.996 1164.82 314.731 1161.77 312.481 1159.52C310.232 1157.27 307.181 1156 304 1156Z" fill="currentColor" fill-rule="nonzero" />
  </g>
</svg>

