<svg viewBox="0 0 32 32" xmlns="http://www.w3.org/2000/svg" fill="none">
  <g transform="translate(-432 -1152)">
<path id="Vector 840" d="M445 1174L451 1174L451 1176L445 1176L445 1174Z" fill="currentColor" fill-rule="nonzero" />
		<path id="Vector 841" d="M434 1170L434 1172L436 1172L436 1180C436 1181.1 436.897 1182 438 1182L458 1182C459.103 1182 460 1181.1 460 1180L460 1172L462 1172L462 1170L434 1170ZM458 1180L438 1180L438 1172L458 1172L458 1180ZM461 1168L456 1168C454.898 1168 454 1167.1 454 1166L454 1160C454 1158.9 454.898 1158 456 1158L461 1158L461 1160L456 1160L456 1166L461 1166L461 1168ZM450 1158L446 1158L446 1154L444 1154L444 1168L450 1168C451.103 1168 452 1167.1 452 1166L452 1160C452 1158.9 451.103 1158 450 1158ZM446 1166L446 1160L450 1160L450 1166L446 1166ZM440 1158L435 1158L435 1160L440 1160L440 1162L436 1162C435.47 1162 434.961 1162.21 434.586 1162.59C434.211 1162.96 434 1163.47 434 1164L434 1166C434 1166.53 434.211 1167.04 434.586 1167.41C434.961 1167.79 435.47 1168 436 1168L442 1168L442 1160C442 1158.9 441.103 1158 440 1158ZM440 1166L436 1166L436 1164L440 1164L440 1166Z" fill="currentColor" fill-rule="nonzero" />
  </g>
</svg>

