<svg viewBox="0 0 32 32" xmlns="http://www.w3.org/2000/svg" fill="none">
  <g transform="translate(-360 -1152)">
<path id="Vector 839" d="M388 1180L364 1180C362.897 1180 362 1179.1 362 1178L362 1158C362 1156.9 362.897 1156 364 1156L374 1156C375.103 1156 376 1156.9 376 1158L376 1162L388 1162C389.103 1162 390 1162.9 390 1164L390 1178C390 1179.1 389.103 1180 388 1180ZM364 1164L364 1178L388 1178L388 1164L364 1164ZM364 1162L374 1162L374 1158L364 1158L364 1162Z" fill="currentColor" fill-rule="nonzero" />
  </g>
</svg>

