<svg viewBox="0 0 32 32" xmlns="http://www.w3.org/2000/svg" fill="none">
  <g transform="translate(-720 -1152)">
<path id="Vector 845" d="M742 1178L736 1178L736 1172L740 1172L740 1170L736 1170L736 1168L742 1168L742 1174L738 1174L738 1176L742 1176L742 1178Z" fill="currentColor" fill-rule="nonzero" />
		<path id="Vector 846" d="M745.7 1161.3L738.7 1154.3C738.612 1154.2 738.504 1154.12 738.383 1154.07C738.262 1154.02 738.131 1154 738 1154L728 1154C727.47 1154 726.962 1154.21 726.588 1154.59C726.213 1154.96 726.002 1155.47 726 1156L726 1180C726.002 1180.53 726.213 1181.04 726.588 1181.41C726.962 1181.79 727.47 1182 728 1182L744 1182C744.53 1182 745.038 1181.79 745.412 1181.41C745.787 1181.04 745.998 1180.53 746 1180L746 1162C746.004 1161.87 745.979 1161.74 745.928 1161.62C745.876 1161.5 745.798 1161.39 745.7 1161.3ZM738 1156.4L743.6 1162L738 1162L738 1156.4ZM744 1180L728 1180L728 1156L736 1156L736 1162C736.002 1162.53 736.213 1163.04 736.588 1163.41C736.962 1163.79 737.47 1164 738 1164L744 1164L744 1180Z" fill="currentColor" fill-rule="nonzero" />
  </g>
</svg>

