<svg viewBox="0 0 32 32" xmlns="http://www.w3.org/2000/svg" fill="none">
  <g transform="translate(-504 -1152)">
<path id="Vector 842" d="M506 1170L510 1170L510 1172L506 1172L506 1170ZM530 1170L534 1170L534 1172L530 1172L530 1170ZM528 1174L528 1180L512 1180L512 1174L510 1174L510 1180C510.002 1180.53 510.213 1181.04 510.588 1181.41C510.962 1181.79 511.47 1182 512 1182L528 1182C528.53 1182 529.038 1181.79 529.412 1181.41C529.787 1181.04 529.998 1180.53 530 1180L530 1174L528 1174ZM512 1168L512 1156L520 1156L520 1162C520.002 1162.53 520.213 1163.04 520.588 1163.41C520.962 1163.79 521.47 1164 522 1164L528 1164L528 1168L530 1168L530 1162C530.003 1161.87 529.979 1161.74 529.927 1161.62C529.875 1161.5 529.798 1161.39 529.7 1161.3L522.7 1154.3C522.612 1154.2 522.504 1154.12 522.383 1154.07C522.262 1154.02 522.131 1154 522 1154L512 1154C511.47 1154 510.962 1154.21 510.588 1154.59C510.213 1154.96 510.002 1155.47 510 1156L510 1168L512 1168ZM522 1156.4L527.6 1162L522 1162L522 1156.4ZM514 1170L518 1170L518 1172L514 1172L514 1170ZM522 1170L526 1170L526 1172L522 1172L522 1170Z" fill="currentColor" fill-rule="nonzero" />
  </g>
</svg>

