<svg viewBox="0 0 32 32" xmlns="http://www.w3.org/2000/svg" fill="none">
  <g transform="translate(-864 -1152)">
<path id="Vector 848" d="M892.828 1155.17C892.066 1154.44 891.053 1154.04 890 1154.04C888.947 1154.04 887.934 1154.44 887.172 1155.17L868.05 1174.29C867.398 1174.94 866.881 1175.71 866.529 1176.56C866.177 1177.41 865.997 1178.32 866 1179.24L866 1182L868.756 1182C869.676 1182 870.587 1181.82 871.436 1181.47C872.286 1181.12 873.058 1180.6 873.706 1179.95L892.828 1160.83C893.199 1160.46 893.494 1160.02 893.695 1159.53C893.896 1159.05 894 1158.53 894 1158C894 1157.48 893.896 1156.96 893.695 1156.47C893.494 1155.98 893.199 1155.54 892.828 1155.17ZM874.91 1170.26L877.739 1173.09L875.617 1175.21L872.789 1172.38L874.91 1170.26ZM872.291 1178.54C871.828 1179 871.277 1179.37 870.67 1179.62C870.063 1179.87 869.413 1180 868.756 1180L868 1180L868 1179.24C867.998 1178.58 868.127 1177.93 868.378 1177.33C868.629 1176.72 868.998 1176.17 869.464 1175.71L871.374 1173.8L874.203 1176.62L872.291 1178.54ZM891.415 1159.41L879.154 1171.67L876.325 1168.85L888.587 1156.59C888.968 1156.22 889.474 1156.02 890.001 1156.02C890.528 1156.02 891.034 1156.22 891.415 1156.59C891.79 1156.96 892 1157.47 892 1158C892 1158.53 891.79 1159.04 891.415 1159.41Z" fill="currentColor" fill-rule="nonzero" />
  </g>
</svg>

