<svg viewBox="0 0 32 32" xmlns="http://www.w3.org/2000/svg" fill="none">
  <g transform="translate(-792 -1152)">
<path id="Vector 847" d="M820.83 1175.17L815 1169.33L815 1165C815.001 1164.87 814.976 1164.74 814.926 1164.62C814.876 1164.49 814.803 1164.38 814.71 1164.29L804.71 1154.29C804.617 1154.2 804.506 1154.12 804.385 1154.07C804.263 1154.02 804.132 1153.99 804 1153.99C803.868 1153.99 803.737 1154.02 803.615 1154.07C803.494 1154.12 803.383 1154.2 803.29 1154.29L794.29 1163.29C794.196 1163.38 794.122 1163.49 794.071 1163.62C794.02 1163.74 793.994 1163.87 793.994 1164C793.994 1164.13 794.02 1164.26 794.071 1164.38C794.122 1164.51 794.196 1164.62 794.29 1164.71L804.29 1174.71C804.383 1174.8 804.494 1174.88 804.616 1174.93C804.738 1174.98 804.868 1175 805 1175L809.34 1175L815.17 1180.84C815.921 1181.59 816.938 1182.01 818 1182.01C819.062 1182.01 820.079 1181.59 820.83 1180.84C821.581 1180.09 822.002 1179.07 822.002 1178.01C822.002 1176.95 821.581 1175.93 820.83 1175.18L820.83 1175.17ZM798 1162.41L800.29 1164.71L801.71 1163.29L799.41 1161L801 1159.41L805.29 1163.71L806.71 1162.29L802.41 1158L804 1156.41L810.59 1163L803 1170.59L796.41 1164L798 1162.41ZM819.41 1179.41C819.035 1179.78 818.528 1179.99 818 1179.99C817.472 1179.99 816.965 1179.78 816.59 1179.41L810.46 1173.29C810.247 1173.14 810.005 1173.04 809.75 1173L805.41 1173L804.41 1172L812 1164.41L813 1165.41L813 1169.75C813.001 1170.01 813.105 1170.26 813.29 1170.45L819.41 1176.59C819.782 1176.96 819.992 1177.47 819.992 1178C819.992 1178.53 819.782 1179.04 819.41 1179.41Z" fill="currentColor" fill-rule="nonzero" />
  </g>
</svg>

