<svg viewBox="0 0 32 32" xmlns="http://www.w3.org/2000/svg" fill="none">
  <g transform="translate(-936 -1152)">
<path id="Vector 849" d="M954.57 1180C953.897 1178.72 952 1174.23 952 1164L952 1163.87L953.117 1164.61C954.005 1165.2 954.733 1166 955.236 1166.94C955.739 1167.88 956.001 1168.93 956 1170L958 1170C958.001 1168.6 957.657 1167.23 956.999 1166C956.341 1164.77 955.388 1163.72 954.227 1162.95L952.803 1162L954.333 1162C955.847 1162 957.32 1162.49 958.533 1163.4L960.4 1164.8L961.6 1163.2L959.733 1161.8C958.173 1160.64 956.28 1160 954.333 1160L953.117 1160C954.423 1158.72 956.174 1158.01 958 1158L960 1158L960 1156L958 1156C956.657 1156.01 955.331 1156.31 954.12 1156.89C952.909 1157.47 951.844 1158.32 951 1159.36C950.156 1158.32 949.091 1157.47 947.88 1156.89C946.669 1156.31 945.343 1156.01 944 1156L942 1156L942 1158L944 1158C945.826 1158.01 947.577 1158.72 948.883 1160L947.667 1160C945.72 1160 943.827 1160.64 942.267 1161.8L940.4 1163.2L941.6 1164.8L943.467 1163.4C944.68 1162.49 946.153 1162 947.667 1162L949.197 1162L947.774 1162.95C946.612 1163.72 945.66 1164.77 945.001 1166C944.343 1167.23 943.999 1168.6 944 1170L946 1170C945.999 1168.93 946.261 1167.88 946.764 1166.94C947.267 1166 947.995 1165.2 948.883 1164.61L950 1163.87L950 1164C950 1172.94 951.412 1177.77 952.361 1180L938 1180L938 1182L966 1182L966 1180L954.57 1180Z" fill="currentColor" fill-rule="nonzero" />
  </g>
</svg>

