<svg viewBox="0 0 32 32" xmlns="http://www.w3.org/2000/svg" fill="none">
  <g transform="translate(-1008 -1152)">
<path id="Vector 850" d="M1020 1158L1014 1158C1013.47 1158 1012.96 1158.21 1012.59 1158.59C1012.21 1158.96 1012 1159.47 1012 1160L1012 1166C1012 1166.53 1012.21 1167.04 1012.59 1167.41C1012.96 1167.79 1013.47 1168 1014 1168L1020 1168C1020.53 1168 1021.04 1167.79 1021.41 1167.41C1021.79 1167.04 1022 1166.53 1022 1166L1022 1160C1022 1159.47 1021.79 1158.96 1021.41 1158.59C1021.04 1158.21 1020.53 1158 1020 1158ZM1014 1166L1014 1160L1020 1160L1020 1166L1014 1166ZM1034 1158L1028 1158C1027.47 1158 1026.96 1158.21 1026.59 1158.59C1026.21 1158.96 1026 1159.47 1026 1160L1026 1176C1026 1176.53 1026.21 1177.04 1026.59 1177.41C1026.96 1177.79 1027.47 1178 1028 1178L1034 1178C1034.53 1178 1035.04 1177.79 1035.41 1177.41C1035.79 1177.04 1036 1176.53 1036 1176L1036 1160C1036 1159.47 1035.79 1158.96 1035.41 1158.59C1035.04 1158.21 1034.53 1158 1034 1158ZM1028 1176L1028 1160L1034 1160L1034 1176L1028 1176Z" fill="currentColor" fill-rule="nonzero" />
  </g>
</svg>

