<svg viewBox="0 0 32 32" xmlns="http://www.w3.org/2000/svg" fill="none">
  <g transform="translate(-1224 -1152)">
<path id="Vector 853" d="M1251 1156L1237 1156C1235.14 1156 1233.36 1156.74 1232.05 1158.05C1230.74 1159.36 1230 1161.14 1230 1163C1230 1164.86 1230.74 1166.64 1232.05 1167.95C1233.36 1169.26 1235.14 1170 1237 1170L1237 1180L1239 1180L1239 1158L1244 1158L1244 1180L1246 1180L1246 1158L1251 1158L1251 1156ZM1237 1168C1235.67 1168 1234.4 1167.47 1233.46 1166.54C1232.53 1165.6 1232 1164.33 1232 1163C1232 1161.67 1232.53 1160.4 1233.46 1159.46C1234.4 1158.53 1235.67 1158 1237 1158L1237 1168Z" fill="currentColor" fill-rule="nonzero" />
  </g>
</svg>

