<svg viewBox="0 0 32 32" xmlns="http://www.w3.org/2000/svg" fill="none">
  <g transform="translate(-1296 -1152)">
<path id="Vector 854" d="M1324 1165L1324 1160C1324 1159.47 1323.79 1158.96 1323.41 1158.59C1323.04 1158.21 1322.53 1158 1322 1158L1319 1158L1319 1160L1322 1160L1322 1165C1322 1165.57 1322.13 1166.13 1322.37 1166.65C1322.6 1167.17 1322.95 1167.63 1323.38 1168C1322.95 1168.37 1322.6 1168.83 1322.37 1169.35C1322.13 1169.87 1322 1170.43 1322 1171L1322 1176L1319 1176L1319 1178L1322 1178C1322.53 1178 1323.04 1177.79 1323.41 1177.41C1323.79 1177.04 1324 1176.53 1324 1176L1324 1171C1324 1170.47 1324.21 1169.96 1324.59 1169.59C1324.96 1169.21 1325.47 1169 1326 1169L1326 1167C1325.47 1167 1324.96 1166.79 1324.59 1166.41C1324.21 1166.04 1324 1165.53 1324 1165Z" fill="currentColor" fill-rule="nonzero" />
		<path id="Vector 855" d="M1313 1161L1312.14 1164L1314.14 1164L1315 1161L1317 1161L1316.14 1164L1318 1164L1318 1166L1315.57 1166L1314.43 1170L1317 1170L1317 1172L1313.86 1172L1313 1175L1311 1175L1311.86 1172L1309.86 1172L1309 1175L1307 1175L1307.86 1172L1306 1172L1306 1170L1308.43 1170L1309.57 1166L1307 1166L1307 1164L1310.14 1164L1311 1161L1313 1161ZM1313.57 1166L1311.57 1166L1310.43 1170L1312.43 1170L1313.57 1166Z" fill="currentColor" fill-rule="evenodd" />
		<path id="Vector 856" d="M1302 1165L1302 1160L1305 1160L1305 1158L1302 1158C1301.47 1158 1300.96 1158.21 1300.59 1158.59C1300.21 1158.96 1300 1159.47 1300 1160L1300 1165C1300 1165.53 1299.79 1166.04 1299.41 1166.41C1299.04 1166.79 1298.53 1167 1298 1167L1298 1169C1298.53 1169 1299.04 1169.21 1299.41 1169.59C1299.79 1169.96 1300 1170.47 1300 1171L1300 1176C1300 1176.53 1300.21 1177.04 1300.59 1177.41C1300.96 1177.79 1301.47 1178 1302 1178L1305 1178L1305 1176L1302 1176L1302 1171C1302 1170.43 1301.87 1169.87 1301.63 1169.35C1301.4 1168.83 1301.05 1168.37 1300.62 1168C1301.05 1167.63 1301.4 1167.17 1301.63 1166.65C1301.87 1166.13 1302 1165.57 1302 1165Z" fill="currentColor" fill-rule="nonzero" />
  </g>
</svg>

