<svg viewBox="0 0 32 32" xmlns="http://www.w3.org/2000/svg" fill="none">
  <g transform="translate(-1368.000122 -1152)">
<path id="Vector 857" d="M1396 1164C1396.53 1164 1397.04 1163.79 1397.41 1163.41C1397.79 1163.04 1398 1162.53 1398 1162L1398 1156C1398 1155.47 1397.79 1154.96 1397.41 1154.59C1397.04 1154.21 1396.53 1154 1396 1154L1372 1154C1371.47 1154 1370.96 1154.21 1370.59 1154.59C1370.21 1154.96 1370 1155.47 1370 1156L1370 1162C1370 1162.53 1370.21 1163.04 1370.59 1163.41C1370.96 1163.79 1371.47 1164 1372 1164L1383 1164L1383 1168L1377 1168C1376.47 1168 1375.96 1168.21 1375.59 1168.59C1375.21 1168.96 1375 1169.47 1375 1170L1375 1174L1372 1174C1371.47 1174 1370.96 1174.21 1370.59 1174.59C1370.21 1174.96 1370 1175.47 1370 1176L1370 1180C1370 1180.53 1370.21 1181.04 1370.59 1181.41C1370.96 1181.79 1371.47 1182 1372 1182L1380 1182C1380.53 1182 1381.04 1181.79 1381.41 1181.41C1381.79 1181.04 1382 1180.53 1382 1180L1382 1176C1382 1175.47 1381.79 1174.96 1381.41 1174.59C1381.04 1174.21 1380.53 1174 1380 1174L1377 1174L1377 1170L1391 1170L1391 1174L1388 1174C1387.47 1174 1386.96 1174.21 1386.59 1174.59C1386.21 1174.96 1386 1175.47 1386 1176L1386 1180C1386 1180.53 1386.21 1181.04 1386.59 1181.41C1386.96 1181.79 1387.47 1182 1388 1182L1396 1182C1396.53 1182 1397.04 1181.79 1397.41 1181.41C1397.79 1181.04 1398 1180.53 1398 1180L1398 1176C1398 1175.47 1397.79 1174.96 1397.41 1174.59C1397.04 1174.21 1396.53 1174 1396 1174L1393 1174L1393 1170C1393 1169.47 1392.79 1168.96 1392.41 1168.59C1392.04 1168.21 1391.53 1168 1391 1168L1385 1168L1385 1164L1396 1164ZM1380 1180L1372 1180L1372 1176L1380 1176L1380 1180ZM1396 1180L1388 1180L1388 1176L1396 1176L1396 1180ZM1372 1156L1396 1156L1396 1162L1372 1162L1372 1156Z" fill="currentColor" fill-rule="nonzero" />
  </g>
</svg>

