<svg viewBox="0 0 32 32" xmlns="http://www.w3.org/2000/svg" fill="none">
  <g transform="translate(-1440.000122 -1152)">
<path id="Vector 858" d="M1463 1172C1460.59 1172 1458.57 1173.72 1458.1 1176L1454 1176C1451.79 1176 1450 1174.21 1450 1172L1450 1163.9C1450.93 1163.71 1451.78 1163.26 1452.46 1162.61C1453.15 1161.95 1453.63 1161.12 1453.85 1160.2C1454.08 1159.28 1454.04 1158.32 1453.74 1157.42C1453.44 1156.52 1452.9 1155.73 1452.16 1155.13C1451.43 1154.53 1450.54 1154.15 1449.6 1154.04C1448.66 1153.92 1447.71 1154.08 1446.86 1154.48C1446 1154.89 1445.28 1155.53 1444.77 1156.33C1444.27 1157.13 1444 1158.05 1444 1159C1444 1161.41 1445.72 1163.43 1448 1163.9L1448 1172C1448 1175.31 1450.69 1178 1454 1178L1458.1 1178C1458.29 1178.93 1458.74 1179.78 1459.39 1180.46C1460.05 1181.15 1460.88 1181.63 1461.8 1181.85C1462.72 1182.08 1463.68 1182.04 1464.58 1181.74C1465.48 1181.44 1466.27 1180.9 1466.87 1180.16C1467.47 1179.43 1467.85 1178.54 1467.96 1177.6C1468.08 1176.66 1467.92 1175.71 1467.52 1174.86C1467.11 1174 1466.47 1173.28 1465.67 1172.77C1464.87 1172.27 1463.95 1172 1463 1172ZM1463 1180C1461.35 1180 1460 1178.65 1460 1177C1460 1175.35 1461.35 1174 1463 1174C1464.65 1174 1466 1175.35 1466 1177C1466 1178.65 1464.65 1180 1463 1180Z" fill="currentColor" fill-rule="nonzero" />
  </g>
</svg>

