<svg viewBox="0 0 32 32" xmlns="http://www.w3.org/2000/svg" fill="none">
  <g transform="translate(-1800.000122 -1152)">
<path id="Vector 865" d="M1826 1170C1824.14 1170 1822.59 1171.28 1822.14 1173L1802 1173L1802 1175L1822.14 1175C1822.59 1176.72 1824.14 1178 1826 1178C1828.21 1178 1830 1176.21 1830 1174C1830 1171.79 1828.21 1170 1826 1170ZM1826 1176C1824.9 1176 1824 1175.1 1824 1174C1824 1172.9 1824.9 1172 1826 1172C1827.1 1172 1828 1172.9 1828 1174C1828 1175.1 1827.1 1176 1826 1176ZM1826 1158C1824.14 1158 1822.59 1159.28 1822.14 1161L1802 1161L1802 1163L1822.14 1163C1822.59 1164.72 1824.14 1166 1826 1166C1828.21 1166 1830 1164.21 1830 1162C1830 1159.79 1828.21 1158 1826 1158ZM1826 1164C1824.9 1164 1824 1163.1 1824 1162C1824 1160.9 1824.9 1160 1826 1160C1827.1 1160 1828 1160.9 1828 1162C1828 1163.1 1827.1 1164 1826 1164Z" fill="currentColor" fill-rule="nonzero" />
  </g>
</svg>

