<svg viewBox="0 0 32 32" xmlns="http://www.w3.org/2000/svg" fill="none">
  <g transform="translate(-0 -1224)">
<path id="Vector 869" d="M30 1243C30.0024 1241.99 29.6968 1241 29.124 1240.17C28.5513 1239.34 27.7385 1238.7 26.794 1238.34C26.4588 1236.95 25.7017 1235.69 24.6259 1234.74C23.5501 1233.79 22.208 1233.2 20.7825 1233.04C19.357 1232.88 17.9176 1233.17 16.6605 1233.86C15.4034 1234.55 14.3899 1235.61 13.758 1236.9C12.8541 1234.12 12.9002 1231.13 13.889 1228.38C13.9473 1228.23 13.9686 1228.07 13.9514 1227.91C13.9341 1227.75 13.8787 1227.59 13.7898 1227.46C13.7009 1227.32 13.581 1227.21 13.4402 1227.13C13.2993 1227.05 13.1416 1227.01 12.98 1227C12.9213 1227 12.8628 1227.01 12.805 1227.02C9.62163 1227.58 6.76037 1229.31 4.77211 1231.86C2.78385 1234.41 1.80918 1237.6 2.03575 1240.83C2.26232 1244.05 3.67411 1247.08 5.9993 1249.33C8.32449 1251.57 11.3987 1252.88 14.63 1253C14.794 1253 14.958 1253 15.12 1253C17.1056 1253 19.0647 1252.54 20.848 1251.67C22.6312 1250.8 24.1916 1249.53 25.41 1247.96C26.6576 1247.86 27.8219 1247.29 28.6721 1246.37C29.5223 1245.46 29.9963 1244.25 30 1243ZM14.703 1251C12.1121 1250.91 9.63546 1249.91 7.70298 1248.18C5.77049 1246.45 4.50423 1244.1 4.12402 1241.54C3.74381 1238.97 4.27367 1236.36 5.6216 1234.14C6.96954 1231.93 9.05043 1230.25 11.503 1229.41C10.787 1232.55 11.0825 1235.83 12.347 1238.78C11.4273 1239.36 10.7198 1240.21 10.3315 1241.23C9.94324 1242.24 9.89542 1243.35 10.1953 1244.39C10.4951 1245.43 11.1263 1246.35 11.9933 1247C12.8603 1247.65 13.9158 1248 15 1248L22.677 1248C20.6281 1249.92 17.9282 1250.99 15.121 1251C14.983 1251 14.843 1251 14.703 1251ZM25 1246L15 1246C14.2664 1246 13.5583 1245.73 13.01 1245.24C12.4617 1244.76 12.1114 1244.08 12.0256 1243.36C11.9398 1242.63 12.1244 1241.89 12.5443 1241.29C12.9643 1240.69 13.5905 1240.26 14.304 1240.09L14.962 1239.94L15.061 1239.27C15.2352 1238.08 15.8299 1237 16.7367 1236.21C17.6435 1235.43 18.8018 1235 20 1235C21.1983 1235 22.3566 1235.43 23.2633 1236.21C24.1701 1237 24.7649 1238.08 24.939 1239.27L25.038 1239.94L25.696 1240.09C26.4096 1240.26 27.0357 1240.69 27.4557 1241.29C27.8757 1241.89 28.0603 1242.63 27.9744 1243.36C27.8886 1244.08 27.5383 1244.76 26.99 1245.24C26.4418 1245.73 25.7337 1246 25 1246Z" fill="currentColor" fill-rule="nonzero" />
  </g>
</svg>

