<svg viewBox="0 0 32 32" xmlns="http://www.w3.org/2000/svg" fill="none">
  <g transform="translate(-1872.000122 -1152)">
<path id="Vector 866" d="M1898 1170C1896.14 1170 1894.59 1171.28 1894.14 1173L1891.41 1173L1886 1167.59C1885.63 1167.21 1885.12 1167 1884.59 1167L1874 1167L1874 1169L1884.59 1169L1890 1174.41C1890.38 1174.79 1890.88 1175 1891.41 1175L1894.14 1175C1894.59 1176.72 1896.14 1178 1898 1178C1900.21 1178 1902 1176.21 1902 1174C1902 1171.79 1900.21 1170 1898 1170ZM1898 1176C1896.9 1176 1896 1175.1 1896 1174C1896 1172.9 1896.9 1172 1898 1172C1899.1 1172 1900 1172.9 1900 1174C1900 1175.1 1899.1 1176 1898 1176ZM1898 1158C1896.14 1158 1894.59 1159.28 1894.14 1161L1891.41 1161C1890.88 1161 1890.38 1161.21 1890 1161.59L1886.41 1165.17L1887.83 1166.59L1891.41 1163L1894.14 1163C1894.59 1164.72 1896.14 1166 1898 1166C1900.21 1166 1902 1164.21 1902 1162C1902 1159.79 1900.21 1158 1898 1158ZM1898 1164C1896.9 1164 1896 1163.1 1896 1162C1896 1160.9 1896.9 1160 1898 1160C1899.1 1160 1900 1160.9 1900 1162C1900 1163.1 1899.1 1164 1898 1164Z" fill="currentColor" fill-rule="nonzero" />
  </g>
</svg>

