<svg viewBox="0 0 32 32" xmlns="http://www.w3.org/2000/svg" fill="none">
  <g transform="translate(-1584.000122 -1152)">
<path id="Vector 861" d="M1610 1171C1607.79 1171 1606 1172.79 1606 1175C1606 1175.68 1606.19 1176.32 1606.49 1176.88C1604.61 1178.26 1602.33 1179 1600 1179C1593.94 1179 1589 1174.06 1589 1168L1587 1168C1587 1175.17 1592.83 1181 1600 1181C1602.83 1181 1605.59 1180.07 1607.84 1178.36C1608.49 1178.78 1609.23 1179 1610 1179C1612.21 1179 1614 1177.21 1614 1175C1614 1172.79 1612.21 1171 1610 1171ZM1610 1177C1608.9 1177 1608 1176.1 1608 1175C1608 1173.9 1608.9 1173 1610 1173C1611.1 1173 1612 1173.9 1612 1175C1612 1176.1 1611.1 1177 1610 1177ZM1600 1155C1597.17 1155 1594.41 1155.93 1592.16 1157.64C1591.52 1157.22 1590.77 1157 1590 1157C1587.79 1157 1586 1158.79 1586 1161C1586 1163.21 1587.79 1165 1590 1165C1592.21 1165 1594 1163.21 1594 1161C1594 1160.32 1593.81 1159.68 1593.51 1159.12C1595.39 1157.74 1597.67 1157 1600 1157C1606.07 1157 1611 1161.94 1611 1168L1613 1168C1613 1160.83 1607.17 1155 1600 1155ZM1590 1163C1588.9 1163 1588 1162.1 1588 1161C1588 1159.9 1588.9 1159 1590 1159C1591.1 1159 1592 1159.9 1592 1161C1592 1162.1 1591.1 1163 1590 1163Z" fill="currentColor" fill-rule="nonzero" />
  </g>
</svg>

