<svg viewBox="0 0 32 32" xmlns="http://www.w3.org/2000/svg" fill="none">
  <g transform="translate(-1728.000122 -1152)">
<path id="Vector 863" d="M1754 1158C1752.14 1158 1750.59 1159.28 1750.14 1161L1747.41 1161C1746.88 1161 1746.38 1161.21 1746 1161.59L1742.41 1165.17L1743.83 1166.59L1747.41 1163L1750.14 1163C1750.59 1164.72 1752.14 1166 1754 1166C1756.21 1166 1758 1164.21 1758 1162C1758 1159.79 1756.21 1158 1754 1158ZM1754 1164C1752.9 1164 1752 1163.1 1752 1162C1752 1160.9 1752.9 1160 1754 1160C1755.1 1160 1756 1160.9 1756 1162C1756 1163.1 1755.1 1164 1754 1164ZM1738.17 1169.41L1734.59 1173L1730 1173L1730 1175L1734.59 1175C1735.12 1175 1735.62 1174.79 1736 1174.41L1739.59 1170.83L1738.17 1169.41Z" fill="currentColor" fill-rule="nonzero" />
		<path id="Vector 864" d="M1754 1170C1752.14 1170 1750.59 1171.28 1750.14 1173L1747.41 1173L1736 1161.59C1735.63 1161.21 1735.12 1161 1734.59 1161L1730 1161L1730 1163L1734.59 1163L1746 1174.41C1746.38 1174.79 1746.88 1175 1747.41 1175L1750.14 1175C1750.59 1176.72 1752.14 1178 1754 1178C1756.21 1178 1758 1176.21 1758 1174C1758 1171.79 1756.21 1170 1754 1170ZM1754 1176C1752.9 1176 1752 1175.1 1752 1174C1752 1172.9 1752.9 1172 1754 1172C1755.1 1172 1756 1172.9 1756 1174C1756 1175.1 1755.1 1176 1754 1176Z" fill="currentColor" fill-rule="nonzero" />
  </g>
</svg>

