<svg viewBox="0 0 32 32" xmlns="http://www.w3.org/2000/svg" fill="none">
  <g transform="translate(-72 -1224)">
<path id="Vector 870" d="M80 1233C79.2089 1233 78.4355 1232.77 77.7777 1232.33C77.1199 1231.89 76.6072 1231.26 76.3045 1230.53C76.0017 1229.8 75.9225 1229 76.0769 1228.22C76.2312 1227.44 76.6122 1226.73 77.1716 1226.17C77.731 1225.61 78.4437 1225.23 79.2196 1225.08C79.9956 1224.92 80.7998 1225 81.5307 1225.3C82.2616 1225.61 82.8864 1226.12 83.3259 1226.78C83.7654 1227.44 84 1228.21 84 1229C84 1230.06 83.5786 1231.08 82.8284 1231.83C82.0783 1232.58 81.0609 1233 80 1233ZM80 1227C79.6044 1227 79.2178 1227.12 78.8889 1227.34C78.56 1227.56 78.3036 1227.87 78.1522 1228.23C78.0009 1228.6 77.9613 1229 78.0384 1229.39C78.1156 1229.78 78.3061 1230.13 78.5858 1230.41C78.8655 1230.69 79.2219 1230.88 79.6098 1230.96C79.9978 1231.04 80.3999 1231 80.7654 1230.85C81.1308 1230.7 81.4432 1230.44 81.6629 1230.11C81.8827 1229.78 82 1229.4 82 1229C82 1228.47 81.7893 1227.96 81.4142 1227.59C81.0391 1227.21 80.5304 1227 80 1227ZM96 1233C95.2089 1233 94.4355 1232.77 93.7777 1232.33C93.1199 1231.89 92.6072 1231.26 92.3045 1230.53C92.0017 1229.8 91.9225 1229 92.0769 1228.22C92.2312 1227.44 92.6122 1226.73 93.1716 1226.17C93.731 1225.61 94.4437 1225.23 95.2196 1225.08C95.9956 1224.92 96.7998 1225 97.5307 1225.3C98.2616 1225.61 98.8864 1226.12 99.3259 1226.78C99.7654 1227.44 100 1228.21 100 1229C100 1230.06 99.5786 1231.08 98.8284 1231.83C98.0783 1232.58 97.0609 1233 96 1233ZM96 1227C95.6044 1227 95.2178 1227.12 94.8889 1227.34C94.56 1227.56 94.3036 1227.87 94.1522 1228.23C94.0009 1228.6 93.9613 1229 94.0384 1229.39C94.1156 1229.78 94.3061 1230.13 94.5858 1230.41C94.8655 1230.69 95.2219 1230.88 95.6098 1230.96C95.9978 1231.04 96.3999 1231 96.7654 1230.85C97.1308 1230.7 97.4432 1230.44 97.6629 1230.11C97.8827 1229.78 98 1229.4 98 1229C98 1228.47 97.7893 1227.96 97.4142 1227.59C97.0391 1227.21 96.5304 1227 96 1227ZM98 1254L94 1254C93.4696 1254 92.9609 1253.79 92.5858 1253.41C92.2107 1253.04 92 1252.53 92 1252L92 1245L94 1245L94 1252L98 1252L98 1243L100 1243L100 1237C100 1236.73 99.8946 1236.48 99.7071 1236.29C99.5196 1236.11 99.2652 1236 99 1236L92.58 1236L88 1244L83.42 1236L77 1236C76.7348 1236 76.4804 1236.11 76.2929 1236.29C76.1054 1236.48 76 1236.73 76 1237L76 1243L78 1243L78 1252L82 1252L82 1245L84 1245L84 1252C84 1252.53 83.7893 1253.04 83.4142 1253.41C83.0391 1253.79 82.5304 1254 82 1254L78 1254C77.4696 1254 76.9609 1253.79 76.5858 1253.41C76.2107 1253.04 76 1252.53 76 1252L76 1245C75.4696 1245 74.9609 1244.79 74.5858 1244.41C74.2107 1244.04 74 1243.53 74 1243L74 1237C74 1236.2 74.3161 1235.44 74.8787 1234.88C75.4413 1234.32 76.2044 1234 77 1234L84.58 1234L88 1240L91.42 1234L99 1234C99.7956 1234 100.559 1234.32 101.121 1234.88C101.684 1235.44 102 1236.2 102 1237L102 1243C102 1243.53 101.789 1244.04 101.414 1244.41C101.039 1244.79 100.53 1245 100 1245L100 1252C100 1252.53 99.7893 1253.04 99.4142 1253.41C99.0391 1253.79 98.5304 1254 98 1254Z" fill="currentColor" fill-rule="nonzero" />
  </g>
</svg>

