<svg viewBox="0 0 32 32" xmlns="http://www.w3.org/2000/svg" fill="none">
  <g transform="translate(-1512.000122 -1152)">
<path id="Vector 859" d="M1532.83 1168.81C1530.39 1168.81 1529 1169.72 1529 1171.56C1529 1173.16 1530.03 1174.21 1531.85 1174.21C1533.19 1174.21 1534.18 1173.6 1534.47 1172.45L1534.57 1172.45C1534.71 1173.38 1535.29 1174 1536.24 1174L1537.46 1174L1537.46 1172.25L1536.56 1172.25L1536.56 1168.02C1536.56 1165.97 1535.28 1164.82 1532.85 1164.82C1531.05 1164.82 1530 1165.51 1529.34 1166.54L1530.65 1167.71C1531.08 1167.09 1531.67 1166.57 1532.7 1166.57C1533.87 1166.57 1534.36 1167.16 1534.36 1168.16L1534.36 1168.81L1532.83 1168.81ZM1534.36 1171.32C1534.36 1172.16 1533.57 1172.61 1532.59 1172.61C1531.73 1172.61 1531.23 1172.25 1531.23 1171.52L1531.23 1171.23C1531.23 1170.53 1531.8 1170.13 1532.95 1170.13L1534.36 1170.13L1534.36 1171.32ZM1521.27 1169.43L1524.4 1169.43C1526.62 1169.43 1527.96 1167.95 1527.96 1165.71C1527.96 1163.5 1526.62 1162 1524.4 1162L1519 1162L1519 1174L1521.27 1174L1521.27 1169.43ZM1521.27 1163.98L1524.2 1163.98C1525.07 1163.98 1525.61 1164.44 1525.61 1165.32L1525.61 1166.11C1525.61 1166.99 1525.07 1167.47 1524.2 1167.47L1521.27 1167.47L1521.27 1163.98Z" fill="currentColor" fill-rule="nonzero" />
		<path id="Vector 860" d="M1514 1156L1514 1180C1514 1180.53 1514.21 1181.04 1514.59 1181.41C1514.96 1181.79 1515.47 1182 1516 1182L1540 1182C1540.53 1182 1541.04 1181.79 1541.41 1181.41C1541.79 1181.04 1542 1180.53 1542 1180L1542 1156C1542 1155.47 1541.79 1154.96 1541.41 1154.59C1541.04 1154.21 1540.53 1154 1540 1154L1516 1154C1515.47 1154 1514.96 1154.21 1514.59 1154.59C1514.21 1154.96 1514 1155.47 1514 1156ZM1540 1180L1516 1180L1516 1156L1540 1156L1540 1180Z" fill="currentColor" fill-rule="nonzero" />
  </g>
</svg>

