<svg viewBox="0 0 32 32" xmlns="http://www.w3.org/2000/svg" fill="none">
  <g transform="translate(-1944.000122 -1152)">
<path id="Vector 867" d="M1971 1167L1975 1167L1975 1169L1971 1169L1971 1167ZM1967 1159.59L1970 1156.59L1971.42 1158L1968.42 1161L1967 1159.59ZM1959 1153L1961 1153L1961 1157L1959 1157L1959 1153ZM1948.59 1178L1951.59 1175L1953 1176.42L1950 1179.42L1948.59 1178ZM1948.59 1158L1950 1156.59L1953 1159.59L1951.59 1161L1948.59 1158ZM1945 1167L1949 1167L1949 1169L1945 1169L1945 1167Z" fill="currentColor" fill-rule="nonzero" />
		<path id="Vector 868" d="M1970.79 1172.34C1970.48 1171.1 1969.84 1169.97 1968.93 1169.07C1968.97 1168.72 1969 1168.36 1969 1168C1969 1166.47 1968.62 1164.97 1967.89 1163.64C1967.15 1162.3 1966.09 1161.17 1964.8 1160.36C1963.51 1159.55 1962.03 1159.08 1960.51 1158.99C1958.98 1158.9 1957.46 1159.21 1956.09 1159.87C1954.72 1160.53 1953.53 1161.53 1952.65 1162.78C1951.77 1164.02 1951.22 1165.47 1951.05 1166.99C1950.89 1168.5 1951.11 1170.04 1951.7 1171.44C1952.28 1172.85 1953.22 1174.09 1954.42 1175.03C1954.08 1175.79 1953.95 1176.62 1954.02 1177.45C1954.09 1178.27 1954.36 1179.07 1954.82 1179.76C1955.27 1180.45 1955.9 1181.02 1956.63 1181.41C1957.36 1181.8 1958.17 1182 1959 1182L1969 1182C1970.17 1182 1971.3 1181.59 1972.2 1180.85C1973.09 1180.1 1973.7 1179.06 1973.91 1177.92C1974.13 1176.77 1973.93 1175.58 1973.36 1174.57C1972.79 1173.55 1971.88 1172.76 1970.79 1172.34ZM1953 1168C1953 1166.17 1953.72 1164.42 1955 1163.12C1956.28 1161.81 1958.02 1161.06 1959.85 1161.02C1961.67 1160.98 1963.44 1161.66 1964.78 1162.91C1966.11 1164.16 1966.9 1165.88 1966.99 1167.7C1966.06 1167.25 1965.04 1167.01 1964 1167C1962.43 1167.01 1960.92 1167.54 1959.69 1168.51C1958.46 1169.47 1957.58 1170.82 1957.21 1172.34C1956.59 1172.58 1956.04 1172.94 1955.56 1173.39C1954.76 1172.74 1954.12 1171.92 1953.68 1170.98C1953.23 1170.05 1953 1169.03 1953 1168ZM1969 1180L1959 1180C1958.27 1180 1957.56 1179.73 1957.01 1179.24C1956.46 1178.76 1956.11 1178.08 1956.03 1177.36C1955.94 1176.63 1956.12 1175.89 1956.54 1175.29C1956.96 1174.69 1957.59 1174.26 1958.3 1174.09L1958.96 1173.94L1959.06 1173.27C1959.24 1172.08 1959.83 1171 1960.74 1170.21C1961.64 1169.43 1962.8 1169 1964 1169C1965.2 1169 1966.36 1169.43 1967.26 1170.21C1968.17 1171 1968.77 1172.08 1968.94 1173.27L1969.04 1173.94L1969.7 1174.09C1970.41 1174.26 1971.04 1174.69 1971.46 1175.29C1971.88 1175.89 1972.06 1176.63 1971.98 1177.36C1971.89 1178.08 1971.54 1178.76 1970.99 1179.24C1970.44 1179.73 1969.73 1180 1969 1180Z" fill="currentColor" fill-rule="nonzero" />
  </g>
</svg>

