<svg viewBox="0 0 32 32" xmlns="http://www.w3.org/2000/svg" fill="none">
  <g transform="translate(-144 -1224)">
<path id="Vector 871" d="M164.834 1240.81C162.393 1240.81 161 1241.72 161 1243.56C161 1245.16 162.032 1246.21 163.854 1246.21C165.194 1246.21 166.175 1245.6 166.467 1244.45L166.57 1244.45C166.707 1245.38 167.292 1246 168.238 1246L169.458 1246L169.458 1244.25L168.564 1244.25L168.564 1240.02C168.564 1237.97 167.275 1236.82 164.851 1236.82C163.046 1236.82 161.997 1237.51 161.344 1238.54L162.651 1239.71C163.081 1239.09 163.665 1238.57 164.696 1238.57C165.866 1238.57 166.364 1239.16 166.364 1240.16L166.364 1240.81L164.834 1240.81ZM166.364 1243.32C166.364 1244.16 165.574 1244.61 164.594 1244.61C163.734 1244.61 163.234 1244.25 163.234 1243.52L163.234 1243.23C163.234 1242.53 163.803 1242.13 164.954 1242.13L166.364 1242.13L166.364 1243.32ZM153.272 1241.43L156.401 1241.43C158.619 1241.43 159.96 1239.95 159.96 1237.71C159.96 1235.5 158.619 1234 156.4 1234L151.004 1234L151.004 1246L153.273 1246L153.272 1241.43ZM153.272 1235.98L156.195 1235.98C157.071 1235.98 157.605 1236.44 157.605 1237.32L157.605 1238.11C157.605 1238.99 157.071 1239.47 156.195 1239.47L153.272 1239.47L153.272 1235.98Z" fill="currentColor" fill-rule="nonzero" />
		<path id="Vector 872" d="M165 1254L155 1254C150.037 1254 146 1249.96 146 1245L146 1235C146 1230.04 150.037 1226 155 1226L165 1226C169.963 1226 174 1230.04 174 1235L174 1245C174 1249.96 169.963 1254 165 1254ZM155 1228C151.14 1228 148 1231.14 148 1235L148 1245C148 1248.86 151.14 1252 155 1252L165 1252C168.86 1252 172 1248.86 172 1245L172 1235C172 1231.14 168.86 1228 165 1228L155 1228Z" fill="currentColor" fill-rule="nonzero" />
  </g>
</svg>

