<svg viewBox="0 0 32 32" xmlns="http://www.w3.org/2000/svg" fill="none">
  <g transform="translate(-1656.000122 -1152)">
<path id="Vector 862" d="M1682 1164C1680.14 1164 1678.59 1165.28 1678.14 1167L1675.41 1167C1674.88 1167 1674.38 1167.21 1674 1167.59L1668.59 1173L1658 1173L1658 1175L1668.59 1175C1669.12 1175 1669.62 1174.79 1670 1174.41L1675.41 1169L1678.14 1169C1678.59 1170.72 1680.14 1172 1682 1172C1684.21 1172 1686 1170.21 1686 1168C1686 1165.79 1684.21 1164 1682 1164ZM1682 1170C1680.9 1170 1680 1169.1 1680 1168C1680 1166.9 1680.9 1166 1682 1166C1683.1 1166 1684 1166.9 1684 1168C1684 1169.1 1683.1 1170 1682 1170ZM1672.17 1166.59L1668.59 1163L1658 1163L1658 1161L1668.59 1161C1669.12 1161 1669.62 1161.21 1670 1161.59L1673.59 1165.17L1672.17 1166.59Z" fill="currentColor" fill-rule="nonzero" />
  </g>
</svg>

