<svg viewBox="0 0 32 32" xmlns="http://www.w3.org/2000/svg" fill="none">
  <g transform="translate(-216 -1224)">
<path id="Vector 873" d="M246 1228L246 1226L238 1226L238 1228C238.001 1228.88 238.297 1229.74 238.84 1230.44C239.383 1231.14 240.143 1231.64 241 1231.86L241 1235L239 1235L239 1237L245 1237L245 1235L243 1235L243 1231.86C243.857 1231.64 244.617 1231.14 245.16 1230.44C245.703 1229.74 245.999 1228.88 246 1228ZM226.5 1233C225.808 1233 225.131 1232.79 224.556 1232.41C223.98 1232.03 223.531 1231.48 223.266 1230.84C223.002 1230.2 222.932 1229.5 223.067 1228.82C223.202 1228.14 223.536 1227.51 224.025 1227.03C224.515 1226.54 225.138 1226.2 225.817 1226.07C226.496 1225.93 227.2 1226 227.839 1226.27C228.479 1226.53 229.026 1226.98 229.41 1227.56C229.795 1228.13 230 1228.81 230 1229.5C229.999 1230.43 229.63 1231.32 228.974 1231.97C228.318 1232.63 227.428 1233 226.5 1233ZM226.5 1228C226.203 1228 225.913 1228.09 225.667 1228.25C225.42 1228.42 225.228 1228.65 225.114 1228.93C225.001 1229.2 224.971 1229.5 225.029 1229.79C225.087 1230.08 225.23 1230.35 225.439 1230.56C225.649 1230.77 225.916 1230.91 226.207 1230.97C226.498 1231.03 226.8 1231 227.074 1230.89C227.348 1230.77 227.582 1230.58 227.747 1230.33C227.912 1230.09 228 1229.8 228 1229.5C228 1229.1 227.842 1228.72 227.561 1228.44C227.279 1228.16 226.898 1228 226.5 1228ZM238.475 1255.31L235.34 1248L228.238 1248C227.357 1248 226.501 1247.71 225.802 1247.17C225.103 1246.63 224.601 1245.88 224.372 1245.03L222.738 1238.9C222.488 1237.91 222.639 1236.86 223.158 1235.97C223.678 1235.09 224.524 1234.45 225.514 1234.18C226.505 1233.92 227.559 1234.06 228.449 1234.56C229.34 1235.07 229.994 1235.91 230.272 1236.89L231.102 1240L237 1240L237 1242L229.565 1242L228.342 1237.41C228.204 1236.93 227.884 1236.53 227.451 1236.29C227.019 1236.04 226.508 1235.98 226.028 1236.1C225.549 1236.23 225.138 1236.54 224.884 1236.97C224.631 1237.4 224.554 1237.91 224.671 1238.39L226.305 1244.51C226.419 1244.94 226.671 1245.32 227.02 1245.58C227.37 1245.85 227.798 1246 228.239 1246L236.659 1246L240.314 1254.53L238.475 1255.31Z" fill="currentColor" fill-rule="nonzero" />
		<path id="Vector 874" d="M234 1252L223.768 1252C223.327 1252 222.899 1251.85 222.55 1251.59C222.2 1251.32 221.949 1250.94 221.836 1250.51L218.034 1236.26L219.966 1235.74L223.768 1250L234 1250L234 1252Z" fill="currentColor" fill-rule="nonzero" />
  </g>
</svg>

