<svg viewBox="0 0 32 32" xmlns="http://www.w3.org/2000/svg" fill="none">
  <g transform="translate(-360 -1224)">
<path id="Vector 877" d="M381 1226C379.595 1226 378.209 1226.33 376.953 1226.96C375.698 1227.59 374.608 1228.51 373.771 1229.64C372.934 1230.77 372.372 1232.08 372.132 1233.46C371.892 1234.85 371.98 1236.27 372.388 1237.61L362 1248L362 1254L368 1254L378.388 1243.61C379.626 1243.99 380.93 1244.09 382.212 1243.92C383.494 1243.74 384.724 1243.3 385.816 1242.6C386.909 1241.91 387.841 1240.99 388.546 1239.91C389.251 1238.82 389.715 1237.6 389.905 1236.32C390.095 1235.04 390.006 1233.74 389.646 1232.49C389.285 1231.25 388.661 1230.1 387.816 1229.12C386.971 1228.14 385.925 1227.36 384.749 1226.82C383.572 1226.28 382.294 1226 381 1226ZM381 1242C380.311 1242 379.627 1241.9 378.968 1241.7L377.821 1241.35L376.974 1242.2L373.793 1245.38L372.414 1244L371 1245.41L372.379 1246.79L370.793 1248.38L369.414 1247L368 1248.41L369.379 1249.79L367.172 1252L364 1252L364 1248.83L373.802 1239.03L374.65 1238.18L374.302 1237.03C373.875 1235.62 373.902 1234.12 374.381 1232.72C374.86 1231.33 375.766 1230.12 376.97 1229.28C378.174 1228.43 379.614 1227.98 381.087 1228C382.559 1228.02 383.988 1228.5 385.171 1229.38C386.353 1230.25 387.229 1231.48 387.674 1232.89C388.118 1234.29 388.109 1235.8 387.647 1237.2C387.185 1238.59 386.294 1239.81 385.101 1240.67C383.907 1241.54 382.472 1242 381 1242Z" fill="currentColor" fill-rule="nonzero" />
		<path id="Vector 878" d="M382 1236C383.105 1236 384 1235.1 384 1234C384 1232.9 383.105 1232 382 1232C380.895 1232 380 1232.9 380 1234C380 1235.1 380.895 1236 382 1236Z" fill="currentColor" fill-rule="nonzero" />
  </g>
</svg>

