<svg viewBox="0 0 32 32" xmlns="http://www.w3.org/2000/svg" fill="none">
  <g transform="translate(-288 -1224)">
<path id="Vector 875" d="M298.5 1233C297.808 1233 297.131 1232.79 296.556 1232.41C295.98 1232.03 295.531 1231.48 295.266 1230.84C295.002 1230.2 294.932 1229.5 295.067 1228.82C295.202 1228.14 295.536 1227.51 296.025 1227.03C296.515 1226.54 297.138 1226.2 297.817 1226.07C298.496 1225.93 299.2 1226 299.839 1226.27C300.479 1226.53 301.026 1226.98 301.41 1227.56C301.795 1228.13 302 1228.81 302 1229.5C301.999 1230.43 301.63 1231.32 300.974 1231.97C300.318 1232.63 299.428 1233 298.5 1233ZM298.5 1228C298.203 1228 297.913 1228.09 297.667 1228.25C297.42 1228.42 297.228 1228.65 297.114 1228.93C297.001 1229.2 296.971 1229.5 297.029 1229.79C297.087 1230.08 297.23 1230.35 297.439 1230.56C297.649 1230.77 297.916 1230.91 298.207 1230.97C298.498 1231.03 298.8 1231 299.074 1230.89C299.348 1230.77 299.582 1230.58 299.747 1230.33C299.912 1230.09 300 1229.8 300 1229.5C300 1229.1 299.842 1228.72 299.561 1228.44C299.279 1228.16 298.898 1228 298.5 1228ZM310.474 1255.31L307.34 1248L300.239 1248C299.358 1248 298.501 1247.71 297.802 1247.17C297.103 1246.63 296.601 1245.88 296.372 1245.03L294.738 1238.9C294.472 1237.9 294.613 1236.84 295.131 1235.94C295.649 1235.05 296.502 1234.4 297.501 1234.13C298.5 1233.86 299.564 1234.01 300.459 1234.52C301.354 1235.04 302.007 1235.89 302.273 1236.89L303.1 1240L309 1240L309 1242L301.564 1242L300.341 1237.41C300.199 1236.94 299.878 1236.54 299.448 1236.3C299.017 1236.06 298.509 1235.99 298.032 1236.12C297.556 1236.25 297.147 1236.56 296.893 1236.98C296.639 1237.4 296.559 1237.91 296.671 1238.39L298.304 1244.51C298.418 1244.94 298.67 1245.32 299.02 1245.59C299.369 1245.85 299.798 1246 300.239 1246L308.659 1246L312.313 1254.53L310.474 1255.31ZM318 1230L314 1230L314 1226L312 1226L312 1230L308 1230L308 1232L312 1232L312 1236L314 1236L314 1232L318 1232L318 1230Z" fill="currentColor" fill-rule="nonzero" />
		<path id="Vector 876" d="M306 1252L295.768 1252C295.327 1252 294.899 1251.85 294.549 1251.59C294.2 1251.32 293.949 1250.94 293.835 1250.51L290.033 1236.26L291.966 1235.74L295.768 1250L306 1250L306 1252Z" fill="currentColor" fill-rule="nonzero" />
  </g>
</svg>

