<svg viewBox="0 0 32 32" xmlns="http://www.w3.org/2000/svg" fill="none">
  <g transform="translate(-432 -1224)">
<path id="Vector 879" d="M458 1244L449.83 1244L452.41 1241.41L451 1240L446 1245L451 1250L452.41 1248.59L449.83 1246L458 1246L458 1254L460 1254L460 1246C460 1245.47 459.789 1244.96 459.414 1244.59C459.039 1244.21 458.53 1244 458 1244Z" fill="currentColor" fill-rule="nonzero" />
		<path id="Vector 880" d="M455.71 1233.29L448.71 1226.29C448.617 1226.2 448.506 1226.12 448.384 1226.07C448.262 1226.02 448.132 1226 448 1226L438 1226C437.47 1226 436.961 1226.21 436.586 1226.59C436.211 1226.96 436 1227.47 436 1228L436 1252C436 1252.53 436.211 1253.04 436.586 1253.41C436.961 1253.79 437.47 1254 438 1254L446 1254L446 1252L438 1252L438 1228L446 1228L446 1234C446 1234.53 446.211 1235.04 446.586 1235.41C446.961 1235.79 447.47 1236 448 1236L454 1236L454 1238L456 1238L456 1234C456.001 1233.87 455.975 1233.74 455.926 1233.62C455.876 1233.49 455.803 1233.38 455.71 1233.29ZM448 1228.41L453.59 1234L448 1234L448 1228.41Z" fill="currentColor" fill-rule="nonzero" />
  </g>
</svg>

