<svg viewBox="0 0 32 32" xmlns="http://www.w3.org/2000/svg" fill="none">
  <g transform="translate(-504 -1224)">
<path id="Vector 881" d="M516 1232L516 1248L512 1248L512 1232L516 1232ZM516 1230L512 1230C511.47 1230 510.961 1230.21 510.586 1230.59C510.211 1230.96 510 1231.47 510 1232L510 1248C510 1248.53 510.211 1249.04 510.586 1249.41C510.961 1249.79 511.47 1250 512 1250L516 1250C516.53 1250 517.039 1249.79 517.414 1249.41C517.789 1249.04 518 1248.53 518 1248L518 1232C518 1231.47 517.789 1230.96 517.414 1230.59C517.039 1230.21 516.53 1230 516 1230ZM528 1232L528 1248L524 1248L524 1232L528 1232ZM528 1230L524 1230C523.47 1230 522.961 1230.21 522.586 1230.59C522.211 1230.96 522 1231.47 522 1232L522 1248C522 1248.53 522.211 1249.04 522.586 1249.41C522.961 1249.79 523.47 1250 524 1250L528 1250C528.53 1250 529.039 1249.79 529.414 1249.41C529.789 1249.04 530 1248.53 530 1248L530 1232C530 1231.47 529.789 1230.96 529.414 1230.59C529.039 1230.21 528.53 1230 528 1230Z" fill="currentColor" fill-rule="nonzero" />
  </g>
</svg>

