<svg viewBox="0 0 32 32" xmlns="http://www.w3.org/2000/svg" fill="none">
  <g transform="translate(-576 -1224)">
<path id="Vector 882" d="M588 1230L586 1230C585.47 1230 584.961 1230.21 584.586 1230.59C584.211 1230.96 584 1231.47 584 1232L584 1248C584 1248.53 584.211 1249.04 584.586 1249.41C584.961 1249.79 585.47 1250 586 1250L588 1250C588.53 1250 589.039 1249.79 589.414 1249.41C589.789 1249.04 590 1248.53 590 1248L590 1232C590 1231.47 589.789 1230.96 589.414 1230.59C589.039 1230.21 588.53 1230 588 1230ZM598 1230L596 1230C595.47 1230 594.961 1230.21 594.586 1230.59C594.211 1230.96 594 1231.47 594 1232L594 1248C594 1248.53 594.211 1249.04 594.586 1249.41C594.961 1249.79 595.47 1250 596 1250L598 1250C598.53 1250 599.039 1249.79 599.414 1249.41C599.789 1249.04 600 1248.53 600 1248L600 1232C600 1231.47 599.789 1230.96 599.414 1230.59C599.039 1230.21 598.53 1230 598 1230Z" fill="currentColor" fill-rule="nonzero" />
  </g>
</svg>

