<svg viewBox="0 0 32 32" xmlns="http://www.w3.org/2000/svg" fill="none">
  <g transform="translate(-792 -1224)">
<path id="Vector 885" d="M799 1252C798.735 1252 798.48 1251.89 798.293 1251.71C798.105 1251.52 798 1251.27 798 1251L798 1229C798 1228.83 798.045 1228.66 798.131 1228.5C798.218 1228.35 798.342 1228.23 798.491 1228.14C798.641 1228.05 798.811 1228 798.985 1228C799.158 1228 799.33 1228.04 799.482 1228.12L819.482 1239.12C819.639 1239.21 819.77 1239.34 819.861 1239.49C819.952 1239.65 820 1239.82 820 1240C820 1240.18 819.952 1240.35 819.861 1240.51C819.77 1240.66 819.639 1240.79 819.482 1240.88L799.482 1251.88C799.334 1251.96 799.169 1252 799 1252Z" fill="currentColor" fill-rule="nonzero" />
  </g>
</svg>

