<svg viewBox="0 0 32 32" xmlns="http://www.w3.org/2000/svg" fill="none">
  <g transform="translate(-936 -1224)">
<path id="Vector 887" d="M947 1247C946.735 1247 946.48 1246.89 946.293 1246.71C946.105 1246.52 946 1246.27 946 1246L946 1234C946 1233.83 946.044 1233.66 946.127 1233.51C946.21 1233.36 946.329 1233.24 946.474 1233.15C946.619 1233.06 946.785 1233.01 946.955 1233C947.125 1232.99 947.295 1233.03 947.447 1233.11L959.447 1239.11C959.613 1239.19 959.752 1239.32 959.85 1239.47C959.947 1239.63 959.999 1239.81 959.999 1240C959.999 1240.19 959.947 1240.37 959.85 1240.53C959.752 1240.68 959.613 1240.81 959.447 1240.89L947.447 1246.89C947.308 1246.96 947.155 1247 947 1247ZM948 1235.62L948 1244.38L956.764 1240L948 1235.62Z" fill="currentColor" fill-rule="nonzero" />
		<path id="Vector 888" d="M952 1228C954.373 1228 956.693 1228.7 958.667 1230.02C960.64 1231.34 962.178 1233.22 963.087 1235.41C963.995 1237.6 964.232 1240.01 963.769 1242.34C963.306 1244.67 962.164 1246.81 960.485 1248.49C958.807 1250.16 956.669 1251.31 954.341 1251.77C952.013 1252.23 949.601 1251.99 947.408 1251.09C945.215 1250.18 943.341 1248.64 942.022 1246.67C940.704 1244.69 940 1242.37 940 1240C940 1236.82 941.264 1233.77 943.515 1231.51C945.765 1229.26 948.817 1228 952 1228ZM952 1226C949.231 1226 946.524 1226.82 944.222 1228.36C941.92 1229.9 940.125 1232.08 939.066 1234.64C938.006 1237.2 937.729 1240.02 938.269 1242.73C938.809 1245.45 940.143 1247.94 942.101 1249.9C944.058 1251.86 946.553 1253.19 949.269 1253.73C951.984 1254.27 954.799 1253.99 957.358 1252.93C959.916 1251.87 962.102 1250.08 963.641 1247.78C965.179 1245.48 966 1242.77 966 1240C966 1236.29 964.525 1232.73 961.899 1230.1C959.274 1227.47 955.713 1226 952 1226Z" fill="currentColor" fill-rule="nonzero" />
  </g>
</svg>

