<svg viewBox="0 0 32 32" xmlns="http://www.w3.org/2000/svg" fill="none">
  <g transform="translate(-648 -1224)">
<path id="Vector 883" d="M655 1252C654.735 1252 654.48 1251.89 654.293 1251.71C654.105 1251.52 654 1251.27 654 1251L654 1229C654 1228.83 654.045 1228.66 654.131 1228.5C654.218 1228.35 654.342 1228.23 654.491 1228.14C654.641 1228.05 654.811 1228 654.985 1228C655.158 1228 655.33 1228.04 655.482 1228.12L675.482 1239.12C675.639 1239.21 675.77 1239.34 675.861 1239.49C675.952 1239.65 676 1239.82 676 1240C676 1240.18 675.952 1240.35 675.861 1240.51C675.77 1240.66 675.639 1240.79 675.482 1240.88L655.482 1251.88C655.334 1251.96 655.169 1252 655 1252ZM656 1230.69L656 1249.31L672.925 1240L656 1230.69Z" fill="currentColor" fill-rule="nonzero" />
  </g>
</svg>

