<svg viewBox="0 0 32 32" xmlns="http://www.w3.org/2000/svg" fill="none">
  <g transform="translate(-720 -1224)">
<path id="Vector 884" d="M736 1226C733.231 1226 730.524 1226.82 728.222 1228.36C725.92 1229.9 724.125 1232.08 723.066 1234.64C722.006 1237.2 721.729 1240.02 722.269 1242.73C722.809 1245.45 724.143 1247.94 726.101 1249.9C728.058 1251.86 730.553 1253.19 733.269 1253.73C735.984 1254.27 738.799 1253.99 741.358 1252.93C743.916 1251.87 746.102 1250.08 747.641 1247.78C749.179 1245.48 750 1242.77 750 1240C750 1236.29 748.525 1232.73 745.899 1230.1C743.274 1227.47 739.713 1226 736 1226ZM743.447 1240.9L731.447 1246.9C731.294 1246.97 731.125 1247.01 730.955 1247C730.784 1246.99 730.619 1246.94 730.474 1246.85C730.329 1246.76 730.209 1246.64 730.126 1246.49C730.043 1246.34 730 1246.17 730 1246L730 1234C730 1233.83 730.044 1233.66 730.127 1233.51C730.21 1233.36 730.329 1233.24 730.474 1233.15C730.619 1233.06 730.785 1233.01 730.955 1233C731.125 1232.99 731.295 1233.03 731.447 1233.11L743.447 1239.11C743.613 1239.19 743.752 1239.32 743.85 1239.47C743.947 1239.63 743.999 1239.81 743.999 1240C743.999 1240.19 743.947 1240.37 743.85 1240.53C743.752 1240.68 743.613 1240.81 743.447 1240.89" fill="currentColor" fill-rule="nonzero" />
  </g>
</svg>

