<svg viewBox="0 0 32 32" xmlns="http://www.w3.org/2000/svg" fill="none">
  <g transform="translate(-1008 -1224)">
<path id="Vector 889" d="M1020 1244.38L1028.76 1240L1020 1235.62L1020 1244.38Z" fill="currentColor" fill-rule="nonzero" />
		<path id="Vector 890" d="M1024 1226C1021.23 1226 1018.52 1226.82 1016.22 1228.36C1013.92 1229.9 1012.13 1232.08 1011.07 1234.64C1010.01 1237.2 1009.73 1240.02 1010.27 1242.73C1010.81 1245.45 1012.14 1247.94 1014.1 1249.9C1016.06 1251.86 1018.55 1253.19 1021.27 1253.73C1023.98 1254.27 1026.8 1253.99 1029.36 1252.93C1031.92 1251.87 1034.1 1250.08 1035.64 1247.78C1037.18 1245.48 1038 1242.77 1038 1240C1038 1236.29 1036.53 1232.73 1033.9 1230.1C1031.27 1227.47 1027.71 1226 1024 1226ZM1031.45 1240.9L1019.45 1246.9C1019.29 1246.97 1019.13 1247.01 1018.95 1247C1018.78 1246.99 1018.62 1246.94 1018.47 1246.85C1018.33 1246.76 1018.21 1246.64 1018.13 1246.49C1018.04 1246.34 1018 1246.17 1018 1246L1018 1234C1018 1233.83 1018.04 1233.66 1018.13 1233.51C1018.21 1233.36 1018.33 1233.24 1018.47 1233.15C1018.62 1233.06 1018.78 1233.01 1018.96 1233C1019.13 1232.99 1019.29 1233.03 1019.45 1233.11L1031.45 1239.11C1031.61 1239.19 1031.75 1239.32 1031.85 1239.47C1031.95 1239.63 1032 1239.81 1032 1240C1032 1240.19 1031.95 1240.37 1031.85 1240.53C1031.75 1240.68 1031.61 1240.81 1031.45 1240.89" fill="currentColor" fill-rule="nonzero" />
  </g>
</svg>

