<svg viewBox="0 0 32 32" xmlns="http://www.w3.org/2000/svg" fill="none">
  <g transform="translate(-1080 -1224)">
<path id="Vector 891" d="M1102 1233L1110 1233L1110 1235L1107 1235L1107 1245L1110 1245L1110 1247L1102 1247L1102 1245L1105 1245L1105 1235L1102 1235L1102 1233ZM1094 1245L1094 1233L1092 1233L1092 1247L1100 1247L1100 1245L1094 1245ZM1084 1242L1088 1242C1089.1 1242 1090 1241.1 1090 1240L1090 1235C1090 1233.9 1089.1 1233 1088 1233L1082 1233L1082 1247L1084 1247L1084 1242ZM1084 1235L1088 1235L1088 1240L1084 1240L1084 1235Z" fill="currentColor" fill-rule="nonzero" />
  </g>
</svg>

