<svg viewBox="0 0 32 32" xmlns="http://www.w3.org/2000/svg" fill="none">
  <g transform="translate(-1224 -1224)">
<path id="Vector 893" d="M1246 1232L1245 1232L1245 1226L1243 1226L1243 1232L1237 1232L1237 1226L1235 1226L1235 1232L1234 1232C1233.47 1232 1232.96 1232.21 1232.59 1232.59C1232.21 1232.96 1232 1233.47 1232 1234L1232 1240C1232 1241.95 1232.72 1243.83 1234 1245.28C1235.29 1246.74 1237.07 1247.68 1239 1247.93L1239 1254L1241 1254L1241 1247.93C1242.93 1247.68 1244.71 1246.74 1246 1245.28C1247.28 1243.83 1248 1241.95 1248 1240L1248 1234C1248 1233.47 1247.79 1232.96 1247.41 1232.59C1247.04 1232.21 1246.53 1232 1246 1232Z" fill="currentColor" fill-rule="nonzero" />
  </g>
</svg>

