<svg viewBox="0 0 32 32" xmlns="http://www.w3.org/2000/svg" fill="none">
  <g transform="translate(-1152 -1224)">
<path id="Vector 892" d="M1174 1232L1173 1232L1173 1226L1171 1226L1171 1232L1165 1232L1165 1226L1163 1226L1163 1232L1162 1232C1161.47 1232 1160.96 1232.21 1160.59 1232.59C1160.21 1232.96 1160 1233.47 1160 1234L1160 1240C1160 1241.95 1160.72 1243.83 1162 1245.28C1163.29 1246.74 1165.07 1247.68 1167 1247.93L1167 1254L1169 1254L1169 1247.93C1170.93 1247.68 1172.71 1246.74 1174 1245.28C1175.28 1243.83 1176 1241.95 1176 1240L1176 1234C1176 1233.47 1175.79 1232.96 1175.41 1232.59C1175.04 1232.21 1174.53 1232 1174 1232ZM1174 1240C1174 1241.59 1173.37 1243.12 1172.24 1244.24C1171.12 1245.37 1169.59 1246 1168 1246C1166.41 1246 1164.88 1245.37 1163.76 1244.24C1162.63 1243.12 1162 1241.59 1162 1240L1162 1234L1174 1234L1174 1240Z" fill="currentColor" fill-rule="nonzero" />
  </g>
</svg>

