<svg viewBox="0 0 32 32" xmlns="http://www.w3.org/2000/svg" fill="none">
  <g transform="translate(-1296 -1224)">
<path id="Vector 894" d="M1326 1247L1320 1247C1319.47 1247 1318.96 1246.79 1318.59 1246.41C1318.21 1246.04 1318 1245.53 1318 1245L1318 1235C1318 1234.47 1318.21 1233.96 1318.59 1233.59C1318.96 1233.21 1319.47 1233 1320 1233L1326 1233L1326 1235L1320 1235L1320 1245L1324 1245L1324 1241L1322 1241L1322 1239L1326 1239L1326 1247ZM1314 1243L1310.32 1233L1308 1233L1308 1247L1310 1247L1310 1237L1313.68 1247L1316 1247L1316 1233L1314 1233L1314 1243ZM1300 1247L1298 1247L1298 1233L1304 1233C1304.53 1233 1305.04 1233.21 1305.41 1233.59C1305.79 1233.96 1306 1234.47 1306 1235L1306 1240C1306 1240.53 1305.79 1241.04 1305.41 1241.41C1305.04 1241.79 1304.53 1242 1304 1242L1300 1242L1300 1247ZM1300 1240L1304 1240L1304 1235L1300 1235L1300 1240Z" fill="currentColor" fill-rule="nonzero" />
  </g>
</svg>

