<svg viewBox="0 0 32 32" xmlns="http://www.w3.org/2000/svg" fill="none">
  <g transform="translate(-1368.000122 -1224)">
<path id="Vector 895" d="M1393 1237C1392.48 1237 1391.98 1237.14 1391.53 1237.4C1391.26 1236.97 1390.89 1236.62 1390.45 1236.38C1390 1236.13 1389.51 1236 1389 1236C1388.49 1236 1387.98 1236.14 1387.53 1236.4C1387.17 1235.83 1386.62 1235.4 1385.98 1235.17C1385.34 1234.95 1384.64 1234.95 1384 1235.18L1384 1230C1384.01 1229.6 1383.94 1229.2 1383.8 1228.83C1383.65 1228.46 1383.43 1228.12 1383.15 1227.83C1382.87 1227.54 1382.54 1227.31 1382.17 1227.16C1381.8 1227 1381.4 1226.92 1381 1226.92C1380.6 1226.92 1380.21 1227 1379.84 1227.16C1379.47 1227.31 1379.14 1227.54 1378.86 1227.83C1378.58 1228.12 1378.36 1228.46 1378.21 1228.83C1378.06 1229.2 1377.99 1229.6 1378.01 1230L1378.01 1241.1L1375.78 1239.58C1375.26 1239.2 1374.64 1239 1374.01 1239C1373.41 1239 1372.83 1239.17 1372.34 1239.5C1371.84 1239.83 1371.46 1240.3 1371.23 1240.85C1371 1241.4 1370.94 1242.01 1371.06 1242.59C1371.18 1243.18 1371.47 1243.71 1371.89 1244.13L1379.89 1251.43C1381.02 1252.44 1382.48 1253 1384 1253L1389 1253C1390.86 1253 1392.64 1252.26 1393.95 1250.95C1395.26 1249.64 1396 1247.86 1396 1246L1396 1240C1396 1239.2 1395.68 1238.44 1395.12 1237.88C1394.56 1237.32 1393.8 1237 1393 1237ZM1394 1246C1394 1247.33 1393.47 1248.6 1392.54 1249.53C1391.6 1250.47 1390.33 1251 1389 1251L1384 1251C1382.99 1251.01 1382.01 1250.66 1381.24 1250L1373.3 1242.7C1373.11 1242.51 1373.01 1242.26 1373.01 1242C1373.01 1241.81 1373.06 1241.63 1373.16 1241.47C1373.25 1241.32 1373.39 1241.19 1373.56 1241.11C1373.73 1241.02 1373.91 1240.99 1374.1 1241C1374.28 1241.02 1374.46 1241.09 1374.61 1241.2L1380.01 1244.9L1380.01 1230C1380.01 1229.73 1380.11 1229.48 1380.3 1229.29C1380.49 1229.11 1380.74 1229 1381.01 1229C1381.27 1229 1381.52 1229.11 1381.71 1229.29C1381.9 1229.48 1382.01 1229.73 1382.01 1230L1382.01 1241L1384 1241L1384 1238C1384 1237.87 1384.02 1237.73 1384.07 1237.61C1384.12 1237.48 1384.19 1237.37 1384.29 1237.27C1384.38 1237.18 1384.49 1237.1 1384.61 1237.05C1384.74 1237 1384.87 1236.97 1385 1236.97C1385.14 1236.97 1385.27 1237 1385.39 1237.05C1385.52 1237.1 1385.63 1237.18 1385.72 1237.27C1385.82 1237.37 1385.89 1237.48 1385.94 1237.61C1385.98 1237.73 1386.01 1237.87 1386 1238L1386 1241L1388 1241L1388 1239C1388 1238.87 1388.02 1238.73 1388.07 1238.61C1388.12 1238.48 1388.19 1238.37 1388.28 1238.27C1388.38 1238.18 1388.49 1238.1 1388.61 1238.05C1388.74 1238 1388.87 1237.97 1389 1237.97C1389.14 1237.97 1389.27 1238 1389.39 1238.05C1389.52 1238.1 1389.63 1238.18 1389.72 1238.27C1389.81 1238.37 1389.89 1238.48 1389.94 1238.61C1389.98 1238.73 1390.01 1238.87 1390 1239L1390 1241L1392 1241L1392 1240C1392 1239.87 1392.02 1239.73 1392.06 1239.6C1392.11 1239.48 1392.19 1239.36 1392.28 1239.26C1392.37 1239.17 1392.48 1239.09 1392.61 1239.04C1392.73 1238.98 1392.87 1238.96 1393 1238.96C1393.14 1238.96 1393.27 1238.98 1393.39 1239.04C1393.52 1239.09 1393.63 1239.17 1393.72 1239.26C1393.82 1239.36 1393.89 1239.48 1393.94 1239.6C1393.98 1239.73 1394.01 1239.87 1394 1240L1394 1246Z" fill="currentColor" fill-rule="nonzero" />
  </g>
</svg>

