<svg viewBox="0 0 32 32" xmlns="http://www.w3.org/2000/svg" fill="none">
  <g transform="translate(-1440.000122 -1224)">
<path id="Vector 896" d="M1468 1254L1458 1254C1457.47 1254 1456.96 1253.79 1456.59 1253.41C1456.21 1253.04 1456 1252.53 1456 1252L1456 1242C1456 1241.47 1456.21 1240.96 1456.59 1240.59C1456.96 1240.21 1457.47 1240 1458 1240L1460 1240L1460 1242L1458 1242L1458 1252L1468 1252L1468 1242L1466 1242L1466 1240L1468 1240C1468.53 1240 1469.04 1240.21 1469.41 1240.59C1469.79 1240.96 1470 1241.47 1470 1242L1470 1252C1470 1252.53 1469.79 1253.04 1469.41 1253.41C1469.04 1253.79 1468.53 1254 1468 1254ZM1454 1240L1444 1240C1443.47 1240 1442.96 1239.79 1442.59 1239.41C1442.21 1239.04 1442 1238.53 1442 1238L1442 1228C1442 1227.47 1442.21 1226.96 1442.59 1226.59C1442.96 1226.21 1443.47 1226 1444 1226L1454 1226C1454.53 1226 1455.04 1226.21 1455.41 1226.59C1455.79 1226.96 1456 1227.47 1456 1228L1456 1230L1454 1230L1454 1228L1444 1228L1444 1238L1454 1238L1454 1236L1456 1236L1456 1238C1456 1238.53 1455.79 1239.04 1455.41 1239.41C1455.04 1239.79 1454.53 1240 1454 1240Z" fill="currentColor" fill-rule="nonzero" />
		<path id="Vector 897" d="M1466 1233C1466 1232.29 1465.75 1231.61 1465.3 1231.07C1464.84 1230.53 1464.21 1230.16 1463.51 1230.04C1462.82 1229.92 1462.1 1230.06 1461.49 1230.41C1460.88 1230.77 1460.42 1231.33 1460.18 1232L1449 1232L1449 1234L1460.18 1234C1460.33 1234.42 1460.57 1234.8 1460.89 1235.11C1461.2 1235.43 1461.58 1235.67 1462 1235.82L1462 1247L1464 1247L1464 1235.82C1464.58 1235.61 1465.09 1235.23 1465.45 1234.72C1465.8 1234.22 1466 1233.62 1466 1233ZM1463 1234C1462.8 1234 1462.61 1233.94 1462.44 1233.83C1462.28 1233.72 1462.15 1233.57 1462.08 1233.38C1462 1233.2 1461.98 1233 1462.02 1232.81C1462.06 1232.61 1462.15 1232.43 1462.29 1232.29C1462.43 1232.15 1462.61 1232.06 1462.81 1232.02C1463 1231.98 1463.2 1232 1463.38 1232.08C1463.57 1232.15 1463.72 1232.28 1463.83 1232.44C1463.94 1232.61 1464 1232.8 1464 1233C1464 1233.27 1463.89 1233.52 1463.71 1233.71C1463.52 1233.89 1463.27 1234 1463 1234Z" fill="currentColor" fill-rule="nonzero" />
  </g>
</svg>

