<svg viewBox="0 0 32 32" xmlns="http://www.w3.org/2000/svg" fill="none">
  <g transform="translate(-1512.000122 -1224)">
<path id="Vector 898" d="M1522 1248L1524 1248L1524 1254L1522 1254L1522 1248Z" fill="currentColor" fill-rule="nonzero" />
		<path id="Vector 899" d="M1533 1244L1519 1244C1518.2 1244 1517.44 1243.68 1516.88 1243.12C1516.32 1242.56 1516 1241.8 1516 1241L1516 1230L1514 1230L1514 1241C1514 1242.33 1514.53 1243.6 1515.47 1244.53C1516.4 1245.47 1517.67 1246 1519 1246L1533 1246C1533.73 1246 1534.45 1246.17 1535.11 1246.48L1529 1252.59L1530.41 1254L1536.72 1247.69C1537.54 1248.6 1538 1249.78 1538 1251L1538 1254L1540 1254L1540 1251C1540 1249.14 1539.26 1247.37 1537.95 1246.05C1536.63 1244.74 1534.86 1244 1533 1244Z" fill="currentColor" fill-rule="nonzero" />
		<path id="Vector 900" d="M1537.28 1228.04L1530.28 1226.04C1530.1 1225.99 1529.9 1225.99 1529.73 1226.04L1522.73 1228.04C1522.48 1228.11 1522.26 1228.28 1522.13 1228.5C1522 1228.72 1521.97 1228.99 1522.03 1229.24L1523 1233.12L1523 1235C1523 1235.92 1523.18 1236.83 1523.53 1237.68C1523.88 1238.53 1524.4 1239.3 1525.05 1239.95C1525.7 1240.6 1526.47 1241.12 1527.32 1241.47C1528.17 1241.82 1529.08 1242 1530 1242C1530.92 1242 1531.83 1241.82 1532.68 1241.47C1533.53 1241.12 1534.3 1240.6 1534.95 1239.95C1535.6 1239.3 1536.12 1238.53 1536.47 1237.68C1536.82 1236.83 1537 1235.92 1537 1235L1537 1233.12L1537.97 1229.24C1538.03 1228.99 1538 1228.73 1537.87 1228.5C1537.74 1228.28 1537.52 1228.11 1537.28 1228.04ZM1530 1228.04L1535.8 1229.7L1535.22 1232L1531 1232L1531 1230L1529 1230L1529 1232L1524.78 1232L1524.21 1229.7L1530 1228.04ZM1530 1240C1528.67 1240 1527.4 1239.47 1526.47 1238.53C1525.53 1237.6 1525 1236.33 1525 1235L1525 1234L1535 1234L1535 1235C1535 1236.33 1534.47 1237.6 1533.53 1238.53C1532.6 1239.47 1531.33 1240 1530 1240Z" fill="currentColor" fill-rule="nonzero" />
  </g>
</svg>

