<svg viewBox="0 0 32 32" xmlns="http://www.w3.org/2000/svg" fill="none">
  <g transform="translate(-1584.000122 -1224)">
<path id="Vector 901" d="M1614 1242C1614 1241 1613.75 1240.01 1613.28 1239.13C1612.8 1238.25 1612.11 1237.5 1611.27 1236.96C1610.43 1236.41 1609.47 1236.08 1608.47 1236.01C1607.47 1235.93 1606.47 1236.1 1605.56 1236.51C1604.64 1236.92 1603.84 1237.55 1603.24 1238.34C1602.63 1239.14 1602.23 1240.07 1602.07 1241.06C1601.92 1242.05 1602.01 1243.06 1602.35 1244.01C1602.69 1244.95 1603.25 1245.79 1604 1246.46L1604 1254L1608 1252.11L1612 1254L1612 1246.46C1612.63 1245.9 1613.13 1245.21 1613.48 1244.44C1613.82 1243.68 1614 1242.84 1614 1242ZM1610 1250.84L1608 1249.89L1606 1250.84L1606 1247.65C1607.29 1248.12 1608.71 1248.12 1610 1247.65L1610 1250.84ZM1608 1246C1607.21 1246 1606.44 1245.77 1605.78 1245.33C1605.12 1244.89 1604.61 1244.26 1604.3 1243.53C1604 1242.8 1603.92 1242 1604.08 1241.22C1604.23 1240.44 1604.61 1239.73 1605.17 1239.17C1605.73 1238.61 1606.44 1238.23 1607.22 1238.08C1608 1237.92 1608.8 1238 1609.53 1238.3C1610.26 1238.61 1610.89 1239.12 1611.33 1239.78C1611.77 1240.44 1612 1241.21 1612 1242C1612 1243.06 1611.58 1244.08 1610.83 1244.83C1610.08 1245.58 1609.06 1246 1608 1246ZM1593 1238L1600 1238L1600 1240L1593 1240L1593 1238ZM1593 1232L1603 1232L1603 1234L1593 1234L1593 1232Z" fill="currentColor" fill-rule="nonzero" />
		<path id="Vector 902" d="M1590 1254C1589.47 1254 1588.96 1253.79 1588.59 1253.41C1588.21 1253.04 1588 1252.53 1588 1252L1588 1228C1588 1227.47 1588.21 1226.96 1588.59 1226.59C1588.96 1226.21 1589.47 1226 1590 1226L1606 1226C1606.53 1226 1607.04 1226.21 1607.41 1226.59C1607.79 1226.96 1608 1227.47 1608 1228L1608 1232L1606 1232L1606 1228L1590 1228L1590 1252L1600 1252L1600 1254L1590 1254Z" fill="currentColor" fill-rule="nonzero" />
  </g>
</svg>

