<svg viewBox="0 0 32 32" xmlns="http://www.w3.org/2000/svg" fill="none">
  <g transform="translate(-1656.000122 -1224)">
<path id="Vector 903" d="M1682 1252L1662 1252C1660.9 1252 1660 1251.1 1660 1250L1660 1230C1660 1228.9 1660.9 1228 1662 1228L1670 1228L1670 1230L1662 1230L1662 1250L1682 1250L1682 1241.97L1684 1241.97L1684 1250C1684 1251.1 1683.1 1252 1682 1252ZM1684 1238L1684 1236L1677.41 1235.97L1686 1227.39L1684.59 1225.97L1676 1234.56L1676 1228L1674 1228L1674 1238L1684 1237.97L1684 1238Z" fill="currentColor" fill-rule="nonzero" />
  </g>
</svg>

