<svg viewBox="0 0 32 32" xmlns="http://www.w3.org/2000/svg" fill="none">
  <g transform="translate(-1728.000122 -1224)">
<path id="Vector 904" d="M1756 1228L1738 1228C1737.47 1228 1736.96 1228.21 1736.59 1228.59C1736.21 1228.96 1736 1229.47 1736 1230L1736 1244C1736 1244.53 1736.21 1245.04 1736.59 1245.41C1736.96 1245.79 1737.47 1246 1738 1246L1756 1246C1756.53 1246 1757.04 1245.79 1757.41 1245.41C1757.79 1245.04 1758 1244.53 1758 1244L1758 1230C1758 1229.47 1757.79 1228.96 1757.41 1228.59C1757.04 1228.21 1756.53 1228 1756 1228ZM1756 1244L1738 1244L1738 1230L1756 1230L1756 1244Z" fill="currentColor" fill-rule="nonzero" />
		<path id="Vector 905" d="M1746 1250L1732 1250L1732 1240L1734 1240L1734 1238L1732 1238C1731.47 1238 1730.96 1238.21 1730.59 1238.59C1730.21 1238.96 1730 1239.47 1730 1240L1730 1250C1730 1250.53 1730.21 1251.04 1730.59 1251.41C1730.96 1251.79 1731.47 1252 1732 1252L1746 1252C1746.53 1252 1747.04 1251.79 1747.41 1251.41C1747.79 1251.04 1748 1250.53 1748 1250L1748 1248L1746 1248L1746 1250Z" fill="currentColor" fill-rule="nonzero" />
  </g>
</svg>

