<svg viewBox="0 0 32 32" xmlns="http://www.w3.org/2000/svg" fill="none">
  <g transform="translate(-1800.000122 -1224)">
<path id="Vector 906" d="M1819 1231L1819 1227.6C1819 1227.18 1818.83 1226.77 1818.53 1226.47C1818.23 1226.17 1817.82 1226 1817.4 1226L1804 1226L1804 1228L1817 1228L1817 1231L1811 1231C1810.47 1231 1809.96 1231.21 1809.59 1231.59C1809.21 1231.96 1809 1232.47 1809 1233L1809 1247C1809 1247.53 1809.21 1248.04 1809.59 1248.41C1809.96 1248.79 1810.47 1249 1811 1249L1817 1249L1817 1252L1804 1252L1804 1254L1817.4 1254C1817.82 1254 1818.23 1253.83 1818.53 1253.53C1818.83 1253.23 1819 1252.82 1819 1252.4L1819 1249L1825 1249C1825.53 1249 1826.04 1248.79 1826.41 1248.41C1826.79 1248.04 1827 1247.53 1827 1247L1827 1233C1827 1232.47 1826.79 1231.96 1826.41 1231.59C1826.04 1231.21 1825.53 1231 1825 1231L1819 1231ZM1825 1247L1811 1247L1811 1233L1825 1233L1825 1247Z" fill="currentColor" fill-rule="nonzero" />
  </g>
</svg>

