<svg viewBox="0 0 32 32" xmlns="http://www.w3.org/2000/svg" fill="none">
  <g transform="translate(-0 -1296)">
<path id="Vector 910" d="M30 1312L23 1305L21.586 1306.41L26.172 1311L9 1311L9 1313L26.172 1313L21.586 1317.59L23 1319L30 1312Z" fill="currentColor" fill-rule="nonzero" />
		<path id="Vector 911" d="M14 1324C7.383 1324 2 1318.62 2 1312C2 1305.38 7.383 1300 14 1300C16.335 1300 18.599 1300.67 20.546 1301.94L19.454 1303.62C17.8319 1302.56 15.9365 1302 14 1302C8.486 1302 4 1306.49 4 1312C4 1317.51 8.486 1322 14 1322C15.9365 1322 17.8319 1321.44 19.454 1320.38L20.546 1322.06C18.5992 1323.33 16.3243 1324 14 1324Z" fill="currentColor" fill-rule="nonzero" />
  </g>
</svg>

