<svg viewBox="0 0 32 32" xmlns="http://www.w3.org/2000/svg" fill="none">
  <g transform="translate(-72 -1296)">
<path id="Vector 912" d="M93 1303L91 1303L91 1299.6C91 1298.7 90.3 1298 89.4 1298L76 1298L76 1300L89 1300L89 1303L87 1303C83.7 1303 81 1305.7 81 1309L81 1315C81 1318.3 83.7 1321 87 1321L89 1321L89 1324L76 1324L76 1326L89.4 1326C90.3 1326 91 1325.3 91 1324.4L91 1321L93 1321C96.3 1321 99 1318.3 99 1315L99 1309C99 1305.7 96.3 1303 93 1303ZM97 1315C97 1317.2 95.2 1319 93 1319L87 1319C84.8 1319 83 1317.2 83 1315L83 1309C83 1306.8 84.8 1305 87 1305L93 1305C95.2 1305 97 1306.8 97 1309L97 1315Z" fill="currentColor" fill-rule="nonzero" />
  </g>
</svg>

