<svg viewBox="0 0 32 32" xmlns="http://www.w3.org/2000/svg" fill="none">
  <g transform="translate(-1944.000122 -1224)">
<path id="Vector 908" d="M1962 1252C1958.41 1252 1955.03 1250.41 1952.74 1247.64L1954.29 1246.36C1955.22 1247.5 1956.4 1248.42 1957.73 1249.05C1959.07 1249.68 1960.53 1250 1962 1250C1967.51 1250 1972 1245.51 1972 1240C1972 1234.49 1967.51 1230 1962 1230C1960.53 1230 1959.07 1230.32 1957.73 1230.95C1956.4 1231.58 1955.22 1232.5 1954.29 1233.64L1952.74 1232.36C1953.87 1231 1955.28 1229.9 1956.88 1229.14C1958.48 1228.39 1960.23 1228 1962 1228C1968.62 1228 1974 1233.38 1974 1240C1974 1246.62 1968.62 1252 1962 1252Z" fill="currentColor" fill-rule="nonzero" />
		<path id="Vector 909" d="M1967 1240L1960 1233L1958.59 1234.41L1963.17 1239L1946 1239L1946 1241L1963.17 1241L1958.59 1245.59L1960 1247L1967 1240Z" fill="currentColor" fill-rule="nonzero" />
  </g>
</svg>

