<svg viewBox="0 0 32 32" xmlns="http://www.w3.org/2000/svg" fill="none">
  <g transform="translate(-1872.000122 -1224)">
<path id="Vector 907" d="M1900 1234L1894 1234L1894 1230C1894 1229.47 1893.79 1228.96 1893.41 1228.59C1893.04 1228.21 1892.53 1228 1892 1228L1884 1228C1883.47 1228 1882.96 1228.21 1882.59 1228.59C1882.21 1228.96 1882 1229.47 1882 1230L1882 1234L1876 1234C1875.47 1234 1874.96 1234.21 1874.59 1234.59C1874.21 1234.96 1874 1235.47 1874 1236L1874 1250C1874 1250.53 1874.21 1251.04 1874.59 1251.41C1874.96 1251.79 1875.47 1252 1876 1252L1900 1252C1900.53 1252 1901.04 1251.79 1901.41 1251.41C1901.79 1251.04 1902 1250.53 1902 1250L1902 1236C1902 1235.47 1901.79 1234.96 1901.41 1234.59C1901.04 1234.21 1900.53 1234 1900 1234ZM1884 1230L1892 1230L1892 1234L1884 1234L1884 1230ZM1876 1250L1876 1236L1900 1236L1900 1250L1876 1250Z" fill="currentColor" fill-rule="nonzero" />
  </g>
</svg>

