<svg viewBox="0 0 32 32" xmlns="http://www.w3.org/2000/svg" fill="none">
  <g transform="translate(-288 -1296)">
<path id="Vector 919" d="M297 1312C297 1312.34 297.024 1312.68 297.071 1313.01L295.091 1313.29C295.03 1312.86 294.999 1312.43 295 1312C295 1307.04 299.038 1303 304 1303C306.043 1303 308.044 1303.7 309.635 1304.98L308.382 1306.54C307.143 1305.54 305.595 1304.99 304 1305C300.14 1305 297 1308.14 297 1312ZM296 1316C296 1316.27 296.105 1316.52 296.293 1316.71C296.48 1316.89 296.735 1317 297 1317C297.265 1317 297.52 1316.89 297.707 1316.71C297.895 1316.52 298 1316.27 298 1316C298 1315.73 297.895 1315.48 297.707 1315.29C297.52 1315.11 297.265 1315 297 1315C296.735 1315 296.48 1315.11 296.293 1315.29C296.105 1315.48 296 1315.73 296 1316ZM304 1300C310.617 1300 316 1305.38 316 1312L318 1312C318 1304.28 311.72 1298 304 1298C302.357 1298 300.747 1298.28 299.215 1298.84L299.899 1300.72C301.214 1300.24 302.602 1300 304 1300ZM310 1308C310 1308.27 310.105 1308.52 310.293 1308.71C310.48 1308.89 310.735 1309 311 1309C311.265 1309 311.52 1308.89 311.707 1308.71C311.895 1308.52 312 1308.27 312 1308C312 1307.73 311.895 1307.48 311.707 1307.29C311.52 1307.11 311.265 1307 311 1307C310.735 1307 310.48 1307.11 310.293 1307.29C310.105 1307.48 310 1307.73 310 1308ZM297 1302C297.265 1302 297.52 1301.89 297.707 1301.71C297.895 1301.52 298 1301.27 298 1301C298 1300.73 297.895 1300.48 297.707 1300.29C297.52 1300.11 297.265 1300 297 1300C296.735 1300 296.48 1300.11 296.293 1300.29C296.105 1300.48 296 1300.73 296 1301C296 1301.27 296.105 1301.52 296.293 1301.71C296.48 1301.89 296.735 1302 297 1302ZM292 1312C292 1308.8 293.248 1305.78 295.515 1303.52L294.1 1302.1C292.796 1303.4 291.761 1304.94 291.058 1306.64C290.354 1308.34 289.994 1310.16 290 1312C290 1319.72 296.28 1326 304 1326L304 1324C297.383 1324 292 1318.62 292 1312ZM316.5 1321.5C316.5 1323.15 315.154 1324.5 313.5 1324.5C311.846 1324.5 310.5 1323.15 310.5 1321.5C310.5 1321.04 310.614 1320.61 310.8 1320.21L305.285 1314.7C304.895 1314.89 304.462 1315 304 1315C302.346 1315 301 1313.65 301 1312C301 1310.35 302.346 1309 304 1309C305.654 1309 307 1310.35 307 1312C307 1312.46 306.887 1312.89 306.7 1313.29L312.215 1318.8C312.605 1318.61 313.038 1318.5 313.5 1318.5C315.154 1318.5 316.5 1319.85 316.5 1321.5ZM304 1313C304.551 1313 305 1312.55 305 1312C305 1311.45 304.551 1311 304 1311C303.449 1311 303 1311.45 303 1312C303 1312.55 303.449 1313 304 1313ZM314.5 1321.5C314.5 1321.23 314.394 1320.98 314.207 1320.79C314.019 1320.61 313.764 1320.5 313.499 1320.5C313.234 1320.5 312.979 1320.61 312.792 1320.79C312.604 1320.98 312.499 1321.24 312.499 1321.5C312.499 1321.77 312.605 1322.02 312.792 1322.21C312.98 1322.4 313.235 1322.5 313.5 1322.5C313.765 1322.5 314.02 1322.4 314.207 1322.21C314.395 1322.02 314.5 1321.77 314.5 1321.5Z" fill="currentColor" fill-rule="nonzero" />
  </g>
</svg>

