<svg viewBox="0 0 32 32" xmlns="http://www.w3.org/2000/svg" fill="none">
  <g transform="translate(-216 -1296)">
<path id="Vector 915" d="M232.017 1325.99C224.308 1325.99 218.03 1319.73 218.017 1312.02C218.009 1310.18 218.366 1308.36 219.067 1306.66C219.769 1304.96 220.8 1303.41 222.103 1302.11L223.52 1303.53C222.404 1304.64 221.519 1305.96 220.918 1307.42C220.317 1308.88 220.01 1310.44 220.017 1312.02C220.015 1313.59 220.327 1315.15 220.933 1316.61C221.538 1318.06 222.427 1319.38 223.547 1320.49C224.658 1321.61 225.978 1322.49 227.432 1323.09C228.886 1323.69 230.444 1324 232.017 1323.99L232.037 1323.99C233.358 1324 234.669 1323.77 235.917 1323.34L236.579 1325.23C235.12 1325.74 233.586 1326 232.041 1325.99L232.017 1325.99Z" fill="currentColor" fill-rule="nonzero" />
		<path id="Vector 916" d="M231 1312L233 1312L233 1316L235 1316C235.53 1316 236.039 1316.21 236.414 1316.59C236.789 1316.96 237 1317.47 237 1318L237 1321L235 1321L235 1318L233 1318L233 1321L231 1321L231 1318L229 1318L229 1321L227 1321L227 1318C227 1317.47 227.211 1316.96 227.586 1316.59C227.961 1316.21 228.47 1316 229 1316L231 1316L231 1312ZM239 1322C239.265 1322 239.52 1322.11 239.707 1322.29C239.895 1322.48 240 1322.73 240 1323C240 1323.27 239.895 1323.52 239.707 1323.71C239.52 1323.89 239.265 1324 239 1324C238.735 1324 238.48 1323.89 238.293 1323.71C238.105 1323.52 238 1323.27 238 1323C238 1322.73 238.105 1322.48 238.293 1322.29C238.48 1322.11 238.735 1322 239 1322ZM225 1300C225.265 1300 225.52 1300.11 225.707 1300.29C225.895 1300.48 226 1300.73 226 1301C226 1301.27 225.895 1301.52 225.707 1301.71C225.52 1301.89 225.265 1302 225 1302C224.735 1302 224.48 1301.89 224.293 1301.71C224.105 1301.52 224 1301.27 224 1301C224 1300.73 224.105 1300.48 224.293 1300.29C224.48 1300.11 224.735 1300 225 1300Z" fill="currentColor" fill-rule="nonzero" />
		<path id="Vector 917" d="M236.92 1306.11C236.498 1303.77 234.452 1302 232 1302C229.548 1302 227.502 1303.77 227.08 1306.11C226.204 1306.31 225.424 1306.81 224.865 1307.52C224.306 1308.23 224.001 1309.1 224 1310C224 1312.21 225.794 1314 228 1314L229 1314L229 1312L228 1312C226.897 1312 226 1311.1 226 1310C226 1308.9 226.897 1308 228 1308L229 1308L229 1307C229 1305.35 230.346 1304 232 1304C233.654 1304 235 1305.35 235 1307L235 1308L236 1308C237.103 1308 238 1308.9 238 1310C238 1311.1 237.103 1312 236 1312L235 1312L235 1314L236 1314C238.206 1314 240 1312.21 240 1310C239.999 1309.1 239.694 1308.23 239.135 1307.52C238.576 1306.81 237.796 1306.31 236.92 1306.11Z" fill="currentColor" fill-rule="nonzero" />
		<path id="Vector 918" d="M241.9 1321.89L240.486 1320.47C241.604 1319.36 242.491 1318.04 243.094 1316.58C243.698 1315.13 244.007 1313.57 244.003 1311.99C244.003 1305.38 238.62 1299.99 232.003 1299.99C230.653 1299.99 229.348 1300.21 228.122 1300.64L227.464 1298.75C228.924 1298.24 230.458 1297.99 232.003 1297.99C239.723 1297.99 246.003 1304.27 246.003 1311.99C246.003 1315.73 244.546 1319.24 241.9 1321.89Z" fill="currentColor" fill-rule="nonzero" />
  </g>
</svg>

