<svg viewBox="0 0 32 32" xmlns="http://www.w3.org/2000/svg" fill="none">
  <g transform="translate(-144 -1296)">
<path id="Vector 913" d="M166.5 1301.74L165.5 1303.47C167.597 1304.68 169.236 1306.55 170.163 1308.79C171.089 1311.02 171.252 1313.5 170.625 1315.84C169.999 1318.18 168.618 1320.25 166.696 1321.72C164.775 1323.2 162.422 1324 160 1324C157.579 1324 155.225 1323.2 153.304 1321.72C151.383 1320.25 150.002 1318.18 149.375 1315.84C148.748 1313.5 148.911 1311.02 149.837 1308.79C150.764 1306.55 152.403 1304.68 154.5 1303.47L153.5 1301.74C151.022 1303.17 149.085 1305.38 147.99 1308.02C146.894 1310.67 146.702 1313.6 147.443 1316.36C148.184 1319.13 149.816 1321.57 152.086 1323.31C154.357 1325.05 157.138 1326 160 1326C162.862 1326 165.643 1325.05 167.914 1323.31C170.184 1321.57 171.816 1319.13 172.557 1316.36C173.298 1313.6 173.106 1310.67 172.01 1308.02C170.915 1305.38 168.978 1303.17 166.5 1301.74Z" fill="currentColor" fill-rule="nonzero" />
		<path id="Vector 914" d="M159 1298L161 1298L161 1312L159 1312L159 1298Z" fill="currentColor" fill-rule="nonzero" />
  </g>
</svg>

