<svg viewBox="0 0 32 32" xmlns="http://www.w3.org/2000/svg" fill="none">
  <g transform="translate(-360 -1296)">
<path id="Vector 920" d="M382 1307L385 1307L385 1319L387 1319L387 1307L390 1307L390 1305L382 1305L382 1307ZM374 1319L372 1319L372 1305L378 1305C378.53 1305 379.039 1305.21 379.414 1305.59C379.789 1305.96 380 1306.47 380 1307L380 1312C380 1312.53 379.789 1313.04 379.414 1313.41C379.039 1313.79 378.53 1314 378 1314L374 1314L374 1319ZM374 1312L378 1312L378 1307L374 1307L374 1312ZM364 1319L362 1319L362 1305L368 1305C368.53 1305 369.039 1305.21 369.414 1305.59C369.789 1305.96 370 1306.47 370 1307L370 1312C370 1312.53 369.789 1313.04 369.414 1313.41C369.039 1313.79 368.53 1314 368 1314L364 1314L364 1319ZM364 1312L368 1312L368 1307L364 1307L364 1312Z" fill="currentColor" fill-rule="nonzero" />
  </g>
</svg>

