<svg viewBox="0 0 32 32" xmlns="http://www.w3.org/2000/svg" fill="none">
  <g transform="translate(-432 -1296)">
<path id="Vector 921" d="M436 1310L436 1314L434 1314L434 1310L436 1310ZM462 1310L462 1314L460 1314L460 1310L462 1310ZM436 1316L436 1320L434 1320L434 1316L436 1316ZM438 1324L438 1326L436 1326C434.9 1326 434 1325.1 434 1324L434 1322L436 1322L436 1324L438 1324ZM444 1324L444 1326L440 1326L440 1324L444 1324ZM460 1298L436 1298C434.9 1298 434 1298.9 434 1300L434 1308L436 1308L436 1306L460 1306L460 1308L462 1308L462 1300C462 1298.9 461.1 1298 460 1298ZM457.58 1318.41L459 1317L463 1321L459 1325L457.59 1323.58L460.17 1321L457.58 1318.41ZM451.42 1323.59L450 1325L446 1321L450 1317L451.41 1318.42L448.83 1321L451.42 1323.59ZM456.915 1316.58L455 1316L452.085 1325.42L454 1326L456.915 1316.58Z" fill="currentColor" fill-rule="nonzero" />
  </g>
</svg>

