<svg viewBox="0 0 32 32" xmlns="http://www.w3.org/2000/svg" fill="none">
  <g transform="translate(-504 -1296)">
<path id="Vector 922" d="M519 1306L521 1306L521 1314L519 1314L519 1306ZM524 1310L526 1310L526 1314L524 1314L524 1310ZM514 1308L516 1308L516 1314L514 1314L514 1308Z" fill="currentColor" fill-rule="nonzero" />
		<path id="Vector 923" d="M529 1300L521 1300L521 1298L519 1298L519 1300L511 1300C510.47 1300 509.961 1300.21 509.586 1300.59C509.211 1300.96 509 1301.47 509 1302L509 1316C509 1316.53 509.211 1317.04 509.586 1317.41C509.961 1317.79 510.47 1318 511 1318L519 1318L519 1324L515 1324L515 1326L525 1326L525 1324L521 1324L521 1318L529 1318C529.53 1318 530.039 1317.79 530.414 1317.41C530.789 1317.04 531 1316.53 531 1316L531 1302C531 1301.47 530.789 1300.96 530.414 1300.59C530.039 1300.21 529.53 1300 529 1300ZM529 1316L511 1316L511 1302L529 1302L529 1316Z" fill="currentColor" fill-rule="nonzero" />
  </g>
</svg>

