<svg viewBox="0 0 32 32" xmlns="http://www.w3.org/2000/svg" fill="none">
  <g transform="translate(-576 -1296)">
<path id="Vector 924" d="M593.505 1312L601.665 1304.75C601.816 1304.61 601.923 1304.43 601.971 1304.24C602.02 1304.04 602.007 1303.83 601.935 1303.64C601.863 1303.45 601.735 1303.29 601.568 1303.18C601.401 1303.06 601.203 1303 601 1303L598 1303L598 1298L596 1298L596 1305L598.37 1305L592 1310.66L585.63 1305L588 1305L588 1298L586 1298L586 1303L583 1303C582.797 1303 582.599 1303.06 582.432 1303.18C582.265 1303.29 582.137 1303.45 582.065 1303.64C581.993 1303.83 581.98 1304.04 582.028 1304.24C582.077 1304.43 582.184 1304.61 582.335 1304.75L590.495 1312L582.335 1319.25C582.184 1319.39 582.077 1319.57 582.028 1319.76C581.98 1319.96 581.993 1320.17 582.065 1320.36C582.137 1320.55 582.265 1320.71 582.432 1320.82C582.599 1320.94 582.797 1321 583 1321L586 1321L586 1326L588 1326L588 1319L585.63 1319L592 1313.34L598.37 1319L596 1319L596 1326L598 1326L598 1321L601 1321C601.203 1321 601.401 1320.94 601.568 1320.82C601.735 1320.71 601.863 1320.55 601.935 1320.36C602.007 1320.17 602.02 1319.96 601.971 1319.76C601.923 1319.57 601.816 1319.39 601.665 1319.25L593.505 1312Z" fill="currentColor" fill-rule="nonzero" />
  </g>
</svg>

