<svg viewBox="0 0 32 32" xmlns="http://www.w3.org/2000/svg" fill="none">
  <g transform="translate(-720 -1296)">
<path id="Vector 926" d="M736 1298C733.231 1298 730.524 1298.82 728.222 1300.36C725.92 1301.9 724.125 1304.08 723.066 1306.64C722.006 1309.2 721.729 1312.02 722.269 1314.73C722.809 1317.45 724.143 1319.94 726.101 1321.9C728.058 1323.86 730.553 1325.19 733.269 1325.73C735.984 1326.27 738.799 1325.99 741.358 1324.93C743.916 1323.87 746.102 1322.08 747.641 1319.78C749.179 1317.48 750 1314.77 750 1312C750 1308.29 748.525 1304.73 745.899 1302.1C743.274 1299.47 739.713 1298 736 1298ZM744 1313L731.85 1313L737.43 1318.57L736 1320L728 1312L736 1304L737.43 1305.39L731.85 1311L744 1311L744 1313Z" fill="currentColor" fill-rule="nonzero" />
  </g>
</svg>

