<svg viewBox="0 0 32 32" xmlns="http://www.w3.org/2000/svg" fill="none">
  <g transform="translate(-792 -1296)">
<path id="Vector 927" d="M808 1304L809.43 1305.39L803.85 1311L816 1311L816 1313L803.85 1313L809.43 1318.57L808 1320L800 1312L808 1304Z" fill="currentColor" fill-rule="nonzero" />
		<path id="Vector 928" d="M808 1326C805.231 1326 802.524 1325.18 800.222 1323.64C797.92 1322.1 796.125 1319.92 795.066 1317.36C794.006 1314.8 793.729 1311.98 794.269 1309.27C794.809 1306.55 796.143 1304.06 798.101 1302.1C800.058 1300.14 802.553 1298.81 805.269 1298.27C807.984 1297.73 810.799 1298.01 813.358 1299.07C815.916 1300.13 818.102 1301.92 819.641 1304.22C821.179 1306.52 822 1309.23 822 1312C821.996 1315.71 820.519 1319.27 817.895 1321.89C815.27 1324.52 811.712 1326 808 1326ZM808 1300C805.627 1300 803.307 1300.7 801.333 1302.02C799.36 1303.34 797.822 1305.22 796.913 1307.41C796.005 1309.6 795.768 1312.01 796.231 1314.34C796.694 1316.67 797.836 1318.81 799.515 1320.49C801.193 1322.16 803.331 1323.31 805.659 1323.77C807.987 1324.23 810.399 1323.99 812.592 1323.09C814.785 1322.18 816.659 1320.64 817.978 1318.67C819.296 1316.69 820 1314.37 820 1312C819.996 1308.82 818.731 1305.77 816.481 1303.52C814.232 1301.27 811.182 1300 808 1300Z" fill="currentColor" fill-rule="nonzero" />
  </g>
</svg>

