<svg viewBox="0 0 32 32" xmlns="http://www.w3.org/2000/svg" fill="none">
  <g transform="translate(-1080 -1296)">
<path id="Vector 934" d="M1107 1317L1105 1317C1105 1314.18 1105 1309.91 1094.91 1309L1095.09 1307C1107 1308.08 1107 1313.88 1107 1317ZM1096.91 1317C1085 1315.92 1085 1310.12 1085 1307L1087 1307C1087 1309.82 1087 1314.09 1097.09 1315L1096.91 1317Z" fill="currentColor" fill-rule="nonzero" />
		<path id="Vector 935" d="M1103 1316.52C1103 1311.9 1099.22 1311.38 1096.18 1310.96C1092.87 1310.5 1091 1310.1 1091 1307.25C1091 1304.86 1093.51 1304.01 1095.65 1304.01C1097.97 1304.01 1099.79 1304.87 1101.22 1306.64L1102.78 1305.38C1101.26 1303.5 1099.32 1302.41 1097 1302.1L1097 1299L1095 1299L1095 1302.02C1091.38 1302.24 1089 1304.28 1089 1307.24C1089 1311.97 1092.83 1312.5 1095.91 1312.93C1099.16 1313.38 1101 1313.77 1101 1316.51C1101 1319.54 1097.87 1319.99 1096 1319.99C1092.57 1319.99 1091.12 1319.03 1089.78 1317.36L1088.22 1318.62C1089.99 1320.81 1091.95 1321.79 1095 1321.96L1095 1325L1097 1325L1097 1321.96C1100.73 1321.66 1103 1319.63 1103 1316.52Z" fill="currentColor" fill-rule="nonzero" />
  </g>
</svg>

