<svg viewBox="0 0 32 32" xmlns="http://www.w3.org/2000/svg" fill="none">
  <g transform="translate(-936 -1296)">
<path id="Vector 931" d="M964 1298L959 1298L959 1300L964 1300L964 1324L959 1324L959 1326L964 1326C965.1 1326 966 1325.1 966 1324L966 1300C966 1298.9 965.1 1298 964 1298ZM959 1316.52C959 1311.9 955.22 1311.38 952.18 1310.96C948.87 1310.5 947 1310.1 947 1307.25C947 1304.86 949.51 1304.01 951.65 1304.01C953.97 1304.01 955.79 1304.87 957.22 1306.64L958.78 1305.38C957.26 1303.5 955.32 1302.41 953 1302.1L953 1299L951 1299L951 1302.02C947.38 1302.24 945 1304.28 945 1307.24C945 1311.97 948.83 1312.5 951.91 1312.93C955.16 1313.38 957 1313.77 957 1316.51C957 1319.54 953.87 1319.99 952 1319.99C948.57 1319.99 947.12 1319.03 945.78 1317.36L944.22 1318.62C945.99 1320.81 947.95 1321.79 951 1321.96L951 1325L953 1325L953 1321.96C956.73 1321.66 959 1319.63 959 1316.52Z" fill="currentColor" fill-rule="nonzero" />
		<path id="Vector 932" d="M940 1300L945 1300L945 1298L940 1298C938.9 1298 938 1298.9 938 1300L938 1324C938 1325.1 938.9 1326 940 1326L945 1326L945 1324L940 1324L940 1300Z" fill="currentColor" fill-rule="nonzero" />
  </g>
</svg>

