<svg viewBox="0 0 32 32" xmlns="http://www.w3.org/2000/svg" fill="none">
  <g transform="translate(-864 -1296)">
<path id="Vector 929" d="M880 1298L880 1300C886.63 1300 892 1305.37 892 1312C892 1318.63 886.63 1324 880 1324L880 1326C887.73 1326 894 1319.73 894 1312C894 1304.27 887.73 1298 880 1298ZM872.24 1321.14L870.95 1322.67C872.18 1323.71 873.59 1324.54 875.13 1325.11L875.81 1323.23C874.49 1322.74 873.28 1322.03 872.23 1321.14L872.24 1321.14ZM868.19 1314L866.22 1314.41C866.5 1316.04 867.06 1317.57 867.86 1318.95L869.59 1318C868.91 1316.82 868.43 1315.39 868.19 1314ZM869.59 1306L867.86 1305C867.07 1306.38 866.51 1307.96 866.22 1309.59L868.19 1309.94C868.43 1308.55 868.91 1307.19 869.59 1306.01L869.59 1306ZM875.82 1300.76L875.14 1298.88C873.6 1299.45 872.19 1300.28 870.96 1301.32L872.25 1302.85C873.3 1301.96 874.51 1301.25 875.83 1300.76L875.82 1300.76Z" fill="currentColor" fill-rule="nonzero" />
		<path id="Vector 930" d="M885 1308L885 1306L881 1306L881 1303L879 1303L879 1306L877 1306C875.897 1306 875 1306.9 875 1308L875 1311C875 1312.1 875.897 1313 877 1313L883 1313L883 1316L875 1316L875 1318L879 1318L879 1321L881 1321L881 1318L883 1318C884.103 1318 885 1317.1 885 1316L885 1313C885 1311.9 884.103 1311 883 1311L877 1311L877 1308L885 1308Z" fill="currentColor" fill-rule="nonzero" />
  </g>
</svg>

