<svg viewBox="0 0 32 32" xmlns="http://www.w3.org/2000/svg" fill="none">
  <g transform="translate(-1008 -1296)">
<path id="Vector 933" d="M1037 1316.52C1037 1311.9 1033.22 1311.38 1030.18 1310.96C1026.87 1310.5 1025 1310.1 1025 1307.25C1025 1304.86 1027.51 1304.01 1029.65 1304.01C1031.97 1304.01 1033.79 1304.87 1035.22 1306.64L1036.78 1305.38C1035.26 1303.5 1033.32 1302.41 1031 1302.1L1031 1299L1029 1299L1029 1302.02C1025.38 1302.24 1023 1304.28 1023 1307.24C1023 1311.97 1026.83 1312.5 1029.91 1312.93C1033.16 1313.38 1035 1313.77 1035 1316.51C1035 1319.54 1031.87 1319.99 1030 1319.99C1026.57 1319.99 1025.12 1319.03 1023.78 1317.36L1022.22 1318.62C1023.99 1320.81 1025.95 1321.79 1029 1321.96L1029 1325L1031 1325L1031 1321.96C1034.73 1321.66 1037 1319.63 1037 1316.52ZM1011 1307L1019 1307L1019 1309L1011 1309L1011 1307ZM1011 1315L1019 1315L1019 1317L1011 1317L1011 1315ZM1013 1311L1021 1311L1021 1313L1013 1313L1013 1311Z" fill="currentColor" fill-rule="nonzero" />
  </g>
</svg>

