<svg viewBox="0 0 32 32" xmlns="http://www.w3.org/2000/svg" fill="none">
  <g transform="translate(-1152 -1296)">
<path id="Vector 936" d="M1169 1311.07L1169 1304.12C1170.69 1304.4 1172.08 1305.22 1173.22 1306.63L1174.78 1305.37C1173.26 1303.49 1171.32 1302.4 1169 1302.1L1169 1299L1167 1299L1167 1302.02C1163.39 1302.24 1161 1304.28 1161 1307.24C1161 1311.52 1164.13 1312.36 1167 1312.8L1167 1319.96C1164.28 1319.79 1162.98 1318.86 1161.78 1317.37L1160.22 1318.63C1161.99 1320.82 1163.96 1321.8 1167 1321.96L1167 1325L1169 1325L1169 1321.95C1172.73 1321.65 1175 1319.63 1175 1316.52C1175 1312.31 1171.86 1311.5 1169 1311.07ZM1163 1307.24C1163 1305.09 1165.03 1304.19 1167 1304.03L1167 1310.78C1164.43 1310.35 1163 1309.73 1163 1307.24ZM1169 1319.95L1169 1313.09C1171.57 1313.51 1173 1314.1 1173 1316.52C1173 1319.05 1170.81 1319.78 1169 1319.95Z" fill="currentColor" fill-rule="nonzero" />
  </g>
</svg>

