<svg viewBox="0 0 32 32" xmlns="http://www.w3.org/2000/svg" fill="none">
  <g transform="translate(-1224 -1296)">
<path id="Vector 937" d="M1252 1305L1249 1305L1249 1299L1231 1299L1231 1305L1228 1305C1227.47 1305 1226.96 1305.21 1226.59 1305.59C1226.21 1305.96 1226 1306.47 1226 1307L1226 1317C1226 1317.53 1226.21 1318.04 1226.59 1318.41C1226.96 1318.79 1227.47 1319 1228 1319L1231 1319L1231 1325L1249 1325L1249 1319L1252 1319C1252.53 1319 1253.04 1318.79 1253.41 1318.41C1253.79 1318.04 1254 1317.53 1254 1317L1254 1307C1254 1306.47 1253.79 1305.96 1253.41 1305.59C1253.04 1305.21 1252.53 1305 1252 1305ZM1233 1301L1247 1301L1247 1305L1233 1305L1233 1301ZM1247 1323L1233 1323L1233 1313L1247 1313L1247 1323ZM1252 1317L1249 1317L1249 1311L1231 1311L1231 1317L1228 1317L1228 1307L1252 1307L1252 1317Z" fill="currentColor" fill-rule="nonzero" />
  </g>
</svg>

