<svg viewBox="0 0 32 32" xmlns="http://www.w3.org/2000/svg" fill="none">
  <g transform="translate(-1296 -1296)">
<path id="Vector 938" d="M1319 1319L1319 1322L1304.5 1322C1302 1322 1300 1320 1300 1317.5C1300 1315 1302 1313 1304.5 1313L1305 1313L1305 1311L1304.5 1311C1300.9 1311 1298 1313.9 1298 1317.5C1298 1321.1 1300.9 1324 1304.5 1324L1319 1324L1319 1327L1327 1327L1327 1319L1319 1319ZM1325 1325L1321 1325L1321 1321L1325 1321L1325 1325ZM1319.5 1300L1305 1300L1305 1297L1297 1297L1297 1305L1305 1305L1305 1302L1319.5 1302C1322 1302 1324 1304 1324 1306.5C1324 1309 1322 1311 1319.5 1311L1319 1311L1319 1313L1319.5 1313C1323.1 1313 1326 1310.1 1326 1306.5C1326 1302.9 1323.1 1300 1319.5 1300ZM1303 1303L1299 1303L1299 1299L1303 1299L1303 1303ZM1316 1311L1315 1311L1315 1309C1315 1307.3 1313.7 1306 1312 1306C1310.3 1306 1309 1307.3 1309 1309L1309 1311L1308 1311C1307.4 1311 1307 1311.4 1307 1312L1307 1317C1307 1317.6 1307.4 1318 1308 1318L1316 1318C1316.6 1318 1317 1317.6 1317 1317L1317 1312C1317 1311.4 1316.6 1311 1316 1311ZM1311 1309C1311 1308.4 1311.4 1308 1312 1308C1312.6 1308 1313 1308.4 1313 1309L1313 1311L1311 1311L1311 1309ZM1315 1316L1309 1316L1309 1313L1315 1313L1315 1316Z" fill="currentColor" fill-rule="nonzero" />
  </g>
</svg>

