<svg viewBox="0 0 32 32" xmlns="http://www.w3.org/2000/svg" fill="none">
  <g transform="translate(-1440.000122 -1296)">
<path id="Vector 940" d="M1471 1313C1471 1311.35 1469.65 1310 1468 1310C1466.35 1310 1465 1311.35 1465 1313C1465 1314.3 1465.84 1315.4 1467 1315.82L1467 1318.43L1456 1324.84L1445.99 1319L1468.5 1305.86C1468.66 1305.78 1468.78 1305.65 1468.87 1305.5C1468.95 1305.35 1469 1305.17 1469 1305C1469 1304.83 1468.95 1304.65 1468.87 1304.5C1468.78 1304.35 1468.66 1304.22 1468.5 1304.14L1456.5 1297.14C1456.35 1297.05 1456.18 1297 1456 1297C1455.82 1297 1455.65 1297.05 1455.5 1297.14L1443.5 1304.14C1443.35 1304.22 1443.22 1304.35 1443.13 1304.5C1443.05 1304.65 1443 1304.83 1443 1305L1443 1308.19C1442.42 1308.39 1441.91 1308.77 1441.55 1309.28C1441.2 1309.78 1441 1310.38 1441 1311C1441 1312.65 1442.35 1314 1444 1314C1445.65 1314 1447 1312.65 1447 1311C1447 1310.38 1446.8 1309.78 1446.45 1309.28C1446.09 1308.77 1445.58 1308.39 1445 1308.18L1445 1305.57L1456 1299.16L1466.02 1305L1443.5 1318.14C1443.35 1318.22 1443.22 1318.35 1443.13 1318.5C1443.05 1318.65 1443 1318.83 1443 1319C1443 1319.17 1443.05 1319.35 1443.13 1319.5C1443.22 1319.65 1443.35 1319.78 1443.5 1319.86L1455.5 1326.86C1455.65 1326.95 1455.82 1327 1456 1327C1456.18 1327 1456.35 1326.95 1456.5 1326.86L1468.5 1319.86C1468.66 1319.78 1468.78 1319.65 1468.87 1319.5C1468.95 1319.35 1469 1319.17 1469 1319L1469 1315.82C1469.58 1315.61 1470.09 1315.23 1470.45 1314.72C1470.8 1314.22 1471 1313.62 1471 1313ZM1444 1312C1443.74 1311.99 1443.5 1311.88 1443.32 1311.69C1443.14 1311.51 1443.04 1311.26 1443.04 1311C1443.04 1310.74 1443.14 1310.49 1443.32 1310.31C1443.5 1310.12 1443.74 1310.01 1444 1310C1444.26 1310.01 1444.5 1310.12 1444.68 1310.31C1444.86 1310.49 1444.96 1310.74 1444.96 1311C1444.96 1311.26 1444.86 1311.51 1444.68 1311.69C1444.5 1311.88 1444.26 1311.99 1444 1312ZM1468 1314C1467.74 1313.99 1467.5 1313.88 1467.32 1313.69C1467.14 1313.51 1467.04 1313.26 1467.04 1313C1467.04 1312.74 1467.14 1312.49 1467.32 1312.31C1467.5 1312.12 1467.74 1312.01 1468 1312C1468.26 1312.01 1468.5 1312.12 1468.68 1312.31C1468.86 1312.49 1468.96 1312.74 1468.96 1313C1468.96 1313.26 1468.86 1313.51 1468.68 1313.69C1468.5 1313.88 1468.26 1313.99 1468 1314Z" fill="currentColor" fill-rule="nonzero" />
  </g>
</svg>

