<svg viewBox="0 0 32 32" xmlns="http://www.w3.org/2000/svg" fill="none">
  <g transform="translate(-1368.000122 -1296)">
<path id="Vector 939" d="M1380 1321C1379.26 1321 1378.62 1321.41 1378.28 1322L1372.65 1322L1375.3 1316.91C1375.52 1316.96 1375.76 1317 1376 1317C1377.65 1317 1379 1315.65 1379 1314C1379 1312.35 1377.65 1311 1376 1311C1374.35 1311 1373 1312.35 1373 1314C1373 1314.68 1373.24 1315.3 1373.62 1315.8L1370.11 1322.54C1370.03 1322.69 1370 1322.86 1370 1323.03C1370.01 1323.21 1370.06 1323.37 1370.15 1323.52C1370.24 1323.67 1370.36 1323.79 1370.51 1323.87C1370.66 1323.96 1370.83 1324 1371 1324L1378.28 1324C1378.62 1324.59 1379.26 1325 1380 1325C1380.53 1325 1381.04 1324.79 1381.41 1324.41C1381.79 1324.04 1382 1323.53 1382 1323C1382 1322.47 1381.79 1321.96 1381.41 1321.59C1381.04 1321.21 1380.53 1321 1380 1321ZM1376 1313C1376.26 1313.01 1376.5 1313.12 1376.68 1313.31C1376.86 1313.49 1376.96 1313.74 1376.96 1314C1376.96 1314.26 1376.86 1314.51 1376.68 1314.69C1376.5 1314.88 1376.26 1314.99 1376 1315C1375.73 1315 1375.48 1314.89 1375.29 1314.71C1375.11 1314.52 1375 1314.27 1375 1314C1375 1313.73 1375.11 1313.48 1375.29 1313.29C1375.48 1313.11 1375.73 1313 1376 1313ZM1397.89 1322.54L1393.85 1314.77C1394.01 1314.37 1394.04 1313.93 1393.94 1313.52C1393.84 1313.1 1393.6 1312.73 1393.27 1312.46C1392.94 1312.18 1392.53 1312.02 1392.1 1312C1391.67 1311.98 1391.25 1312.1 1390.89 1312.34C1390.53 1312.57 1390.26 1312.92 1390.12 1313.32C1389.97 1313.73 1389.96 1314.17 1390.09 1314.58C1390.21 1314.99 1390.46 1315.35 1390.81 1315.61C1391.15 1315.86 1391.57 1316 1392 1316C1392.08 1316 1392.15 1315.99 1392.22 1315.98L1395.35 1322L1390.82 1322C1390.61 1321.42 1390.23 1320.91 1389.73 1320.55C1389.22 1320.2 1388.62 1320 1388 1320C1386.35 1320 1385 1321.35 1385 1323C1385 1324.65 1386.35 1326 1388 1326C1388.62 1326 1389.22 1325.8 1389.73 1325.45C1390.23 1325.09 1390.61 1324.58 1390.82 1324L1397 1324C1397.17 1324 1397.34 1323.96 1397.49 1323.87C1397.64 1323.79 1397.77 1323.67 1397.86 1323.52C1397.94 1323.37 1397.99 1323.2 1398 1323.03C1398.01 1322.86 1397.97 1322.69 1397.89 1322.54ZM1388 1324C1387.74 1323.99 1387.5 1323.88 1387.32 1323.69C1387.14 1323.51 1387.04 1323.26 1387.04 1323C1387.04 1322.74 1387.14 1322.49 1387.32 1322.31C1387.5 1322.12 1387.74 1322.01 1388 1322C1388.26 1322.01 1388.5 1322.12 1388.68 1322.31C1388.86 1322.49 1388.96 1322.74 1388.96 1323C1388.96 1323.26 1388.86 1323.51 1388.68 1323.69C1388.5 1323.88 1388.26 1323.99 1388 1324ZM1389 1304C1388.76 1304 1388.53 1304.03 1388.3 1304.09L1384.89 1297.54C1384.72 1297.21 1384.36 1297 1384 1297C1383.64 1297 1383.29 1297.21 1383.11 1297.54L1379.22 1305.02C1379.15 1305.01 1379.08 1305 1379 1305C1378.57 1305 1378.15 1305.14 1377.81 1305.39C1377.46 1305.65 1377.21 1306.01 1377.09 1306.42C1376.96 1306.83 1376.97 1307.27 1377.12 1307.67C1377.26 1308.08 1377.53 1308.43 1377.89 1308.66C1378.25 1308.9 1378.67 1309.02 1379.1 1309C1379.53 1308.98 1379.94 1308.82 1380.27 1308.54C1380.6 1308.27 1380.84 1307.9 1380.94 1307.48C1381.04 1307.07 1381.01 1306.63 1380.85 1306.23L1384 1300.17L1386.62 1305.2C1386.22 1305.71 1386 1306.35 1386 1307C1386 1308.65 1387.35 1310 1389 1310C1390.65 1310 1392 1308.65 1392 1307C1392 1305.35 1390.65 1304 1389 1304ZM1389 1308C1388.74 1307.99 1388.5 1307.88 1388.32 1307.69C1388.14 1307.51 1388.04 1307.26 1388.04 1307C1388.04 1306.74 1388.14 1306.49 1388.32 1306.31C1388.5 1306.12 1388.74 1306.01 1389 1306C1389.26 1306.01 1389.5 1306.12 1389.68 1306.31C1389.86 1306.49 1389.96 1306.74 1389.96 1307C1389.96 1307.26 1389.86 1307.51 1389.68 1307.69C1389.5 1307.88 1389.26 1307.99 1389 1308Z" fill="currentColor" fill-rule="nonzero" />
  </g>
</svg>

