<svg viewBox="0 0 32 32" xmlns="http://www.w3.org/2000/svg" fill="none">
  <g transform="translate(-1584.000122 -1296)">
<path id="Vector 943" d="M1590 1302C1590 1301.73 1590.11 1301.48 1590.29 1301.29C1590.48 1301.11 1590.73 1301 1591 1301C1591.27 1301 1591.52 1301.11 1591.71 1301.29C1591.89 1301.48 1592 1301.73 1592 1302C1592 1302.27 1591.89 1302.52 1591.71 1302.71C1591.52 1302.89 1591.27 1303 1591 1303C1590.73 1303 1590.48 1302.89 1590.29 1302.71C1590.11 1302.52 1590 1302.27 1590 1302ZM1595 1303C1595.27 1303 1595.52 1302.89 1595.71 1302.71C1595.89 1302.52 1596 1302.27 1596 1302C1596 1301.73 1595.89 1301.48 1595.71 1301.29C1595.52 1301.11 1595.27 1301 1595 1301C1594.73 1301 1594.48 1301.11 1594.29 1301.29C1594.11 1301.48 1594 1301.73 1594 1302C1594 1302.27 1594.11 1302.52 1594.29 1302.71C1594.48 1302.89 1594.73 1303 1595 1303ZM1614 1300L1614 1312L1612 1312L1612 1306L1588 1306L1588 1324L1596 1324L1596 1326L1588 1326C1587.47 1326 1586.96 1325.79 1586.59 1325.41C1586.21 1325.04 1586 1324.53 1586 1324L1586 1300C1586 1299.47 1586.21 1298.96 1586.59 1298.59C1586.96 1298.21 1587.47 1298 1588 1298L1612 1298C1612.53 1298 1613.04 1298.21 1613.41 1298.59C1613.79 1298.96 1614 1299.47 1614 1300ZM1612 1300L1588 1300L1588 1304L1612 1304L1612 1300ZM1609.58 1318.41L1611 1317L1615 1321L1611 1325L1609.59 1323.58L1612.17 1321L1609.58 1318.41ZM1603.42 1323.59L1602 1325L1598 1321L1602 1317L1603.41 1318.42L1600.83 1321L1603.42 1323.59ZM1608.92 1316.58L1607 1316L1604.09 1325.42L1606 1326L1608.92 1316.58Z" fill="currentColor" fill-rule="nonzero" />
  </g>
</svg>

