<svg viewBox="0 0 32 32" xmlns="http://www.w3.org/2000/svg" fill="none">
  <g transform="translate(-1656.000122 -1296)">
<path id="Vector 944" d="M1662 1302C1662 1301.73 1662.11 1301.48 1662.29 1301.29C1662.48 1301.11 1662.73 1301 1663 1301C1663.27 1301 1663.52 1301.11 1663.71 1301.29C1663.89 1301.48 1664 1301.73 1664 1302C1664 1302.27 1663.89 1302.52 1663.71 1302.71C1663.52 1302.89 1663.27 1303 1663 1303C1662.73 1303 1662.48 1302.89 1662.29 1302.71C1662.11 1302.52 1662 1302.27 1662 1302ZM1667 1303C1667.27 1303 1667.52 1302.89 1667.71 1302.71C1667.89 1302.52 1668 1302.27 1668 1302C1668 1301.73 1667.89 1301.48 1667.71 1301.29C1667.52 1301.11 1667.27 1301 1667 1301C1666.73 1301 1666.48 1301.11 1666.29 1301.29C1666.11 1301.48 1666 1301.73 1666 1302C1666 1302.27 1666.11 1302.52 1666.29 1302.71C1666.48 1302.89 1666.73 1303 1667 1303ZM1686 1300L1686 1312L1684 1312L1684 1306L1660 1306L1660 1324L1668 1324L1668 1326L1660 1326C1659.47 1326 1658.96 1325.79 1658.59 1325.41C1658.21 1325.04 1658 1324.53 1658 1324L1658 1300C1658 1299.47 1658.21 1298.96 1658.59 1298.59C1658.96 1298.21 1659.47 1298 1660 1298L1684 1298C1684.53 1298 1685.04 1298.21 1685.41 1298.59C1685.79 1298.96 1686 1299.47 1686 1300ZM1684 1300L1660 1300L1660 1304L1684 1304L1684 1300ZM1687 1323C1687 1324.65 1685.65 1326 1684 1326C1682.35 1326 1681 1324.65 1681 1323C1681 1322.78 1681.03 1322.56 1681.08 1322.35L1679 1321.16L1676.93 1322.35C1676.97 1322.56 1677 1322.78 1677 1323C1677 1324.65 1675.65 1326 1674 1326C1672.35 1326 1671 1324.65 1671 1323C1671 1321.35 1672.35 1320 1674 1320C1674.68 1320 1675.33 1320.24 1675.86 1320.66L1678 1319.42L1678 1317.82C1677.42 1317.61 1676.91 1317.23 1676.55 1316.73C1676.19 1316.22 1676 1315.62 1676 1315C1676 1313.35 1677.35 1312 1679 1312C1680.65 1312 1682 1313.35 1682 1315C1682 1315.62 1681.81 1316.22 1681.45 1316.73C1681.09 1317.23 1680.58 1317.61 1680 1317.82L1680 1319.42L1682.15 1320.66C1682.67 1320.24 1683.32 1320 1684 1320C1685.65 1320 1687 1321.35 1687 1323ZM1675 1323C1675 1322.73 1674.89 1322.48 1674.71 1322.29C1674.52 1322.11 1674.26 1322 1674 1322C1673.73 1322 1673.48 1322.11 1673.29 1322.29C1673.1 1322.48 1673 1322.74 1673 1323C1673 1323.27 1673.1 1323.52 1673.29 1323.71C1673.48 1323.9 1673.73 1324 1674 1324C1674.26 1324 1674.52 1323.9 1674.71 1323.71C1674.89 1323.52 1675 1323.27 1675 1323ZM1678 1315C1678 1315.27 1678.11 1315.52 1678.29 1315.71C1678.48 1315.9 1678.73 1316 1679 1316C1679.27 1316 1679.52 1315.9 1679.71 1315.71C1679.89 1315.52 1680 1315.27 1680 1315C1680 1314.74 1679.89 1314.48 1679.71 1314.29C1679.52 1314.11 1679.27 1314 1679 1314C1678.73 1314 1678.48 1314.11 1678.29 1314.29C1678.11 1314.48 1678 1314.74 1678 1315ZM1685 1323C1685 1322.87 1684.97 1322.74 1684.92 1322.62C1684.87 1322.5 1684.8 1322.39 1684.71 1322.29C1684.61 1322.2 1684.5 1322.13 1684.38 1322.08C1684.26 1322.03 1684.13 1322 1684 1322C1683.87 1322 1683.74 1322.03 1683.62 1322.08C1683.49 1322.13 1683.38 1322.2 1683.29 1322.29C1683.2 1322.39 1683.13 1322.5 1683.08 1322.62C1683.02 1322.74 1683 1322.87 1683 1323C1683 1323.27 1683.1 1323.52 1683.29 1323.71C1683.48 1323.9 1683.73 1324 1684 1324C1684.26 1324 1684.52 1323.9 1684.71 1323.71C1684.89 1323.52 1685 1323.27 1685 1323" fill="currentColor" fill-rule="nonzero" />
  </g>
</svg>

