<svg viewBox="0 0 32 32" xmlns="http://www.w3.org/2000/svg" fill="none">
  <g transform="translate(-1512.000122 -1296)">
<path id="Vector 941" d="M1520 1314L1526 1314L1526 1316L1520 1316L1520 1314ZM1520 1318L1530 1318L1530 1320L1520 1320L1520 1318Z" fill="currentColor" fill-rule="nonzero" />
		<path id="Vector 942" d="M1538 1300L1518 1300C1517.47 1300 1516.96 1300.21 1516.59 1300.59C1516.21 1300.96 1516 1301.47 1516 1302L1516 1322C1516 1322.53 1516.21 1323.04 1516.59 1323.41C1516.96 1323.79 1517.47 1324 1518 1324L1538 1324C1538.53 1324 1539.04 1323.79 1539.41 1323.41C1539.79 1323.04 1540 1322.53 1540 1322L1540 1302C1540 1301.47 1539.79 1300.96 1539.41 1300.59C1539.04 1300.21 1538.53 1300 1538 1300ZM1530 1302L1530 1306L1526 1306L1526 1302L1530 1302ZM1518 1322L1518 1302L1524 1302L1524 1308L1532 1308L1532 1302L1538 1302L1538 1322L1518 1322Z" fill="currentColor" fill-rule="nonzero" />
  </g>
</svg>

