<svg viewBox="0 0 32 32" xmlns="http://www.w3.org/2000/svg" fill="none">
  <g transform="translate(-1800.000122 -1296)">
<path id="Vector 947" d="M1816 1318C1814.81 1318 1813.65 1317.65 1812.67 1316.99C1811.68 1316.33 1810.91 1315.39 1810.46 1314.3C1810 1313.2 1809.88 1311.99 1810.12 1310.83C1810.35 1309.67 1810.92 1308.6 1811.76 1307.76C1812.6 1306.92 1813.67 1306.35 1814.83 1306.12C1815.99 1305.88 1817.2 1306 1818.3 1306.46C1819.39 1306.91 1820.33 1307.68 1820.99 1308.67C1821.65 1309.65 1822 1310.81 1822 1312C1822 1313.59 1821.37 1315.12 1820.24 1316.24C1819.12 1317.37 1817.59 1318 1816 1318ZM1816 1308C1815.21 1308 1814.44 1308.23 1813.78 1308.67C1813.12 1309.11 1812.61 1309.74 1812.3 1310.47C1812 1311.2 1811.92 1312 1812.08 1312.78C1812.23 1313.56 1812.61 1314.27 1813.17 1314.83C1813.73 1315.39 1814.44 1315.77 1815.22 1315.92C1816 1316.08 1816.8 1316 1817.53 1315.7C1818.26 1315.39 1818.89 1314.88 1819.33 1314.22C1819.77 1313.56 1820 1312.79 1820 1312C1820 1310.94 1819.58 1309.92 1818.83 1309.17C1818.08 1308.42 1817.06 1308 1816 1308Z" fill="currentColor" fill-rule="nonzero" />
		<path id="Vector 948" d="M1816 1322C1814.59 1322 1813.2 1321.7 1811.92 1321.13C1810.63 1320.55 1809.49 1319.72 1808.55 1318.67L1810.04 1317.33C1810.93 1318.33 1812.05 1319.08 1813.31 1319.53C1814.56 1319.98 1815.91 1320.11 1817.23 1319.9C1818.55 1319.7 1819.8 1319.17 1820.86 1318.36C1821.92 1317.55 1822.76 1316.48 1823.3 1315.27C1823.85 1314.05 1824.08 1312.71 1823.98 1311.38C1823.87 1310.05 1823.44 1308.77 1822.71 1307.65C1821.99 1306.53 1820.99 1305.61 1819.82 1304.97C1818.65 1304.33 1817.33 1304 1816 1304L1816 1302C1818.65 1302 1821.2 1303.05 1823.07 1304.93C1824.95 1306.8 1826 1309.35 1826 1312C1826 1314.65 1824.95 1317.2 1823.07 1319.07C1821.2 1320.95 1818.65 1322 1816 1322Z" fill="currentColor" fill-rule="nonzero" />
		<path id="Vector 949" d="M1816 1326C1813.23 1326 1810.52 1325.18 1808.22 1323.64C1805.92 1322.1 1804.13 1319.92 1803.07 1317.36C1802.01 1314.8 1801.73 1311.98 1802.27 1309.27C1802.81 1306.55 1804.14 1304.06 1806.1 1302.1C1808.06 1300.14 1810.55 1298.81 1813.27 1298.27C1815.98 1297.73 1818.8 1298.01 1821.36 1299.07C1823.92 1300.13 1826.1 1301.92 1827.64 1304.22C1829.18 1306.52 1830 1309.23 1830 1312C1830 1315.71 1828.52 1319.27 1825.89 1321.89C1823.27 1324.52 1819.71 1326 1816 1326ZM1816 1300C1813.63 1300 1811.31 1300.7 1809.33 1302.02C1807.36 1303.34 1805.82 1305.22 1804.91 1307.41C1804.01 1309.6 1803.77 1312.01 1804.23 1314.34C1804.69 1316.67 1805.84 1318.81 1807.51 1320.49C1809.19 1322.16 1811.33 1323.31 1813.66 1323.77C1815.99 1324.23 1818.4 1323.99 1820.59 1323.09C1822.79 1322.18 1824.66 1320.64 1825.98 1318.67C1827.3 1316.69 1828 1314.37 1828 1312C1828 1308.82 1826.73 1305.77 1824.48 1303.52C1822.23 1301.27 1819.18 1300 1816 1300Z" fill="currentColor" fill-rule="nonzero" />
  </g>
</svg>

