<svg viewBox="0 0 32 32" xmlns="http://www.w3.org/2000/svg" fill="none">
  <g transform="translate(-1728.000122 -1296)">
<path id="Vector 945" d="M1756 1317L1732 1317C1731.47 1317 1730.96 1316.79 1730.59 1316.41C1730.21 1316.04 1730 1315.53 1730 1315L1730 1309C1730 1308.47 1730.21 1307.96 1730.59 1307.59C1730.96 1307.21 1731.47 1307 1732 1307L1756 1307C1756.53 1307 1757.04 1307.21 1757.41 1307.59C1757.79 1307.96 1758 1308.47 1758 1309L1758 1315C1758 1315.53 1757.79 1316.04 1757.41 1316.41C1757.04 1316.79 1756.53 1317 1756 1317ZM1732 1309L1732 1315L1756 1315L1756 1309L1732 1309Z" fill="currentColor" fill-rule="nonzero" />
		<path id="Vector 946" d="M1734 1311L1748 1311L1748 1313L1734 1313L1734 1311Z" fill="currentColor" fill-rule="nonzero" />
  </g>
</svg>

