<svg viewBox="0 0 32 32" xmlns="http://www.w3.org/2000/svg" fill="none">
  <g transform="translate(-1872.000122 -1296)">
<path id="Vector 950" d="M1888 1317L1889.4 1318.4L1886.8 1321L1895 1321L1895 1323L1886.8 1323L1889.4 1325.6L1888 1327L1883 1322L1888 1317ZM1879.26 1319.32L1887.25 1311.33L1888.67 1312.75L1880.68 1320.74L1879.26 1319.32Z" fill="currentColor" fill-rule="nonzero" />
		<path id="Vector 951" d="M1895 1318L1893 1318L1893 1313C1893 1312.7 1893.1 1312.5 1893.3 1312.3L1897.4 1308.2C1899.1 1306.5 1900 1304.2 1900 1301.8L1900 1300L1898.1 1300C1895.7 1300 1893.4 1300.9 1891.7 1302.6L1887.6 1306.7C1887.5 1306.9 1887.3 1307 1887 1307L1879.5 1307L1876.9 1310.3L1882.2 1311.1L1881.9 1313.1L1874.9 1312.1C1874.5 1312 1874.2 1311.8 1874.1 1311.5C1874 1311.2 1874 1310.8 1874.2 1310.5L1878.2 1305.5C1878.4 1305.1 1878.7 1305 1879 1305L1886.6 1305L1890.4 1301.2C1892.4 1299.1 1895.2 1298 1898.1 1298L1900 1298C1901.1 1298 1902 1298.9 1902 1300L1902 1301.9C1902 1304.8 1900.9 1307.6 1898.8 1309.7L1895 1313.4L1895 1318Z" fill="currentColor" fill-rule="nonzero" />
  </g>
</svg>

