<svg viewBox="0 0 32 32" xmlns="http://www.w3.org/2000/svg" fill="none">
  <g transform="translate(-1944.000122 -1296)">
<path id="Vector 952" d="M1971 1321.59L1969 1319.59L1969 1317L1967 1317L1967 1320.41L1969.59 1323L1971 1321.59Z" fill="currentColor" fill-rule="nonzero" />
		<path id="Vector 953" d="M1968 1327C1964.14 1327 1961 1323.86 1961 1320C1961 1316.14 1964.14 1313 1968 1313C1971.86 1313 1975 1316.14 1975 1320C1975 1323.86 1971.86 1327 1968 1327ZM1968 1315C1965.24 1315 1963 1317.24 1963 1320C1963 1322.76 1965.24 1325 1968 1325C1970.76 1325 1973 1322.76 1973 1320C1973 1317.24 1970.76 1315 1968 1315ZM1972 1311L1974 1311L1974 1301C1974 1299.9 1973.1 1299 1972 1299L1969 1299L1969 1301L1972 1301L1972 1311Z" fill="currentColor" fill-rule="nonzero" />
		<path id="Vector 954" d="M1953 1311C1954.1 1311 1955 1310.1 1955 1309C1955 1307.9 1954.1 1307 1953 1307C1951.9 1307 1951 1307.9 1951 1309C1951 1310.1 1951.9 1311 1953 1311Z" fill="currentColor" fill-rule="nonzero" />
		<path id="Vector 955" d="M1960 1311C1961.1 1311 1962 1310.1 1962 1309C1962 1307.9 1961.1 1307 1960 1307C1958.9 1307 1958 1307.9 1958 1309C1958 1310.1 1958.9 1311 1960 1311Z" fill="currentColor" fill-rule="nonzero" />
		<path id="Vector 956" d="M1967 1311C1968.1 1311 1969 1310.1 1969 1309C1969 1307.9 1968.1 1307 1967 1307C1965.9 1307 1965 1307.9 1965 1309C1965 1310.1 1965.9 1311 1967 1311Z" fill="currentColor" fill-rule="nonzero" />
		<path id="Vector 957" d="M1951 1319L1948 1319C1946.9 1319 1946 1318.1 1946 1317L1946 1301C1946 1299.9 1946.9 1299 1948 1299L1951 1299L1951 1301L1948 1301L1948 1317L1951 1317L1951 1319Z" fill="currentColor" fill-rule="nonzero" />
  </g>
</svg>

