<svg viewBox="0 0 32 32" xmlns="http://www.w3.org/2000/svg" fill="none">
  <g transform="translate(-0 -1368)">
<path id="Vector 958" d="M31.5 1391C30.673 1391 30 1390.33 30 1389.5L30 1388C30 1386.9 29.103 1386 28 1386L26 1386L26 1388L28 1388L28 1389.5C28 1390.48 28.407 1391.36 29.058 1392C28.724 1392.33 28.4584 1392.71 28.2767 1393.14C28.0951 1393.57 28.001 1394.03 28 1394.5L28 1396L26 1396L26 1398L28 1398C29.103 1398 30 1397.1 30 1396L30 1394.5C30 1393.67 30.673 1393 31.5 1393L32 1393L32 1391L31.5 1391ZM16 1388L16 1389.5C16 1390.33 15.327 1391 14.5 1391L14 1391L14 1393L14.5 1393C15.327 1393 16 1393.67 16 1394.5L16 1396C16 1397.1 16.897 1398 18 1398L20 1398L20 1396L18 1396L18 1394.5C18 1393.52 17.593 1392.64 16.942 1392C17.276 1391.67 17.5416 1391.29 17.7233 1390.86C17.9049 1390.43 17.999 1389.97 18 1389.5L18 1388L20 1388L20 1386L18 1386C16.897 1386 16 1386.9 16 1388ZM28 1383L30 1383L30 1373C30 1371.9 29.103 1371 28 1371L25 1371L25 1373L28 1373L28 1383Z" fill="currentColor" fill-rule="nonzero" />
		<path id="Vector 959" d="M23 1383C24.1046 1383 25 1382.1 25 1381C25 1379.9 24.1046 1379 23 1379C21.8954 1379 21 1379.9 21 1381C21 1382.1 21.8954 1383 23 1383Z" fill="currentColor" fill-rule="nonzero" />
		<path id="Vector 960" d="M16 1383C17.1046 1383 18 1382.1 18 1381C18 1379.9 17.1046 1379 16 1379C14.8954 1379 14 1379.9 14 1381C14 1382.1 14.8954 1383 16 1383Z" fill="currentColor" fill-rule="nonzero" />
		<path id="Vector 961" d="M9 1383C10.1046 1383 11 1382.1 11 1381C11 1379.9 10.1046 1379 9 1379C7.89543 1379 7 1379.9 7 1381C7 1382.1 7.89543 1383 9 1383Z" fill="currentColor" fill-rule="nonzero" />
		<path id="Vector 962" d="M7 1391L4 1391C2.897 1391 2 1390.1 2 1389L2 1373C2 1371.9 2.897 1371 4 1371L7 1371L7 1373L4 1373L4 1389L7 1389L7 1391Z" fill="currentColor" fill-rule="nonzero" />
  </g>
</svg>

