<svg viewBox="0 0 32 32" xmlns="http://www.w3.org/2000/svg" fill="none">
  <g transform="translate(-144 -1368)">
<path id="Vector 964" d="M169 1390.14L169 1377C169 1374.79 167.206 1373 165 1373L160.828 1373L163.414 1370.41L162 1369L157 1374L162 1379L163.414 1377.59L160.828 1375L165 1375C166.103 1375 167 1375.9 167 1377L167 1390.14C165.28 1390.59 164 1392.14 164 1394C164 1396.21 165.794 1398 168 1398C170.206 1398 172 1396.21 172 1394C172 1392.14 170.72 1390.59 169 1390.14ZM168 1396C166.897 1396 166 1395.1 166 1394C166 1392.9 166.897 1392 168 1392C169.103 1392 170 1392.9 170 1394C170 1395.1 169.103 1396 168 1396ZM148 1374C148 1375.86 149.28 1377.41 151 1377.86L151 1390.14C149.28 1390.59 148 1392.14 148 1394C148 1396.21 149.794 1398 152 1398C154.206 1398 156 1396.21 156 1394C156 1392.14 154.72 1390.59 153 1390.14L153 1377.86C154.72 1377.41 156 1375.86 156 1374C156 1371.79 154.206 1370 152 1370C149.794 1370 148 1371.79 148 1374ZM154 1394C154 1395.1 153.103 1396 152 1396C150.897 1396 150 1395.1 150 1394C150 1392.9 150.897 1392 152 1392C153.103 1392 154 1392.9 154 1394ZM154 1374C154 1375.1 153.103 1376 152 1376C150.897 1376 150 1375.1 150 1374C150 1372.9 150.897 1372 152 1372C153.103 1372 154 1372.9 154 1374Z" fill="currentColor" fill-rule="nonzero" />
  </g>
</svg>

