<svg viewBox="0 0 32 32" xmlns="http://www.w3.org/2000/svg" fill="none">
  <g transform="translate(-216 -1368)">
<path id="Vector 965" d="M239 1395.18L236.41 1392.59L235 1394L239 1398L246 1391L244.59 1389.59L239 1395.18ZM230 1384L227 1384L227 1383.83C227.002 1383.14 227.182 1382.46 227.522 1381.86C227.862 1381.26 228.351 1380.76 228.942 1380.4L230.084 1379.71L229.054 1378L227.914 1378.69C227.027 1379.22 226.294 1379.98 225.783 1380.88C225.273 1381.78 225.003 1382.8 225 1383.83L225 1389C225 1389.27 225.105 1389.52 225.293 1389.71C225.48 1389.89 225.735 1390 226 1390L230 1390C230.265 1390 230.52 1389.89 230.707 1389.71C230.895 1389.52 231 1389.27 231 1389L231 1385C231 1384.73 230.895 1384.48 230.707 1384.29C230.52 1384.11 230.265 1384 230 1384ZM238 1384L235 1384L235 1383.83C235.002 1383.14 235.182 1382.46 235.522 1381.86C235.862 1381.26 236.351 1380.76 236.942 1380.4L238.084 1379.71L237.054 1378L235.914 1378.69C235.027 1379.22 234.294 1379.98 233.783 1380.88C233.273 1381.78 233.003 1382.8 233 1383.83L233 1389C233 1389.27 233.105 1389.52 233.293 1389.71C233.48 1389.89 233.735 1390 234 1390L238 1390C238.265 1390 238.52 1389.89 238.707 1389.71C238.895 1389.52 239 1389.27 239 1389L239 1385C239 1384.73 238.895 1384.48 238.707 1384.29C238.52 1384.11 238.265 1384 238 1384ZM228 1396L222 1396C220.897 1396 220 1395.1 220 1394L220 1374C220 1372.9 220.897 1372 222 1372L242 1372C243.103 1372 244 1372.9 244 1374L244 1385L242 1385L242 1374L222 1374L222 1394L228 1394L228 1396Z" fill="currentColor" fill-rule="nonzero" />
  </g>
</svg>

