<svg viewBox="0 0 32 32" xmlns="http://www.w3.org/2000/svg" fill="none">
  <g transform="translate(-288 -1368)">
<path id="Vector 966" d="M316 1374L292 1374C291.47 1374 290.961 1374.21 290.586 1374.59C290.211 1374.96 290 1375.47 290 1376L290 1392C290 1392.53 290.211 1393.04 290.586 1393.41C290.961 1393.79 291.47 1394 292 1394L316 1394C316.53 1394 317.039 1393.79 317.414 1393.41C317.789 1393.04 318 1392.53 318 1392L318 1376C318 1375.47 317.789 1374.96 317.414 1374.59C317.039 1374.21 316.53 1374 316 1374ZM316 1376L316 1379L292 1379L292 1376L316 1376ZM292 1392L292 1381L316 1381L316 1392L292 1392Z" fill="currentColor" fill-rule="nonzero" />
		<path id="Vector 967" d="M294 1388L304 1388L304 1390L294 1390L294 1388Z" fill="currentColor" fill-rule="nonzero" />
  </g>
</svg>

