<svg viewBox="0 0 32 32" xmlns="http://www.w3.org/2000/svg" fill="none">
  <g transform="translate(-360 -1368)">
<path id="Vector 968" d="M376 1369C367.729 1369 361 1375.73 361 1384C361 1392.27 367.729 1399 376 1399C384.271 1399 391 1392.27 391 1384C391 1375.73 384.271 1369 376 1369ZM382.583 1389.5C382.322 1389.05 381.946 1388.67 381.492 1388.4C381.039 1388.14 380.524 1388 380 1388C379.818 1388 379.641 1388.02 379.468 1388.05L377.742 1385.03C384.53 1385.27 387.864 1386.86 388 1387.5C387.902 1387.96 386.109 1388.91 382.583 1389.5ZM380 1390C380.258 1390.01 380.501 1390.12 380.679 1390.31C380.857 1390.49 380.956 1390.74 380.956 1391C380.956 1391.26 380.857 1391.51 380.679 1391.69C380.501 1391.88 380.258 1391.99 380 1392C379.735 1392 379.48 1391.89 379.293 1391.71C379.105 1391.52 379 1391.27 379 1391C379 1390.73 379.105 1390.48 379.293 1390.29C379.48 1390.11 379.735 1390 380 1390ZM363 1384C363 1383.46 363.044 1382.92 363.11 1382.4C363.965 1383.06 365.265 1383.59 366.833 1384C365.265 1384.41 363.965 1384.94 363.109 1385.6C363.04 1385.07 363.003 1384.54 363 1384ZM369.418 1378.5C369.679 1378.95 370.055 1379.33 370.508 1379.6C370.961 1379.86 371.476 1380 372 1380C372.182 1380 372.359 1379.98 372.532 1379.95L374.258 1382.97C367.454 1382.73 364.119 1381.13 364 1380.51C364.086 1380.05 365.878 1379.09 369.417 1378.5L369.418 1378.5ZM372 1378C371.742 1377.99 371.499 1377.88 371.321 1377.69C371.143 1377.51 371.044 1377.26 371.044 1377C371.044 1376.74 371.143 1376.49 371.321 1376.31C371.499 1376.12 371.742 1376.01 372 1376C372.258 1376.01 372.501 1376.12 372.679 1376.31C372.857 1376.49 372.956 1376.74 372.956 1377C372.956 1377.26 372.857 1377.51 372.679 1377.69C372.501 1377.88 372.258 1377.99 372 1378ZM385.167 1384C386.735 1383.59 388.035 1383.06 388.891 1382.4C388.956 1382.92 389 1383.46 389 1384C389 1384.54 388.956 1385.08 388.89 1385.6C388.035 1384.94 386.735 1384.41 385.167 1384ZM376 1371C380.902 1371 385.176 1373.73 387.39 1377.74C385.101 1376.75 381.59 1376.19 378 1376.05L378 1378.05C384.61 1378.31 387.866 1379.87 388 1380.5C387.856 1381.18 384.146 1382.91 376.576 1382.99L374.264 1378.95C374.716 1378.42 375 1377.75 375 1377C375 1375.35 373.654 1374 372 1374C371.286 1374 370.597 1374.26 370.056 1374.72C369.515 1375.19 369.157 1375.83 369.047 1376.54C367.341 1376.82 365.811 1377.22 364.612 1377.74C366.827 1373.73 371.1 1371 376 1371ZM376 1397C371.098 1397 366.824 1394.27 364.61 1390.26C366.899 1391.25 370.41 1391.81 374 1391.95L374 1389.95C367.372 1389.69 364.118 1388.12 364 1387.51C364.126 1386.83 367.836 1385.09 375.424 1385.01L377.736 1389.05C377.264 1389.59 377.003 1390.28 377 1391C377 1392.65 378.346 1394 380 1394C380.714 1394 381.403 1393.74 381.944 1393.28C382.485 1392.81 382.843 1392.17 382.953 1391.46C384.659 1391.18 386.189 1390.78 387.388 1390.26C385.173 1394.27 380.9 1397 376 1397Z" fill="currentColor" fill-rule="nonzero" />
  </g>
</svg>

