<svg viewBox="0 0 32 32" xmlns="http://www.w3.org/2000/svg" fill="none">
  <g transform="translate(-432 -1368)">
<path id="Vector 969" d="M452 1374C453.105 1374 454 1373.1 454 1372C454 1370.9 453.105 1370 452 1370C450.895 1370 450 1370.9 450 1372C450 1373.1 450.895 1374 452 1374Z" fill="currentColor" fill-rule="nonzero" />
		<path id="Vector 970" d="M440 1386C441.105 1386 442 1385.1 442 1384C442 1382.9 441.105 1382 440 1382C438.895 1382 438 1382.9 438 1384C438 1385.1 438.895 1386 440 1386Z" fill="currentColor" fill-rule="nonzero" />
		<path id="Vector 971" d="M460 1382C461.105 1382 462 1381.1 462 1380C462 1378.9 461.105 1378 460 1378C458.895 1378 458 1378.9 458 1380C458 1381.1 458.895 1382 460 1382Z" fill="currentColor" fill-rule="nonzero" />
		<path id="Vector 972" d="M443 1377C444.105 1377 445 1376.1 445 1375C445 1373.9 444.105 1373 443 1373C441.895 1373 441 1373.9 441 1375C441 1376.1 441.895 1377 443 1377Z" fill="currentColor" fill-rule="nonzero" />
		<path id="Vector 973" d="M448 1394C449.105 1394 450 1393.1 450 1392C450 1390.9 449.105 1390 448 1390C446.895 1390 446 1390.9 446 1392C446 1393.1 446.895 1394 448 1394Z" fill="currentColor" fill-rule="nonzero" />
		<path id="Vector 974" d="M462 1371.41L460.586 1370L436 1394.58L436 1370L434 1370L434 1396C434 1396.53 434.211 1397.04 434.586 1397.41C434.961 1397.79 435.47 1398 436 1398L462 1398L462 1396L437.413 1396L462 1371.41Z" fill="currentColor" fill-rule="nonzero" />
  </g>
</svg>

