<svg viewBox="0 0 32 32" xmlns="http://www.w3.org/2000/svg" fill="none">
  <g transform="translate(-504 -1368)">
<path id="Vector 975" d="M528 1396L528 1394L530 1394L530 1396L528 1396ZM522 1392L522 1390L524 1390L524 1392L522 1392ZM522 1398L526 1398L526 1396L524 1396L524 1394L522 1394L522 1398ZM530 1394L530 1390L532 1390L532 1394L530 1394ZM532 1394L534 1394L534 1398L530 1398L530 1396L532 1396L532 1394ZM530 1388L530 1386L534 1386L534 1390L532 1390L532 1388L530 1388ZM528 1388L526 1388L526 1392L524 1392L524 1394L528 1394L528 1388ZM522 1388L522 1386L526 1386L526 1388L522 1388ZM510 1390L514 1390L514 1394L510 1394L510 1390Z" fill="currentColor" fill-rule="nonzero" />
		<path id="Vector 976" d="M518 1398L506 1398L506 1386L518 1386L518 1398ZM508 1396L516 1396L516 1388L508 1388L508 1396ZM526 1374L530 1374L530 1378L526 1378L526 1374Z" fill="currentColor" fill-rule="nonzero" />
		<path id="Vector 977" d="M534 1382L522 1382L522 1370L534 1370L534 1382ZM524 1380L532 1380L532 1372L524 1372L524 1380ZM510 1374L514 1374L514 1378L510 1378L510 1374Z" fill="currentColor" fill-rule="nonzero" />
		<path id="Vector 978" d="M518 1382L506 1382L506 1370L518 1370L518 1382ZM508 1380L516 1380L516 1372L508 1372L508 1380Z" fill="currentColor" fill-rule="nonzero" />
  </g>
</svg>

