<svg viewBox="0 0 32 32" xmlns="http://www.w3.org/2000/svg" fill="none">
  <g transform="translate(-576 -1368)">
<path id="Vector 979" d="M606 1383L593 1383L593 1370L591 1370L591 1383L578 1383L578 1385L591 1385L591 1398L593 1398L593 1385L606 1385L606 1383ZM581 1398C580.407 1398 579.827 1397.82 579.333 1397.49C578.84 1397.16 578.455 1396.7 578.228 1396.15C578.001 1395.6 577.942 1395 578.058 1394.41C578.173 1393.83 578.459 1393.3 578.879 1392.88C579.298 1392.46 579.833 1392.17 580.415 1392.06C580.997 1391.94 581.6 1392 582.148 1392.23C582.696 1392.46 583.165 1392.84 583.494 1393.33C583.824 1393.83 584 1394.41 584 1395C583.999 1395.8 583.683 1396.56 583.12 1397.12C582.558 1397.68 581.795 1398 581 1398ZM581 1394C580.802 1394 580.609 1394.06 580.444 1394.17C580.28 1394.28 580.152 1394.43 580.076 1394.62C580 1394.8 579.981 1395 580.019 1395.2C580.058 1395.39 580.153 1395.57 580.293 1395.71C580.433 1395.85 580.611 1395.94 580.805 1395.98C580.999 1396.02 581.2 1396 581.383 1395.92C581.565 1395.85 581.722 1395.72 581.831 1395.56C581.941 1395.39 582 1395.2 582 1395C582 1394.73 581.895 1394.48 581.707 1394.29C581.52 1394.11 581.265 1394 581 1394Z" fill="currentColor" fill-rule="nonzero" />
		<path id="Vector 980" d="M584 1376C583.407 1376 582.827 1375.82 582.333 1375.49C581.84 1375.16 581.455 1374.7 581.228 1374.15C581.001 1373.6 580.942 1373 581.058 1372.41C581.173 1371.83 581.459 1371.3 581.879 1370.88C582.298 1370.46 582.833 1370.17 583.415 1370.06C583.997 1369.94 584.6 1370 585.148 1370.23C585.696 1370.46 586.165 1370.84 586.494 1371.33C586.824 1371.83 587 1372.41 587 1373C586.999 1373.8 586.683 1374.56 586.12 1375.12C585.558 1375.68 584.795 1376 584 1376ZM584 1372C583.802 1372 583.609 1372.06 583.444 1372.17C583.28 1372.28 583.152 1372.43 583.076 1372.62C583 1372.8 582.981 1373 583.019 1373.2C583.058 1373.39 583.153 1373.57 583.293 1373.71C583.433 1373.85 583.611 1373.94 583.805 1373.98C583.999 1374.02 584.2 1374 584.383 1373.92C584.565 1373.85 584.722 1373.72 584.831 1373.56C584.941 1373.39 585 1373.2 585 1373C585 1372.73 584.895 1372.48 584.707 1372.29C584.52 1372.11 584.265 1372 584 1372ZM598 1381C597.407 1381 596.827 1380.82 596.333 1380.49C595.84 1380.16 595.455 1379.7 595.228 1379.15C595.001 1378.6 594.942 1378 595.058 1377.41C595.173 1376.83 595.459 1376.3 595.879 1375.88C596.298 1375.46 596.833 1375.17 597.415 1375.06C597.997 1374.94 598.6 1375 599.148 1375.23C599.696 1375.46 600.165 1375.84 600.494 1376.33C600.824 1376.83 601 1377.41 601 1378C600.999 1378.8 600.683 1379.56 600.12 1380.12C599.558 1380.68 598.795 1381 598 1381ZM598 1377C597.802 1377 597.609 1377.06 597.444 1377.17C597.28 1377.28 597.152 1377.43 597.076 1377.62C597 1377.8 596.981 1378 597.019 1378.2C597.058 1378.39 597.153 1378.57 597.293 1378.71C597.433 1378.85 597.611 1378.94 597.805 1378.98C597.999 1379.02 598.2 1379 598.383 1378.92C598.565 1378.85 598.722 1378.72 598.831 1378.56C598.941 1378.39 599 1378.2 599 1378C599 1377.73 598.895 1377.48 598.707 1377.29C598.52 1377.11 598.265 1377 598 1377Z" fill="currentColor" fill-rule="nonzero" />
		<path id="Vector 981" d="M587 1381C588.105 1381 589 1380.1 589 1379C589 1377.9 588.105 1377 587 1377C585.895 1377 585 1377.9 585 1379C585 1380.1 585.895 1381 587 1381Z" fill="currentColor" fill-rule="nonzero" />
		<path id="Vector 982" d="M587 1391C588.105 1391 589 1390.1 589 1389C589 1387.9 588.105 1387 587 1387C585.895 1387 585 1387.9 585 1389C585 1390.1 585.895 1391 587 1391Z" fill="currentColor" fill-rule="nonzero" />
		<path id="Vector 983" d="M597 1391C598.105 1391 599 1390.1 599 1389C599 1387.9 598.105 1387 597 1387C595.895 1387 595 1387.9 595 1389C595 1390.1 595.895 1391 597 1391Z" fill="currentColor" fill-rule="nonzero" />
		<path id="Vector 984" d="M598 1398C599.105 1398 600 1397.1 600 1396C600 1394.9 599.105 1394 598 1394C596.895 1394 596 1394.9 596 1396C596 1397.1 596.895 1398 598 1398Z" fill="currentColor" fill-rule="nonzero" />
		<path id="Vector 985" d="M604 1394C605.105 1394 606 1393.1 606 1392C606 1390.9 605.105 1390 604 1390C602.895 1390 602 1390.9 602 1392C602 1393.1 602.895 1394 604 1394Z" fill="currentColor" fill-rule="nonzero" />
		<path id="Vector 986" d="M580 1381C581.105 1381 582 1380.1 582 1379C582 1377.9 581.105 1377 580 1377C578.895 1377 578 1377.9 578 1379C578 1380.1 578.895 1381 580 1381Z" fill="currentColor" fill-rule="nonzero" />
		<path id="Vector 987" d="M604 1374C605.105 1374 606 1373.1 606 1372C606 1370.9 605.105 1370 604 1370C602.895 1370 602 1370.9 602 1372C602 1373.1 602.895 1374 604 1374Z" fill="currentColor" fill-rule="nonzero" />
  </g>
</svg>

