<svg viewBox="0 0 32 32" xmlns="http://www.w3.org/2000/svg" fill="none">
  <g transform="translate(-648 -1368)">
<path id="Vector 988" d="M659 1385C659.828 1385 660.5 1384.33 660.5 1383.5C660.5 1382.67 659.828 1382 659 1382C658.172 1382 657.5 1382.67 657.5 1383.5C657.5 1384.33 658.172 1385 659 1385Z" fill="currentColor" fill-rule="nonzero" />
		<path id="Vector 989" d="M660 1380L658 1380L658 1376L660 1376C660.53 1376 661.039 1375.79 661.414 1375.41C661.789 1375.04 662 1374.53 662 1374C662 1373.47 661.789 1372.96 661.414 1372.59C661.039 1372.21 660.53 1372 660 1372L658 1372C657.47 1372 656.961 1372.21 656.586 1372.59C656.211 1372.96 656 1373.47 656 1374L656 1374.5L654 1374.5L654 1374C654.001 1372.94 654.423 1371.92 655.173 1371.17C655.923 1370.42 656.94 1370 658 1370L660 1370C661.061 1370 662.078 1370.42 662.828 1371.17C663.579 1371.92 664 1372.94 664 1374C664 1375.06 663.579 1376.08 662.828 1376.83C662.078 1377.58 661.061 1378 660 1378L660 1380Z" fill="currentColor" fill-rule="nonzero" />
		<path id="Vector 990" d="M670.448 1389.03C671.449 1387.84 672.182 1386.44 672.6 1384.94C673.018 1383.43 673.11 1381.86 672.871 1380.32C672.632 1378.78 672.067 1377.3 671.213 1376C670.36 1374.69 669.237 1373.58 667.921 1372.74L666.922 1374.47C668.226 1375.33 669.286 1376.5 669.999 1377.89C670.711 1379.28 671.051 1380.82 670.986 1382.38C670.921 1383.94 670.453 1385.45 669.627 1386.77C668.801 1388.09 667.646 1389.18 666.276 1389.92C664.905 1390.66 663.365 1391.03 661.807 1391C660.249 1390.97 658.727 1390.53 657.388 1389.73C656.05 1388.93 654.942 1387.8 654.173 1386.45C653.404 1385.09 652.999 1383.56 653 1382L651 1382C650.998 1384.09 651.593 1386.14 652.714 1387.9C653.835 1389.67 655.436 1391.08 657.329 1391.96C659.222 1392.85 661.329 1393.18 663.402 1392.91C665.475 1392.64 667.429 1391.79 669.034 1390.45L676.586 1398L678 1396.59L670.448 1389.03Z" fill="currentColor" fill-rule="nonzero" />
  </g>
</svg>

