<svg viewBox="0 0 32 32" xmlns="http://www.w3.org/2000/svg" fill="none">
  <g transform="translate(-792 -1368)">
<path id="Vector 992" d="M812 1383.18L809.41 1380.59L808 1382L812 1386L818 1380L816.59 1378.59L812 1383.18ZM800 1386L802 1386L802 1388L800 1388L800 1386ZM804 1377L799 1377L799 1379L803 1379L803 1381L800 1381L800 1384L802 1384L802 1383L804 1383C804.265 1383 804.52 1382.89 804.707 1382.71C804.895 1382.52 805 1382.27 805 1382L805 1378C805 1377.73 804.895 1377.48 804.707 1377.29C804.52 1377.11 804.265 1377 804 1377Z" fill="currentColor" fill-rule="nonzero" />
		<path id="Vector 993" d="M809.736 1398L808 1397L812 1390L818 1390C819.107 1390 820 1389.11 820 1388L820 1376C820 1374.89 819.107 1374 818 1374L798 1374C796.893 1374 796 1374.89 796 1376L796 1388C796 1389.11 796.893 1390 798 1390L807 1390L807 1392L798 1392C796.939 1392 795.922 1391.58 795.172 1390.83C794.421 1390.08 794 1389.06 794 1388L794 1376C794 1373.79 795.79 1372 798 1372L818 1372C820.21 1372 822 1373.79 822 1376L822 1388C822 1389.06 821.579 1390.08 820.828 1390.83C820.078 1391.58 819.061 1392 818 1392L813.165 1392L809.736 1398Z" fill="currentColor" fill-rule="nonzero" />
  </g>
</svg>

