<svg viewBox="0 0 32 32" xmlns="http://www.w3.org/2000/svg" fill="none">
  <g transform="translate(-864 -1368)">
<path id="Vector 994" d="M886 1388L894 1388L894 1390L886 1390L886 1388ZM886 1392L894 1392L894 1394L886 1394L886 1392ZM886 1396L894 1396L894 1398L886 1398L886 1396ZM882 1392L884 1392L884 1394L882 1394L882 1392ZM882 1388L884 1388L884 1390L882 1390L882 1388ZM882 1396L884 1396L884 1398L882 1398L882 1396ZM870.815 1376.29C871.717 1375.22 872.797 1374.32 874.007 1373.62L873.007 1371.89C871.595 1372.71 870.335 1373.76 869.284 1375.01L870.815 1376.29ZM889.185 1376.29L890.715 1375.01C889.664 1373.76 888.404 1372.71 886.992 1371.89L885.993 1373.62C887.203 1374.32 888.283 1375.22 889.185 1376.29ZM868.737 1379.9L866.859 1379.22C866.294 1380.75 866.003 1382.37 866 1384L868 1384C868.003 1382.6 868.252 1381.21 868.737 1379.9ZM870.815 1391.71C869.917 1390.63 869.214 1389.41 868.737 1388.1L866.859 1388.78C867.416 1390.32 868.236 1391.74 869.284 1392.99L870.815 1391.71ZM891.263 1379.9C891.748 1381.21 891.997 1382.6 892 1384L894 1384C893.996 1382.37 893.705 1380.75 893.14 1379.22L891.263 1379.9ZM877.918 1395.81C876.541 1395.56 875.217 1395.08 874.007 1394.38L873.007 1396.11C874.419 1396.93 875.964 1397.49 877.571 1397.77L877.918 1395.81ZM877.918 1372.19C879.294 1371.93 880.706 1371.93 882.082 1372.19L882.429 1370.23C880.824 1369.93 879.176 1369.93 877.571 1370.23L877.918 1372.19Z" fill="currentColor" fill-rule="nonzero" />
  </g>
</svg>

