<svg viewBox="0 0 32 32" xmlns="http://www.w3.org/2000/svg" fill="none">
  <g transform="translate(-936 -1368)">
<path id="Vector 995" d="M948 1383L942.11 1383C942.296 1381.76 942.738 1380.58 943.408 1379.52C944.077 1378.46 944.96 1377.56 946 1376.86L947.79 1375.66L946.69 1374L944.9 1375.2C943.393 1376.2 942.158 1377.56 941.303 1379.16C940.448 1380.76 940.001 1382.54 940 1384.35L940 1391C940 1391.53 940.211 1392.04 940.586 1392.41C940.961 1392.79 941.47 1393 942 1393L948 1393C948.53 1393 949.039 1392.79 949.414 1392.41C949.789 1392.04 950 1391.53 950 1391L950 1385C950 1384.47 949.789 1383.96 949.414 1383.59C949.039 1383.21 948.53 1383 948 1383ZM962 1383L956.11 1383C956.296 1381.76 956.738 1380.58 957.408 1379.52C958.077 1378.46 958.96 1377.56 960 1376.86L961.79 1375.66L960.7 1374L958.9 1375.2C957.393 1376.2 956.158 1377.56 955.303 1379.16C954.448 1380.76 954.001 1382.54 954 1384.35L954 1391C954 1391.53 954.211 1392.04 954.586 1392.41C954.961 1392.79 955.47 1393 956 1393L962 1393C962.53 1393 963.039 1392.79 963.414 1392.41C963.789 1392.04 964 1391.53 964 1391L964 1385C964 1384.47 963.789 1383.96 963.414 1383.59C963.039 1383.21 962.53 1383 962 1383Z" fill="currentColor" fill-rule="nonzero" />
  </g>
</svg>

