<svg viewBox="0 0 32 32" xmlns="http://www.w3.org/2000/svg" fill="none">
  <g transform="translate(-1080 -1368)">
<path id="Vector 997" d="M1110 1371.42L1108.58 1370L1097.29 1381.29C1097.2 1381.39 1097.12 1381.5 1097.07 1381.62C1097.02 1381.74 1096.99 1381.87 1096.99 1382C1096.99 1382.14 1097.01 1382.27 1097.06 1382.39C1097.11 1382.51 1097.19 1382.63 1097.28 1382.72C1097.37 1382.81 1097.49 1382.89 1097.61 1382.94C1097.73 1382.99 1097.86 1383.01 1098 1383.01C1098.13 1383.01 1098.26 1382.98 1098.38 1382.93C1098.5 1382.88 1098.61 1382.8 1098.71 1382.71L1102.16 1379.25C1102.66 1380 1102.95 1380.88 1102.99 1381.78C1103.04 1382.68 1102.83 1383.58 1102.41 1384.38C1101.98 1385.17 1101.34 1385.84 1100.57 1386.3C1099.79 1386.76 1098.9 1387 1098 1387C1097.8 1387 1097.59 1386.98 1097.39 1386.95C1096.58 1384.99 1095.02 1383.42 1093.05 1382.61C1092.95 1381.9 1093 1381.19 1093.2 1380.5C1093.41 1379.82 1093.75 1379.19 1094.23 1378.66C1094.7 1378.12 1095.28 1377.7 1095.93 1377.41C1096.58 1377.13 1097.29 1376.99 1098 1377L1098 1375C1096.14 1375 1094.37 1375.74 1093.05 1377.05C1091.74 1378.37 1091 1380.14 1091 1382C1091 1382.02 1091.01 1382.05 1091.01 1382.07C1090.67 1382.03 1090.34 1382 1090 1382C1089.33 1382 1088.66 1382.09 1088.01 1382.26C1088.01 1382.17 1088 1382.09 1088 1382C1088 1379.35 1089.06 1376.81 1090.93 1374.93C1092.81 1373.06 1095.35 1372 1098 1372L1098 1370C1094.82 1370 1091.77 1371.27 1089.52 1373.52C1087.27 1375.77 1086 1378.82 1086 1382C1086 1382.35 1086.02 1382.71 1086.05 1383.05C1084.98 1383.66 1084.06 1384.51 1083.37 1385.53C1082.68 1386.55 1082.24 1387.71 1082.07 1388.93C1081.91 1390.15 1082.03 1391.4 1082.42 1392.56C1082.82 1393.73 1083.47 1394.79 1084.34 1395.66C1085.21 1396.53 1086.27 1397.19 1087.44 1397.58C1088.61 1397.97 1089.85 1398.09 1091.07 1397.93C1092.29 1397.76 1093.45 1397.32 1094.47 1396.63C1095.49 1395.94 1096.34 1395.02 1096.95 1393.95C1097.3 1393.98 1097.65 1394 1098 1394C1100.29 1394 1102.53 1393.35 1104.46 1392.12C1106.39 1390.89 1107.93 1389.13 1108.89 1387.06C1109.85 1384.98 1110.2 1382.67 1109.89 1380.4C1109.59 1378.14 1108.63 1376 1107.15 1374.26L1110 1371.42ZM1095.91 1389L1093.96 1389C1093.83 1387.49 1093.41 1386.02 1092.74 1384.67C1093.57 1385.09 1094.28 1385.71 1094.83 1386.46C1095.39 1387.21 1095.75 1388.08 1095.91 1389ZM1084.09 1391L1086.04 1391C1086.17 1392.51 1086.59 1393.98 1087.26 1395.33C1086.43 1394.91 1085.72 1394.29 1085.17 1393.54C1084.61 1392.79 1084.25 1391.92 1084.09 1391ZM1086.04 1389L1084.09 1389C1084.25 1388.08 1084.61 1387.21 1085.16 1386.46C1085.72 1385.71 1086.43 1385.09 1087.26 1384.67C1086.59 1386.02 1086.17 1387.49 1086.04 1389ZM1090 1395.99C1088.91 1394.53 1088.24 1392.81 1088.05 1391L1091.94 1391C1091.76 1392.81 1091.09 1394.53 1090 1395.99ZM1088.05 1389C1088.24 1387.19 1088.91 1385.47 1090 1384.02C1091.09 1385.47 1091.76 1387.19 1091.94 1389L1088.05 1389ZM1092.74 1395.33C1093.41 1393.98 1093.83 1392.51 1093.96 1391L1095.91 1391C1095.75 1391.92 1095.39 1392.79 1094.83 1393.54C1094.28 1394.29 1093.57 1394.91 1092.74 1395.33ZM1108 1382C1108 1384.65 1106.94 1387.19 1105.07 1389.07C1103.19 1390.94 1100.65 1392 1098 1392C1097.91 1392 1097.83 1391.99 1097.74 1391.99C1098 1391.01 1098.07 1389.99 1097.93 1388.99C1097.95 1388.99 1097.98 1389 1098 1389C1099.3 1389 1100.57 1388.64 1101.68 1387.96C1102.78 1387.27 1103.68 1386.3 1104.26 1385.13C1104.84 1383.97 1105.09 1382.67 1104.97 1381.38C1104.86 1380.09 1104.38 1378.85 1103.6 1377.81L1105.74 1375.68C1107.2 1377.46 1108 1379.69 1108 1382Z" fill="currentColor" fill-rule="nonzero" />
  </g>
</svg>

