<svg viewBox="0 0 32 32" xmlns="http://www.w3.org/2000/svg" fill="none">
  <g transform="translate(-1152 -1368)">
<path id="Vector 998" d="M1182 1371.42L1180.58 1370L1169.29 1381.29C1169.2 1381.39 1169.12 1381.5 1169.07 1381.62C1169.02 1381.74 1168.99 1381.87 1168.99 1382C1168.99 1382.14 1169.01 1382.27 1169.06 1382.39C1169.11 1382.51 1169.19 1382.63 1169.28 1382.72C1169.37 1382.81 1169.49 1382.89 1169.61 1382.94C1169.73 1382.99 1169.86 1383.01 1170 1383.01C1170.13 1383.01 1170.26 1382.98 1170.38 1382.93C1170.5 1382.88 1170.61 1382.8 1170.71 1382.71L1174.16 1379.25C1174.65 1379.98 1174.94 1380.83 1174.99 1381.71C1175.05 1382.58 1174.87 1383.46 1174.47 1384.24C1174.08 1385.03 1173.48 1385.69 1172.74 1386.17C1172.01 1386.65 1171.16 1386.93 1170.28 1386.97C1169.79 1385.96 1169.07 1385.09 1168.18 1384.41C1167.28 1383.74 1166.24 1383.29 1165.14 1383.1C1164.96 1382.37 1164.95 1381.61 1165.12 1380.87C1165.28 1380.14 1165.61 1379.45 1166.08 1378.86C1166.55 1378.27 1167.14 1377.8 1167.82 1377.48C1168.5 1377.15 1169.25 1376.99 1170 1377L1170 1375C1168.99 1374.99 1167.99 1375.21 1167.07 1375.63C1166.14 1376.05 1165.33 1376.67 1164.67 1377.43C1164.01 1378.2 1163.53 1379.11 1163.26 1380.08C1162.98 1381.06 1162.93 1382.08 1163.09 1383.08C1162.07 1383.22 1161.1 1383.58 1160.24 1384.14C1159.91 1382.68 1159.92 1381.16 1160.26 1379.71C1160.6 1378.25 1161.26 1376.89 1162.2 1375.72C1163.14 1374.56 1164.33 1373.62 1165.68 1372.97C1167.03 1372.33 1168.5 1372 1170 1372L1170 1370C1168.11 1370 1166.25 1370.44 1164.56 1371.29C1162.88 1372.15 1161.42 1373.39 1160.31 1374.91C1159.19 1376.43 1158.45 1378.2 1158.15 1380.06C1157.85 1381.93 1158 1383.84 1158.57 1385.64C1157.92 1386.43 1157.46 1387.35 1157.21 1388.34C1156.12 1388.76 1155.21 1389.55 1154.64 1390.57C1154.07 1391.58 1153.87 1392.77 1154.09 1393.92C1154.3 1395.06 1154.91 1396.1 1155.8 1396.85C1156.7 1397.59 1157.83 1398 1159 1398L1169 1398C1170.27 1398 1171.49 1397.51 1172.41 1396.64C1173.33 1395.77 1173.89 1394.59 1173.97 1393.32C1176.31 1392.49 1178.34 1390.96 1179.78 1388.93C1181.22 1386.91 1181.99 1384.49 1182 1382C1182.01 1379.16 1181 1376.41 1179.16 1374.25L1182 1371.42ZM1169 1396L1159 1396C1158.27 1396 1157.56 1395.73 1157.01 1395.24C1156.46 1394.76 1156.11 1394.08 1156.03 1393.36C1155.94 1392.63 1156.12 1391.89 1156.54 1391.29C1156.96 1390.69 1157.59 1390.26 1158.3 1390.09L1158.96 1389.94L1159.06 1389.27C1159.24 1388.08 1159.83 1387 1160.74 1386.21C1161.64 1385.43 1162.8 1385 1164 1385C1165.2 1385 1166.36 1385.43 1167.26 1386.21C1168.17 1387 1168.76 1388.08 1168.94 1389.27L1169.04 1389.94L1169.7 1390.09C1170.41 1390.26 1171.04 1390.69 1171.46 1391.29C1171.88 1391.89 1172.06 1392.63 1171.98 1393.36C1171.89 1394.08 1171.54 1394.76 1170.99 1395.24C1170.44 1395.73 1169.73 1396 1169 1396ZM1180 1382C1179.99 1384 1179.39 1385.96 1178.27 1387.61C1177.14 1389.27 1175.55 1390.55 1173.69 1391.29C1173.31 1390.26 1172.6 1389.38 1171.67 1388.79C1172.79 1388.52 1173.83 1387.97 1174.69 1387.19C1175.55 1386.42 1176.2 1385.45 1176.59 1384.36C1176.98 1383.27 1177.09 1382.1 1176.92 1380.96C1176.75 1379.82 1176.3 1378.73 1175.61 1377.81L1177.74 1375.68C1179.2 1377.46 1180.01 1379.69 1180 1382Z" fill="currentColor" fill-rule="nonzero" />
  </g>
</svg>

