<svg viewBox="0 0 32 32" xmlns="http://www.w3.org/2000/svg" fill="none">
  <g transform="translate(-1008 -1368)">
<path id="Vector 996" d="M1038 1371.41L1036.59 1370L1023.29 1383.29C1023.11 1383.48 1023.01 1383.73 1023.01 1384C1023.01 1384.26 1023.12 1384.51 1023.31 1384.69C1023.49 1384.88 1023.74 1384.99 1024 1384.99C1024.27 1384.99 1024.52 1384.89 1024.71 1384.71L1028.89 1380.53C1029.66 1381.62 1030.05 1382.95 1029.99 1384.29C1029.92 1385.63 1029.4 1386.92 1028.52 1387.93C1027.64 1388.94 1026.44 1389.63 1025.12 1389.89C1023.8 1390.14 1022.44 1389.94 1021.24 1389.32C1020.05 1388.7 1019.1 1387.7 1018.54 1386.48C1017.98 1385.26 1017.85 1383.88 1018.17 1382.58C1018.49 1381.27 1019.24 1380.11 1020.29 1379.28C1021.35 1378.45 1022.66 1378 1024 1378L1024 1376C1022.19 1376 1020.43 1376.61 1019.01 1377.73C1017.59 1378.86 1016.6 1380.43 1016.19 1382.19C1015.78 1383.96 1015.97 1385.81 1016.75 1387.45C1017.53 1389.08 1018.83 1390.41 1020.46 1391.2C1022.09 1392 1023.93 1392.22 1025.7 1391.84C1027.47 1391.45 1029.06 1390.47 1030.2 1389.07C1031.34 1387.66 1031.98 1385.91 1032 1384.1C1032.02 1382.29 1031.43 1380.53 1030.32 1379.1L1033.16 1376.25C1035 1378.41 1036.01 1381.16 1036 1384C1036 1386.37 1035.3 1388.69 1033.98 1390.67C1032.66 1392.64 1030.78 1394.18 1028.59 1395.09C1026.4 1395.99 1023.99 1396.23 1021.66 1395.77C1019.33 1395.31 1017.19 1394.16 1015.51 1392.49C1013.84 1390.81 1012.69 1388.67 1012.23 1386.34C1011.77 1384.01 1012.01 1381.6 1012.91 1379.41C1013.82 1377.22 1015.36 1375.34 1017.33 1374.02C1019.31 1372.7 1021.63 1372 1024 1372L1024 1370C1021.23 1370 1018.52 1370.82 1016.22 1372.36C1013.92 1373.9 1012.13 1376.08 1011.07 1378.64C1010.01 1381.2 1009.73 1384.02 1010.27 1386.73C1010.81 1389.45 1012.14 1391.94 1014.1 1393.9C1016.06 1395.86 1018.55 1397.19 1021.27 1397.73C1023.98 1398.27 1026.8 1397.99 1029.36 1396.93C1031.92 1395.87 1034.1 1394.08 1035.64 1391.78C1037.18 1389.48 1038 1386.77 1038 1384C1038.01 1380.63 1036.79 1377.37 1034.58 1374.84L1038 1371.41Z" fill="currentColor" fill-rule="nonzero" />
  </g>
</svg>

