<svg viewBox="0 0 32 32" xmlns="http://www.w3.org/2000/svg" fill="none">
  <g transform="translate(-1224 -1368)">
<path id="Vector 999" d="M1236 1378L1230.78 1378C1232.07 1376.01 1233.97 1374.5 1236.2 1373.68C1238.43 1372.86 1240.86 1372.78 1243.13 1373.45C1245.4 1374.13 1247.4 1375.52 1248.82 1377.42C1250.23 1379.32 1251 1381.63 1251 1384L1253 1384C1253 1381.33 1252.18 1378.72 1250.65 1376.53C1249.11 1374.34 1246.94 1372.67 1244.42 1371.76C1241.91 1370.85 1239.17 1370.74 1236.59 1371.44C1234.01 1372.14 1231.71 1373.62 1230 1375.68L1230 1372L1228 1372L1228 1380L1236 1380L1236 1378ZM1244 1390L1249.22 1390C1247.93 1391.99 1246.03 1393.5 1243.8 1394.32C1241.57 1395.14 1239.14 1395.22 1236.87 1394.55C1234.6 1393.87 1232.6 1392.48 1231.18 1390.58C1229.77 1388.68 1229 1386.37 1229 1384L1227 1384C1227 1386.67 1227.82 1389.29 1229.35 1391.48C1230.89 1393.67 1233.06 1395.33 1235.58 1396.24C1238.09 1397.15 1240.83 1397.26 1243.41 1396.56C1245.99 1395.86 1248.29 1394.38 1250 1392.32L1250 1396L1252 1396L1252 1388L1244 1388L1244 1390Z" fill="currentColor" fill-rule="nonzero" />
  </g>
</svg>

