<svg viewBox="0 0 32 32" xmlns="http://www.w3.org/2000/svg" fill="none">
  <g transform="translate(-1296 -1368)">
<path id="Vector 1000" d="M1302 1374L1322.17 1374L1318.59 1370.41L1320 1369L1326 1375L1320 1381L1318.59 1379.59L1322.17 1376L1302 1376L1302 1383L1300 1383L1300 1376C1300 1375.47 1300.21 1374.96 1300.59 1374.59C1300.96 1374.21 1301.47 1374 1302 1374ZM1305.41 1388.41L1301.83 1392L1322 1392L1322 1385L1324 1385L1324 1392C1324 1392.53 1323.79 1393.04 1323.41 1393.41C1323.04 1393.79 1322.53 1394 1322 1394L1301.83 1394L1305.41 1397.59L1304 1399L1298 1393L1304 1387L1305.41 1388.41Z" fill="currentColor" fill-rule="nonzero" />
  </g>
</svg>

