<svg viewBox="0 0 32 32" xmlns="http://www.w3.org/2000/svg" fill="none">
  <g transform="translate(-1368.000122 -1368)">
<path id="Vector 1001" d="M1374 1374L1394.17 1374L1390.59 1370.41L1392 1369L1398 1375L1392 1381L1390.59 1379.59L1394.17 1376L1374 1376L1374 1383L1372 1383L1372 1376C1372 1375.47 1372.21 1374.96 1372.59 1374.59C1372.96 1374.21 1373.47 1374 1374 1374ZM1377.41 1388.41L1373.83 1392L1394 1392L1394 1385L1396 1385L1396 1392C1396 1392.53 1395.79 1393.04 1395.41 1393.41C1395.04 1393.79 1394.53 1394 1394 1394L1373.83 1394L1377.41 1397.59L1376 1399L1370 1393L1376 1387L1377.41 1388.41Z" fill="currentColor" fill-rule="nonzero" />
		<path id="Vector 1002" d="M1385 1387L1385 1379L1383 1379L1383 1380L1381 1380L1381 1382L1383 1382L1383 1387L1381 1387L1381 1389L1387 1389L1387 1387L1385 1387Z" fill="currentColor" fill-rule="nonzero" />
  </g>
</svg>

