<svg viewBox="0 0 32 32" xmlns="http://www.w3.org/2000/svg" fill="none">
  <g transform="translate(-1512.000122 -1368)">
<path id="Vector 1004" d="M1540.88 1398C1540.7 1398 1540.53 1397.96 1540.37 1397.87C1540.22 1397.78 1540.09 1397.65 1540 1397.5C1538.67 1395.23 1536.77 1393.35 1534.49 1392.03C1532.21 1390.72 1529.63 1390.02 1527 1390L1527 1396C1527 1396.2 1526.94 1396.39 1526.83 1396.55C1526.72 1396.72 1526.56 1396.85 1526.38 1396.92C1526.2 1397 1526 1397.02 1525.8 1396.98C1525.61 1396.94 1525.43 1396.85 1525.29 1396.71L1513.29 1384.71C1513.2 1384.62 1513.12 1384.51 1513.07 1384.38C1513.02 1384.26 1512.99 1384.13 1512.99 1384C1512.99 1383.87 1513.02 1383.74 1513.07 1383.62C1513.12 1383.49 1513.2 1383.38 1513.29 1383.29L1525.29 1371.29C1525.43 1371.15 1525.61 1371.06 1525.8 1371.02C1526 1370.98 1526.2 1371 1526.38 1371.08C1526.56 1371.16 1526.72 1371.28 1526.83 1371.45C1526.94 1371.61 1527 1371.8 1527 1372L1527 1378.11C1531.14 1378.64 1534.94 1380.66 1537.7 1383.79C1540.46 1386.91 1541.99 1390.94 1542 1395.11C1542 1395.78 1541.96 1396.45 1541.87 1397.11C1541.85 1397.32 1541.76 1397.51 1541.61 1397.67C1541.47 1397.82 1541.29 1397.93 1541.08 1397.97L1540.88 1398ZM1526.5 1388C1529.05 1387.96 1531.58 1388.48 1533.91 1389.52C1536.24 1390.55 1538.32 1392.08 1540 1394C1539.7 1390.37 1538.12 1386.97 1535.53 1384.41C1532.95 1381.84 1529.54 1380.28 1525.91 1380C1525.66 1379.98 1525.43 1379.86 1525.26 1379.68C1525.09 1379.49 1525 1379.25 1525 1379L1525 1374.41L1515.41 1384L1525 1393.59L1525 1389C1525 1388.73 1525.11 1388.48 1525.29 1388.29C1525.48 1388.11 1525.73 1388 1526 1388L1526.54 1388L1526.5 1388Z" fill="currentColor" fill-rule="nonzero" />
  </g>
</svg>

