<svg viewBox="0 0 32 32" xmlns="http://www.w3.org/2000/svg" fill="none">
  <g transform="translate(-1584.000122 -1368)">
<path id="Vector 1005" d="M1603 1397C1602.85 1397 1602.71 1396.97 1602.58 1396.91C1602.44 1396.84 1602.33 1396.75 1602.23 1396.64L1592.23 1384.64C1592.08 1384.46 1592 1384.23 1592 1384C1592 1383.77 1592.08 1383.54 1592.23 1383.36L1602.23 1371.36C1602.36 1371.2 1602.54 1371.09 1602.74 1371.04C1602.94 1370.98 1603.15 1370.99 1603.34 1371.06C1603.53 1371.13 1603.7 1371.26 1603.82 1371.43C1603.94 1371.59 1604 1371.79 1604 1372L1604 1379.03C1611.01 1379.5 1615 1384.89 1615 1394C1615 1394.21 1614.93 1394.41 1614.81 1394.58C1614.69 1394.76 1614.52 1394.88 1614.32 1394.95C1614.12 1395.02 1613.9 1395.02 1613.7 1394.95C1613.5 1394.89 1613.33 1394.77 1613.2 1394.6C1610.38 1390.84 1607.81 1389.25 1604 1389.03L1604 1396C1604 1396.27 1603.89 1396.52 1603.71 1396.71C1603.52 1396.89 1603.27 1397 1603 1397ZM1594.3 1384L1602 1393.24L1602 1388C1602 1387.73 1602.11 1387.48 1602.29 1387.29C1602.48 1387.11 1602.73 1387 1603 1387C1604.84 1386.93 1606.67 1387.26 1608.37 1387.96C1610.07 1388.67 1611.59 1389.74 1612.84 1391.09C1612.09 1384.56 1608.66 1381 1603 1381C1602.73 1381 1602.48 1380.89 1602.29 1380.71C1602.11 1380.52 1602 1380.27 1602 1380L1602 1374.76L1594.3 1384Z" fill="currentColor" fill-rule="nonzero" />
		<path id="Vector 1006" d="M1595.46 1396.92L1585.23 1384.64C1585.08 1384.46 1585 1384.23 1585 1384C1585 1383.77 1585.08 1383.54 1585.23 1383.36L1595.46 1371.08L1597 1372.36L1587.3 1384L1597 1395.64L1595.46 1396.92Z" fill="currentColor" fill-rule="nonzero" />
  </g>
</svg>

