<svg viewBox="0 0 32 32" xmlns="http://www.w3.org/2000/svg" fill="none">
  <g transform="translate(-1440.000122 -1368)">
<path id="Vector 1003" d="M1468 1376L1470 1376L1470 1372C1470 1371.47 1469.79 1370.96 1469.41 1370.59C1469.04 1370.21 1468.53 1370 1468 1370L1464 1370L1464 1372L1468 1372L1468 1376ZM1457 1370L1461 1370L1461 1372L1457 1372L1457 1370ZM1468 1379L1470 1379L1470 1383L1468 1383L1468 1379ZM1468 1386L1468 1390L1464 1390L1464 1378C1464 1377.47 1463.79 1376.96 1463.41 1376.59C1463.04 1376.21 1462.53 1376 1462 1376L1450 1376L1450 1372L1454 1372L1454 1370L1450 1370C1449.47 1370 1448.96 1370.21 1448.59 1370.59C1448.21 1370.96 1448 1371.47 1448 1372L1448 1376L1444 1376C1443.47 1376 1442.96 1376.21 1442.59 1376.59C1442.21 1376.96 1442 1377.47 1442 1378L1442 1396C1442 1396.53 1442.21 1397.04 1442.59 1397.41C1442.96 1397.79 1443.47 1398 1444 1398L1462 1398C1462.53 1398 1463.04 1397.79 1463.41 1397.41C1463.79 1397.04 1464 1396.53 1464 1396L1464 1392L1468 1392C1468.53 1392 1469.04 1391.79 1469.41 1391.41C1469.79 1391.04 1470 1390.53 1470 1390L1470 1386L1468 1386ZM1462 1396L1444 1396L1444 1378L1462 1378L1462 1396Z" fill="currentColor" fill-rule="nonzero" />
  </g>
</svg>

