<svg viewBox="0 0 32 32" xmlns="http://www.w3.org/2000/svg" fill="none">
  <g transform="translate(-1800.000122 -1368)">
<path id="Vector 1011" d="M1815 1388L1817 1388L1817 1392L1815 1392L1815 1388ZM1820 1386L1822 1386L1822 1392L1820 1392L1820 1386ZM1810 1382L1812 1382L1812 1392L1810 1392L1810 1382Z" fill="currentColor" fill-rule="nonzero" />
		<path id="Vector 1012" d="M1825 1373L1822 1373L1822 1372C1822 1371.47 1821.79 1370.96 1821.41 1370.59C1821.04 1370.21 1820.53 1370 1820 1370L1812 1370C1811.47 1370 1810.96 1370.21 1810.59 1370.59C1810.21 1370.96 1810 1371.47 1810 1372L1810 1373L1807 1373C1806.47 1373 1805.96 1373.21 1805.59 1373.59C1805.21 1373.96 1805 1374.47 1805 1375L1805 1396C1805 1396.53 1805.21 1397.04 1805.59 1397.41C1805.96 1397.79 1806.47 1398 1807 1398L1825 1398C1825.53 1398 1826.04 1397.79 1826.41 1397.41C1826.79 1397.04 1827 1396.53 1827 1396L1827 1375C1827 1374.47 1826.79 1373.96 1826.41 1373.59C1826.04 1373.21 1825.53 1373 1825 1373ZM1812 1372L1820 1372L1820 1376L1812 1376L1812 1372ZM1825 1396L1807 1396L1807 1375L1810 1375L1810 1378L1822 1378L1822 1375L1825 1375L1825 1396Z" fill="currentColor" fill-rule="nonzero" />
  </g>
</svg>

