<svg viewBox="0 0 32 32" xmlns="http://www.w3.org/2000/svg" fill="none">
  <g transform="translate(-1728.000122 -1368)">
<path id="Vector 1009" d="M1738 1386L1746 1386L1746 1388L1738 1388L1738 1386ZM1738 1381L1750 1381L1750 1383L1738 1383L1738 1381ZM1738 1391L1743 1391L1743 1393L1738 1393L1738 1391Z" fill="currentColor" fill-rule="nonzero" />
		<path id="Vector 1010" d="M1753 1373L1750 1373L1750 1372C1750 1371.47 1749.79 1370.96 1749.41 1370.59C1749.04 1370.21 1748.53 1370 1748 1370L1740 1370C1739.47 1370 1738.96 1370.21 1738.59 1370.59C1738.21 1370.96 1738 1371.47 1738 1372L1738 1373L1735 1373C1734.47 1373 1733.96 1373.21 1733.59 1373.59C1733.21 1373.96 1733 1374.47 1733 1375L1733 1396C1733 1396.53 1733.21 1397.04 1733.59 1397.41C1733.96 1397.79 1734.47 1398 1735 1398L1753 1398C1753.53 1398 1754.04 1397.79 1754.41 1397.41C1754.79 1397.04 1755 1396.53 1755 1396L1755 1375C1755 1374.47 1754.79 1373.96 1754.41 1373.59C1754.04 1373.21 1753.53 1373 1753 1373ZM1740 1372L1748 1372L1748 1376L1740 1376L1740 1372ZM1753 1396L1735 1396L1735 1375L1738 1375L1738 1378L1750 1378L1750 1375L1753 1375L1753 1396Z" fill="currentColor" fill-rule="nonzero" />
  </g>
</svg>

