<svg viewBox="0 0 32 32" xmlns="http://www.w3.org/2000/svg" fill="none">
  <g transform="translate(-1656.000122 -1368)">
<path id="Vector 1007" d="M1686 1392L1686 1390L1683.9 1390C1683.8 1389.4 1683.5 1388.8 1683.2 1388.2L1684.7 1386.7L1683.3 1385.3L1681.8 1386.8C1681.3 1386.5 1680.7 1386.2 1680 1386.1L1680 1384L1678 1384L1678 1386.1C1677.4 1386.2 1676.8 1386.5 1676.2 1386.8L1674.7 1385.3L1673.3 1386.7L1674.8 1388.2C1674.5 1388.7 1674.2 1389.3 1674.1 1390L1672 1390L1672 1392L1674.1 1392C1674.2 1392.6 1674.5 1393.2 1674.8 1393.8L1673.3 1395.3L1674.7 1396.7L1676.2 1395.2C1676.7 1395.5 1677.3 1395.8 1678 1395.9L1678 1398L1680 1398L1680 1395.9C1680.6 1395.8 1681.2 1395.5 1681.8 1395.2L1683.3 1396.7L1684.7 1395.3L1683.2 1393.8C1683.5 1393.3 1683.8 1392.7 1683.9 1392L1686 1392ZM1679 1394C1677.3 1394 1676 1392.7 1676 1391C1676 1389.3 1677.3 1388 1679 1388C1680.7 1388 1682 1389.3 1682 1391C1682 1392.7 1680.7 1394 1679 1394Z" fill="currentColor" fill-rule="nonzero" />
		<path id="Vector 1008" d="M1684 1376L1672 1376L1668.6 1372.6C1668.2 1372.2 1667.7 1372 1667.2 1372L1660 1372C1658.9 1372 1658 1372.9 1658 1374L1658 1394C1658 1395.1 1658.9 1396 1660 1396L1670 1396L1670 1394L1660 1394L1660 1374L1667.2 1374L1670.6 1377.4L1671.2 1378L1684 1378L1684 1383L1686 1383L1686 1378C1686 1376.9 1685.1 1376 1684 1376Z" fill="currentColor" fill-rule="nonzero" />
  </g>
</svg>

