<svg viewBox="0 0 32 32" xmlns="http://www.w3.org/2000/svg" fill="none">
  <g transform="translate(-1872.000122 -1368)">
<path id="Vector 1013" d="M1895.6 1389.4L1899.2 1393L1895.6 1396.6L1897 1398L1902 1393L1897 1388L1895.6 1389.4ZM1892.4 1389.4L1888.8 1393L1892.4 1396.6L1891 1398L1886 1393L1891 1388L1892.4 1389.4Z" fill="currentColor" fill-rule="nonzero" />
		<path id="Vector 1014" d="M1900 1376L1888 1376L1884.6 1372.6C1884.2 1372.2 1883.7 1372 1883.2 1372L1876 1372C1874.9 1372 1874 1372.9 1874 1374L1874 1394C1874 1395.1 1874.9 1396 1876 1396L1883 1396L1883 1394L1876 1394L1876 1374L1883.2 1374L1886.6 1377.4L1887.2 1378L1900 1378L1900 1386L1902 1386L1902 1378C1902 1376.9 1901.1 1376 1900 1376Z" fill="currentColor" fill-rule="nonzero" />
  </g>
</svg>

