<svg viewBox="0 0 32 32" xmlns="http://www.w3.org/2000/svg" fill="none">
  <g transform="translate(-72 -1440)">
<path id="Vector 1019" d="M89.179 1457.5C89.179 1454.66 90.709 1452.82 93.339 1452.82C96.142 1452.82 97.431 1454.88 97.431 1457.34L97.431 1458.06L91.465 1458.06L91.465 1458.29C91.465 1459.58 92.205 1460.45 93.649 1460.45C94.732 1460.45 95.385 1459.94 95.936 1459.23L97.122 1460.56C96.382 1461.57 95.076 1462.21 93.408 1462.21C90.761 1462.21 89.178 1460.37 89.178 1457.5M91.465 1456.57L91.465 1456.7L95.144 1456.7L95.144 1456.55C95.144 1455.31 94.507 1454.47 93.373 1454.47C92.221 1454.47 91.465 1455.33 91.465 1456.57ZM81.27 1462L79 1462L79 1450L84.416 1450C86.599 1450 87.957 1451.44 87.957 1453.71C87.957 1455.36 87.201 1456.62 85.722 1457.12L88.181 1462L85.654 1462L83.419 1457.38L81.269 1457.38L81.27 1462ZM84.39 1455.47C85.268 1455.47 85.8 1454.99 85.8 1454.11L85.8 1453.32C85.8 1452.44 85.268 1451.98 84.39 1451.98L81.469 1451.98L81.469 1455.47L84.39 1455.47Z" fill="currentColor" fill-rule="nonzero" />
		<path id="Vector 1020" d="M93 1470L83 1470C78.037 1470 74 1465.96 74 1461L74 1451C74 1446.04 78.037 1442 83 1442L93 1442C97.963 1442 102 1446.04 102 1451L102 1461C102 1465.96 97.963 1470 93 1470ZM83 1444C79.14 1444 76 1447.14 76 1451L76 1461C76 1464.86 79.14 1468 83 1468L93 1468C96.86 1468 100 1464.86 100 1461L100 1451C100 1447.14 96.86 1444 93 1444L83 1444Z" fill="currentColor" fill-rule="nonzero" />
  </g>
</svg>

