<svg viewBox="0 0 32 32" xmlns="http://www.w3.org/2000/svg" fill="none">
  <g transform="translate(-0 -1440)">
<path id="Vector 1017" d="M17.179 1457.5C17.179 1454.66 18.709 1452.82 21.339 1452.82C24.142 1452.82 25.431 1454.88 25.431 1457.34L25.431 1458.06L19.465 1458.06L19.465 1458.29C19.465 1459.58 20.205 1460.45 21.649 1460.45C22.732 1460.45 23.385 1459.94 23.936 1459.23L25.122 1460.56C24.382 1461.57 23.076 1462.21 21.408 1462.21C18.761 1462.21 17.178 1460.37 17.178 1457.5M19.465 1456.57L19.465 1456.7L23.144 1456.7L23.144 1456.55C23.144 1455.31 22.507 1454.47 21.373 1454.47C20.221 1454.47 19.465 1455.33 19.465 1456.57ZM9.27 1462L7 1462L7 1450L12.416 1450C14.599 1450 15.957 1451.44 15.957 1453.71C15.957 1455.36 15.201 1456.62 13.722 1457.12L16.181 1462L13.654 1462L11.419 1457.38L9.269 1457.38L9.27 1462ZM12.39 1455.47C13.268 1455.47 13.8 1454.99 13.8 1454.11L13.8 1453.32C13.8 1452.44 13.268 1451.98 12.39 1451.98L9.469 1451.98L9.469 1455.47L12.39 1455.47Z" fill="currentColor" fill-rule="nonzero" />
		<path id="Vector 1018" d="M28 1470L4 1470C3.46957 1470 2.96086 1469.79 2.58579 1469.41C2.21071 1469.04 2 1468.53 2 1468L2 1444C2 1443.47 2.21071 1442.96 2.58579 1442.59C2.96086 1442.21 3.46957 1442 4 1442L28 1442C28.5304 1442 29.0391 1442.21 29.4142 1442.59C29.7893 1442.96 30 1443.47 30 1444L30 1468C30 1468.53 29.7893 1469.04 29.4142 1469.41C29.0391 1469.79 28.5304 1470 28 1470ZM4 1468L28 1468L28 1444L4 1444L4 1468Z" fill="currentColor" fill-rule="nonzero" />
  </g>
</svg>

