<svg viewBox="0 0 32 32" xmlns="http://www.w3.org/2000/svg" fill="none">
  <g transform="translate(-1944.000122 -1368)">
<path id="Vector 1015" d="M1966 1390L1966 1396L1950 1396L1950 1372L1960 1372L1960 1370L1950 1370C1949.47 1370 1948.96 1370.21 1948.59 1370.59C1948.21 1370.96 1948 1371.47 1948 1372L1948 1396C1948 1396.53 1948.21 1397.04 1948.59 1397.41C1948.96 1397.79 1949.47 1398 1950 1398L1966 1398C1966.53 1398 1967.04 1397.79 1967.41 1397.41C1967.79 1397.04 1968 1396.53 1968 1396L1968 1390L1966 1390Z" fill="currentColor" fill-rule="nonzero" />
		<path id="Vector 1016" d="M1973.54 1373.76L1970.24 1370.46C1969.94 1370.17 1969.54 1370 1969.12 1370C1968.7 1370 1968.3 1370.17 1968 1370.46L1954 1384.46L1954 1390L1959.53 1390L1973.53 1376C1973.82 1375.7 1973.99 1375.3 1973.99 1374.88C1973.99 1374.46 1973.82 1374.06 1973.53 1373.76L1973.54 1373.76ZM1958.7 1388L1956 1388L1956 1385.3L1965.44 1375.85L1968.15 1378.56L1958.7 1388ZM1969.56 1377.15L1966.85 1374.44L1969.12 1372.17L1971.83 1374.88L1969.56 1377.15Z" fill="currentColor" fill-rule="nonzero" />
  </g>
</svg>

