<svg viewBox="0 0 32 32" xmlns="http://www.w3.org/2000/svg" fill="none">
  <g transform="translate(-144 -1440)">
<path id="Vector 1021" d="M162 1468C164.373 1468 166.693 1467.3 168.667 1465.98C170.64 1464.66 172.178 1462.78 173.087 1460.59C173.995 1458.4 174.232 1455.99 173.769 1453.66C173.306 1451.33 172.163 1449.19 170.485 1447.51C168.807 1445.84 166.669 1444.69 164.341 1444.23C162.013 1443.77 159.6 1444.01 157.408 1444.91C155.215 1445.82 153.341 1447.36 152.022 1449.33C150.704 1451.31 150 1453.63 150 1456L150 1462.2L146.4 1458.6L145 1460L151 1466L157 1460L155.6 1458.6L152 1462.2L152 1456C152 1454.02 152.586 1452.09 153.685 1450.44C154.784 1448.8 156.346 1447.52 158.173 1446.76C160 1446 162.011 1445.81 163.951 1446.19C165.891 1446.58 167.673 1447.53 169.071 1448.93C170.47 1450.33 171.422 1452.11 171.808 1454.05C172.194 1455.99 171.996 1458 171.239 1459.83C170.482 1461.65 169.2 1463.22 167.556 1464.31C165.911 1465.41 163.978 1466 162 1466L162 1468Z" fill="currentColor" fill-rule="nonzero" />
  </g>
</svg>

