<svg viewBox="0 0 32 32" xmlns="http://www.w3.org/2000/svg" fill="none">
  <g transform="translate(-216 -1440)">
<path id="Vector 1022" d="M243 1448L222.83 1448L226.41 1444.41L225 1443L219 1449L225 1455L226.41 1453.59L222.83 1450L243 1450L243 1466L223 1466L223 1459L221 1459L221 1466C221 1466.53 221.211 1467.04 221.586 1467.41C221.961 1467.79 222.47 1468 223 1468L243 1468C243.53 1468 244.039 1467.79 244.414 1467.41C244.789 1467.04 245 1466.53 245 1466L245 1450C245 1449.47 244.789 1448.96 244.414 1448.59C244.039 1448.21 243.53 1448 243 1448Z" fill="currentColor" fill-rule="nonzero" />
  </g>
</svg>

