<svg viewBox="0 0 32 32" xmlns="http://www.w3.org/2000/svg" fill="none">
  <g transform="translate(-360 -1440)">
<path id="Vector 1024" d="M369 1442L371 1442L371 1452L369 1452L369 1442Z" fill="currentColor" fill-rule="nonzero" />
		<path id="Vector 1025" d="M374 1451C374 1452.06 373.579 1453.08 372.828 1453.83C372.078 1454.58 371.061 1455 370 1455C368.939 1455 367.922 1454.58 367.172 1453.83C366.421 1453.08 366 1452.06 366 1451L366 1442L364 1442L364 1451C364.001 1452.42 364.504 1453.79 365.419 1454.87C366.335 1455.95 367.603 1456.67 369 1456.91L369 1470L371 1470L371 1456.91C372.397 1456.67 373.665 1455.95 374.581 1454.87C375.496 1453.79 375.999 1452.42 376 1451L376 1442L374 1442L374 1451ZM382 1442L381 1442L381 1470L383 1470L383 1460L386 1460C386.53 1460 387.039 1459.79 387.414 1459.41C387.789 1459.04 388 1458.53 388 1458L388 1448C388.031 1447.2 387.897 1446.41 387.606 1445.67C387.316 1444.93 386.875 1444.25 386.311 1443.69C385.748 1443.13 385.074 1442.68 384.332 1442.39C383.59 1442.1 382.796 1441.97 382 1442ZM386 1458L383 1458L383 1444.09C385.88 1444.65 386 1447.63 386 1448L386 1458Z" fill="currentColor" fill-rule="nonzero" />
  </g>
</svg>

