<svg viewBox="0 0 32 32" xmlns="http://www.w3.org/2000/svg" fill="none">
  <g transform="translate(-432 -1440)">
<path id="Vector 1026" d="M462 1451L462 1443C462 1442.73 461.895 1442.48 461.707 1442.29C461.52 1442.11 461.265 1442 461 1442L451 1442C450.735 1442 450.48 1442.11 450.293 1442.29C450.105 1442.48 450 1442.73 450 1443L450 1451C450.002 1452.42 450.505 1453.79 451.42 1454.87C452.335 1455.95 453.603 1456.67 455 1456.91L455 1468L451 1468L451 1470L461 1470L461 1468L457 1468L457 1456.91C458.397 1456.67 459.665 1455.95 460.58 1454.87C461.495 1453.79 461.998 1452.42 462 1451ZM452 1451L452 1444L460 1444L460 1451C460 1452.06 459.579 1453.08 458.828 1453.83C458.078 1454.58 457.061 1455 456 1455C454.939 1455 453.922 1454.58 453.172 1453.83C452.421 1453.08 452 1452.06 452 1451ZM444 1442L444 1451.02C443.999 1452.07 443.581 1453.08 442.839 1453.82C442.097 1454.56 441.09 1454.98 440.04 1454.98C438.98 1454.99 437.959 1454.58 437.201 1453.84C436.444 1453.09 436.012 1452.08 436 1451.02L436 1442L434 1442L434 1451.02C434.01 1452.43 434.517 1453.79 435.431 1454.86C436.346 1455.94 437.61 1456.65 439 1456.89L439 1470L441 1470L441 1456.9C442.394 1456.67 443.662 1455.95 444.578 1454.87C445.493 1453.8 445.997 1452.43 446 1451.02L446 1442L444 1442Z" fill="currentColor" fill-rule="nonzero" />
		<path id="Vector 1027" d="M439 1442L441 1442L441 1451.98L439 1451.98L439 1442Z" fill="currentColor" fill-rule="nonzero" />
  </g>
</svg>

