<svg viewBox="0 0 32 32" xmlns="http://www.w3.org/2000/svg" fill="none">
  <g transform="translate(-288 -1440)">
<path id="Vector 1023" d="M314 1458C314 1459.98 313.414 1461.91 312.315 1463.56C311.216 1465.2 309.654 1466.48 307.827 1467.24C306 1468 303.989 1468.19 302.049 1467.81C300.109 1467.42 298.328 1466.47 296.929 1465.07C295.53 1463.67 294.578 1461.89 294.192 1459.95C293.806 1458.01 294.004 1456 294.761 1454.17C295.518 1452.35 296.8 1450.78 298.444 1449.69C300.089 1448.59 302.022 1448 304 1448L310.182 1448L306.598 1451.58L308 1453L314 1447L308 1441L306.598 1442.41L310.185 1446L304 1446C301.627 1446 299.307 1446.7 297.333 1448.02C295.36 1449.34 293.822 1451.22 292.913 1453.41C292.005 1455.6 291.768 1458.01 292.231 1460.34C292.694 1462.67 293.836 1464.81 295.515 1466.49C297.193 1468.16 299.331 1469.31 301.659 1469.77C303.987 1470.23 306.4 1469.99 308.592 1469.09C310.785 1468.18 312.659 1466.64 313.978 1464.67C315.296 1462.69 316 1460.37 316 1458L314 1458Z" fill="currentColor" fill-rule="nonzero" />
  </g>
</svg>

