<svg viewBox="0 0 32 32" xmlns="http://www.w3.org/2000/svg" fill="none">
  <g transform="translate(-504 -1440)">
<path id="Vector 1028" d="M518 1463L526 1463L526 1465L518 1465L518 1463ZM514 1463L516 1463L516 1465L514 1465L514 1463ZM518 1458L526 1458L526 1460L518 1460L518 1458ZM514 1458L516 1458L516 1460L514 1460L514 1458ZM518 1453L526 1453L526 1455L518 1455L518 1453ZM514 1453L516 1453L516 1455L514 1455L514 1453Z" fill="currentColor" fill-rule="nonzero" />
		<path id="Vector 1029" d="M529 1445L526 1445L526 1444C526 1443.47 525.789 1442.96 525.414 1442.59C525.039 1442.21 524.53 1442 524 1442L516 1442C515.47 1442 514.961 1442.21 514.586 1442.59C514.211 1442.96 514 1443.47 514 1444L514 1445L511 1445C510.47 1445 509.961 1445.21 509.586 1445.59C509.211 1445.96 509 1446.47 509 1447L509 1468C509 1468.53 509.211 1469.04 509.586 1469.41C509.961 1469.79 510.47 1470 511 1470L529 1470C529.53 1470 530.039 1469.79 530.414 1469.41C530.789 1469.04 531 1468.53 531 1468L531 1447C531 1446.47 530.789 1445.96 530.414 1445.59C530.039 1445.21 529.53 1445 529 1445ZM516 1444L524 1444L524 1448L516 1448L516 1444ZM529 1468L511 1468L511 1447L514 1447L514 1450L526 1450L526 1447L529 1447L529 1468Z" fill="currentColor" fill-rule="nonzero" />
  </g>
</svg>

