<svg viewBox="0 0 32 32" xmlns="http://www.w3.org/2000/svg" fill="none">
  <g transform="translate(-576 -1440)">
<path id="Vector 1030" d="M605.7 1459.3L602.7 1456.3C602.3 1455.9 601.7 1455.9 601.3 1456.3L592 1465.6L592 1470L596.4 1470L605.7 1460.7C606.1 1460.3 606.1 1459.7 605.7 1459.3ZM595.6 1468L594 1468L594 1466.4L599 1461.4L600.6 1463L595.6 1468ZM602 1461.6L600.4 1460L602 1458.4L603.6 1460L602 1461.6ZM586 1463L588 1463L588 1465L586 1465L586 1463ZM590 1458L594 1458L594 1460L590 1460L590 1458ZM586 1458L588 1458L588 1460L586 1460L586 1458ZM590 1453L598 1453L598 1455L590 1455L590 1453ZM586 1453L588 1453L588 1455L586 1455L586 1453Z" fill="currentColor" fill-rule="nonzero" />
		<path id="Vector 1031" d="M583 1468L583 1447L586 1447L586 1450L598 1450L598 1447L601 1447L601 1453L603 1453L603 1447C603 1445.9 602.1 1445 601 1445L598 1445L598 1444C598 1442.9 597.1 1442 596 1442L588 1442C586.9 1442 586 1442.9 586 1444L586 1445L583 1445C581.9 1445 581 1445.9 581 1447L581 1468C581 1469.1 581.9 1470 583 1470L588 1470L588 1468L583 1468ZM588 1444L596 1444L596 1448L588 1448L588 1444Z" fill="currentColor" fill-rule="nonzero" />
  </g>
</svg>

