<svg viewBox="0 0 32 32" xmlns="http://www.w3.org/2000/svg" fill="none">
  <g transform="translate(-648 -1440)">
<path id="Vector 1032" d="M674 1470C676.209 1470 678 1468.21 678 1466C678 1463.79 676.209 1462 674 1462C671.791 1462 670 1463.79 670 1466C670 1468.21 671.791 1470 674 1470Z" fill="currentColor" fill-rule="nonzero" />
		<path id="Vector 1033" d="M658 1453L660 1453L660 1455L658 1455L658 1453ZM658 1458L660 1458L660 1460L658 1460L658 1458ZM658 1463L660 1463L660 1465L658 1465L658 1463ZM662 1453L670 1453L670 1455L662 1455L662 1453ZM662 1458L670 1458L670 1460L662 1460L662 1458ZM662 1463L666 1463L666 1465L662 1465L662 1463Z" fill="currentColor" fill-rule="nonzero" />
		<path id="Vector 1034" d="M655 1468L655 1447L658 1447L658 1450L670 1450L670 1447L673 1447L673 1458L675 1458L675 1447C675 1446.47 674.789 1445.96 674.414 1445.59C674.039 1445.21 673.53 1445 673 1445L670 1445L670 1444C670 1443.47 669.789 1442.96 669.414 1442.59C669.039 1442.21 668.53 1442 668 1442L660 1442C659.47 1442 658.961 1442.21 658.586 1442.59C658.211 1442.96 658 1443.47 658 1444L658 1445L655 1445C654.47 1445 653.961 1445.21 653.586 1445.59C653.211 1445.96 653 1446.47 653 1447L653 1468C653 1468.53 653.211 1469.04 653.586 1469.41C653.961 1469.79 654.47 1470 655 1470L666 1470L666 1468L655 1468ZM660 1444L668 1444L668 1448L660 1448L660 1444Z" fill="currentColor" fill-rule="nonzero" />
  </g>
</svg>

