<svg viewBox="0 0 32 32" xmlns="http://www.w3.org/2000/svg" fill="none">
  <g transform="translate(-720 -1440)">
<path id="Vector 1035" d="M730 1453L732 1453L732 1455L730 1455L730 1453ZM734 1453L742 1453L742 1455L734 1455L734 1453ZM730 1458L732 1458L732 1460L730 1460L730 1458ZM730 1463L732 1463L732 1465L730 1465L730 1463Z" fill="currentColor" fill-rule="nonzero" />
		<path id="Vector 1036" d="M727 1468L727 1447L730 1447L730 1450L742 1450L742 1447L745 1447L745 1455L747 1455L747 1447C747 1446.47 746.789 1445.96 746.414 1445.59C746.039 1445.21 745.53 1445 745 1445L742 1445L742 1444C742 1443.47 741.789 1442.96 741.414 1442.59C741.039 1442.21 740.53 1442 740 1442L732 1442C731.47 1442 730.961 1442.21 730.586 1442.59C730.211 1442.96 730 1443.47 730 1444L730 1445L727 1445C726.47 1445 725.961 1445.21 725.586 1445.59C725.211 1445.96 725 1446.47 725 1447L725 1468C725 1468.53 725.211 1469.04 725.586 1469.41C725.961 1469.79 726.47 1470 727 1470L736 1470L736 1468L727 1468ZM732 1444L740 1444L740 1448L732 1448L732 1444Z" fill="currentColor" fill-rule="nonzero" />
		<path id="Vector 1037" d="M738 1459L738 1461.41C738.628 1460.36 739.521 1459.5 740.589 1458.9C741.656 1458.3 742.862 1457.99 744.086 1458.01C745.31 1458.02 746.508 1458.36 747.562 1458.98C748.615 1459.6 749.487 1460.49 750.091 1461.55C750.694 1462.62 751.007 1463.82 751 1465.05C750.992 1466.27 750.664 1467.47 750.048 1468.53C749.431 1469.59 748.549 1470.46 747.487 1471.07C746.426 1471.68 745.224 1472 744 1472L744 1470C744.902 1470 745.787 1469.76 746.562 1469.3C747.337 1468.84 747.973 1468.17 748.403 1467.38C748.832 1466.59 749.039 1465.7 749.002 1464.79C748.965 1463.89 748.685 1463.02 748.192 1462.26C747.698 1461.51 747.01 1460.9 746.2 1460.51C745.389 1460.11 744.487 1459.94 743.588 1460.02C742.69 1460.09 741.828 1460.41 741.095 1460.94C740.362 1461.46 739.785 1462.17 739.424 1463L742 1463L742 1465L736 1465L736 1459L738 1459Z" fill="currentColor" fill-rule="nonzero" />
  </g>
</svg>

