<svg viewBox="0 0 32 32" xmlns="http://www.w3.org/2000/svg" fill="none">
  <g transform="translate(-792 -1440)">
<path id="Vector 1038" d="M818.41 1465L822 1461.41L820.59 1460L817 1463.59L813.41 1460L812 1461.41L815.59 1465L812 1468.59L813.41 1470L817 1466.41L820.59 1470L822 1468.59L818.41 1465ZM810 1442C806.82 1442.01 803.773 1443.28 801.525 1445.52C799.276 1447.77 798.009 1450.82 798 1454L798 1460.2L794.4 1456.6L793 1458L799 1464L805 1458L803.6 1456.6L800 1460.2L800 1454C800 1451.35 801.054 1448.8 802.929 1446.93C804.804 1445.05 807.348 1444 810 1444C812.652 1444 815.196 1445.05 817.071 1446.93C818.946 1448.8 820 1451.35 820 1454L820 1457L822 1457L822 1454C821.991 1450.82 820.724 1447.77 818.475 1445.52C816.227 1443.28 813.18 1442.01 810 1442Z" fill="currentColor" fill-rule="nonzero" />
  </g>
</svg>

