<svg viewBox="0 0 32 32" xmlns="http://www.w3.org/2000/svg" fill="none">
  <g transform="translate(-936 -1440)">
<path id="Vector 1040" d="M952 1448L953.912 1451.7L958 1452.3L955 1455L956 1459L952 1456.75L948 1459L949 1455L946 1452.3L950.2 1451.7L952 1448Z" fill="currentColor" fill-rule="nonzero" />
		<path id="Vector 1041" d="M953.736 1470L952 1469L956 1462L962 1462C962.263 1462 962.523 1461.95 962.766 1461.85C963.009 1461.75 963.229 1461.6 963.415 1461.42C963.601 1461.23 963.748 1461.01 963.849 1460.77C963.949 1460.52 964 1460.26 964 1460L964 1448C964 1447.74 963.949 1447.48 963.849 1447.23C963.748 1446.99 963.601 1446.77 963.415 1446.58C963.229 1446.4 963.009 1446.25 962.766 1446.15C962.523 1446.05 962.263 1446 962 1446L942 1446C941.737 1446 941.477 1446.05 941.234 1446.15C940.991 1446.25 940.771 1446.4 940.585 1446.58C940.399 1446.77 940.252 1446.99 940.151 1447.23C940.051 1447.48 940 1447.74 940 1448L940 1460C940 1460.26 940.051 1460.52 940.151 1460.77C940.252 1461.01 940.399 1461.23 940.585 1461.42C940.771 1461.6 940.991 1461.75 941.234 1461.85C941.477 1461.95 941.737 1462 942 1462L951 1462L951 1464L942 1464C940.939 1464 939.922 1463.58 939.172 1462.83C938.421 1462.08 938 1461.06 938 1460L938 1448C938 1446.94 938.421 1445.92 939.172 1445.17C939.922 1444.42 940.939 1444 942 1444L962 1444C963.061 1444 964.078 1444.42 964.828 1445.17C965.579 1445.92 966 1446.94 966 1448L966 1460C966 1461.06 965.579 1462.08 964.828 1462.83C964.078 1463.58 963.061 1464 962 1464L957.165 1464L953.736 1470Z" fill="currentColor" fill-rule="nonzero" />
  </g>
</svg>

