<svg viewBox="0 0 32 32" xmlns="http://www.w3.org/2000/svg" fill="none">
  <g transform="translate(-1152 -1440)">
<path id="Vector 1046" d="M1156 1458C1156 1460.37 1156.7 1462.69 1158.02 1464.67C1159.34 1466.64 1161.22 1468.18 1163.41 1469.09C1165.6 1469.99 1168.01 1470.23 1170.34 1469.77C1172.67 1469.31 1174.81 1468.16 1176.49 1466.49C1178.16 1464.81 1179.31 1462.67 1179.77 1460.34C1180.23 1458.01 1179.99 1455.6 1179.09 1453.41C1178.18 1451.22 1176.64 1449.34 1174.67 1448.02C1172.69 1446.7 1170.37 1446 1168 1446L1164 1446L1164 1441L1158 1447L1164 1453L1164 1448L1168 1448C1169.98 1448 1171.91 1448.59 1173.56 1449.69C1175.2 1450.78 1176.48 1452.35 1177.24 1454.17C1178 1456 1178.19 1458.01 1177.81 1459.95C1177.42 1461.89 1176.47 1463.67 1175.07 1465.07C1173.67 1466.47 1171.89 1467.42 1169.95 1467.81C1168.01 1468.19 1166 1468 1164.17 1467.24C1162.35 1466.48 1160.78 1465.2 1159.69 1463.56C1158.59 1461.91 1158 1459.98 1158 1458L1156 1458Z" fill="currentColor" fill-rule="nonzero" />
		<path id="Vector 1047" d="M1171.64 1462.13C1171.2 1462.14 1170.76 1462.05 1170.36 1461.86C1170 1461.68 1169.7 1461.42 1169.47 1461.09C1169.23 1460.71 1169.07 1460.28 1169 1459.84C1168.88 1459.29 1168.82 1458.72 1168.83 1458.16C1168.82 1457.6 1168.88 1457.03 1169 1456.48C1169.09 1456.03 1169.27 1455.61 1169.52 1455.23C1169.75 1454.9 1170.05 1454.64 1170.41 1454.46C1170.81 1454.27 1171.25 1454.18 1171.69 1454.19C1172.11 1454.16 1172.52 1454.23 1172.9 1454.41C1173.28 1454.58 1173.61 1454.85 1173.85 1455.19C1174.36 1456.08 1174.6 1457.1 1174.55 1458.12C1174.6 1459.14 1174.36 1460.16 1173.85 1461.05C1173.61 1461.41 1173.28 1461.7 1172.89 1461.89C1172.5 1462.08 1172.07 1462.16 1171.64 1462.13ZM1171.64 1460.91C1171.84 1460.93 1172.05 1460.89 1172.23 1460.79C1172.4 1460.69 1172.55 1460.54 1172.64 1460.36C1172.86 1459.89 1172.96 1459.37 1172.94 1458.85L1172.94 1457.47C1172.96 1456.95 1172.86 1456.44 1172.64 1455.97C1172.53 1455.8 1172.38 1455.66 1172.2 1455.56C1172.02 1455.46 1171.82 1455.41 1171.61 1455.41C1171.41 1455.41 1171.21 1455.46 1171.03 1455.56C1170.85 1455.66 1170.7 1455.8 1170.59 1455.97C1170.37 1456.44 1170.27 1456.95 1170.3 1457.47L1170.3 1458.85C1170.27 1459.37 1170.37 1459.89 1170.59 1460.36C1170.68 1460.55 1170.84 1460.71 1171.02 1460.81C1171.21 1460.91 1171.43 1460.94 1171.64 1460.91ZM1164.62 1457.42C1164.98 1457.46 1165.33 1457.36 1165.62 1457.15C1165.72 1457.07 1165.8 1456.96 1165.85 1456.85C1165.91 1456.73 1165.93 1456.6 1165.93 1456.47L1165.93 1456.39C1165.94 1456.25 1165.91 1456.11 1165.86 1455.99C1165.81 1455.86 1165.73 1455.74 1165.63 1455.65C1165.4 1455.46 1165.1 1455.36 1164.8 1455.38C1164.49 1455.37 1164.18 1455.46 1163.91 1455.62C1163.63 1455.79 1163.4 1456.02 1163.23 1456.3L1162.3 1455.47C1162.44 1455.29 1162.58 1455.12 1162.74 1454.96C1162.9 1454.8 1163.08 1454.67 1163.28 1454.56C1163.5 1454.44 1163.73 1454.35 1163.98 1454.29C1164.26 1454.22 1164.56 1454.18 1164.85 1454.19C1165.21 1454.19 1165.56 1454.24 1165.91 1454.33C1166.21 1454.41 1166.49 1454.54 1166.73 1454.73C1166.95 1454.9 1167.14 1455.11 1167.27 1455.36C1167.39 1455.62 1167.45 1455.9 1167.45 1456.19C1167.45 1456.42 1167.41 1456.64 1167.34 1456.86C1167.26 1457.05 1167.16 1457.23 1167.02 1457.38C1166.88 1457.53 1166.73 1457.65 1166.55 1457.74C1166.37 1457.83 1166.18 1457.9 1165.98 1457.94L1165.98 1458C1166.2 1458.04 1166.41 1458.11 1166.61 1458.21C1166.8 1458.3 1166.98 1458.43 1167.12 1458.59C1167.26 1458.75 1167.38 1458.94 1167.46 1459.14C1167.54 1459.37 1167.58 1459.62 1167.58 1459.87C1167.59 1460.19 1167.52 1460.5 1167.38 1460.79C1167.25 1461.07 1167.05 1461.32 1166.8 1461.51C1166.53 1461.71 1166.23 1461.87 1165.91 1461.96C1165.54 1462.07 1165.15 1462.13 1164.76 1462.12C1164.42 1462.13 1164.09 1462.09 1163.76 1462.01C1163.49 1461.94 1163.24 1461.84 1163 1461.7C1162.79 1461.57 1162.61 1461.42 1162.44 1461.25C1162.28 1461.08 1162.13 1460.9 1162 1460.7L1163.07 1459.89C1163.15 1460.04 1163.24 1460.18 1163.35 1460.31C1163.46 1460.44 1163.58 1460.55 1163.71 1460.65C1163.85 1460.75 1164 1460.82 1164.16 1460.87C1164.35 1460.92 1164.54 1460.94 1164.73 1460.94C1165.09 1460.97 1165.45 1460.86 1165.73 1460.64C1165.84 1460.53 1165.93 1460.4 1165.99 1460.25C1166.05 1460.1 1166.08 1459.95 1166.07 1459.79L1166.07 1459.71C1166.07 1459.56 1166.04 1459.41 1165.98 1459.27C1165.91 1459.13 1165.82 1459.01 1165.7 1458.91C1165.38 1458.71 1165.01 1458.61 1164.64 1458.63L1163.88 1458.63L1163.88 1457.42L1164.62 1457.42Z" fill="currentColor" fill-rule="nonzero" />
  </g>
</svg>

