<svg viewBox="0 0 32 32" xmlns="http://www.w3.org/2000/svg" fill="none">
  <g transform="translate(-1080 -1440)">
<path id="Vector 1044" d="M1084 1458C1084 1460.37 1084.7 1462.69 1086.02 1464.67C1087.34 1466.64 1089.22 1468.18 1091.41 1469.09C1093.6 1469.99 1096.01 1470.23 1098.34 1469.77C1100.67 1469.31 1102.81 1468.16 1104.49 1466.49C1106.16 1464.81 1107.31 1462.67 1107.77 1460.34C1108.23 1458.01 1107.99 1455.6 1107.09 1453.41C1106.18 1451.22 1104.64 1449.34 1102.67 1448.02C1100.69 1446.7 1098.37 1446 1096 1446L1092 1446L1092 1441L1086 1447L1092 1453L1092 1448L1096 1448C1097.98 1448 1099.91 1448.59 1101.56 1449.69C1103.2 1450.78 1104.48 1452.35 1105.24 1454.17C1106 1456 1106.19 1458.01 1105.81 1459.95C1105.42 1461.89 1104.47 1463.67 1103.07 1465.07C1101.67 1466.47 1099.89 1467.42 1097.95 1467.81C1096.01 1468.19 1094 1468 1092.17 1467.24C1090.35 1466.48 1088.78 1465.2 1087.69 1463.56C1086.59 1461.91 1086 1459.98 1086 1458L1084 1458Z" fill="currentColor" fill-rule="nonzero" />
		<path id="Vector 1045" d="M1099.63 1462.13C1099.19 1462.14 1098.75 1462.05 1098.35 1461.86C1097.99 1461.68 1097.69 1461.42 1097.46 1461.09C1097.21 1460.71 1097.03 1460.29 1096.94 1459.84C1096.82 1459.29 1096.76 1458.72 1096.77 1458.16C1096.77 1457.6 1096.82 1457.03 1096.94 1456.48C1097.03 1456.04 1097.21 1455.61 1097.46 1455.23C1097.69 1454.9 1097.99 1454.64 1098.35 1454.46C1098.75 1454.27 1099.19 1454.18 1099.63 1454.19C1100.05 1454.16 1100.46 1454.23 1100.84 1454.41C1101.22 1454.58 1101.55 1454.85 1101.79 1455.19C1102.31 1456.08 1102.55 1457.1 1102.49 1458.12C1102.55 1459.14 1102.31 1460.16 1101.79 1461.05C1101.55 1461.4 1101.23 1461.69 1100.85 1461.88C1100.47 1462.07 1100.05 1462.15 1099.63 1462.13ZM1099.63 1460.91C1099.83 1460.92 1100.03 1460.88 1100.21 1460.78C1100.39 1460.68 1100.53 1460.54 1100.63 1460.36C1100.87 1459.89 1100.99 1459.38 1101 1458.85L1101 1457.47C1101.02 1456.95 1100.92 1456.44 1100.71 1455.97C1100.6 1455.8 1100.45 1455.66 1100.27 1455.56C1100.09 1455.46 1099.88 1455.41 1099.68 1455.41C1099.48 1455.41 1099.27 1455.46 1099.09 1455.56C1098.91 1455.66 1098.76 1455.8 1098.65 1455.97C1098.44 1456.44 1098.34 1456.95 1098.36 1457.47L1098.36 1458.85C1098.34 1459.37 1098.44 1459.89 1098.65 1460.36C1098.75 1460.53 1098.89 1460.68 1099.06 1460.78C1099.23 1460.87 1099.43 1460.92 1099.63 1460.91ZM1090.63 1462L1090.63 1460.82L1092.63 1460.82L1092.63 1455.63L1090.77 1456.63L1090.22 1455.57L1092.54 1454.27L1094 1454.27L1094 1460.77L1095.78 1460.77L1095.78 1462L1090.63 1462Z" fill="currentColor" fill-rule="nonzero" />
  </g>
</svg>

