<svg viewBox="0 0 32 32" xmlns="http://www.w3.org/2000/svg" fill="none">
  <g transform="translate(-1008 -1440)">
<path id="Vector 1042" d="M1012 1458C1012 1460.37 1012.7 1462.69 1014.02 1464.67C1015.34 1466.64 1017.22 1468.18 1019.41 1469.09C1021.6 1469.99 1024.01 1470.23 1026.34 1469.77C1028.67 1469.31 1030.81 1468.16 1032.49 1466.49C1034.16 1464.81 1035.31 1462.67 1035.77 1460.34C1036.23 1458.01 1035.99 1455.6 1035.09 1453.41C1034.18 1451.22 1032.64 1449.34 1030.67 1448.02C1028.69 1446.7 1026.37 1446 1024 1446L1020 1446L1020 1441L1014 1447L1020 1453L1020 1448L1024 1448C1025.98 1448 1027.91 1448.59 1029.56 1449.69C1031.2 1450.78 1032.48 1452.35 1033.24 1454.17C1034 1456 1034.19 1458.01 1033.81 1459.95C1033.42 1461.89 1032.47 1463.67 1031.07 1465.07C1029.67 1466.47 1027.89 1467.42 1025.95 1467.81C1024.01 1468.19 1022 1468 1020.17 1467.24C1018.35 1466.48 1016.78 1465.2 1015.69 1463.56C1014.59 1461.91 1014 1459.98 1014 1458L1012 1458Z" fill="currentColor" fill-rule="nonzero" />
		<path id="Vector 1043" d="M1026.58 1455.58L1023.13 1455.58L1023 1458.15C1023.08 1458 1023.17 1457.85 1023.26 1457.7C1023.35 1457.57 1023.46 1457.45 1023.59 1457.35C1023.72 1457.25 1023.87 1457.17 1024.03 1457.12C1024.22 1457.06 1024.43 1457.04 1024.63 1457.04C1024.94 1457.03 1025.26 1457.09 1025.55 1457.2C1025.83 1457.31 1026.08 1457.47 1026.29 1457.68C1026.51 1457.9 1026.68 1458.16 1026.79 1458.45C1026.91 1458.77 1026.97 1459.11 1026.97 1459.45C1026.97 1459.82 1026.91 1460.18 1026.78 1460.52C1026.66 1460.84 1026.47 1461.12 1026.23 1461.36C1025.98 1461.61 1025.67 1461.79 1025.34 1461.91C1024.95 1462.05 1024.54 1462.12 1024.13 1462.11C1023.81 1462.11 1023.5 1462.08 1023.19 1462C1022.93 1461.93 1022.68 1461.82 1022.45 1461.68C1022.25 1461.56 1022.06 1461.41 1021.9 1461.23C1021.75 1461.06 1021.61 1460.87 1021.49 1460.68L1022.55 1459.87L1022.82 1460.28C1022.92 1460.41 1023.03 1460.52 1023.16 1460.62C1023.29 1460.71 1023.44 1460.79 1023.59 1460.84C1023.77 1460.9 1023.95 1460.93 1024.14 1460.92C1024.32 1460.93 1024.51 1460.91 1024.68 1460.85C1024.85 1460.78 1025.01 1460.69 1025.14 1460.56C1025.38 1460.28 1025.49 1459.92 1025.47 1459.56L1025.47 1459.5C1025.48 1459.33 1025.46 1459.16 1025.4 1459C1025.34 1458.83 1025.25 1458.69 1025.12 1458.57C1025 1458.45 1024.86 1458.35 1024.69 1458.3C1024.53 1458.24 1024.36 1458.21 1024.19 1458.23C1023.92 1458.22 1023.65 1458.28 1023.42 1458.41C1023.24 1458.51 1023.08 1458.65 1022.94 1458.8L1021.75 1458.63L1022.04 1454.32L1026.56 1454.32L1026.58 1455.58Z" fill="currentColor" fill-rule="nonzero" />
  </g>
</svg>

