<svg viewBox="0 0 32 32" xmlns="http://www.w3.org/2000/svg" fill="none">
  <g transform="translate(-1224 -1440)">
<path id="Vector 1048" d="M1244.5 1456L1247 1461L1245 1461L1243.5 1458L1242 1461L1240 1461L1242.5 1456L1240 1451L1242 1451L1243.5 1454L1245 1451L1247 1451L1244.5 1456ZM1256 1451L1254 1451L1252.5 1454L1251 1451L1249 1451L1251.5 1456L1249 1461L1251 1461L1252.5 1458L1254 1461L1256 1461L1253.5 1456L1256 1451ZM1238 1452.98L1238 1451L1232 1451L1232 1460.98L1238 1460.98L1238 1458.98L1234 1458.98L1234 1456.98L1236 1456.98L1236 1454.98L1234 1454.98L1234 1452.98L1238 1452.98ZM1230 1453L1230 1455C1230 1456 1229.3 1456.8 1228.4 1457L1230 1461L1228 1461L1226.4 1457L1226 1457L1226 1461L1224 1461L1224 1451L1228 1451C1229.1 1451 1230 1451.9 1230 1453ZM1228 1453L1226 1453L1226 1455L1228 1455L1228 1453Z" fill="currentColor" fill-rule="nonzero" />
  </g>
</svg>

