<svg viewBox="0 0 32 32" xmlns="http://www.w3.org/2000/svg" fill="none">
  <g transform="translate(-1512.000122 -1440)">
<path id="Vector 1052" d="M1514 1446L1514 1466C1514 1466.53 1514.21 1467.04 1514.59 1467.41C1514.96 1467.79 1515.47 1468 1516 1468L1540 1468C1540.53 1468 1541.04 1467.79 1541.41 1467.41C1541.79 1467.04 1542 1466.53 1542 1466L1542 1446C1542 1445.47 1541.79 1444.96 1541.41 1444.59C1541.04 1444.21 1540.53 1444 1540 1444L1516 1444C1515.47 1444 1514.96 1444.21 1514.59 1444.59C1514.21 1444.96 1514 1445.47 1514 1446ZM1516 1446L1532 1446L1532 1455L1521.83 1455L1525.41 1451.41L1524 1450L1518 1456L1524 1462L1525.41 1460.59L1521.83 1457L1532 1457L1532 1466L1516 1466L1516 1446Z" fill="currentColor" fill-rule="nonzero" />
  </g>
</svg>

