<svg viewBox="0 0 32 32" xmlns="http://www.w3.org/2000/svg" fill="none">
  <g transform="translate(-1440.000122 -1440)">
<path id="Vector 1051" d="M1442 1446L1442 1466C1442 1466.53 1442.21 1467.04 1442.59 1467.41C1442.96 1467.79 1443.47 1468 1444 1468L1468 1468C1468.53 1468 1469.04 1467.79 1469.41 1467.41C1469.79 1467.04 1470 1466.53 1470 1466L1470 1446C1470 1445.47 1469.79 1444.96 1469.41 1444.59C1469.04 1444.21 1468.53 1444 1468 1444L1444 1444C1443.47 1444 1442.96 1444.21 1442.59 1444.59C1442.21 1444.96 1442 1445.47 1442 1446ZM1462 1446L1468 1446L1468 1466L1462 1466L1462 1446ZM1444 1446L1460 1446L1460 1455L1449.83 1455L1453.41 1451.41L1452 1450L1446 1456L1452 1462L1453.41 1460.59L1449.83 1457L1460 1457L1460 1466L1444 1466L1444 1446Z" fill="currentColor" fill-rule="nonzero" />
  </g>
</svg>

