<svg viewBox="0 0 32 32" xmlns="http://www.w3.org/2000/svg" fill="none">
  <g transform="translate(-1368.000122 -1440)">
<path id="Vector 1050" d="M1370 1446L1370 1466C1370 1466.53 1370.21 1467.04 1370.59 1467.41C1370.96 1467.79 1371.47 1468 1372 1468L1396 1468C1396.53 1468 1397.04 1467.79 1397.41 1467.41C1397.79 1467.04 1398 1466.53 1398 1466L1398 1446C1398 1445.47 1397.79 1444.96 1397.41 1444.59C1397.04 1444.21 1396.53 1444 1396 1444L1372 1444C1371.47 1444 1370.96 1444.21 1370.59 1444.59C1370.21 1444.96 1370 1445.47 1370 1446ZM1372 1446L1388 1446L1388 1466L1372 1466L1372 1457L1382.17 1457L1378.59 1460.59L1380 1462L1386 1456L1380 1450L1378.59 1451.41L1382.17 1455L1372 1455L1372 1446Z" fill="currentColor" fill-rule="nonzero" />
  </g>
</svg>

