<svg viewBox="0 0 32 32" xmlns="http://www.w3.org/2000/svg" fill="none">
  <g transform="translate(-1296 -1440)">
<path id="Vector 1049" d="M1298 1446L1298 1466C1298 1466.53 1298.21 1467.04 1298.59 1467.41C1298.96 1467.79 1299.47 1468 1300 1468L1324 1468C1324.53 1468 1325.04 1467.79 1325.41 1467.41C1325.79 1467.04 1326 1466.53 1326 1466L1326 1446C1326 1445.47 1325.79 1444.96 1325.41 1444.59C1325.04 1444.21 1324.53 1444 1324 1444L1300 1444C1299.47 1444 1298.96 1444.21 1298.59 1444.59C1298.21 1444.96 1298 1445.47 1298 1446ZM1318 1446L1324 1446L1324 1466L1318 1466L1318 1446ZM1300 1446L1316 1446L1316 1466L1300 1466L1300 1457L1310.17 1457L1306.59 1460.59L1308 1462L1314 1456L1308 1450L1306.59 1451.41L1310.17 1455L1300 1455L1300 1446Z" fill="currentColor" fill-rule="nonzero" />
  </g>
</svg>

