<svg viewBox="0 0 32 32" xmlns="http://www.w3.org/2000/svg" fill="none">
  <g transform="translate(-1656.000122 -1440)">
<path id="Vector 1056" d="M1668 1470L1660 1470C1659.47 1470 1658.96 1469.79 1658.59 1469.41C1658.21 1469.04 1658 1468.53 1658 1468L1658 1464C1658 1463.47 1658.21 1462.96 1658.59 1462.59C1658.96 1462.21 1659.47 1462 1660 1462L1668 1462C1668.53 1462 1669.04 1462.21 1669.41 1462.59C1669.79 1462.96 1670 1463.47 1670 1464L1670 1468C1670 1468.53 1669.79 1469.04 1669.41 1469.41C1669.04 1469.79 1668.53 1470 1668 1470ZM1660 1464L1660 1468L1668 1468L1668 1464L1660 1464ZM1684 1460L1668 1460C1667.47 1460 1666.96 1459.79 1666.59 1459.41C1666.21 1459.04 1666 1458.53 1666 1458L1666 1454C1666 1453.47 1666.21 1452.96 1666.59 1452.59C1666.96 1452.21 1667.47 1452 1668 1452L1684 1452C1684.53 1452 1685.04 1452.21 1685.41 1452.59C1685.79 1452.96 1686 1453.47 1686 1454L1686 1458C1686 1458.53 1685.79 1459.04 1685.41 1459.41C1685.04 1459.79 1684.53 1460 1684 1460ZM1668 1454L1668 1458L1684 1458L1684 1454L1668 1454ZM1672 1450L1660 1450C1659.47 1450 1658.96 1449.79 1658.59 1449.41C1658.21 1449.04 1658 1448.53 1658 1448L1658 1444C1658 1443.47 1658.21 1442.96 1658.59 1442.59C1658.96 1442.21 1659.47 1442 1660 1442L1672 1442C1672.53 1442 1673.04 1442.21 1673.41 1442.59C1673.79 1442.96 1674 1443.47 1674 1444L1674 1448C1674 1448.53 1673.79 1449.04 1673.41 1449.41C1673.04 1449.79 1672.53 1450 1672 1450ZM1660 1444L1660 1448L1672 1448L1672 1444L1660 1444Z" fill="currentColor" fill-rule="nonzero" />
  </g>
</svg>

