<svg viewBox="0 0 32 32" xmlns="http://www.w3.org/2000/svg" fill="none">
  <g transform="translate(-1800.000122 -1440)">
<path id="Vector 1059" d="M1816 1471L1814 1471L1814 1470.77C1814 1470.16 1813.81 1469.57 1813.46 1469.06C1813.12 1468.56 1812.62 1468.18 1812.05 1467.96L1808.52 1466.64C1807.78 1466.36 1807.14 1465.86 1806.69 1465.21C1806.24 1464.56 1806 1463.79 1806 1463L1808 1463C1808 1463.38 1808.12 1463.76 1808.34 1464.07C1808.56 1464.39 1808.87 1464.63 1809.22 1464.77L1812.76 1466.09C1813.71 1466.45 1814.53 1467.09 1815.11 1467.93C1815.69 1468.76 1816 1469.75 1816 1470.77L1816 1471ZM1830 1471L1828 1471L1828 1470.77C1828 1470.16 1827.81 1469.57 1827.46 1469.06C1827.12 1468.56 1826.62 1468.18 1826.05 1467.96L1822.52 1466.64C1821.78 1466.36 1821.14 1465.86 1820.69 1465.21C1820.24 1464.56 1820 1463.79 1820 1463L1822 1463C1822 1463.38 1822.12 1463.76 1822.34 1464.07C1822.56 1464.39 1822.87 1464.63 1823.22 1464.77L1826.76 1466.09C1827.71 1466.45 1828.53 1467.09 1829.11 1467.93C1829.69 1468.76 1830 1469.75 1830 1470.77L1830 1471ZM1811 1453L1817 1453L1817 1455L1811 1455L1811 1453Z" fill="currentColor" fill-rule="nonzero" />
		<path id="Vector 1060" d="M1823.44 1448L1822.17 1443.45C1822.05 1443.03 1821.8 1442.67 1821.45 1442.4C1821.1 1442.14 1820.68 1442 1820.25 1442L1807.75 1442C1807.32 1442 1806.9 1442.14 1806.55 1442.41C1806.2 1442.67 1805.95 1443.03 1805.83 1443.45L1804.53 1448L1802 1448L1802 1450L1804 1450L1804 1457C1804 1457.53 1804.21 1458.04 1804.59 1458.41C1804.96 1458.79 1805.47 1459 1806 1459L1806 1461L1808 1461L1808 1459L1820 1459L1820 1461L1822 1461L1822 1459C1822.53 1459 1823.04 1458.79 1823.41 1458.41C1823.79 1458.04 1824 1457.53 1824 1457L1824 1450L1826 1450L1826 1448L1823.44 1448ZM1807.76 1444L1820.25 1444L1821.68 1449L1806.33 1449L1807.76 1444ZM1822 1453L1820 1453L1820 1455L1822 1455L1822 1457L1806 1457L1806 1455L1808 1455L1808 1453L1806 1453L1806 1451L1822 1451L1822 1453Z" fill="currentColor" fill-rule="nonzero" />
  </g>
</svg>

