<svg viewBox="0 0 32 32" xmlns="http://www.w3.org/2000/svg" fill="none">
  <g transform="translate(-1584.000122 -1440)">
<path id="Vector 1053" d="M1597 1453L1603 1453L1603 1455L1597 1455L1597 1453Z" fill="currentColor" fill-rule="nonzero" />
		<path id="Vector 1054" d="M1609.44 1448L1608.17 1443.45C1608.05 1443.03 1607.8 1442.67 1607.45 1442.4C1607.1 1442.14 1606.68 1442 1606.25 1442L1593.75 1442C1593.32 1442 1592.9 1442.14 1592.55 1442.41C1592.2 1442.67 1591.95 1443.03 1591.83 1443.45L1590.53 1448L1588 1448L1588 1450L1590 1450L1590 1457C1590 1457.53 1590.21 1458.04 1590.59 1458.41C1590.96 1458.79 1591.47 1459 1592 1459L1592 1462L1594 1462L1594 1459L1606 1459L1606 1462L1608 1462L1608 1459C1608.53 1459 1609.04 1458.79 1609.41 1458.41C1609.79 1458.04 1610 1457.53 1610 1457L1610 1450L1612 1450L1612 1448L1609.44 1448ZM1593.76 1444L1606.25 1444L1607.68 1449L1592.33 1449L1593.76 1444ZM1608 1453L1606 1453L1606 1455L1608 1455L1608 1457L1592 1457L1592 1455L1594 1455L1594 1453L1592 1453L1592 1451L1608 1451L1608 1453ZM1586 1456L1588 1456L1588 1470L1586 1470L1586 1456ZM1612 1456L1614 1456L1614 1470L1612 1470L1612 1456Z" fill="currentColor" fill-rule="nonzero" />
		<path id="Vector 1055" d="M1599 1461L1601 1461L1601 1464L1599 1464L1599 1461ZM1599 1466L1601 1466L1601 1470L1599 1470L1599 1466Z" fill="currentColor" fill-rule="nonzero" />
  </g>
</svg>

