<svg viewBox="0 0 32 32" xmlns="http://www.w3.org/2000/svg" fill="none">
  <g transform="translate(-1728.000122 -1440)">
<path id="Vector 1057" d="M1735.29 1463.29L1743.29 1455.29L1744.7 1456.71L1736.7 1464.71L1735.29 1463.29Z" fill="currentColor" fill-rule="nonzero" />
		<path id="Vector 1058" d="M1745 1470C1744.87 1470 1744.75 1469.98 1744.63 1469.93C1744.47 1469.86 1744.32 1469.76 1744.21 1469.62C1744.1 1469.48 1744.03 1469.31 1744.01 1469.14L1743.01 1462.14L1745.01 1461.86L1745.76 1467.13L1749 1464.52L1749 1457C1749 1456.87 1749.02 1456.74 1749.07 1456.62C1749.12 1456.49 1749.2 1456.38 1749.29 1456.29L1753.36 1452.22C1754.2 1451.39 1754.86 1450.4 1755.32 1449.3C1755.77 1448.21 1756 1447.04 1756 1445.86L1756 1444L1754.14 1444C1752.96 1444 1751.79 1444.23 1750.7 1444.68C1749.6 1445.14 1748.61 1445.8 1747.78 1446.64L1743.71 1450.71C1743.62 1450.8 1743.51 1450.88 1743.38 1450.93C1743.26 1450.98 1743.13 1451 1743 1451L1735.48 1451L1732.87 1454.26L1738.14 1455.01L1737.86 1457.01L1730.86 1456.01C1730.69 1455.99 1730.52 1455.92 1730.38 1455.81C1730.24 1455.7 1730.14 1455.55 1730.07 1455.39C1730 1455.23 1729.98 1455.05 1730.01 1454.87C1730.04 1454.69 1730.11 1454.53 1730.22 1454.39L1734.22 1449.39C1734.31 1449.27 1734.43 1449.17 1734.57 1449.11C1734.7 1449.04 1734.85 1449 1735 1449L1742.59 1449L1746.36 1445.22C1747.38 1444.2 1748.59 1443.38 1749.93 1442.83C1751.26 1442.28 1752.69 1442 1754.14 1442L1756 1442C1756.53 1442 1757.04 1442.21 1757.41 1442.59C1757.79 1442.96 1758 1443.47 1758 1444L1758 1445.86C1758.01 1447.31 1757.72 1448.74 1757.17 1450.07C1756.62 1451.41 1755.8 1452.62 1754.78 1453.64L1751 1457.41L1751 1465C1751 1465.15 1750.96 1465.3 1750.9 1465.43C1750.83 1465.57 1750.74 1465.69 1750.62 1465.78L1745.62 1469.78C1745.44 1469.92 1745.23 1470 1745 1470Z" fill="currentColor" fill-rule="nonzero" />
  </g>
</svg>

