<svg viewBox="0 0 32 32" xmlns="http://www.w3.org/2000/svg" fill="none">
  <g transform="translate(-360 -1512)">
<path id="Vector 1068" d="M374 1540L374 1528C374 1527.47 374.211 1526.96 374.586 1526.59C374.961 1526.21 375.47 1526 376 1526L388 1526C388.53 1526 389.039 1526.21 389.414 1526.59C389.789 1526.96 390 1527.47 390 1528L390 1540C390 1540.53 389.789 1541.04 389.414 1541.41C389.039 1541.79 388.53 1542 388 1542L376 1542C375.47 1542 374.961 1541.79 374.586 1541.41C374.211 1541.04 374 1540.53 374 1540ZM362 1527L363.41 1525.59L366 1528.17L366 1523C366.003 1521.14 366.741 1519.37 368.053 1518.05C369.365 1516.74 371.144 1516 373 1516L378 1516L378 1518L373 1518C371.674 1518 370.404 1518.53 369.466 1519.47C368.529 1520.4 368.002 1521.67 368 1523L368 1528.17L370.59 1525.59L372 1527L367 1532L362 1527Z" fill="currentColor" fill-rule="nonzero" />
  </g>
</svg>

