<svg viewBox="0 0 32 32" xmlns="http://www.w3.org/2000/svg" fill="none">
  <g transform="translate(-1872.000122 -1440)">
<path id="Vector 1061" d="M1889.91 1466.82L1890.26 1468.82C1891.75 1468.56 1893.19 1468.04 1894.5 1467.28L1893.5 1465.55C1892.39 1466.18 1891.17 1466.61 1889.91 1466.82ZM1896.42 1463.07L1898 1464.35C1898.97 1463.19 1899.73 1461.86 1900.24 1460.44L1898.37 1459.76C1897.92 1460.97 1897.26 1462.09 1896.42 1463.07ZM1881.5 1467.25C1882.81 1468.01 1884.25 1468.53 1885.74 1468.79L1886.09 1466.79C1884.83 1466.57 1883.61 1466.13 1882.5 1465.49L1881.5 1467.25ZM1877.67 1459.76L1875.8 1460.44C1876.3 1461.86 1877.05 1463.18 1878 1464.35L1878.32 1464.09L1879.54 1463.09C1878.72 1462.11 1878.07 1460.99 1877.63 1459.78L1877.67 1459.76ZM1901 1456C1901 1454.48 1900.73 1452.98 1900.2 1451.56L1898.33 1452.24C1898.77 1453.45 1898.99 1454.72 1899 1456L1901 1456ZM1898 1447.65C1896.78 1446.18 1895.25 1445 1893.52 1444.19C1891.8 1443.38 1889.91 1442.96 1888 1442.96C1886.09 1442.96 1884.21 1443.38 1882.48 1444.19C1880.75 1445 1879.22 1446.18 1878 1447.65L1878 1444L1876 1444L1876 1452L1884 1452L1884 1450L1878.81 1450C1879.75 1448.57 1881.01 1447.37 1882.49 1446.51C1883.97 1445.65 1885.64 1445.15 1887.35 1445.04C1889.06 1444.94 1890.77 1445.24 1892.34 1445.91C1893.92 1446.59 1895.31 1447.62 1896.42 1448.93L1898 1447.65Z" fill="currentColor" fill-rule="nonzero" />
  </g>
</svg>

