<svg viewBox="0 0 32 32" xmlns="http://www.w3.org/2000/svg" fill="none">
  <g transform="translate(-1944.000122 -1440)">
<path id="Vector 1062" d="M1972 1470L1960 1470C1959.47 1470 1958.96 1469.79 1958.59 1469.41C1958.21 1469.04 1958 1468.53 1958 1468L1958 1456C1958 1455.47 1958.21 1454.96 1958.59 1454.59C1958.96 1454.21 1959.47 1454 1960 1454L1972 1454C1972.53 1454 1973.04 1454.21 1973.41 1454.59C1973.79 1454.96 1974 1455.47 1974 1456L1974 1468C1974 1468.53 1973.79 1469.04 1973.41 1469.41C1973.04 1469.79 1972.53 1470 1972 1470ZM1960 1456L1960 1468L1972 1468L1972 1456L1960 1456ZM1959 1442L1957.59 1443.41L1960.17 1446L1955 1446C1953.14 1446 1951.37 1446.74 1950.05 1448.05C1948.74 1449.37 1948 1451.14 1948 1453L1948 1458L1950 1458L1950 1453C1950 1451.67 1950.53 1450.4 1951.47 1449.47C1952.4 1448.53 1953.67 1448 1955 1448L1960.17 1448L1957.59 1450.59L1959 1452L1964 1447L1959 1442Z" fill="currentColor" fill-rule="nonzero" />
  </g>
</svg>

