<svg viewBox="0 0 32 32" xmlns="http://www.w3.org/2000/svg" fill="none">
  <g transform="translate(-144 -1512)">
<path id="Vector 1065" d="M172 1542L160 1542C159.47 1542 158.961 1541.79 158.586 1541.41C158.211 1541.04 158 1540.53 158 1540L158 1528C158 1527.47 158.211 1526.96 158.586 1526.59C158.961 1526.21 159.47 1526 160 1526L172 1526C172.53 1526 173.039 1526.21 173.414 1526.59C173.789 1526.96 174 1527.47 174 1528L174 1540C174 1540.53 173.789 1541.04 173.414 1541.41C173.039 1541.79 172.53 1542 172 1542ZM159 1514L157.59 1515.41L160.17 1518L155 1518C153.144 1518 151.365 1518.74 150.053 1520.05C148.741 1521.37 148.003 1523.14 148 1525L148 1530L150 1530L150 1525C150.002 1523.67 150.529 1522.4 151.466 1521.47C152.404 1520.53 153.674 1520 155 1520L160.17 1520L157.59 1522.59L159 1524L164 1519L159 1514Z" fill="currentColor" fill-rule="nonzero" />
  </g>
</svg>

