<svg viewBox="0 0 32 32" xmlns="http://www.w3.org/2000/svg" fill="none">
  <g transform="translate(-216 -1512)">
<path id="Vector 1066" d="M218 1540L218 1528C218 1527.47 218.211 1526.96 218.586 1526.59C218.961 1526.21 219.47 1526 220 1526L232 1526C232.53 1526 233.039 1526.21 233.414 1526.59C233.789 1526.96 234 1527.47 234 1528L234 1540C234 1540.53 233.789 1541.04 233.414 1541.41C233.039 1541.79 232.53 1542 232 1542L220 1542C219.47 1542 218.961 1541.79 218.586 1541.41C218.211 1541.04 218 1540.53 218 1540ZM220 1528L219.999 1540L232 1540L232 1528L220 1528ZM233 1514L234.41 1515.41L231.83 1518L237 1518C238.856 1518 240.635 1518.74 241.947 1520.05C243.259 1521.37 243.997 1523.14 244 1525L244 1530L242 1530L242 1525C241.998 1523.67 241.471 1522.4 240.534 1521.47C239.596 1520.53 238.326 1520 237 1520L231.83 1520L234.41 1522.59L233 1524L228 1519L233 1514Z" fill="currentColor" fill-rule="nonzero" />
  </g>
</svg>

