<svg viewBox="0 0 32 32" xmlns="http://www.w3.org/2000/svg" fill="none">
  <g transform="translate(-432 -1512)">
<path id="Vector 1069" d="M434 1540L434 1528C434 1527.47 434.211 1526.96 434.586 1526.59C434.961 1526.21 435.47 1526 436 1526L448 1526C448.53 1526 449.039 1526.21 449.414 1526.59C449.789 1526.96 450 1527.47 450 1528L450 1540C450 1540.53 449.789 1541.04 449.414 1541.41C449.039 1541.79 448.53 1542 448 1542L436 1542C435.47 1542 434.961 1541.79 434.586 1541.41C434.211 1541.04 434 1540.53 434 1540ZM449 1514L450.41 1515.41L447.83 1518L453 1518C454.856 1518 456.635 1518.74 457.947 1520.05C459.259 1521.37 459.997 1523.14 460 1525L460 1530L458 1530L458 1525C457.998 1523.67 457.471 1522.4 456.534 1521.47C455.596 1520.53 454.326 1520 453 1520L447.83 1520L450.41 1522.59L449 1524L444 1519L449 1514Z" fill="currentColor" fill-rule="nonzero" />
  </g>
</svg>

