<svg viewBox="0 0 32 32" xmlns="http://www.w3.org/2000/svg" fill="none">
  <g transform="translate(-72 -1512)">
<path id="Vector 1064" d="M88 1542L76 1542C75.4696 1542 74.9609 1541.79 74.5858 1541.41C74.2107 1541.04 74 1540.53 74 1540L74 1528C74 1527.47 74.2107 1526.96 74.5858 1526.59C74.9609 1526.21 75.4696 1526 76 1526L88 1526C88.5304 1526 89.0391 1526.21 89.4142 1526.59C89.7893 1526.96 90 1527.47 90 1528L90 1540C90 1540.53 89.7893 1541.04 89.4142 1541.41C89.0391 1541.79 88.5304 1542 88 1542ZM102 1527L100.59 1525.59L98 1528.17L98 1523C97.9974 1521.14 97.259 1519.37 95.9468 1518.05C94.6346 1516.74 92.8557 1516 91 1516L86 1516L86 1518L91 1518C92.3256 1518 93.5964 1518.53 94.5338 1519.47C95.4711 1520.4 95.9984 1521.67 96 1523L96 1528.17L93.41 1525.59L92 1527L97 1532L102 1527Z" fill="currentColor" fill-rule="nonzero" />
  </g>
</svg>

