<svg viewBox="0 0 32 32" xmlns="http://www.w3.org/2000/svg" fill="none">
  <g transform="translate(-288 -1512)">
<path id="Vector 1067" d="M302 1540L302 1528C302 1527.47 302.211 1526.96 302.586 1526.59C302.961 1526.21 303.47 1526 304 1526L316 1526C316.53 1526 317.039 1526.21 317.414 1526.59C317.789 1526.96 318 1527.47 318 1528L318 1540C318 1540.53 317.789 1541.04 317.414 1541.41C317.039 1541.79 316.53 1542 316 1542L304 1542C303.47 1542 302.961 1541.79 302.586 1541.41C302.211 1541.04 302 1540.53 302 1540ZM304 1528L303.999 1540L316 1540L316 1528L304 1528ZM290 1527L291.41 1525.59L294 1528.17L294 1523C294.003 1521.14 294.741 1519.37 296.053 1518.05C297.365 1516.74 299.144 1516 301 1516L306 1516L306 1518L301 1518C299.674 1518 298.404 1518.53 297.466 1519.47C296.529 1520.4 296.002 1521.67 296 1523L296 1528.17L298.59 1525.59L300 1527L295 1532L290 1527Z" fill="currentColor" fill-rule="nonzero" />
  </g>
</svg>

