<svg viewBox="0 0 32 32" xmlns="http://www.w3.org/2000/svg" fill="none">
  <g transform="translate(-0 -1512)">
<path id="Vector 1063" d="M16 1542L4 1542C3.46957 1542 2.96086 1541.79 2.58579 1541.41C2.21071 1541.04 2 1540.53 2 1540L2 1528C2 1527.47 2.21071 1526.96 2.58579 1526.59C2.96086 1526.21 3.46957 1526 4 1526L16 1526C16.5304 1526 17.0391 1526.21 17.4142 1526.59C17.7893 1526.96 18 1527.47 18 1528L18 1540C18 1540.53 17.7893 1541.04 17.4142 1541.41C17.0391 1541.79 16.5304 1542 16 1542ZM4 1528L4 1540L16.001 1540L16 1528L4 1528ZM30 1527L28.59 1525.59L26 1528.17L26 1523C25.9974 1521.14 25.259 1519.37 23.9468 1518.05C22.6346 1516.74 20.8557 1516 19 1516L14 1516L14 1518L19 1518C20.3256 1518 21.5964 1518.53 22.5338 1519.47C23.4711 1520.4 23.9984 1521.67 24 1523L24 1528.17L21.41 1525.59L20 1527L25 1532L30 1527Z" fill="currentColor" fill-rule="nonzero" />
  </g>
</svg>

