<svg viewBox="0 0 32 32" xmlns="http://www.w3.org/2000/svg" fill="none">
  <g transform="translate(-648 -1512)">
<path id="Vector 1072" d="M664 1527C664.828 1527 665.5 1526.33 665.5 1525.5C665.5 1524.67 664.828 1524 664 1524C663.172 1524 662.5 1524.67 662.5 1525.5C662.5 1526.33 663.172 1527 664 1527Z" fill="currentColor" fill-rule="nonzero" />
		<path id="Vector 1073" d="M667.536 1522.46C667.072 1522 666.52 1521.63 665.914 1521.38C665.307 1521.13 664.657 1521 664 1521C663.343 1521 662.693 1521.13 662.086 1521.38C661.48 1521.63 660.928 1522 660.464 1522.46L659.05 1521.05C659.7 1520.4 660.472 1519.88 661.321 1519.53C662.17 1519.18 663.081 1519 664 1519C664.919 1519 665.83 1519.18 666.679 1519.53C667.528 1519.88 668.3 1520.4 668.95 1521.05L667.536 1522.46Z" fill="currentColor" fill-rule="nonzero" />
		<path id="Vector 1074" d="M671.071 1518.93C669.196 1517.05 666.652 1516 664 1516C661.348 1516 658.804 1517.05 656.929 1518.93L655.515 1517.51C657.765 1515.26 660.818 1514 664 1514C667.182 1514 670.235 1515.26 672.485 1517.51L671.071 1518.93ZM669 1537L664 1542L659 1537L660.409 1535.58L663 1538.15L663 1531L665 1531L665 1538.21L667.591 1535.58L669 1537ZM672 1523L667 1528L672 1533L673.419 1531.59L670.847 1529L678 1529L678 1527L670.794 1527L673.419 1524.41L672 1523ZM656 1523L661 1528L656 1533L654.581 1531.59L657.153 1529L650 1529L650 1527L657.206 1527L654.581 1524.41L656 1523Z" fill="currentColor" fill-rule="nonzero" />
  </g>
</svg>

