<svg viewBox="0 0 32 32" xmlns="http://www.w3.org/2000/svg" fill="none">
  <g transform="translate(-576 -1512)">
<path id="Vector 1071" d="M597 1537L592 1542L587 1537L588.409 1535.58L591 1538.15L591 1531L593 1531L593 1538.21L595.591 1535.58L597 1537ZM600 1523L595 1528L600 1533L601.419 1531.59L598.847 1529L606 1529L606 1527L598.794 1527L601.419 1524.41L600 1523ZM584 1523L589 1528L584 1533L582.581 1531.59L585.153 1529L578 1529L578 1527L585.206 1527L582.581 1524.41L584 1523ZM588.429 1517.82L588.429 1519.45C588.427 1519.67 588.362 1519.88 588.242 1520.07C588.122 1520.25 587.952 1520.39 587.752 1520.48L586.362 1521.07C586.158 1521.16 585.933 1521.19 585.716 1521.14C585.498 1521.1 585.298 1521 585.14 1520.84L583.32 1519.02C583.112 1518.81 582.997 1518.53 583 1518.23C583.002 1517.93 583.122 1517.65 583.333 1517.44L583.368 1517.41C590.761 1510.88 598.059 1515.37 600.581 1517.36C600.812 1517.55 600.961 1517.82 600.993 1518.11C601.026 1518.41 600.94 1518.7 600.755 1518.93C600.728 1518.97 600.699 1519 600.668 1519.03L598.911 1520.79C598.754 1520.94 598.553 1521.05 598.335 1521.09C598.117 1521.13 597.892 1521.11 597.688 1521.02L596.298 1520.42C596.097 1520.34 595.925 1520.2 595.804 1520.02C595.683 1519.83 595.618 1519.62 595.618 1519.4L595.618 1517.77C595.618 1517.77 591.973 1515.06 588.428 1517.82" fill="currentColor" fill-rule="nonzero" />
  </g>
</svg>

