<svg viewBox="0 0 32 32" xmlns="http://www.w3.org/2000/svg" fill="none">
  <g transform="translate(-504 -1512)">
<path id="Vector 1070" d="M525 1519L520 1514L515 1519L516.409 1520.42L519 1517.85L519 1525L521 1525L521 1517.79L523.591 1520.42L525 1519ZM525 1537L520 1542L515 1537L516.409 1535.58L519 1538.15L519 1531L521 1531L521 1538.21L523.591 1535.58L525 1537ZM528 1523L523 1528L528 1533L529.419 1531.59L526.847 1529L534 1529L534 1527L526.794 1527L529.419 1524.41L528 1523ZM512 1523L517 1528L512 1533L510.581 1531.59L513.153 1529L506 1529L506 1527L513.206 1527L510.581 1524.41L512 1523Z" fill="currentColor" fill-rule="nonzero" />
  </g>
</svg>

