<svg viewBox="0 0 32 32" xmlns="http://www.w3.org/2000/svg" fill="none">
  <g transform="translate(-792 -1512)">
<path id="Vector 1076" d="M818 1532L798 1532C797.47 1532 796.961 1532.21 796.586 1532.59C796.211 1532.96 796 1533.47 796 1534L796 1538C796 1538.53 796.211 1539.04 796.586 1539.41C796.961 1539.79 797.47 1540 798 1540L818 1540C818.53 1540 819.039 1539.79 819.414 1539.41C819.789 1539.04 820 1538.53 820 1538L820 1534C820 1533.47 819.789 1532.96 819.414 1532.59C819.039 1532.21 818.53 1532 818 1532ZM818 1538L798 1538L798 1534L818 1534L818 1538ZM809 1519.83L811.586 1522.41L813 1521L808 1516L803 1521L804.414 1522.41L807 1519.83L807 1526L796 1526L796 1528L820 1528L820 1526L809 1526L809 1519.83Z" fill="currentColor" fill-rule="nonzero" />
  </g>
</svg>

