<svg viewBox="0 0 32 32" xmlns="http://www.w3.org/2000/svg" fill="none">
  <g transform="translate(-864 -1512)">
<path id="Vector 1077" d="M888 1542L868 1542C867.47 1542 866.961 1541.79 866.586 1541.41C866.211 1541.04 866 1540.53 866 1540L866 1534C866 1533.47 866.211 1532.96 866.586 1532.59C866.961 1532.21 867.47 1532 868 1532L888 1532C888.53 1532 889.039 1532.21 889.414 1532.59C889.789 1532.96 890 1533.47 890 1534L890 1540C890 1540.53 889.789 1541.04 889.414 1541.41C889.039 1541.79 888.53 1542 888 1542ZM868 1534L867.998 1534L868 1540L888 1540L888 1534L868 1534ZM894 1515.41L892.59 1514L889 1517.59L885.41 1514L884 1515.41L887.59 1519L884 1522.59L885.41 1524L889 1520.41L892.59 1524L894 1522.59L890.41 1519L894 1515.41Z" fill="currentColor" fill-rule="nonzero" />
		<path id="Vector 1078" d="M868 1526L868 1520L882 1520L882 1518L868 1518C867.47 1518 866.961 1518.21 866.586 1518.59C866.211 1518.96 866 1519.47 866 1520L866 1526C866 1526.53 866.211 1527.04 866.586 1527.41C866.961 1527.79 867.47 1528 868 1528L890 1528L890 1526L868 1526Z" fill="currentColor" fill-rule="nonzero" />
  </g>
</svg>

