<svg viewBox="0 0 32 32" xmlns="http://www.w3.org/2000/svg" fill="none">
  <g transform="translate(-1008 -1512)">
<path id="Vector 1080" d="M1036 1524L1018 1524C1017.47 1524 1016.96 1523.79 1016.59 1523.41C1016.21 1523.04 1016 1522.53 1016 1522L1016 1516C1016 1515.47 1016.21 1514.96 1016.59 1514.59C1016.96 1514.21 1017.47 1514 1018 1514L1036 1514C1036.53 1514 1037.04 1514.21 1037.41 1514.59C1037.79 1514.96 1038 1515.47 1038 1516L1038 1522C1038 1522.53 1037.79 1523.04 1037.41 1523.41C1037.04 1523.79 1036.53 1524 1036 1524ZM1018 1516L1018 1522L1036 1522L1036 1516L1018 1516ZM1036 1542L1018 1542C1017.47 1542 1016.96 1541.79 1016.59 1541.41C1016.21 1541.04 1016 1540.53 1016 1540L1016 1534C1016 1533.47 1016.21 1532.96 1016.59 1532.59C1016.96 1532.21 1017.47 1532 1018 1532L1036 1532C1036.53 1532 1037.04 1532.21 1037.41 1532.59C1037.79 1532.96 1038 1533.47 1038 1534L1038 1540C1038 1540.53 1037.79 1541.04 1037.41 1541.41C1037.04 1541.79 1036.53 1542 1036 1542ZM1018 1534L1018 1540L1036 1540L1036 1534L1018 1534ZM1017 1528L1011.41 1522.41L1010 1523.83L1014.17 1528L1010 1532.17L1011.41 1533.59L1017 1528Z" fill="currentColor" fill-rule="nonzero" />
  </g>
</svg>

