<svg viewBox="0 0 32 32" xmlns="http://www.w3.org/2000/svg" fill="none">
  <g transform="translate(-936 -1512)">
<path id="Vector 1079" d="M940 1530L951 1530L951 1536.17L948.414 1533.59L947 1535L952 1540L957 1535L955.586 1533.59L953 1536.17L953 1530L964 1530L964 1528L940 1528L940 1530ZM962 1516L942 1516C941.47 1516 940.961 1516.21 940.586 1516.59C940.211 1516.96 940 1517.47 940 1518L940 1522C940 1522.53 940.211 1523.04 940.586 1523.41C940.961 1523.79 941.47 1524 942 1524L962 1524C962.53 1524 963.039 1523.79 963.414 1523.41C963.789 1523.04 964 1522.53 964 1522L964 1518C964 1517.47 963.789 1516.96 963.414 1516.59C963.039 1516.21 962.53 1516 962 1516ZM962 1522L942 1522L942 1518L962 1518L962 1522Z" fill="currentColor" fill-rule="nonzero" />
  </g>
</svg>

