<svg viewBox="0 0 32 32" xmlns="http://www.w3.org/2000/svg" fill="none">
  <g transform="translate(-720 -1512)">
<path id="Vector 1075" d="M724 1536L748 1536L748 1538L724 1538L724 1536ZM746 1530L726 1530L726 1526L746 1526L746 1530ZM748 1530L748 1526C748 1525.47 747.789 1524.96 747.414 1524.59C747.039 1524.21 746.53 1524 746 1524L726 1524C725.47 1524 724.961 1524.21 724.586 1524.59C724.211 1524.96 724 1525.47 724 1526L724 1530C724 1530.53 724.211 1531.04 724.586 1531.41C724.961 1531.79 725.47 1532 726 1532L746 1532C746.53 1532 747.039 1531.79 747.414 1531.41C747.789 1531.04 748 1530.53 748 1530ZM724 1518L748 1518L748 1520L724 1520L724 1518Z" fill="currentColor" fill-rule="nonzero" />
  </g>
</svg>

