<svg viewBox="0 0 32 32" xmlns="http://www.w3.org/2000/svg" fill="none">
  <g transform="translate(-1080 -1512)">
<path id="Vector 1081" d="M1088 1530C1084.7 1530 1082 1532.7 1082 1536C1082 1539.3 1084.7 1542 1088 1542C1091.3 1542 1094 1539.3 1094 1536C1094 1532.7 1091.3 1530 1088 1530ZM1088 1540C1085.8 1540 1084 1538.2 1084 1536C1084 1533.8 1085.8 1532 1088 1532C1090.2 1532 1092 1533.8 1092 1536C1092 1538.2 1090.2 1540 1088 1540ZM1110 1536L1108 1536C1108 1525 1099 1516 1088 1516L1088 1514C1100.1 1514 1110 1523.9 1110 1536Z" fill="currentColor" fill-rule="nonzero" />
		<path id="Vector 1082" d="M1102 1536L1100 1536C1100 1529.4 1094.6 1524 1088 1524L1088 1522C1095.7 1522 1102 1528.3 1102 1536Z" fill="currentColor" fill-rule="nonzero" />
  </g>
</svg>

