<svg viewBox="0 0 32 32" xmlns="http://www.w3.org/2000/svg" fill="none">
  <g transform="translate(-1368.000122 -1512)">
<path id="Vector 1089" d="M1397.71 1531.29L1394.71 1528.29C1394.52 1528.11 1394.27 1528 1394 1528C1393.73 1528 1393.48 1528.11 1393.29 1528.29L1384 1537.59L1384 1542L1388.41 1542L1397.71 1532.71C1397.89 1532.52 1398 1532.27 1398 1532C1398 1531.73 1397.89 1531.48 1397.71 1531.29ZM1387.59 1540L1386 1540L1386 1538.41L1391 1533.41L1392.59 1535L1387.59 1540ZM1394 1533.59L1392.41 1532L1394 1530.41L1395.59 1532L1394 1533.59ZM1376 1528L1386 1528L1386 1530L1376 1530L1376 1528ZM1376 1522L1388 1522L1388 1524L1376 1524L1376 1522Z" fill="currentColor" fill-rule="nonzero" />
		<path id="Vector 1090" d="M1394 1516C1394 1515.47 1393.79 1514.96 1393.41 1514.59C1393.04 1514.21 1392.53 1514 1392 1514L1372 1514C1371.47 1514 1370.96 1514.21 1370.59 1514.59C1370.21 1514.96 1370 1515.47 1370 1516L1370 1529C1370 1530.99 1370.54 1532.95 1371.56 1534.66C1372.59 1536.37 1374.06 1537.77 1375.82 1538.71L1381 1541.47L1381 1539.2L1376.77 1536.94C1375.33 1536.18 1374.12 1535.03 1373.28 1533.63C1372.44 1532.23 1372 1530.63 1372 1529L1372 1516L1392 1516L1392 1525L1394 1525L1394 1516Z" fill="currentColor" fill-rule="nonzero" />
  </g>
</svg>

