<svg viewBox="0 0 32 32" xmlns="http://www.w3.org/2000/svg" fill="none">
  <g transform="translate(-1296 -1512)">
<path id="Vector 1087" d="M1326 1540.6L1323.2 1537.8C1323.7 1537 1324 1536 1324 1535C1324 1532.2 1321.8 1530 1319 1530C1316.2 1530 1314 1532.2 1314 1535C1314 1537.8 1316.2 1540 1319 1540C1320 1540 1321 1539.7 1321.8 1539.2L1324.6 1542L1326 1540.6ZM1316 1535C1316 1533.3 1317.3 1532 1319 1532C1320.7 1532 1322 1533.3 1322 1535C1322 1536.7 1320.7 1538 1319 1538C1317.3 1538 1316 1536.7 1316 1535ZM1304 1528L1314 1528L1314 1530L1304 1530L1304 1528ZM1304 1522L1316 1522L1316 1524L1304 1524L1304 1522Z" fill="currentColor" fill-rule="nonzero" />
		<path id="Vector 1088" d="M1310 1539.7L1304.8 1536.9C1301.8 1535.4 1300 1532.3 1300 1529L1300 1516L1320 1516L1320 1527L1322 1527L1322 1516C1322 1514.9 1321.1 1514 1320 1514L1300 1514C1298.9 1514 1298 1514.9 1298 1516L1298 1529C1298 1533.1 1300.2 1536.8 1303.8 1538.7L1310 1542L1310 1539.7Z" fill="currentColor" fill-rule="nonzero" />
  </g>
</svg>

