<svg viewBox="0 0 32 32" xmlns="http://www.w3.org/2000/svg" fill="none">
  <g transform="translate(-1440.000122 -1512)">
<path id="Vector 1091" d="M1466 1514L1446 1514C1445.47 1514 1444.96 1514.21 1444.59 1514.59C1444.21 1514.96 1444 1515.47 1444 1516L1444 1529C1444 1530.99 1444.54 1532.95 1445.56 1534.66C1446.59 1536.37 1448.06 1537.77 1449.82 1538.71L1456 1542L1462.18 1538.71C1463.94 1537.77 1465.41 1536.37 1466.44 1534.66C1467.46 1532.95 1468 1530.99 1468 1529L1468 1516C1468 1515.47 1467.79 1514.96 1467.41 1514.59C1467.04 1514.21 1466.53 1514 1466 1514ZM1463 1530L1449 1530L1449 1528L1463 1528L1463 1530ZM1463 1524L1449 1524L1449 1522L1463 1522L1463 1524Z" fill="currentColor" fill-rule="nonzero" />
  </g>
</svg>

