<svg viewBox="0 0 32 32" xmlns="http://www.w3.org/2000/svg" fill="none">
  <g transform="translate(-1152 -1512)">
<path id="Vector 1083" d="M1162 1528L1174 1528L1174 1530L1162 1530L1162 1528ZM1162 1522L1174 1522L1174 1524L1162 1524L1162 1522Z" fill="currentColor" fill-rule="nonzero" />
		<path id="Vector 1084" d="M1168 1542L1161.82 1538.71C1160.06 1537.77 1158.59 1536.37 1157.56 1534.66C1156.54 1532.95 1156 1530.99 1156 1529L1156 1516C1156 1515.47 1156.21 1514.96 1156.59 1514.59C1156.96 1514.21 1157.47 1514 1158 1514L1178 1514C1178.53 1514 1179.04 1514.21 1179.41 1514.59C1179.79 1514.96 1180 1515.47 1180 1516L1180 1529C1180 1530.99 1179.46 1532.95 1178.44 1534.66C1177.41 1536.37 1175.94 1537.77 1174.18 1538.71L1168 1542ZM1158 1516L1158 1529C1158 1530.63 1158.44 1532.23 1159.28 1533.63C1160.12 1535.03 1161.33 1536.18 1162.77 1536.94L1168 1539.73L1173.23 1536.94C1174.67 1536.18 1175.88 1535.03 1176.72 1533.63C1177.56 1532.23 1178 1530.63 1178 1529L1178 1516L1158 1516Z" fill="currentColor" fill-rule="nonzero" />
  </g>
</svg>

