<svg viewBox="0 0 32 32" xmlns="http://www.w3.org/2000/svg" fill="none">
  <g transform="translate(-1224 -1512)">
<path id="Vector 1085" d="M1254 1536C1254 1534.81 1253.65 1533.65 1252.99 1532.67C1252.33 1531.68 1251.39 1530.91 1250.3 1530.46C1249.2 1530 1247.99 1529.88 1246.83 1530.12C1245.67 1530.35 1244.6 1530.92 1243.76 1531.76C1242.92 1532.6 1242.35 1533.67 1242.12 1534.83C1241.88 1535.99 1242 1537.2 1242.46 1538.3C1242.91 1539.39 1243.68 1540.33 1244.67 1540.99C1245.65 1541.65 1246.81 1542 1248 1542C1249.59 1542 1251.12 1541.37 1252.24 1540.24C1253.37 1539.12 1254 1537.59 1254 1536ZM1252 1536C1252 1536.71 1251.8 1537.41 1251.43 1538.02L1245.98 1532.57C1246.59 1532.2 1247.29 1532 1248 1532C1249.06 1532 1250.08 1532.42 1250.83 1533.17C1251.58 1533.92 1252 1534.94 1252 1536ZM1244 1536C1244 1535.29 1244.2 1534.59 1244.57 1533.98L1250.02 1539.43C1249.41 1539.8 1248.71 1540 1248 1540C1246.94 1540 1245.92 1539.58 1245.17 1538.83C1244.42 1538.08 1244 1537.06 1244 1536ZM1232 1528L1242 1528L1242 1530L1232 1530L1232 1528ZM1232 1522L1244 1522L1244 1524L1232 1524L1232 1522Z" fill="currentColor" fill-rule="nonzero" />
		<path id="Vector 1086" d="M1238 1539.73L1232.77 1536.94C1231.33 1536.18 1230.12 1535.03 1229.28 1533.63C1228.44 1532.23 1228 1530.63 1228 1529L1228 1516L1248 1516L1248 1527L1250 1527L1250 1516C1250 1515.47 1249.79 1514.96 1249.41 1514.59C1249.04 1514.21 1248.53 1514 1248 1514L1228 1514C1227.47 1514 1226.96 1514.21 1226.59 1514.59C1226.21 1514.96 1226 1515.47 1226 1516L1226 1529C1226 1530.99 1226.54 1532.95 1227.56 1534.66C1228.59 1536.37 1230.06 1537.77 1231.82 1538.71L1238 1542L1238 1539.73Z" fill="currentColor" fill-rule="nonzero" />
  </g>
</svg>

