<svg viewBox="0 0 32 32" xmlns="http://www.w3.org/2000/svg" fill="none">
  <g transform="translate(-1512.000122 -1512)">
<path id="Vector 1092" d="M1543 1541.58L1540.17 1538.75C1540.71 1537.94 1541 1536.98 1541 1536C1541 1533.24 1538.76 1531 1536 1531C1533.24 1531 1531 1533.24 1531 1536C1531 1538.76 1533.24 1541 1536 1541C1536.98 1541 1537.94 1540.71 1538.75 1540.17L1541.58 1543L1543 1541.58ZM1533 1536C1533 1534.35 1534.35 1533 1536 1533C1537.65 1533 1539 1534.35 1539 1536C1539 1537.65 1537.65 1539 1536 1539C1534.35 1539 1533 1537.65 1533 1536ZM1540.42 1519L1522.58 1519C1521.71 1519 1521 1519.7 1521 1520.57L1521 1532.79C1521 1535.98 1521.27 1538.91 1524.11 1540.41L1529 1543L1529 1540.74L1525.05 1538.65C1522.86 1537.49 1523 1535.24 1523 1532.79L1523 1521L1540 1521L1540 1529L1542 1529L1542 1520.57C1542 1519.7 1541.29 1519 1540.42 1519ZM1533.42 1513L1515.58 1513C1514.71 1513 1514 1513.7 1514 1514.57L1514 1526.79C1514 1529.98 1514.27 1532.91 1517.11 1534.41L1519 1535.41L1519 1533.15L1518.05 1532.65C1515.86 1531.49 1516 1529.24 1516 1526.79L1516 1515L1533 1515L1533 1517L1535 1517L1535 1514.57C1535 1513.7 1534.29 1513 1533.42 1513ZM1536 1525L1525 1525L1525 1523L1536 1523L1536 1525ZM1534 1529L1525 1529L1525 1527L1534 1527L1534 1529Z" fill="currentColor" fill-rule="nonzero" />
  </g>
</svg>

