<svg viewBox="0 0 32 32" xmlns="http://www.w3.org/2000/svg" fill="none">
  <g transform="translate(-1944.000122 -1512)">
<path id="Vector 1104" d="M1967 1538C1968.1 1538 1969 1537.1 1969 1536C1969 1534.9 1968.1 1534 1967 1534C1965.9 1534 1965 1534.9 1965 1536C1965 1537.1 1965.9 1538 1967 1538Z" fill="currentColor" fill-rule="nonzero" />
		<path id="Vector 1105" d="M1974.78 1535.48C1974.16 1533.9 1973.09 1532.55 1971.71 1531.57C1970.33 1530.6 1968.69 1530.05 1967 1530C1965.31 1530.05 1963.67 1530.6 1962.29 1531.57C1960.91 1532.55 1959.84 1533.9 1959.22 1535.48L1959 1536L1959.22 1536.52C1959.84 1538.1 1960.91 1539.45 1962.29 1540.43C1963.67 1541.4 1965.31 1541.95 1967 1542C1968.69 1541.95 1970.33 1541.4 1971.71 1540.43C1973.09 1539.45 1974.16 1538.1 1974.78 1536.52L1975 1536L1974.78 1535.48ZM1967 1540C1966.21 1540 1965.44 1539.77 1964.78 1539.33C1964.12 1538.89 1963.61 1538.26 1963.3 1537.53C1963 1536.8 1962.92 1536 1963.08 1535.22C1963.23 1534.44 1963.61 1533.73 1964.17 1533.17C1964.73 1532.61 1965.44 1532.23 1966.22 1532.08C1967 1531.92 1967.8 1532 1968.53 1532.3C1969.26 1532.61 1969.89 1533.12 1970.33 1533.78C1970.77 1534.44 1971 1535.21 1971 1536C1971 1537.06 1970.58 1538.08 1969.83 1538.83C1969.08 1539.58 1968.06 1540 1967 1540ZM1956.4 1532.8C1955.58 1532.19 1954.93 1531.37 1954.52 1530.44C1954.1 1529.5 1953.93 1528.48 1954.02 1527.46C1954.12 1526.44 1954.47 1525.46 1955.04 1524.62C1955.62 1523.77 1956.4 1523.09 1957.32 1522.63C1958.23 1522.18 1959.25 1521.96 1960.27 1522.01C1961.29 1522.05 1962.28 1522.36 1963.15 1522.9C1964.02 1523.43 1964.74 1524.19 1965.24 1525.08C1965.74 1525.97 1966 1526.98 1966 1528L1964 1528C1964 1527.32 1963.83 1526.65 1963.49 1526.05C1963.16 1525.46 1962.68 1524.96 1962.1 1524.6C1961.52 1524.24 1960.86 1524.03 1960.18 1524C1959.5 1523.97 1958.82 1524.12 1958.21 1524.42C1957.6 1524.73 1957.08 1525.18 1956.7 1525.75C1956.31 1526.31 1956.08 1526.96 1956.02 1527.64C1955.96 1528.32 1956.07 1529 1956.35 1529.63C1956.62 1530.25 1957.05 1530.79 1957.6 1531.2L1956.4 1532.8Z" fill="currentColor" fill-rule="nonzero" />
		<path id="Vector 1106" d="M1973.31 1523.04L1970.95 1518.96C1970.71 1518.56 1970.35 1518.25 1969.92 1518.08C1969.49 1517.92 1969.01 1517.91 1968.57 1518.06L1966.14 1518.89C1965.72 1518.6 1965.28 1518.35 1964.83 1518.13L1964.32 1515.61C1964.23 1515.15 1963.99 1514.75 1963.63 1514.45C1963.27 1514.16 1962.82 1514 1962.36 1514L1957.64 1514C1957.18 1514 1956.73 1514.16 1956.37 1514.45C1956.01 1514.75 1955.77 1515.15 1955.68 1515.61L1955.18 1518.13C1954.72 1518.35 1954.27 1518.6 1953.85 1518.88L1951.43 1518.06C1950.99 1517.91 1950.51 1517.92 1950.08 1518.08C1949.65 1518.25 1949.29 1518.56 1949.06 1518.96L1946.7 1523.04C1946.46 1523.44 1946.38 1523.91 1946.45 1524.37C1946.53 1524.82 1946.76 1525.24 1947.11 1525.55L1949.04 1527.24C1949.02 1527.49 1949 1527.74 1949 1528C1949 1528.26 1949.01 1528.51 1949.03 1528.77L1947.11 1530.45C1946.76 1530.76 1946.53 1531.18 1946.45 1531.63C1946.38 1532.09 1946.46 1532.56 1946.7 1532.96L1949.06 1537.04C1949.29 1537.44 1949.65 1537.75 1950.08 1537.92C1950.51 1538.08 1950.99 1538.09 1951.43 1537.94L1953.86 1537.11C1954.28 1537.4 1954.72 1537.65 1955.18 1537.87L1955.68 1540.39C1955.77 1540.85 1956.01 1541.25 1956.37 1541.55C1956.73 1541.84 1957.18 1542 1957.64 1542L1959 1542L1959 1540L1957.64 1540L1956.93 1536.45C1955.95 1536.09 1955.04 1535.55 1954.24 1534.88L1950.79 1536.04L1948.43 1531.96L1951.15 1529.56C1950.97 1528.53 1950.96 1527.47 1951.15 1526.43L1948.43 1524.04L1950.79 1519.96L1954.22 1521.12C1955.02 1520.44 1955.94 1519.91 1956.93 1519.55L1957.64 1516L1962.36 1516L1963.07 1519.55C1964.05 1519.91 1964.96 1520.45 1965.77 1521.12L1969.21 1519.96L1971.57 1524.04L1968.77 1526.5L1970.09 1528L1972.89 1525.55C1973.24 1525.24 1973.47 1524.82 1973.55 1524.37C1973.62 1523.91 1973.54 1523.44 1973.31 1523.04Z" fill="currentColor" fill-rule="nonzero" />
  </g>
</svg>

