<svg viewBox="0 0 32 32" xmlns="http://www.w3.org/2000/svg" fill="none">
  <g transform="translate(-1872.000122 -1512)">
<path id="Vector 1101" d="M1901 1537L1899 1537L1899 1535L1900 1535L1900 1531L1896 1531L1896 1532L1894 1532L1894 1530C1894 1529.73 1894.11 1529.48 1894.29 1529.29C1894.48 1529.11 1894.73 1529 1895 1529L1901 1529C1901.27 1529 1901.52 1529.11 1901.71 1529.29C1901.89 1529.48 1902 1529.73 1902 1530L1902 1536C1902 1536.27 1901.89 1536.52 1901.71 1536.71C1901.52 1536.89 1901.27 1537 1901 1537Z" fill="currentColor" fill-rule="nonzero" />
		<path id="Vector 1102" d="M1896 1542L1890 1542C1889.73 1542 1889.48 1541.89 1889.29 1541.71C1889.11 1541.52 1889 1541.27 1889 1541L1889 1535C1889 1534.73 1889.11 1534.48 1889.29 1534.29C1889.48 1534.11 1889.73 1534 1890 1534L1896 1534C1896.27 1534 1896.52 1534.11 1896.71 1534.29C1896.89 1534.48 1897 1534.73 1897 1535L1897 1541C1897 1541.27 1896.89 1541.52 1896.71 1541.71C1896.52 1541.89 1896.27 1542 1896 1542ZM1891 1540L1895 1540L1895 1536L1891 1536L1891 1540ZM1887 1531.86C1886.28 1531.67 1885.62 1531.28 1885.11 1530.74C1884.6 1530.2 1884.24 1529.52 1884.09 1528.79C1883.95 1528.06 1884 1527.3 1884.26 1526.6C1884.53 1525.9 1884.98 1525.29 1885.57 1524.83C1886.16 1524.38 1886.87 1524.1 1887.61 1524.02C1888.35 1523.95 1889.1 1524.08 1889.77 1524.41C1890.44 1524.74 1891 1525.25 1891.4 1525.89C1891.79 1526.52 1892 1527.25 1892 1528L1894 1528C1894 1526.86 1893.68 1525.74 1893.06 1524.77C1892.45 1523.81 1891.57 1523.04 1890.53 1522.55C1889.49 1522.07 1888.34 1521.9 1887.2 1522.05C1886.07 1522.2 1885 1522.67 1884.13 1523.41C1883.26 1524.15 1882.61 1525.12 1882.27 1526.21C1881.93 1527.31 1881.91 1528.47 1882.21 1529.58C1882.51 1530.68 1883.13 1531.67 1883.97 1532.44C1884.82 1533.21 1885.87 1533.72 1887 1533.91L1887 1531.86Z" fill="currentColor" fill-rule="nonzero" />
		<path id="Vector 1103" d="M1900.89 1525.55L1898.58 1527.58L1897.16 1526.16L1899.57 1524.04L1897.21 1519.96L1893.77 1521.12C1892.96 1520.45 1892.05 1519.92 1891.07 1519.55L1890.36 1516L1885.64 1516L1884.93 1519.55C1883.94 1519.91 1883.02 1520.44 1882.22 1521.12L1878.79 1519.96L1876.43 1524.04L1879.15 1526.43C1878.97 1527.47 1878.97 1528.52 1879.15 1529.56L1876.43 1531.96L1878.79 1536.04L1882.23 1534.88C1883.04 1535.55 1883.95 1536.08 1884.93 1536.45L1885.64 1540L1887 1540L1887 1542L1885.64 1542C1885.18 1542 1884.73 1541.84 1884.37 1541.55C1884.01 1541.25 1883.77 1540.84 1883.68 1540.39L1883.17 1537.87C1882.72 1537.65 1882.28 1537.4 1881.86 1537.12L1879.43 1537.94C1879.22 1538.01 1879.01 1538.04 1878.79 1538.04C1878.44 1538.04 1878.09 1537.95 1877.79 1537.78C1877.48 1537.6 1877.23 1537.35 1877.06 1537.04L1874.7 1532.96C1874.47 1532.56 1874.38 1532.09 1874.45 1531.63C1874.53 1531.17 1874.76 1530.76 1875.11 1530.45L1877.03 1528.77C1877.01 1528.51 1877 1528.26 1877 1528C1877 1527.74 1877.02 1527.49 1877.04 1527.24L1875.11 1525.55C1874.76 1525.24 1874.53 1524.83 1874.45 1524.37C1874.38 1523.91 1874.47 1523.44 1874.7 1523.04L1877.06 1518.96C1877.23 1518.65 1877.48 1518.4 1877.79 1518.22C1878.09 1518.05 1878.44 1517.96 1878.79 1517.96C1879.01 1517.96 1879.22 1517.99 1879.43 1518.06L1881.85 1518.88C1882.27 1518.6 1882.71 1518.35 1883.17 1518.13L1883.68 1515.61C1883.77 1515.16 1884.01 1514.75 1884.37 1514.45C1884.73 1514.16 1885.18 1514 1885.64 1514L1890.36 1514C1890.82 1514 1891.27 1514.16 1891.63 1514.45C1891.99 1514.75 1892.23 1515.16 1892.32 1515.61L1892.83 1518.13C1893.28 1518.35 1893.72 1518.6 1894.14 1518.88L1896.57 1518.06C1896.78 1517.99 1896.99 1517.96 1897.21 1517.96C1897.56 1517.96 1897.91 1518.05 1898.21 1518.22C1898.52 1518.4 1898.77 1518.65 1898.94 1518.96L1901.3 1523.04C1901.53 1523.44 1901.62 1523.91 1901.55 1524.37C1901.47 1524.83 1901.24 1525.24 1900.89 1525.55Z" fill="currentColor" fill-rule="nonzero" />
  </g>
</svg>

