<svg viewBox="0 0 32 32" xmlns="http://www.w3.org/2000/svg" fill="none">
  <g transform="translate(-1728.000122 -1512)">
<path id="Vector 1096" d="M1744 1534C1742.81 1534 1741.65 1533.65 1740.67 1532.99C1739.68 1532.33 1738.91 1531.39 1738.46 1530.3C1738 1529.2 1737.88 1527.99 1738.12 1526.83C1738.35 1525.67 1738.92 1524.6 1739.76 1523.76C1740.6 1522.92 1741.67 1522.35 1742.83 1522.12C1743.99 1521.88 1745.2 1522 1746.3 1522.46C1747.39 1522.91 1748.33 1523.68 1748.99 1524.67C1749.65 1525.65 1750 1526.81 1750 1528C1750.01 1528.79 1749.86 1529.57 1749.56 1530.31C1749.26 1531.04 1748.82 1531.7 1748.26 1532.26C1747.7 1532.82 1747.04 1533.26 1746.31 1533.56C1745.57 1533.86 1744.79 1534.01 1744 1534ZM1744 1524C1743.47 1523.99 1742.95 1524.08 1742.45 1524.28C1741.96 1524.48 1741.52 1524.77 1741.14 1525.14C1740.77 1525.52 1740.48 1525.96 1740.28 1526.45C1740.08 1526.95 1739.99 1527.47 1740 1528C1739.99 1528.53 1740.08 1529.05 1740.28 1529.55C1740.48 1530.04 1740.77 1530.48 1741.14 1530.86C1741.52 1531.23 1741.96 1531.52 1742.45 1531.72C1742.95 1531.92 1743.47 1532.01 1744 1532C1744.53 1532.01 1745.05 1531.92 1745.55 1531.72C1746.04 1531.52 1746.48 1531.23 1746.86 1530.86C1747.23 1530.48 1747.52 1530.04 1747.72 1529.55C1747.92 1529.05 1748.01 1528.53 1748 1528C1748.01 1527.47 1747.92 1526.95 1747.72 1526.45C1747.52 1525.96 1747.23 1525.52 1746.86 1525.14C1746.48 1524.77 1746.04 1524.48 1745.55 1524.28C1745.05 1524.08 1744.53 1523.99 1744 1524Z" fill="currentColor" fill-rule="nonzero" />
		<path id="Vector 1097" d="M1757.31 1523.04L1754.95 1518.96C1754.71 1518.56 1754.35 1518.25 1753.92 1518.08C1753.49 1517.92 1753.01 1517.91 1752.57 1518.06L1750.14 1518.89C1749.72 1518.6 1749.28 1518.35 1748.83 1518.13L1748.32 1515.61C1748.23 1515.15 1747.99 1514.75 1747.63 1514.45C1747.27 1514.16 1746.82 1514 1746.36 1514L1741.64 1514C1741.18 1514 1740.73 1514.16 1740.37 1514.45C1740.01 1514.75 1739.77 1515.15 1739.68 1515.61L1739.18 1518.13C1738.72 1518.35 1738.27 1518.6 1737.85 1518.88L1735.43 1518.06C1734.99 1517.91 1734.51 1517.92 1734.08 1518.09C1733.65 1518.25 1733.29 1518.56 1733.06 1518.96L1730.7 1523.04C1730.46 1523.44 1730.38 1523.91 1730.45 1524.37C1730.53 1524.83 1730.76 1525.24 1731.11 1525.55L1733.04 1527.24C1733.02 1527.49 1733 1527.74 1733 1528C1733 1528.26 1733.01 1528.51 1733.03 1528.77L1731.11 1530.45C1730.76 1530.76 1730.53 1531.18 1730.45 1531.63C1730.38 1532.09 1730.46 1532.56 1730.7 1532.96L1733.06 1537.04C1733.29 1537.44 1733.65 1537.75 1734.08 1537.92C1734.51 1538.08 1734.99 1538.09 1735.43 1537.94L1737.86 1537.11C1738.28 1537.4 1738.72 1537.65 1739.18 1537.87L1739.68 1540.39C1739.77 1540.85 1740.01 1541.25 1740.37 1541.55C1740.73 1541.84 1741.18 1542 1741.64 1542L1746 1542L1746 1540L1741.64 1540L1740.93 1536.45C1739.95 1536.09 1739.04 1535.55 1738.24 1534.88L1734.79 1536.04L1732.43 1531.96L1735.15 1529.56C1734.97 1528.53 1734.96 1527.47 1735.15 1526.43L1732.43 1524.04L1734.79 1519.96L1738.22 1521.12C1739.02 1520.44 1739.94 1519.91 1740.93 1519.55L1741.64 1516L1746.36 1516L1747.07 1519.55C1748.05 1519.91 1748.96 1520.45 1749.77 1521.12L1753.21 1519.96L1755.57 1524.04L1752.77 1526.5L1754.09 1528L1756.89 1525.55C1757.24 1525.24 1757.47 1524.82 1757.55 1524.37C1757.62 1523.91 1757.54 1523.44 1757.31 1523.04Z" fill="currentColor" fill-rule="nonzero" />
		<path id="Vector 1098" d="M1751 1538.18L1748.41 1535.59L1747 1537L1751 1541L1758 1534L1756.59 1532.59L1751 1538.18Z" fill="currentColor" fill-rule="nonzero" />
  </g>
</svg>

