<svg viewBox="0 0 32 32" xmlns="http://www.w3.org/2000/svg" fill="none">
  <g transform="translate(-1800.000122 -1512)">
<path id="Vector 1099" d="M1831.71 1531.29L1828.71 1528.29C1828.52 1528.11 1828.27 1528 1828 1528C1827.73 1528 1827.48 1528.11 1827.29 1528.29L1818 1537.59L1818 1542L1822.41 1542L1831.71 1532.71C1831.89 1532.52 1832 1532.27 1832 1532C1832 1531.73 1831.89 1531.48 1831.71 1531.29ZM1821.59 1540L1820 1540L1820 1538.41L1825 1533.41L1826.59 1535L1821.59 1540ZM1828 1533.59L1826.41 1532L1828 1530.41L1829.59 1532L1828 1533.59ZM1816 1534C1812.64 1534 1810 1531.36 1810 1528C1810 1524.64 1812.64 1522 1816 1522C1819.36 1522 1822 1524.64 1822 1528C1822 1531.36 1819.36 1534 1816 1534ZM1816 1524C1813.72 1524 1812 1525.72 1812 1528C1812 1530.28 1813.72 1532 1816 1532C1818.28 1532 1820 1530.28 1820 1528C1820 1525.72 1818.28 1524 1816 1524Z" fill="currentColor" fill-rule="nonzero" />
		<path id="Vector 1100" d="M1827.55 1524L1829.28 1523L1826.94 1518.96C1826.71 1518.56 1826.35 1518.25 1825.92 1518.08C1825.48 1517.92 1825.01 1517.91 1824.57 1518.06L1822.14 1518.89C1821.72 1518.6 1821.28 1518.35 1820.83 1518.13L1820.32 1515.61C1820.23 1515.15 1819.99 1514.75 1819.63 1514.45C1819.27 1514.16 1818.82 1514 1818.36 1514L1813.64 1514C1813.18 1514 1812.73 1514.16 1812.37 1514.45C1812.01 1514.75 1811.77 1515.15 1811.68 1515.61L1811.18 1518.13C1810.72 1518.35 1810.27 1518.6 1809.85 1518.88L1807.43 1518.06C1806.99 1517.91 1806.51 1517.92 1806.08 1518.08C1805.65 1518.25 1805.29 1518.56 1805.06 1518.96L1802.7 1523.04C1802.46 1523.44 1802.38 1523.91 1802.45 1524.37C1802.53 1524.82 1802.76 1525.24 1803.11 1525.55L1805.04 1527.24C1805.02 1527.49 1805 1527.74 1805 1528C1805 1528.26 1805.01 1528.51 1805.03 1528.77L1803.11 1530.45C1802.76 1530.76 1802.53 1531.18 1802.45 1531.63C1802.38 1532.09 1802.46 1532.56 1802.7 1532.96L1805.06 1537.04C1805.29 1537.44 1805.65 1537.75 1806.08 1537.92C1806.52 1538.08 1806.99 1538.09 1807.43 1537.94L1809.86 1537.11C1810.28 1537.4 1810.72 1537.65 1811.18 1537.87L1811.68 1540.39C1811.77 1540.85 1812.01 1541.25 1812.37 1541.55C1812.73 1541.84 1813.18 1542 1813.64 1542L1816 1542L1816 1540L1813.64 1540L1812.93 1536.45C1811.95 1536.09 1811.04 1535.55 1810.24 1534.88L1806.79 1536.04L1804.43 1531.96L1807.15 1529.56C1806.97 1528.53 1806.96 1527.47 1807.15 1526.43L1804.43 1524.04L1806.79 1519.96L1810.22 1521.12C1811.02 1520.44 1811.94 1519.91 1812.93 1519.55L1813.64 1516L1818.36 1516L1819.07 1519.55C1820.05 1519.91 1820.96 1520.45 1821.77 1521.12L1825.21 1519.96L1827.55 1524Z" fill="currentColor" fill-rule="nonzero" />
  </g>
</svg>

