<svg viewBox="0 0 32 32" xmlns="http://www.w3.org/2000/svg" fill="none">
  <g transform="translate(-1656.000122 -1512)">
<path id="Vector 1095" d="M1686 1520L1681.9 1520C1681.4 1517.7 1679.4 1516 1677 1516C1674.6 1516 1672.6 1517.7 1672.1 1520L1658 1520L1658 1522L1672.1 1522C1672.6 1524.3 1674.6 1526 1677 1526C1679.4 1526 1681.4 1524.3 1681.9 1522L1686 1522L1686 1520ZM1677 1524C1675.3 1524 1674 1522.7 1674 1521C1674 1519.3 1675.3 1518 1677 1518C1678.7 1518 1680 1519.3 1680 1521C1680 1522.7 1678.7 1524 1677 1524ZM1658 1536L1662.1 1536C1662.6 1538.3 1664.6 1540 1667 1540C1669.4 1540 1671.4 1538.3 1671.9 1536L1686 1536L1686 1534L1671.9 1534C1671.4 1531.7 1669.4 1530 1667 1530C1664.6 1530 1662.6 1531.7 1662.1 1534L1658 1534L1658 1536ZM1667 1532C1668.7 1532 1670 1533.3 1670 1535C1670 1536.7 1668.7 1538 1667 1538C1665.3 1538 1664 1536.7 1664 1535C1664 1533.3 1665.3 1532 1667 1532Z" fill="currentColor" fill-rule="nonzero" />
  </g>
</svg>

