<svg viewBox="0 0 32 32" xmlns="http://www.w3.org/2000/svg" fill="none">
  <g transform="translate(-1584.000122 -1512)">
<path id="Vector 1093" d="M1611 1528.76L1611 1527.23L1612.92 1525.55C1613.27 1525.24 1613.51 1524.81 1613.58 1524.34C1613.65 1523.88 1613.55 1523.4 1613.3 1523L1610.94 1519C1610.76 1518.7 1610.51 1518.44 1610.21 1518.27C1609.91 1518.09 1609.56 1518 1609.21 1518C1608.99 1518 1608.78 1518.03 1608.57 1518.1L1606.14 1518.92C1605.72 1518.64 1605.28 1518.39 1604.83 1518.17L1604.32 1515.65C1604.23 1515.19 1603.98 1514.78 1603.61 1514.48C1603.25 1514.19 1602.79 1514.03 1602.32 1514.04L1597.64 1514.04C1597.17 1514.03 1596.71 1514.19 1596.35 1514.48C1595.98 1514.78 1595.73 1515.19 1595.64 1515.65L1595.13 1518.17C1594.67 1518.39 1594.23 1518.64 1593.81 1518.92L1591.43 1518.06C1591.22 1518.01 1591.01 1517.99 1590.79 1518C1590.44 1518 1590.09 1518.09 1589.79 1518.27C1589.49 1518.44 1589.24 1518.7 1589.06 1519L1586.7 1523C1586.47 1523.4 1586.38 1523.87 1586.45 1524.33C1586.53 1524.79 1586.76 1525.2 1587.11 1525.51L1589 1527.24L1589 1528.77L1587.11 1530.45C1586.75 1530.76 1586.51 1531.18 1586.44 1531.65C1586.36 1532.12 1586.46 1532.59 1586.7 1533L1589.06 1537C1589.24 1537.3 1589.49 1537.56 1589.79 1537.73C1590.09 1537.91 1590.44 1538 1590.79 1538C1591.01 1538 1591.22 1537.97 1591.43 1537.9L1593.86 1537.08C1594.28 1537.36 1594.72 1537.61 1595.17 1537.83L1595.68 1540.35C1595.77 1540.81 1596.02 1541.22 1596.39 1541.52C1596.75 1541.81 1597.21 1541.97 1597.68 1541.96L1602.4 1541.96C1602.87 1541.97 1603.33 1541.81 1603.69 1541.52C1604.06 1541.22 1604.31 1540.81 1604.4 1540.35L1604.91 1537.83C1605.37 1537.61 1605.81 1537.36 1606.23 1537.08L1608.65 1537.9C1608.86 1537.97 1609.07 1538 1609.29 1538C1609.64 1538 1609.99 1537.91 1610.29 1537.73C1610.59 1537.56 1610.84 1537.3 1611.02 1537L1613.3 1533C1613.53 1532.6 1613.62 1532.13 1613.55 1531.67C1613.47 1531.21 1613.24 1530.8 1612.89 1530.49L1611 1528.76ZM1609.21 1536L1605.78 1534.84C1604.98 1535.52 1604.06 1536.05 1603.07 1536.41L1602.36 1540L1597.64 1540L1596.93 1536.45C1595.95 1536.08 1595.04 1535.55 1594.23 1534.88L1590.79 1536L1588.43 1532L1591.15 1529.6C1590.97 1528.56 1590.97 1527.51 1591.15 1526.47L1588.43 1524L1590.79 1520L1594.22 1521.16C1595.02 1520.48 1595.94 1519.95 1596.93 1519.59L1597.64 1516L1602.36 1516L1603.07 1519.55C1604.05 1519.92 1604.96 1520.45 1605.77 1521.12L1609.21 1520L1611.57 1524L1608.85 1526.4C1609.04 1527.44 1609.04 1528.49 1608.85 1529.53L1611.57 1532L1609.21 1536Z" fill="currentColor" fill-rule="nonzero" />
		<path id="Vector 1094" d="M1600 1534C1598.81 1534 1597.65 1533.65 1596.67 1532.99C1595.68 1532.33 1594.91 1531.39 1594.46 1530.3C1594 1529.2 1593.88 1527.99 1594.12 1526.83C1594.35 1525.67 1594.92 1524.6 1595.76 1523.76C1596.6 1522.92 1597.67 1522.35 1598.83 1522.12C1599.99 1521.88 1601.2 1522 1602.3 1522.46C1603.39 1522.91 1604.33 1523.68 1604.99 1524.67C1605.65 1525.65 1606 1526.81 1606 1528C1606.01 1528.79 1605.86 1529.57 1605.56 1530.31C1605.26 1531.04 1604.82 1531.7 1604.26 1532.26C1603.7 1532.82 1603.04 1533.26 1602.31 1533.56C1601.57 1533.86 1600.79 1534.01 1600 1534ZM1600 1524C1599.47 1523.99 1598.95 1524.08 1598.45 1524.28C1597.96 1524.48 1597.52 1524.77 1597.14 1525.14C1596.77 1525.52 1596.48 1525.96 1596.28 1526.45C1596.08 1526.95 1595.99 1527.47 1596 1528C1595.99 1528.53 1596.08 1529.05 1596.28 1529.55C1596.48 1530.04 1596.77 1530.48 1597.14 1530.86C1597.52 1531.23 1597.96 1531.52 1598.45 1531.72C1598.95 1531.92 1599.47 1532.01 1600 1532C1600.53 1532.01 1601.05 1531.92 1601.55 1531.72C1602.04 1531.52 1602.48 1531.23 1602.86 1530.86C1603.23 1530.48 1603.52 1530.04 1603.72 1529.55C1603.92 1529.05 1604.01 1528.53 1604 1528C1604.01 1527.47 1603.92 1526.95 1603.72 1526.45C1603.52 1525.96 1603.23 1525.52 1602.86 1525.14C1602.48 1524.77 1602.04 1524.48 1601.55 1524.28C1601.05 1524.08 1600.53 1523.99 1600 1524Z" fill="currentColor" fill-rule="nonzero" />
  </g>
</svg>

