<svg viewBox="0 0 32 32" xmlns="http://www.w3.org/2000/svg" fill="none">
  <g transform="translate(-0 -1584)">
<path id="Vector 1107" d="M19 1589C17.9835 1589 16.9722 1589.15 15.995 1589.43C15.021 1589.15 14.0131 1589 13 1589C6.935 1589 2 1593.94 2 1600C2 1606.06 6.935 1611 13 1611C14.04 1611 15.042 1610.85 15.995 1610.57C16.969 1610.85 17.977 1611 19 1611C25.065 1611 30 1606.06 30 1600C30 1593.94 25.065 1589 19 1589ZM23.95 1601L27.936 1601.03C27.8152 1602.08 27.5095 1603.1 27.033 1604.04L23.235 1604C23.607 1603.06 23.855 1602.05 23.95 1601ZM23.95 1599C23.8535 1597.97 23.6128 1596.96 23.235 1596L27.068 1596.04C27.5343 1596.98 27.8312 1597.99 27.945 1599.03L23.95 1599ZM25.711 1594.02L22.201 1593.99C21.4377 1592.83 20.4628 1591.82 19.327 1591.02C20.5391 1591.06 21.7298 1591.35 22.8271 1591.87C23.9244 1592.38 24.9055 1593.12 25.711 1594.02ZM4 1600C4 1595.04 8.037 1591 13 1591C17.963 1591 22 1595.04 22 1600C22 1604.96 17.963 1609 13 1609C8.037 1609 4 1604.96 4 1600ZM19.327 1608.98C20.4683 1608.18 21.4471 1607.16 22.212 1605.99L25.668 1606.02C24.8633 1606.92 23.8874 1607.64 22.7981 1608.15C21.7088 1608.66 20.5284 1608.94 19.327 1608.98Z" fill="currentColor" fill-rule="nonzero" />
  </g>
</svg>

