<svg viewBox="0 0 32 32" xmlns="http://www.w3.org/2000/svg" fill="none">
  <g transform="translate(-216 -1584)">
<path id="Vector 1111" d="M244 1594L238 1594L238 1588C237.999 1587.47 237.788 1586.96 237.413 1586.59C237.038 1586.21 236.53 1586 236 1586L220 1586C219.47 1586 218.962 1586.21 218.587 1586.59C218.212 1586.96 218.001 1587.47 218 1588L218 1604C218.001 1604.53 218.212 1605.04 218.587 1605.41C218.962 1605.79 219.47 1606 220 1606L226 1606L226 1612C226.001 1612.53 226.212 1613.04 226.587 1613.41C226.962 1613.79 227.47 1614 228 1614L244 1614C244.53 1614 245.038 1613.79 245.413 1613.41C245.788 1613.04 245.999 1612.53 246 1612L246 1596C245.999 1595.47 245.788 1594.96 245.413 1594.59C245.038 1594.21 244.53 1594 244 1594ZM220 1604L220 1588L236 1588L236 1594L228 1594C227.47 1594 226.962 1594.21 226.587 1594.59C226.212 1594.96 226.001 1595.47 226 1596L226 1604L220 1604ZM228 1612L228 1606L236 1606C236.53 1606 237.038 1605.79 237.413 1605.41C237.788 1605.04 237.999 1604.53 238 1604L238 1596L244 1596L244 1612L228 1612Z" fill="currentColor" fill-rule="nonzero" />
  </g>
</svg>

