<svg viewBox="0 0 32 32" xmlns="http://www.w3.org/2000/svg" fill="none">
  <g transform="translate(-288 -1584)">
<path id="Vector 1112" d="M316 1594L310 1594L310 1588C309.999 1587.47 309.788 1586.96 309.413 1586.59C309.038 1586.21 308.53 1586 308 1586L292 1586C291.47 1586 290.962 1586.21 290.587 1586.59C290.212 1586.96 290.001 1587.47 290 1588L290 1604C290.001 1604.53 290.212 1605.04 290.587 1605.41C290.962 1605.79 291.47 1606 292 1606L298 1606L298 1612C298.001 1612.53 298.212 1613.04 298.587 1613.41C298.962 1613.79 299.47 1614 300 1614L316 1614C316.53 1614 317.038 1613.79 317.413 1613.41C317.788 1613.04 317.999 1612.53 318 1612L318 1596C317.999 1595.47 317.788 1594.96 317.413 1594.59C317.038 1594.21 316.53 1594 316 1594ZM292 1604L292 1588L298 1588L298 1604L292 1604ZM310 1612L310 1596L316 1596L316 1612L310 1612Z" fill="currentColor" fill-rule="nonzero" />
  </g>
</svg>

