<svg viewBox="0 0 32 32" xmlns="http://www.w3.org/2000/svg" fill="none">
  <g transform="translate(-432 -1584)">
<path id="Vector 1114" d="M460 1594L454 1594L454 1588C454 1587.47 453.789 1586.96 453.414 1586.59C453.039 1586.21 452.53 1586 452 1586L436 1586C435.47 1586 434.961 1586.21 434.586 1586.59C434.211 1586.96 434 1587.47 434 1588L434 1604C434 1604.53 434.211 1605.04 434.586 1605.41C434.961 1605.79 435.47 1606 436 1606L442 1606L442 1612C442 1612.53 442.211 1613.04 442.586 1613.41C442.961 1613.79 443.47 1614 444 1614L460 1614C460.53 1614 461.039 1613.79 461.414 1613.41C461.789 1613.04 462 1612.53 462 1612L462 1596C462 1595.47 461.789 1594.96 461.414 1594.59C461.039 1594.21 460.53 1594 460 1594Z" fill="currentColor" fill-rule="nonzero" />
  </g>
</svg>

