<svg viewBox="0 0 32 32" xmlns="http://www.w3.org/2000/svg" fill="none">
  <g transform="translate(-144 -1584)">
<path id="Vector 1109" d="M156 1594L166 1594L166 1588C166 1587.47 165.789 1586.96 165.414 1586.59C165.039 1586.21 164.53 1586 164 1586L148 1586C147.47 1586 146.961 1586.21 146.586 1586.59C146.211 1586.96 146 1587.47 146 1588L146 1604C146 1604.53 146.211 1605.04 146.586 1605.41C146.961 1605.79 147.47 1606 148 1606L154 1606L154 1596C154 1595.47 154.211 1594.96 154.586 1594.59C154.961 1594.21 155.47 1594 156 1594Z" fill="currentColor" fill-rule="nonzero" />
		<path id="Vector 1110" d="M172 1594L166 1594L166 1604C166 1604.53 165.789 1605.04 165.414 1605.41C165.039 1605.79 164.53 1606 164 1606L154 1606L154 1612C154 1612.53 154.211 1613.04 154.586 1613.41C154.961 1613.79 155.47 1614 156 1614L172 1614C172.53 1614 173.039 1613.79 173.414 1613.41C173.789 1613.04 174 1612.53 174 1612L174 1596C174 1595.47 173.789 1594.96 173.414 1594.59C173.039 1594.21 172.53 1594 172 1594Z" fill="currentColor" fill-rule="nonzero" />
  </g>
</svg>

