<svg viewBox="0 0 32 32" xmlns="http://www.w3.org/2000/svg" fill="none">
  <g transform="translate(-360 -1584)">
<path id="Vector 1113" d="M365 1600L363 1600L363 1611C363 1611.53 363.211 1612.04 363.586 1612.41C363.961 1612.79 364.47 1613 365 1613L373 1613L373 1611L365 1611L365 1600ZM388 1613L377 1613C376.826 1613 376.655 1612.95 376.504 1612.87C376.354 1612.78 376.228 1612.66 376.139 1612.51C376.051 1612.36 376.003 1612.19 376 1612.02C375.998 1611.84 376.04 1611.67 376.124 1611.52L381.624 1601.52C381.709 1601.36 381.836 1601.23 381.99 1601.14C382.145 1601.05 382.321 1601 382.5 1601C382.843 1601 383.186 1601.17 383.376 1601.52L388.876 1611.52C388.96 1611.67 389.002 1611.84 389 1612.02C388.997 1612.19 388.949 1612.36 388.861 1612.51C388.772 1612.66 388.646 1612.78 388.496 1612.87C388.345 1612.95 388.174 1613 388 1613ZM378.691 1611L386.309 1611L382.5 1604.07L378.691 1611ZM387 1587L376 1587L376 1589L387 1589L387 1602.99L389 1602.99L389 1589C389 1588.47 388.789 1587.96 388.414 1587.59C388.039 1587.21 387.53 1587 387 1587ZM371 1587L365 1587C364.47 1587 363.961 1587.21 363.586 1587.59C363.211 1587.96 363 1588.47 363 1589L363 1595C363 1595.53 363.211 1596.04 363.586 1596.41C363.961 1596.79 364.47 1597 365 1597L371 1597C371.53 1597 372.039 1596.79 372.414 1596.41C372.789 1596.04 373 1595.53 373 1595L373 1589C373 1588.47 372.789 1587.96 372.414 1587.59C372.039 1587.21 371.53 1587 371 1587ZM371 1595L365 1595L365 1589L371 1589L371 1595Z" fill="currentColor" fill-rule="nonzero" />
  </g>
</svg>

