<svg viewBox="0 0 32 32" xmlns="http://www.w3.org/2000/svg" fill="none">
  <g transform="translate(-72 -1584)">
<path id="Vector 1108" d="M100 1594L94 1594L94 1588C94 1587.47 93.7893 1586.96 93.4142 1586.59C93.0391 1586.21 92.5304 1586 92 1586L76 1586C75.4698 1586 74.9616 1586.21 74.5867 1586.59C74.2118 1586.96 74.0008 1587.47 74 1588L74 1604C74.0008 1604.53 74.2118 1605.04 74.5867 1605.41C74.9616 1605.79 75.4698 1606 76 1606L82 1606L82 1612C82 1612.53 82.2107 1613.04 82.5858 1613.41C82.9609 1613.79 83.4696 1614 84 1614L100 1614C100.53 1614 101.039 1613.79 101.414 1613.41C101.789 1613.04 102 1612.53 102 1612L102 1596C102 1595.47 101.789 1594.96 101.414 1594.59C101.039 1594.21 100.53 1594 100 1594ZM84 1604L84 1596L92 1596L92 1604L84 1604ZM75.999 1588L92 1588L92 1594L84 1594C83.4696 1594 82.9609 1594.21 82.5858 1594.59C82.2107 1594.96 82 1595.47 82 1596L82 1604L76 1604L75.999 1588Z" fill="currentColor" fill-rule="nonzero" />
  </g>
</svg>

