<svg viewBox="0 0 32 32" xmlns="http://www.w3.org/2000/svg" fill="none">
  <g transform="translate(-504 -1584)">
<path id="Vector 1115" d="M527 1604C526.252 1604 525.513 1604.18 524.84 1604.5C524.167 1604.83 523.576 1605.3 523.11 1605.89L515.8 1601.32C516.066 1600.46 516.066 1599.54 515.8 1598.68L523.11 1594.11C523.852 1595.03 524.895 1595.66 526.055 1595.88C527.214 1596.1 528.416 1595.91 529.445 1595.33C530.476 1594.75 531.268 1593.83 531.682 1592.72C532.096 1591.62 532.106 1590.4 531.709 1589.29C531.312 1588.18 530.534 1587.24 529.513 1586.65C528.492 1586.05 527.294 1585.84 526.132 1586.04C524.969 1586.25 523.916 1586.86 523.16 1587.77C522.403 1588.67 521.993 1589.82 522 1591C522.005 1591.45 522.072 1591.89 522.2 1592.32L514.89 1596.89C514.245 1596.08 513.363 1595.49 512.366 1595.2C511.369 1594.91 510.308 1594.94 509.328 1595.28C508.348 1595.62 507.499 1596.26 506.898 1597.1C506.298 1597.95 505.975 1598.96 505.975 1600C505.975 1601.04 506.298 1602.05 506.898 1602.9C507.499 1603.74 508.348 1604.38 509.328 1604.72C510.308 1605.06 511.369 1605.09 512.366 1604.8C513.363 1604.51 514.245 1603.92 514.89 1603.11L522.2 1607.68C522.072 1608.11 522.005 1608.55 522 1609C522 1609.99 522.293 1610.96 522.843 1611.78C523.392 1612.6 524.173 1613.24 525.087 1613.62C526 1614 527.005 1614.1 527.976 1613.9C528.945 1613.71 529.836 1613.23 530.536 1612.54C531.235 1611.84 531.711 1610.95 531.904 1609.98C532.097 1609.01 531.998 1608 531.619 1607.09C531.241 1606.17 530.6 1605.39 529.778 1604.84C528.956 1604.29 527.989 1604 527 1604ZM527 1588C527.593 1588 528.173 1588.18 528.667 1588.51C529.16 1588.84 529.545 1589.3 529.772 1589.85C529.999 1590.4 530.058 1591 529.942 1591.59C529.827 1592.17 529.541 1592.7 529.121 1593.12C528.702 1593.54 528.167 1593.83 527.585 1593.94C527.003 1594.06 526.4 1594 525.852 1593.77C525.304 1593.54 524.835 1593.16 524.506 1592.67C524.176 1592.17 524 1591.59 524 1591C524 1590.2 524.316 1589.44 524.879 1588.88C525.441 1588.32 526.204 1588 527 1588ZM511 1603C510.407 1603 509.827 1602.82 509.333 1602.49C508.84 1602.16 508.455 1601.7 508.228 1601.15C508.001 1600.6 507.942 1600 508.058 1599.41C508.173 1598.83 508.459 1598.3 508.879 1597.88C509.298 1597.46 509.833 1597.17 510.415 1597.06C510.997 1596.94 511.6 1597 512.148 1597.23C512.696 1597.46 513.165 1597.84 513.494 1598.33C513.824 1598.83 514 1599.41 514 1600C514 1600.8 513.684 1601.56 513.121 1602.12C512.559 1602.68 511.796 1603 511 1603ZM527 1612C526.407 1612 525.827 1611.82 525.333 1611.49C524.84 1611.16 524.455 1610.7 524.228 1610.15C524.001 1609.6 523.942 1609 524.058 1608.41C524.173 1607.83 524.459 1607.3 524.879 1606.88C525.298 1606.46 525.833 1606.17 526.415 1606.06C526.997 1605.94 527.6 1606 528.148 1606.23C528.696 1606.46 529.165 1606.84 529.494 1607.33C529.824 1607.83 530 1608.41 530 1609C530 1609.8 529.684 1610.56 529.121 1611.12C528.559 1611.68 527.796 1612 527 1612Z" fill="currentColor" fill-rule="nonzero" />
  </g>
</svg>

