<svg viewBox="0 0 32 32" xmlns="http://www.w3.org/2000/svg" fill="none">
  <g transform="translate(-576 -1584)">
<path id="Vector 1116" d="M603 1609L597 1609C596.204 1609 595.441 1609.32 594.879 1609.88C594.316 1610.44 594 1611.2 594 1612L594 1614L596 1614L596 1612C596 1611.73 596.105 1611.48 596.293 1611.29C596.48 1611.11 596.735 1611 597 1611L603 1611C603.265 1611 603.52 1611.11 603.707 1611.29C603.895 1611.48 604 1611.73 604 1612L604 1614L606 1614L606 1612C606 1611.2 605.684 1610.44 605.121 1609.88C604.559 1609.32 603.796 1609 603 1609ZM596 1604C596 1604.79 596.235 1605.56 596.674 1606.22C597.114 1606.88 597.738 1607.39 598.469 1607.7C599.2 1608 600.004 1608.08 600.78 1607.92C601.556 1607.77 602.269 1607.39 602.828 1606.83C603.388 1606.27 603.769 1605.56 603.923 1604.78C604.078 1604 603.998 1603.2 603.695 1602.47C603.393 1601.74 602.88 1601.11 602.222 1600.67C601.565 1600.23 600.791 1600 600 1600C598.939 1600 597.922 1600.42 597.172 1601.17C596.421 1601.92 596 1602.94 596 1604ZM602 1604C602 1604.4 601.883 1604.78 601.663 1605.11C601.443 1605.44 601.131 1605.7 600.765 1605.85C600.4 1606 599.998 1606.04 599.61 1605.96C599.222 1605.88 598.865 1605.69 598.586 1605.41C598.306 1605.13 598.116 1604.78 598.038 1604.39C597.961 1604 598.001 1603.6 598.152 1603.23C598.304 1602.87 598.56 1602.56 598.889 1602.34C599.218 1602.12 599.604 1602 600 1602C600.53 1602 601.039 1602.21 601.414 1602.59C601.789 1602.96 602 1603.47 602 1604ZM582 1605L582 1604L580 1604L580 1605C580 1606.86 580.737 1608.64 582.05 1609.95C583.363 1611.26 585.143 1612 587 1612L590 1612L590 1610L587 1610C585.674 1610 584.402 1609.47 583.464 1608.54C582.527 1607.6 582 1606.33 582 1605ZM595 1594L602 1594L602 1596L595 1596L595 1594ZM595 1590L605 1590L605 1592L595 1592L595 1590ZM595 1586L605 1586L605 1588L595 1588L595 1586ZM587 1595L581 1595C580.204 1595 579.441 1595.32 578.879 1595.88C578.316 1596.44 578 1597.2 578 1598L578 1600L580 1600L580 1598C580 1597.73 580.105 1597.48 580.293 1597.29C580.48 1597.11 580.735 1597 581 1597L587 1597C587.265 1597 587.52 1597.11 587.707 1597.29C587.895 1597.48 588 1597.73 588 1598L588 1600L590 1600L590 1598C590 1597.2 589.684 1596.44 589.121 1595.88C588.559 1595.32 587.796 1595 587 1595ZM584 1594C584.791 1594 585.564 1593.77 586.222 1593.33C586.88 1592.89 587.393 1592.26 587.695 1591.53C587.998 1590.8 588.078 1590 587.923 1589.22C587.769 1588.44 587.388 1587.73 586.828 1587.17C586.269 1586.61 585.556 1586.23 584.78 1586.08C584.004 1585.92 583.2 1586 582.469 1586.3C581.738 1586.61 581.114 1587.12 580.674 1587.78C580.235 1588.44 580 1589.21 580 1590C580 1591.06 580.421 1592.08 581.172 1592.83C581.922 1593.58 582.939 1594 584 1594ZM584 1588C584.396 1588 584.782 1588.12 585.111 1588.34C585.44 1588.56 585.696 1588.87 585.848 1589.23C585.999 1589.6 586.039 1590 585.962 1590.39C585.884 1590.78 585.694 1591.13 585.414 1591.41C585.135 1591.69 584.778 1591.88 584.39 1591.96C584.002 1592.04 583.6 1592 583.235 1591.85C582.869 1591.7 582.557 1591.44 582.337 1591.11C582.117 1590.78 582 1590.4 582 1590C582 1589.47 582.211 1588.96 582.586 1588.59C582.961 1588.21 583.47 1588 584 1588Z" fill="currentColor" fill-rule="nonzero" />
  </g>
</svg>

