<svg viewBox="0 0 32 32" xmlns="http://www.w3.org/2000/svg" fill="none">
  <g transform="translate(-936 -1584)">
<path id="Vector 1129" d="M946 1614C947.105 1614 948 1613.1 948 1612C948 1610.9 947.105 1610 946 1610C944.895 1610 944 1610.9 944 1612C944 1613.1 944.895 1614 946 1614Z" fill="currentColor" fill-rule="nonzero" />
		<path id="Vector 1130" d="M960 1614C961.105 1614 962 1613.1 962 1612C962 1610.9 961.105 1610 960 1610C958.895 1610 958 1610.9 958 1612C958 1613.1 958.895 1614 960 1614Z" fill="currentColor" fill-rule="nonzero" />
		<path id="Vector 1131" d="M940.98 1586.8C940.935 1586.58 940.812 1586.37 940.634 1586.23C940.455 1586.08 940.231 1586 940 1586L936 1586L936 1588L939.18 1588L943.02 1607.2C943.065 1607.42 943.188 1607.63 943.366 1607.77C943.545 1607.92 943.769 1608 944 1608L962 1608L962 1606L944.82 1606L944.02 1602L962 1602C962.227 1602 962.448 1601.92 962.626 1601.78C962.803 1601.64 962.927 1601.44 962.976 1601.22L965.244 1591L963.197 1591L961.198 1600L943.62 1600L940.98 1586.8Z" fill="currentColor" fill-rule="nonzero" />
		<path id="Vector 1132" d="M954.41 1592L958 1588.41L956.59 1587L953 1590.59L949.41 1587L948 1588.41L951.59 1592L948 1595.59L949.41 1597L953 1593.41L956.59 1597L958 1595.59L954.41 1592Z" fill="currentColor" fill-rule="nonzero" />
  </g>
</svg>

