<svg viewBox="0 0 32 32" xmlns="http://www.w3.org/2000/svg" fill="none">
  <g transform="translate(-1080 -1584)">
<path id="Vector 1137" d="M1090 1614C1091.1 1614 1092 1613.1 1092 1612C1092 1610.9 1091.1 1610 1090 1610C1088.9 1610 1088 1610.9 1088 1612C1088 1613.1 1088.9 1614 1090 1614Z" fill="currentColor" fill-rule="nonzero" />
		<path id="Vector 1138" d="M1104 1614C1105.1 1614 1106 1613.1 1106 1612C1106 1610.9 1105.1 1610 1104 1610C1102.9 1610 1102 1610.9 1102 1612C1102 1613.1 1102.9 1614 1104 1614Z" fill="currentColor" fill-rule="nonzero" />
		<path id="Vector 1139" d="M1084.98 1586.8C1084.93 1586.58 1084.81 1586.37 1084.63 1586.23C1084.45 1586.08 1084.23 1586 1084 1586L1080 1586L1080 1588L1083.18 1588L1087.02 1607.2C1087.07 1607.42 1087.19 1607.63 1087.37 1607.77C1087.55 1607.92 1087.77 1608 1088 1608L1106 1608L1106 1606L1088.82 1606L1088.02 1602L1106 1602C1106.23 1602 1106.45 1601.92 1106.63 1601.78C1106.8 1601.64 1106.93 1601.44 1106.98 1601.22L1109.24 1591L1107.2 1591L1105.2 1600L1087.62 1600L1084.98 1586.8Z" fill="currentColor" fill-rule="nonzero" />
		<path id="Vector 1140" d="M1092 1590L1092 1592L1102 1592L1102 1590L1092 1590Z" fill="currentColor" fill-rule="nonzero" />
  </g>
</svg>

