<svg viewBox="0 0 32 32" xmlns="http://www.w3.org/2000/svg" fill="none">
  <g transform="translate(-792 -1584)">
<path id="Vector 1121" d="M802 1614C803.105 1614 804 1613.1 804 1612C804 1610.9 803.105 1610 802 1610C800.895 1610 800 1610.9 800 1612C800 1613.1 800.895 1614 802 1614Z" fill="currentColor" fill-rule="nonzero" />
		<path id="Vector 1122" d="M816 1614C817.105 1614 818 1613.1 818 1612C818 1610.9 817.105 1610 816 1610C814.895 1610 814 1610.9 814 1612C814 1613.1 814.895 1614 816 1614Z" fill="currentColor" fill-rule="nonzero" />
		<path id="Vector 1123" d="M796.98 1586.8C796.935 1586.58 796.812 1586.37 796.634 1586.23C796.455 1586.08 796.231 1586 796 1586L792 1586L792 1588L795.18 1588L799.02 1607.2C799.065 1607.42 799.188 1607.63 799.366 1607.77C799.545 1607.92 799.769 1608 800 1608L818 1608L818 1606L800.82 1606L800.02 1602L818 1602C818.227 1602 818.448 1601.92 818.626 1601.78C818.803 1601.64 818.927 1601.44 818.976 1601.22L821.244 1591L819.197 1591L817.198 1600L799.62 1600L796.98 1586.8Z" fill="currentColor" fill-rule="nonzero" />
		<path id="Vector 1124" d="M813.586 1590.59L810 1594.17L810 1586L808 1586L808 1594.17L804.414 1590.59L803 1592L809 1598L815 1592L813.586 1590.59Z" fill="currentColor" fill-rule="nonzero" />
  </g>
</svg>

