<svg viewBox="0 0 32 32" xmlns="http://www.w3.org/2000/svg" fill="none">
  <g transform="translate(-648 -1584)">
<path id="Vector 1117" d="M676.76 1595.35C676.666 1595.24 676.55 1595.15 676.418 1595.09C676.287 1595.03 676.144 1595 676 1595L670 1595L670 1591C670 1590.2 669.684 1589.44 669.121 1588.88C668.559 1588.32 667.796 1588 667 1588L661 1588C660.204 1588 659.441 1588.32 658.879 1588.88C658.316 1589.44 658 1590.2 658 1591L658 1595L652 1595C651.855 1595 651.711 1595.03 651.579 1595.09C651.447 1595.15 651.329 1595.23 651.234 1595.34C651.139 1595.45 651.069 1595.58 651.028 1595.72C650.988 1595.86 650.978 1596.01 651 1596.15L652.88 1608.3C652.952 1608.78 653.195 1609.21 653.562 1609.52C653.93 1609.84 654.398 1610.01 654.88 1610L673.14 1610C673.622 1610.01 674.09 1609.84 674.458 1609.52C674.825 1609.21 675.068 1608.78 675.14 1608.3L677 1596.15C677.02 1596.01 677.009 1595.86 676.967 1595.72C676.926 1595.59 676.855 1595.46 676.76 1595.35ZM660 1591C660 1590.73 660.105 1590.48 660.293 1590.29C660.48 1590.11 660.735 1590 661 1590L667 1590C667.265 1590 667.52 1590.11 667.707 1590.29C667.895 1590.48 668 1590.73 668 1591L668 1595L660 1595L660 1591ZM673.14 1608L654.86 1608L653.17 1597L674.83 1597L673.14 1608Z" fill="currentColor" fill-rule="nonzero" />
  </g>
</svg>

