<svg viewBox="0 0 32 32" xmlns="http://www.w3.org/2000/svg" fill="none">
  <g transform="translate(-1152 -1584)">
<path id="Vector 1141" d="M1162 1614C1163.1 1614 1164 1613.1 1164 1612C1164 1610.9 1163.1 1610 1162 1610C1160.9 1610 1160 1610.9 1160 1612C1160 1613.1 1160.9 1614 1162 1614Z" fill="currentColor" fill-rule="nonzero" />
		<path id="Vector 1142" d="M1176 1614C1177.1 1614 1178 1613.1 1178 1612C1178 1610.9 1177.1 1610 1176 1610C1174.9 1610 1174 1610.9 1174 1612C1174 1613.1 1174.9 1614 1176 1614Z" fill="currentColor" fill-rule="nonzero" />
		<path id="Vector 1143" d="M1156.98 1586.8C1156.93 1586.58 1156.81 1586.37 1156.63 1586.23C1156.45 1586.08 1156.23 1586 1156 1586L1152 1586L1152 1588L1155.18 1588L1159.02 1607.2C1159.07 1607.42 1159.19 1607.63 1159.37 1607.77C1159.55 1607.92 1159.77 1608 1160 1608L1178 1608L1178 1606L1160.82 1606L1160.02 1602L1178 1602C1178.23 1602 1178.45 1601.92 1178.63 1601.78C1178.8 1601.64 1178.93 1601.44 1178.98 1601.22L1181.24 1591L1179.2 1591L1177.2 1600L1159.62 1600L1156.98 1586.8Z" fill="currentColor" fill-rule="nonzero" />
		<path id="Vector 1144" d="M1170 1590L1170 1586L1168 1586L1168 1590L1164 1590L1164 1592L1168 1592L1168 1596L1170 1596L1170 1592L1174 1592L1174 1590L1170 1590Z" fill="currentColor" fill-rule="nonzero" />
  </g>
</svg>

