<svg viewBox="0 0 32 32" xmlns="http://www.w3.org/2000/svg" fill="none">
  <g transform="translate(-720 -1584)">
<path id="Vector 1118" d="M730 1614C731.105 1614 732 1613.1 732 1612C732 1610.9 731.105 1610 730 1610C728.895 1610 728 1610.9 728 1612C728 1613.1 728.895 1614 730 1614Z" fill="currentColor" fill-rule="nonzero" />
		<path id="Vector 1119" d="M744 1614C745.105 1614 746 1613.1 746 1612C746 1610.9 745.105 1610 744 1610C742.895 1610 742 1610.9 742 1612C742 1613.1 742.895 1614 744 1614Z" fill="currentColor" fill-rule="nonzero" />
		<path id="Vector 1120" d="M748 1591L725.82 1591L725 1586.8C724.953 1586.57 724.828 1586.37 724.645 1586.22C724.462 1586.07 724.234 1586 724 1586L720 1586L720 1588L723.18 1588L727 1607.2C727.047 1607.43 727.172 1607.63 727.355 1607.78C727.538 1607.93 727.766 1608 728 1608L746 1608L746 1606L728.82 1606L728 1602L746 1602C746.231 1602.01 746.457 1601.93 746.64 1601.79C746.822 1601.65 746.949 1601.45 747 1601.22L749 1592.22C749.034 1592.07 749.033 1591.92 748.998 1591.77C748.963 1591.62 748.894 1591.48 748.798 1591.37C748.701 1591.25 748.58 1591.15 748.441 1591.09C748.303 1591.03 748.152 1591 748 1591ZM745.2 1600L727.62 1600L726.22 1593L746.75 1593L745.2 1600Z" fill="currentColor" fill-rule="nonzero" />
  </g>
</svg>

