<svg viewBox="0 0 32 32" xmlns="http://www.w3.org/2000/svg" fill="none">
  <g transform="translate(-1224 -1584)">
<path id="Vector 1145" d="M1241 1608L1245 1608L1245 1612L1241 1612L1241 1608ZM1248 1608L1252 1608L1252 1612L1248 1612L1248 1608ZM1241 1601L1245 1601L1245 1605L1241 1605L1241 1601ZM1248 1601L1252 1601L1252 1605L1248 1605L1248 1601Z" fill="currentColor" fill-rule="nonzero" />
		<path id="Vector 1146" d="M1252 1595L1246 1595L1246 1591C1246 1589.3 1244.7 1588 1243 1588L1237 1588C1235.3 1588 1234 1589.3 1234 1591L1234 1595L1228 1595C1227.4 1595 1227 1595.4 1227 1596L1227 1596.2L1228.9 1608.3C1229 1609.3 1229.9 1610 1230.9 1610L1239 1610L1239 1608L1230.9 1608L1229.2 1597L1252 1597L1252 1595ZM1236 1591C1236 1590.4 1236.4 1590 1237 1590L1243 1590C1243.6 1590 1244 1590.4 1244 1591L1244 1595L1236 1595L1236 1591Z" fill="currentColor" fill-rule="nonzero" />
  </g>
</svg>

