<svg viewBox="0 0 32 32" xmlns="http://www.w3.org/2000/svg" fill="none">
  <g transform="translate(-1008 -1584)">
<path id="Vector 1133" d="M1018 1614C1019.1 1614 1020 1613.1 1020 1612C1020 1610.9 1019.1 1610 1018 1610C1016.9 1610 1016 1610.9 1016 1612C1016 1613.1 1016.9 1614 1018 1614Z" fill="currentColor" fill-rule="nonzero" />
		<path id="Vector 1134" d="M1032 1614C1033.1 1614 1034 1613.1 1034 1612C1034 1610.9 1033.1 1610 1032 1610C1030.9 1610 1030 1610.9 1030 1612C1030 1613.1 1030.9 1614 1032 1614Z" fill="currentColor" fill-rule="nonzero" />
		<path id="Vector 1135" d="M1012.98 1586.8C1012.93 1586.58 1012.81 1586.37 1012.63 1586.23C1012.46 1586.08 1012.23 1586 1012 1586L1008 1586L1008 1588L1011.18 1588L1015.02 1607.2C1015.07 1607.42 1015.19 1607.63 1015.37 1607.77C1015.54 1607.92 1015.77 1608 1016 1608L1034 1608L1034 1606L1016.82 1606L1016.02 1602L1034 1602C1034.23 1602 1034.45 1601.92 1034.63 1601.78C1034.8 1601.64 1034.93 1601.44 1034.98 1601.22L1037.24 1591L1035.2 1591L1033.2 1600L1015.62 1600L1012.98 1586.8Z" fill="currentColor" fill-rule="nonzero" />
		<path id="Vector 1136" d="M1025 1586C1023.81 1586 1022.65 1586.35 1021.67 1587.01C1020.68 1587.67 1019.91 1588.61 1019.46 1589.7C1019 1590.8 1018.88 1592.01 1019.12 1593.17C1019.35 1594.33 1019.92 1595.4 1020.76 1596.24C1021.6 1597.08 1022.67 1597.65 1023.83 1597.88C1024.99 1598.12 1026.2 1598 1027.3 1597.54C1028.39 1597.09 1029.33 1596.32 1029.99 1595.33C1030.65 1594.35 1031 1593.19 1031 1592C1031 1590.41 1030.37 1588.88 1029.24 1587.76C1028.12 1586.63 1026.59 1586 1025 1586ZM1025 1588C1025.71 1588 1026.41 1588.2 1027.02 1588.57L1021.57 1594.02C1021.2 1593.41 1021 1592.71 1021 1592C1021 1590.94 1021.42 1589.92 1022.17 1589.17C1022.92 1588.42 1023.94 1588 1025 1588ZM1025 1596C1024.29 1596 1023.59 1595.8 1022.98 1595.43L1028.43 1589.98C1028.8 1590.59 1029 1591.29 1029 1592C1029 1593.06 1028.58 1594.08 1027.83 1594.83C1027.08 1595.58 1026.06 1596 1025 1596Z" fill="currentColor" fill-rule="nonzero" />
  </g>
</svg>

