<svg viewBox="0 0 32 32" xmlns="http://www.w3.org/2000/svg" fill="none">
  <g transform="translate(-864 -1584)">
<path id="Vector 1125" d="M874 1614C875.105 1614 876 1613.1 876 1612C876 1610.9 875.105 1610 874 1610C872.895 1610 872 1610.9 872 1612C872 1613.1 872.895 1614 874 1614Z" fill="currentColor" fill-rule="nonzero" />
		<path id="Vector 1126" d="M888 1614C889.105 1614 890 1613.1 890 1612C890 1610.9 889.105 1610 888 1610C886.895 1610 886 1610.9 886 1612C886 1613.1 886.895 1614 888 1614Z" fill="currentColor" fill-rule="nonzero" />
		<path id="Vector 1127" d="M868.98 1586.8C868.935 1586.58 868.812 1586.37 868.634 1586.23C868.455 1586.08 868.231 1586 868 1586L864 1586L864 1588L867.18 1588L871.02 1607.2C871.065 1607.42 871.188 1607.63 871.366 1607.77C871.545 1607.92 871.769 1608 872 1608L890 1608L890 1606L872.82 1606L872.02 1602L890 1602C890.227 1602 890.448 1601.92 890.626 1601.78C890.803 1601.64 890.927 1601.44 890.976 1601.22L893.244 1591L891.197 1591L889.198 1600L871.62 1600L868.98 1586.8Z" fill="currentColor" fill-rule="nonzero" />
		<path id="Vector 1128" d="M885.586 1593.41L882 1589.83L882 1598L880 1598L880 1589.83L876.414 1593.41L875 1592L881 1586L887 1592L885.586 1593.41Z" fill="currentColor" fill-rule="nonzero" />
  </g>
</svg>

