<svg viewBox="0 0 32 32" xmlns="http://www.w3.org/2000/svg" fill="none">
  <g transform="translate(-1296 -1584)">
<path id="Vector 1147" d="M1324 1594L1300 1594C1299.47 1594 1298.96 1593.79 1298.59 1593.41C1298.21 1593.04 1298 1592.53 1298 1592L1298 1588C1298 1587.47 1298.21 1586.96 1298.59 1586.59C1298.96 1586.21 1299.47 1586 1300 1586L1324 1586C1324.53 1586 1325.04 1586.21 1325.41 1586.59C1325.79 1586.96 1326 1587.47 1326 1588L1326 1592C1326 1592.53 1325.79 1593.04 1325.41 1593.41C1325.04 1593.79 1324.53 1594 1324 1594ZM1300 1588L1300 1592L1324 1592L1324 1588L1300 1588ZM1324 1614L1300 1614C1299.47 1614 1298.96 1613.79 1298.59 1613.41C1298.21 1613.04 1298 1612.53 1298 1612L1298 1608C1298 1607.47 1298.21 1606.96 1298.59 1606.59C1298.96 1606.21 1299.47 1606 1300 1606L1324 1606C1324.53 1606 1325.04 1606.21 1325.41 1606.59C1325.79 1606.96 1326 1607.47 1326 1608L1326 1612C1326 1612.53 1325.79 1613.04 1325.41 1613.41C1325.04 1613.79 1324.53 1614 1324 1614ZM1300 1608L1300 1612L1324 1612L1324 1608L1300 1608ZM1324 1604L1300 1604C1299.47 1604 1298.96 1603.79 1298.59 1603.41C1298.21 1603.04 1298 1602.53 1298 1602L1298 1598C1298 1597.47 1298.21 1596.96 1298.59 1596.59C1298.96 1596.21 1299.47 1596 1300 1596L1324 1596C1324.53 1596 1325.04 1596.21 1325.41 1596.59C1325.79 1596.96 1326 1597.47 1326 1598L1326 1602C1326 1602.53 1325.79 1603.04 1325.41 1603.41C1325.04 1603.79 1324.53 1604 1324 1604ZM1300 1598L1300 1602L1324 1602L1324 1598L1300 1598Z" fill="currentColor" fill-rule="nonzero" />
  </g>
</svg>

