<svg viewBox="0 0 32 32" xmlns="http://www.w3.org/2000/svg" fill="none">
  <g transform="translate(-1368.000122 -1584)">
<path id="Vector 1148" d="M1396 1612L1385 1612C1384.47 1612 1383.96 1611.79 1383.59 1611.41C1383.21 1611.04 1383 1610.53 1383 1610L1383 1604C1383 1603.47 1383.21 1602.96 1383.59 1602.59C1383.96 1602.21 1384.47 1602 1385 1602L1396 1602C1396.53 1602 1397.04 1602.21 1397.41 1602.59C1397.79 1602.96 1398 1603.47 1398 1604L1398 1610C1398 1610.53 1397.79 1611.04 1397.41 1611.41C1397.04 1611.79 1396.53 1612 1396 1612ZM1385 1604L1385 1610L1396 1610L1396 1604L1385 1604ZM1380 1594L1380 1597.59L1375.71 1593.29L1374.29 1594.71L1378.59 1599L1375 1599L1375 1601L1382 1601L1382 1594L1380 1594Z" fill="currentColor" fill-rule="nonzero" />
		<path id="Vector 1149" d="M1381 1606L1372 1606C1371.47 1606 1370.96 1605.79 1370.59 1605.41C1370.21 1605.04 1370 1604.53 1370 1604L1370 1591C1370 1590.47 1370.21 1589.96 1370.59 1589.59C1370.96 1589.21 1371.47 1589 1372 1589L1394 1589C1394.53 1589 1395.04 1589.21 1395.41 1589.59C1395.79 1589.96 1396 1590.47 1396 1591L1396 1600L1394 1600L1394 1591L1372 1591L1372 1604L1381 1604L1381 1606Z" fill="currentColor" fill-rule="nonzero" />
  </g>
</svg>

