<svg viewBox="0 0 32 32" xmlns="http://www.w3.org/2000/svg" fill="none">
  <g transform="translate(-1440.000122 -1584)">
<path id="Vector 1150" d="M1468 1602L1457 1602C1455.9 1602 1455 1602.9 1455 1604L1455 1610C1455 1611.1 1455.9 1612 1457 1612L1468 1612C1469.1 1612 1470 1611.1 1470 1610L1470 1604C1470 1602.9 1469.1 1602 1468 1602Z" fill="currentColor" fill-rule="nonzero" />
		<path id="Vector 1151" d="M1452 1594L1452 1597.59L1447.71 1593.29L1446.29 1594.71L1450.59 1599L1447 1599L1447 1601L1454 1601L1454 1594L1452 1594Z" fill="currentColor" fill-rule="nonzero" />
		<path id="Vector 1152" d="M1453 1606L1444 1606C1443.47 1606 1442.96 1605.79 1442.59 1605.41C1442.21 1605.04 1442 1604.53 1442 1604L1442 1591C1442 1590.47 1442.21 1589.96 1442.59 1589.59C1442.96 1589.21 1443.47 1589 1444 1589L1466 1589C1466.53 1589 1467.04 1589.21 1467.41 1589.59C1467.79 1589.96 1468 1590.47 1468 1591L1468 1600L1466 1600L1466 1591L1444 1591L1444 1604L1453 1604L1453 1606Z" fill="currentColor" fill-rule="nonzero" />
  </g>
</svg>

