<svg viewBox="0 0 32 32" xmlns="http://www.w3.org/2000/svg" fill="none">
  <g transform="translate(-1512.000122 -1584)">
<path id="Vector 1153" d="M1534.59 1603.41L1538.17 1607L1531.55 1607L1527.18 1600L1531.55 1593L1538.17 1593L1534.59 1596.59L1536 1598L1542 1592L1536 1586L1534.59 1587.41L1538.17 1591L1531.55 1591C1531.21 1591 1530.88 1591.09 1530.58 1591.25C1530.29 1591.42 1530.04 1591.65 1529.86 1591.94L1526 1598.11L1522.14 1591.94C1521.96 1591.65 1521.71 1591.42 1521.42 1591.25C1521.12 1591.09 1520.79 1591 1520.45 1591L1514 1591L1514 1593L1520.45 1593L1524.82 1600L1520.45 1607L1514 1607L1514 1609L1520.45 1609C1520.79 1609 1521.12 1608.91 1521.42 1608.75C1521.71 1608.58 1521.96 1608.35 1522.14 1608.06L1526 1601.89L1529.86 1608.06C1530.04 1608.35 1530.29 1608.58 1530.58 1608.75C1530.88 1608.91 1531.21 1609 1531.55 1609L1538.17 1609L1534.59 1612.59L1536 1614L1542 1608L1536 1602L1534.59 1603.41Z" fill="currentColor" fill-rule="nonzero" />
  </g>
</svg>

