<svg viewBox="0 0 32 32" xmlns="http://www.w3.org/2000/svg" fill="none">
  <g transform="translate(-1584.000122 -1584)">
<path id="Vector 1154" d="M1613.81 1600L1606.81 1590.44C1606.72 1590.31 1606.6 1590.2 1606.46 1590.12C1606.32 1590.04 1606.16 1590 1606 1590L1587 1590C1586.73 1590 1586.48 1590.11 1586.29 1590.29C1586.11 1590.48 1586 1590.73 1586 1591L1586 1608C1586 1608.27 1586.11 1608.52 1586.29 1608.71C1586.48 1608.89 1586.73 1609 1587 1609L1589.14 1609C1589.37 1609.85 1589.87 1610.6 1590.57 1611.13C1591.27 1611.66 1592.12 1611.95 1593 1611.95C1593.88 1611.95 1594.73 1611.66 1595.43 1611.13C1596.13 1610.6 1596.63 1609.85 1596.86 1609L1603.14 1609C1603.37 1609.85 1603.87 1610.6 1604.57 1611.13C1605.27 1611.66 1606.12 1611.95 1607 1611.95C1607.88 1611.95 1608.73 1611.66 1609.43 1611.13C1610.13 1610.6 1610.63 1609.85 1610.86 1609L1613 1609C1613.27 1609 1613.52 1608.89 1613.71 1608.71C1613.89 1608.52 1614 1608.27 1614 1608L1614 1600.56C1613.99 1600.36 1613.93 1600.16 1613.81 1600ZM1604 1592L1605.49 1592L1610.62 1599L1604 1599L1604 1592ZM1588 1592L1602 1592L1602 1599L1588 1599L1588 1592ZM1593 1610C1592.6 1610 1592.22 1609.88 1591.89 1609.66C1591.56 1609.44 1591.3 1609.13 1591.15 1608.77C1591 1608.4 1590.96 1608 1591.04 1607.61C1591.12 1607.22 1591.31 1606.87 1591.59 1606.59C1591.87 1606.31 1592.22 1606.12 1592.61 1606.04C1593 1605.96 1593.4 1606 1593.77 1606.15C1594.13 1606.3 1594.44 1606.56 1594.66 1606.89C1594.88 1607.22 1595 1607.6 1595 1608C1595 1608.53 1594.79 1609.04 1594.41 1609.41C1594.04 1609.79 1593.53 1610 1593 1610ZM1607 1610C1606.6 1610 1606.22 1609.88 1605.89 1609.66C1605.56 1609.44 1605.3 1609.13 1605.15 1608.77C1605 1608.4 1604.96 1608 1605.04 1607.61C1605.12 1607.22 1605.31 1606.87 1605.59 1606.59C1605.87 1606.31 1606.22 1606.12 1606.61 1606.04C1607 1605.96 1607.4 1606 1607.77 1606.15C1608.13 1606.3 1608.44 1606.56 1608.66 1606.89C1608.88 1607.22 1609 1607.6 1609 1608C1609 1608.53 1608.79 1609.04 1608.41 1609.41C1608.04 1609.79 1607.53 1610 1607 1610ZM1612 1607L1610.86 1607C1610.63 1606.15 1610.13 1605.4 1609.43 1604.87C1608.73 1604.34 1607.88 1604.05 1607 1604.05C1606.12 1604.05 1605.27 1604.34 1604.57 1604.87C1603.87 1605.4 1603.37 1606.15 1603.14 1607L1596.86 1607C1596.63 1606.15 1596.13 1605.4 1595.43 1604.87C1594.73 1604.34 1593.88 1604.05 1593 1604.05C1592.12 1604.05 1591.27 1604.34 1590.57 1604.87C1589.87 1605.4 1589.37 1606.15 1589.14 1607L1588 1607L1588 1601L1612 1601L1612 1607Z" fill="currentColor" fill-rule="nonzero" />
  </g>
</svg>

