<svg viewBox="0 0 32 32" xmlns="http://www.w3.org/2000/svg" fill="none">
  <g transform="translate(-1656.000122 -1584)">
<path id="Vector 1155" d="M1684 1588L1660 1588C1658.9 1588 1658 1588.9 1658 1590L1658 1610C1658 1611.1 1658.9 1612 1660 1612L1684 1612C1685.1 1612 1686 1611.1 1686 1610L1686 1590C1686 1588.9 1685.1 1588 1684 1588ZM1666 1610L1660 1610L1660 1590L1666 1590L1666 1610ZM1684 1599L1673.8 1599L1677.4 1595.4L1676 1594L1670 1600L1676 1606L1677.4 1604.6L1673.8 1601L1684 1601L1684 1610L1668 1610L1668 1590L1684 1590L1684 1599Z" fill="currentColor" fill-rule="nonzero" />
  </g>
</svg>

