<svg viewBox="0 0 32 32" xmlns="http://www.w3.org/2000/svg" fill="none">
  <g transform="translate(-1800.000122 -1584)">
<path id="Vector 1157" d="M1828 1588L1804 1588C1802.9 1588 1802 1588.9 1802 1590L1802 1610C1802 1611.1 1802.9 1612 1804 1612L1828 1612C1829.1 1612 1830 1611.1 1830 1610L1830 1590C1830 1588.9 1829.1 1588 1828 1588ZM1810 1610L1804 1610L1804 1590L1810 1590L1810 1610ZM1828 1610L1812 1610L1812 1601L1822.2 1601L1818.6 1604.6L1820 1606L1826 1600L1820 1594L1818.6 1595.4L1822.2 1599L1812 1599L1812 1590L1828 1590L1828 1610Z" fill="currentColor" fill-rule="nonzero" />
  </g>
</svg>

