<svg viewBox="0 0 32 32" xmlns="http://www.w3.org/2000/svg" fill="none">
  <g transform="translate(-1728.000122 -1584)">
<path id="Vector 1156" d="M1756 1588L1732 1588C1730.9 1588 1730 1588.9 1730 1590L1730 1610C1730 1611.1 1730.9 1612 1732 1612L1756 1612C1757.1 1612 1758 1611.1 1758 1610L1758 1590C1758 1588.9 1757.1 1588 1756 1588ZM1756 1599L1745.8 1599L1749.4 1595.4L1748 1594L1742 1600L1748 1606L1749.4 1604.6L1745.8 1601L1756 1601L1756 1610L1740 1610L1740 1590L1756 1590L1756 1599Z" fill="currentColor" fill-rule="nonzero" />
  </g>
</svg>

