<svg viewBox="0 0 32 32" xmlns="http://www.w3.org/2000/svg" fill="none">
  <g transform="translate(-1872.000122 -1584)">
<path id="Vector 1158" d="M1879 1601C1879.27 1601 1879.52 1600.89 1879.71 1600.71C1879.89 1600.52 1880 1600.27 1880 1600C1880 1599.73 1879.89 1599.48 1879.71 1599.29C1879.52 1599.11 1879.27 1599 1879 1599C1878.73 1599 1878.48 1599.11 1878.29 1599.29C1878.11 1599.48 1878 1599.73 1878 1600C1878 1600.27 1878.11 1600.52 1878.29 1600.71C1878.48 1600.89 1878.73 1601 1879 1601ZM1879 1597C1879.27 1597 1879.52 1596.89 1879.71 1596.71C1879.89 1596.52 1880 1596.27 1880 1596C1880 1595.73 1879.89 1595.48 1879.71 1595.29C1879.52 1595.11 1879.27 1595 1879 1595C1878.73 1595 1878.48 1595.11 1878.29 1595.29C1878.11 1595.48 1878 1595.73 1878 1596C1878 1596.27 1878.11 1596.52 1878.29 1596.71C1878.48 1596.89 1878.73 1597 1879 1597ZM1885 1601C1885.27 1601 1885.52 1600.89 1885.71 1600.71C1885.89 1600.52 1886 1600.27 1886 1600C1886 1599.73 1885.89 1599.48 1885.71 1599.29C1885.52 1599.11 1885.27 1599 1885 1599C1884.73 1599 1884.48 1599.11 1884.29 1599.29C1884.11 1599.48 1884 1599.73 1884 1600C1884 1600.27 1884.11 1600.52 1884.29 1600.71C1884.48 1600.89 1884.73 1601 1885 1601ZM1885 1597C1885.27 1597 1885.52 1596.89 1885.71 1596.71C1885.89 1596.52 1886 1596.27 1886 1596C1886 1595.73 1885.89 1595.48 1885.71 1595.29C1885.52 1595.11 1885.27 1595 1885 1595C1884.73 1595 1884.48 1595.11 1884.29 1595.29C1884.11 1595.48 1884 1595.73 1884 1596C1884 1596.27 1884.11 1596.52 1884.29 1596.71C1884.48 1596.89 1884.73 1597 1885 1597ZM1897 1601C1897.27 1601 1897.52 1600.89 1897.71 1600.71C1897.89 1600.52 1898 1600.27 1898 1600C1898 1599.73 1897.89 1599.48 1897.71 1599.29C1897.52 1599.11 1897.27 1599 1897 1599C1896.73 1599 1896.48 1599.11 1896.29 1599.29C1896.11 1599.48 1896 1599.73 1896 1600C1896 1600.27 1896.11 1600.52 1896.29 1600.71C1896.48 1600.89 1896.73 1601 1897 1601ZM1897 1597C1897.27 1597 1897.52 1596.89 1897.71 1596.71C1897.89 1596.52 1898 1596.27 1898 1596C1898 1595.73 1897.89 1595.48 1897.71 1595.29C1897.52 1595.11 1897.27 1595 1897 1595C1896.73 1595 1896.48 1595.11 1896.29 1595.29C1896.11 1595.48 1896 1595.73 1896 1596C1896 1596.27 1896.11 1596.52 1896.29 1596.71C1896.48 1596.89 1896.73 1597 1897 1597ZM1874 1591L1874 1608L1880 1608L1880 1605L1883 1605L1883 1609L1899 1609L1899 1605L1902 1605L1902 1591L1874 1591ZM1897 1607L1885 1607L1885 1605L1897 1605L1897 1607ZM1900 1603L1878 1603L1878 1606L1876 1606L1876 1593L1900 1593L1900 1603ZM1894 1595L1888 1595L1888 1601L1894 1601L1894 1595ZM1892 1599L1890 1599L1890 1597L1892 1597L1892 1599Z" fill="currentColor" fill-rule="nonzero" />
  </g>
</svg>

