<svg viewBox="0 0 32 32" xmlns="http://www.w3.org/2000/svg" fill="none">
  <g transform="translate(-1944.000122 -1584)">
<path id="Vector 1159" d="M1968 1605L1968 1593L1966 1593L1966 1607L1974 1607L1974 1605L1968 1605ZM1962 1593L1958 1593C1957.47 1593 1956.96 1593.21 1956.59 1593.59C1956.21 1593.96 1956 1594.47 1956 1595L1956 1605C1956 1605.53 1956.21 1606.04 1956.59 1606.41C1956.96 1606.79 1957.47 1607 1958 1607L1959 1607L1959 1609C1959 1609.53 1959.21 1610.04 1959.59 1610.41C1959.96 1610.79 1960.47 1611 1961 1611L1963 1611L1963 1609L1961 1609L1961 1607L1962 1607C1962.53 1607 1963.04 1606.79 1963.41 1606.41C1963.79 1606.04 1964 1605.53 1964 1605L1964 1595C1964 1594.47 1963.79 1593.96 1963.41 1593.59C1963.04 1593.21 1962.53 1593 1962 1593ZM1958 1605L1958 1595L1962 1595L1962 1605L1958 1605ZM1952 1607L1946 1607L1946 1605L1952 1605L1952 1601L1948 1601C1947.47 1601 1946.96 1600.79 1946.59 1600.41C1946.21 1600.04 1946 1599.53 1946 1599L1946 1595C1946 1594.47 1946.21 1593.96 1946.59 1593.59C1946.96 1593.21 1947.47 1593 1948 1593L1954 1593L1954 1595L1948 1595L1948 1599L1952 1599C1952.53 1599 1953.04 1599.21 1953.41 1599.59C1953.79 1599.96 1954 1600.47 1954 1601L1954 1605C1954 1605.53 1953.79 1606.04 1953.41 1606.41C1953.04 1606.79 1952.53 1607 1952 1607Z" fill="currentColor" fill-rule="nonzero" />
  </g>
</svg>

