<svg viewBox="0 0 32 32" xmlns="http://www.w3.org/2000/svg" fill="none">
  <g transform="translate(-0 -1656)">
<path id="Vector 1160" d="M26 1660L6 1660C5.46957 1660 4.96086 1660.21 4.58579 1660.59C4.21071 1660.96 4 1661.47 4 1662L4 1682C4 1682.53 4.21071 1683.04 4.58579 1683.41C4.96086 1683.79 5.46957 1684 6 1684L26 1684C26.5304 1684 27.0391 1683.79 27.4142 1683.41C27.7893 1683.04 28 1682.53 28 1682L28 1662C28 1661.47 27.7893 1660.96 27.4142 1660.59C27.0391 1660.21 26.5304 1660 26 1660ZM6 1682L6 1662L26 1662L26 1682L6 1682Z" fill="currentColor" fill-rule="nonzero" />
  </g>
</svg>

