<svg viewBox="0 0 32 32" xmlns="http://www.w3.org/2000/svg" fill="none">
  <g transform="translate(-72 -1656)">
<path id="Vector 1161" d="M80 1678L88 1678L88 1686L80 1686L80 1678ZM96 1668L92 1668L92 1670L96 1670L96 1672L93 1672L93 1674L96 1674L96 1676L92 1676L92 1678L96 1678C96.5302 1678 97.0384 1677.79 97.4133 1677.41C97.7882 1677.04 97.9992 1676.53 98 1676L98 1670C98 1669.47 97.7893 1668.96 97.4142 1668.59C97.0391 1668.21 96.5304 1668 96 1668ZM88 1676L80 1676L80 1668L88 1668L88 1676ZM82 1674L86 1674L86 1670L82 1670L82 1674ZM88 1659.41L86.59 1658L84 1660.59L81.41 1658L80 1659.41L82.59 1662L80 1664.59L81.41 1666L84 1663.41L86.59 1666L88 1664.59L85.41 1662L88 1659.41Z" fill="currentColor" fill-rule="nonzero" />
  </g>
</svg>

