<svg viewBox="0 0 32 32" xmlns="http://www.w3.org/2000/svg" fill="none">
  <g transform="translate(-144 -1656)">
<path id="Vector 1162" d="M170 1674L164 1674L164 1670.9C164.028 1669.53 164.429 1668.2 165.159 1667.04C165.894 1665.81 166.159 1664.35 165.907 1662.94C165.655 1661.52 164.901 1660.25 163.785 1659.34C162.979 1658.69 162.016 1658.25 160.991 1658.08C159.966 1657.91 158.913 1658 157.937 1658.36C156.96 1658.72 156.093 1659.32 155.421 1660.11C154.749 1660.91 154.294 1661.86 154.102 1662.88C153.825 1664.32 154.092 1665.81 154.85 1667.06C155.568 1668.17 155.965 1669.47 156 1670.79L156 1674L150 1674C149.47 1674 148.961 1674.21 148.586 1674.59C148.211 1674.96 148 1675.47 148 1676L148 1680C148.001 1680.53 148.212 1681.04 148.587 1681.41C148.962 1681.79 149.47 1682 150 1682L150 1684C150.001 1684.53 150.212 1685.04 150.587 1685.41C150.962 1685.79 151.47 1686 152 1686L168 1686C168.53 1686 169.038 1685.79 169.413 1685.41C169.788 1685.04 169.999 1684.53 170 1684L170 1682C170.53 1682 171.038 1681.79 171.413 1681.41C171.788 1681.04 171.999 1680.53 172 1680L172 1676C172 1675.47 171.789 1674.96 171.414 1674.59C171.039 1674.21 170.53 1674 170 1674ZM156.07 1663.24C156.177 1662.67 156.409 1662.13 156.749 1661.65C157.089 1661.17 157.529 1660.78 158.038 1660.49C158.547 1660.21 159.113 1660.03 159.695 1659.99C160.278 1659.94 160.863 1660.03 161.41 1660.23C161.957 1660.44 162.453 1660.76 162.861 1661.18C163.27 1661.6 163.582 1662.1 163.776 1662.65C163.97 1663.2 164.04 1663.79 163.983 1664.37C163.925 1664.95 163.741 1665.51 163.443 1666.02C162.701 1667.23 162.231 1668.59 162.066 1670L157.94 1670C157.783 1668.59 157.313 1667.23 156.564 1666.03C156.061 1665.19 155.885 1664.2 156.07 1663.24ZM162 1672L162 1674L158 1674L158 1672L162 1672ZM168 1684L152 1684L152 1682L168 1682L168 1684ZM150 1680L150 1676L170 1676L170 1680L150 1680Z" fill="currentColor" fill-rule="nonzero" />
  </g>
</svg>

