<svg viewBox="0 0 32 32" xmlns="http://www.w3.org/2000/svg" fill="none">
  <g transform="translate(-432 -1656)">
<path id="Vector 1166" d="M450 1682L458 1682L458 1684L450 1684L450 1682ZM450 1678L462 1678L462 1680L450 1680L450 1678ZM450 1674L462 1674L462 1676L450 1676L450 1674Z" fill="currentColor" fill-rule="nonzero" />
		<path id="Vector 1167" d="M452.549 1667.22L448 1658L443.451 1667.22L433.28 1668.69L440.64 1675.87L438.902 1686L446 1682.27L446 1680.01L441.559 1682.34L442.611 1676.21L442.789 1675.17L442.036 1674.44L437.578 1670.09L443.739 1669.2L444.779 1669.05L445.245 1668.1L448 1662.52L450.755 1668.1L451.221 1669.05L452.261 1669.2L459.715 1670.28L460 1668.3L452.549 1667.22Z" fill="currentColor" fill-rule="nonzero" />
  </g>
</svg>

