<svg viewBox="0 0 32 32" xmlns="http://www.w3.org/2000/svg" fill="none">
  <g transform="translate(-216 -1656)">
<path id="Vector 1163" d="M232 1662.52L234.76 1668.1L235.22 1669.1L236.22 1669.25L242.38 1670.14L238 1674.44L237.25 1675.17L237.43 1676.17L238.48 1682.3L232.97 1679.41L232 1679L231.07 1679.49L225.56 1682.34L226.56 1676.21L226.74 1675.21L226 1674.44L221.58 1670.09L227.74 1669.2L228.74 1669.05L229.2 1668.05L232 1662.52ZM232 1658L227.45 1667.22L217.28 1668.69L224.64 1675.87L222.9 1686L232 1681.22L241.1 1686L239.36 1675.87L246.72 1668.7L236.55 1667.22L232 1658Z" fill="currentColor" fill-rule="nonzero" />
  </g>
</svg>

