<svg viewBox="0 0 32 32" xmlns="http://www.w3.org/2000/svg" fill="none">
  <g transform="translate(-504 -1656)">
<path id="Vector 1168" d="M527 1686L525 1686L525 1684C524.999 1683.2 524.683 1682.44 524.12 1681.88C523.558 1681.32 522.795 1681 522 1681L518 1681C517.205 1681 516.442 1681.32 515.88 1681.88C515.317 1682.44 515.001 1683.2 515 1684L515 1686L513 1686L513 1684C513.002 1682.67 513.529 1681.4 514.466 1680.47C515.404 1679.53 516.674 1679 518 1679L522 1679C523.326 1679 524.596 1679.53 525.534 1680.47C526.471 1681.4 526.998 1682.67 527 1684L527 1686ZM520 1669C520.593 1669 521.173 1669.18 521.667 1669.51C522.16 1669.84 522.545 1670.3 522.772 1670.85C522.999 1671.4 523.058 1672 522.942 1672.59C522.827 1673.17 522.541 1673.7 522.121 1674.12C521.702 1674.54 521.167 1674.83 520.585 1674.94C520.003 1675.06 519.4 1675 518.852 1674.77C518.304 1674.54 517.835 1674.16 517.506 1673.67C517.176 1673.17 517 1672.59 517 1672C517 1671.2 517.316 1670.44 517.879 1669.88C518.441 1669.32 519.204 1669 520 1669ZM520 1667C519.011 1667 518.044 1667.29 517.222 1667.84C516.4 1668.39 515.759 1669.17 515.381 1670.09C515.002 1671 514.903 1672.01 515.096 1672.98C515.289 1673.95 515.765 1674.84 516.464 1675.54C517.164 1676.23 518.055 1676.71 519.024 1676.9C519.995 1677.1 521 1677 521.913 1676.62C522.827 1676.24 523.608 1675.6 524.157 1674.78C524.707 1673.96 525 1672.99 525 1672C525 1670.67 524.473 1669.4 523.536 1668.46C522.598 1667.53 521.326 1667 520 1667Z" fill="currentColor" fill-rule="nonzero" />
		<path id="Vector 1169" d="M534 1686L532 1686L532 1670.46L520 1660.31L508 1670.46L508 1686L506 1686L506 1670C506 1669.85 506.032 1669.71 506.093 1669.58C506.154 1669.45 506.243 1669.33 506.354 1669.24L519.354 1658.24C519.535 1658.08 519.763 1658 520 1658C520.237 1658 520.465 1658.08 520.646 1658.24L533.646 1669.24C533.757 1669.33 533.846 1669.45 533.907 1669.58C533.968 1669.71 534 1669.85 534 1670L534 1686Z" fill="currentColor" fill-rule="nonzero" />
  </g>
</svg>

