<svg viewBox="0 0 32 32" xmlns="http://www.w3.org/2000/svg" fill="none">
  <g transform="translate(-576 -1656)">
<path id="Vector 1170" d="M595 1666C594.407 1666 593.827 1665.82 593.333 1665.49C592.84 1665.16 592.455 1664.7 592.228 1664.15C592.001 1663.6 591.942 1663 592.058 1662.41C592.173 1661.83 592.459 1661.3 592.879 1660.88C593.298 1660.46 593.833 1660.17 594.415 1660.06C594.997 1659.94 595.6 1660 596.148 1660.23C596.696 1660.46 597.165 1660.84 597.494 1661.33C597.824 1661.83 598 1662.41 598 1663C597.999 1663.8 597.683 1664.56 597.12 1665.12C596.558 1665.68 595.795 1666 595 1666ZM595 1662C594.802 1662 594.609 1662.06 594.444 1662.17C594.28 1662.28 594.152 1662.43 594.076 1662.62C594 1662.8 593.981 1663 594.019 1663.2C594.058 1663.39 594.153 1663.57 594.293 1663.71C594.433 1663.85 594.611 1663.94 594.805 1663.98C594.999 1664.02 595.2 1664 595.383 1663.92C595.565 1663.85 595.722 1663.72 595.831 1663.56C595.941 1663.39 596 1663.2 596 1663C596 1662.73 595.895 1662.48 595.707 1662.29C595.52 1662.11 595.265 1662 595 1662ZM595 1675C594.407 1675 593.827 1674.82 593.333 1674.49C592.84 1674.16 592.455 1673.7 592.228 1673.15C592.001 1672.6 591.942 1672 592.058 1671.41C592.173 1670.83 592.459 1670.3 592.879 1669.88C593.298 1669.46 593.833 1669.17 594.415 1669.06C594.997 1668.94 595.6 1669 596.148 1669.23C596.696 1669.46 597.165 1669.84 597.494 1670.33C597.824 1670.83 598 1671.41 598 1672C597.999 1672.8 597.683 1673.56 597.12 1674.12C596.558 1674.68 595.795 1675 595 1675ZM595 1671C594.802 1671 594.609 1671.06 594.444 1671.17C594.28 1671.28 594.152 1671.43 594.076 1671.62C594 1671.8 593.981 1672 594.019 1672.2C594.058 1672.39 594.153 1672.57 594.293 1672.71C594.433 1672.85 594.611 1672.94 594.805 1672.98C594.999 1673.02 595.2 1673 595.383 1672.92C595.565 1672.85 595.722 1672.72 595.831 1672.56C595.941 1672.39 596 1672.2 596 1672C596 1671.73 595.895 1671.48 595.707 1671.29C595.52 1671.11 595.265 1671 595 1671ZM603 1675C602.407 1675 601.827 1674.82 601.333 1674.49C600.84 1674.16 600.455 1673.7 600.228 1673.15C600.001 1672.6 599.942 1672 600.058 1671.41C600.173 1670.83 600.459 1670.3 600.879 1669.88C601.298 1669.46 601.833 1669.17 602.415 1669.06C602.997 1668.94 603.6 1669 604.148 1669.23C604.696 1669.46 605.165 1669.84 605.494 1670.33C605.824 1670.83 606 1671.41 606 1672C605.999 1672.8 605.683 1673.56 605.12 1674.12C604.558 1674.68 603.795 1675 603 1675ZM603 1671C602.802 1671 602.609 1671.06 602.444 1671.17C602.28 1671.28 602.152 1671.43 602.076 1671.62C602 1671.8 601.981 1672 602.019 1672.2C602.058 1672.39 602.153 1672.57 602.293 1672.71C602.433 1672.85 602.611 1672.94 602.805 1672.98C602.999 1673.02 603.2 1673 603.383 1672.92C603.565 1672.85 603.722 1672.72 603.831 1672.56C603.941 1672.39 604 1672.2 604 1672C604 1671.73 603.895 1671.48 603.707 1671.29C603.52 1671.11 603.265 1671 603 1671ZM595 1684C594.407 1684 593.827 1683.82 593.333 1683.49C592.84 1683.16 592.455 1682.7 592.228 1682.15C592.001 1681.6 591.942 1681 592.058 1680.41C592.173 1679.83 592.459 1679.3 592.879 1678.88C593.298 1678.46 593.833 1678.17 594.415 1678.06C594.997 1677.94 595.6 1678 596.148 1678.23C596.696 1678.46 597.165 1678.84 597.494 1679.33C597.824 1679.83 598 1680.41 598 1681C597.999 1681.8 597.683 1682.56 597.12 1683.12C596.558 1683.68 595.795 1684 595 1684ZM595 1680C594.802 1680 594.609 1680.06 594.444 1680.17C594.28 1680.28 594.152 1680.43 594.076 1680.62C594 1680.8 593.981 1681 594.019 1681.2C594.058 1681.39 594.153 1681.57 594.293 1681.71C594.433 1681.85 594.611 1681.94 594.805 1681.98C594.999 1682.02 595.2 1682 595.383 1681.92C595.565 1681.85 595.722 1681.72 595.831 1681.56C595.941 1681.39 596 1681.2 596 1681C596 1680.73 595.895 1680.48 595.707 1680.29C595.52 1680.11 595.265 1680 595 1680ZM588 1658L590 1658L590 1686L588 1686L588 1658ZM583 1684C582.407 1684 581.827 1683.82 581.333 1683.49C580.84 1683.16 580.455 1682.7 580.228 1682.15C580.001 1681.6 579.942 1681 580.058 1680.41C580.173 1679.83 580.459 1679.3 580.879 1678.88C581.298 1678.46 581.833 1678.17 582.415 1678.06C582.997 1677.94 583.6 1678 584.148 1678.23C584.696 1678.46 585.165 1678.84 585.494 1679.33C585.824 1679.83 586 1680.41 586 1681C585.999 1681.8 585.683 1682.56 585.12 1683.12C584.558 1683.68 583.795 1684 583 1684ZM583 1680C582.802 1680 582.609 1680.06 582.444 1680.17C582.28 1680.28 582.152 1680.43 582.076 1680.62C582 1680.8 581.981 1681 582.019 1681.2C582.058 1681.39 582.153 1681.57 582.293 1681.71C582.433 1681.85 582.611 1681.94 582.805 1681.98C582.999 1682.02 583.2 1682 583.383 1681.92C583.565 1681.85 583.722 1681.72 583.831 1681.56C583.941 1681.39 584 1681.2 584 1681C584 1680.73 583.895 1680.48 583.707 1680.29C583.52 1680.11 583.265 1680 583 1680ZM583 1675C582.407 1675 581.827 1674.82 581.333 1674.49C580.84 1674.16 580.455 1673.7 580.228 1673.15C580.001 1672.6 579.942 1672 580.058 1671.41C580.173 1670.83 580.459 1670.3 580.879 1669.88C581.298 1669.46 581.833 1669.17 582.415 1669.06C582.997 1668.94 583.6 1669 584.148 1669.23C584.696 1669.46 585.165 1669.84 585.494 1670.33C585.824 1670.83 586 1671.41 586 1672C585.999 1672.8 585.683 1673.56 585.12 1674.12C584.558 1674.68 583.795 1675 583 1675ZM583 1671C582.802 1671 582.609 1671.06 582.444 1671.17C582.28 1671.28 582.152 1671.43 582.076 1671.62C582 1671.8 581.981 1672 582.019 1672.2C582.058 1672.39 582.153 1672.57 582.293 1672.71C582.433 1672.85 582.611 1672.94 582.805 1672.98C582.999 1673.02 583.2 1673 583.383 1672.92C583.565 1672.85 583.722 1672.72 583.831 1672.56C583.941 1672.39 584 1672.2 584 1672C584 1671.73 583.895 1671.48 583.707 1671.29C583.52 1671.11 583.265 1671 583 1671ZM583 1666C582.407 1666 581.827 1665.82 581.333 1665.49C580.84 1665.16 580.455 1664.7 580.228 1664.15C580.001 1663.6 579.942 1663 580.058 1662.41C580.173 1661.83 580.459 1661.3 580.879 1660.88C581.298 1660.46 581.833 1660.17 582.415 1660.06C582.997 1659.94 583.6 1660 584.148 1660.23C584.696 1660.46 585.165 1660.84 585.494 1661.33C585.824 1661.83 586 1662.41 586 1663C585.999 1663.8 585.683 1664.56 585.12 1665.12C584.558 1665.68 583.795 1666 583 1666ZM583 1662C582.802 1662 582.609 1662.06 582.444 1662.17C582.28 1662.28 582.152 1662.43 582.076 1662.62C582 1662.8 581.981 1663 582.019 1663.2C582.058 1663.39 582.153 1663.57 582.293 1663.71C582.433 1663.85 582.611 1663.94 582.805 1663.98C582.999 1664.02 583.2 1664 583.383 1663.92C583.565 1663.85 583.722 1663.72 583.831 1663.56C583.941 1663.39 584 1663.2 584 1663C584 1662.73 583.895 1662.48 583.707 1662.29C583.52 1662.11 583.265 1662 583 1662Z" fill="currentColor" fill-rule="nonzero" />
  </g>
</svg>

