<svg viewBox="0 0 32 32" xmlns="http://www.w3.org/2000/svg" fill="none">
  <g transform="translate(-648 -1656)">
<path id="Vector 1171" d="M672 1658L672 1660L674 1660L674 1666C674 1667.06 673.579 1668.08 672.828 1668.83C672.078 1669.58 671.061 1670 670 1670C668.939 1670 667.922 1669.58 667.172 1668.83C666.421 1668.08 666 1667.06 666 1666L666 1660L668 1660L668 1658L664 1658L664 1666C664.002 1667.42 664.506 1668.79 665.421 1669.87C666.336 1670.95 667.603 1671.67 669 1671.91L669 1678C669 1679.59 668.368 1681.12 667.243 1682.24C666.117 1683.37 664.591 1684 663 1684C661.409 1684 659.883 1683.37 658.757 1682.24C657.632 1681.12 657 1679.59 657 1678L657 1671.86C657.943 1671.61 658.764 1671.04 659.311 1670.23C659.857 1669.42 660.091 1668.45 659.968 1667.48C659.846 1666.52 659.375 1665.63 658.644 1664.98C657.914 1664.34 656.974 1663.98 656 1663.98C655.026 1663.98 654.086 1664.34 653.356 1664.98C652.625 1665.63 652.155 1666.52 652.032 1667.48C651.909 1668.45 652.143 1669.42 652.689 1670.23C653.236 1671.04 654.057 1671.61 655 1671.86L655 1678C655 1680.12 655.843 1682.16 657.343 1683.66C658.843 1685.16 660.878 1686 663 1686C665.122 1686 667.157 1685.16 668.657 1683.66C670.157 1682.16 671 1680.12 671 1678L671 1671.91C672.397 1671.67 673.664 1670.95 674.579 1669.87C675.494 1668.79 675.998 1667.42 676 1666L676 1658L672 1658ZM654 1668C654 1667.6 654.117 1667.22 654.337 1666.89C654.557 1666.56 654.869 1666.3 655.235 1666.15C655.6 1666 656.002 1665.96 656.39 1666.04C656.778 1666.12 657.135 1666.31 657.414 1666.59C657.694 1666.87 657.884 1667.22 657.962 1667.61C658.039 1668 657.999 1668.4 657.848 1668.77C657.696 1669.13 657.44 1669.44 657.111 1669.66C656.782 1669.88 656.396 1670 656 1670C655.47 1670 654.961 1669.79 654.586 1669.41C654.211 1669.04 654 1668.53 654 1668Z" fill="currentColor" fill-rule="nonzero" />
  </g>
</svg>

