<svg viewBox="0 0 32 32" xmlns="http://www.w3.org/2000/svg" fill="none">
  <g transform="translate(-720 -1656)">
<path id="Vector 1172" d="M750 1678L750 1666C750 1664.9 749.1 1664 748 1664L732 1664C730.9 1664 730 1664.9 730 1666L730 1684C730 1685.1 730.9 1686 732 1686L742 1686C742.3 1686 742.5 1685.9 742.7 1685.7L749.7 1678.7C749.9 1678.5 750 1678.3 750 1678ZM742 1678L747.6 1678L742 1683.6L742 1678ZM748 1676L742 1676C740.9 1676 740 1676.9 740 1678L740 1684L732 1684L732 1666L748 1666L748 1676Z" fill="currentColor" fill-rule="nonzero" />
		<path id="Vector 1173" d="M724 1678L724 1660L740 1660L740 1662L742 1662L742 1660C742 1658.9 741.1 1658 740 1658L724 1658C722.9 1658 722 1658.9 722 1660L722 1678C722 1679.1 722.9 1680 724 1680L728 1680L728 1678L724 1678Z" fill="currentColor" fill-rule="nonzero" />
  </g>
</svg>

