<svg viewBox="0 0 32 32" xmlns="http://www.w3.org/2000/svg" fill="none">
  <g transform="translate(-792 -1656)">
<path id="Vector 1174" d="M816 1664L816 1680L800 1680L800 1664L816 1664ZM816 1662L800 1662C799.47 1662 798.961 1662.21 798.586 1662.59C798.211 1662.96 798 1663.47 798 1664L798 1680C798 1680.53 798.211 1681.04 798.586 1681.41C798.961 1681.79 799.47 1682 800 1682L816 1682C816.53 1682 817.039 1681.79 817.414 1681.41C817.789 1681.04 818 1680.53 818 1680L818 1664C818 1663.47 817.789 1662.96 817.414 1662.59C817.039 1662.21 816.53 1662 816 1662Z" fill="currentColor" fill-rule="nonzero" />
  </g>
</svg>

