<svg viewBox="0 0 32 32" xmlns="http://www.w3.org/2000/svg" fill="none">
  <g transform="translate(-1008 -1656)">
<path id="Vector 1177" d="M1024 1660C1026.37 1660 1028.69 1660.7 1030.67 1662.02C1032.64 1663.34 1034.18 1665.22 1035.09 1667.41C1035.99 1669.6 1036.23 1672.01 1035.77 1674.34C1035.31 1676.67 1034.16 1678.81 1032.49 1680.49C1030.81 1682.16 1028.67 1683.31 1026.34 1683.77C1024.01 1684.23 1021.6 1683.99 1019.41 1683.09C1017.22 1682.18 1015.34 1680.64 1014.02 1678.67C1012.7 1676.69 1012 1674.37 1012 1672C1012 1668.82 1013.26 1665.77 1015.51 1663.51C1017.77 1661.26 1020.82 1660 1024 1660ZM1024 1658C1021.23 1658 1018.52 1658.82 1016.22 1660.36C1013.92 1661.9 1012.13 1664.08 1011.07 1666.64C1010.01 1669.2 1009.73 1672.02 1010.27 1674.73C1010.81 1677.45 1012.14 1679.94 1014.1 1681.9C1016.06 1683.86 1018.55 1685.19 1021.27 1685.73C1023.98 1686.27 1026.8 1685.99 1029.36 1684.93C1031.92 1683.87 1034.1 1682.08 1035.64 1679.78C1037.18 1677.48 1038 1674.77 1038 1672C1038 1668.29 1036.53 1664.73 1033.9 1662.1C1031.27 1659.47 1027.71 1658 1024 1658Z" fill="currentColor" fill-rule="nonzero" />
		<path id="Vector 1178" d="M1028 1668L1028 1676L1020 1676L1020 1668L1028 1668ZM1028 1666L1020 1666C1019.47 1666 1018.96 1666.21 1018.59 1666.59C1018.21 1666.96 1018 1667.47 1018 1668L1018 1676C1018 1676.53 1018.21 1677.04 1018.59 1677.41C1018.96 1677.79 1019.47 1678 1020 1678L1028 1678C1028.53 1678 1029.04 1677.79 1029.41 1677.41C1029.79 1677.04 1030 1676.53 1030 1676L1030 1668C1030 1667.47 1029.79 1666.96 1029.41 1666.59C1029.04 1666.21 1028.53 1666 1028 1666Z" fill="currentColor" fill-rule="nonzero" />
  </g>
</svg>

