<svg viewBox="0 0 32 32" xmlns="http://www.w3.org/2000/svg" fill="none">
  <g transform="translate(-864 -1656)">
<path id="Vector 1175" d="M880 1658C877.231 1658 874.524 1658.82 872.222 1660.36C869.92 1661.9 868.125 1664.08 867.066 1666.64C866.006 1669.2 865.729 1672.02 866.269 1674.73C866.809 1677.45 868.143 1679.94 870.101 1681.9C872.058 1683.86 874.553 1685.19 877.269 1685.73C879.984 1686.27 882.799 1685.99 885.358 1684.93C887.916 1683.87 890.102 1682.08 891.641 1679.78C893.179 1677.48 894 1674.77 894 1672C894 1668.29 892.525 1664.73 889.899 1662.1C887.274 1659.47 883.713 1658 880 1658ZM886 1676C886 1676.53 885.789 1677.04 885.414 1677.41C885.039 1677.79 884.53 1678 884 1678L876 1678C875.47 1678 874.961 1677.79 874.586 1677.41C874.211 1677.04 874 1676.53 874 1676L874 1668C874 1667.47 874.211 1666.96 874.586 1666.59C874.961 1666.21 875.47 1666 876 1666L884 1666C884.53 1666 885.039 1666.21 885.414 1666.59C885.789 1666.96 886 1667.47 886 1668L886 1676Z" fill="currentColor" fill-rule="nonzero" />
  </g>
</svg>

