<svg viewBox="0 0 32 32" xmlns="http://www.w3.org/2000/svg" fill="none">
  <g transform="translate(-1152 -1656)">
<path id="Vector 1181" d="M1172.59 1685L1163.41 1685C1162.88 1685 1162.38 1684.79 1162 1684.41L1155.59 1678C1155.21 1677.62 1155 1677.12 1155 1676.59L1155 1667.41C1155 1666.88 1155.21 1666.38 1155.59 1666L1162 1659.59C1162.38 1659.21 1162.88 1659 1163.41 1659L1172.59 1659C1173.12 1659 1173.62 1659.21 1174 1659.59L1180.41 1666C1180.79 1666.38 1181 1666.88 1181 1667.41L1181 1676.59C1181 1677.12 1180.79 1677.62 1180.41 1678L1174 1684.41C1173.62 1684.79 1173.12 1685 1172.59 1685ZM1163.41 1661L1157 1667.41L1157 1676.59L1163.41 1683L1172.59 1683L1179 1676.59L1179 1667.41L1172.59 1661L1163.41 1661Z" fill="currentColor" fill-rule="nonzero" />
  </g>
</svg>

