<svg viewBox="0 0 32 32" xmlns="http://www.w3.org/2000/svg" fill="none">
  <g transform="translate(-1080 -1656)">
<path id="Vector 1179" d="M1096 1658C1093.23 1658 1090.52 1658.82 1088.22 1660.36C1085.92 1661.9 1084.13 1664.08 1083.07 1666.64C1082.01 1669.2 1081.73 1672.02 1082.27 1674.73C1082.81 1677.45 1084.14 1679.94 1086.1 1681.9C1088.06 1683.86 1090.55 1685.19 1093.27 1685.73C1095.98 1686.27 1098.8 1685.99 1101.36 1684.93C1103.92 1683.87 1106.1 1682.08 1107.64 1679.78C1109.18 1677.48 1110 1674.77 1110 1672C1110 1668.29 1108.53 1664.73 1105.9 1662.1C1103.27 1659.47 1099.71 1658 1096 1658ZM1102 1676C1102 1676.53 1101.79 1677.04 1101.41 1677.41C1101.04 1677.79 1100.53 1678 1100 1678L1092 1678C1091.47 1678 1090.96 1677.79 1090.59 1677.41C1090.21 1677.04 1090 1676.53 1090 1676L1090 1668C1090 1667.47 1090.21 1666.96 1090.59 1666.59C1090.96 1666.21 1091.47 1666 1092 1666L1100 1666C1100.53 1666 1101.04 1666.21 1101.41 1666.59C1101.79 1666.96 1102 1667.47 1102 1668L1102 1676Z" fill="currentColor" fill-rule="nonzero" />
		<path id="Vector 1180" d="M1092 1668L1100 1668L1100 1676L1092 1676L1092 1668Z" fill="currentColor" fill-rule="nonzero" />
  </g>
</svg>

