<svg viewBox="0 0 32 32" xmlns="http://www.w3.org/2000/svg" fill="none">
  <g transform="translate(-936 -1656)">
<path id="Vector 1176" d="M960 1662L944 1662C943.47 1662 942.961 1662.21 942.586 1662.59C942.211 1662.96 942 1663.47 942 1664L942 1680C942 1680.53 942.211 1681.04 942.586 1681.41C942.961 1681.79 943.47 1682 944 1682L960 1682C960.53 1682 961.039 1681.79 961.414 1681.41C961.789 1681.04 962 1680.53 962 1680L962 1664C962 1663.47 961.789 1662.96 961.414 1662.59C961.039 1662.21 960.53 1662 960 1662Z" fill="currentColor" fill-rule="nonzero" />
  </g>
</svg>

