<svg viewBox="0 0 32 32" xmlns="http://www.w3.org/2000/svg" fill="none">
  <g transform="translate(-1224 -1656)">
<path id="Vector 1182" d="M1244.59 1685L1235.41 1685C1234.88 1685 1234.38 1684.79 1234 1684.41L1227.59 1678C1227.21 1677.62 1227 1677.12 1227 1676.59L1227 1667.41C1227 1666.88 1227.21 1666.38 1227.59 1666L1234 1659.59C1234.38 1659.21 1234.88 1659 1235.41 1659L1244.59 1659C1245.12 1659 1245.62 1659.21 1246 1659.59L1252.41 1666C1252.79 1666.38 1253 1666.88 1253 1667.41L1253 1676.59C1253 1677.12 1252.79 1677.62 1252.41 1678L1246 1684.41C1245.62 1684.79 1245.12 1685 1244.59 1685Z" fill="currentColor" fill-rule="nonzero" />
  </g>
</svg>

