<svg viewBox="0 0 32 32" xmlns="http://www.w3.org/2000/svg" fill="none">
  <g transform="translate(-1368.000122 -1656)">
<path id="Vector 1185" d="M1372 1677L1370 1677L1370 1680C1370 1680.53 1370.21 1681.04 1370.59 1681.41C1370.96 1681.79 1371.47 1682 1372 1682L1375 1682L1375 1680L1372 1680L1372 1677ZM1372 1664L1375 1664L1375 1662L1372 1662C1371.47 1662 1370.96 1662.21 1370.59 1662.59C1370.21 1662.96 1370 1663.47 1370 1664L1370 1667L1372 1667L1372 1664ZM1385 1662L1391 1662L1391 1664L1385 1664L1385 1662ZM1377 1662L1383 1662L1383 1664L1377 1664L1377 1662ZM1385 1680L1391 1680L1391 1682L1385 1682L1385 1680ZM1396 1671L1372 1671L1372 1669L1370 1669L1370 1675L1372 1675L1372 1673L1396 1673L1396 1675L1398 1675L1398 1669L1396 1669L1396 1671ZM1396 1680L1393 1680L1393 1682L1396 1682C1396.53 1682 1397.04 1681.79 1397.41 1681.41C1397.79 1681.04 1398 1680.53 1398 1680L1398 1677L1396 1677L1396 1680ZM1396 1662L1393 1662L1393 1664L1396 1664L1396 1667L1398 1667L1398 1664C1398 1663.47 1397.79 1662.96 1397.41 1662.59C1397.04 1662.21 1396.53 1662 1396 1662ZM1377 1680L1383 1680L1383 1682L1377 1682L1377 1680Z" fill="currentColor" fill-rule="nonzero" />
		<path id="Vector 1186" d="M1375 1669C1375.55 1669 1376 1668.55 1376 1668C1376 1667.45 1375.55 1667 1375 1667C1374.45 1667 1374 1667.45 1374 1668C1374 1668.55 1374.45 1669 1375 1669Z" fill="currentColor" fill-rule="nonzero" />
		<path id="Vector 1187" d="M1375 1677C1375.55 1677 1376 1676.55 1376 1676C1376 1675.45 1375.55 1675 1375 1675C1374.45 1675 1374 1675.45 1374 1676C1374 1676.55 1374.45 1677 1375 1677Z" fill="currentColor" fill-rule="nonzero" />
  </g>
</svg>

