<svg viewBox="0 0 32 32" xmlns="http://www.w3.org/2000/svg" fill="none">
  <g transform="translate(-1512.000122 -1656)">
<path id="Vector 1189" d="M1528 1658C1527.77 1658 1527.56 1658.08 1527.38 1658.22C1527.2 1658.36 1527.08 1658.55 1527.03 1658.77L1525.3 1666.09C1523.22 1665.81 1521.09 1666.18 1519.23 1667.17C1517.36 1668.15 1515.86 1669.7 1514.92 1671.59C1513.98 1673.48 1513.66 1675.61 1514 1677.69C1514.34 1679.77 1515.33 1681.69 1516.82 1683.18C1518.31 1684.67 1520.23 1685.66 1522.31 1686C1524.39 1686.34 1526.52 1686.02 1528.41 1685.08C1530.3 1684.14 1531.85 1682.64 1532.83 1680.77C1533.82 1678.91 1534.19 1676.78 1533.91 1674.7L1541.23 1672.97C1541.45 1672.92 1541.64 1672.8 1541.78 1672.62C1541.92 1672.44 1542 1672.23 1542 1672C1542 1668.29 1540.52 1664.73 1537.89 1662.11C1535.27 1659.48 1531.71 1658 1528 1658ZM1523.29 1676.71C1523.48 1676.89 1523.73 1677 1524 1677C1524.08 1677 1524.15 1676.99 1524.23 1676.97L1527.99 1676.09C1527.97 1676.87 1527.73 1677.63 1527.28 1678.28C1526.84 1678.92 1526.21 1679.42 1525.49 1679.71C1524.76 1680 1523.96 1680.07 1523.2 1679.92C1522.43 1679.76 1521.72 1679.38 1521.17 1678.83C1520.62 1678.28 1520.24 1677.57 1520.08 1676.8C1519.92 1676.04 1520 1675.24 1520.29 1674.51C1520.58 1673.79 1521.08 1673.16 1521.72 1672.72C1522.37 1672.27 1523.13 1672.02 1523.91 1672.01L1523.03 1675.77C1522.99 1675.94 1522.99 1676.11 1523.04 1676.27C1523.08 1676.44 1523.17 1676.59 1523.29 1676.71ZM1525.34 1674.66L1527.61 1665.01C1529.56 1665.04 1531.42 1665.83 1532.8 1667.2C1534.18 1668.58 1534.96 1670.44 1534.99 1672.39L1525.34 1674.66ZM1532 1676C1532 1677.58 1531.53 1679.13 1530.65 1680.44C1529.77 1681.76 1528.52 1682.79 1527.06 1683.39C1525.6 1684 1523.99 1684.16 1522.44 1683.85C1520.89 1683.54 1519.46 1682.78 1518.34 1681.66C1517.22 1680.54 1516.46 1679.11 1516.15 1677.56C1515.85 1676.01 1516 1674.4 1516.61 1672.94C1517.21 1671.48 1518.24 1670.23 1519.56 1669.35C1520.87 1668.47 1522.42 1668 1524 1668C1524.28 1668 1524.56 1668.02 1524.84 1668.05L1524.38 1670.02C1524.25 1670.01 1524.13 1670 1524 1670C1522.81 1670 1521.65 1670.35 1520.67 1671.01C1519.68 1671.67 1518.91 1672.61 1518.46 1673.7C1518 1674.8 1517.88 1676.01 1518.12 1677.17C1518.35 1678.33 1518.92 1679.4 1519.76 1680.24C1520.6 1681.08 1521.67 1681.65 1522.83 1681.88C1523.99 1682.12 1525.2 1682 1526.3 1681.54C1527.39 1681.09 1528.33 1680.32 1528.99 1679.33C1529.65 1678.35 1530 1677.19 1530 1676C1530 1675.87 1529.99 1675.75 1529.98 1675.62L1531.95 1675.16C1531.98 1675.44 1532 1675.72 1532 1676ZM1536.97 1671.92C1536.83 1669.61 1535.84 1667.43 1534.21 1665.79C1532.57 1664.16 1530.39 1663.17 1528.08 1663.03L1528.79 1660.03C1531.69 1660.22 1534.42 1661.46 1536.48 1663.52C1538.54 1665.58 1539.78 1668.31 1539.98 1671.21L1536.97 1671.92Z" fill="currentColor" fill-rule="nonzero" />
  </g>
</svg>

