<svg viewBox="0 0 32 32" xmlns="http://www.w3.org/2000/svg" fill="none">
  <g transform="translate(-1440.000122 -1656)">
<path id="Vector 1188" d="M1470 1666.68L1468 1660.68C1467.93 1660.47 1467.8 1660.29 1467.61 1660.17C1467.43 1660.05 1467.22 1659.99 1467 1660L1445 1660C1444.78 1659.99 1444.57 1660.05 1444.39 1660.17C1444.21 1660.29 1444.07 1660.47 1444 1660.68L1442 1666.68C1441.99 1666.79 1441.99 1666.89 1442 1667L1442 1673C1442 1673.27 1442.11 1673.52 1442.29 1673.71C1442.48 1673.89 1442.73 1674 1443 1674L1444 1674L1444 1684L1446 1684L1446 1674L1452 1674L1452 1684L1468 1684L1468 1674L1469 1674C1469.27 1674 1469.52 1673.89 1469.71 1673.71C1469.89 1673.52 1470 1673.27 1470 1673L1470 1667C1470.01 1666.89 1470.01 1666.79 1470 1666.68ZM1466 1682L1454 1682L1454 1674L1466 1674L1466 1682ZM1468 1672L1464 1672L1464 1668L1462 1668L1462 1672L1457 1672L1457 1668L1455 1668L1455 1672L1450 1672L1450 1668L1448 1668L1448 1672L1444 1672L1444 1667.16L1445.72 1662L1466.28 1662L1468 1667.16L1468 1672Z" fill="currentColor" fill-rule="nonzero" />
  </g>
</svg>

