<svg viewBox="0 0 32 32" xmlns="http://www.w3.org/2000/svg" fill="none">
  <g transform="translate(-1296 -1656)">
<path id="Vector 1183" d="M1324 1686L1300 1686C1299.47 1686 1298.96 1685.79 1298.59 1685.41C1298.21 1685.04 1298 1684.53 1298 1684L1298 1660C1298 1659.47 1298.21 1658.96 1298.59 1658.59C1298.96 1658.21 1299.47 1658 1300 1658L1324 1658C1324.53 1658 1325.04 1658.21 1325.41 1658.59C1325.79 1658.96 1326 1659.47 1326 1660L1326 1684C1326 1684.53 1325.79 1685.04 1325.41 1685.41C1325.04 1685.79 1324.53 1686 1324 1686ZM1300 1660L1300 1684L1324 1684L1324 1660L1300 1660Z" fill="currentColor" fill-rule="nonzero" />
		<path id="Vector 1184" d="M1313.5 1669C1312.81 1669 1312.13 1668.79 1311.56 1668.41C1310.98 1668.03 1310.53 1667.48 1310.27 1666.84C1310 1666.2 1309.93 1665.5 1310.07 1664.82C1310.2 1664.14 1310.54 1663.51 1311.03 1663.03C1311.51 1662.54 1312.14 1662.2 1312.82 1662.07C1313.5 1661.93 1314.2 1662 1314.84 1662.27C1315.48 1662.53 1316.03 1662.98 1316.41 1663.56C1316.79 1664.13 1317 1664.81 1317 1665.5C1317 1666.43 1316.63 1667.32 1315.97 1667.97C1315.32 1668.63 1314.43 1669 1313.5 1669ZM1313.5 1664C1313.2 1664 1312.91 1664.09 1312.67 1664.25C1312.42 1664.42 1312.23 1664.65 1312.11 1664.93C1312 1665.2 1311.97 1665.5 1312.03 1665.79C1312.09 1666.08 1312.23 1666.35 1312.44 1666.56C1312.65 1666.77 1312.92 1666.91 1313.21 1666.97C1313.5 1667.03 1313.8 1667 1314.07 1666.89C1314.35 1666.77 1314.58 1666.58 1314.75 1666.33C1314.91 1666.09 1315 1665.8 1315 1665.5C1315 1665.1 1314.84 1664.72 1314.56 1664.44C1314.28 1664.16 1313.9 1664 1313.5 1664ZM1310.5 1682C1309.81 1682 1309.13 1681.79 1308.56 1681.41C1307.98 1681.03 1307.53 1680.48 1307.27 1679.84C1307 1679.2 1306.93 1678.5 1307.07 1677.82C1307.2 1677.14 1307.54 1676.51 1308.03 1676.03C1308.51 1675.54 1309.14 1675.2 1309.82 1675.07C1310.5 1674.93 1311.2 1675 1311.84 1675.27C1312.48 1675.53 1313.03 1675.98 1313.41 1676.56C1313.79 1677.13 1314 1677.81 1314 1678.5C1314 1679.43 1313.63 1680.32 1312.97 1680.97C1312.32 1681.63 1311.43 1682 1310.5 1682ZM1310.5 1677C1310.2 1677 1309.91 1677.09 1309.67 1677.25C1309.42 1677.42 1309.23 1677.65 1309.11 1677.93C1309 1678.2 1308.97 1678.5 1309.03 1678.79C1309.09 1679.08 1309.23 1679.35 1309.44 1679.56C1309.65 1679.77 1309.92 1679.91 1310.21 1679.97C1310.5 1680.03 1310.8 1680 1311.07 1679.89C1311.35 1679.77 1311.58 1679.58 1311.75 1679.33C1311.91 1679.09 1312 1678.8 1312 1678.5C1312 1678.1 1311.84 1677.72 1311.56 1677.44C1311.28 1677.16 1310.9 1677 1310.5 1677ZM1305.5 1674C1304.81 1674 1304.13 1673.79 1303.56 1673.41C1302.98 1673.03 1302.53 1672.48 1302.27 1671.84C1302 1671.2 1301.93 1670.5 1302.07 1669.82C1302.2 1669.14 1302.54 1668.51 1303.03 1668.03C1303.51 1667.54 1304.14 1667.2 1304.82 1667.07C1305.5 1666.93 1306.2 1667 1306.84 1667.27C1307.48 1667.53 1308.03 1667.98 1308.41 1668.56C1308.79 1669.13 1309 1669.81 1309 1670.5C1309 1671.43 1308.63 1672.32 1307.97 1672.97C1307.32 1673.63 1306.43 1674 1305.5 1674ZM1305.5 1669C1305.2 1669 1304.91 1669.09 1304.67 1669.25C1304.42 1669.42 1304.23 1669.65 1304.11 1669.93C1304 1670.2 1303.97 1670.5 1304.03 1670.79C1304.09 1671.08 1304.23 1671.35 1304.44 1671.56C1304.65 1671.77 1304.92 1671.91 1305.21 1671.97C1305.5 1672.03 1305.8 1672 1306.07 1671.89C1306.35 1671.77 1306.58 1671.58 1306.75 1671.33C1306.91 1671.09 1307 1670.8 1307 1670.5C1307 1670.1 1306.84 1669.72 1306.56 1669.44C1306.28 1669.16 1305.9 1669 1305.5 1669ZM1318.5 1677C1317.81 1677 1317.13 1676.79 1316.56 1676.41C1315.98 1676.03 1315.53 1675.48 1315.27 1674.84C1315 1674.2 1314.93 1673.5 1315.07 1672.82C1315.2 1672.14 1315.54 1671.51 1316.03 1671.03C1316.51 1670.54 1317.14 1670.2 1317.82 1670.07C1318.5 1669.93 1319.2 1670 1319.84 1670.27C1320.48 1670.53 1321.03 1670.98 1321.41 1671.56C1321.79 1672.13 1322 1672.81 1322 1673.5C1322 1674.43 1321.63 1675.32 1320.97 1675.97C1320.32 1676.63 1319.43 1677 1318.5 1677ZM1318.5 1672C1318.2 1672 1317.91 1672.09 1317.67 1672.25C1317.42 1672.42 1317.23 1672.65 1317.11 1672.93C1317 1673.2 1316.97 1673.5 1317.03 1673.79C1317.09 1674.08 1317.23 1674.35 1317.44 1674.56C1317.65 1674.77 1317.92 1674.91 1318.21 1674.97C1318.5 1675.03 1318.8 1675 1319.07 1674.89C1319.35 1674.77 1319.58 1674.58 1319.75 1674.33C1319.91 1674.09 1320 1673.8 1320 1673.5C1320 1673.1 1319.84 1672.72 1319.56 1672.44C1319.28 1672.16 1318.9 1672 1318.5 1672Z" fill="currentColor" fill-rule="nonzero" />
  </g>
</svg>

