<svg viewBox="0 0 32 32" xmlns="http://www.w3.org/2000/svg" fill="none">
  <g transform="translate(-1584.000122 -1656)">
<path id="Vector 1190" d="M1596 1659.42L1594.59 1658L1591 1661.59L1587.41 1658L1586 1659.42L1589.59 1663L1586 1666.59L1587.41 1668L1591 1664.41L1594.59 1668L1596 1666.59L1592.41 1663L1596 1659.42ZM1609 1658L1604 1663L1605.41 1664.42L1608 1661.79L1608 1671L1592 1671C1590.9 1671 1590 1671.9 1590 1673L1590 1676.1C1587.72 1676.56 1586 1678.58 1586 1681C1586 1683.76 1588.24 1686 1591 1686C1593.76 1686 1596 1683.76 1596 1681C1596 1679.85 1595.6 1678.73 1594.87 1677.84C1594.14 1676.95 1593.13 1676.33 1592 1676.1L1592 1673L1608 1673C1609.1 1673 1610 1672.1 1610 1671L1610 1661.85L1612.59 1664.42L1614 1663L1609 1658ZM1594 1681C1594 1682.65 1592.65 1684 1591 1684C1589.35 1684 1588 1682.65 1588 1681C1588 1679.35 1589.35 1678 1591 1678C1592.65 1678 1594 1679.35 1594 1681Z" fill="currentColor" fill-rule="nonzero" />
		<path id="Vector 1191" d="M1614 1677.42L1612.59 1676L1609 1679.59L1605.41 1676L1604 1677.42L1607.59 1681L1604 1684.59L1605.41 1686L1609 1682.41L1612.59 1686L1614 1684.59L1610.41 1681L1614 1677.42Z" fill="currentColor" fill-rule="nonzero" />
  </g>
</svg>

