<svg viewBox="0 0 32 32" xmlns="http://www.w3.org/2000/svg" fill="none">
  <g transform="translate(-1656.000122 -1656)">
<path id="Vector 1192" d="M1665 1666L1667 1666L1667 1668L1665 1668L1665 1666ZM1665 1670L1667 1670L1667 1672L1665 1672L1665 1670ZM1669 1668L1671 1668L1671 1670L1669 1670L1669 1668Z" fill="currentColor" fill-rule="nonzero" />
		<path id="Vector 1193" d="M1665 1684C1664.75 1684 1664.5 1683.98 1664.26 1683.95C1663.06 1683.75 1661.97 1683.12 1661.19 1682.19C1660.41 1681.26 1659.99 1680.08 1660 1678.87L1660 1667.2C1659.99 1665.44 1660.62 1663.73 1661.79 1662.41C1662.95 1661.09 1664.56 1660.24 1666.31 1660.03C1667.88 1659.88 1669.45 1660.25 1670.77 1661.1L1678.74 1666.08C1679.8 1666.75 1680.65 1667.68 1681.23 1668.79C1681.8 1669.9 1682.06 1671.14 1681.99 1672.38C1681.92 1673.63 1681.52 1674.83 1680.82 1675.87C1680.13 1676.9 1679.18 1677.73 1678.05 1678.28L1667.17 1683.5C1666.5 1683.83 1665.75 1684 1665 1684ZM1667 1662C1666.84 1662 1666.67 1662.01 1666.5 1662.02C1665.25 1662.18 1664.09 1662.8 1663.26 1663.75C1662.43 1664.71 1661.98 1665.93 1662 1667.2L1662 1678.87C1661.98 1679.6 1662.23 1680.32 1662.7 1680.89C1663.17 1681.46 1663.82 1681.84 1664.54 1681.97C1665.14 1682.06 1665.76 1681.96 1666.31 1681.7L1677.19 1676.47C1677.99 1676.09 1678.67 1675.49 1679.16 1674.75C1679.66 1674.01 1679.94 1673.15 1679.99 1672.27C1680.04 1671.38 1679.85 1670.5 1679.45 1669.71C1679.04 1668.92 1678.43 1668.25 1677.68 1667.78L1669.71 1662.79C1668.9 1662.27 1667.96 1662 1667 1662ZM1682 1663L1678 1663C1676.94 1663 1675.92 1662.58 1675.17 1661.83C1674.42 1661.08 1674 1660.06 1674 1659L1674 1658L1676 1658L1676 1659C1676 1659.53 1676.21 1660.04 1676.59 1660.41C1676.96 1660.79 1677.47 1661 1678 1661L1682 1661L1682 1663Z" fill="currentColor" fill-rule="nonzero" />
  </g>
</svg>

