<svg viewBox="0 0 32 32" xmlns="http://www.w3.org/2000/svg" fill="none">
  <g transform="translate(-1728.000122 -1656)">
<path id="Vector 1194" d="M1754 1668L1750 1668L1750 1670L1754 1670L1754 1672L1751 1672L1751 1674L1754 1674L1754 1676L1750 1676L1750 1678L1754 1678C1754.53 1678 1755.04 1677.79 1755.41 1677.41C1755.79 1677.04 1756 1676.53 1756 1676L1756 1670C1756 1669.47 1755.79 1668.96 1755.41 1668.59C1755.04 1668.21 1754.53 1668 1754 1668ZM1747 1678L1741 1678L1741 1674C1741 1673.47 1741.21 1672.96 1741.59 1672.59C1741.96 1672.21 1742.47 1672 1743 1672L1745 1672L1745 1670L1741 1670L1741 1668L1745 1668C1745.53 1668 1746.04 1668.21 1746.41 1668.59C1746.79 1668.96 1747 1669.47 1747 1670L1747 1672C1747 1672.53 1746.79 1673.04 1746.41 1673.41C1746.04 1673.79 1745.53 1674 1745 1674L1743 1674L1743 1676L1747 1676L1747 1678ZM1736 1676L1736 1668L1734 1668L1734 1669L1732 1669L1732 1671L1734 1671L1734 1676L1732 1676L1732 1678L1738 1678L1738 1676L1736 1676Z" fill="currentColor" fill-rule="nonzero" />
  </g>
</svg>

