<svg viewBox="0 0 32 32" xmlns="http://www.w3.org/2000/svg" fill="none">
  <g transform="translate(-1800.000122 -1656)">
<path id="Vector 1195" d="M1829 1678L1824 1678C1823.47 1678 1822.96 1677.79 1822.59 1677.41C1822.21 1677.04 1822 1676.53 1822 1676L1822 1670C1822 1669.47 1822.21 1668.96 1822.59 1668.59C1822.96 1668.21 1823.47 1668 1824 1668L1829 1668L1829 1670L1824 1670L1824 1676L1829 1676L1829 1678ZM1818 1668L1814 1668L1814 1664L1812 1664L1812 1678L1818 1678C1818.53 1678 1819.04 1677.79 1819.41 1677.41C1819.79 1677.04 1820 1676.53 1820 1676L1820 1670C1820 1669.47 1819.79 1668.96 1819.41 1668.59C1819.04 1668.21 1818.53 1668 1818 1668ZM1814 1676L1814 1670L1818 1670L1818 1676L1814 1676ZM1808 1668L1803 1668L1803 1670L1808 1670L1808 1672L1804 1672C1803.47 1672 1802.96 1672.21 1802.59 1672.59C1802.21 1672.96 1802 1673.47 1802 1674L1802 1676C1802 1676.53 1802.21 1677.04 1802.59 1677.41C1802.96 1677.79 1803.47 1678 1804 1678L1810 1678L1810 1670C1810 1669.47 1809.79 1668.96 1809.41 1668.59C1809.04 1668.21 1808.53 1668 1808 1668ZM1808 1676L1804 1676L1804 1674L1808 1674L1808 1676Z" fill="currentColor" fill-rule="nonzero" />
  </g>
</svg>

