<svg viewBox="0 0 32 32" xmlns="http://www.w3.org/2000/svg" fill="none">
  <g transform="translate(-1872.000122 -1656)">
<path id="Vector 1196" d="M1885 1684L1885 1674L1892 1674C1892.18 1674 1892.35 1673.95 1892.5 1673.87C1892.65 1673.78 1892.78 1673.65 1892.86 1673.5C1892.95 1673.35 1893 1673.18 1893 1673C1893 1672.83 1892.96 1672.66 1892.87 1672.5L1884.87 1658.5C1884.68 1658.17 1884.34 1658 1884 1658C1883.66 1658 1883.32 1658.17 1883.13 1658.5L1875.13 1672.5C1875.05 1672.66 1875 1672.83 1875 1673C1875 1673.18 1875.05 1673.35 1875.14 1673.5C1875.22 1673.65 1875.35 1673.78 1875.5 1673.87C1875.65 1673.95 1875.83 1674 1876 1674L1883 1674L1883 1684C1883 1684.53 1883.21 1685.04 1883.59 1685.41C1883.96 1685.79 1884.47 1686 1885 1686L1900 1686L1900 1684L1885 1684ZM1877.72 1672L1884 1661.02L1890.28 1672L1877.72 1672Z" fill="currentColor" fill-rule="nonzero" />
  </g>
</svg>

