<svg viewBox="0 0 32 32" xmlns="http://www.w3.org/2000/svg" fill="none">
  <g transform="translate(-72 -1728)">
<path id="Vector 1201" d="M87.347 1757.99C85.9099 1757.92 84.4916 1757.63 83.142 1757.13L83.836 1755.26C84.9924 1755.69 86.2076 1755.93 87.439 1755.99L87.347 1757.99ZM91.612 1757.53L91.098 1755.6C92.289 1755.28 93.4236 1754.78 94.461 1754.11L95.539 1755.8C94.3274 1756.58 93.0027 1757.16 91.612 1757.53ZM79.395 1755.04C78.2605 1754.16 77.2689 1753.11 76.455 1751.92L78.103 1750.79C78.801 1751.81 79.6517 1752.71 80.625 1753.47L79.395 1755.04ZM74.597 1748.05C74.2003 1746.74 73.9991 1745.37 74 1744L76 1744C75.9992 1745.18 76.1717 1746.35 76.512 1747.48L74.597 1748.05ZM98 1745L96.586 1746.41L98.172 1748L87.816 1748C87.7451 1747.8 87.6529 1747.61 87.541 1747.42L92.022 1741.82C92.3359 1741.94 92.6664 1742 93 1742C93.5505 1742 94.0911 1741.85 94.5624 1741.57C95.0338 1741.28 95.4178 1740.88 95.6723 1740.39C95.9269 1739.9 96.0423 1739.35 96.0058 1738.8C95.9693 1738.25 95.7824 1737.72 95.4655 1737.27C95.1486 1736.82 94.7139 1736.47 94.2091 1736.25C93.7043 1736.03 93.1487 1735.95 92.6034 1736.03C92.058 1736.1 91.5438 1736.33 91.117 1736.67C90.6903 1737.02 90.3675 1737.48 90.184 1738L85.816 1738C85.6124 1737.42 85.2318 1736.91 84.7273 1736.55C84.2227 1736.19 83.619 1736 83 1736C82.381 1736 81.7773 1736.19 81.2728 1736.55C80.7682 1736.91 80.3876 1737.42 80.184 1738L74 1738L74 1740L80.184 1740C80.3876 1740.58 80.7682 1741.09 81.2728 1741.45C81.7773 1741.81 82.381 1742 83 1742C83.619 1742 84.2227 1741.81 84.7273 1741.45C85.2318 1741.09 85.6124 1740.58 85.816 1740L90.184 1740C90.2546 1740.2 90.3465 1740.39 90.458 1740.58L85.978 1746.18C85.6641 1746.06 85.3336 1746 85 1746C84.4495 1746 83.909 1746.15 83.4376 1746.43C82.9663 1746.72 82.5823 1747.12 82.3277 1747.61C82.0731 1748.1 81.9577 1748.65 81.9942 1749.2C82.0307 1749.75 82.2176 1750.28 82.5345 1750.73C82.8514 1751.18 83.2861 1751.53 83.7909 1751.75C84.2957 1751.97 84.8513 1752.05 85.3966 1751.97C85.942 1751.9 86.4562 1751.67 86.883 1751.33C87.3097 1750.98 87.6325 1750.52 87.816 1750L98.172 1750L96.586 1751.59L98 1753L102 1749L98 1745ZM93 1738C93.1978 1738 93.3911 1738.06 93.5556 1738.17C93.72 1738.28 93.8482 1738.43 93.9239 1738.62C93.9996 1738.8 94.0194 1739 93.9808 1739.2C93.9422 1739.39 93.847 1739.57 93.7071 1739.71C93.5673 1739.85 93.3891 1739.94 93.1951 1739.98C93.0011 1740.02 92.8 1740 92.6173 1739.92C92.4346 1739.85 92.2784 1739.72 92.1685 1739.56C92.0587 1739.39 92 1739.2 92 1739C92 1738.73 92.1054 1738.48 92.2929 1738.29C92.4804 1738.11 92.7348 1738 93 1738ZM83 1740C82.8022 1740 82.6089 1739.94 82.4444 1739.83C82.28 1739.72 82.1518 1739.57 82.0761 1739.38C82.0004 1739.2 81.9806 1739 82.0192 1738.81C82.0578 1738.61 82.153 1738.43 82.2929 1738.29C82.4327 1738.15 82.6109 1738.06 82.8049 1738.02C82.9989 1737.98 83.2 1738 83.3827 1738.08C83.5654 1738.15 83.7216 1738.28 83.8315 1738.44C83.9414 1738.61 84 1738.8 84 1739C84 1739.27 83.8946 1739.52 83.7071 1739.71C83.5196 1739.89 83.2652 1740 83 1740ZM85 1750C84.8022 1750 84.6089 1749.94 84.4444 1749.83C84.28 1749.72 84.1518 1749.57 84.0761 1749.38C84.0004 1749.2 83.9806 1749 84.0192 1748.81C84.0578 1748.61 84.153 1748.43 84.2929 1748.29C84.4327 1748.15 84.6109 1748.06 84.8049 1748.02C84.9989 1747.98 85.2 1748 85.3827 1748.08C85.5654 1748.15 85.7216 1748.28 85.8315 1748.44C85.9414 1748.61 86 1748.8 86 1749C86 1749.27 85.8946 1749.52 85.7071 1749.71C85.5196 1749.89 85.2652 1750 85 1750ZM100 1744C100.001 1742.82 99.8283 1741.65 99.488 1740.52L101.403 1739.95C101.8 1741.26 102.001 1742.63 102 1744L100 1744ZM97.896 1737.21C97.198 1736.19 96.3473 1735.29 95.374 1734.53L96.604 1732.96C97.7385 1733.84 98.7302 1734.89 99.544 1736.08L97.896 1737.21ZM81.54 1733.89L80.461 1732.2C81.6726 1731.42 82.9973 1730.84 84.388 1730.47L84.902 1732.4C83.7113 1732.72 82.5771 1733.22 81.54 1733.89ZM92.165 1732.74C91.0086 1732.32 89.7934 1732.07 88.562 1732.01L88.654 1730.02C90.0911 1730.08 91.5094 1730.37 92.859 1730.87L92.165 1732.74Z" fill="currentColor" fill-rule="nonzero" />
  </g>
</svg>

