<svg viewBox="0 0 32 32" xmlns="http://www.w3.org/2000/svg" fill="none">
  <g transform="translate(-0 -1728)">
<path id="Vector 1198" d="M16 1758C12.2883 1758 8.72977 1756.52 6.10518 1753.89C3.48059 1751.27 2.00423 1747.71 2 1744L4 1744C4.00076 1746.15 4.57997 1748.26 5.67698 1750.11C6.774 1751.97 8.34848 1753.49 10.2356 1754.52C12.1227 1755.56 14.2531 1756.06 16.4037 1755.99C18.5543 1755.92 20.6461 1755.27 22.46 1754.11L23.54 1755.8C21.2895 1757.24 18.6724 1758 16 1758Z" fill="currentColor" fill-rule="nonzero" />
		<path id="Vector 1199" d="M26 1745L24.586 1746.41L26.172 1748L15.816 1748C15.7451 1747.8 15.6529 1747.61 15.541 1747.42L20.022 1741.82C20.3359 1741.94 20.6664 1742 21 1742C21.5505 1742 22.091 1741.85 22.5624 1741.57C23.0338 1741.28 23.4177 1740.88 23.6723 1740.39C23.9269 1739.9 24.0423 1739.35 24.0058 1738.8C23.9693 1738.25 23.7824 1737.72 23.4655 1737.27C23.1486 1736.82 22.7139 1736.47 22.2091 1736.25C21.7043 1736.03 21.1487 1735.95 20.6034 1736.03C20.058 1736.1 19.5438 1736.33 19.117 1736.67C18.6903 1737.02 18.3675 1737.48 18.184 1738L13.816 1738C13.6124 1737.42 13.2318 1736.91 12.7273 1736.55C12.2227 1736.19 11.619 1736 11 1736C10.381 1736 9.77734 1736.19 9.27275 1736.55C8.76815 1736.91 8.38765 1737.42 8.184 1738L2 1738L2 1740L8.184 1740C8.38765 1740.58 8.76815 1741.09 9.27275 1741.45C9.77734 1741.81 10.381 1742 11 1742C11.619 1742 12.2227 1741.81 12.7273 1741.45C13.2318 1741.09 13.6124 1740.58 13.816 1740L18.184 1740C18.2546 1740.2 18.3465 1740.39 18.458 1740.58L13.978 1746.18C13.6641 1746.06 13.3336 1746 13 1746C12.4495 1746 11.909 1746.15 11.4376 1746.43C10.9662 1746.72 10.5823 1747.12 10.3277 1747.61C10.0731 1748.1 9.95769 1748.65 9.99418 1749.2C10.0307 1749.75 10.2176 1750.28 10.5345 1750.73C10.8514 1751.18 11.2861 1751.53 11.7909 1751.75C12.2957 1751.97 12.8513 1752.05 13.3966 1751.97C13.942 1751.9 14.4562 1751.67 14.883 1751.33C15.3097 1750.98 15.6325 1750.52 15.816 1750L26.172 1750L24.586 1751.59L26 1753L30 1749L26 1745ZM21 1738C21.1978 1738 21.3911 1738.06 21.5556 1738.17C21.72 1738.28 21.8482 1738.43 21.9239 1738.62C21.9996 1738.8 22.0194 1739 21.9808 1739.2C21.9422 1739.39 21.847 1739.57 21.7071 1739.71C21.5673 1739.85 21.3891 1739.94 21.1951 1739.98C21.0011 1740.02 20.8 1740 20.6173 1739.92C20.4346 1739.85 20.2784 1739.72 20.1685 1739.56C20.0586 1739.39 20 1739.2 20 1739C20 1738.73 20.1054 1738.48 20.2929 1738.29C20.4804 1738.11 20.7348 1738 21 1738ZM11 1740C10.8022 1740 10.6089 1739.94 10.4444 1739.83C10.28 1739.72 10.1518 1739.57 10.0761 1739.38C10.0004 1739.2 9.98063 1739 10.0192 1738.8C10.0578 1738.61 10.153 1738.43 10.2929 1738.29C10.4327 1738.15 10.6109 1738.06 10.8049 1738.02C10.9989 1737.98 11.2 1738 11.3827 1738.08C11.5654 1738.15 11.7216 1738.28 11.8315 1738.44C11.9414 1738.61 12 1738.8 12 1739C12 1739.27 11.8946 1739.52 11.7071 1739.71C11.5196 1739.89 11.2652 1740 11 1740ZM13 1750C12.8022 1750 12.6089 1749.94 12.4444 1749.83C12.28 1749.72 12.1518 1749.57 12.0761 1749.38C12.0004 1749.2 11.9806 1749 12.0192 1748.8C12.0578 1748.61 12.153 1748.43 12.2929 1748.29C12.4327 1748.15 12.6109 1748.06 12.8049 1748.02C12.9989 1747.98 13.2 1748 13.3827 1748.08C13.5654 1748.15 13.7216 1748.28 13.8315 1748.44C13.9414 1748.61 14 1748.8 14 1749C14 1749.27 13.8946 1749.52 13.7071 1749.71C13.5196 1749.89 13.2652 1750 13 1750Z" fill="currentColor" fill-rule="nonzero" />
		<path id="Vector 1200" d="M30 1744L28 1744C27.9992 1741.85 27.42 1739.74 26.323 1737.89C25.226 1736.03 23.6515 1734.51 21.7644 1733.48C19.8773 1732.44 17.7469 1731.94 15.5963 1732.01C13.4457 1732.08 11.3539 1732.73 9.53999 1733.89L8.45999 1732.2C10.5761 1730.85 13.0167 1730.09 15.5263 1730.01C18.0359 1729.92 20.5221 1730.51 22.7244 1731.72C24.9267 1732.93 26.7641 1734.7 28.0441 1736.86C29.3241 1739.02 29.9997 1741.49 30 1744Z" fill="currentColor" fill-rule="nonzero" />
  </g>
</svg>

