<svg viewBox="0 0 32 32" xmlns="http://www.w3.org/2000/svg" fill="none">
  <g transform="translate(-144 -1728)">
<path id="Vector 1202" d="M166.775 1748.5L166.689 1748.5C166.379 1749.4 165.655 1750.21 164.174 1750.21C162.33 1750.21 161.297 1748.93 161.297 1746.69L161.297 1741.01L163.502 1741.01L163.502 1746.47C163.502 1747.71 163.967 1748.38 165.018 1748.38C165.896 1748.38 166.775 1747.92 166.775 1746.95L166.775 1741.01L168.98 1741.01L168.98 1750L166.775 1750L166.775 1748.5ZM150.62 1748.21L152.153 1746.73C152.98 1747.69 153.996 1748.21 155.236 1748.21C156.632 1748.21 157.356 1747.54 157.356 1746.52C157.356 1745.71 156.976 1745.21 155.719 1744.99L154.582 1744.82C152.152 1744.44 150.982 1743.28 150.982 1741.32C150.982 1739.17 152.652 1737.77 155.34 1737.77C157.149 1737.77 158.492 1738.39 159.457 1739.54L157.907 1741.01C157.321 1740.27 156.494 1739.77 155.219 1739.77C153.927 1739.77 153.255 1740.29 153.255 1741.18C153.255 1742.09 153.772 1742.47 154.926 1742.68L156.046 1742.89C158.475 1743.32 159.612 1744.4 159.612 1746.38C159.612 1748.66 157.975 1750.21 155.098 1750.21C153.048 1750.21 151.637 1749.4 150.62 1748.21Z" fill="currentColor" fill-rule="nonzero" />
		<path id="Vector 1203" d="M172 1758L148 1758C147.47 1758 146.961 1757.79 146.586 1757.41C146.211 1757.04 146 1756.53 146 1756L146 1732C146 1731.47 146.211 1730.96 146.586 1730.59C146.961 1730.21 147.47 1730 148 1730L172 1730C172.53 1730 173.039 1730.21 173.414 1730.59C173.789 1730.96 174 1731.47 174 1732L174 1756C174 1756.53 173.789 1757.04 173.414 1757.41C173.039 1757.79 172.53 1758 172 1758ZM148 1756L172 1756L172 1732L148 1732L148 1756Z" fill="currentColor" fill-rule="nonzero" />
  </g>
</svg>

