<svg viewBox="0 0 32 32" xmlns="http://www.w3.org/2000/svg" fill="none">
  <g transform="translate(-216 -1728)">
<path id="Vector 1204" d="M238.775 1748.5L238.689 1748.5C238.379 1749.4 237.655 1750.21 236.174 1750.21C234.33 1750.21 233.297 1748.93 233.297 1746.69L233.297 1741.01L235.502 1741.01L235.502 1746.47C235.502 1747.71 235.967 1748.38 237.018 1748.38C237.896 1748.38 238.775 1747.92 238.775 1746.95L238.775 1741.01L240.98 1741.01L240.98 1750L238.775 1750L238.775 1748.5ZM222.62 1748.21L224.153 1746.73C224.98 1747.69 225.996 1748.21 227.236 1748.21C228.632 1748.21 229.356 1747.54 229.356 1746.52C229.356 1745.71 228.976 1745.21 227.719 1744.99L226.582 1744.82C224.152 1744.44 222.982 1743.28 222.982 1741.32C222.982 1739.17 224.652 1737.77 227.34 1737.77C229.149 1737.77 230.492 1738.39 231.457 1739.54L229.907 1741.01C229.321 1740.27 228.494 1739.77 227.219 1739.77C225.927 1739.77 225.255 1740.29 225.255 1741.18C225.255 1742.09 225.772 1742.47 226.926 1742.68L228.046 1742.89C230.475 1743.32 231.612 1744.4 231.612 1746.38C231.612 1748.66 229.975 1750.21 227.098 1750.21C225.048 1750.21 223.637 1749.4 222.62 1748.21Z" fill="currentColor" fill-rule="nonzero" />
		<path id="Vector 1205" d="M237 1758L227 1758C222.037 1758 218 1753.96 218 1749L218 1739C218 1734.04 222.037 1730 227 1730L237 1730C241.963 1730 246 1734.04 246 1739L246 1749C246 1753.96 241.963 1758 237 1758ZM227 1732C223.14 1732 220 1735.14 220 1739L220 1749C220 1752.86 223.14 1756 227 1756L237 1756C240.86 1756 244 1752.86 244 1749L244 1739C244 1735.14 240.86 1732 237 1732L227 1732Z" fill="currentColor" fill-rule="nonzero" />
  </g>
</svg>

