<svg viewBox="0 0 32 32" xmlns="http://www.w3.org/2000/svg" fill="none">
  <g transform="translate(-288 -1728)">
<path id="Vector 1206" d="M306 1742L318 1742L318 1744L306 1744L306 1742ZM306 1747L314 1747L314 1749L306 1749L306 1747ZM306 1737L318 1737L318 1739L306 1739L306 1737Z" fill="currentColor" fill-rule="nonzero" />
		<path id="Vector 1207" d="M310 1752L310 1756L294 1756L294 1744L302 1744L302 1742L298 1742L298 1736C297.999 1735.08 298.315 1734.19 298.895 1733.47C299.474 1732.76 300.283 1732.27 301.183 1732.08C302.083 1731.89 303.021 1732.02 303.838 1732.44C304.655 1732.87 305.301 1733.56 305.668 1734.4L307.5 1733.6C306.948 1732.34 305.979 1731.3 304.754 1730.67C303.529 1730.04 302.124 1729.85 300.775 1730.13C299.426 1730.41 298.215 1731.15 297.345 1732.22C296.476 1733.29 296.001 1734.62 296 1736L296 1742L294 1742C293.47 1742 292.961 1742.21 292.586 1742.59C292.211 1742.96 292 1743.47 292 1744L292 1756C292 1756.53 292.211 1757.04 292.586 1757.41C292.961 1757.79 293.47 1758 294 1758L310 1758C310.53 1758 311.039 1757.79 311.414 1757.41C311.789 1757.04 312 1756.53 312 1756L312 1752L310 1752Z" fill="currentColor" fill-rule="nonzero" />
  </g>
</svg>

