<svg viewBox="0 0 32 32" xmlns="http://www.w3.org/2000/svg" fill="none">
  <g transform="translate(-360 -1728)">
<path id="Vector 1208" d="M384.868 1744.5L376.868 1730.5C376.512 1729.88 375.488 1729.88 375.132 1730.5L367.132 1744.5C367.045 1744.66 367 1744.83 367 1745C367.001 1745.18 367.048 1745.35 367.135 1745.5C367.223 1745.65 367.349 1745.78 367.501 1745.87C367.653 1745.95 367.825 1746 368 1746L375 1746L375 1758L377 1758L377 1746L384 1746C384.175 1746 384.347 1745.95 384.499 1745.87C384.651 1745.78 384.777 1745.65 384.865 1745.5C384.953 1745.35 384.999 1745.18 385 1745C385 1744.83 384.955 1744.66 384.868 1744.5ZM369.723 1744L376 1733.02L382.277 1744L369.723 1744Z" fill="currentColor" fill-rule="nonzero" />
  </g>
</svg>

