<svg viewBox="0 0 32 32" xmlns="http://www.w3.org/2000/svg" fill="none">
  <g transform="translate(-504 -1728)">
<path id="Vector 1210" d="M520 1732C526.6 1732 532 1737.4 532 1744C532 1750.6 526.6 1756 520 1756C513.4 1756 508 1750.6 508 1744C508 1737.4 513.4 1732 520 1732ZM520 1730C512.3 1730 506 1736.3 506 1744C506 1751.7 512.3 1758 520 1758C527.7 1758 534 1751.7 534 1744C534 1736.3 527.7 1730 520 1730Z" fill="currentColor" fill-rule="nonzero" />
		<path id="Vector 1211" d="M512 1743L528 1743L528 1745L512 1745L512 1743Z" fill="currentColor" fill-rule="nonzero" />
  </g>
</svg>

