<svg viewBox="0 0 32 32" xmlns="http://www.w3.org/2000/svg" fill="none">
  <g transform="translate(-576 -1728)">
<path id="Vector 1212" d="M586 1752C586 1753.59 586.632 1755.12 587.757 1756.24C588.883 1757.37 590.409 1758 592 1758C593.591 1758 595.117 1757.37 596.243 1756.24C597.368 1755.12 598 1753.59 598 1752C598 1750.41 597.368 1748.88 596.243 1747.76C595.117 1746.63 593.591 1746 592 1746C590.409 1746 588.883 1746.63 587.757 1747.76C586.632 1748.88 586 1750.41 586 1752ZM588 1752C588 1749.79 589.794 1748 592 1748C594.206 1748 596 1749.79 596 1752C596 1754.21 594.206 1756 592 1756C589.794 1756 588 1754.21 588 1752ZM606 1733C606 1732.2 605.684 1731.44 605.121 1730.88C604.559 1730.32 603.796 1730 603 1730C602.204 1730 601.441 1730.32 600.879 1730.88C600.316 1731.44 600 1732.2 600 1733C600.001 1733.62 600.194 1734.22 600.552 1734.73C600.911 1735.23 601.416 1735.61 602 1735.82L602 1741C601.997 1741.84 601.818 1742.68 601.474 1743.45C601.129 1744.21 600.627 1744.9 600 1745.47L600 1743L598 1743L598 1749L604 1749L604 1747L601.283 1747C602.134 1746.25 602.816 1745.33 603.284 1744.29C603.752 1743.26 603.996 1742.14 604 1741L604 1735.82C604.584 1735.61 605.089 1735.23 605.448 1734.73C605.806 1734.22 605.999 1733.62 606 1733ZM603 1734C602.735 1734 602.48 1733.89 602.293 1733.71C602.105 1733.52 602 1733.27 602 1733C602 1732.73 602.105 1732.48 602.293 1732.29C602.48 1732.11 602.735 1732 603 1732C603.265 1732 603.52 1732.11 603.707 1732.29C603.895 1732.48 604 1732.73 604 1733C604 1733.27 603.895 1733.52 603.707 1733.71C603.52 1733.89 603.265 1734 603 1734ZM594.586 1739.59L593 1741.17L593 1735.82C593.668 1735.58 594.231 1735.12 594.59 1734.51C594.949 1733.9 595.08 1733.18 594.96 1732.48C594.84 1731.79 594.477 1731.16 593.935 1730.7C593.393 1730.25 592.708 1730 592 1730C591.292 1730 590.607 1730.25 590.065 1730.7C589.523 1731.16 589.16 1731.79 589.04 1732.48C588.92 1733.18 589.051 1733.9 589.41 1734.51C589.769 1735.12 590.332 1735.58 591 1735.82L591 1741.17L589.414 1739.59L588 1741L592 1745L596 1741L594.586 1739.59ZM592 1732C592.265 1732 592.52 1732.11 592.707 1732.29C592.895 1732.48 593 1732.73 593 1733C593 1733.27 592.895 1733.52 592.707 1733.71C592.52 1733.89 592.265 1734 592 1734C591.735 1734 591.48 1733.89 591.293 1733.71C591.105 1733.52 591 1733.27 591 1733C591 1732.73 591.105 1732.48 591.293 1732.29C591.48 1732.11 591.735 1732 592 1732ZM584 1743L584 1745.47C583.373 1744.9 582.871 1744.21 582.526 1743.45C582.182 1742.68 582.003 1741.84 582 1741L582 1735.82C582.668 1735.58 583.231 1735.12 583.59 1734.51C583.949 1733.9 584.08 1733.18 583.96 1732.48C583.84 1731.79 583.477 1731.16 582.935 1730.7C582.393 1730.25 581.708 1730 581 1730C580.292 1730 579.607 1730.25 579.065 1730.7C578.523 1731.16 578.16 1731.79 578.04 1732.48C577.92 1733.18 578.051 1733.9 578.41 1734.51C578.769 1735.12 579.332 1735.58 580 1735.82L580 1741C580.004 1742.14 580.248 1743.26 580.716 1744.29C581.184 1745.33 581.866 1746.25 582.717 1747L580 1747L580 1749L586 1749L586 1743L584 1743ZM581 1732C581.265 1732 581.52 1732.11 581.707 1732.29C581.895 1732.48 582 1732.73 582 1733C582 1733.27 581.895 1733.52 581.707 1733.71C581.52 1733.89 581.265 1734 581 1734C580.735 1734 580.48 1733.89 580.293 1733.71C580.105 1733.52 580 1733.27 580 1733C580 1732.73 580.105 1732.48 580.293 1732.29C580.48 1732.11 580.735 1732 581 1732Z" fill="currentColor" fill-rule="nonzero" />
  </g>
</svg>

