<svg viewBox="0 0 32 32" xmlns="http://www.w3.org/2000/svg" fill="none">
  <g transform="translate(-648 -1728)">
<path id="Vector 1213" d="M672 1749L672 1737L670 1737L670 1751L678 1751L678 1749L672 1749ZM668 1743L668 1739C668 1737.9 667.103 1737 666 1737L660 1737L660 1751L662 1751L662 1745L663.48 1745L665.815 1751L667.96 1751L665.627 1745L666 1745C667.103 1745 668 1744.1 668 1743ZM662 1739L666 1739L666 1743L662 1743L662 1739ZM656 1751L652 1751C650.897 1751 650 1750.1 650 1749L650 1737L652 1737L652 1749L656 1749L656 1737L658 1737L658 1749C658 1750.1 657.103 1751 656 1751Z" fill="currentColor" fill-rule="nonzero" />
  </g>
</svg>

