<svg viewBox="0 0 32 32" xmlns="http://www.w3.org/2000/svg" fill="none">
  <g transform="translate(-792 -1728)">
<path id="Vector 1215" d="M816 1743L816 1734C816 1733.47 815.789 1732.96 815.414 1732.59C815.039 1732.21 814.53 1732 814 1732L802 1732C801.47 1732 800.961 1732.21 800.586 1732.59C800.211 1732.96 800 1733.47 800 1734L800 1743C799.47 1743 798.961 1743.21 798.586 1743.59C798.211 1743.96 798 1744.47 798 1745L798 1756L800 1756L800 1745L816 1745L816 1756L818 1756L818 1745C818 1744.47 817.789 1743.96 817.414 1743.59C817.039 1743.21 816.53 1743 816 1743ZM802 1734L814 1734L814 1743L802 1743L802 1734Z" fill="currentColor" fill-rule="nonzero" />
		<path id="Vector 1216" d="M804 1738L807 1738L807 1740L804 1740L804 1738ZM809 1738L812 1738L812 1740L809 1740L809 1738Z" fill="currentColor" fill-rule="nonzero" />
  </g>
</svg>

