<svg viewBox="0 0 32 32" xmlns="http://www.w3.org/2000/svg" fill="none">
  <g transform="translate(-936 -1728)">
<path id="Vector 1219" d="M958.074 1749.99C959.78 1749.99 961.014 1749.21 961.589 1747.66L959.933 1746.87C959.611 1747.66 959.105 1748.25 958.073 1748.25C956.873 1748.25 956.265 1747.42 956.265 1746.19L956.265 1744.58C956.265 1743.35 956.873 1742.5 958.074 1742.5C959.003 1742.5 959.561 1743.05 959.764 1743.79L961.538 1742.99C961.014 1741.61 959.848 1740.76 958.074 1740.76C955.471 1740.76 954 1742.54 954 1745.36C954 1748.2 955.47 1749.99 958.074 1749.99ZM947.513 1749.99C950.826 1749.99 952.059 1748.42 952.059 1744.95L952.059 1737.99L949.862 1737.99L949.862 1745.24C949.862 1747.08 949.22 1748.01 947.53 1748.01C945.84 1748.01 945.197 1747.08 945.197 1745.24L945.197 1737.99L943 1737.99L943 1744.95C943 1748.42 944.2 1749.99 947.513 1749.99Z" fill="currentColor" fill-rule="nonzero" />
		<path id="Vector 1220" d="M957 1758L947 1758C942.037 1758 938 1753.96 938 1749L938 1739C938 1734.04 942.037 1730 947 1730L957 1730C961.963 1730 966 1734.04 966 1739L966 1749C966 1753.96 961.963 1758 957 1758ZM947 1732C943.14 1732 940 1735.14 940 1739L940 1749C940 1752.86 943.14 1756 947 1756L957 1756C960.86 1756 964 1752.86 964 1749L964 1739C964 1735.14 960.86 1732 957 1732L947 1732Z" fill="currentColor" fill-rule="nonzero" />
  </g>
</svg>

