<svg viewBox="0 0 32 32" xmlns="http://www.w3.org/2000/svg" fill="none">
  <g transform="translate(-864 -1728)">
<path id="Vector 1217" d="M886.074 1749.99C887.78 1749.99 889.014 1749.21 889.589 1747.66L887.933 1746.87C887.611 1747.66 887.105 1748.25 886.073 1748.25C884.873 1748.25 884.265 1747.42 884.265 1746.19L884.265 1744.58C884.265 1743.35 884.873 1742.5 886.074 1742.5C887.003 1742.5 887.561 1743.05 887.764 1743.79L889.538 1742.99C889.014 1741.61 887.848 1740.76 886.074 1740.76C883.471 1740.76 882 1742.54 882 1745.36C882 1748.2 883.47 1749.99 886.074 1749.99ZM875.513 1749.99C878.826 1749.99 880.059 1748.42 880.059 1744.95L880.059 1737.99L877.862 1737.99L877.862 1745.24C877.862 1747.08 877.22 1748.01 875.53 1748.01C873.84 1748.01 873.197 1747.08 873.197 1745.24L873.197 1737.99L871 1737.99L871 1744.95C871 1748.42 872.2 1749.99 875.513 1749.99Z" fill="currentColor" fill-rule="nonzero" />
		<path id="Vector 1218" d="M866 1732L866 1756C866 1756.53 866.211 1757.04 866.586 1757.41C866.961 1757.79 867.47 1758 868 1758L892 1758C892.53 1758 893.039 1757.79 893.414 1757.41C893.789 1757.04 894 1756.53 894 1756L894 1732C894 1731.47 893.789 1730.96 893.414 1730.59C893.039 1730.21 892.53 1730 892 1730L868 1730C867.47 1730 866.961 1730.21 866.586 1730.59C866.211 1730.96 866 1731.47 866 1732ZM892 1756L868 1756L868 1732L892 1732L892 1756Z" fill="currentColor" fill-rule="nonzero" />
  </g>
</svg>

