<svg viewBox="0 0 32 32" xmlns="http://www.w3.org/2000/svg" fill="none">
  <g transform="translate(-144 -1800)">
<path id="Vector 1239" d="M176 1814L172 1814L172 1810L170 1810L170 1814L166 1814L166 1816L170 1816L170 1820L172 1820L172 1816L176 1816L176 1814ZM156 1804C156.989 1804 157.956 1804.29 158.778 1804.84C159.6 1805.39 160.241 1806.17 160.619 1807.09C160.998 1808 161.097 1809.01 160.904 1809.98C160.711 1810.95 160.235 1811.84 159.535 1812.54C158.836 1813.23 157.945 1813.71 156.975 1813.9C156.005 1814.1 155 1814 154.087 1813.62C153.173 1813.24 152.392 1812.6 151.843 1811.78C151.293 1810.96 151 1809.99 151 1809C151 1807.67 151.527 1806.4 152.464 1805.46C153.402 1804.53 154.674 1804 156 1804ZM156 1802C154.615 1802 153.262 1802.41 152.111 1803.18C150.96 1803.95 150.063 1805.04 149.533 1806.32C149.003 1807.6 148.864 1809.01 149.135 1810.37C149.405 1811.72 150.071 1812.97 151.05 1813.95C152.029 1814.93 153.277 1815.6 154.634 1815.87C155.992 1816.14 157.4 1816 158.679 1815.47C159.958 1814.94 161.051 1814.04 161.82 1812.89C162.59 1811.74 163 1810.38 163 1809C163 1807.14 162.262 1805.36 160.95 1804.05C159.637 1802.74 157.857 1802 156 1802ZM166 1830L164 1830L164 1825C164 1823.67 163.473 1822.4 162.535 1821.46C161.598 1820.53 160.326 1820 159 1820L153 1820C151.674 1820 150.402 1820.53 149.464 1821.46C148.527 1822.4 148 1823.67 148 1825L148 1830L146 1830L146 1825C146 1823.14 146.738 1821.36 148.05 1820.05C149.363 1818.74 151.143 1818 153 1818L159 1818C160.857 1818 162.637 1818.74 163.95 1820.05C165.262 1821.36 166 1823.14 166 1825L166 1830Z" fill="currentColor" fill-rule="nonzero" />
  </g>
</svg>

