<svg viewBox="0 0 32 32" xmlns="http://www.w3.org/2000/svg" fill="none">
  <g transform="translate(-1080 -1728)">
<g id="clip path group" mask="url(#mask_2)">
			<g id="Group 10">
				<path id="Vector 1222" d="M1096 1758L1094 1758L1094 1753C1094 1752.2 1093.68 1751.44 1093.12 1750.88C1092.56 1750.32 1091.8 1750 1091 1750L1087 1750C1086.2 1750 1085.44 1750.32 1084.88 1750.88C1084.32 1751.44 1084 1752.2 1084 1753L1084 1758L1082 1758L1082 1753C1082 1751.67 1082.53 1750.4 1083.47 1749.47C1084.4 1748.53 1085.67 1748 1087 1748L1091 1748C1092.33 1748 1093.6 1748.53 1094.53 1749.47C1095.47 1750.4 1096 1751.67 1096 1753L1096 1758ZM1089 1738C1089.59 1738 1090.17 1738.18 1090.67 1738.51C1091.16 1738.84 1091.54 1739.3 1091.77 1739.85C1092 1740.4 1092.06 1741 1091.94 1741.59C1091.83 1742.17 1091.54 1742.7 1091.12 1743.12C1090.7 1743.54 1090.17 1743.83 1089.59 1743.94C1089 1744.06 1088.4 1744 1087.85 1743.77C1087.3 1743.54 1086.84 1743.16 1086.51 1742.67C1086.18 1742.17 1086 1741.59 1086 1741C1086 1740.2 1086.32 1739.44 1086.88 1738.88C1087.44 1738.32 1088.2 1738 1089 1738ZM1089 1736C1088.01 1736 1087.04 1736.29 1086.22 1736.84C1085.4 1737.39 1084.76 1738.17 1084.38 1739.09C1084 1740 1083.9 1741.01 1084.1 1741.98C1084.29 1742.95 1084.77 1743.84 1085.46 1744.54C1086.16 1745.23 1087.05 1745.71 1088.02 1745.9C1088.99 1746.1 1090 1746 1090.91 1745.62C1091.83 1745.24 1092.61 1744.6 1093.16 1743.78C1093.71 1742.96 1094 1741.99 1094 1741C1094 1740.34 1093.87 1739.69 1093.62 1739.09C1093.37 1738.48 1093 1737.93 1092.54 1737.46C1092.07 1737 1091.52 1736.63 1090.91 1736.38C1090.31 1736.13 1089.66 1736 1089 1736ZM1110 1740C1109.83 1740 1109.65 1740.03 1109.49 1740.07L1108.43 1739.02C1108.8 1738.41 1109 1737.71 1109 1737C1109 1736.29 1108.8 1735.59 1108.43 1734.98L1109.49 1733.93C1109.92 1734.05 1110.38 1734.02 1110.8 1733.85C1111.21 1733.68 1111.56 1733.38 1111.79 1732.99C1112.02 1732.6 1112.11 1732.15 1112.05 1731.71C1111.99 1731.26 1111.79 1730.85 1111.47 1730.53C1111.15 1730.21 1110.74 1730.01 1110.29 1729.95C1109.85 1729.89 1109.4 1729.98 1109.01 1730.21C1108.62 1730.44 1108.32 1730.79 1108.15 1731.2C1107.98 1731.62 1107.95 1732.08 1108.07 1732.51L1107.02 1733.57C1106.41 1733.2 1105.71 1733 1105 1733C1104.29 1733 1103.59 1733.2 1102.98 1733.57L1101.93 1732.51C1102.05 1732.08 1102.02 1731.62 1101.85 1731.2C1101.68 1730.79 1101.38 1730.44 1100.99 1730.21C1100.6 1729.98 1100.15 1729.89 1099.71 1729.95C1099.26 1730.01 1098.85 1730.21 1098.53 1730.53C1098.21 1730.85 1098.01 1731.26 1097.95 1731.71C1097.89 1732.15 1097.98 1732.6 1098.21 1732.99C1098.44 1733.38 1098.79 1733.68 1099.2 1733.85C1099.62 1734.02 1100.08 1734.05 1100.51 1733.93L1101.57 1734.98C1101.2 1735.59 1101 1736.29 1101 1737C1101 1737.71 1101.2 1738.41 1101.57 1739.02L1100.51 1740.07C1100.08 1739.95 1099.62 1739.98 1099.2 1740.15C1098.79 1740.32 1098.44 1740.62 1098.21 1741.01C1097.98 1741.4 1097.89 1741.85 1097.95 1742.29C1098.01 1742.74 1098.21 1743.15 1098.53 1743.47C1098.85 1743.79 1099.26 1743.99 1099.71 1744.05C1100.15 1744.11 1100.6 1744.02 1100.99 1743.79C1101.38 1743.56 1101.68 1743.21 1101.85 1742.8C1102.02 1742.38 1102.05 1741.92 1101.93 1741.49L1102.98 1740.43C1103.59 1740.8 1104.29 1741 1105 1741C1105.71 1741 1106.41 1740.8 1107.02 1740.43L1108.07 1741.49C1107.97 1741.89 1107.99 1742.32 1108.14 1742.71C1108.29 1743.1 1108.56 1743.43 1108.9 1743.66C1109.25 1743.89 1109.66 1744.01 1110.08 1743.99C1110.49 1743.98 1110.9 1743.83 1111.23 1743.58C1111.56 1743.32 1111.8 1742.97 1111.92 1742.57C1112.04 1742.17 1112.03 1741.74 1111.89 1741.35C1111.76 1740.95 1111.5 1740.61 1111.16 1740.37C1110.82 1740.13 1110.42 1740 1110 1740ZM1103 1737C1103 1736.6 1103.12 1736.22 1103.34 1735.89C1103.56 1735.56 1103.87 1735.3 1104.23 1735.15C1104.6 1735 1105 1734.96 1105.39 1735.04C1105.78 1735.12 1106.13 1735.31 1106.41 1735.59C1106.69 1735.87 1106.88 1736.22 1106.96 1736.61C1107.04 1737 1107 1737.4 1106.85 1737.77C1106.7 1738.13 1106.44 1738.44 1106.11 1738.66C1105.78 1738.88 1105.4 1739 1105 1739C1104.47 1739 1103.96 1738.79 1103.59 1738.41C1103.21 1738.04 1103 1737.53 1103 1737Z" fill="currentColor" fill-rule="evenodd" />
  </g>
</svg>

