<svg viewBox="0 0 32 32" xmlns="http://www.w3.org/2000/svg" fill="none">
  <g transform="translate(-1440.000122 -1728)">
<path id="Vector 1227" d="M1456 1736C1455.01 1736 1454.04 1736.29 1453.22 1736.84C1452.4 1737.39 1451.76 1738.17 1451.38 1739.09C1451 1740 1450.9 1741.01 1451.1 1741.98C1451.29 1742.95 1451.77 1743.84 1452.46 1744.54C1453.16 1745.23 1454.05 1745.71 1455.02 1745.9C1455.99 1746.1 1457 1746 1457.91 1745.62C1458.83 1745.24 1459.61 1744.6 1460.16 1743.78C1460.71 1742.96 1461 1741.99 1461 1741C1461 1739.67 1460.47 1738.4 1459.54 1737.46C1458.6 1736.53 1457.33 1736 1456 1736ZM1456 1744C1455.41 1744 1454.83 1743.82 1454.33 1743.49C1453.84 1743.16 1453.46 1742.7 1453.23 1742.15C1453 1741.6 1452.94 1741 1453.06 1740.41C1453.17 1739.83 1453.46 1739.3 1453.88 1738.88C1454.3 1738.46 1454.83 1738.17 1455.41 1738.06C1456 1737.94 1456.6 1738 1457.15 1738.23C1457.7 1738.46 1458.16 1738.84 1458.49 1739.33C1458.82 1739.83 1459 1740.41 1459 1741C1459 1741.8 1458.68 1742.56 1458.12 1743.12C1457.56 1743.68 1456.8 1744 1456 1744Z" fill="currentColor" fill-rule="nonzero" />
		<path id="Vector 1228" d="M1456 1730C1453.23 1730 1450.52 1730.82 1448.22 1732.36C1445.92 1733.9 1444.13 1736.08 1443.07 1738.64C1442.01 1741.2 1441.73 1744.02 1442.27 1746.73C1442.81 1749.45 1444.14 1751.94 1446.1 1753.9C1448.06 1755.86 1450.55 1757.19 1453.27 1757.73C1455.98 1758.27 1458.8 1757.99 1461.36 1756.93C1463.92 1755.87 1466.1 1754.08 1467.64 1751.78C1469.18 1749.48 1470 1746.77 1470 1744C1470 1740.29 1468.52 1736.73 1465.89 1734.11C1463.27 1731.48 1459.71 1730 1456 1730ZM1450 1754.38L1450 1753C1450 1752.2 1450.32 1751.44 1450.88 1750.88C1451.44 1750.32 1452.2 1750 1453 1750L1459 1750C1459.8 1750 1460.56 1750.32 1461.12 1750.88C1461.68 1751.44 1462 1752.2 1462 1753L1462 1754.38C1460.18 1755.44 1458.11 1756 1456 1756C1453.89 1756 1451.82 1755.44 1450 1754.38ZM1463.99 1752.93C1463.97 1751.61 1463.44 1750.36 1462.51 1749.44C1461.57 1748.52 1460.31 1748 1459 1748L1453 1748C1451.69 1748 1450.43 1748.52 1449.5 1749.44C1448.56 1750.36 1448.03 1751.61 1448.01 1752.93C1446.19 1751.31 1444.92 1749.17 1444.34 1746.81C1443.77 1744.45 1443.92 1741.97 1444.79 1739.7C1445.66 1737.43 1447.19 1735.47 1449.19 1734.09C1451.2 1732.71 1453.57 1731.97 1456 1731.97C1458.43 1731.97 1460.81 1732.71 1462.81 1734.09C1464.81 1735.47 1466.35 1737.43 1467.21 1739.7C1468.08 1741.97 1468.24 1744.45 1467.66 1746.81C1467.09 1749.17 1465.81 1751.31 1463.99 1752.93Z" fill="currentColor" fill-rule="nonzero" />
  </g>
</svg>

