<svg viewBox="0 0 32 32" xmlns="http://www.w3.org/2000/svg" fill="none">
  <g transform="translate(-1008 -1728)">
<path id="Vector 1221" d="M1024 1732C1024.99 1732 1025.96 1732.29 1026.78 1732.84C1027.6 1733.39 1028.24 1734.17 1028.62 1735.09C1029 1736 1029.1 1737.01 1028.9 1737.98C1028.71 1738.95 1028.23 1739.84 1027.54 1740.54C1026.84 1741.23 1025.95 1741.71 1024.98 1741.9C1024.01 1742.1 1023 1742 1022.09 1741.62C1021.17 1741.24 1020.39 1740.6 1019.84 1739.78C1019.29 1738.96 1019 1737.99 1019 1737C1019 1735.67 1019.53 1734.4 1020.46 1733.46C1021.4 1732.53 1022.67 1732 1024 1732ZM1024 1730C1022.62 1730 1021.26 1730.41 1020.11 1731.18C1018.96 1731.95 1018.06 1733.04 1017.53 1734.32C1017 1735.6 1016.86 1737.01 1017.13 1738.37C1017.4 1739.72 1018.07 1740.97 1019.05 1741.95C1020.03 1742.93 1021.28 1743.6 1022.63 1743.87C1023.99 1744.14 1025.4 1744 1026.68 1743.47C1027.96 1742.94 1029.05 1742.04 1029.82 1740.89C1030.59 1739.74 1031 1738.38 1031 1737C1031 1735.14 1030.26 1733.36 1028.95 1732.05C1027.64 1730.74 1025.86 1730 1024 1730ZM1034 1758L1032 1758L1032 1753C1032 1752.34 1031.87 1751.69 1031.62 1751.09C1031.37 1750.48 1031 1749.93 1030.54 1749.46C1030.07 1749 1029.52 1748.63 1028.91 1748.38C1028.31 1748.13 1027.66 1748 1027 1748L1021 1748C1019.67 1748 1018.4 1748.53 1017.46 1749.46C1016.53 1750.4 1016 1751.67 1016 1753L1016 1758L1014 1758L1014 1753C1014 1751.14 1014.74 1749.36 1016.05 1748.05C1017.36 1746.74 1019.14 1746 1021 1746L1027 1746C1028.86 1746 1030.64 1746.74 1031.95 1748.05C1033.26 1749.36 1034 1751.14 1034 1753L1034 1758Z" fill="currentColor" fill-rule="nonzero" />
  </g>
</svg>

