<svg viewBox="0 0 32 32" xmlns="http://www.w3.org/2000/svg" fill="none">
  <g transform="translate(-360 -1800)">
<path id="Vector 1246" d="M390 1830L388 1830L388 1825C387.998 1823.67 387.471 1822.4 386.534 1821.47C385.596 1820.53 384.326 1820 383 1820L383 1818C384.856 1818 386.635 1818.74 387.947 1820.05C389.259 1821.37 389.997 1823.14 390 1825L390 1830ZM382 1830L380 1830L380 1825C379.998 1823.67 379.471 1822.4 378.534 1821.47C377.596 1820.53 376.326 1820 375 1820L369 1820C367.674 1820 366.404 1820.53 365.466 1821.47C364.529 1822.4 364.002 1823.67 364 1825L364 1830L362 1830L362 1825C362.003 1823.14 362.741 1821.37 364.053 1820.05C365.365 1818.74 367.144 1818 369 1818L375 1818C376.856 1818 378.635 1818.74 379.947 1820.05C381.259 1821.37 381.997 1823.14 382 1825L382 1830ZM380 1802L380 1804C381.326 1804 382.598 1804.53 383.535 1805.46C384.473 1806.4 385 1807.67 385 1809C385 1810.33 384.473 1811.6 383.535 1812.54C382.598 1813.47 381.326 1814 380 1814L380 1816C381.857 1816 383.637 1815.26 384.95 1813.95C386.263 1812.64 387 1810.86 387 1809C387 1807.14 386.263 1805.36 384.95 1804.05C383.637 1802.74 381.857 1802 380 1802ZM372 1804C372.989 1804 373.956 1804.29 374.778 1804.84C375.6 1805.39 376.241 1806.17 376.619 1807.09C376.998 1808 377.097 1809.01 376.904 1809.98C376.711 1810.95 376.235 1811.84 375.535 1812.54C374.836 1813.23 373.945 1813.71 372.975 1813.9C372.005 1814.1 371 1814 370.087 1813.62C369.173 1813.24 368.392 1812.6 367.843 1811.78C367.293 1810.96 367 1809.99 367 1809C367 1807.67 367.527 1806.4 368.464 1805.46C369.402 1804.53 370.674 1804 372 1804ZM372 1802C370.616 1802 369.262 1802.41 368.111 1803.18C366.96 1803.95 366.063 1805.04 365.533 1806.32C365.003 1807.6 364.864 1809.01 365.134 1810.37C365.405 1811.72 366.071 1812.97 367.05 1813.95C368.029 1814.93 369.276 1815.6 370.634 1815.87C371.992 1816.14 373.4 1816 374.679 1815.47C375.958 1814.94 377.051 1814.04 377.82 1812.89C378.59 1811.74 379 1810.38 379 1809C379 1807.14 378.263 1805.36 376.95 1804.05C375.637 1802.74 373.857 1802 372 1802Z" fill="currentColor" fill-rule="nonzero" />
  </g>
</svg>

