<svg viewBox="0 0 32 32" xmlns="http://www.w3.org/2000/svg" fill="none">
  <g transform="translate(-1656.000122 -1728)">
<path id="Vector 1232" d="M1681 1738L1682.59 1741L1686 1741.41L1683.5 1743.67L1684 1747L1681 1745.12L1678 1747L1678.5 1743.67L1676 1741.41L1679.5 1741L1681 1738ZM1678 1758L1676 1758L1676 1753C1676 1751.67 1675.47 1750.4 1674.53 1749.47C1673.6 1748.53 1672.33 1748 1671 1748L1665 1748C1663.67 1748 1662.4 1748.53 1661.47 1749.47C1660.53 1750.4 1660 1751.67 1660 1753L1660 1758L1658 1758L1658 1753C1658 1751.14 1658.74 1749.37 1660.05 1748.05C1661.37 1746.74 1663.14 1746 1665 1746L1671 1746C1672.86 1746 1674.63 1746.74 1675.95 1748.05C1677.26 1749.37 1678 1751.14 1678 1753L1678 1758ZM1668 1732C1668.99 1732 1669.96 1732.29 1670.78 1732.84C1671.6 1733.39 1672.24 1734.17 1672.62 1735.09C1673 1736 1673.1 1737.01 1672.9 1737.98C1672.71 1738.95 1672.23 1739.84 1671.54 1740.54C1670.84 1741.23 1669.95 1741.71 1668.98 1741.9C1668.01 1742.1 1667 1742 1666.09 1741.62C1665.17 1741.24 1664.39 1740.6 1663.84 1739.78C1663.29 1738.96 1663 1737.99 1663 1737C1663 1735.67 1663.53 1734.4 1664.46 1733.46C1665.4 1732.53 1666.67 1732 1668 1732ZM1668 1730C1666.62 1730 1665.26 1730.41 1664.11 1731.18C1662.96 1731.95 1662.06 1733.04 1661.53 1734.32C1661 1735.6 1660.86 1737.01 1661.13 1738.37C1661.4 1739.72 1662.07 1740.97 1663.05 1741.95C1664.03 1742.93 1665.28 1743.6 1666.63 1743.87C1667.99 1744.14 1669.4 1744 1670.68 1743.47C1671.96 1742.94 1673.05 1742.04 1673.82 1740.89C1674.59 1739.74 1675 1738.38 1675 1737C1675 1735.14 1674.26 1733.36 1672.95 1732.05C1671.64 1730.74 1669.86 1730 1668 1730Z" fill="currentColor" fill-rule="nonzero" />
  </g>
</svg>

