<svg viewBox="0 0 32 32" xmlns="http://www.w3.org/2000/svg" fill="none">
  <g transform="translate(-1296 -1728)">
<path id="Vector 1225" d="M1321 1751L1320.98 1751C1320.77 1751 1320.56 1750.92 1320.39 1750.79C1320.22 1750.66 1320.1 1750.48 1320.04 1750.27L1316.87 1739.19L1314.94 1744.35C1314.86 1744.54 1314.74 1744.7 1314.57 1744.82C1314.4 1744.94 1314.2 1745 1314 1745L1310 1745L1310 1743L1313.31 1743L1316.06 1735.65C1316.14 1735.45 1316.27 1735.28 1316.45 1735.17C1316.62 1735.05 1316.83 1734.99 1317.04 1735C1317.25 1735.01 1317.45 1735.08 1317.62 1735.21C1317.78 1735.34 1317.9 1735.52 1317.96 1735.72L1321.07 1746.62L1323.05 1740.68C1323.12 1740.48 1323.25 1740.31 1323.42 1740.19C1323.59 1740.07 1323.79 1740 1324 1740L1328 1740L1328 1742L1324.72 1742L1321.95 1750.32C1321.88 1750.52 1321.75 1750.69 1321.58 1750.81C1321.41 1750.93 1321.21 1751 1321 1751ZM1311 1758L1309 1758L1309 1751C1309 1750.2 1308.68 1749.44 1308.12 1748.88C1307.56 1748.32 1306.8 1748 1306 1748L1302 1748C1301.2 1748 1300.44 1748.32 1299.88 1748.88C1299.32 1749.44 1299 1750.2 1299 1751L1299 1758L1297 1758L1297 1751C1297 1749.67 1297.53 1748.4 1298.47 1747.47C1299.4 1746.53 1300.67 1746 1302 1746L1306 1746C1307.33 1746 1308.6 1746.53 1309.53 1747.47C1310.47 1748.4 1311 1749.67 1311 1751L1311 1758ZM1304 1736C1304.59 1736 1305.17 1736.18 1305.67 1736.51C1306.16 1736.84 1306.54 1737.3 1306.77 1737.85C1307 1738.4 1307.06 1739 1306.94 1739.59C1306.83 1740.17 1306.54 1740.7 1306.12 1741.12C1305.7 1741.54 1305.17 1741.83 1304.59 1741.94C1304 1742.06 1303.4 1742 1302.85 1741.77C1302.3 1741.54 1301.84 1741.16 1301.51 1740.67C1301.18 1740.17 1301 1739.59 1301 1739C1301 1738.2 1301.32 1737.44 1301.88 1736.88C1302.44 1736.32 1303.2 1736 1304 1736ZM1304 1734C1303.01 1734 1302.04 1734.29 1301.22 1734.84C1300.4 1735.39 1299.76 1736.17 1299.38 1737.09C1299 1738 1298.9 1739.01 1299.1 1739.98C1299.29 1740.95 1299.77 1741.84 1300.46 1742.54C1301.16 1743.23 1302.05 1743.71 1303.02 1743.9C1303.99 1744.1 1305 1744 1305.91 1743.62C1306.83 1743.24 1307.61 1742.6 1308.16 1741.78C1308.71 1740.96 1309 1739.99 1309 1739C1309 1737.67 1308.47 1736.4 1307.54 1735.46C1306.6 1734.53 1305.33 1734 1304 1734Z" fill="currentColor" fill-rule="nonzero" />
  </g>
</svg>

