<svg viewBox="0 0 32 32" xmlns="http://www.w3.org/2000/svg" fill="none">
  <g transform="translate(-648 -1800)">
<path id="Vector 1251" d="M676.07 1821L670 1815L676.07 1809L677.5 1810.41L672.86 1815L677.5 1819.59L676.07 1821ZM670 1830L668 1830L668 1825C668 1823.67 667.473 1822.4 666.536 1821.46C665.598 1820.53 664.326 1820 663 1820L657 1820C655.674 1820 654.402 1820.53 653.464 1821.46C652.527 1822.4 652 1823.67 652 1825L652 1830L650 1830L650 1825C650 1823.14 650.737 1821.36 652.05 1820.05C653.363 1818.74 655.143 1818 657 1818L663 1818C664.857 1818 666.637 1818.74 667.95 1820.05C669.263 1821.36 670 1823.14 670 1825L670 1830ZM660 1804C660.989 1804 661.956 1804.29 662.778 1804.84C663.6 1805.39 664.241 1806.17 664.619 1807.09C664.998 1808 665.097 1809.01 664.904 1809.98C664.711 1810.95 664.235 1811.84 663.536 1812.54C662.836 1813.23 661.945 1813.71 660.976 1813.9C660.005 1814.1 659 1814 658.087 1813.62C657.173 1813.24 656.392 1812.6 655.843 1811.78C655.293 1810.96 655 1809.99 655 1809C655 1807.67 655.527 1806.4 656.464 1805.46C657.402 1804.53 658.674 1804 660 1804ZM660 1802C658.615 1802 657.262 1802.41 656.111 1803.18C654.96 1803.95 654.063 1805.04 653.533 1806.32C653.003 1807.6 652.864 1809.01 653.135 1810.37C653.405 1811.72 654.071 1812.97 655.05 1813.95C656.029 1814.93 657.276 1815.6 658.634 1815.87C659.992 1816.14 661.4 1816 662.679 1815.47C663.958 1814.94 665.051 1814.04 665.82 1812.89C666.589 1811.74 667 1810.38 667 1809C667 1807.14 666.263 1805.36 664.95 1804.05C663.637 1802.74 661.857 1802 660 1802Z" fill="currentColor" fill-rule="nonzero" />
  </g>
</svg>

