<svg viewBox="0 0 32 32" xmlns="http://www.w3.org/2000/svg" fill="none">
  <g transform="translate(-432 -1800)">
<path id="Vector 1247" d="M458 1820C460.209 1820 462 1818.21 462 1816C462 1813.79 460.209 1812 458 1812C455.791 1812 454 1813.79 454 1816C454 1818.21 455.791 1820 458 1820Z" fill="currentColor" fill-rule="nonzero" />
		<path id="Vector 1248" d="M454 1830L452 1830L452 1825C452 1823.67 451.473 1822.4 450.535 1821.46C449.598 1820.53 448.326 1820 447 1820L441 1820C439.674 1820 438.402 1820.53 437.464 1821.46C436.527 1822.4 436 1823.67 436 1825L436 1830L434 1830L434 1825C434 1823.14 434.737 1821.36 436.05 1820.05C437.363 1818.74 439.143 1818 441 1818L447 1818C448.857 1818 450.637 1818.74 451.95 1820.05C453.263 1821.36 454 1823.14 454 1825L454 1830ZM444 1804C444.989 1804 445.956 1804.29 446.778 1804.84C447.6 1805.39 448.241 1806.17 448.619 1807.09C448.998 1808 449.097 1809.01 448.904 1809.98C448.711 1810.95 448.235 1811.84 447.535 1812.54C446.836 1813.23 445.945 1813.71 444.975 1813.9C444.005 1814.1 443 1814 442.087 1813.62C441.173 1813.24 440.392 1812.6 439.843 1811.78C439.293 1810.96 439 1809.99 439 1809C439 1807.67 439.527 1806.4 440.464 1805.46C441.402 1804.53 442.674 1804 444 1804ZM444 1802C442.616 1802 441.262 1802.41 440.111 1803.18C438.96 1803.95 438.063 1805.04 437.533 1806.32C437.003 1807.6 436.864 1809.01 437.134 1810.37C437.405 1811.72 438.071 1812.97 439.05 1813.95C440.029 1814.93 441.276 1815.6 442.634 1815.87C443.992 1816.14 445.4 1816 446.679 1815.47C447.958 1814.94 449.051 1814.04 449.82 1812.89C450.59 1811.74 451 1810.38 451 1809C451 1807.14 450.263 1805.36 448.95 1804.05C447.637 1802.74 445.857 1802 444 1802Z" fill="currentColor" fill-rule="nonzero" />
  </g>
</svg>

