<svg viewBox="0 0 32 32" xmlns="http://www.w3.org/2000/svg" fill="none">
  <g transform="translate(-720 -1800)">
<path id="Vector 1252" d="M743.019 1810.43C742.409 1810.8 741.712 1811 741 1811C738.794 1811 737 1809.21 737 1807C737 1806.64 737.062 1806.31 737.15 1805.98L739.586 1808.41C739.866 1808.69 740.222 1808.88 740.61 1808.96C740.997 1809.04 741.399 1809 741.764 1808.84C742.129 1808.69 742.441 1808.44 742.661 1808.11C742.881 1807.78 742.999 1807.4 743 1807C743 1806.45 742.776 1805.95 742.414 1805.59L739.977 1803.15C740.31 1803.06 740.654 1803.01 741 1803C743.206 1803 745 1804.79 745 1807C745 1807.74 744.785 1808.42 744.433 1809.02L750 1814.58L748.586 1816L743.019 1810.43ZM736 1830L734 1830L734 1825C733.999 1824.2 733.683 1823.44 733.12 1822.88C732.558 1822.32 731.795 1822 731 1822L727 1822C726.205 1822 725.442 1822.32 724.88 1822.88C724.317 1823.44 724.001 1824.2 724 1825L724 1830L722 1830L722 1825C722.002 1823.67 722.529 1822.4 723.466 1821.47C724.404 1820.53 725.674 1820 727 1820L731 1820C732.326 1820 733.596 1820.53 734.534 1821.47C735.471 1822.4 735.998 1823.67 736 1825L736 1830ZM729 1810C729.796 1810 730.559 1810.32 731.121 1810.88C731.684 1811.44 732 1812.2 732 1813C732 1813.8 731.684 1814.56 731.121 1815.12C730.559 1815.68 729.796 1816 729 1816C728.204 1816 727.441 1815.68 726.879 1815.12C726.316 1814.56 726 1813.8 726 1813C726 1812.2 726.316 1811.44 726.879 1810.88C727.441 1810.32 728.204 1810 729 1810ZM729 1808C727.674 1808 726.402 1808.53 725.464 1809.46C724.527 1810.4 724 1811.67 724 1813C724 1814.33 724.527 1815.6 725.464 1816.54C726.402 1817.47 727.674 1818 729 1818C730.326 1818 731.598 1817.47 732.536 1816.54C733.473 1815.6 734 1814.33 734 1813C734 1811.67 733.473 1810.4 732.536 1809.46C731.598 1808.53 730.326 1808 729 1808Z" fill="currentColor" fill-rule="nonzero" />
  </g>
</svg>

