<svg viewBox="0 0 32 32" xmlns="http://www.w3.org/2000/svg" fill="none">
  <g transform="translate(-1800.000122 -1728)">
<path id="Vector 1234" d="M1827.3 1740C1826.95 1740 1826.6 1740.07 1826.27 1740.21C1825.94 1740.35 1825.64 1740.55 1825.4 1740.81L1825 1741.21L1824.61 1740.81C1824.36 1740.55 1824.06 1740.35 1823.73 1740.21C1823.41 1740.07 1823.05 1740 1822.7 1740C1822.34 1740 1821.99 1740.07 1821.66 1740.21C1821.33 1740.35 1821.04 1740.55 1820.79 1740.81C1820.28 1741.33 1820 1742.03 1820 1742.75C1820 1743.48 1820.28 1744.18 1820.79 1744.7L1825 1749L1829.21 1744.7C1829.72 1744.18 1830 1743.48 1830 1742.75C1830 1742.03 1829.72 1741.33 1829.21 1740.81C1828.96 1740.55 1828.67 1740.35 1828.34 1740.21C1828.01 1740.07 1827.66 1740 1827.3 1740ZM1802 1758L1804 1758L1804 1753C1804 1751.67 1804.53 1750.4 1805.47 1749.47C1806.4 1748.53 1807.67 1748 1809 1748L1815 1748C1816.33 1748 1817.6 1748.53 1818.53 1749.47C1819.47 1750.4 1820 1751.67 1820 1753L1820 1758L1822 1758L1822 1753C1822 1751.14 1821.26 1749.37 1819.95 1748.05C1818.63 1746.74 1816.86 1746 1815 1746L1809 1746C1807.14 1746 1805.37 1746.74 1804.05 1748.05C1802.74 1749.37 1802 1751.14 1802 1753L1802 1758ZM1812 1732C1812.99 1732 1813.96 1732.29 1814.78 1732.84C1815.6 1733.39 1816.24 1734.17 1816.62 1735.09C1817 1736 1817.1 1737.01 1816.9 1737.98C1816.71 1738.95 1816.23 1739.84 1815.54 1740.54C1814.84 1741.23 1813.95 1741.71 1812.98 1741.9C1812.01 1742.1 1811 1742 1810.09 1741.62C1809.17 1741.24 1808.39 1740.6 1807.84 1739.78C1807.29 1738.96 1807 1737.99 1807 1737C1807 1735.67 1807.53 1734.4 1808.46 1733.46C1809.4 1732.53 1810.67 1732 1812 1732ZM1812 1730C1810.62 1730 1809.26 1730.41 1808.11 1731.18C1806.96 1731.95 1806.06 1733.04 1805.53 1734.32C1805 1735.6 1804.86 1737.01 1805.13 1738.37C1805.4 1739.72 1806.07 1740.97 1807.05 1741.95C1808.03 1742.93 1809.28 1743.6 1810.63 1743.87C1811.99 1744.14 1813.4 1744 1814.68 1743.47C1815.96 1742.94 1817.05 1742.04 1817.82 1740.89C1818.59 1739.74 1819 1738.38 1819 1737C1819 1735.14 1818.26 1733.36 1816.95 1732.05C1815.64 1730.74 1813.86 1730 1812 1730Z" fill="currentColor" fill-rule="nonzero" />
  </g>
</svg>

