<svg viewBox="0 0 32 32" xmlns="http://www.w3.org/2000/svg" fill="none">
  <g transform="translate(-1152 -1728)">
<path id="Vector 1223" d="M1180 1736L1180 1733C1180 1730.79 1178.21 1729 1176 1729C1173.79 1729 1172 1730.79 1172 1733L1172 1736C1170.9 1736 1170 1736.9 1170 1738L1170 1744C1170 1745.1 1170.9 1746 1172 1746L1180 1746C1181.1 1746 1182 1745.1 1182 1744L1182 1738C1182 1736.9 1181.1 1736 1180 1736ZM1174 1733C1174 1731.9 1174.9 1731 1176 1731C1177.1 1731 1178 1731.9 1178 1733L1178 1736L1174 1736L1174 1733ZM1172 1744L1172 1738L1180 1738L1180 1744L1172 1744ZM1168 1758L1166 1758L1166 1753C1166 1752.2 1165.68 1751.44 1165.12 1750.88C1164.56 1750.32 1163.8 1750 1163 1750L1159 1750C1158.2 1750 1157.44 1750.32 1156.88 1750.88C1156.32 1751.44 1156 1752.2 1156 1753L1156 1758L1154 1758L1154 1753C1154 1751.67 1154.53 1750.4 1155.47 1749.47C1156.4 1748.53 1157.67 1748 1159 1748L1163 1748C1164.33 1748 1165.6 1748.53 1166.53 1749.47C1167.47 1750.4 1168 1751.67 1168 1753L1168 1758ZM1161 1738C1161.8 1738 1162.56 1738.32 1163.12 1738.88C1163.68 1739.44 1164 1740.2 1164 1741C1164 1741.8 1163.68 1742.56 1163.12 1743.12C1162.56 1743.68 1161.8 1744 1161 1744C1160.2 1744 1159.44 1743.68 1158.88 1743.12C1158.32 1742.56 1158 1741.8 1158 1741C1158 1740.2 1158.32 1739.44 1158.88 1738.88C1159.44 1738.32 1160.2 1738 1161 1738ZM1161 1736C1159.67 1736 1158.4 1736.53 1157.46 1737.46C1156.53 1738.4 1156 1739.67 1156 1741C1156 1742.33 1156.53 1743.6 1157.46 1744.54C1158.4 1745.47 1159.67 1746 1161 1746C1162.33 1746 1163.6 1745.47 1164.54 1744.54C1165.47 1743.6 1166 1742.33 1166 1741C1166 1739.67 1165.47 1738.4 1164.54 1737.46C1163.6 1736.53 1162.33 1736 1161 1736Z" fill="currentColor" fill-rule="nonzero" />
  </g>
</svg>

