<svg viewBox="0 0 32 32" xmlns="http://www.w3.org/2000/svg" fill="none">
  <g transform="translate(-504 -1800)">
<path id="Vector 1249" d="M516 1804C516.989 1804 517.956 1804.29 518.778 1804.84C519.6 1805.39 520.241 1806.17 520.619 1807.09C520.998 1808 521.097 1809.01 520.904 1809.98C520.711 1810.95 520.235 1811.84 519.536 1812.54C518.836 1813.23 517.945 1813.71 516.976 1813.9C516.005 1814.1 515 1814 514.087 1813.62C513.173 1813.24 512.392 1812.6 511.843 1811.78C511.293 1810.96 511 1809.99 511 1809C511 1807.67 511.527 1806.4 512.464 1805.46C513.402 1804.53 514.674 1804 516 1804ZM516 1802C514.615 1802 513.262 1802.41 512.111 1803.18C510.96 1803.95 510.063 1805.04 509.533 1806.32C509.003 1807.6 508.864 1809.01 509.134 1810.37C509.405 1811.72 510.071 1812.97 511.05 1813.95C512.029 1814.93 513.276 1815.6 514.634 1815.87C515.992 1816.14 517.4 1816 518.679 1815.47C519.958 1814.94 521.051 1814.04 521.82 1812.89C522.589 1811.74 523 1810.38 523 1809C523 1807.14 522.263 1805.36 520.95 1804.05C519.637 1802.74 517.857 1802 516 1802ZM526 1830L524 1830L524 1825C524 1823.67 523.473 1822.4 522.536 1821.46C521.598 1820.53 520.326 1820 519 1820L513 1820C511.674 1820 510.402 1820.53 509.464 1821.46C508.527 1822.4 508 1823.67 508 1825L508 1830L506 1830L506 1825C506 1823.14 506.737 1821.36 508.05 1820.05C509.363 1818.74 511.143 1818 513 1818L519 1818C520.857 1818 522.637 1818.74 523.95 1820.05C525.263 1821.36 526 1823.14 526 1825L526 1830ZM526 1804L536 1804L536 1806L526 1806L526 1804ZM526 1809L536 1809L536 1811L526 1811L526 1809ZM526 1814L533 1814L533 1816L526 1816L526 1814Z" fill="currentColor" fill-rule="nonzero" />
  </g>
</svg>

