<svg viewBox="0 0 32 32" xmlns="http://www.w3.org/2000/svg" fill="none">
  <g transform="translate(-1224 -1728)">
<path id="Vector 1224" d="M1240 1758L1238 1758L1238 1753C1238 1752.2 1237.68 1751.44 1237.12 1750.88C1236.56 1750.32 1235.8 1750 1235 1750L1231 1750C1230.2 1750 1229.44 1750.32 1228.88 1750.88C1228.32 1751.44 1228 1752.2 1228 1753L1228 1758L1226 1758L1226 1753C1226 1751.67 1226.53 1750.4 1227.47 1749.47C1228.4 1748.53 1229.67 1748 1231 1748L1235 1748C1236.33 1748 1237.6 1748.53 1238.53 1749.47C1239.47 1750.4 1240 1751.67 1240 1753L1240 1758ZM1233 1738C1233.8 1738 1234.56 1738.32 1235.12 1738.88C1235.68 1739.44 1236 1740.2 1236 1741C1236 1741.8 1235.68 1742.56 1235.12 1743.12C1234.56 1743.68 1233.8 1744 1233 1744C1232.2 1744 1231.44 1743.68 1230.88 1743.12C1230.32 1742.56 1230 1741.8 1230 1741C1230 1740.2 1230.32 1739.44 1230.88 1738.88C1231.44 1738.32 1232.2 1738 1233 1738ZM1233 1736C1231.67 1736 1230.4 1736.53 1229.46 1737.46C1228.53 1738.4 1228 1739.67 1228 1741C1228 1742.33 1228.53 1743.6 1229.46 1744.54C1230.4 1745.47 1231.67 1746 1233 1746C1234.33 1746 1235.6 1745.47 1236.54 1744.54C1237.47 1743.6 1238 1742.33 1238 1741C1238 1739.67 1237.47 1738.4 1236.54 1737.46C1235.6 1736.53 1234.33 1736 1233 1736ZM1252 1736L1246 1736L1246 1733C1246 1731.9 1246.9 1731 1248 1731C1249.1 1731 1250 1731.9 1250 1733L1252 1733C1252 1730.79 1250.21 1729 1248 1729C1245.79 1729 1244 1730.79 1244 1733L1244 1736C1242.9 1736 1242 1736.9 1242 1738L1242 1744C1242 1745.1 1242.9 1746 1244 1746L1252 1746C1253.1 1746 1254 1745.1 1254 1744L1254 1738C1254 1736.9 1253.1 1736 1252 1736ZM1252 1744L1244 1744L1244 1738L1252 1738L1252 1744Z" fill="currentColor" fill-rule="nonzero" />
  </g>
</svg>

