<svg viewBox="0 0 32 32" xmlns="http://www.w3.org/2000/svg" fill="none">
  <g transform="translate(-1944.000122 -1728)">
<path id="Vector 1236" d="M1970.49 1731C1970.03 1731 1969.58 1731.09 1969.15 1731.27C1968.72 1731.45 1968.34 1731.71 1968.01 1732.04L1967.5 1732.56L1966.99 1732.04C1966.66 1731.71 1966.28 1731.45 1965.85 1731.27C1965.43 1731.09 1964.97 1731 1964.51 1731C1964.05 1731 1963.59 1731.09 1963.16 1731.27C1962.74 1731.45 1962.35 1731.71 1962.03 1732.04C1961.37 1732.71 1961 1733.61 1961 1734.55C1961 1735.49 1961.37 1736.39 1962.03 1737.06L1967.5 1742.61L1972.98 1737.06C1973.63 1736.39 1974 1735.49 1974 1734.55C1974 1733.61 1973.63 1732.71 1972.98 1732.04C1972.65 1731.71 1972.27 1731.45 1971.84 1731.27C1971.41 1731.09 1970.96 1731 1970.49 1731ZM1960 1758L1958 1758L1958 1753C1958 1752.2 1957.68 1751.44 1957.12 1750.88C1956.56 1750.32 1955.8 1750 1955 1750L1951 1750C1950.2 1750 1949.44 1750.32 1948.88 1750.88C1948.32 1751.44 1948 1752.2 1948 1753L1948 1758L1946 1758L1946 1753C1946 1751.67 1946.53 1750.4 1947.47 1749.47C1948.4 1748.53 1949.67 1748 1951 1748L1955 1748C1956.33 1748 1957.6 1748.53 1958.53 1749.47C1959.47 1750.4 1960 1751.67 1960 1753L1960 1758ZM1953 1738C1953.59 1738 1954.17 1738.18 1954.67 1738.51C1955.16 1738.84 1955.54 1739.3 1955.77 1739.85C1956 1740.4 1956.06 1741 1955.94 1741.59C1955.83 1742.17 1955.54 1742.7 1955.12 1743.12C1954.7 1743.54 1954.17 1743.83 1953.59 1743.94C1953 1744.06 1952.4 1744 1951.85 1743.77C1951.3 1743.54 1950.84 1743.16 1950.51 1742.67C1950.18 1742.17 1950 1741.59 1950 1741C1950 1740.2 1950.32 1739.44 1950.88 1738.88C1951.44 1738.32 1952.2 1738 1953 1738ZM1953 1736C1952.01 1736 1951.04 1736.29 1950.22 1736.84C1949.4 1737.39 1948.76 1738.17 1948.38 1739.09C1948 1740 1947.9 1741.01 1948.1 1741.98C1948.29 1742.95 1948.77 1743.84 1949.46 1744.54C1950.16 1745.23 1951.05 1745.71 1952.02 1745.9C1952.99 1746.1 1954 1746 1954.91 1745.62C1955.83 1745.24 1956.61 1744.6 1957.16 1743.78C1957.71 1742.96 1958 1741.99 1958 1741C1958 1740.34 1957.87 1739.69 1957.62 1739.09C1957.37 1738.48 1957 1737.93 1956.54 1737.46C1956.07 1737 1955.52 1736.63 1954.91 1736.38C1954.31 1736.13 1953.66 1736 1953 1736Z" fill="currentColor" fill-rule="nonzero" />
  </g>
</svg>

