<svg viewBox="0 0 32 32" xmlns="http://www.w3.org/2000/svg" fill="none">
  <g transform="translate(-288 -1800)">
<path id="Vector 1243" d="M313 1813L311.407 1816L308 1816.41L310.5 1818.67L310 1822L313 1820.12L316 1822L315.5 1818.67L318 1816.41L314.5 1816L313 1813Z" fill="currentColor" fill-rule="nonzero" />
		<path id="Vector 1244" d="M309.414 1813.41L313 1809.83L316.587 1813.42L318 1812L313 1807L308 1812L309.414 1813.41Z" fill="currentColor" fill-rule="nonzero" />
		<path id="Vector 1245" d="M309.414 1808.41L313 1804.83L316.587 1808.42L318 1807L313 1802L308 1807L309.414 1808.41ZM304 1830L302 1830L302 1825C301.999 1824.2 301.683 1823.44 301.12 1822.88C300.558 1822.32 299.795 1822 299 1822L295 1822C294.205 1822 293.442 1822.32 292.88 1822.88C292.317 1823.44 292.001 1824.2 292 1825L292 1830L290 1830L290 1825C290.002 1823.67 290.529 1822.4 291.466 1821.47C292.404 1820.53 293.674 1820 295 1820L299 1820C300.326 1820 301.596 1820.53 302.534 1821.47C303.471 1822.4 303.998 1823.67 304 1825L304 1830ZM297 1810C297.593 1810 298.173 1810.18 298.667 1810.51C299.16 1810.84 299.545 1811.3 299.772 1811.85C299.999 1812.4 300.058 1813 299.942 1813.59C299.827 1814.17 299.541 1814.7 299.121 1815.12C298.702 1815.54 298.167 1815.83 297.585 1815.94C297.003 1816.06 296.4 1816 295.852 1815.77C295.304 1815.54 294.835 1815.16 294.506 1814.67C294.176 1814.17 294 1813.59 294 1813C294 1812.2 294.316 1811.44 294.879 1810.88C295.441 1810.32 296.204 1810 297 1810ZM297 1808C296.011 1808 295.044 1808.29 294.222 1808.84C293.4 1809.39 292.759 1810.17 292.381 1811.09C292.002 1812 291.903 1813.01 292.096 1813.98C292.289 1814.95 292.765 1815.84 293.464 1816.54C294.164 1817.23 295.055 1817.71 296.025 1817.9C296.994 1818.1 298 1818 298.913 1817.62C299.827 1817.24 300.608 1816.6 301.157 1815.78C301.707 1814.96 302 1813.99 302 1813C302 1812.34 301.871 1811.69 301.619 1811.09C301.368 1810.48 301 1809.93 300.535 1809.46C300.071 1809 299.52 1808.63 298.913 1808.38C298.307 1808.13 297.657 1808 297 1808Z" fill="currentColor" fill-rule="nonzero" />
  </g>
</svg>

