<svg viewBox="0 0 32 32" xmlns="http://www.w3.org/2000/svg" fill="none">
  <g transform="translate(-1872.000122 -1728)">
<path id="Vector 1235" d="M1900.77 1732.26C1900.01 1731.49 1899 1731.04 1897.93 1731C1896.86 1730.96 1895.81 1731.33 1895 1732.03C1894.19 1731.33 1893.14 1730.96 1892.07 1731C1891 1731.04 1889.99 1731.49 1889.23 1732.26C1888.44 1733.06 1888 1734.15 1888 1735.28C1888 1736.41 1888.44 1737.49 1889.23 1738.3L1895 1744.14L1895 1744.14L1895 1744.14L1900.77 1738.3C1901.56 1737.49 1902 1736.41 1902 1735.28C1902 1734.15 1901.56 1733.06 1900.77 1732.26ZM1899.34 1736.89L1895 1741.29L1895 1741.29L1895 1741.29L1890.66 1736.89C1890.23 1736.46 1890 1735.88 1890 1735.28C1890 1734.67 1890.23 1734.09 1890.66 1733.66C1891.08 1733.25 1891.65 1733.02 1892.24 1733.02C1892.83 1733.02 1893.39 1733.25 1893.81 1733.66L1895 1734.87L1895 1734.86L1895.01 1734.87L1896.19 1733.66C1896.61 1733.25 1897.17 1733.02 1897.76 1733.02C1898.35 1733.02 1898.92 1733.25 1899.34 1733.66C1899.77 1734.09 1900 1734.67 1900 1735.28C1900 1735.88 1899.77 1736.46 1899.34 1736.89ZM1888 1758L1886 1758L1886 1753C1886 1752.2 1885.68 1751.44 1885.12 1750.88C1884.56 1750.32 1883.8 1750 1883 1750L1879 1750C1878.2 1750 1877.44 1750.32 1876.88 1750.88C1876.32 1751.44 1876 1752.2 1876 1753L1876 1758L1874 1758L1874 1753C1874 1751.67 1874.53 1750.4 1875.47 1749.47C1876.4 1748.53 1877.67 1748 1879 1748L1883 1748C1884.33 1748 1885.6 1748.53 1886.53 1749.47C1887.47 1750.4 1888 1751.67 1888 1753L1888 1758ZM1881 1738C1881.59 1738 1882.17 1738.18 1882.67 1738.51C1883.16 1738.84 1883.54 1739.3 1883.77 1739.85C1884 1740.4 1884.06 1741 1883.94 1741.59C1883.83 1742.17 1883.54 1742.7 1883.12 1743.12C1882.7 1743.54 1882.17 1743.83 1881.59 1743.94C1881 1744.06 1880.4 1744 1879.85 1743.77C1879.3 1743.54 1878.84 1743.16 1878.51 1742.67C1878.18 1742.17 1878 1741.59 1878 1741C1878 1740.2 1878.32 1739.44 1878.88 1738.88C1879.44 1738.32 1880.2 1738 1881 1738ZM1881 1736C1880.01 1736 1879.04 1736.29 1878.22 1736.84C1877.4 1737.39 1876.76 1738.17 1876.38 1739.09C1876 1740 1875.9 1741.01 1876.1 1741.98C1876.29 1742.95 1876.77 1743.84 1877.46 1744.54C1878.16 1745.23 1879.05 1745.71 1880.02 1745.9C1880.99 1746.1 1882 1746 1882.91 1745.62C1883.83 1745.24 1884.61 1744.6 1885.16 1743.78C1885.71 1742.96 1886 1741.99 1886 1741C1886 1740.34 1885.87 1739.69 1885.62 1739.09C1885.37 1738.48 1885 1737.93 1884.54 1737.46C1884.07 1737 1883.52 1736.63 1882.91 1736.38C1882.31 1736.13 1881.66 1736 1881 1736Z" fill="currentColor" fill-rule="nonzero" />
  </g>
</svg>

