<svg viewBox="0 0 32 32" xmlns="http://www.w3.org/2000/svg" fill="none">
  <g transform="translate(-216 -1800)">
<g id="clip path group" mask="url(#mask_3)">
			<g id="Group 12">
				<path id="Vector 1240" d="M238 1811L242 1811C242.265 1811 242.52 1811.11 242.707 1811.29C242.895 1811.48 243 1811.73 243 1812L243 1814L237 1814L237 1812C237 1811.73 237.105 1811.48 237.293 1811.29C237.48 1811.11 237.735 1811 238 1811Z" fill="currentColor" fill-rule="evenodd" />
				<path id="Vector 1241" d="M240 1810C241.105 1810 242 1809.1 242 1808C242 1806.9 241.105 1806 240 1806C238.895 1806 238 1806.9 238 1808C238 1809.1 238.895 1810 240 1810Z" fill="currentColor" fill-rule="evenodd" />
				<path id="Vector 1242" d="M246 1818L234 1818C233.47 1818 232.961 1817.79 232.586 1817.41C232.211 1817.04 232 1816.53 232 1816L232 1804C232 1803.47 232.211 1802.96 232.586 1802.59C232.961 1802.21 233.47 1802 234 1802L246 1802C246.53 1802 247.039 1802.21 247.414 1802.59C247.789 1802.96 248 1803.47 248 1804L248 1816C247.999 1816.53 247.788 1817.04 247.413 1817.41C247.038 1817.79 246.53 1818 246 1818ZM234 1804L234 1816L246.001 1816L246 1804L234 1804ZM231 1830L229 1830L229 1826C229.007 1825.6 228.934 1825.21 228.786 1824.84C228.638 1824.48 228.417 1824.14 228.137 1823.86C227.857 1823.58 227.524 1823.36 227.156 1823.21C226.789 1823.07 226.396 1822.99 226 1823L222 1823C221.604 1822.99 221.211 1823.07 220.844 1823.21C220.476 1823.36 220.143 1823.58 219.863 1823.86C219.583 1824.14 219.362 1824.48 219.214 1824.84C219.066 1825.21 218.993 1825.6 219 1826L219 1830L217 1830L217 1826C216.993 1825.34 217.118 1824.69 217.367 1824.08C217.616 1823.47 217.984 1822.92 218.45 1822.45C218.915 1821.98 219.469 1821.62 220.079 1821.37C220.688 1821.12 221.342 1820.99 222 1821L226 1821C226.659 1820.99 227.312 1821.12 227.921 1821.37C228.531 1821.62 229.085 1821.98 229.55 1822.45C230.016 1822.92 230.384 1823.47 230.633 1824.08C230.882 1824.69 231.007 1825.34 231 1826L231 1830ZM224 1811C224.796 1811 225.559 1811.32 226.121 1811.88C226.684 1812.44 227 1813.2 227 1814C227 1814.8 226.684 1815.56 226.121 1816.12C225.559 1816.68 224.796 1817 224 1817C223.204 1817 222.441 1816.68 221.879 1816.12C221.316 1815.56 221 1814.8 221 1814C221 1813.2 221.316 1812.44 221.879 1811.88C222.441 1811.32 223.204 1811 224 1811ZM224 1809C222.674 1809 221.402 1809.53 220.464 1810.46C219.527 1811.4 219 1812.67 219 1814C219 1815.33 219.527 1816.6 220.464 1817.54C221.402 1818.47 222.674 1819 224 1819C225.326 1819 226.598 1818.47 227.536 1817.54C228.473 1816.6 229 1815.33 229 1814C229 1812.67 228.473 1811.4 227.536 1810.46C226.598 1809.53 225.326 1809 224 1809Z" fill="currentColor" fill-rule="evenodd" />
  </g>
</svg>

