<svg viewBox="0 0 32 32" xmlns="http://www.w3.org/2000/svg" fill="none">
  <g transform="translate(-0 -1800)">
<path id="Vector 1237" d="M19 1803L29 1803C30.104 1803 31 1803.9 31 1805L31 1811C31 1811.53 30.7893 1812.04 30.4142 1812.41C30.0391 1812.79 29.5304 1813 29 1813L26.577 1813L24.846 1816L23.113 1815L25.423 1811L29 1811L29 1805L19 1805L19 1811L22 1811L22 1813L19 1813C17.897 1813 17 1812.1 17 1811L17 1805C17 1803.9 17.897 1803 19 1803ZM15 1830L13 1830L13 1825C12.9992 1824.2 12.6829 1823.44 12.1204 1822.88C11.558 1822.32 10.7954 1822 10 1822L6 1822C5.20459 1822 4.44199 1822.32 3.87956 1822.88C3.31712 1823.44 3.00079 1824.2 3 1825L3 1830L1 1830L1 1825C1.00159 1823.67 1.52888 1822.4 2.46622 1821.47C3.40356 1820.53 4.6744 1820 6 1820L10 1820C11.3256 1820 12.5964 1820.53 13.5338 1821.47C14.4711 1822.4 14.9984 1823.67 15 1825L15 1830ZM8 1810C8.79565 1810 9.55871 1810.32 10.1213 1810.88C10.6839 1811.44 11 1812.2 11 1813C11 1813.8 10.6839 1814.56 10.1213 1815.12C9.55871 1815.68 8.79565 1816 8 1816C7.20435 1816 6.44129 1815.68 5.87868 1815.12C5.31607 1814.56 5 1813.8 5 1813C5 1812.2 5.31607 1811.44 5.87868 1810.88C6.44129 1810.32 7.20435 1810 8 1810ZM8 1808C6.67392 1808 5.40215 1808.53 4.46447 1809.46C3.52678 1810.4 3 1811.67 3 1813C3 1814.33 3.52678 1815.6 4.46447 1816.54C5.40215 1817.47 6.67392 1818 8 1818C9.32608 1818 10.5979 1817.47 11.5355 1816.54C12.4732 1815.6 13 1814.33 13 1813C13 1811.67 12.4732 1810.4 11.5355 1809.46C10.5979 1808.53 9.32608 1808 8 1808Z" fill="currentColor" fill-rule="nonzero" />
  </g>
</svg>

