<svg viewBox="0 0 32 32" xmlns="http://www.w3.org/2000/svg" fill="none">
  <g transform="translate(-1512.000122 -1728)">
<path id="Vector 1229" d="M1538.75 1752.93C1540.19 1751.2 1541.18 1749.15 1541.66 1746.96C1542.14 1744.76 1542.08 1742.48 1541.49 1740.32C1540.9 1738.15 1539.8 1736.15 1538.27 1734.5C1536.75 1732.85 1534.85 1731.59 1532.74 1730.83C1530.62 1730.07 1528.36 1729.82 1526.13 1730.12C1523.91 1730.42 1521.78 1731.25 1519.94 1732.54C1518.11 1733.83 1516.61 1735.55 1515.57 1737.54C1514.54 1739.54 1514 1741.75 1514 1744C1514 1747.27 1515.15 1750.43 1517.25 1752.93L1517.23 1752.95C1517.3 1753.03 1517.38 1753.1 1517.45 1753.19C1517.54 1753.29 1517.64 1753.39 1517.73 1753.49C1518.01 1753.79 1518.3 1754.08 1518.6 1754.36C1518.7 1754.44 1518.79 1754.52 1518.88 1754.6C1519.2 1754.87 1519.53 1755.14 1519.87 1755.38C1519.92 1755.41 1519.96 1755.45 1520 1755.48L1520 1755.47C1522.34 1757.12 1525.14 1758 1528 1758C1530.86 1758 1533.66 1757.12 1536 1755.47L1536 1755.48C1536.05 1755.45 1536.08 1755.41 1536.13 1755.38C1536.47 1755.13 1536.8 1754.87 1537.12 1754.6C1537.21 1754.52 1537.31 1754.44 1537.4 1754.36C1537.7 1754.08 1537.99 1753.79 1538.27 1753.49C1538.36 1753.39 1538.46 1753.29 1538.55 1753.19C1538.62 1753.1 1538.7 1753.03 1538.77 1752.95L1538.75 1752.93ZM1528 1736C1528.89 1736 1529.76 1736.26 1530.5 1736.76C1531.24 1737.25 1531.82 1737.96 1532.16 1738.78C1532.5 1739.6 1532.59 1740.51 1532.41 1741.38C1532.24 1742.25 1531.81 1743.05 1531.18 1743.68C1530.55 1744.31 1529.75 1744.74 1528.88 1744.91C1528.01 1745.09 1527.1 1745 1526.28 1744.66C1525.46 1744.32 1524.75 1743.74 1524.26 1743C1523.76 1742.26 1523.5 1741.39 1523.5 1740.5C1523.5 1739.31 1523.97 1738.16 1524.82 1737.32C1525.66 1736.47 1526.81 1736 1528 1736ZM1520.01 1752.93C1520.02 1751.62 1520.56 1750.36 1521.49 1749.44C1522.43 1748.52 1523.69 1748 1525 1748L1531 1748C1532.31 1748 1533.57 1748.52 1534.51 1749.44C1535.44 1750.36 1535.98 1751.62 1535.99 1752.93C1533.8 1754.91 1530.95 1756 1528 1756C1525.05 1756 1522.2 1754.91 1520.01 1752.93Z" fill="currentColor" fill-rule="nonzero" />
  </g>
</svg>

