<svg viewBox="0 0 32 32" xmlns="http://www.w3.org/2000/svg" fill="none">
  <g transform="translate(-72 -1800)">
<path id="Vector 1238" d="M78 1830L98 1830L98 1825C97.9974 1823.14 97.259 1821.37 95.9468 1820.05C94.6346 1818.74 92.8557 1818 91 1818L85 1818C83.1443 1818 81.3654 1818.74 80.0532 1820.05C78.741 1821.37 78.0026 1823.14 78 1825L78 1830ZM81 1809C81 1810.38 81.4105 1811.74 82.1797 1812.89C82.9489 1814.04 84.0421 1814.94 85.3212 1815.47C86.6003 1816 88.0078 1816.14 89.3656 1815.87C90.7235 1815.6 91.9708 1814.93 92.9497 1813.95C93.9287 1812.97 94.5954 1811.72 94.8655 1810.37C95.1356 1809.01 94.997 1807.6 94.4672 1806.32C93.9373 1805.04 93.0401 1803.95 91.889 1803.18C90.7378 1802.41 89.3845 1802 88 1802C86.1435 1802 84.363 1802.74 83.0503 1804.05C81.7375 1805.36 81 1807.14 81 1809Z" fill="currentColor" fill-rule="nonzero" />
  </g>
</svg>

