<svg viewBox="0 0 32 32" xmlns="http://www.w3.org/2000/svg" fill="none">
  <g transform="translate(-1368.000122 -1728)">
<path id="Vector 1226" d="M1380 1732C1380.99 1732 1381.96 1732.29 1382.78 1732.84C1383.6 1733.39 1384.24 1734.17 1384.62 1735.09C1385 1736 1385.1 1737.01 1384.9 1737.98C1384.71 1738.95 1384.23 1739.84 1383.54 1740.54C1382.84 1741.23 1381.95 1741.71 1380.98 1741.9C1380.01 1742.1 1379 1742 1378.09 1741.62C1377.17 1741.24 1376.39 1740.6 1375.84 1739.78C1375.29 1738.96 1375 1737.99 1375 1737C1375 1735.67 1375.53 1734.4 1376.46 1733.46C1377.4 1732.53 1378.67 1732 1380 1732ZM1380 1730C1378.62 1730 1377.26 1730.41 1376.11 1731.18C1374.96 1731.95 1374.06 1733.04 1373.53 1734.32C1373 1735.6 1372.86 1737.01 1373.13 1738.37C1373.4 1739.72 1374.07 1740.97 1375.05 1741.95C1376.03 1742.93 1377.28 1743.6 1378.63 1743.87C1379.99 1744.14 1381.4 1744 1382.68 1743.47C1383.96 1742.94 1385.05 1742.04 1385.82 1740.89C1386.59 1739.74 1387 1738.38 1387 1737C1387 1735.14 1386.26 1733.36 1384.95 1732.05C1383.64 1730.74 1381.86 1730 1380 1730ZM1390 1758L1388 1758L1388 1753C1388 1751.67 1387.47 1750.4 1386.54 1749.46C1385.6 1748.53 1384.33 1748 1383 1748L1377 1748C1375.67 1748 1374.4 1748.53 1373.46 1749.46C1372.53 1750.4 1372 1751.67 1372 1753L1372 1758L1370 1758L1370 1753C1370 1751.14 1370.74 1749.36 1372.05 1748.05C1373.36 1746.74 1375.14 1746 1377 1746L1383 1746C1384.86 1746 1386.64 1746.74 1387.95 1748.05C1389.26 1749.36 1390 1751.14 1390 1753L1390 1758ZM1393 1744.18L1390.41 1741.59L1389 1743L1393 1747L1400 1740L1398.59 1738.59L1393 1744.18Z" fill="currentColor" fill-rule="nonzero" />
  </g>
</svg>

