<svg viewBox="0 0 32 32" xmlns="http://www.w3.org/2000/svg" fill="none">
  <g transform="translate(-1584.000122 -1728)">
<path id="Vector 1230" d="M1600 1736C1599.01 1736 1598.04 1736.29 1597.22 1736.84C1596.4 1737.39 1595.76 1738.17 1595.38 1739.09C1595 1740 1594.9 1741.01 1595.1 1741.98C1595.29 1742.95 1595.77 1743.84 1596.46 1744.54C1597.16 1745.23 1598.05 1745.71 1599.02 1745.9C1599.99 1746.1 1601 1746 1601.91 1745.62C1602.83 1745.24 1603.61 1744.6 1604.16 1743.78C1604.71 1742.96 1605 1741.99 1605 1741C1605 1739.67 1604.47 1738.4 1603.54 1737.46C1602.6 1736.53 1601.33 1736 1600 1736Z" fill="currentColor" fill-rule="nonzero" />
		<path id="Vector 1231" d="M1600 1730C1597.23 1730 1594.52 1730.82 1592.22 1732.36C1589.92 1733.9 1588.13 1736.08 1587.07 1738.64C1586.01 1741.2 1585.73 1744.02 1586.27 1746.73C1586.81 1749.45 1588.14 1751.94 1590.1 1753.9C1592.06 1755.86 1594.55 1757.19 1597.27 1757.73C1599.98 1758.27 1602.8 1757.99 1605.36 1756.93C1607.92 1755.87 1610.1 1754.08 1611.64 1751.78C1613.18 1749.48 1614 1746.77 1614 1744C1614 1740.29 1612.52 1736.73 1609.89 1734.11C1607.27 1731.48 1603.71 1730 1600 1730ZM1607.99 1752.93C1607.97 1751.61 1607.44 1750.36 1606.51 1749.44C1605.57 1748.52 1604.31 1748 1603 1748L1597 1748C1595.69 1748 1594.43 1748.52 1593.5 1749.44C1592.56 1750.36 1592.03 1751.61 1592.01 1752.93C1590.19 1751.31 1588.92 1749.17 1588.34 1746.81C1587.77 1744.45 1587.92 1741.97 1588.79 1739.7C1589.66 1737.43 1591.19 1735.47 1593.19 1734.09C1595.2 1732.71 1597.57 1731.97 1600 1731.97C1602.43 1731.97 1604.81 1732.71 1606.81 1734.09C1608.81 1735.47 1610.35 1737.43 1611.21 1739.7C1612.08 1741.97 1612.24 1744.45 1611.66 1746.81C1611.09 1749.17 1609.81 1751.31 1607.99 1752.93Z" fill="currentColor" fill-rule="nonzero" />
  </g>
</svg>

