<svg viewBox="0 0 32 32" xmlns="http://www.w3.org/2000/svg" fill="none">
  <g transform="translate(-1728.000122 -1728)">
<path id="Vector 1233" d="M1756 1736L1758 1736L1758 1744L1756 1744L1756 1736ZM1751 1733L1753 1733L1753 1744L1751 1744L1751 1733ZM1746 1738L1748 1738L1748 1744L1746 1744L1746 1738ZM1744 1758L1742 1758L1742 1752C1742 1751.2 1741.68 1750.44 1741.12 1749.88C1740.56 1749.32 1739.8 1749 1739 1749L1735 1749C1734.2 1749 1733.44 1749.32 1732.88 1749.88C1732.32 1750.44 1732 1751.2 1732 1752L1732 1758L1730 1758L1730 1752C1730 1750.67 1730.53 1749.4 1731.47 1748.47C1732.4 1747.53 1733.67 1747 1735 1747L1739 1747C1740.33 1747 1741.6 1747.53 1742.53 1748.47C1743.47 1749.4 1744 1750.67 1744 1752L1744 1758ZM1737 1737C1737.59 1737 1738.17 1737.18 1738.67 1737.51C1739.16 1737.84 1739.54 1738.3 1739.77 1738.85C1740 1739.4 1740.06 1740 1739.94 1740.59C1739.83 1741.17 1739.54 1741.7 1739.12 1742.12C1738.7 1742.54 1738.17 1742.83 1737.59 1742.94C1737 1743.06 1736.4 1743 1735.85 1742.77C1735.3 1742.54 1734.84 1742.16 1734.51 1741.67C1734.18 1741.17 1734 1740.59 1734 1740C1734 1739.2 1734.32 1738.44 1734.88 1737.88C1735.44 1737.32 1736.2 1737 1737 1737ZM1737 1735C1736.01 1735 1735.04 1735.29 1734.22 1735.84C1733.4 1736.39 1732.76 1737.17 1732.38 1738.09C1732 1739 1731.9 1740.01 1732.1 1740.98C1732.29 1741.95 1732.77 1742.84 1733.46 1743.54C1734.16 1744.23 1735.05 1744.71 1736.02 1744.9C1736.99 1745.1 1738 1745 1738.91 1744.62C1739.83 1744.24 1740.61 1743.6 1741.16 1742.78C1741.71 1741.96 1742 1740.99 1742 1740C1742 1739.34 1741.87 1738.69 1741.62 1738.09C1741.37 1737.48 1741 1736.93 1740.54 1736.46C1740.07 1736 1739.52 1735.63 1738.91 1735.38C1738.31 1735.13 1737.66 1735 1737 1735Z" fill="currentColor" fill-rule="nonzero" />
  </g>
</svg>

