<svg viewBox="0 0 32 32" xmlns="http://www.w3.org/2000/svg" fill="none">
  <g transform="translate(-792 -1800)">
<path id="Vector 1253" d="M817.334 1811.95L818.54 1810.74C818.703 1810.58 818.908 1810.47 819.131 1810.43C819.355 1810.38 819.587 1810.4 819.799 1810.49L821.269 1811.07C821.484 1811.16 821.668 1811.31 821.798 1811.5C821.929 1811.69 821.999 1811.92 822 1812.15L822 1814.84C821.997 1815.15 821.871 1815.45 821.651 1815.66C821.43 1815.88 821.132 1816 820.823 1816L820.773 1816C810.478 1815.36 808.4 1806.64 808.007 1803.3C807.973 1802.99 808.063 1802.68 808.256 1802.44C808.45 1802.2 808.731 1802.04 809.039 1802.01C809.084 1802 809.13 1802 809.175 1802L811.775 1802C812.007 1802 812.234 1802.07 812.425 1802.2C812.617 1802.33 812.765 1802.52 812.851 1802.73L813.438 1804.2C813.525 1804.41 813.547 1804.65 813.502 1804.87C813.457 1805.09 813.347 1805.3 813.185 1805.46L811.979 1806.67C811.979 1806.67 812.673 1811.37 817.334 1811.95ZM808 1830L806 1830L806 1825C805.999 1824.2 805.683 1823.44 805.12 1822.88C804.558 1822.32 803.795 1822 803 1822L799 1822C798.205 1822 797.442 1822.32 796.88 1822.88C796.317 1823.44 796.001 1824.2 796 1825L796 1830L794 1830L794 1825C794.002 1823.67 794.529 1822.4 795.466 1821.47C796.404 1820.53 797.674 1820 799 1820L803 1820C804.326 1820 805.596 1820.53 806.534 1821.47C807.471 1822.4 807.998 1823.67 808 1825L808 1830ZM801 1810C801.593 1810 802.173 1810.18 802.667 1810.51C803.16 1810.84 803.545 1811.3 803.772 1811.85C803.999 1812.4 804.058 1813 803.942 1813.59C803.827 1814.17 803.541 1814.7 803.121 1815.12C802.702 1815.54 802.167 1815.83 801.585 1815.94C801.003 1816.06 800.4 1816 799.852 1815.77C799.304 1815.54 798.835 1815.16 798.506 1814.67C798.176 1814.17 798 1813.59 798 1813C798 1812.2 798.316 1811.44 798.879 1810.88C799.441 1810.32 800.204 1810 801 1810ZM801 1808C800.011 1808 799.044 1808.29 798.222 1808.84C797.4 1809.39 796.759 1810.17 796.381 1811.09C796.002 1812 795.903 1813.01 796.096 1813.98C796.289 1814.95 796.765 1815.84 797.464 1816.54C798.164 1817.23 799.055 1817.71 800.025 1817.9C800.994 1818.1 802 1818 802.913 1817.62C803.827 1817.24 804.608 1816.6 805.157 1815.78C805.707 1814.96 806 1813.99 806 1813C806 1812.34 805.871 1811.69 805.619 1811.09C805.368 1810.48 805 1809.93 804.536 1809.46C804.071 1809 803.52 1808.63 802.913 1808.38C802.307 1808.13 801.657 1808 801 1808Z" fill="currentColor" fill-rule="nonzero" />
  </g>
</svg>

