<svg viewBox="0 0 32 32" xmlns="http://www.w3.org/2000/svg" fill="none">
  <g transform="translate(-1224 -1800)">
<path id="Vector 1262" d="M1254.94 1815.66C1253.8 1812.67 1251.81 1810.08 1249.21 1808.21L1254 1803.41L1252.59 1802L1226 1828.59L1227.41 1830L1232.51 1824.91C1234.79 1826.24 1237.37 1826.96 1240 1827C1243.26 1826.88 1246.41 1825.8 1249.07 1823.91C1251.72 1822.01 1253.76 1819.38 1254.94 1816.34C1255.02 1816.12 1255.02 1815.88 1254.94 1815.66ZM1240 1822.5C1238.62 1822.5 1237.28 1822.06 1236.17 1821.24L1238 1819.43C1238.76 1819.85 1239.63 1820 1240.49 1819.88C1241.34 1819.76 1242.14 1819.36 1242.75 1818.75C1243.36 1818.14 1243.76 1817.34 1243.88 1816.49C1244 1815.63 1243.85 1814.76 1243.43 1814L1245.24 1812.19C1245.94 1813.16 1246.37 1814.3 1246.46 1815.49C1246.56 1816.69 1246.32 1817.88 1245.78 1818.95C1245.24 1820.02 1244.41 1820.91 1243.39 1821.54C1242.37 1822.17 1241.2 1822.5 1240 1822.5ZM1228.53 1821.81L1233.53 1816.81C1233.5 1816.54 1233.49 1816.27 1233.5 1816C1233.5 1814.28 1234.19 1812.63 1235.41 1811.41C1236.62 1810.19 1238.28 1809.5 1240 1809.5C1240.26 1809.5 1240.53 1809.52 1240.79 1809.55L1244.57 1805.78C1243.1 1805.27 1241.56 1805.01 1240 1805C1236.74 1805.12 1233.59 1806.2 1230.93 1808.09C1228.28 1809.99 1226.24 1812.62 1225.06 1815.66C1224.98 1815.88 1224.98 1816.12 1225.06 1816.34C1225.83 1818.38 1227.01 1820.24 1228.53 1821.81Z" fill="currentColor" fill-rule="nonzero" />
  </g>
</svg>

