<svg viewBox="0 0 32 32" xmlns="http://www.w3.org/2000/svg" fill="none">
  <g transform="translate(-1080 -1800)">
<path id="Vector 1258" d="M1100.59 1822L1095 1816.41L1095 1807L1097 1807L1097 1815.58L1102 1820.59L1100.59 1822Z" fill="currentColor" fill-rule="nonzero" />
		<path id="Vector 1259" d="M1096 1802C1097.87 1802 1099.71 1802.37 1101.43 1803.1C1103.15 1803.83 1104.7 1804.89 1106 1806.23L1106 1802L1108 1802L1108 1810L1100 1810L1100 1808L1104.92 1808C1103.05 1805.92 1100.51 1804.56 1097.73 1804.16C1094.96 1803.76 1092.14 1804.34 1089.75 1805.8C1087.37 1807.27 1085.57 1809.52 1084.67 1812.17C1083.77 1814.82 1083.83 1817.71 1084.84 1820.32C1085.84 1822.93 1087.73 1825.11 1090.17 1826.48C1092.62 1827.84 1095.46 1828.31 1098.21 1827.8C1100.97 1827.28 1103.45 1825.82 1105.24 1823.67C1107.03 1821.51 1108 1818.8 1108 1816L1110 1816C1110 1818.77 1109.18 1821.48 1107.64 1823.78C1106.1 1826.08 1103.92 1827.87 1101.36 1828.93C1098.8 1829.99 1095.98 1830.27 1093.27 1829.73C1090.55 1829.19 1088.06 1827.86 1086.1 1825.9C1084.14 1823.94 1082.81 1821.45 1082.27 1818.73C1081.73 1816.02 1082.01 1813.2 1083.07 1810.64C1084.13 1808.08 1085.92 1805.9 1088.22 1804.36C1090.52 1802.82 1093.23 1802 1096 1802Z" fill="currentColor" fill-rule="nonzero" />
  </g>
</svg>

