<svg viewBox="0 0 32 32" xmlns="http://www.w3.org/2000/svg" fill="none">
  <g transform="translate(-936 -1800)">
<path id="Vector 1256" d="M940 1826L964 1826L964 1828L940 1828L940 1826ZM940 1819L964 1819L964 1821L940 1821L940 1819ZM962 1806L962 1812L942 1812L942 1806L962 1806ZM962 1804L942 1804C941.47 1804 940.961 1804.21 940.586 1804.59C940.211 1804.96 940 1805.47 940 1806L940 1812C940 1812.53 940.211 1813.04 940.586 1813.41C940.961 1813.79 941.47 1814 942 1814L962 1814C962.53 1814 963.039 1813.79 963.414 1813.41C963.789 1813.04 964 1812.53 964 1812L964 1806C964 1805.47 963.789 1804.96 963.414 1804.59C963.039 1804.21 962.53 1804 962 1804Z" fill="currentColor" fill-rule="nonzero" />
  </g>
</svg>

