<svg viewBox="0 0 32 32" xmlns="http://www.w3.org/2000/svg" fill="none">
  <g transform="translate(-1008 -1800)">
<path id="Vector 1257" d="M1012 1826L1036 1826L1036 1828L1012 1828L1012 1826ZM1012 1819L1036 1819L1036 1821L1012 1821L1012 1819ZM1020 1806L1020 1812L1014 1812L1014 1806L1020 1806ZM1020 1804L1014 1804C1013.47 1804 1012.96 1804.21 1012.59 1804.59C1012.21 1804.96 1012 1805.47 1012 1806L1012 1812C1012 1812.53 1012.21 1813.04 1012.59 1813.41C1012.96 1813.79 1013.47 1814 1014 1814L1020 1814C1020.53 1814 1021.04 1813.79 1021.41 1813.41C1021.79 1813.04 1022 1812.53 1022 1812L1022 1806C1022 1805.47 1021.79 1804.96 1021.41 1804.59C1021.04 1804.21 1020.53 1804 1020 1804ZM1034 1806L1034 1812L1028 1812L1028 1806L1034 1806ZM1034 1804L1028 1804C1027.47 1804 1026.96 1804.21 1026.59 1804.59C1026.21 1804.96 1026 1805.47 1026 1806L1026 1812C1026 1812.53 1026.21 1813.04 1026.59 1813.41C1026.96 1813.79 1027.47 1814 1028 1814L1034 1814C1034.53 1814 1035.04 1813.79 1035.41 1813.41C1035.79 1813.04 1036 1812.53 1036 1812L1036 1806C1036 1805.47 1035.79 1804.96 1035.41 1804.59C1035.04 1804.21 1034.53 1804 1034 1804Z" fill="currentColor" fill-rule="nonzero" />
  </g>
</svg>

