<svg viewBox="0 0 32 32" xmlns="http://www.w3.org/2000/svg" fill="none">
  <g transform="translate(-1152 -1800)">
<path id="Vector 1260" d="M1157.24 1822.51L1158.67 1821.09C1157.1 1819.68 1155.87 1817.94 1155.07 1816C1157.1 1810.93 1162.7 1807 1168 1807C1169.36 1807.02 1170.72 1807.26 1172 1807.72L1173.55 1806.16C1171.79 1805.42 1169.91 1805.02 1168 1805C1164.74 1805.12 1161.59 1806.2 1158.93 1808.09C1156.28 1809.99 1154.24 1812.62 1153.06 1815.66C1152.98 1815.88 1152.98 1816.12 1153.06 1816.34C1153.95 1818.7 1155.38 1820.81 1157.24 1822.51Z" fill="currentColor" fill-rule="nonzero" />
		<path id="Vector 1261" d="M1164 1815.73C1164.07 1814.77 1164.48 1813.87 1165.16 1813.19C1165.84 1812.51 1166.74 1812.1 1167.7 1812.03L1169.51 1810.21C1168.5 1809.94 1167.43 1809.95 1166.42 1810.22C1165.4 1810.49 1164.48 1811.03 1163.74 1811.77C1163 1812.51 1162.46 1813.43 1162.19 1814.45C1161.92 1815.46 1161.91 1816.53 1162.18 1817.54L1164 1815.73ZM1182.94 1815.66C1181.79 1812.67 1179.8 1810.09 1177.2 1808.22L1182 1803.41L1180.59 1802L1154 1828.59L1155.41 1830L1160.51 1824.9C1162.78 1826.23 1165.36 1826.96 1168 1827C1171.26 1826.88 1174.41 1825.8 1177.07 1823.91C1179.72 1822.01 1181.76 1819.38 1182.94 1816.34C1183.02 1816.12 1183.02 1815.88 1182.94 1815.66ZM1172 1816C1172 1816.7 1171.81 1817.39 1171.46 1817.99C1171.1 1818.6 1170.6 1819.1 1169.99 1819.45C1169.38 1819.79 1168.69 1819.98 1167.99 1819.98C1167.29 1819.97 1166.61 1819.79 1166 1819.44L1171.44 1814C1171.8 1814.61 1171.99 1815.3 1172 1816ZM1168 1825C1165.9 1824.96 1163.84 1824.42 1162 1823.42L1164.54 1820.88C1165.7 1821.68 1167.1 1822.05 1168.5 1821.93C1169.9 1821.8 1171.21 1821.19 1172.2 1820.19C1173.2 1819.2 1173.81 1817.89 1173.94 1816.49C1174.06 1815.09 1173.69 1813.69 1172.89 1812.53L1175.76 1809.66C1178.05 1811.23 1179.85 1813.44 1180.93 1816C1178.9 1821.07 1173.3 1825 1168 1825Z" fill="currentColor" fill-rule="nonzero" />
  </g>
</svg>

