<svg viewBox="0 0 32 32" xmlns="http://www.w3.org/2000/svg" fill="none">
  <g transform="translate(-864 -1800)">
<path id="Vector 1254" d="M880 1820C882.209 1820 884 1818.21 884 1816C884 1813.79 882.209 1812 880 1812C877.791 1812 876 1813.79 876 1816C876 1818.21 877.791 1820 880 1820Z" fill="currentColor" fill-rule="nonzero" />
		<path id="Vector 1255" d="M894.94 1815.66C893.764 1812.62 891.722 1809.99 889.067 1808.09C886.412 1806.2 883.26 1805.12 880 1805C876.74 1805.12 873.588 1806.2 870.933 1808.09C868.278 1809.99 866.236 1812.62 865.06 1815.66C864.981 1815.88 864.981 1816.12 865.06 1816.34C866.236 1819.38 868.278 1822.01 870.933 1823.91C873.588 1825.8 876.74 1826.88 880 1827C883.26 1826.88 886.412 1825.8 889.067 1823.91C891.722 1822.01 893.764 1819.38 894.94 1816.34C895.019 1816.12 895.019 1815.88 894.94 1815.66ZM880 1822.5C878.714 1822.5 877.458 1822.12 876.389 1821.4C875.32 1820.69 874.487 1819.68 873.995 1818.49C873.503 1817.3 873.374 1815.99 873.625 1814.73C873.876 1813.47 874.495 1812.31 875.404 1811.4C876.313 1810.49 877.471 1809.88 878.732 1809.62C879.993 1809.37 881.3 1809.5 882.487 1809.99C883.675 1810.49 884.69 1811.32 885.405 1812.39C886.119 1813.46 886.5 1814.71 886.5 1816C886.497 1817.72 885.812 1819.37 884.593 1820.59C883.375 1821.81 881.723 1822.5 880 1822.5Z" fill="currentColor" fill-rule="nonzero" />
  </g>
</svg>

