<svg viewBox="0 0 32 32" xmlns="http://www.w3.org/2000/svg" fill="none">
  <g transform="translate(-1296 -1800)">
<path id="Vector 1263" d="M1318 1816L1306 1816L1306 1806L1318 1806L1318 1816ZM1308 1808L1308 1814L1316 1814L1316 1808L1308 1808ZM1320 1804L1320 1824L1304 1824L1304 1804L1320 1804ZM1320 1802L1304 1802C1302.9 1802 1302 1802.9 1302 1804L1302 1824C1302 1825.1 1302.9 1826 1304 1826L1320 1826C1321.1 1826 1322 1825.1 1322 1824L1322 1804C1322 1802.9 1321.1 1802 1320 1802ZM1306 1818L1308 1818L1308 1820L1306 1820L1306 1818ZM1312 1818L1318 1818L1318 1820L1312 1820L1312 1818ZM1305 1828L1319 1828L1319 1830L1305 1830L1305 1828Z" fill="currentColor" fill-rule="nonzero" />
  </g>
</svg>

