<svg viewBox="0 0 32 32" xmlns="http://www.w3.org/2000/svg" fill="none">
  <g transform="translate(-1584.000122 -1800)">
<g id="clip path group" mask="url(#mask_5)">
			<g id="Group 16">
				<path id="Vector 1272" d="M1604 1813L1596 1813C1595.47 1813 1594.96 1813.21 1594.59 1813.59C1594.21 1813.96 1594 1814.47 1594 1815L1594 1828C1594 1828.53 1594.21 1829.04 1594.59 1829.41C1594.96 1829.79 1595.47 1830 1596 1830L1604 1830C1604.53 1830 1605.04 1829.79 1605.41 1829.41C1605.79 1829.04 1606 1828.53 1606 1828L1606 1815C1606 1814.47 1605.79 1813.96 1605.41 1813.59C1605.04 1813.21 1604.53 1813 1604 1813ZM1604 1815L1604 1818L1596 1818L1596 1815L1604 1815ZM1604 1820L1604 1823L1596 1823L1596 1820L1604 1820ZM1596 1828L1596 1825L1604 1825L1604 1828L1596 1828Z" fill="currentColor" fill-rule="evenodd" />
				<path id="Vector 1273" d="M1609.91 1810.13C1609.89 1810.13 1609.86 1810.11 1609.85 1810.1C1609.83 1810.08 1609.82 1810.06 1609.81 1810.04C1609.42 1808.09 1608.46 1806.3 1607.05 1804.9C1605.64 1803.5 1603.84 1802.56 1601.89 1802.18C1599.3 1801.68 1596.61 1802.23 1594.42 1803.7C1592.23 1805.17 1590.71 1807.45 1590.19 1810.04C1590.18 1810.06 1590.17 1810.08 1590.15 1810.1C1590.14 1810.11 1590.11 1810.13 1590.09 1810.13C1588.26 1810.48 1586.62 1811.5 1585.5 1813C1584.38 1814.49 1583.86 1816.34 1584.03 1818.2C1584.21 1820.06 1585.07 1821.79 1586.45 1823.04C1587.83 1824.3 1589.62 1825 1591.49 1825L1592 1825L1592 1823L1591.5 1823C1590.71 1823 1589.93 1822.83 1589.21 1822.5C1588.49 1822.17 1587.85 1821.69 1587.34 1821.09C1586.82 1820.49 1586.44 1819.79 1586.22 1819.03C1586 1818.28 1585.94 1817.48 1586.06 1816.7C1586.26 1815.53 1586.82 1814.45 1587.67 1813.61C1588.51 1812.78 1589.6 1812.23 1590.77 1812.04L1591.79 1811.86C1591.81 1811.85 1591.84 1811.84 1591.86 1811.82C1591.87 1811.8 1591.89 1811.78 1591.89 1811.75L1592.07 1810.82C1592.37 1809.12 1593.19 1807.56 1594.42 1806.35C1595.64 1805.14 1597.22 1804.35 1598.92 1804.07C1599.87 1803.94 1600.83 1803.99 1601.77 1804.2C1603.32 1804.58 1604.72 1805.4 1605.81 1806.56C1606.9 1807.72 1607.63 1809.17 1607.91 1810.74L1608.11 1811.75C1608.11 1811.78 1608.12 1811.8 1608.14 1811.82C1608.16 1811.84 1608.19 1811.85 1608.21 1811.86L1609.27 1812.05C1610.44 1812.23 1611.52 1812.77 1612.37 1813.59C1613.14 1814.35 1613.67 1815.33 1613.89 1816.4C1614.1 1817.47 1614 1818.58 1613.59 1819.58C1613.17 1820.59 1612.47 1821.45 1611.57 1822.06C1610.66 1822.67 1609.6 1823 1608.51 1823L1608 1823L1608 1825L1608.51 1825C1610.37 1825 1612.17 1824.3 1613.55 1823.04C1614.93 1821.79 1615.79 1820.06 1615.97 1818.2C1616.14 1816.34 1615.62 1814.49 1614.5 1813C1613.38 1811.5 1611.74 1810.48 1609.91 1810.13Z" fill="currentColor" fill-rule="evenodd" />
  </g>
</svg>

