<svg viewBox="0 0 32 32" xmlns="http://www.w3.org/2000/svg" fill="none">
  <g transform="translate(-1440.000122 -1800)">
<path id="Vector 1267" d="M1464.5 1811C1465.33 1811 1466 1810.33 1466 1809.5C1466 1808.67 1465.33 1808 1464.5 1808C1463.67 1808 1463 1808.67 1463 1809.5C1463 1810.33 1463.67 1811 1464.5 1811Z" fill="currentColor" fill-rule="nonzero" />
		<path id="Vector 1268" d="M1457.41 1822L1452 1822L1452 1816.59L1458.03 1810.56C1458.01 1810.37 1458 1810.19 1458 1810C1458 1808.81 1458.35 1807.65 1459.01 1806.67C1459.67 1805.68 1460.61 1804.91 1461.7 1804.46C1462.8 1804 1464.01 1803.88 1465.17 1804.12C1466.33 1804.35 1467.4 1804.92 1468.24 1805.76C1469.08 1806.6 1469.65 1807.67 1469.88 1808.83C1470.12 1809.99 1470 1811.2 1469.54 1812.3C1469.09 1813.39 1468.32 1814.33 1467.33 1814.99C1466.35 1815.65 1465.19 1816 1464 1816C1463.81 1816 1463.63 1815.99 1463.44 1815.97L1457.41 1822ZM1454 1820L1456.59 1820L1462.76 1813.83L1463.27 1813.93C1463.51 1813.97 1463.76 1814 1464 1814C1464.84 1814.01 1465.66 1813.76 1466.34 1813.29C1467.03 1812.81 1467.56 1812.14 1467.85 1811.35C1468.14 1810.57 1468.18 1809.71 1467.96 1808.91C1467.75 1808.1 1467.29 1807.38 1466.64 1806.84C1466 1806.3 1465.21 1805.98 1464.38 1805.91C1463.54 1805.85 1462.71 1806.04 1461.99 1806.46C1461.27 1806.89 1460.7 1807.53 1460.35 1808.29C1460.01 1809.06 1459.91 1809.91 1460.08 1810.73L1460.17 1811.24L1454 1817.41L1454 1820Z" fill="currentColor" fill-rule="nonzero" />
		<path id="Vector 1269" d="M1468 1818L1468 1826L1450 1826L1450 1806L1454 1806L1454 1804L1444 1804C1443.47 1804 1442.96 1804.21 1442.59 1804.59C1442.21 1804.96 1442 1805.47 1442 1806L1442 1826C1442 1826.53 1442.21 1827.04 1442.59 1827.41C1442.96 1827.79 1443.47 1828 1444 1828L1468 1828C1468.53 1828 1469.04 1827.79 1469.41 1827.41C1469.79 1827.04 1470 1826.53 1470 1826L1470 1818L1468 1818ZM1444 1806L1448 1806L1448 1826L1444 1826L1444 1806Z" fill="currentColor" fill-rule="nonzero" />
  </g>
</svg>

