<svg viewBox="0 0 32 32" xmlns="http://www.w3.org/2000/svg" fill="none">
  <g transform="translate(-1368.000122 -1800)">
<path id="Vector 1264" d="M1393 1811L1394.41 1812.41L1391.83 1815L1398 1815L1398 1817L1391.83 1817L1394.41 1819.59L1393 1821L1388 1816L1393 1811Z" fill="currentColor" fill-rule="nonzero" />
		<path id="Vector 1265" d="M1398 1828L1388 1828C1387.47 1828 1386.96 1827.79 1386.59 1827.41C1386.21 1827.04 1386 1826.53 1386 1826L1386 1806C1386 1805.47 1386.21 1804.96 1386.59 1804.59C1386.96 1804.21 1387.47 1804 1388 1804L1398 1804L1398 1806L1388 1806L1388 1826L1398 1826L1398 1828ZM1380 1828L1370 1828L1370 1826L1380 1826L1380 1806L1370 1806L1370 1804L1380 1804C1380.53 1804 1381.04 1804.21 1381.41 1804.59C1381.79 1804.96 1382 1805.47 1382 1806L1382 1826C1382 1826.53 1381.79 1827.04 1381.41 1827.41C1381.04 1827.79 1380.53 1828 1380 1828Z" fill="currentColor" fill-rule="nonzero" />
		<path id="Vector 1266" d="M1375 1811L1373.59 1812.41L1376.17 1815L1370 1815L1370 1817L1376.17 1817L1373.59 1819.59L1375 1821L1380 1816L1375 1811Z" fill="currentColor" fill-rule="nonzero" />
  </g>
</svg>

