<svg viewBox="0 0 32 32" xmlns="http://www.w3.org/2000/svg" fill="none">
  <g transform="translate(-1656.000122 -1800)">
<g id="clip path group" mask="url(#mask_6)">
			<g id="Group 18">
				<path id="Vector 1274" d="M1676 1820L1676 1817C1676 1815.94 1675.58 1814.92 1674.83 1814.17C1674.08 1813.42 1673.06 1813 1672 1813C1670.94 1813 1669.92 1813.42 1669.17 1814.17C1668.42 1814.92 1668 1815.94 1668 1817L1668 1820C1667.47 1820 1666.96 1820.21 1666.59 1820.59C1666.21 1820.96 1666 1821.47 1666 1822L1666 1828C1666 1828.53 1666.21 1829.04 1666.59 1829.41C1666.96 1829.79 1667.47 1830 1668 1830L1676 1830C1676.53 1830 1677.04 1829.79 1677.41 1829.41C1677.79 1829.04 1678 1828.53 1678 1828L1678 1822C1678 1821.47 1677.79 1820.96 1677.41 1820.59C1677.04 1820.21 1676.53 1820 1676 1820ZM1670 1817C1670 1816.47 1670.21 1815.96 1670.59 1815.59C1670.96 1815.21 1671.47 1815 1672 1815C1672.53 1815 1673.04 1815.21 1673.41 1815.59C1673.79 1815.96 1674 1816.47 1674 1817L1674 1820L1670 1820L1670 1817ZM1668 1828L1668 1822L1676 1822L1676 1828L1668 1828Z" fill="currentColor" fill-rule="evenodd" />
				<path id="Vector 1275" d="M1681.83 1810.11C1681.45 1808.15 1680.49 1806.35 1679.08 1804.93C1677.66 1803.52 1675.85 1802.56 1673.89 1802.18C1672.6 1801.93 1671.27 1801.94 1669.99 1802.2C1668.7 1802.47 1667.47 1802.98 1666.39 1803.72C1665.3 1804.46 1664.37 1805.4 1663.64 1806.5C1662.92 1807.6 1662.42 1808.82 1662.17 1810.11C1660.33 1810.45 1658.67 1811.46 1657.54 1812.95C1656.4 1814.44 1655.86 1816.3 1656.03 1818.16C1656.19 1820.03 1657.05 1821.76 1658.43 1823.03C1659.81 1824.29 1661.62 1825 1663.49 1825L1664 1825L1664 1823L1663.5 1823C1662.12 1823 1660.8 1822.48 1659.79 1821.55C1658.78 1820.63 1658.15 1819.35 1658.02 1817.98C1657.9 1816.62 1658.3 1815.25 1659.13 1814.16C1659.96 1813.07 1661.17 1812.33 1662.53 1812.08L1663.88 1811.84L1664.13 1810.49C1664.49 1808.67 1665.46 1807.02 1666.9 1805.83C1668.33 1804.65 1670.14 1804 1672 1804C1673.86 1804 1675.66 1804.65 1677.1 1805.83C1678.54 1807.02 1679.51 1808.67 1679.87 1810.49L1680.12 1811.84L1681.47 1812.08C1682.82 1812.33 1684.03 1813.07 1684.87 1814.16C1685.7 1815.25 1686.09 1816.62 1685.97 1817.98C1685.85 1819.35 1685.23 1820.62 1684.21 1821.55C1683.2 1822.48 1681.88 1823 1680.51 1823L1680 1823L1680 1825L1680.51 1825C1682.38 1825 1684.19 1824.29 1685.57 1823.03C1686.95 1821.76 1687.8 1820.03 1687.97 1818.16C1688.14 1816.29 1687.6 1814.43 1686.46 1812.95C1685.32 1811.46 1683.67 1810.45 1681.83 1810.11" fill="currentColor" fill-rule="evenodd" />
  </g>
</svg>

