<svg viewBox="0 0 32 32" xmlns="http://www.w3.org/2000/svg" fill="none">
  <g transform="translate(-1728.000122 -1800)">
<path id="Vector 1276" d="M1751.41 1822L1738 1808.59L1738 1802L1730 1802L1730 1810L1736.59 1810L1750 1823.41L1750 1830L1758 1830L1758 1822L1751.41 1822ZM1736 1808L1732 1808L1732 1804L1736 1804L1736 1808ZM1756 1828L1752 1828L1752 1824L1756 1824L1756 1828Z" fill="currentColor" fill-rule="nonzero" />
		<path id="Vector 1277" d="M1758 1806C1758 1805.03 1757.65 1804.09 1757.01 1803.36C1756.36 1802.63 1755.48 1802.16 1754.51 1802.03C1753.55 1801.91 1752.57 1802.15 1751.77 1802.69C1750.96 1803.24 1750.38 1804.06 1750.14 1805L1741 1805L1741 1807L1750.14 1807C1750.32 1807.69 1750.68 1808.31 1751.18 1808.82C1751.69 1809.32 1752.31 1809.68 1753 1809.86L1753 1819L1755 1819L1755 1809.86C1755.86 1809.64 1756.62 1809.14 1757.16 1808.44C1757.7 1807.74 1758 1806.88 1758 1806ZM1754 1808C1753.6 1808 1753.22 1807.88 1752.89 1807.66C1752.56 1807.44 1752.3 1807.13 1752.15 1806.77C1752 1806.4 1751.96 1806 1752.04 1805.61C1752.12 1805.22 1752.31 1804.87 1752.59 1804.59C1752.87 1804.31 1753.22 1804.12 1753.61 1804.04C1754 1803.96 1754.4 1804 1754.77 1804.15C1755.13 1804.3 1755.44 1804.56 1755.66 1804.89C1755.88 1805.22 1756 1805.6 1756 1806C1756 1806.53 1755.79 1807.04 1755.41 1807.41C1755.04 1807.79 1754.53 1808 1754 1808ZM1747 1825L1737.86 1825C1737.68 1824.31 1737.32 1823.69 1736.82 1823.18C1736.31 1822.68 1735.69 1822.32 1735 1822.14L1735 1813L1733 1813L1733 1822.14C1732.32 1822.32 1731.69 1822.67 1731.19 1823.16C1730.69 1823.66 1730.33 1824.28 1730.14 1824.95C1729.95 1825.63 1729.95 1826.35 1730.13 1827.03C1730.31 1827.71 1730.67 1828.33 1731.17 1828.83C1731.67 1829.33 1732.29 1829.69 1732.97 1829.87C1733.65 1830.05 1734.37 1830.05 1735.05 1829.86C1735.72 1829.67 1736.34 1829.31 1736.84 1828.81C1737.33 1828.31 1737.68 1827.68 1737.86 1827L1747 1827L1747 1825ZM1734 1828C1733.6 1828 1733.22 1827.88 1732.89 1827.66C1732.56 1827.44 1732.3 1827.13 1732.15 1826.77C1732 1826.4 1731.96 1826 1732.04 1825.61C1732.12 1825.22 1732.31 1824.87 1732.59 1824.59C1732.87 1824.31 1733.22 1824.12 1733.61 1824.04C1734 1823.96 1734.4 1824 1734.77 1824.15C1735.13 1824.3 1735.44 1824.56 1735.66 1824.89C1735.88 1825.22 1736 1825.6 1736 1826C1736 1826.53 1735.79 1827.04 1735.41 1827.41C1735.04 1827.79 1734.53 1828 1734 1828Z" fill="currentColor" fill-rule="nonzero" />
  </g>
</svg>

