<svg viewBox="0 0 32 32" xmlns="http://www.w3.org/2000/svg" fill="none">
  <g transform="translate(-1512.000122 -1800)">
<g id="clip path group" mask="url(#mask_4)">
			<g id="Group 14">
				<path id="Vector 1270" d="M1533 1816L1523 1816C1522.47 1816 1521.96 1816.21 1521.59 1816.59C1521.21 1816.96 1521 1817.47 1521 1818L1521 1824C1521 1824.53 1521.21 1825.04 1521.59 1825.41C1521.96 1825.79 1522.47 1826 1523 1826L1527 1826L1527 1828L1524 1828L1524 1830L1532 1830L1532 1828L1529 1828L1529 1826L1533 1826C1533.53 1826 1534.04 1825.79 1534.41 1825.41C1534.79 1825.04 1535 1824.53 1535 1824L1535 1818C1535 1817.47 1534.79 1816.96 1534.41 1816.59C1534.04 1816.21 1533.53 1816 1533 1816ZM1523 1824L1523 1818L1533 1818L1533 1824L1523 1824Z" fill="currentColor" fill-rule="evenodd" />
				<path id="Vector 1271" d="M1537.82 1810.12C1537.39 1807.84 1536.17 1805.78 1534.37 1804.3C1532.58 1802.81 1530.33 1802 1528 1802C1525.67 1802 1523.42 1802.81 1521.63 1804.3C1519.83 1805.78 1518.61 1807.84 1518.18 1810.12C1516.38 1810.44 1514.75 1811.41 1513.62 1812.85C1512.48 1814.28 1511.91 1816.09 1512.01 1817.91C1512.11 1819.74 1512.88 1821.47 1514.17 1822.77C1515.45 1824.07 1517.17 1824.85 1519 1824.97L1519 1822.97C1517.62 1822.85 1516.35 1822.21 1515.42 1821.18C1514.5 1820.16 1513.99 1818.82 1514.01 1817.44C1514.02 1816.06 1514.56 1814.73 1515.51 1813.73C1516.45 1812.73 1517.75 1812.12 1519.12 1812.02L1519.96 1811.96L1520.05 1811.13C1520.27 1809.17 1521.2 1807.36 1522.66 1806.05C1524.13 1804.73 1526.03 1804.01 1528 1804.01C1529.97 1804.01 1531.87 1804.73 1533.34 1806.05C1534.8 1807.36 1535.73 1809.17 1535.95 1811.13L1536.04 1811.96L1536.88 1812.02C1538.26 1812.11 1539.55 1812.72 1540.5 1813.73C1541.45 1814.73 1541.98 1816.06 1542 1817.44C1542.01 1818.82 1541.51 1820.16 1540.58 1821.19C1539.66 1822.21 1538.38 1822.85 1537 1822.98L1537 1824.98C1538.83 1824.86 1540.55 1824.07 1541.84 1822.77C1543.12 1821.47 1543.89 1819.74 1543.99 1817.91C1544.09 1816.09 1543.52 1814.28 1542.39 1812.85C1541.25 1811.41 1539.62 1810.44 1537.82 1810.12Z" fill="currentColor" fill-rule="evenodd" />
  </g>
</svg>

