<svg viewBox="0 0 32 32" xmlns="http://www.w3.org/2000/svg" fill="none">
  <g transform="translate(-1872.000122 -1800)">
<path id="Vector 1279" d="M1895 1814C1896.1 1814 1897 1813.1 1897 1812C1897 1810.9 1896.1 1810 1895 1810C1893.9 1810 1893 1810.9 1893 1812C1893 1813.1 1893.9 1814 1895 1814Z" fill="currentColor" fill-rule="nonzero" />
		<path id="Vector 1280" d="M1900 1805L1888.24 1805C1887.51 1804.08 1886.58 1803.33 1885.52 1802.81C1884.47 1802.29 1883.31 1802 1882.13 1801.98C1880.95 1801.96 1879.78 1802.2 1878.71 1802.68C1877.63 1803.16 1876.68 1803.87 1875.91 1804.77C1875.14 1805.66 1874.58 1806.71 1874.27 1807.85C1873.95 1808.98 1873.89 1810.17 1874.09 1811.34C1874.29 1812.5 1874.75 1813.6 1875.42 1814.56C1876.1 1815.53 1876.98 1816.33 1878 1816.92L1878 1827C1878 1827.53 1878.21 1828.04 1878.59 1828.41C1878.96 1828.79 1879.47 1829 1880 1829L1900 1829C1900.53 1829 1901.04 1828.79 1901.41 1828.41C1901.79 1828.04 1902 1827.53 1902 1827L1902 1807C1902 1806.47 1901.79 1805.96 1901.41 1805.59C1901.04 1805.21 1900.53 1805 1900 1805ZM1876 1810C1876 1808.68 1876.44 1807.4 1877.24 1806.35C1878.05 1805.31 1879.17 1804.56 1880.45 1804.22C1881.72 1803.87 1883.07 1803.96 1884.29 1804.46C1885.51 1804.97 1886.53 1805.86 1887.19 1807L1880 1807L1880 1809L1887.91 1809C1887.96 1809.33 1887.99 1809.66 1888 1810C1887.99 1810.33 1887.96 1810.67 1887.91 1811L1882 1811L1882 1813L1887.19 1813C1886.53 1814.14 1885.51 1815.03 1884.29 1815.54C1883.07 1816.04 1881.72 1816.13 1880.45 1815.78C1879.17 1815.44 1878.05 1814.69 1877.24 1813.65C1876.44 1812.6 1876 1811.32 1876 1810ZM1900 1827L1880 1827L1885 1822L1886.59 1823.59C1886.96 1823.96 1887.47 1824.17 1888 1824.17C1888.53 1824.17 1889.04 1823.96 1889.41 1823.59L1895 1818L1900 1823L1900 1827ZM1900 1820.17L1896.41 1816.58C1896.04 1816.21 1895.53 1816 1895 1816C1894.47 1816 1893.96 1816.21 1893.59 1816.58L1888 1822.17L1886.41 1820.58C1886.04 1820.21 1885.53 1820 1885 1820C1884.47 1820 1883.96 1820.21 1883.59 1820.58L1880 1824.17L1880 1817.74C1880.65 1817.91 1881.33 1818 1882 1818C1884.12 1818 1886.16 1817.16 1887.66 1815.66C1889.16 1814.16 1890 1812.12 1890 1810C1890 1808.97 1889.8 1807.95 1889.41 1807L1900 1807L1900 1820.17Z" fill="currentColor" fill-rule="nonzero" />
  </g>
</svg>

