<svg viewBox="0 0 32 32" xmlns="http://www.w3.org/2000/svg" fill="none">
  <g transform="translate(-1800.000122 -1800)">
<path id="Vector 1278" d="M1826 1824.59L1820.89 1819.47C1821.38 1818.78 1821.72 1817.99 1821.89 1817.15C1822.05 1816.32 1822.04 1815.46 1821.85 1814.63C1821.35 1812.42 1819.57 1810.64 1817.36 1810.15C1816.36 1809.92 1815.33 1809.95 1814.35 1810.23C1813.37 1810.51 1812.48 1811.04 1811.76 1811.76C1811.04 1812.48 1810.51 1813.37 1810.23 1814.35C1809.95 1815.33 1809.92 1816.36 1810.15 1817.36C1810.64 1819.57 1812.42 1821.35 1814.63 1821.85C1815.46 1822.04 1816.32 1822.05 1817.15 1821.89C1817.99 1821.72 1818.78 1821.38 1819.47 1820.89L1824.59 1826L1826 1824.59ZM1817.09 1819.86C1816.4 1820.05 1815.68 1820.05 1814.99 1819.87C1814.3 1819.69 1813.68 1819.33 1813.17 1818.83C1812.67 1818.32 1812.31 1817.7 1812.13 1817.01C1811.95 1816.32 1811.95 1815.6 1812.15 1814.91C1812.33 1814.25 1812.68 1813.65 1813.16 1813.16C1813.65 1812.68 1814.25 1812.32 1814.92 1812.14C1815.6 1811.95 1816.32 1811.95 1817.01 1812.13C1817.7 1812.31 1818.33 1812.67 1818.83 1813.18C1819.33 1813.68 1819.69 1814.31 1819.87 1814.99C1820.05 1815.68 1820.05 1816.4 1819.86 1817.09C1819.67 1817.75 1819.32 1818.35 1818.84 1818.84C1818.35 1819.33 1817.75 1819.68 1817.09 1819.86ZM1829.07 1816.36L1829 1816.19C1827.01 1810.95 1821.42 1807 1816 1807C1810.58 1807 1804.99 1810.95 1803 1816.18L1802.93 1816.36C1802.84 1816.6 1802.65 1816.8 1802.41 1816.91C1802.16 1817.02 1801.89 1817.03 1801.64 1816.93C1801.39 1816.84 1801.19 1816.65 1801.09 1816.41C1800.98 1816.16 1800.97 1815.89 1801.07 1815.64L1801.13 1815.47C1803.4 1809.5 1809.79 1805 1816 1805C1822.21 1805 1828.6 1809.5 1830.87 1815.47L1830.93 1815.64M1816 1827C1809.79 1827 1803.4 1822.5 1801.13 1816.53L1801.07 1816.36C1800.97 1816.11 1800.98 1815.84 1801.09 1815.59C1801.19 1815.35 1801.39 1815.16 1801.64 1815.07C1801.89 1814.97 1802.16 1814.98 1802.41 1815.09C1802.65 1815.19 1802.84 1815.39 1802.93 1815.64L1803 1815.81C1804.99 1821.05 1810.58 1825 1816 1825L1816 1827Z" fill="currentColor" fill-rule="nonzero" />
  </g>
</svg>

