<svg viewBox="0 0 32 32" xmlns="http://www.w3.org/2000/svg" fill="none">
  <g transform="translate(-1944.000122 -1800)">
<path id="Vector 1281" d="M1974 1817L1974 1815L1961 1815L1961 1811L1963 1811C1963.53 1811 1964.04 1810.79 1964.41 1810.41C1964.79 1810.04 1965 1809.53 1965 1809L1965 1804C1965 1803.47 1964.79 1802.96 1964.41 1802.59C1964.04 1802.21 1963.53 1802 1963 1802L1957 1802C1956.47 1802 1955.96 1802.21 1955.59 1802.59C1955.21 1802.96 1955 1803.47 1955 1804L1955 1809C1955 1809.53 1955.21 1810.04 1955.59 1810.41C1955.96 1810.79 1956.47 1811 1957 1811L1959 1811L1959 1815L1946 1815L1946 1817L1952 1817L1952 1821L1950 1821C1949.47 1821 1948.96 1821.21 1948.59 1821.59C1948.21 1821.96 1948 1822.47 1948 1823L1948 1828C1948 1828.53 1948.21 1829.04 1948.59 1829.41C1948.96 1829.79 1949.47 1830 1950 1830L1956 1830C1956.53 1830 1957.04 1829.79 1957.41 1829.41C1957.79 1829.04 1958 1828.53 1958 1828L1958 1823C1958 1822.47 1957.79 1821.96 1957.41 1821.59C1957.04 1821.21 1956.53 1821 1956 1821L1954 1821L1954 1817L1966 1817L1966 1821L1964 1821C1963.47 1821 1962.96 1821.21 1962.59 1821.59C1962.21 1821.96 1962 1822.47 1962 1823L1962 1828C1962 1828.53 1962.21 1829.04 1962.59 1829.41C1962.96 1829.79 1963.47 1830 1964 1830L1970 1830C1970.53 1830 1971.04 1829.79 1971.41 1829.41C1971.79 1829.04 1972 1828.53 1972 1828L1972 1823C1972 1822.47 1971.79 1821.96 1971.41 1821.59C1971.04 1821.21 1970.53 1821 1970 1821L1968 1821L1968 1817L1974 1817ZM1957 1804L1963 1804L1963 1809L1957 1809L1957 1804ZM1956 1828L1950 1828L1950 1823L1956 1823L1956 1828ZM1970 1828L1964 1828L1964 1823L1970 1823L1970 1828Z" fill="currentColor" fill-rule="nonzero" />
  </g>
</svg>

