<svg viewBox="0 0 32 32" xmlns="http://www.w3.org/2000/svg" fill="none">
  <g transform="translate(-0 -1872)">
<path id="Vector 1282" d="M16 1894C15.2089 1894 14.4355 1894.23 13.7777 1894.67C13.1199 1895.11 12.6072 1895.74 12.3045 1896.47C12.0017 1897.2 11.9225 1898 12.0769 1898.78C12.2312 1899.56 12.6122 1900.27 13.1716 1900.83C13.731 1901.39 14.4437 1901.77 15.2196 1901.92C15.9956 1902.08 16.7998 1902 17.5307 1901.7C18.2616 1901.39 18.8864 1900.88 19.3259 1900.22C19.7654 1899.56 20 1898.79 20 1898C19.9987 1896.94 19.5768 1895.92 18.827 1895.17C18.0771 1894.42 17.0605 1894 16 1894ZM16 1900C15.6044 1900 15.2178 1899.88 14.8889 1899.66C14.56 1899.44 14.3036 1899.13 14.1522 1898.77C14.0009 1898.4 13.9613 1898 14.0384 1897.61C14.1156 1897.22 14.3061 1896.87 14.5858 1896.59C14.8655 1896.31 15.2219 1896.12 15.6098 1896.04C15.9978 1895.96 16.3999 1896 16.7654 1896.15C17.1308 1896.3 17.4432 1896.56 17.6629 1896.89C17.8827 1897.22 18 1897.6 18 1898C18 1898.53 17.7893 1899.04 17.4142 1899.41C17.0391 1899.79 16.5304 1900 16 1900ZM30 1877C30.0025 1876.45 29.8534 1875.91 29.5691 1875.44C29.2847 1874.97 28.8762 1874.58 28.3881 1874.33C27.9 1874.07 27.3512 1873.96 26.8018 1873.99C26.2525 1874.03 25.7237 1874.22 25.2735 1874.53C24.8232 1874.85 24.4689 1875.28 24.2492 1875.79C24.0295 1876.29 23.953 1876.85 24.028 1877.4C24.103 1877.94 24.3267 1878.46 24.6745 1878.88C25.0224 1879.31 25.4809 1879.63 26 1879.81L26 1887L17 1887L17 1881L15 1881L15 1887L6.00001 1887L6.00001 1879.82C6.66722 1879.58 7.22956 1879.12 7.58764 1878.51C7.94572 1877.9 8.07647 1877.18 7.9568 1876.48C7.83713 1875.78 7.47474 1875.15 6.93367 1874.69C6.3926 1874.24 5.70769 1873.99 5.00001 1873.99C4.29232 1873.99 3.60741 1874.24 3.06635 1874.69C2.52528 1875.15 2.16288 1875.78 2.04321 1876.48C1.92354 1877.18 2.0543 1877.9 2.41237 1878.51C2.77045 1879.12 3.33279 1879.58 4.00001 1879.82L4.00001 1887C4.00001 1887.53 4.21072 1888.04 4.58579 1888.41C4.96087 1888.79 5.46957 1889 6.00001 1889L15 1889L15 1892L17 1892L17 1889L26 1889C26.5304 1889 27.0391 1888.79 27.4142 1888.41C27.7893 1888.04 28 1887.53 28 1887L28 1879.82C28.5829 1879.61 29.0879 1879.23 29.4459 1878.72C29.8039 1878.22 29.9974 1877.62 30 1877ZM5.00001 1876C5.19779 1876 5.39113 1876.06 5.55558 1876.17C5.72003 1876.28 5.8482 1876.43 5.92389 1876.62C5.99957 1876.8 6.01938 1877 5.98079 1877.2C5.94221 1877.39 5.84697 1877.57 5.70711 1877.71C5.56726 1877.85 5.38908 1877.94 5.1951 1877.98C5.00112 1878.02 4.80005 1878 4.61732 1877.92C4.4346 1877.85 4.27842 1877.72 4.16854 1877.56C4.05866 1877.39 4.00001 1877.2 4.00001 1877C4.00001 1876.73 4.10536 1876.48 4.2929 1876.29C4.48044 1876.11 4.73479 1876 5.00001 1876ZM27 1878C26.8022 1878 26.6089 1877.94 26.4444 1877.83C26.28 1877.72 26.1518 1877.57 26.0761 1877.38C26.0004 1877.2 25.9806 1877 26.0192 1876.8C26.0578 1876.61 26.153 1876.43 26.2929 1876.29C26.4328 1876.15 26.6109 1876.06 26.8049 1876.02C26.9989 1875.98 27.2 1876 27.3827 1876.08C27.5654 1876.15 27.7216 1876.28 27.8315 1876.44C27.9414 1876.61 28 1876.8 28 1877C28 1877.27 27.8946 1877.52 27.7071 1877.71C27.5196 1877.89 27.2652 1878 27 1878Z" fill="currentColor" fill-rule="nonzero" />
		<path id="Vector 1283" d="M16 1879C17.1046 1879 18 1878.1 18 1877C18 1875.9 17.1046 1875 16 1875C14.8954 1875 14 1875.9 14 1877C14 1878.1 14.8954 1879 16 1879Z" fill="currentColor" fill-rule="nonzero" />
  </g>
</svg>

