<svg viewBox="0 0 32 32" xmlns="http://www.w3.org/2000/svg" fill="none">
  <g transform="translate(-72 -1872)">
<path id="Vector 1284" d="M82.5 1898C83.3284 1898 84 1897.33 84 1896.5C84 1895.67 83.3284 1895 82.5 1895C81.6716 1895 81 1895.67 81 1896.5C81 1897.33 81.6716 1898 82.5 1898Z" fill="currentColor" fill-rule="nonzero" />
		<path id="Vector 1285" d="M90 1888.41L91.414 1887L95 1890.58L93.585 1892L90 1888.41Z" fill="currentColor" fill-rule="nonzero" />
		<path id="Vector 1286" d="M88 1887C89.1046 1887 90 1886.1 90 1885C90 1883.9 89.1046 1883 88 1883C86.8954 1883 86 1883.9 86 1885C86 1886.1 86.8954 1887 88 1887Z" fill="currentColor" fill-rule="nonzero" />
		<path id="Vector 1287" d="M88 1878C86.1435 1878 84.363 1878.74 83.0503 1880.05C81.7375 1881.36 81 1883.14 81 1885C81 1886.86 81.7375 1888.64 83.0503 1889.95C84.363 1891.26 86.1435 1892 88 1892L88 1890C87.0111 1890 86.0444 1889.71 85.2221 1889.16C84.3999 1888.61 83.759 1887.83 83.3806 1886.91C83.0022 1886 82.9031 1884.99 83.0961 1884.02C83.289 1883.05 83.7652 1882.16 84.4645 1881.46C85.1637 1880.77 86.0546 1880.29 87.0245 1880.1C87.9945 1879.9 88.9998 1880 89.9134 1880.38C90.827 1880.76 91.6079 1881.4 92.1573 1882.22C92.7068 1883.04 93 1884.01 93 1885L95 1885C95 1883.14 94.2625 1881.36 92.9497 1880.05C91.637 1878.74 89.8565 1878 88 1878Z" fill="currentColor" fill-rule="nonzero" />
		<path id="Vector 1288" d="M98 1874L78 1874C77.4696 1874 76.9609 1874.21 76.5858 1874.59C76.2107 1874.96 76 1875.47 76 1876L76 1900C76 1900.53 76.2107 1901.04 76.5858 1901.41C76.9609 1901.79 77.4696 1902 78 1902L98 1902C98.5304 1902 99.0391 1901.79 99.4142 1901.41C99.7893 1901.04 100 1900.53 100 1900L100 1876C100 1875.47 99.7893 1874.96 99.4142 1874.59C99.0391 1874.21 98.5304 1874 98 1874ZM98 1900L78 1900L78 1876L98 1876L98 1900Z" fill="currentColor" fill-rule="nonzero" />
  </g>
</svg>

