<svg viewBox="0 0 32 32" xmlns="http://www.w3.org/2000/svg" fill="none">
  <g transform="translate(-216 -1872)">
<path id="Vector 1292" d="M240 1882C238.843 1882 237.711 1882.34 236.741 1882.97C235.771 1883.6 235.004 1884.5 234.532 1885.56C234.061 1886.61 233.905 1887.78 234.084 1888.93C234.263 1890.07 234.768 1891.14 235.54 1892L228.46 1892C229.376 1890.98 229.913 1889.67 229.981 1888.3C230.048 1886.92 229.643 1885.57 228.831 1884.46C228.02 1883.35 226.853 1882.55 225.524 1882.2C224.196 1881.85 222.787 1881.96 221.533 1882.53C220.279 1883.09 219.256 1884.06 218.635 1885.29C218.014 1886.52 217.833 1887.92 218.122 1889.26C218.411 1890.6 219.152 1891.81 220.222 1892.67C221.292 1893.53 222.626 1894 224 1894L240 1894C241.591 1894 243.117 1893.37 244.243 1892.24C245.368 1891.12 246 1889.59 246 1888C246 1886.41 245.368 1884.88 244.243 1883.76C243.117 1882.63 241.591 1882 240 1882ZM220 1888C220 1887.21 220.235 1886.44 220.674 1885.78C221.114 1885.12 221.738 1884.61 222.469 1884.3C223.2 1884 224.004 1883.92 224.78 1884.08C225.556 1884.23 226.269 1884.61 226.828 1885.17C227.388 1885.73 227.769 1886.44 227.923 1887.22C228.077 1888 227.998 1888.8 227.695 1889.53C227.393 1890.26 226.88 1890.89 226.222 1891.33C225.564 1891.77 224.791 1892 224 1892C222.939 1892 221.922 1891.58 221.172 1890.83C220.421 1890.08 220 1889.06 220 1888ZM240 1892C239.209 1892 238.436 1891.77 237.778 1891.33C237.12 1890.89 236.607 1890.26 236.305 1889.53C236.002 1888.8 235.923 1888 236.077 1887.22C236.231 1886.44 236.612 1885.73 237.172 1885.17C237.731 1884.61 238.444 1884.23 239.22 1884.08C239.996 1883.92 240.8 1884 241.531 1884.3C242.262 1884.61 242.886 1885.12 243.326 1885.78C243.765 1886.44 244 1887.21 244 1888C244 1889.06 243.579 1890.08 242.828 1890.83C242.078 1891.58 241.061 1892 240 1892Z" fill="currentColor" fill-rule="nonzero" />
  </g>
</svg>

