<svg viewBox="0 0 32 32" xmlns="http://www.w3.org/2000/svg" fill="none">
  <g transform="translate(-144 -1872)">
<path id="Vector 1289" d="M170 1902L168 1902L168 1899L164 1899C162.674 1899 161.404 1898.47 160.466 1897.53C159.529 1896.6 159.002 1895.33 159 1894L159 1892.72L156.684 1891.95C156.542 1891.9 156.412 1891.82 156.305 1891.72C156.197 1891.61 156.115 1891.49 156.063 1891.35C156.011 1891.21 155.991 1891.06 156.005 1890.91C156.019 1890.76 156.066 1890.61 156.143 1890.49L159 1885.72L159 1883C159.003 1880.61 159.952 1878.33 161.639 1876.64C163.326 1874.95 165.614 1874 168 1874L173 1874L173 1876L168 1876C166.144 1876 164.365 1876.74 163.053 1878.05C161.741 1879.37 161.003 1881.14 161 1883L161 1886C161 1886.18 160.95 1886.36 160.857 1886.51L158.5 1890.45L160.317 1891.05C160.516 1891.12 160.689 1891.24 160.812 1891.42C160.934 1891.59 161 1891.79 161 1892L161 1894C161.001 1894.8 161.317 1895.56 161.88 1896.12C162.442 1896.68 163.205 1897 164 1897L169 1897C169.265 1897 169.52 1897.11 169.707 1897.29C169.895 1897.48 170 1897.73 170 1898L170 1902Z" fill="currentColor" fill-rule="nonzero" />
		<path id="Vector 1290" d="M163 1884L167 1884L167 1886L163 1886L163 1884ZM153.333 1897.22C152.599 1896.56 152.012 1895.76 151.61 1894.86C151.208 1893.96 151 1892.98 151 1892C151 1891.02 151.208 1890.04 151.61 1889.14C152.012 1888.24 152.599 1887.44 153.333 1886.78L154.666 1888.27C154.142 1888.74 153.722 1889.32 153.435 1889.96C153.148 1890.6 153 1891.3 153 1892C153 1892.7 153.148 1893.4 153.435 1894.04C153.722 1894.68 154.142 1895.26 154.666 1895.73L153.333 1897.22Z" fill="currentColor" fill-rule="nonzero" />
		<path id="Vector 1291" d="M150.4 1900.8C149.034 1899.78 147.926 1898.45 147.162 1896.92C146.399 1895.39 146.001 1893.71 146.001 1892C146.001 1890.29 146.399 1888.61 147.162 1887.08C147.926 1885.55 149.034 1884.22 150.4 1883.2L151.6 1884.8C150.482 1885.64 149.575 1886.73 148.95 1887.98C148.325 1889.22 147.999 1890.6 147.999 1892C147.999 1893.4 148.325 1894.78 148.95 1896.03C149.575 1897.28 150.482 1898.36 151.6 1899.2L150.4 1900.8Z" fill="currentColor" fill-rule="nonzero" />
  </g>
</svg>

