<svg viewBox="0 0 32 32" xmlns="http://www.w3.org/2000/svg" fill="none">
  <g transform="translate(-720 -1872)">
<path id="Vector 1300" d="M745.707 1889.29L740.707 1884.29C740.52 1884.11 740.265 1884 740 1884L734 1884C733.47 1884 732.961 1884.21 732.586 1884.59C732.211 1884.96 732 1885.47 732 1886L732 1900C732 1900.53 732.211 1901.04 732.586 1901.41C732.961 1901.79 733.47 1902 734 1902L744 1902C744.53 1902 745.039 1901.79 745.414 1901.41C745.789 1901.04 746 1900.53 746 1900L746 1890C746 1889.73 745.895 1889.48 745.707 1889.29ZM743.586 1890L740 1890L740 1886.41L743.586 1890ZM734 1900L734 1886L738 1886L738 1890C738 1890.53 738.211 1891.04 738.586 1891.41C738.961 1891.79 739.47 1892 740 1892L744 1892L744 1900L734 1900Z" fill="currentColor" fill-rule="nonzero" />
		<path id="Vector 1301" d="M728 1899L724 1899C723.47 1899 722.961 1898.79 722.586 1898.41C722.211 1898.04 722 1897.53 722 1897L722 1877C722 1876.47 722.211 1875.96 722.586 1875.59C722.961 1875.21 723.47 1875 724 1875L731.586 1875C732.116 1875 732.625 1875.21 733 1875.59L736.414 1879L748 1879C748.53 1879 749.039 1879.21 749.414 1879.59C749.789 1879.96 750 1880.47 750 1881L750 1889L748 1889L748 1881L735.586 1881L731.586 1877L724 1877L724 1897L728 1897L728 1899Z" fill="currentColor" fill-rule="nonzero" />
  </g>
</svg>

