<svg viewBox="0 0 32 32" xmlns="http://www.w3.org/2000/svg" fill="none">
  <g transform="translate(-792 -1872)">
<path id="Vector 1302" d="M823 1884.41L821.59 1883L818 1886.59L814.41 1883L813 1884.41L816.59 1888L813 1891.59L814.41 1893L818 1889.41L821.59 1893L823 1891.59L819.41 1888L823 1884.41ZM810 1902C809.868 1902 809.737 1901.97 809.615 1901.92C809.493 1901.87 809.383 1901.79 809.29 1901.7L801.67 1894L795 1894C794.735 1894 794.48 1893.89 794.293 1893.71C794.105 1893.52 794 1893.27 794 1893L794 1883C794 1882.73 794.105 1882.48 794.293 1882.29C794.48 1882.11 794.735 1882 795 1882L801.67 1882L809.29 1874.3C809.477 1874.11 809.731 1874.01 809.995 1874.01C810.259 1874.01 810.513 1874.11 810.7 1874.3C810.888 1874.48 810.996 1874.74 811 1875L811 1901C811 1901.27 810.895 1901.52 810.707 1901.71C810.52 1901.89 810.265 1902 810 1902ZM796 1892L802 1892C802.292 1892 802.573 1892.11 802.79 1892.3L809 1898.57L809 1877.43L802.79 1883.7C802.573 1883.9 802.292 1884 802 1884L796 1884L796 1892Z" fill="currentColor" fill-rule="nonzero" />
  </g>
</svg>

