<svg viewBox="0 0 32 32" xmlns="http://www.w3.org/2000/svg" fill="none">
  <g transform="translate(-360 -1872)">
<path id="Vector 1294" d="M377 1893L370 1893L370 1886L377 1886L377 1893ZM372 1891L375 1891L375 1888L372 1888L372 1891ZM377 1902L370 1902L370 1895L377 1895L377 1902ZM372 1900L375 1900L375 1897L372 1897L372 1900ZM386 1893L379 1893L379 1886L386 1886L386 1893ZM381 1891L384 1891L384 1888L381 1888L381 1891ZM386 1902L379 1902L379 1895L386 1895L386 1902ZM381 1900L384 1900L384 1897L381 1897L381 1900Z" fill="currentColor" fill-rule="nonzero" />
		<path id="Vector 1295" d="M368 1900L364 1900C363.47 1900 362.961 1899.79 362.586 1899.41C362.211 1899.04 362 1898.53 362 1898L362 1878C362 1877.47 362.211 1876.96 362.586 1876.59C362.961 1876.21 363.47 1876 364 1876L371.586 1876C372.116 1876 372.625 1876.21 373 1876.59L376.414 1880L388 1880C388.53 1880 389.039 1880.21 389.414 1880.59C389.789 1880.96 390 1881.47 390 1882L390 1890L388 1890L388 1882L375.586 1882L371.586 1878L364 1878L364 1898L368 1898L368 1900Z" fill="currentColor" fill-rule="nonzero" />
  </g>
</svg>

