<svg viewBox="0 0 32 32" xmlns="http://www.w3.org/2000/svg" fill="none">
  <g transform="translate(-648 -1872)">
<path id="Vector 1299" d="M670 1887L680 1887L680 1889L670 1889L670 1887ZM666 1902C665.868 1902 665.737 1901.97 665.615 1901.92C665.493 1901.87 665.383 1901.8 665.29 1901.7L657.665 1894L651 1894C650.735 1894 650.481 1893.89 650.293 1893.71C650.106 1893.52 650 1893.27 650 1893L650 1883C650 1882.73 650.105 1882.48 650.293 1882.29C650.48 1882.11 650.734 1882 650.999 1882L657.666 1882L665.289 1874.3C665.428 1874.16 665.607 1874.06 665.801 1874.02C665.995 1873.98 666.197 1874 666.38 1874.08C666.563 1874.15 666.72 1874.28 666.831 1874.44C666.941 1874.61 667 1874.8 667 1875L667 1901C667 1901.27 666.895 1901.52 666.707 1901.71C666.52 1901.89 666.265 1902 666 1902Z" fill="currentColor" fill-rule="nonzero" />
  </g>
</svg>

