<svg viewBox="0 0 32 32" xmlns="http://www.w3.org/2000/svg" fill="none">
  <g transform="translate(-864 -1872)">
<path id="Vector 1303" d="M895 1884.41L893.59 1883L890 1886.59L886.41 1883L885 1884.41L888.59 1888L885 1891.59L886.41 1893L890 1889.41L893.59 1893L895 1891.59L891.41 1888L895 1884.41ZM882 1902C881.868 1902 881.737 1901.97 881.615 1901.92C881.493 1901.87 881.383 1901.79 881.29 1901.7L873.67 1894L867 1894C866.735 1894 866.48 1893.89 866.293 1893.71C866.105 1893.52 866 1893.27 866 1893L866 1883C866 1882.73 866.105 1882.48 866.293 1882.29C866.48 1882.11 866.735 1882 867 1882L873.67 1882L881.29 1874.3C881.477 1874.11 881.731 1874.01 881.995 1874.01C882.259 1874.01 882.513 1874.11 882.7 1874.3C882.888 1874.48 882.996 1874.74 883 1875L883 1901C883 1901.27 882.895 1901.52 882.707 1901.71C882.52 1901.89 882.265 1902 882 1902Z" fill="currentColor" fill-rule="nonzero" />
  </g>
</svg>

