<svg viewBox="0 0 32 32" xmlns="http://www.w3.org/2000/svg" fill="none">
  <g transform="translate(-576 -1872)">
<path id="Vector 1298" d="M601.1 1882.66L599.58 1884C600.523 1885.12 601.025 1886.54 600.992 1888C600.959 1889.47 600.393 1890.87 599.4 1891.94L600.87 1893.3C602.193 1891.87 602.946 1890 602.989 1888.05C603.031 1886.1 602.359 1884.2 601.1 1882.71L601.1 1882.66ZM596 1902C595.868 1902 595.737 1901.97 595.615 1901.92C595.493 1901.87 595.383 1901.79 595.29 1901.7L587.67 1894L581 1894C580.735 1894 580.48 1893.89 580.293 1893.71C580.105 1893.52 580 1893.27 580 1893L580 1883C580 1882.73 580.105 1882.48 580.293 1882.29C580.48 1882.11 580.735 1882 581 1882L587.67 1882L595.29 1874.3C595.477 1874.11 595.731 1874.01 595.995 1874.01C596.259 1874.01 596.513 1874.11 596.7 1874.3C596.888 1874.48 596.996 1874.74 597 1875L597 1901C597 1901.27 596.895 1901.52 596.707 1901.71C596.52 1901.89 596.265 1902 596 1902Z" fill="currentColor" fill-rule="nonzero" />
  </g>
</svg>

