<svg viewBox="0 0 32 32" xmlns="http://www.w3.org/2000/svg" fill="none">
  <g transform="translate(-432 -1872)">
<path id="Vector 1296" d="M457.1 1882.66L455.58 1884C456.523 1885.12 457.025 1886.54 456.992 1888C456.959 1889.47 456.392 1890.87 455.4 1891.94L456.87 1893.3C458.193 1891.87 458.946 1890 458.989 1888.05C459.031 1886.1 458.359 1884.2 457.1 1882.71L457.1 1882.66ZM452 1902C451.868 1902 451.737 1901.97 451.615 1901.92C451.493 1901.87 451.383 1901.79 451.29 1901.7L443.67 1894L437 1894C436.735 1894 436.48 1893.89 436.293 1893.71C436.105 1893.52 436 1893.27 436 1893L436 1883C436 1882.73 436.105 1882.48 436.293 1882.29C436.48 1882.11 436.735 1882 437 1882L443.67 1882L451.29 1874.3C451.477 1874.11 451.731 1874.01 451.995 1874.01C452.259 1874.01 452.513 1874.11 452.7 1874.3C452.888 1874.48 452.996 1874.74 453 1875L453 1901C453 1901.27 452.895 1901.52 452.707 1901.71C452.52 1901.89 452.265 1902 452 1902ZM438 1892L444 1892C444.292 1892 444.573 1892.11 444.79 1892.3L451 1898.57L451 1877.43L444.79 1883.7C444.573 1883.9 444.292 1884 444 1884L438 1884L438 1892Z" fill="currentColor" fill-rule="nonzero" />
  </g>
</svg>

