<svg viewBox="0 0 32 32" xmlns="http://www.w3.org/2000/svg" fill="none">
  <g transform="translate(-504 -1872)">
<path id="Vector 1297" d="M526 1887L536 1887L536 1889L526 1889L526 1887ZM522 1902C521.868 1902 521.737 1901.97 521.615 1901.92C521.493 1901.87 521.383 1901.8 521.29 1901.7L513.665 1894L507 1894C506.735 1894 506.481 1893.89 506.293 1893.71C506.106 1893.52 506 1893.27 506 1893L506 1883C506 1882.73 506.105 1882.48 506.293 1882.29C506.48 1882.11 506.734 1882 506.999 1882L513.666 1882L521.289 1874.3C521.428 1874.16 521.607 1874.06 521.801 1874.02C521.995 1873.98 522.197 1874 522.38 1874.08C522.563 1874.15 522.72 1874.28 522.831 1874.44C522.941 1874.61 523 1874.8 523 1875L523 1901C523 1901.27 522.895 1901.52 522.707 1901.71C522.52 1901.89 522.265 1902 522 1902ZM508 1892L514 1892C514.292 1892 514.574 1892.1 514.794 1892.3L521 1898.57L521 1877.43L514.794 1883.7C514.574 1883.9 514.292 1884 514 1884L508 1884L508 1892Z" fill="currentColor" fill-rule="nonzero" />
  </g>
</svg>

