<svg viewBox="0 0 32 32" xmlns="http://www.w3.org/2000/svg" fill="none">
  <g transform="translate(-936 -1872)">
<path id="Vector 1304" d="M964.166 1874C961.084 1874.01 958.104 1875.11 955.758 1877.11C955.33 1876.7 954.817 1876.39 954.255 1876.2C953.692 1876.01 953.095 1875.95 952.507 1876.02C951.919 1876.1 951.354 1876.3 950.853 1876.62C950.353 1876.93 949.929 1877.36 949.613 1877.86C949.297 1878.36 949.096 1878.93 949.026 1879.51C948.955 1880.1 949.016 1880.7 949.205 1881.26C949.393 1881.82 949.705 1882.34 950.116 1882.76C950.527 1883.19 951.028 1883.52 951.583 1883.73L950.447 1887.9C950.374 1888.16 950.29 1888.42 950.197 1888.68C949.387 1888.14 948.406 1887.91 947.441 1888.04C946.476 1888.17 945.593 1888.66 944.958 1889.4C944.324 1890.13 943.982 1891.08 943.998 1892.05C944.013 1893.03 944.385 1893.96 945.043 1894.68C943.443 1895.55 941.654 1896 939.835 1896L938 1896L938 1898L939.834 1898C940.132 1898 940.426 1897.98 940.72 1897.96L948.649 1900.94C948.8 1900.99 948.963 1901.01 949.124 1900.99C949.284 1900.97 949.437 1900.91 949.57 1900.82C949.703 1900.73 949.811 1900.61 949.886 1900.46C949.961 1900.32 950 1900.16 950 1900L950 1893.09C950.331 1892.67 950.635 1892.23 950.912 1891.78L957.275 1889.96C957.433 1889.92 957.578 1889.83 957.696 1889.72C957.815 1889.6 957.903 1889.46 957.953 1889.3C958.003 1889.15 958.013 1888.98 957.983 1888.82C957.953 1888.66 957.884 1888.5 957.781 1888.38L953.784 1883.38C954.073 1882.55 954.46 1881.77 954.936 1881.03L960.684 1882.95C960.834 1883 960.994 1883.01 961.151 1882.99C961.308 1882.96 961.456 1882.9 961.585 1882.81C961.713 1882.72 961.818 1882.6 961.89 1882.46C961.962 1882.31 962 1882.16 962 1882L962 1876.22C962.713 1876.08 963.438 1876 964.166 1876L966 1876L966 1874L964.166 1874ZM953 1878C953.492 1878.01 953.964 1878.2 954.324 1878.53C953.466 1879.52 952.763 1880.64 952.24 1881.85C951.812 1881.67 951.458 1881.35 951.239 1880.95C951.02 1880.54 950.949 1880.07 951.039 1879.61C951.128 1879.16 951.373 1878.75 951.731 1878.45C952.088 1878.16 952.537 1878 953 1878ZM946 1892C945.998 1891.61 946.109 1891.23 946.319 1890.91C946.53 1890.58 946.831 1890.33 947.186 1890.17C947.54 1890.01 947.933 1889.96 948.315 1890.03C948.697 1890.09 949.052 1890.27 949.337 1890.53C948.662 1891.68 947.783 1892.7 946.742 1893.54C946.512 1893.36 946.326 1893.12 946.198 1892.85C946.069 1892.59 946.002 1892.3 946 1892ZM944.335 1897.18C945.662 1896.69 946.9 1895.99 948 1895.09L948 1898.56L944.335 1897.18ZM952.075 1889.37C952.187 1889.06 952.288 1888.74 952.377 1888.42L953.109 1885.74L955.28 1888.45L952.075 1889.37ZM960 1880.61L956.259 1879.36C957.319 1878.27 958.593 1877.41 960 1876.83L960 1880.61ZM958 1894L958 1896L962.586 1896L958 1900.59L959.414 1902L964 1897.41L964 1902L966 1902L966 1894L958 1894ZM938 1874L938 1876L942.586 1876L938 1880.59L939.414 1882L944 1877.41L944 1882L946 1882L946 1874L938 1874Z" fill="currentColor" fill-rule="nonzero" />
  </g>
</svg>

