<svg viewBox="0 0 32 32" xmlns="http://www.w3.org/2000/svg" fill="none">
  <g transform="translate(-1008 -1872)">
<path id="Vector 1305" d="M1026 1900L1026 1898C1027.31 1898 1028.61 1897.74 1029.83 1897.24C1031.04 1896.74 1032.14 1896 1033.07 1895.07C1034 1894.14 1034.74 1893.04 1035.24 1891.83C1035.74 1890.61 1036 1889.31 1036 1888L1038 1888C1038 1891.18 1036.74 1894.23 1034.49 1896.49C1032.23 1898.74 1029.18 1900 1026 1900Z" fill="currentColor" fill-rule="nonzero" />
		<path id="Vector 1306" d="M1026 1895L1026 1893C1026.66 1893 1027.31 1892.87 1027.91 1892.62C1028.52 1892.37 1029.07 1892 1029.54 1891.54C1030 1891.07 1030.37 1890.52 1030.62 1889.91C1030.87 1889.31 1031 1888.66 1031 1888L1033 1888C1033 1889.86 1032.26 1891.64 1030.95 1892.95C1029.64 1894.26 1027.86 1895 1026 1895Z" fill="currentColor" fill-rule="nonzero" />
		<path id="Vector 1307" d="M1035 1883L1029 1883L1029 1879C1029 1878.2 1028.68 1877.44 1028.12 1876.88C1027.56 1876.32 1026.8 1876 1026 1876L1020 1876C1019.2 1876 1018.44 1876.32 1017.88 1876.88C1017.32 1877.44 1017 1878.2 1017 1879L1017 1883L1011 1883C1010.86 1883 1010.71 1883.03 1010.58 1883.09C1010.45 1883.15 1010.33 1883.23 1010.23 1883.34C1010.14 1883.45 1010.07 1883.58 1010.03 1883.72C1009.99 1883.86 1009.98 1884.01 1010 1884.15L1011.88 1896.3C1011.95 1896.78 1012.19 1897.21 1012.56 1897.52C1012.93 1897.84 1013.4 1898.01 1013.88 1898L1023 1898L1023 1896L1013.86 1896L1012.17 1885L1035 1885L1035 1883ZM1019 1879C1019 1878.73 1019.11 1878.48 1019.29 1878.29C1019.48 1878.11 1019.73 1878 1020 1878L1026 1878C1026.27 1878 1026.52 1878.11 1026.71 1878.29C1026.89 1878.48 1027 1878.73 1027 1879L1027 1883L1019 1883L1019 1879Z" fill="currentColor" fill-rule="nonzero" />
  </g>
</svg>

