<svg viewBox="0 0 32 32" xmlns="http://www.w3.org/2000/svg" fill="none">
  <g transform="translate(-1080 -1872)">
<path id="Vector 1308" d="M1109 1881L1107 1894L1105 1881L1103 1881L1105.52 1895L1108.48 1895L1111 1881L1109 1881ZM1099 1881L1097.48 1886L1097 1887.98L1096.54 1886L1095 1881L1093 1881L1093 1895L1095 1895L1095 1887L1094.84 1885L1095.42 1887L1097 1891.63L1098.58 1887L1099.16 1885L1099 1887L1099 1895L1101 1895L1101 1881L1099 1881ZM1089.2 1881L1088.86 1889L1088.6 1893.54L1088.19 1890L1087.51 1884.54L1085.49 1884.54L1084.81 1890L1084.4 1893.54L1084.14 1889L1083.8 1881L1082 1881L1083 1895L1085.27 1895L1086.03 1890.07L1086.49 1886L1086.5 1885.97L1086.51 1886L1086.97 1890.07L1087.73 1895L1090 1895L1091 1881L1089.2 1881Z" fill="currentColor" fill-rule="nonzero" />
  </g>
</svg>

