<svg viewBox="0 0 32 32" xmlns="http://www.w3.org/2000/svg" fill="none">
  <g transform="translate(-1152 -1872)">
<path id="Vector 1309" d="M1162 1888L1174 1888L1174 1890L1162 1890L1162 1888ZM1162 1892L1170 1892L1170 1894L1162 1894L1162 1892Z" fill="currentColor" fill-rule="nonzero" />
		<path id="Vector 1310" d="M1168 1879C1169.86 1879 1171.66 1879.65 1173.1 1880.84C1174.53 1882.02 1175.51 1883.67 1175.87 1885.49L1176.12 1886.84L1177.47 1887.08C1178.82 1887.33 1180.03 1888.07 1180.87 1889.16C1181.7 1890.25 1182.09 1891.62 1181.97 1892.98C1181.85 1894.35 1181.23 1895.62 1180.21 1896.55C1179.2 1897.48 1177.88 1898 1176.51 1898L1159.49 1898C1158.12 1898 1156.8 1897.48 1155.79 1896.55C1154.77 1895.63 1154.15 1894.35 1154.02 1892.98C1153.9 1891.62 1154.3 1890.25 1155.13 1889.16C1155.96 1888.07 1157.17 1887.33 1158.53 1887.08L1159.88 1886.84L1160.13 1885.49C1160.49 1883.67 1161.47 1882.02 1162.9 1880.84C1164.34 1879.65 1166.14 1879 1168 1879ZM1168 1877C1165.67 1877 1163.42 1877.81 1161.63 1879.29C1159.84 1880.77 1158.61 1882.83 1158.17 1885.12C1156.33 1885.45 1154.68 1886.46 1153.54 1887.95C1152.41 1889.44 1151.87 1891.3 1152.03 1893.16C1152.2 1895.03 1153.06 1896.76 1154.44 1898.03C1155.82 1899.29 1157.62 1900 1159.49 1900L1176.51 1900C1178.38 1900 1180.18 1899.29 1181.56 1898.03C1182.94 1896.76 1183.8 1895.03 1183.96 1893.16C1184.13 1891.3 1183.59 1889.44 1182.46 1887.95C1181.32 1886.46 1179.67 1885.45 1177.83 1885.12C1177.39 1882.83 1176.16 1880.77 1174.37 1879.29C1172.57 1877.81 1170.32 1877 1167.99 1877L1168 1877Z" fill="currentColor" fill-rule="nonzero" />
  </g>
</svg>

