<svg viewBox="0 0 32 32" xmlns="http://www.w3.org/2000/svg" fill="none">
  <g transform="translate(-1224 -1872)">
<path id="Vector 1311" d="M1240 1899C1236.4 1899 1232.9 1897.2 1230.8 1894L1236 1894L1236 1892L1228 1892L1228 1900L1230 1900L1230 1896.3C1232.5 1899.3 1236.1 1901 1240 1901L1240 1899ZM1255 1895L1255 1893L1252.9 1893C1252.8 1892.4 1252.5 1891.8 1252.2 1891.2L1253.7 1889.7L1252.3 1888.3L1250.8 1889.8C1250.3 1889.5 1249.7 1889.2 1249 1889.1L1249 1887L1247 1887L1247 1889.1C1246.4 1889.2 1245.8 1889.5 1245.2 1889.8L1243.7 1888.3L1242.3 1889.7L1243.8 1891.2C1243.5 1891.7 1243.2 1892.3 1243.1 1893L1241 1893L1241 1895L1243.1 1895C1243.2 1895.6 1243.5 1896.2 1243.8 1896.8L1242.3 1898.3L1243.7 1899.7L1245.2 1898.2C1245.7 1898.5 1246.3 1898.8 1247 1898.9L1247 1901L1249 1901L1249 1898.9C1249.6 1898.8 1250.2 1898.5 1250.8 1898.2L1252.3 1899.7L1253.7 1898.3L1252.2 1896.8C1252.5 1896.3 1252.8 1895.7 1252.9 1895L1255 1895ZM1248 1897C1246.3 1897 1245 1895.7 1245 1894C1245 1892.3 1246.3 1891 1248 1891C1249.7 1891 1251 1892.3 1251 1894C1251 1895.7 1249.7 1897 1248 1897ZM1244 1882L1249.2 1882C1245.9 1876.9 1239.1 1875.5 1234 1878.8C1230.9 1880.8 1229 1884.3 1229 1888L1227 1888C1227 1880.8 1232.8 1875 1240 1875C1243.9 1875 1247.5 1876.7 1250 1879.7L1250 1876L1252 1876L1252 1884L1244 1884L1244 1882Z" fill="currentColor" fill-rule="nonzero" />
  </g>
</svg>

