<svg viewBox="0 0 32 32" xmlns="http://www.w3.org/2000/svg" fill="none">
  <g transform="translate(-1368.000122 -1872)">
<path id="Vector 1313" d="M1395 1878L1395 1883L1385 1883L1385 1878L1395 1878ZM1395 1876L1385 1876C1384.47 1876 1383.96 1876.21 1383.59 1876.59C1383.21 1876.96 1383 1877.47 1383 1878L1383 1883C1383 1883.53 1383.21 1884.04 1383.59 1884.41C1383.96 1884.79 1384.47 1885 1385 1885L1395 1885C1395.53 1885 1396.04 1884.79 1396.41 1884.41C1396.79 1884.04 1397 1883.53 1397 1883L1397 1878C1397 1877.47 1396.79 1876.96 1396.41 1876.59C1396.04 1876.21 1395.53 1876 1395 1876ZM1380 1897L1374 1897L1374 1889L1380 1889L1380 1887L1374 1887C1373.47 1887 1372.96 1887.21 1372.59 1887.59C1372.21 1887.96 1372 1888.47 1372 1889L1372 1897C1372 1897.53 1372.21 1898.04 1372.59 1898.41C1372.96 1898.79 1373.47 1899 1374 1899L1380 1899L1380 1897ZM1398 1892L1384.83 1892L1387.41 1889.41L1386 1888L1381 1893L1386 1898L1387.41 1896.59L1384.83 1894L1398 1894L1398 1892ZM1379 1878L1379 1883L1374 1883L1374 1878L1379 1878ZM1379 1876L1374 1876C1373.47 1876 1372.96 1876.21 1372.59 1876.59C1372.21 1876.96 1372 1877.47 1372 1878L1372 1883C1372 1883.53 1372.21 1884.04 1372.59 1884.41C1372.96 1884.79 1373.47 1885 1374 1885L1379 1885C1379.53 1885 1380.04 1884.79 1380.41 1884.41C1380.79 1884.04 1381 1883.53 1381 1883L1381 1878C1381 1877.47 1380.79 1876.96 1380.41 1876.59C1380.04 1876.21 1379.53 1876 1379 1876Z" fill="currentColor" fill-rule="nonzero" />
  </g>
</svg>

