<svg viewBox="0 0 32 32" xmlns="http://www.w3.org/2000/svg" fill="none">
  <g transform="translate(-1296 -1872)">
<path id="Vector 1312" d="M1312 1889L1312 1897L1302 1897L1302 1889L1312 1889ZM1312 1887L1302 1887C1301.47 1887 1300.96 1887.21 1300.59 1887.59C1300.21 1887.96 1300 1888.47 1300 1889L1300 1897C1300 1897.53 1300.21 1898.04 1300.59 1898.41C1300.96 1898.79 1301.47 1899 1302 1899L1312 1899C1312.53 1899 1313.04 1898.79 1313.41 1898.41C1313.79 1898.04 1314 1897.53 1314 1897L1314 1889C1314 1888.47 1313.79 1887.96 1313.41 1887.59C1313.04 1887.21 1312.53 1887 1312 1887ZM1323 1878L1323 1883L1313 1883L1313 1878L1323 1878ZM1323 1876L1313 1876C1312.47 1876 1311.96 1876.21 1311.59 1876.59C1311.21 1876.96 1311 1877.47 1311 1878L1311 1883C1311 1883.53 1311.21 1884.04 1311.59 1884.41C1311.96 1884.79 1312.47 1885 1313 1885L1323 1885C1323.53 1885 1324.04 1884.79 1324.41 1884.41C1324.79 1884.04 1325 1883.53 1325 1883L1325 1878C1325 1877.47 1324.79 1876.96 1324.41 1876.59C1324.04 1876.21 1323.53 1876 1323 1876ZM1323 1889L1323 1894L1318 1894L1318 1889L1323 1889ZM1323 1887L1318 1887C1317.47 1887 1316.96 1887.21 1316.59 1887.59C1316.21 1887.96 1316 1888.47 1316 1889L1316 1894C1316 1894.53 1316.21 1895.04 1316.59 1895.41C1316.96 1895.79 1317.47 1896 1318 1896L1323 1896C1323.53 1896 1324.04 1895.79 1324.41 1895.41C1324.79 1895.04 1325 1894.53 1325 1894L1325 1889C1325 1888.47 1324.79 1887.96 1324.41 1887.59C1324.04 1887.21 1323.53 1887 1323 1887ZM1307 1878L1307 1883L1302 1883L1302 1878L1307 1878ZM1307 1876L1302 1876C1301.47 1876 1300.96 1876.21 1300.59 1876.59C1300.21 1876.96 1300 1877.47 1300 1878L1300 1883C1300 1883.53 1300.21 1884.04 1300.59 1884.41C1300.96 1884.79 1301.47 1885 1302 1885L1307 1885C1307.53 1885 1308.04 1884.79 1308.41 1884.41C1308.79 1884.04 1309 1883.53 1309 1883L1309 1878C1309 1877.47 1308.79 1876.96 1308.41 1876.59C1308.04 1876.21 1307.53 1876 1307 1876Z" fill="currentColor" fill-rule="nonzero" />
  </g>
</svg>

