<svg viewBox="0 0 32 32" xmlns="http://www.w3.org/2000/svg" fill="none">
  <g transform="translate(-1584.000122 -1872)">
<path id="Vector 1318" d="M1608.29 1888L1611.88 1881.48C1611.96 1881.33 1612 1881.16 1612 1880.98C1612 1880.81 1611.95 1880.64 1611.86 1880.49C1611.77 1880.34 1611.65 1880.22 1611.5 1880.13C1611.34 1880.05 1611.17 1880 1611 1880L1603.89 1880L1600.88 1874.52C1600.79 1874.36 1600.66 1874.23 1600.51 1874.14C1600.35 1874.05 1600.18 1874 1600 1874C1599.82 1874 1599.65 1874.05 1599.49 1874.14C1599.34 1874.23 1599.21 1874.36 1599.12 1874.52L1596.11 1880L1589 1880C1588.83 1880 1588.66 1880.05 1588.5 1880.13C1588.35 1880.22 1588.23 1880.34 1588.14 1880.49C1588.05 1880.64 1588 1880.81 1588 1880.98C1588 1881.16 1588.04 1881.33 1588.12 1881.48L1591.71 1888L1588.12 1894.52C1588.04 1894.67 1588 1894.84 1588 1895.02C1588 1895.19 1588.05 1895.36 1588.14 1895.51C1588.23 1895.66 1588.35 1895.78 1588.5 1895.87C1588.66 1895.95 1588.83 1896 1589 1896L1596.11 1896L1599.12 1901.48C1599.21 1901.64 1599.34 1901.77 1599.49 1901.86C1599.65 1901.95 1599.82 1902 1600 1902C1600.18 1902 1600.35 1901.95 1600.51 1901.86C1600.66 1901.77 1600.79 1901.64 1600.88 1901.48L1603.89 1896L1611 1896C1611.17 1896 1611.34 1895.95 1611.5 1895.87C1611.65 1895.78 1611.77 1895.66 1611.86 1895.51C1611.95 1895.36 1612 1895.19 1612 1895.02C1612 1894.84 1611.96 1894.67 1611.88 1894.52L1608.29 1888ZM1602.71 1894L1600 1898.93L1597.29 1894L1590.69 1894L1593.99 1888L1590.69 1882L1597.29 1882L1600 1877.08L1602.71 1882L1609.31 1882L1606.01 1888L1609.31 1894L1602.71 1894Z" fill="currentColor" fill-rule="nonzero" />
  </g>
</svg>

