<svg viewBox="0 0 32 32" xmlns="http://www.w3.org/2000/svg" fill="none">
  <g transform="translate(-1656.000122 -1872)">
<path id="Vector 1319" d="M1683 1890C1682.81 1890 1682.62 1889.94 1682.46 1889.84L1678 1886.97L1673.54 1889.84C1673.37 1889.95 1673.17 1890.01 1672.97 1890C1672.77 1890 1672.58 1889.93 1672.41 1889.81C1672.25 1889.69 1672.12 1889.53 1672.06 1889.34C1671.99 1889.15 1671.98 1888.94 1672.03 1888.75L1673.38 1883.61L1670.31 1880.69C1670.17 1880.56 1670.08 1880.39 1670.03 1880.21C1669.98 1880.03 1669.99 1879.84 1670.05 1879.66C1670.1 1879.48 1670.21 1879.32 1670.36 1879.2C1670.5 1879.08 1670.67 1879 1670.86 1878.97L1675.24 1878.36L1677.1 1874.56C1677.18 1874.39 1677.31 1874.25 1677.47 1874.15C1677.62 1874.06 1677.8 1874 1677.99 1874C1678.17 1874 1678.35 1874.05 1678.51 1874.14C1678.67 1874.24 1678.8 1874.38 1678.89 1874.54L1680.88 1878.36L1685.14 1878.98C1685.33 1879 1685.5 1879.08 1685.65 1879.2C1685.79 1879.32 1685.9 1879.48 1685.95 1879.66C1686.01 1879.84 1686.02 1880.03 1685.97 1880.21C1685.92 1880.4 1685.83 1880.56 1685.69 1880.69L1682.62 1883.61L1683.97 1888.75C1684.01 1888.89 1684.01 1889.05 1683.98 1889.2C1683.95 1889.35 1683.89 1889.49 1683.79 1889.61C1683.7 1889.73 1683.58 1889.83 1683.44 1889.9C1683.3 1889.97 1683.15 1890 1683 1890ZM1678 1884.78C1678.19 1884.78 1678.38 1884.83 1678.54 1884.94L1681.38 1886.77L1680.53 1883.55C1680.49 1883.38 1680.49 1883.2 1680.54 1883.02C1680.59 1882.85 1680.68 1882.7 1680.81 1882.57L1682.82 1880.66L1680.09 1880.27C1679.93 1880.25 1679.78 1880.19 1679.65 1880.1C1679.52 1880 1679.42 1879.88 1679.34 1879.74L1678.03 1877.21L1676.8 1879.72C1676.73 1879.87 1676.62 1879.99 1676.49 1880.09C1676.35 1880.19 1676.2 1880.25 1676.04 1880.27L1673.19 1880.67L1675.19 1882.57C1675.32 1882.7 1675.41 1882.85 1675.46 1883.02C1675.51 1883.2 1675.51 1883.38 1675.47 1883.55L1674.62 1886.77L1677.46 1884.94C1677.62 1884.83 1677.81 1884.78 1678 1884.78Z" fill="currentColor" fill-rule="nonzero" />
		<path id="Vector 1320" d="M1671.82 1902C1668.76 1902 1665.79 1900.99 1663.37 1899.12C1660.95 1897.25 1659.22 1894.63 1658.45 1891.67C1657.68 1888.71 1657.91 1885.58 1659.11 1882.77C1660.31 1879.95 1662.41 1877.62 1665.08 1876.13C1665.27 1876.02 1665.48 1875.98 1665.7 1876.01C1665.92 1876.04 1666.12 1876.14 1666.27 1876.29C1666.42 1876.45 1666.52 1876.65 1666.55 1876.86C1666.58 1877.08 1666.54 1877.3 1666.44 1877.49C1665.18 1879.73 1664.69 1882.33 1665.04 1884.88C1665.39 1887.43 1666.57 1889.79 1668.39 1891.61C1670.21 1893.43 1672.57 1894.61 1675.12 1894.96C1677.67 1895.31 1680.26 1894.82 1682.51 1893.56C1682.7 1893.46 1682.92 1893.42 1683.14 1893.45C1683.35 1893.48 1683.55 1893.58 1683.71 1893.73C1683.86 1893.88 1683.96 1894.08 1683.99 1894.3C1684.02 1894.52 1683.98 1894.73 1683.87 1894.93C1682.67 1897.07 1680.92 1898.85 1678.8 1900.1C1676.68 1901.34 1674.27 1902 1671.82 1902ZM1663.33 1879.97C1661.17 1882.2 1659.97 1885.18 1659.99 1888.29C1660.02 1891.39 1661.26 1894.36 1663.45 1896.55C1665.64 1898.74 1668.61 1899.98 1671.71 1900.01C1674.82 1900.03 1677.8 1898.83 1680.03 1896.67C1677.72 1897.24 1675.31 1897.2 1673.02 1896.56C1670.74 1895.92 1668.65 1894.7 1666.98 1893.02C1665.3 1891.35 1664.08 1889.26 1663.44 1886.98C1662.8 1884.69 1662.76 1882.28 1663.33 1879.97Z" fill="currentColor" fill-rule="nonzero" />
  </g>
</svg>

