<svg viewBox="0 0 32 32" xmlns="http://www.w3.org/2000/svg" fill="none">
  <g transform="translate(-1512.000122 -1872)">
<path id="Vector 1317" d="M1529 1902L1527 1902C1526.47 1902 1525.96 1901.79 1525.59 1901.41C1525.21 1901.04 1525 1900.53 1525 1900L1525 1886L1520 1886C1519.47 1886 1518.96 1885.79 1518.59 1885.41C1518.21 1885.04 1518 1884.53 1518 1884L1518 1882C1518 1881.47 1518.21 1880.96 1518.59 1880.59C1518.96 1880.21 1519.47 1880 1520 1880L1525 1880L1525 1876C1525 1875.47 1525.21 1874.96 1525.59 1874.59C1525.96 1874.21 1526.47 1874 1527 1874L1529 1874C1529.53 1874 1530.04 1874.21 1530.41 1874.59C1530.79 1874.96 1531 1875.47 1531 1876L1531 1880L1536 1880C1536.53 1880 1537.04 1880.21 1537.41 1880.59C1537.79 1880.96 1538 1881.47 1538 1882L1538 1884C1538 1884.53 1537.79 1885.04 1537.41 1885.41C1537.04 1885.79 1536.53 1886 1536 1886L1531 1886L1531 1900C1531 1900.53 1530.79 1901.04 1530.41 1901.41C1530.04 1901.79 1529.53 1902 1529 1902ZM1520 1882L1520 1884L1527 1884L1527 1900L1529 1900L1529 1884L1536 1884L1536 1882L1529 1882L1529 1876L1527 1876L1527 1882L1520 1882Z" fill="currentColor" fill-rule="nonzero" />
  </g>
</svg>

