<svg viewBox="0 0 32 32" xmlns="http://www.w3.org/2000/svg" fill="none">
  <g transform="translate(-1440.000122 -1872)">
<path id="Vector 1314" d="M1466.59 1889L1462 1893.59L1457 1888.59C1456.81 1888.4 1456.59 1888.25 1456.35 1888.15C1456.11 1888.05 1455.85 1888 1455.59 1888C1455.32 1888 1455.06 1888.05 1454.82 1888.15C1454.58 1888.25 1454.36 1888.4 1454.17 1888.59L1449.59 1893.17C1449.21 1893.55 1449 1894.05 1449 1894.58C1449 1895.11 1449.21 1895.62 1449.59 1896L1453.59 1900L1446 1900L1446 1902L1456 1902C1456.2 1902 1456.39 1901.94 1456.56 1901.83C1456.72 1901.72 1456.85 1901.56 1456.92 1901.38C1457 1901.2 1457.02 1901 1456.98 1900.8C1456.94 1900.61 1456.85 1900.43 1456.71 1900.29L1451 1894.58L1455.59 1890L1461.29 1895.71C1461.48 1895.89 1461.73 1896 1462 1896C1462.27 1896 1462.52 1895.89 1462.71 1895.71L1468 1890.41L1466.59 1889Z" fill="currentColor" fill-rule="nonzero" />
		<path id="Vector 1315" d="M1461.5 1889C1460.81 1889 1460.13 1888.79 1459.56 1888.41C1458.98 1888.03 1458.53 1887.48 1458.27 1886.84C1458 1886.2 1457.93 1885.5 1458.07 1884.82C1458.2 1884.14 1458.54 1883.51 1459.03 1883.03C1459.51 1882.54 1460.14 1882.2 1460.82 1882.07C1461.5 1881.93 1462.2 1882 1462.84 1882.27C1463.48 1882.53 1464.03 1882.98 1464.41 1883.56C1464.79 1884.13 1465 1884.81 1465 1885.5C1465 1886.43 1464.63 1887.32 1463.97 1887.97C1463.32 1888.63 1462.43 1889 1461.5 1889ZM1461.5 1884C1461.2 1884 1460.91 1884.09 1460.67 1884.25C1460.42 1884.42 1460.23 1884.65 1460.11 1884.93C1460 1885.2 1459.97 1885.5 1460.03 1885.79C1460.09 1886.08 1460.23 1886.35 1460.44 1886.56C1460.65 1886.77 1460.92 1886.91 1461.21 1886.97C1461.5 1887.03 1461.8 1887 1462.07 1886.89C1462.35 1886.77 1462.58 1886.58 1462.75 1886.33C1462.91 1886.09 1463 1885.8 1463 1885.5C1463 1885.1 1462.84 1884.72 1462.56 1884.44C1462.28 1884.16 1461.9 1884 1461.5 1884Z" fill="currentColor" fill-rule="nonzero" />
		<path id="Vector 1316" d="M1444 1882.6L1456 1876.14L1468.53 1882.88L1469.47 1881.12L1456.47 1874.12C1456.33 1874.04 1456.17 1874 1456 1874C1455.83 1874 1455.67 1874.04 1455.53 1874.12L1442.53 1881.12C1442.37 1881.2 1442.23 1881.33 1442.14 1881.49C1442.05 1881.64 1442 1881.82 1442 1882L1442 1902L1444 1902L1444 1882.6Z" fill="currentColor" fill-rule="nonzero" />
  </g>
</svg>

