<svg viewBox="0 0 32 32" xmlns="http://www.w3.org/2000/svg" fill="none">
  <g transform="translate(-1800.000122 -1872)">
<path id="Vector 1322" d="M1828 1895L1822 1895L1822 1893L1828 1893L1828 1889L1824 1889C1823.47 1889 1822.96 1888.79 1822.59 1888.41C1822.21 1888.04 1822 1887.53 1822 1887L1822 1883C1822 1882.47 1822.21 1881.96 1822.59 1881.59C1822.96 1881.21 1823.47 1881 1824 1881L1830 1881L1830 1883L1824 1883L1824 1887L1828 1887C1828.53 1887 1829.04 1887.21 1829.41 1887.59C1829.79 1887.96 1830 1888.47 1830 1889L1830 1893C1830 1893.53 1829.79 1894.04 1829.41 1894.41C1829.04 1894.79 1828.53 1895 1828 1895ZM1814 1893L1814 1881L1812 1881L1812 1895L1820 1895L1820 1893L1814 1893ZM1810 1881L1808 1881L1806 1887L1804 1881L1802 1881L1804.75 1888L1802 1895L1804 1895L1806 1889L1808 1895L1810 1895L1807.25 1888L1810 1881Z" fill="currentColor" fill-rule="nonzero" />
  </g>
</svg>

