<svg viewBox="0 0 32 32" xmlns="http://www.w3.org/2000/svg" fill="none">
  <g transform="translate(-1872.000122 -1872)">
<path id="Vector 1323" d="M1896 1893L1896 1881L1894 1881L1894 1895L1902 1895L1902 1893L1896 1893ZM1890 1881L1888.48 1886L1888 1887.98L1887.54 1886L1886 1881L1884 1881L1884 1895L1886 1895L1886 1887L1885.84 1885L1886.42 1887L1888 1891.63L1889.58 1887L1890.16 1885L1890 1887L1890 1895L1892 1895L1892 1881L1890 1881ZM1882 1881L1880 1881L1878 1887L1876 1881L1874 1881L1876.75 1888L1874 1895L1876 1895L1878 1889L1880 1895L1882 1895L1879.25 1888L1882 1881Z" fill="currentColor" fill-rule="nonzero" />
  </g>
</svg>

