<svg viewBox="0 0 32 32" xmlns="http://www.w3.org/2000/svg" fill="none">
  <g transform="translate(-72 -1944)">
<path id="Vector 1326" d="M101 1949L101 1971C101 1972.1 100.1 1973 99 1973L91 1973C89.9 1973 89 1972.1 89 1971L89 1967L91 1967L91 1971L99 1971L99 1949L91 1949L91 1953L89 1953L89 1949C89 1947.9 89.9 1947 91 1947L99 1947C100.1 1947 101 1947.9 101 1949ZM85 1971L77 1971L77 1949L85 1949L85 1953L87 1953L87 1949C87 1947.9 86.1 1947 85 1947L77 1947C75.9 1947 75 1947.9 75 1949L75 1971C75 1972.1 75.9 1973 77 1973L85 1973C86.1 1973 87 1972.1 87 1971L87 1967L85 1967L85 1971ZM85.1 1956.7L83.7 1955.3L79 1960L83.7 1964.7L85.1 1963.3L82.8 1961L93.2 1961L90.9 1963.3L92.3 1964.7L97 1960L92.3 1955.3L90.9 1956.7L93.2 1959L82.8 1959L85.1 1956.7Z" fill="currentColor" fill-rule="nonzero" />
  </g>
</svg>

