<svg viewBox="0 0 32 32" xmlns="http://www.w3.org/2000/svg" fill="none">
  <g transform="translate(-288 -1944)">
<path id="Vector 1329" d="M312 1954L316 1954C316.53 1954 317.039 1953.79 317.414 1953.41C317.789 1953.04 318 1952.53 318 1952L318 1948C318 1947.47 317.789 1946.96 317.414 1946.59C317.039 1946.21 316.53 1946 316 1946L312 1946C311.47 1946 310.961 1946.21 310.586 1946.59C310.211 1946.96 310 1947.47 310 1948L310 1949L307 1949C306.47 1949 305.961 1949.21 305.586 1949.59C305.211 1949.96 305 1950.47 305 1951L305 1959L302 1959L302 1949C302 1948.47 301.789 1947.96 301.414 1947.59C301.039 1947.21 300.53 1947 300 1947L292 1947C291.47 1947 290.961 1947.21 290.586 1947.59C290.211 1947.96 290 1948.47 290 1949L290 1971C290 1971.53 290.211 1972.04 290.586 1972.41C290.961 1972.79 291.47 1973 292 1973L300 1973C300.53 1973 301.039 1972.79 301.414 1972.41C301.789 1972.04 302 1971.53 302 1971L302 1961L305 1961L305 1969C305 1969.53 305.211 1970.04 305.586 1970.41C305.961 1970.79 306.47 1971 307 1971L310 1971L310 1972C310 1972.53 310.211 1973.04 310.586 1973.41C310.961 1973.79 311.47 1974 312 1974L316 1974C316.53 1974 317.039 1973.79 317.414 1973.41C317.789 1973.04 318 1972.53 318 1972L318 1968C318 1967.47 317.789 1966.96 317.414 1966.59C317.039 1966.21 316.53 1966 316 1966L312 1966C311.47 1966 310.961 1966.21 310.586 1966.59C310.211 1966.96 310 1967.47 310 1968L310 1969L307 1969L307 1961L310 1961L310 1962C310 1962.53 310.211 1963.04 310.586 1963.41C310.961 1963.79 311.47 1964 312 1964L316 1964C316.53 1964 317.039 1963.79 317.414 1963.41C317.789 1963.04 318 1962.53 318 1962L318 1958C318 1957.47 317.789 1956.96 317.414 1956.59C317.039 1956.21 316.53 1956 316 1956L312 1956C311.47 1956 310.961 1956.21 310.586 1956.59C310.211 1956.96 310 1957.47 310 1958L310 1959L307 1959L307 1951L310 1951L310 1952C310 1952.53 310.211 1953.04 310.586 1953.41C310.961 1953.79 311.47 1954 312 1954ZM312 1948L316 1948L316 1952L312 1952L312 1948ZM299.4 1956L292 1961.92L292 1950.08L299.4 1956ZM300 1958.08L300.001 1969.92L292.601 1964L300 1958.08ZM300 1953.92L293.85 1949L300 1949L300 1953.92ZM292 1966.08L298.15 1971L292 1971L292 1966.08ZM312 1968L316 1968L316 1972L312 1972L312 1968ZM312 1958L316 1958L316 1962L312 1962L312 1958Z" fill="currentColor" fill-rule="nonzero" />
  </g>
</svg>

