<svg viewBox="0 0 32 32" xmlns="http://www.w3.org/2000/svg" fill="none">
  <g transform="translate(-1008 -1944)">
<path id="Vector 1344" d="M1035 1947L1027 1947C1025.9 1947 1025 1947.9 1025 1949L1025 1971C1025 1972.1 1025.9 1973 1027 1973L1035 1973C1036.1 1973 1037 1972.1 1037 1971L1037 1949C1037 1947.9 1036.1 1947 1035 1947ZM1035 1953.92L1028.85 1949L1035 1949L1035 1953.92ZM1034.4 1956L1027 1961.92L1027 1950.08L1034.4 1956ZM1035 1958.08L1035 1969.92L1027.6 1964L1035 1958.08ZM1027 1966.08L1033.15 1971L1027 1971L1027 1966.08ZM1021 1947L1013 1947C1011.9 1947 1011 1947.9 1011 1949L1011 1971C1011 1972.1 1011.9 1973 1013 1973L1021 1973C1022.1 1973 1023 1972.1 1023 1971L1023 1949C1023 1947.9 1022.1 1947 1021 1947ZM1021 1953.92L1014.85 1949L1021 1949L1021 1953.92ZM1020.4 1956L1013 1961.92L1013 1950.08L1020.4 1956ZM1021 1958.08L1021 1969.92L1013.6 1964L1021 1958.08ZM1013 1966.08L1019.15 1971L1013 1971L1013 1966.08Z" fill="currentColor" fill-rule="nonzero" />
  </g>
</svg>

