<svg viewBox="0 0 32 32" xmlns="http://www.w3.org/2000/svg" fill="none">
  <g transform="translate(-216 -1944)">
<path id="Vector 1328" d="M220 1964L220 1966L224.586 1966L218 1972.59L219.414 1974L226 1967.41L226 1972L228 1972L228 1964L220 1964ZM244 1946L238 1946L238 1960L240 1960L240 1955L244 1955C244.53 1955 245.039 1954.79 245.414 1954.41C245.789 1954.04 246 1953.53 246 1953L246 1948C246 1947.47 245.789 1946.96 245.414 1946.59C245.039 1946.21 244.53 1946 244 1946ZM244 1953L240 1953L240 1948L244 1948L244 1953ZM228 1948L231 1948L231 1958L228 1958L228 1960L236 1960L236 1958L233 1958L233 1948L236 1948L236 1946L228 1946L228 1948ZM218 1948L224 1948L218 1958L218 1960L226 1960L226 1958L220 1958L226 1948L226 1946L218 1946L218 1948Z" fill="currentColor" fill-rule="nonzero" />
  </g>
</svg>

