<svg viewBox="0 0 32 32" xmlns="http://www.w3.org/2000/svg" fill="none">
  <g transform="translate(-144 -1944)">
<path id="Vector 1327" d="M172 1953L166 1953L166 1967L168 1967L168 1962L172 1962C172.53 1962 173.039 1961.79 173.414 1961.41C173.789 1961.04 174 1960.53 174 1960L174 1955C174 1954.47 173.789 1953.96 173.414 1953.59C173.039 1953.21 172.53 1953 172 1953ZM172 1960L168 1960L168 1955L172 1955L172 1960ZM156 1953L156 1955L159 1955L159 1965L156 1965L156 1967L164 1967L164 1965L161 1965L161 1955L164 1955L164 1953L156 1953ZM154 1953L146 1953L146 1955L152 1955L146 1965L146 1967L154 1967L154 1965L148 1965L154 1955L154 1953Z" fill="currentColor" fill-rule="nonzero" />
  </g>
</svg>

