<svg viewBox="0 0 32 32" xmlns="http://www.w3.org/2000/svg" fill="none">
  <g transform="translate(-576 -1944)">
<path id="Vector 1335" d="M600 1963L597 1963L597 1960L595 1960L595 1963L592 1963L592 1965L595 1965L595 1968L597 1968L597 1965L600 1965L600 1963Z" fill="currentColor" fill-rule="nonzero" />
		<path id="Vector 1336" d="M607 1973.59L602.312 1968.9C603.566 1967.29 604.157 1965.26 603.967 1963.22C603.777 1961.19 602.818 1959.3 601.287 1957.95C599.756 1956.6 597.768 1955.88 595.726 1955.95C593.685 1956.01 591.744 1956.85 590.299 1958.29C588.855 1959.74 588.015 1961.68 587.95 1963.72C587.886 1965.76 588.602 1967.75 589.952 1969.28C591.303 1970.81 593.187 1971.77 595.22 1971.96C597.254 1972.15 599.284 1971.56 600.897 1970.31L605.586 1975L607 1973.59ZM596 1970C594.813 1970 593.653 1969.65 592.667 1968.99C591.68 1968.33 590.911 1967.39 590.457 1966.3C590.003 1965.2 589.884 1963.99 590.115 1962.83C590.347 1961.67 590.918 1960.6 591.757 1959.76C592.596 1958.92 593.666 1958.35 594.83 1958.12C595.993 1957.88 597.2 1958 598.296 1958.46C599.393 1958.91 600.33 1959.68 600.989 1960.67C601.648 1961.65 602 1962.81 602 1964C601.998 1965.59 601.365 1967.12 600.241 1968.24C599.116 1969.37 597.591 1970 596 1970ZM580 1952L578 1952L578 1948C578 1947.47 578.211 1946.96 578.586 1946.59C578.961 1946.21 579.47 1946 580 1946L584 1946L584 1948L580 1948L580 1952ZM602 1952L600 1952L600 1948L596 1948L596 1946L600 1946C600.53 1946 601.039 1946.21 601.414 1946.59C601.789 1946.96 602 1947.47 602 1948L602 1952ZM588 1946L592 1946L592 1948L588 1948L588 1946ZM584 1970L580 1970C579.47 1970 578.961 1969.79 578.586 1969.41C578.211 1969.04 578 1968.53 578 1968L578 1964L580 1964L580 1968L584 1968L584 1970ZM578 1956L580 1956L580 1960L578 1960L578 1956Z" fill="currentColor" fill-rule="nonzero" />
  </g>
</svg>

