<svg viewBox="0 0 32 32" xmlns="http://www.w3.org/2000/svg" fill="none">
  <g transform="translate(-720 -1944)">
<path id="Vector 1339" d="M736 1963L744 1963L744 1965L736 1965L736 1963Z" fill="currentColor" fill-rule="nonzero" />
		<path id="Vector 1340" d="M751 1973.59L746.312 1968.9C747.566 1967.29 748.157 1965.26 747.967 1963.22C747.777 1961.19 746.818 1959.3 745.287 1957.95C743.756 1956.6 741.768 1955.88 739.726 1955.95C737.685 1956.01 735.744 1956.85 734.299 1958.29C732.855 1959.74 732.015 1961.68 731.95 1963.72C731.886 1965.76 732.602 1967.75 733.952 1969.28C735.303 1970.81 737.187 1971.77 739.22 1971.96C741.254 1972.15 743.284 1971.56 744.897 1970.31L749.586 1975L751 1973.59ZM740 1970C738.813 1970 737.653 1969.65 736.667 1968.99C735.68 1968.33 734.911 1967.39 734.457 1966.3C734.003 1965.2 733.884 1963.99 734.115 1962.83C734.347 1961.67 734.918 1960.6 735.757 1959.76C736.596 1958.92 737.666 1958.35 738.83 1958.12C739.993 1957.88 741.2 1958 742.296 1958.46C743.393 1958.91 744.33 1959.68 744.989 1960.67C745.648 1961.65 746 1962.81 746 1964C745.998 1965.59 745.365 1967.12 744.241 1968.24C743.116 1969.37 741.591 1970 740 1970ZM724 1952L722 1952L722 1948C722 1947.47 722.211 1946.96 722.586 1946.59C722.961 1946.21 723.47 1946 724 1946L728 1946L728 1948L724 1948L724 1952ZM746 1952L744 1952L744 1948L740 1948L740 1946L744 1946C744.53 1946 745.039 1946.21 745.414 1946.59C745.789 1946.96 746 1947.47 746 1948L746 1952ZM732 1946L736 1946L736 1948L732 1948L732 1946ZM728 1970L724 1970C723.47 1970 722.961 1969.79 722.586 1969.41C722.211 1969.04 722 1968.53 722 1968L722 1964L724 1964L724 1968L728 1968L728 1970ZM722 1956L724 1956L724 1960L722 1960L722 1956Z" fill="currentColor" fill-rule="nonzero" />
  </g>
</svg>

