<svg viewBox="0 0 32 32" xmlns="http://www.w3.org/2000/svg" fill="none">
  <g transform="translate(-648 -1944)">
<path id="Vector 1337" d="M656 1956L666 1956L666 1958L656 1958L656 1956Z" fill="currentColor" fill-rule="nonzero" />
		<path id="Vector 1338" d="M669.448 1964C671.098 1962.04 672.001 1959.56 672 1957C672 1954.82 671.355 1952.7 670.146 1950.89C668.938 1949.08 667.219 1947.67 665.21 1946.84C663.2 1946 660.988 1945.79 658.854 1946.21C656.72 1946.64 654.76 1947.68 653.222 1949.22C651.683 1950.76 650.636 1952.72 650.211 1954.85C649.787 1956.99 650.005 1959.2 650.837 1961.21C651.67 1963.22 653.08 1964.94 654.889 1966.15C656.698 1967.35 658.824 1968 661 1968C663.561 1968 666.041 1967.1 668 1965.45L675.586 1973L677 1971.59L669.448 1964ZM661 1966C659.22 1966 657.48 1965.47 656 1964.48C654.52 1963.49 653.366 1962.09 652.685 1960.44C652.004 1958.8 651.826 1956.99 652.173 1955.24C652.52 1953.5 653.377 1951.89 654.636 1950.64C655.895 1949.38 657.498 1948.52 659.244 1948.17C660.99 1947.83 662.8 1948 664.444 1948.69C666.089 1949.37 667.494 1950.52 668.483 1952C669.472 1953.48 670 1955.22 670 1957C669.997 1959.39 669.048 1961.67 667.361 1963.36C665.674 1965.05 663.386 1966 661 1966Z" fill="currentColor" fill-rule="nonzero" />
  </g>
</svg>

