<svg viewBox="0 0 32 32" xmlns="http://www.w3.org/2000/svg" fill="none">
  <g transform="translate(-504 -1944)">
<path id="Vector 1333" d="M522 1956L518 1956L518 1952L516 1952L516 1956L512 1956L512 1958L516 1958L516 1962L518 1962L518 1958L522 1958L522 1956Z" fill="currentColor" fill-rule="nonzero" />
		<path id="Vector 1334" d="M525.448 1964C527.097 1962.04 528.001 1959.56 528 1957C528 1954.82 527.355 1952.7 526.146 1950.89C524.938 1949.08 523.219 1947.67 521.209 1946.84C519.2 1946 516.988 1945.79 514.854 1946.21C512.72 1946.64 510.76 1947.68 509.222 1949.22C507.683 1950.76 506.636 1952.72 506.211 1954.85C505.787 1956.99 506.005 1959.2 506.837 1961.21C507.67 1963.22 509.08 1964.94 510.889 1966.15C512.698 1967.35 514.824 1968 517 1968C519.561 1968 522.041 1967.1 524 1965.45L531.586 1973L533 1971.59L525.448 1964ZM517 1966C515.22 1966 513.48 1965.47 512 1964.48C510.52 1963.49 509.366 1962.09 508.685 1960.44C508.004 1958.8 507.826 1956.99 508.173 1955.24C508.52 1953.5 509.377 1951.89 510.636 1950.64C511.895 1949.38 513.498 1948.52 515.244 1948.17C516.99 1947.83 518.8 1948 520.444 1948.69C522.089 1949.37 523.494 1950.52 524.483 1952C525.472 1953.48 526 1955.22 526 1957C525.997 1959.39 525.048 1961.67 523.361 1963.36C521.674 1965.05 519.386 1966 517 1966Z" fill="currentColor" fill-rule="nonzero" />
  </g>
</svg>

