<svg viewBox="0 0 32 32" xmlns="http://www.w3.org/2000/svg" fill="none">
  <g transform="translate(-360 -1944)">
<path id="Vector 1330" d="M391 1973.59L386.312 1968.9C387.566 1967.29 388.158 1965.26 387.967 1963.22C387.777 1961.19 386.819 1959.3 385.288 1957.95C383.756 1956.6 381.768 1955.88 379.726 1955.95C377.685 1956.01 375.744 1956.85 374.299 1958.29C372.855 1959.74 372.015 1961.68 371.95 1963.72C371.886 1965.76 372.602 1967.75 373.952 1969.28C375.303 1970.81 377.187 1971.77 379.22 1971.96C381.254 1972.15 383.284 1971.56 384.897 1970.31L389.586 1975L391 1973.59ZM380 1970C378.813 1970 377.653 1969.65 376.667 1968.99C375.68 1968.33 374.911 1967.39 374.457 1966.3C374.003 1965.2 373.884 1963.99 374.115 1962.83C374.347 1961.67 374.918 1960.6 375.757 1959.76C376.596 1958.92 377.666 1958.35 378.829 1958.12C379.993 1957.88 381.2 1958 382.296 1958.46C383.392 1958.91 384.329 1959.68 384.989 1960.67C385.648 1961.65 386 1962.81 386 1964C385.998 1965.59 385.365 1967.12 384.241 1968.24C383.116 1969.37 381.591 1970 380 1970ZM368 1970L364 1970C363.47 1970 362.961 1969.79 362.586 1969.41C362.211 1969.04 362 1968.53 362 1968L362 1964L364 1964L364 1968L368 1968L368 1970ZM362 1956L364 1956L364 1960L362 1960L362 1956ZM386 1952L384 1952L384 1948L380 1948L380 1946L384 1946C384.53 1946 385.039 1946.21 385.414 1946.59C385.789 1946.96 386 1947.47 386 1948L386 1952ZM372 1946L376 1946L376 1948L372 1948L372 1946ZM364 1952L362 1952L362 1948C362 1947.47 362.211 1946.96 362.586 1946.59C362.961 1946.21 363.47 1946 364 1946L368 1946L368 1948L364 1948L364 1952Z" fill="currentColor" fill-rule="nonzero" />
  </g>
</svg>

