<svg viewBox="0 0 32 32" xmlns="http://www.w3.org/2000/svg" fill="none">
  <g transform="translate(-864 -1944)">
<path id="Vector 1342" d="M886.448 1965C888.098 1963.04 889.001 1960.56 889 1958C889.002 1955.8 888.341 1953.64 887.104 1951.82C885.867 1950 884.109 1948.59 882.061 1947.77C880.013 1946.96 877.767 1946.78 875.616 1947.26C873.466 1947.74 871.509 1948.86 870 1950.47L870 1946L868 1946L868 1954L876 1954L876 1952L871.332 1952C872.681 1950.51 874.491 1949.51 876.473 1949.17C878.455 1948.84 880.493 1949.17 882.262 1950.13C884.03 1951.09 885.426 1952.61 886.225 1954.45C887.025 1956.3 887.182 1958.36 886.671 1960.3C886.161 1962.25 885.012 1963.96 883.41 1965.18C881.807 1966.39 879.843 1967.03 877.833 1967C875.823 1966.96 873.882 1966.26 872.323 1964.99C870.763 1963.72 869.675 1961.96 869.232 1960L867.192 1960C867.661 1962.53 868.998 1964.81 870.972 1966.45C872.945 1968.09 875.432 1969 878 1969C880.561 1969 883.041 1968.1 885 1966.45L892.586 1974L894 1972.59L886.448 1965Z" fill="currentColor" fill-rule="nonzero" />
  </g>
</svg>

