<svg viewBox="0 0 32 32" xmlns="http://www.w3.org/2000/svg" fill="none">
  <g transform="translate(-432 -1944)">
<path id="Vector 1331" d="M453.448 1964C455.098 1962.04 456.001 1959.56 456 1957C456 1954.82 455.355 1952.7 454.146 1950.89C452.938 1949.08 451.219 1947.67 449.21 1946.84C447.199 1946 444.988 1945.79 442.854 1946.21C440.72 1946.64 438.76 1947.68 437.222 1949.22C435.683 1950.76 434.636 1952.72 434.211 1954.85C433.787 1956.99 434.005 1959.2 434.837 1961.21C435.67 1963.22 437.08 1964.94 438.889 1966.15C440.698 1967.35 442.824 1968 445 1968C447.561 1968 450.041 1967.1 452 1965.45L459.586 1973L461 1971.59L453.448 1964ZM445 1966C443.22 1966 441.48 1965.47 440 1964.48C438.52 1963.49 437.366 1962.09 436.685 1960.44C436.004 1958.8 435.826 1956.99 436.173 1955.24C436.52 1953.5 437.377 1951.89 438.636 1950.64C439.895 1949.38 441.498 1948.52 443.244 1948.17C444.99 1947.83 446.8 1948 448.444 1948.69C450.089 1949.37 451.494 1950.52 452.483 1952C453.472 1953.48 454 1955.22 454 1957C453.997 1959.39 453.048 1961.67 451.361 1963.36C449.674 1965.05 447.386 1966 445 1966Z" fill="currentColor" fill-rule="nonzero" />
		<path id="Vector 1332" d="M442 1956L440 1956L440 1954C440 1953.47 440.211 1952.96 440.586 1952.59C440.961 1952.21 441.47 1952 442 1952L444 1952L444 1954L442 1954L442 1956ZM450 1956L448 1956L448 1954L446 1954L446 1952L448 1952C448.53 1952 449.039 1952.21 449.414 1952.59C449.789 1952.96 450 1953.47 450 1954L450 1956ZM444 1962L442 1962C441.47 1962 440.961 1961.79 440.586 1961.41C440.211 1961.04 440 1960.53 440 1960L440 1958L442 1958L442 1960L444 1960L444 1962ZM448 1962L446 1962L446 1960L448 1960L448 1958L450 1958L450 1960C450 1960.53 449.789 1961.04 449.414 1961.41C449.039 1961.79 448.53 1962 448 1962Z" fill="currentColor" fill-rule="nonzero" />
  </g>
</svg>

