<svg viewBox="0 0 32 32" xmlns="http://www.w3.org/2000/svg" fill="none">
  <g transform="translate(-936 -1944)">
<path id="Vector 1343" d="M956 1958L964 1958C965.103 1958 966 1957.1 966 1956L966 1948C966 1946.9 965.103 1946 964 1946L956 1946C954.897 1946 954 1946.9 954 1948L954 1949L945 1949C943.897 1949 943 1949.9 943 1951L943 1954L940 1954C938.897 1954 938 1954.9 938 1956L938 1964C938 1965.1 938.897 1966 940 1966L943 1966L943 1969C943 1970.1 943.897 1971 945 1971L954 1971L954 1972C954 1973.1 954.897 1974 956 1974L964 1974C965.103 1974 966 1973.1 966 1972L966 1964C966 1962.9 965.103 1962 964 1962L956 1962C954.897 1962 954 1962.9 954 1964L954 1969L945 1969L945 1966L948 1966C949.103 1966 950 1965.1 950 1964L950 1956C950 1954.9 949.103 1954 948 1954L945 1954L945 1951L954 1951L954 1956C954 1957.1 954.897 1958 956 1958ZM957.414 1972L964 1965.41L964 1972L957.414 1972ZM962.586 1964L956 1970.59L956 1964L962.586 1964ZM946.552 1956L940 1962.55L940 1956L946.552 1956ZM941.38 1964L948 1957.38L948.001 1964L941.38 1964ZM957.414 1956L964 1949.41L964 1956L957.414 1956ZM962.586 1948L956 1954.59L956 1948L962.586 1948Z" fill="currentColor" fill-rule="nonzero" />
  </g>
</svg>

