<svg viewBox="0 0 32 32" xmlns="http://www.w3.org/2000/svg" fill="none">
  <g transform="translate(-792 -1944)">
<path id="Vector 1341" d="M822 1966L817 1966L817 1964L822 1964L822 1961L819 1961C817.897 1961 817 1960.1 817 1959L817 1956C817 1954.9 817.897 1954 819 1954L824 1954L824 1956L819 1956L819 1959L822 1959C823.103 1959 824 1959.9 824 1961L824 1964C824 1965.1 823.103 1966 822 1966ZM813 1966L810 1966C808.897 1966 808 1965.1 808 1964L808 1956C808 1954.9 808.897 1954 810 1954L813 1954C814.103 1954 815 1954.9 815 1956L815 1964C815 1965.1 814.103 1966 813 1966ZM810 1956L810 1964L813 1964L813 1956L810 1956ZM803.946 1954L799.946 1966L802.054 1966L806.054 1954L803.946 1954ZM798 1966L792 1966L792 1963.7L795.798 1958L792 1958L792 1956L798 1956L798 1958.3L794.202 1964L798 1964L798 1966Z" fill="currentColor" fill-rule="nonzero" />
  </g>
</svg>

