<svg viewBox="0 0 24 24" xmlns="http://www.w3.org/2000/svg" fill="none">
  <g transform="translate(-216 -504)">
<path id="Icon" d="M223.757 517.503L219.533 525L238.5 525L238.5 526.5L219 526.5C218.737 526.5 218.478 526.43 218.25 526.299C218.022 526.167 217.833 525.978 217.702 525.75C217.57 525.522 217.5 525.263 217.5 525L217.5 505.5L219 505.5L219 522.887L222.438 516.776C222.583 516.512 222.805 516.299 223.073 516.162C223.342 516.026 223.645 515.974 223.944 516.013C224.242 516.051 224.523 516.178 224.748 516.378L230.324 521.246L230.376 521.168L235.626 513.333L236.873 514.167L231.645 521.97C231.5 522.235 231.279 522.45 231.01 522.586C230.741 522.723 230.437 522.776 230.138 522.737C229.838 522.699 229.558 522.571 229.332 522.37L223.757 517.503ZM231 505.5L231 507L222 507L222 505.5L231 505.5ZM231 510L231 508.5L222 508.5L222 510L231 510ZM228 513L228 511.5L222 511.5L222 513L228 513Z" fill="currentColor" fill-rule="evenodd" />
  </g>
</svg>

