<svg viewBox="0 0 24 24" xmlns="http://www.w3.org/2000/svg" fill="none">
  <g transform="translate(-648 -648)">
<path id="Icon" d="M662.25 649.5L660.75 649.5L660.75 652.5L662.25 652.5L662.25 649.5ZM653.535 653.095L655.655 655.216L656.716 654.155L654.596 652.034L653.535 653.095ZM668.405 652.034L666.284 654.155L667.345 655.216L669.466 653.095L668.405 652.034ZM657.26 655.76C658.384 654.635 659.909 654.002 661.5 654C663.091 654 664.617 654.632 665.743 655.757C666.868 656.883 667.5 658.409 667.5 660C667.5 661.591 666.868 663.117 665.743 664.243C664.617 665.368 663.091 666 661.5 666L653.25 666C653.051 666 652.86 665.921 652.72 665.78C652.579 665.64 652.5 665.449 652.5 665.25C652.5 665.051 652.579 664.86 652.72 664.72C652.86 664.579 653.051 664.5 653.25 664.5L661.5 664.5C662.39 664.5 663.26 664.236 664 663.742C664.74 663.247 665.317 662.544 665.657 661.722C665.998 660.9 666.087 659.995 665.914 659.122C665.74 658.249 665.311 657.447 664.682 656.818C664.053 656.189 663.251 655.76 662.378 655.586C661.505 655.413 660.6 655.502 659.778 655.843C658.956 656.183 658.253 656.76 657.758 657.5C657.264 658.24 657 659.11 657 660L655.5 660C655.502 658.409 656.135 656.884 657.26 655.76ZM672 659.25L669 659.25L669 660.75L672 660.75L672 659.25ZM650.25 663L659.25 663C659.449 663 659.64 662.921 659.78 662.78C659.921 662.64 660 662.449 660 662.25C660 662.051 659.921 661.86 659.78 661.72C659.64 661.579 659.449 661.5 659.25 661.5L650.25 661.5C650.051 661.5 649.86 661.579 649.72 661.72C649.579 661.86 649.5 662.051 649.5 662.25C649.5 662.449 649.579 662.64 649.72 662.78C649.86 662.921 650.051 663 650.25 663ZM669.466 666.905L667.345 664.784L666.284 665.845L668.405 667.966L669.466 666.905ZM650.25 669L662.25 669C662.449 669 662.64 668.921 662.78 668.78C662.921 668.64 663 668.449 663 668.25C663 668.051 662.921 667.86 662.78 667.72C662.64 667.579 662.449 667.5 662.25 667.5L650.25 667.5C650.051 667.5 649.86 667.579 649.72 667.72C649.579 667.86 649.5 668.051 649.5 668.25C649.5 668.449 649.579 668.64 649.72 668.78C649.86 668.921 650.051 669 650.25 669Z" fill="currentColor" fill-rule="evenodd" />
  </g>
</svg>

