<svg viewBox="0 0 24 24" xmlns="http://www.w3.org/2000/svg" fill="none">
  <g transform="translate(-288 -576)">
<path id="Icon" d="M309.075 590.175L297.825 578.925C295.95 576.975 292.875 576.975 290.925 578.85C288.975 580.725 288.975 583.875 290.925 585.75L291 585.825L293.1 588L294.15 586.95L291.975 584.775C290.7 583.5 290.7 581.325 291.975 580.05C293.25 578.775 295.425 578.7 296.7 579.975L296.775 580.05L307.95 591.225C309.3 592.5 309.3 594.675 308.025 595.95C306.75 597.3 304.575 597.3 303.3 596.025L303.225 595.95L297.675 590.4C296.925 589.65 297 588.45 297.675 587.775C298.425 587.1 299.55 587.1 300.3 587.775L303.375 590.85L304.425 589.8L301.275 586.65C299.925 585.375 297.825 585.45 296.55 586.8C295.35 588.075 295.35 590.1 296.55 591.45L302.175 597.075C304.05 599.025 307.125 599.025 309.075 597.15C311.025 595.275 311.025 592.125 309.075 590.175Z" fill="currentColor" fill-rule="nonzero" />
  </g>
</svg>

