<svg viewBox="0 0 24 24" xmlns="http://www.w3.org/2000/svg" fill="none">
  <g transform="translate(-504 -360)">
<path id="Vector 24" d="M509.931 365.346C510.409 364.689 510.96 364.134 511.585 363.679C512.21 363.225 512.909 362.873 513.681 362.622C514.454 362.371 515.226 362.245 515.999 362.245C516.772 362.245 517.544 362.371 518.317 362.622C519.089 362.873 519.788 363.225 520.413 363.679C521.038 364.134 521.589 364.689 522.067 365.346C522.544 366.003 522.902 366.699 523.141 367.434C523.38 368.169 523.499 368.942 523.499 369.755C523.499 371.243 523.649 372.663 523.948 374.014C524.193 375.122 524.476 375.952 524.795 376.504C524.863 376.622 524.914 376.745 524.948 376.872C524.98 376.995 524.996 377.122 524.996 377.253C524.996 377.387 524.98 377.517 524.947 377.641C524.913 377.766 524.863 377.887 524.797 378.002C524.73 378.118 524.651 378.222 524.56 378.314C524.469 378.405 524.365 378.485 524.25 378.552C524.134 378.619 524.014 378.669 523.889 378.703L523.889 378.703C523.765 378.737 523.635 378.754 523.502 378.755L508.499 378.755C508.353 378.754 508.212 378.733 508.077 378.694C507.963 378.66 507.853 378.612 507.748 378.55C507.632 378.483 507.529 378.404 507.438 378.312C507.347 378.22 507.269 378.117 507.202 378.001C507.136 377.885 507.086 377.765 507.053 377.64C507.02 377.515 507.003 377.386 507.004 377.253C507.004 377.119 507.021 376.99 507.054 376.865C507.088 376.741 507.138 376.62 507.204 376.505C507.524 375.953 507.806 375.122 508.051 374.013C508.35 372.662 508.499 371.243 508.499 369.755C508.499 368.942 508.618 368.169 508.857 367.434C509.096 366.699 509.454 366.004 509.931 365.346ZM511.145 366.228C510.763 366.754 510.477 367.31 510.286 367.898L510.286 367.898C510.095 368.486 509.999 369.105 509.999 369.755C509.999 371.352 509.838 372.88 509.516 374.337C509.237 375.597 508.9 376.57 508.504 377.255L523.496 377.255C523.1 376.569 522.762 375.597 522.483 374.338C522.16 372.88 521.999 371.352 521.999 369.755C521.999 369.105 521.904 368.486 521.713 367.898C521.522 367.31 521.235 366.754 520.853 366.228C520.471 365.702 520.03 365.258 519.53 364.895C519.03 364.531 518.471 364.249 517.853 364.048C517.235 363.848 516.617 363.747 515.999 363.747C515.381 363.747 514.763 363.848 514.145 364.048C513.527 364.249 512.968 364.531 512.468 364.895C511.968 365.258 511.527 365.702 511.145 366.228ZM518.999 380.255L512.999 380.255C512.579 380.255 512.249 380.585 512.249 381.005C512.249 381.425 512.579 381.755 512.999 381.755L518.999 381.755C519.419 381.755 519.749 381.425 519.749 381.005C519.749 380.585 519.419 380.255 518.999 380.255Z" fill="currentColor" fill-rule="evenodd" />
  </g>
</svg>

