<svg viewBox="0 0 24 24" xmlns="http://www.w3.org/2000/svg" fill="none">
  <g transform="translate(-720 -0)">
<path id="Icon" d="M732 1.5L741 1.5C741.398 1.5 741.779 1.65802 742.061 1.93936C742.342 2.22066 742.5 2.60216 742.5 3L742.5 22.5L721.5 22.5L721.5 12C721.5 11.6022 721.658 11.2207 721.939 10.9394C722.221 10.658 722.602 10.5 723 10.5L730.5 10.5L730.5 3C730.5 2.60216 730.658 2.22066 730.939 1.93936C731.221 1.65802 731.602 1.5 732 1.5ZM731.25 21L741 21L741 3L732 3L732 12L723 12L723 21L725.25 21L725.25 15C725.25 14.8011 725.329 14.6103 725.47 14.4697C725.61 14.3291 725.801 14.25 726 14.25L730.5 14.25C730.699 14.25 730.89 14.3291 731.03 14.4697C731.171 14.6103 731.25 14.8011 731.25 15L731.25 21ZM735 6L733.5 6L733.5 7.5L735 7.5L735 6ZM739.5 6L738 6L738 7.5L739.5 7.5L739.5 6ZM735 10.5L733.5 10.5L733.5 12L735 12L735 10.5ZM739.5 10.5L738 10.5L738 12L739.5 12L739.5 10.5ZM735 15L733.5 15L733.5 16.5L735 16.5L735 15ZM739.5 15L738 15L738 16.5L739.5 16.5L739.5 15ZM726.75 15.75L726.75 21L729.75 21L729.75 15.75L726.75 15.75Z" fill="currentColor" fill-rule="evenodd" />
  </g>
</svg>

