<svg viewBox="0 0 24 24" xmlns="http://www.w3.org/2000/svg" fill="none">
  <g transform="translate(-0 -72)">
<path id="Icon" d="M19.5 75C20.3251 75 21 75.675 21 76.5L21 81L19.5 81L19.5 76.5L16.5 76.5L16.5 78L15 78L15 76.5L9 76.5L9 78L7.5 78L7.5 76.5L4.5 76.5L4.5 91.5L9 91.5L9 93L4.5 93C3.67493 93 3 92.325 3 91.5L3 76.5C3 75.675 3.67493 75 4.5 75L7.5 75L7.5 73.5L9 73.5L9 75L15 75L15 73.5L16.5 73.5L16.5 75L19.5 75ZM16.5 94.5C13.2001 94.5 10.5 91.8 10.5 88.5C10.5 85.2 13.2001 82.5 16.5 82.5C19.7999 82.5 22.5 85.2 22.5 88.5C22.5 91.8 19.7999 94.5 16.5 94.5ZM16.5 84C14.0251 84 12 86.025 12 88.5C12 90.975 14.0251 93 16.5 93C18.9749 93 21 90.975 21 88.5C21 86.025 18.9749 84 16.5 84ZM19.5 87.75L17.25 87.75L17.25 85.5L15.75 85.5L15.75 87.75L13.5 87.75L13.5 89.25L15.75 89.25L15.75 91.5L17.25 91.5L17.25 89.25L19.5 89.25L19.5 87.75Z" fill="currentColor" fill-rule="evenodd" />
  </g>
</svg>

