<svg viewBox="0 0 24 24" xmlns="http://www.w3.org/2000/svg" fill="none">
  <g transform="translate(-792 -0)">
<path id="Icon" d="M811.5 3L808.5 3L808.5 1.5L807 1.5L807 3L801 3L801 1.5L799.5 1.5L799.5 3L796.5 3C795.675 3 795 3.675 795 4.5L795 19.5C795 20.325 795.675 21 796.5 21L811.5 21C812.325 21 813 20.325 813 19.5L813 4.5C813 3.675 812.325 3 811.5 3ZM811.5 19.5L796.5 19.5L796.5 9L811.5 9L811.5 19.5ZM811.5 7.5L796.5 7.5L796.5 4.5L799.5 4.5L799.5 6L801 6L801 4.5L807 4.5L807 6L808.5 6L808.5 4.5L811.5 4.5L811.5 7.5Z" fill="currentColor" fill-rule="nonzero" />
  </g>
</svg>

