<svg viewBox="0 0 24 24" xmlns="http://www.w3.org/2000/svg" fill="none">
  <g transform="translate(-144 -504)">
<path id="Icon" d="M166.5 516.75C166.498 514.776 165.977 512.837 164.989 511.128C164.001 509.418 162.582 507.999 160.872 507.011C159.163 506.023 157.224 505.502 155.25 505.5L154.5 505.5L154.5 510.044C153.492 510.158 152.522 510.498 151.663 511.038C150.804 511.578 150.078 512.304 149.538 513.163C148.998 514.022 148.658 514.992 148.544 516L147 516L147 516.75C147.002 518.113 147.341 519.454 147.987 520.653C148.633 521.853 149.565 522.874 150.702 523.626C151.838 524.378 153.143 524.837 154.5 524.962L154.5 526.5L155.25 526.5C156.875 526.497 158.474 526.089 159.902 525.311C161.329 524.534 162.54 523.412 163.423 522.048C164.307 520.684 164.836 519.12 164.962 517.5L166.5 517.5L166.5 516.75ZM156 507.029C157.537 507.149 159.023 507.632 160.338 508.438C161.652 509.243 162.757 510.348 163.563 511.662C164.368 512.977 164.851 514.463 164.971 516L156 516L156 507.029ZM154.5 511.56L154.5 516L150.06 516C150.168 515.257 150.435 514.546 150.841 513.915C151.247 513.284 151.784 512.747 152.415 512.341C153.046 511.935 153.757 511.668 154.5 511.56ZM148.541 517.5L154.5 517.5L154.5 523.454C153.492 523.34 152.522 523.001 151.663 522.461C150.803 521.922 150.077 521.195 149.536 520.337C148.996 519.478 148.656 518.508 148.541 517.5ZM156 524.966L156 517.5L163.466 517.5C163.348 518.773 162.937 520.001 162.264 521.088C161.591 522.175 160.675 523.091 159.588 523.764C158.501 524.437 157.273 524.848 156 524.966Z" fill="currentColor" fill-rule="nonzero" />
  </g>
</svg>

