<svg viewBox="0 0 24 24" xmlns="http://www.w3.org/2000/svg" fill="none">
  <g transform="translate(-432 -432)">
<path id="Icon" d="M453 449.25L453 451.94L449.25 448.19L449.25 443.25C449.25 443.111 449.211 442.974 449.138 442.856C449.065 442.737 448.96 442.642 448.835 442.579L444.75 440.536L444.75 436.371L446.69 438.31L447.75 437.25L444 433.5L440.25 437.25L441.31 438.31L443.25 436.371L443.25 440.536L439.165 442.579C439.04 442.641 438.935 442.737 438.862 442.855C438.789 442.974 438.75 443.111 438.75 443.25L438.75 448.19L435 451.94L435 449.25L433.5 449.25L433.5 454.5L438.75 454.5L438.75 453L436.06 453L439.648 449.413L443.665 451.421C443.769 451.473 443.884 451.5 444 451.5C444.116 451.5 444.231 451.473 444.335 451.421L448.352 449.413L451.94 453L449.25 453L449.25 454.5L454.5 454.5L454.5 449.25L453 449.25ZM443.25 449.536L440.25 448.036L440.25 444.464L443.25 445.964L443.25 449.536ZM444 444.661L441.177 443.25L444 441.839L446.823 443.25L444 444.661ZM447.75 448.036L444.75 449.536L444.75 445.964L447.75 444.464L447.75 448.036Z" fill="currentColor" fill-rule="nonzero" />
  </g>
</svg>

