<svg viewBox="0 0 24 24" xmlns="http://www.w3.org/2000/svg" fill="none">
  <g transform="translate(-72 -504)">
<path id="Icon" d="M75 505.5L75 525L94.5 525L94.5 526.5L75 526.5C74.7367 526.5 74.478 526.431 74.25 526.299C74.022 526.167 73.8327 525.978 73.701 525.75C73.5694 525.522 73.5 525.263 73.5 525L73.5 505.5L75 505.5ZM93 523.5L93 510L91.5 510L91.5 523.5L93 523.5ZM83.25 513L83.25 523.5L84.75 523.5L84.75 513L83.25 513ZM90.75 523.5L90.75 514.5L89.25 514.5L89.25 523.5L90.75 523.5ZM81 523.5L81 516L79.5 516L79.5 523.5L81 523.5ZM87 517.5L85.5 517.5L85.5 523.5L87 523.5L87 517.5ZM78.75 523.5L78.75 520.5L77.25 520.5L77.25 523.5L78.75 523.5Z" fill="currentColor" fill-rule="evenodd" />
  </g>
</svg>

