<svg viewBox="0 0 24 24" xmlns="http://www.w3.org/2000/svg" fill="none">
  <g transform="translate(-648 -144)">
<path id="Icon" d="M654 166.5L649.5 166.5L649.5 162L654 162L654 166.5ZM651 165L652.5 165L652.5 163.5L651 163.5L651 165ZM662.25 166.5L657.75 166.5L657.75 162L662.25 162L662.25 166.5ZM659.25 165L660.75 165L660.75 163.5L659.25 163.5L659.25 165ZM670.5 166.5L666 166.5L666 162L670.5 162L670.5 166.5ZM667.5 165L669 165L669 163.5L667.5 163.5L667.5 165ZM660 151.5C659.407 151.5 658.827 151.324 658.333 150.994C657.84 150.665 657.455 150.196 657.228 149.648C657.001 149.1 656.942 148.497 657.058 147.915C657.173 147.333 657.459 146.798 657.879 146.379C658.298 145.959 658.833 145.673 659.415 145.558C659.997 145.442 660.6 145.501 661.148 145.728C661.696 145.955 662.165 146.34 662.494 146.833C662.824 147.327 663 147.907 663 148.5C662.999 149.295 662.683 150.058 662.12 150.62C661.558 151.183 660.795 151.499 660 151.5ZM660 147C659.703 147 659.413 147.088 659.167 147.253C658.92 147.418 658.728 147.652 658.614 147.926C658.501 148.2 658.471 148.502 658.529 148.793C658.587 149.084 658.73 149.351 658.939 149.561C659.149 149.77 659.416 149.913 659.707 149.971C659.998 150.029 660.3 149.999 660.574 149.886C660.848 149.772 661.082 149.58 661.247 149.333C661.412 149.087 661.5 148.797 661.5 148.5C661.5 148.102 661.342 147.721 661.061 147.439C660.779 147.158 660.398 147 660 147ZM667.5 156L663.75 156C662.955 155.999 662.192 155.683 661.63 155.12C661.067 154.558 660.751 153.795 660.75 153L659.25 153C659.249 153.795 658.933 154.558 658.37 155.12C657.808 155.683 657.045 155.999 656.25 156L652.5 156C652.102 156 651.721 156.158 651.439 156.439C651.158 156.721 651 157.102 651 157.5L651 160.5L652.5 160.5L652.5 157.5L656.25 157.5C657.359 157.5 658.427 157.088 659.25 156.345L659.25 160.5L660.75 160.5L660.75 156.345C661.573 157.088 662.641 157.5 663.75 157.5L667.5 157.5L667.5 160.5L669 160.5L669 157.5C669 157.102 668.842 156.721 668.561 156.439C668.279 156.158 667.898 156 667.5 156Z" fill="currentColor" fill-rule="nonzero" />
  </g>
</svg>

