<svg viewBox="0 0 24 24" xmlns="http://www.w3.org/2000/svg" fill="none">
  <g transform="translate(-504 -576)">
<path id="Icon" d="M505.5 589.5L507 589.5L507 579L517.5 579L517.5 577.5L507 577.5C506.602 577.5 506.221 577.658 505.939 577.939C505.658 578.221 505.5 578.602 505.5 579L505.5 589.5ZM511.5 582L525 582C525.398 582 525.779 582.158 526.061 582.439C526.342 582.721 526.5 583.102 526.5 583.5L526.5 597C526.5 597.398 526.342 597.779 526.061 598.061C525.779 598.342 525.398 598.5 525 598.5L511.5 598.5C511.102 598.5 510.721 598.342 510.439 598.061C510.158 597.779 510 597.398 510 597L510 583.5C510 583.102 510.158 582.721 510.439 582.439C510.721 582.158 511.102 582 511.5 582ZM525 597L525 583.5L511.5 583.5L511.5 597L525 597Z" fill="currentColor" fill-rule="evenodd" />
  </g>
</svg>

