<svg viewBox="0 0 24 24" xmlns="http://www.w3.org/2000/svg" fill="none">
  <g transform="translate(-72 -720)">
<path id="Icon" d="M93 721.5L79.5 721.5C79.1022 721.5 78.7206 721.658 78.4393 721.939C78.158 722.221 78 722.602 78 723L78 725.25L75 725.25C74.6022 725.25 74.2206 725.408 73.9393 725.689C73.658 725.971 73.5 726.352 73.5 726.75L73.5 741C73.5 741.398 73.658 741.779 73.9393 742.061C74.2206 742.342 74.6022 742.5 75 742.5L93 742.5C93.3978 742.5 93.7793 742.342 94.0607 742.061C94.342 741.779 94.5 741.398 94.5 741L94.5 723C94.5 722.602 94.342 722.221 94.0607 721.939C93.7793 721.658 93.3978 721.5 93 721.5ZM79.5 723L93 723L93 725.25L79.5 725.25L79.5 723ZM93 730.5L87 730.5L87 726.75L93 726.75L93 730.5ZM79.5 735.75L79.5 732L85.5 732L85.5 735.75L79.5 735.75ZM85.5 737.25L85.5 741L79.5 741L79.5 737.25L85.5 737.25ZM78 735.75L75 735.75L75 732L78 732L78 735.75ZM85.5 726.75L85.5 730.5L79.5 730.5L79.5 726.75L85.5 726.75ZM87 732L93 732L93 735.75L87 735.75L87 732ZM78 726.75L78 730.5L75 730.5L75 726.75L78 726.75ZM75 737.25L78 737.25L78 741L75 741L75 737.25ZM87 741L87 737.25L93 737.25L93 741L87 741Z" fill="currentColor" fill-rule="nonzero" />
  </g>
</svg>

