<svg viewBox="0 0 24 24" xmlns="http://www.w3.org/2000/svg" fill="none">
  <g transform="translate(-360 -432)">
<path id="Icon" d="M372 434.055C372.991 434.055 373.793 434.858 373.793 435.848C373.793 436.838 372.991 437.641 372 437.641C371.009 437.641 370.207 436.838 370.207 435.848C370.207 434.858 371.009 434.055 372 434.055ZM372 442.207C372.991 442.207 373.793 443.01 373.793 444C373.793 444.99 372.991 445.793 372 445.793C371.009 445.793 370.207 444.99 370.207 444C370.207 443.01 371.009 442.207 372 442.207ZM373.793 452.152C373.793 451.162 372.991 450.359 372 450.359C371.009 450.359 370.207 451.162 370.207 452.152C370.207 453.143 371.009 453.945 372 453.945C372.991 453.945 373.793 453.143 373.793 452.152Z" fill="currentColor" fill-rule="evenodd" />
  </g>
</svg>

