<svg viewBox="0 0 24 24" xmlns="http://www.w3.org/2000/svg" fill="none">
  <g transform="translate(-288 -432)">
<path id="Icon" d="M300 434.625C300.621 434.625 301.125 435.129 301.125 435.75C301.125 436.371 300.621 436.875 300 436.875C299.379 436.875 298.875 436.371 298.875 435.75C298.875 435.129 299.379 434.625 300 434.625ZM300 442.875C300.621 442.875 301.125 443.379 301.125 444C301.125 444.621 300.621 445.125 300 445.125C299.379 445.125 298.875 444.621 298.875 444C298.875 443.379 299.379 442.875 300 442.875ZM301.125 452.25C301.125 451.629 300.621 451.125 300 451.125C299.379 451.125 298.875 451.629 298.875 452.25C298.875 452.871 299.379 453.375 300 453.375C300.621 453.375 301.125 452.871 301.125 452.25Z" fill="currentColor" fill-rule="evenodd" />
  </g>
</svg>

