<svg viewBox="0 0 24 24" xmlns="http://www.w3.org/2000/svg" fill="none">
  <g transform="translate(-72 -144)">
<path id="Icon" d="M94.5 165.45L74.55 145.5L73.5 146.55L81.075 154.125L75 160.2L75 165L79.8 165L85.875 158.925L93.45 166.5L94.5 165.45ZM79.2 163.5L76.5 163.5L76.5 160.8L82.125 155.175L84.825 157.875L79.2 163.5ZM94.05 148.65L91.35 145.95C90.75 145.35 89.85 145.35 89.25 145.95L83.25 151.95L84.3 153L87 150.3L89.7 153L87 155.7L88.05 156.75L94.05 150.75C94.65 150.15 94.65 149.25 94.05 148.65ZM90.75 151.95L88.05 149.25L90.3 147L93 149.7L90.75 151.95Z" fill="currentColor" fill-rule="nonzero" />
  </g>
</svg>

