<svg viewBox="0 0 24 24" xmlns="http://www.w3.org/2000/svg" fill="none">
  <g transform="translate(-0 -0)">
<path id="Icon" d="M1.99255 1.10315C1.57837 1.10315 1.24255 1.43891 1.24255 1.85315L1.24255 20.2085C1.24255 20.6227 1.57837 20.9585 1.99255 20.9585L8.46607 20.9585L8.46607 24.0017L9.96607 24.0017L9.96607 20.9775L10.9812 20.9775L10.9812 24.0017L13.0188 24.0017L13.0188 20.9775L14.0339 20.9775L14.0339 24.0017L15.5339 24.0017L15.5339 20.9585L22.0075 20.9585C22.4216 20.9585 22.7575 20.6227 22.7575 20.2085L22.7575 1.85315C22.7575 1.43891 22.4216 1.10315 22.0075 1.10315L1.99255 1.10315ZM2.74255 2.60315L21.2575 2.60315L21.2575 19.4585L2.74255 19.4585L2.74255 2.60315ZM13.4721 10.8015L14.709 6.61675C14.7469 6.48859 14.6509 6.36005 14.5172 6.36005L10.7821 6.36005C10.6945 6.36005 10.6171 6.41711 10.5911 6.50081L8.93435 11.8429C8.89445 11.9716 8.99063 12.1021 9.12539 12.1021L12.1347 12.1021C12.2658 12.1021 12.3615 12.2261 12.3281 12.3529L11.205 16.627C11.1511 16.8324 11.4121 16.9692 11.5503 16.808L16.1982 11.3884C16.3094 11.2586 16.2172 11.0582 16.0463 11.0582L13.6639 11.0582C13.5302 11.0582 13.4342 10.9296 13.4721 10.8015Z" fill="currentColor" fill-rule="evenodd" />
  </g>
</svg>

