<svg viewBox="0 0 24 24" xmlns="http://www.w3.org/2000/svg" fill="none">
  <g transform="translate(-504 -648)">
<path id="Icon" d="M508.5 669L516 669L516 670.5L508.5 670.5C507.675 670.5 507 669.825 507 669L507 666L505.5 666L505.5 664.5L507 664.5L507 660.75L505.5 660.75L505.5 659.25L507 659.25L507 655.5L505.5 655.5L505.5 654L507 654L507 651C507 650.175 507.675 649.5 508.5 649.5L522 649.5C522.825 649.5 523.5 650.175 523.5 651L523.5 663L522 663L522 651L508.5 651L508.5 654L510 654L510 655.5L508.5 655.5L508.5 659.25L510 659.25L510 660.75L508.5 660.75L508.5 664.5L510 664.5L510 666L508.5 666L508.5 669ZM519 654L513 654L513 655.5L519 655.5L519 654ZM519 657.75L513 657.75L513 659.25L519 659.25L519 657.75ZM519 661.5L513 661.5L513 663L519 663L519 661.5ZM519.3 666.45L521.25 668.4L525.45 664.2L526.5 665.25L521.25 670.5L518.25 667.5L519.3 666.45Z" fill="currentColor" fill-rule="evenodd" />
  </g>
</svg>

