<svg viewBox="0 0 24 24" xmlns="http://www.w3.org/2000/svg" fill="none">
  <g transform="translate(-792 -576)">
<path id="Icon" d="M807 580.811L807 583.5L809.689 583.5L807 580.811ZM805.5 579.75L805.5 584.25C805.5 584.457 805.573 584.634 805.72 584.78C805.866 584.927 806.043 585 806.25 585L810.75 585L810.75 587.25L812.25 587.25L812.25 584.25L812.25 584.234C812.245 584.006 812.143 583.806 811.983 583.672L806.828 578.517C806.761 578.437 806.679 578.372 806.584 578.326C806.484 578.276 806.373 578.25 806.252 578.25L806.25 578.25L806.247 578.25L797.25 578.25C797.116 578.25 796.987 578.267 796.862 578.3C796.737 578.334 796.616 578.384 796.5 578.451C796.384 578.518 796.28 578.597 796.189 578.689C796.097 578.78 796.018 578.884 795.951 579C795.884 579.116 795.834 579.237 795.8 579.362C795.767 579.487 795.75 579.616 795.75 579.75L795.75 587.25L797.25 587.25L797.25 579.75L805.5 579.75ZM801.75 589.5L801.75 596.25L804 596.25C804.366 596.25 804.714 596.196 805.044 596.089C805.375 595.981 805.688 595.82 805.984 595.605C806.28 595.391 806.53 595.143 806.734 594.861C806.938 594.58 807.097 594.266 807.21 593.918C807.323 593.57 807.379 593.223 807.379 592.875C807.379 592.527 807.323 592.18 807.21 591.832C807.097 591.484 806.938 591.17 806.734 590.889C806.53 590.607 806.28 590.359 805.984 590.145C805.688 589.93 805.375 589.769 805.044 589.661C804.714 589.554 804.366 589.5 804 589.5L801.75 589.5ZM795.75 596.25L795.75 589.5L798 589.5C798.284 589.5 798.555 589.542 798.812 589.625C799.069 589.709 799.313 589.834 799.543 590.001C799.773 590.168 799.967 590.361 800.126 590.58C800.285 590.799 800.409 591.043 800.497 591.314C800.584 591.584 800.628 591.855 800.628 592.125C800.628 592.395 800.584 592.666 800.497 592.936C800.409 593.207 800.285 593.451 800.126 593.67C799.967 593.889 799.773 594.082 799.543 594.249C799.313 594.416 799.069 594.541 798.812 594.625C798.555 594.708 798.284 594.75 798 594.75L797.25 594.75L797.25 596.25L795.75 596.25ZM810 591L813 591L813 589.5L808.5 589.5L808.5 596.25L810 596.25L810 594L812.25 594L812.25 592.5L810 592.5L810 591ZM803.25 594.75L804 594.75C804.203 594.75 804.396 594.72 804.58 594.66C804.764 594.601 804.938 594.511 805.102 594.392C805.266 594.273 805.405 594.135 805.519 593.978C805.632 593.822 805.72 593.648 805.783 593.454C805.846 593.261 805.877 593.068 805.877 592.875C805.877 592.682 805.846 592.489 805.783 592.296C805.72 592.102 805.632 591.928 805.519 591.772C805.405 591.615 805.266 591.477 805.102 591.358C804.938 591.239 804.764 591.149 804.58 591.09C804.396 591.03 804.203 591 804 591L803.25 591L803.25 594.75ZM797.25 593.25L798 593.25C798.122 593.25 798.238 593.232 798.348 593.196C798.458 593.16 798.563 593.107 798.661 593.035C798.76 592.964 798.843 592.881 798.911 592.787C798.979 592.693 799.032 592.589 799.07 592.473C799.108 592.357 799.126 592.241 799.126 592.125C799.126 592.009 799.108 591.893 799.07 591.777C799.032 591.661 798.979 591.557 798.911 591.463C798.843 591.369 798.76 591.286 798.661 591.215C798.563 591.143 798.458 591.09 798.348 591.054C798.238 591.018 798.122 591 798 591L797.25 591L797.25 593.25Z" fill="currentColor" fill-rule="evenodd" />
  </g>
</svg>

