<svg viewBox="0 0 24 24" xmlns="http://www.w3.org/2000/svg" fill="none">
  <g transform="translate(-288 -144)">
<path id="Icon" d="M291 148.5L307.5 148.5L307.5 147L291 147C290.602 147 290.221 147.158 289.939 147.439C289.658 147.721 289.5 148.102 289.5 148.5L289.5 150.878C289.5 151.276 289.658 151.658 289.939 151.939L295.5 157.5L295.5 163.5C295.5 163.898 295.658 164.279 295.939 164.561C296.221 164.842 296.602 165 297 165L300 165C300.398 165 300.779 164.842 301.061 164.561C301.342 164.279 301.5 163.898 301.5 163.5L301.5 162L300 162L300 163.5L297 163.5L297 156.878L291 150.878L291 148.5ZM302.052 151.511C302.909 151.011 303.883 150.749 304.875 150.75C306.367 150.75 307.798 151.343 308.852 152.398C309.907 153.452 310.5 154.883 310.5 156.375C310.5 157.867 309.907 159.298 308.852 160.352C307.798 161.407 306.367 162 304.875 162L304.5 162L304.5 160.5L304.875 160.5C305.607 160.501 306.326 160.307 306.959 159.937C307.591 159.568 308.113 159.036 308.472 158.398C308.83 157.76 309.013 157.037 309 156.305C308.986 155.573 308.778 154.858 308.397 154.233C308.015 153.608 307.474 153.096 306.829 152.749C306.184 152.403 305.458 152.235 304.726 152.262C303.995 152.289 303.283 152.511 302.666 152.904C302.048 153.298 301.547 153.848 301.213 154.5L304.5 154.5L304.5 156L298.5 156L298.5 150L300 150L300 153.594C300.487 152.73 301.195 152.011 302.052 151.511Z" fill="currentColor" fill-rule="evenodd" />
  </g>
</svg>

