<svg viewBox="0 0 24 24" xmlns="http://www.w3.org/2000/svg" fill="none">
  <g transform="translate(-144 -144)">
<path id="Icon" d="M147 148.5L163.5 148.5L163.5 147L147 147C146.602 147 146.221 147.158 145.939 147.439C145.658 147.721 145.5 148.102 145.5 148.5L145.5 150.877C145.5 151.075 145.539 151.271 145.615 151.454C145.691 151.637 145.802 151.803 145.942 151.943L151.5 157.5L151.5 163.5C151.5 163.898 151.658 164.279 151.939 164.561C152.221 164.842 152.602 165 153 165L156 165C156.398 165 156.779 164.842 157.061 164.561C157.342 164.279 157.5 163.898 157.5 163.5L157.5 162L156 162L156 163.5L153 163.5L153 156.877L152.558 156.443L147 150.877L147 148.5ZM164.032 150.217L166.282 152.467C166.353 152.537 166.408 152.62 166.447 152.712C166.485 152.803 166.504 152.901 166.504 153C166.504 153.099 166.485 153.197 166.447 153.288C166.408 153.38 166.353 153.463 166.282 153.533L159.308 160.5L156 160.5L156 157.193L162.968 150.217C163.037 150.147 163.12 150.091 163.211 150.053C163.303 150.015 163.401 149.996 163.5 149.996C163.599 149.996 163.697 150.015 163.789 150.053C163.88 150.091 163.963 150.147 164.032 150.217ZM162.308 153L163.5 154.193L164.692 153L163.5 151.807L162.308 153ZM157.5 159L158.692 159L162.442 155.25L161.25 154.057L157.5 157.807L157.5 159Z" fill="currentColor" fill-rule="evenodd" />
  </g>
</svg>

