<svg viewBox="0 0 24 24" xmlns="http://www.w3.org/2000/svg" fill="none">
  <g transform="translate(-0 -720)">
<path id="Icon" d="M13.5 741L10.5 741C10.1022 741 9.72068 740.842 9.43935 740.561C9.15802 740.279 9 739.898 9 739.5L9 733.807L3.4425 728.25C3.16081 727.97 3.00167 727.59 3 727.193L3 724.5C3 724.102 3.15803 723.721 3.43934 723.439C3.72064 723.158 4.10218 723 4.5 723L19.5 723C19.8978 723 20.2793 723.158 20.5606 723.439C20.842 723.721 21 724.102 21 724.5L21 727.193C20.9984 727.59 20.8392 727.97 20.5575 728.25L15 733.807L15 739.5C15 739.898 14.842 740.279 14.5606 740.561C14.2793 740.842 13.8978 741 13.5 741ZM4.5 724.5L4.5 727.193L10.5 733.193L10.5 739.5L13.5 739.5L13.5 733.193L19.5 727.193L19.5 724.5L4.5 724.5Z" fill="currentColor" fill-rule="nonzero" />
  </g>
</svg>

