<svg viewBox="0 0 24 24" xmlns="http://www.w3.org/2000/svg" fill="none">
  <g transform="translate(-216 -144)">
<path id="Icon" d="M217.939 147.439C218.221 147.158 218.602 147 219 147L234 147C234.398 147 234.779 147.158 235.061 147.439C235.342 147.721 235.5 148.102 235.5 148.5L235.5 150L234 150L234 148.5L219 148.5L219 150.878L224.561 156.439L225 156.877L225 163.5L228 163.5L228 162L229.5 162L229.5 163.5C229.5 163.898 229.342 164.279 229.061 164.561C228.779 164.842 228.398 165 228 165L225 165C224.602 165 224.221 164.842 223.939 164.561C223.658 164.279 223.5 163.898 223.5 163.5L223.5 157.5L217.939 151.939C217.8 151.799 217.69 151.634 217.614 151.452C217.539 151.27 217.5 151.075 217.5 150.877L217.5 148.5C217.5 148.102 217.658 147.721 217.939 147.439ZM237.439 151.5L238.5 152.561L235.061 156L238.5 159.44L237.44 160.5L234 157.061L230.561 160.5L229.5 159.439L232.939 156L229.5 152.561L230.561 151.5L234 154.939L237.439 151.5Z" fill="currentColor" fill-rule="evenodd" />
  </g>
</svg>

