<svg viewBox="0 0 24 24" xmlns="http://www.w3.org/2000/svg" fill="none">
  <g transform="translate(-432 -144)">
<path id="Icon" d="M444 150L453 150C453.825 150 454.5 150.675 454.5 151.5L454.5 157.5L453 157.5L453 151.5L443.4 151.5L442.95 151.05L440.4 148.5L435 148.5L435 163.5L445.5 163.5L445.5 165L435 165C434.175 165 433.5 164.325 433.5 163.5L433.5 148.5C433.5 147.675 434.175 147 435 147L440.4 147C440.775 147 441.15 147.15 441.45 147.45L444 150ZM450 159L451.5 159L451.5 162L454.5 162L454.5 163.5L451.5 163.5L451.5 166.5L450 166.5L450 163.5L447 163.5L447 162L450 162L450 159Z" fill="currentColor" fill-rule="evenodd" />
  </g>
</svg>

