<svg viewBox="0 0 24 24" xmlns="http://www.w3.org/2000/svg" fill="none">
  <g transform="translate(-360 -144)">
<path id="Icon" d="M368.378 148.5L370.943 151.057L371.378 151.5L381 151.5L381 163.5L363 163.5L363 148.5L368.378 148.5ZM368.378 147L363 147C362.602 147 362.221 147.158 361.939 147.439C361.658 147.721 361.5 148.102 361.5 148.5L361.5 163.5C361.5 163.898 361.658 164.279 361.939 164.561C362.221 164.842 362.602 165 363 165L381 165C381.398 165 381.779 164.842 382.061 164.561C382.342 164.279 382.5 163.898 382.5 163.5L382.5 151.5C382.5 151.102 382.342 150.721 382.061 150.439C381.779 150.158 381.398 150 381 150L372 150L369.443 147.443C369.303 147.302 369.137 147.191 368.954 147.115C368.771 147.039 368.575 147 368.378 147Z" fill="currentColor" fill-rule="nonzero" />
  </g>
</svg>

