<svg viewBox="0 0 24 24" xmlns="http://www.w3.org/2000/svg" fill="none">
  <g transform="translate(-0 -576)">
<path id="Icon" d="M2.70532 597.488C2.73865 597.585 2.78223 597.679 2.83606 597.769C2.90442 597.884 2.98474 597.986 3.07715 598.076C3.16956 598.167 3.27393 598.244 3.39038 598.31C3.50684 598.375 3.62756 598.424 3.75244 598.456C3.87744 598.488 4.00671 598.503 4.14038 598.502C4.2738 598.5 4.40259 598.482 4.52686 598.448C4.65125 598.413 4.771 598.362 4.88611 598.294L16.4211 591.692C16.4697 591.671 16.516 591.644 16.5601 591.612L20.6047 589.297C20.7205 589.234 20.8243 589.159 20.9165 589.071C21.0118 588.981 21.0945 588.877 21.1648 588.76C21.235 588.643 21.2876 588.521 21.3226 588.395C21.3578 588.268 21.3754 588.136 21.3754 588C21.3754 587.864 21.3578 587.732 21.3226 587.605C21.2876 587.479 21.2349 587.357 21.1648 587.24C21.0946 587.123 21.0118 587.019 20.9165 586.929C20.8243 586.841 20.7205 586.766 20.6049 586.703L16.5258 584.368C16.5026 584.353 16.4788 584.34 16.4546 584.328L4.87793 577.701C4.78564 577.647 4.6897 577.603 4.59021 577.571C4.44763 577.524 4.29761 577.5 4.14038 577.498C4.00671 577.497 3.87744 577.512 3.75244 577.544C3.62744 577.576 3.50684 577.625 3.39038 577.69C3.27393 577.756 3.16956 577.833 3.07715 577.924C2.98474 578.014 2.90442 578.116 2.83606 578.231C2.7677 578.345 2.71582 578.465 2.68066 578.589C2.64551 578.713 2.62683 578.842 2.62488 578.975L2.62476 597.013C2.62732 597.18 2.65417 597.338 2.70532 597.488ZM14.8987 585.165L6.60144 580.416L13.1248 586.939L14.8987 585.165ZM4.12463 580.061L4.12476 595.939L12.0641 588L4.12463 580.061ZM6.60144 595.584L14.8987 590.835L13.1248 589.061L6.60144 595.584ZM16.2478 590.062L19.851 588L16.2478 585.938L14.1853 588L16.2478 590.062Z" fill="currentColor" fill-rule="evenodd" />
  </g>
</svg>

