<svg viewBox="0 0 24 24" xmlns="http://www.w3.org/2000/svg" fill="none">
  <g transform="translate(-288 -504)">
<path id="Icon" d="M308.25 520.606L308.25 517.5C308.25 517.237 308.181 516.978 308.049 516.75C307.917 516.522 307.728 516.333 307.5 516.201C307.272 516.069 307.013 516 306.75 516L300.75 516L300.75 513L302.25 513C302.513 513 302.772 512.93 303 512.799C303.228 512.667 303.417 512.478 303.549 512.25C303.68 512.022 303.75 511.763 303.75 511.5L303.75 507C303.75 506.737 303.68 506.478 303.549 506.25C303.417 506.022 303.228 505.833 303 505.701C302.772 505.57 302.513 505.5 302.25 505.5L297.75 505.5C297.487 505.5 297.228 505.57 297 505.701C296.772 505.833 296.583 506.022 296.451 506.25C296.32 506.478 296.25 506.737 296.25 507L296.25 511.5C296.25 511.763 296.32 512.022 296.451 512.25C296.583 512.478 296.772 512.667 297 512.799C297.228 512.93 297.487 513 297.75 513L299.25 513L299.25 516L293.25 516C292.987 516 292.728 516.069 292.5 516.201C292.272 516.333 292.083 516.522 291.951 516.75C291.819 516.978 291.75 517.237 291.75 517.5L291.75 520.607C291.187 520.752 290.678 521.058 290.285 521.488C289.893 521.917 289.634 522.452 289.54 523.026C289.445 523.6 289.52 524.189 289.755 524.721C289.99 525.254 290.374 525.707 290.862 526.024C291.349 526.342 291.918 526.511 292.5 526.511C293.082 526.511 293.651 526.342 294.139 526.024C294.626 525.707 295.01 525.254 295.245 524.721C295.48 524.189 295.555 523.6 295.46 523.026C295.366 522.452 295.107 521.917 294.715 521.488C294.322 521.058 293.813 520.752 293.25 520.607L293.25 517.5L299.25 517.5L299.25 520.607C298.687 520.752 298.178 521.058 297.785 521.488C297.393 521.917 297.134 522.452 297.04 523.026C296.945 523.6 297.02 524.189 297.255 524.721C297.49 525.254 297.874 525.706 298.362 526.024C298.849 526.342 299.418 526.511 300 526.511C300.582 526.511 301.151 526.342 301.639 526.024C302.126 525.706 302.51 525.254 302.745 524.721C302.98 524.189 303.055 523.6 302.96 523.026C302.866 522.452 302.607 521.917 302.215 521.488C301.822 521.058 301.313 520.752 300.75 520.607L300.75 517.5L306.75 517.5L306.75 520.606C306.187 520.752 305.678 521.058 305.285 521.487C304.893 521.917 304.634 522.451 304.54 523.025C304.445 523.599 304.52 524.189 304.755 524.721C304.99 525.253 305.374 525.706 305.862 526.024C306.349 526.342 306.918 526.511 307.5 526.511C308.082 526.511 308.651 526.342 309.139 526.024C309.626 525.706 310.01 525.253 310.245 524.721C310.48 524.189 310.555 523.599 310.46 523.025C310.366 522.451 310.107 521.917 309.715 521.487C309.322 521.058 308.813 520.752 308.25 520.606ZM297.75 507L302.25 507L302.251 511.5L297.75 511.5L297.75 507ZM294 523.5C294 523.797 293.912 524.087 293.747 524.333C293.582 524.58 293.348 524.772 293.074 524.886C292.8 524.999 292.498 525.029 292.207 524.971C291.916 524.913 291.649 524.77 291.439 524.561C291.23 524.351 291.087 524.084 291.029 523.793C290.971 523.502 291.001 523.2 291.114 522.926C291.228 522.652 291.42 522.418 291.667 522.253C291.913 522.088 292.203 522 292.5 522C292.763 522 293.022 522.07 293.25 522.201C293.478 522.333 293.667 522.522 293.799 522.75C293.93 522.978 294 523.237 294 523.5ZM301.5 523.5C301.5 523.797 301.412 524.087 301.247 524.333C301.082 524.58 300.848 524.772 300.574 524.886C300.3 524.999 299.998 525.029 299.707 524.971C299.416 524.913 299.149 524.77 298.939 524.561C298.73 524.351 298.587 524.084 298.529 523.793C298.471 523.502 298.501 523.2 298.614 522.926C298.728 522.652 298.92 522.418 299.167 522.253C299.413 522.088 299.703 522 300 522C300.263 522 300.522 522.07 300.75 522.202C300.977 522.333 301.167 522.523 301.298 522.75C301.43 522.978 301.5 523.237 301.5 523.5ZM307.5 525C307.203 525 306.913 524.912 306.667 524.747C306.42 524.582 306.228 524.348 306.114 524.074C306.001 523.8 305.971 523.498 306.029 523.207C306.087 522.916 306.23 522.649 306.439 522.439C306.649 522.23 306.916 522.087 307.207 522.029C307.498 521.971 307.8 522.001 308.074 522.114C308.348 522.228 308.582 522.42 308.747 522.667C308.912 522.913 309 523.203 309 523.5C309 523.763 308.93 524.022 308.799 524.25C308.667 524.478 308.478 524.667 308.25 524.799C308.022 524.93 307.763 525 307.5 525Z" fill="currentColor" fill-rule="nonzero" />
  </g>
</svg>

