<svg viewBox="0 0 24 24" xmlns="http://www.w3.org/2000/svg" fill="none">
  <g transform="translate(-720 -648)">
<path id="Icon" d="M723.357 662.539L723.357 655.549C723.357 655.385 723.377 655.226 723.417 655.072C723.469 654.874 723.553 654.685 723.671 654.504C723.742 654.395 723.822 654.294 723.91 654.202C724.072 654.034 724.263 653.893 724.483 653.781C724.62 653.711 724.76 653.655 724.905 653.614C725.109 653.557 725.322 653.528 725.542 653.528C725.763 653.528 725.975 653.557 726.179 653.614C726.195 653.619 726.211 653.624 726.227 653.628L726.227 653.006C726.227 652.842 726.247 652.682 726.287 652.528C726.339 652.331 726.423 652.141 726.541 651.961C726.612 651.852 726.692 651.751 726.781 651.659C726.942 651.49 727.133 651.35 727.353 651.237C727.49 651.167 727.63 651.112 727.775 651.071C727.979 651.013 728.192 650.985 728.412 650.985C728.633 650.985 728.845 651.013 729.049 651.071C729.1 651.085 729.15 651.101 729.199 651.119C729.25 650.971 729.321 650.828 729.411 650.689C729.482 650.58 729.562 650.479 729.651 650.387C729.812 650.219 730.003 650.078 730.223 649.966C730.36 649.896 730.501 649.84 730.645 649.799C730.85 649.742 731.062 649.713 731.282 649.713C731.503 649.713 731.715 649.742 731.919 649.799C732.064 649.84 732.205 649.896 732.342 649.966C732.562 650.078 732.752 650.219 732.914 650.387C733.003 650.479 733.083 650.58 733.154 650.689C733.271 650.87 733.356 651.059 733.407 651.257C733.446 651.406 733.466 651.561 733.467 651.721C733.483 651.716 733.5 651.711 733.516 651.707C733.72 651.649 733.932 651.62 734.153 651.62C734.373 651.62 734.585 651.649 734.79 651.707C734.934 651.748 735.075 651.803 735.212 651.873C735.432 651.986 735.623 652.126 735.784 652.295C735.873 652.387 735.953 652.488 736.024 652.597C736.141 652.777 736.226 652.966 736.277 653.164C736.318 653.318 736.338 653.477 736.338 653.642L736.338 659.177L736.547 658.731C736.552 658.72 736.557 658.709 736.563 658.698C736.569 658.688 736.575 658.677 736.581 658.667C736.696 658.473 736.834 658.307 736.996 658.168C737.252 657.949 737.565 657.799 737.937 657.716C738.225 657.652 738.507 657.638 738.782 657.675C739.044 657.709 739.3 657.79 739.55 657.915C740.058 658.171 740.395 658.498 740.561 658.896C740.758 659.366 740.717 659.935 740.439 660.604L738.075 666.327C738.072 666.332 738.07 666.338 738.067 666.344C738.065 666.35 738.062 666.355 738.06 666.361C737.646 667.235 737.105 667.964 736.436 668.546C735.104 669.707 733.267 670.287 730.924 670.287C729.115 670.287 727.594 669.865 726.363 669.022C726.064 668.816 725.781 668.586 725.515 668.33C725.266 668.09 725.039 667.834 724.833 667.562C723.849 666.261 723.357 664.588 723.357 662.543L723.357 662.543L723.357 662.54L723.357 662.539ZM724.857 662.547C724.858 664.371 725.308 665.815 726.207 666.878C726.317 667.007 726.433 667.131 726.555 667.249C726.695 667.384 726.842 667.51 726.996 667.627C728.01 668.4 729.32 668.787 730.924 668.787C732.955 668.787 734.512 668.28 735.593 667.266C736.043 666.844 736.411 666.334 736.696 665.736L739.052 660.032C739.155 659.785 739.166 659.59 739.086 659.445C739.042 659.367 738.972 659.304 738.876 659.255C738.587 659.11 738.348 659.079 738.159 659.161C738.053 659.207 737.962 659.289 737.887 659.406L736.292 662.808C736.283 662.832 736.273 662.855 736.262 662.877C736.201 663.001 736.107 663.105 735.992 663.178C735.836 663.278 735.646 663.318 735.458 663.283C735.385 663.271 735.317 663.249 735.253 663.217C735.13 663.157 735.026 663.063 734.953 662.948C734.879 662.833 734.838 662.698 734.836 662.56C734.835 662.534 734.836 662.509 734.838 662.484L734.838 653.642C734.838 653.625 734.837 653.607 734.834 653.59C734.826 653.53 734.804 653.472 734.767 653.416C734.766 653.414 734.764 653.411 734.763 653.409C734.708 653.327 734.63 653.26 734.529 653.208C734.498 653.193 734.468 653.18 734.436 653.168C734.347 653.136 734.253 653.12 734.153 653.12C734.052 653.12 733.958 653.136 733.869 653.168C733.838 653.18 733.807 653.193 733.777 653.208C733.676 653.26 733.598 653.327 733.542 653.409C733.541 653.411 733.54 653.414 733.538 653.416C733.501 653.472 733.479 653.53 733.471 653.59C733.469 653.607 733.468 653.625 733.468 653.642L733.468 659.364L731.968 659.403C731.968 659.39 731.968 659.377 731.968 659.365L731.968 651.735C731.968 651.717 731.966 651.7 731.964 651.683C731.956 651.623 731.934 651.565 731.897 651.508C731.896 651.506 731.894 651.504 731.893 651.502C731.837 651.42 731.759 651.353 731.658 651.301C731.628 651.286 731.597 651.272 731.566 651.261C731.477 651.229 731.383 651.213 731.282 651.213C731.182 651.213 731.088 651.229 730.999 651.261L730.999 651.261C730.967 651.272 730.937 651.286 730.906 651.301C730.805 651.353 730.727 651.42 730.672 651.502C730.671 651.504 730.669 651.506 730.668 651.508C730.631 651.565 730.609 651.623 730.601 651.683C730.598 651.7 730.597 651.717 730.597 651.735L730.597 659.364C730.597 659.571 730.524 659.748 730.378 659.895C730.231 660.041 730.054 660.114 729.847 660.114C729.64 660.114 729.463 660.041 729.317 659.895C729.171 659.748 729.097 659.571 729.097 659.364L729.097 653.006C729.097 652.989 729.096 652.972 729.094 652.955C729.086 652.894 729.063 652.836 729.027 652.78C729.025 652.778 729.024 652.776 729.023 652.774C728.967 652.691 728.889 652.624 728.788 652.573C728.758 652.557 728.727 652.544 728.696 652.532C728.607 652.501 728.512 652.485 728.412 652.485C728.312 652.485 728.218 652.501 728.129 652.532L728.129 652.532C728.097 652.544 728.066 652.557 728.036 652.573C727.935 652.624 727.857 652.691 727.802 652.774C727.801 652.776 727.799 652.778 727.798 652.78C727.761 652.836 727.739 652.894 727.731 652.955C727.728 652.972 727.727 652.989 727.727 653.006L727.727 660C727.727 660.207 727.654 660.384 727.507 660.53C727.361 660.677 727.184 660.75 726.977 660.75C726.77 660.75 726.593 660.677 726.447 660.53C726.3 660.384 726.227 660.207 726.227 660L726.227 655.549C726.227 655.532 726.226 655.515 726.224 655.498C726.216 655.438 726.193 655.379 726.156 655.323C726.155 655.321 726.154 655.319 726.152 655.317C726.097 655.234 726.019 655.167 725.918 655.116C725.888 655.1 725.857 655.087 725.825 655.076C725.737 655.044 725.642 655.028 725.542 655.028C725.442 655.028 725.347 655.044 725.259 655.076C725.227 655.087 725.196 655.1 725.166 655.116C725.065 655.167 724.987 655.234 724.932 655.317C724.93 655.319 724.929 655.321 724.928 655.323C724.891 655.379 724.868 655.438 724.86 655.498C724.858 655.515 724.857 655.532 724.857 655.549L724.857 662.547Z" fill="currentColor" fill-rule="evenodd" />
  </g>
</svg>

