<svg viewBox="0 0 24 24" xmlns="http://www.w3.org/2000/svg" fill="none">
  <g transform="translate(-720 -504)">
<path id="Icon" d="M732 505.5C729.923 505.5 727.893 506.116 726.167 507.27C724.44 508.423 723.094 510.063 722.299 511.982C721.505 513.9 721.297 516.012 721.702 518.048C722.107 520.085 723.107 521.956 724.575 523.425C726.044 524.893 727.915 525.893 729.952 526.298C731.988 526.703 734.1 526.495 736.018 525.701C737.937 524.906 739.577 523.56 740.73 521.833C741.884 520.107 742.5 518.077 742.5 516C742.5 513.215 741.394 510.544 739.425 508.575C737.455 506.606 734.785 505.5 732 505.5ZM732 525C730.22 525 728.48 524.472 727 523.483C725.52 522.494 724.366 521.089 723.685 519.444C723.004 517.8 722.826 515.99 723.173 514.244C723.52 512.498 724.377 510.895 725.636 509.636C726.895 508.377 728.498 507.52 730.244 507.173C731.99 506.826 733.8 507.004 735.444 507.685C737.089 508.366 738.494 509.52 739.483 511C740.472 512.48 741 514.22 741 516C741 518.387 740.052 520.676 738.364 522.364C736.676 524.052 734.387 525 732 525ZM731.625 510L732.75 510C733.645 510 734.504 510.356 735.136 510.989C735.769 511.621 736.125 512.48 736.125 513.375C736.125 514.27 735.769 515.129 735.136 515.761C734.504 516.394 733.645 516.75 732.75 516.75L732.75 518.625L731.25 518.625L731.25 515.25L732.75 515.25C733.247 515.25 733.724 515.052 734.076 514.701C734.427 514.349 734.625 513.872 734.625 513.375C734.625 512.878 734.427 512.401 734.076 512.049C733.724 511.698 733.247 511.5 732.75 511.5L731.625 511.5C731.128 511.5 730.651 511.698 730.299 512.049C729.948 512.401 729.75 512.878 729.75 513.375L729.75 513.75L728.25 513.75L728.25 513.375C728.249 512.932 728.336 512.492 728.505 512.082C728.674 511.672 728.923 511.3 729.236 510.986C729.55 510.673 729.922 510.424 730.332 510.255C730.742 510.086 731.182 509.999 731.625 510ZM732 522.75C732.621 522.75 733.125 522.246 733.125 521.625C733.125 521.004 732.621 520.5 732 520.5C731.379 520.5 730.875 521.004 730.875 521.625C730.875 522.246 731.379 522.75 732 522.75Z" fill="currentColor" fill-rule="evenodd" />
  </g>
</svg>

