<svg viewBox="0 0 24 24" xmlns="http://www.w3.org/2000/svg" fill="none">
  <g transform="translate(-216 -648)">
<path id="Icon" d="M222.852 665.454C223.401 665.971 223.996 666.391 224.641 666.714C225.287 667.037 225.981 667.262 226.723 667.39C227.465 667.518 228.196 667.539 228.911 667.451C229.627 667.363 230.331 667.168 231.02 666.864C231.71 666.561 232.329 666.175 232.878 665.706C233.425 665.238 233.903 664.686 234.309 664.053C234.718 663.419 235.02 662.755 235.218 662.061C235.417 661.368 235.511 660.644 235.499 659.891C235.487 659.137 235.374 658.417 235.155 657.729C234.936 657.042 234.616 656.387 234.19 655.765C233.764 655.143 233.27 654.606 232.71 654.154C232.147 653.701 231.518 653.333 230.819 653.05C230.122 652.767 229.413 652.592 228.694 652.525C227.977 652.458 227.248 652.499 226.51 652.649C225.772 652.799 225.084 653.044 224.448 653.385C223.813 653.727 223.229 654.164 222.696 654.696C222.057 655.344 221.358 656.112 220.6 657L223.5 657L223.5 658.5L218.25 658.5L218.25 653.25L219.75 653.25L219.75 655.688C220.422 654.912 221.051 654.227 221.635 653.635C222.274 652.996 222.975 652.472 223.739 652.062C224.5 651.653 225.325 651.358 226.211 651.179C227.098 650.999 227.971 650.95 228.834 651.03C229.696 651.11 230.545 651.32 231.383 651.66C232.221 652 232.977 652.441 233.651 652.984C234.325 653.528 234.917 654.172 235.429 654.918C235.938 655.665 236.325 656.45 236.587 657.275C236.848 658.101 236.985 658.965 236.999 659.869C237.013 660.773 236.899 661.641 236.661 662.474C236.425 663.306 236.061 664.102 235.573 664.863C235.083 665.624 234.51 666.285 233.852 666.848C233.194 667.41 232.452 667.873 231.624 668.237C230.796 668.602 229.954 668.836 229.094 668.941C228.235 669.047 227.36 669.022 226.467 668.868C225.577 668.715 224.744 668.444 223.971 668.057C223.196 667.67 222.481 667.166 221.822 666.545L221.277 666.031L222.307 664.94L222.852 665.454ZM228.75 659.575L228.75 654.75L227.25 654.75L227.25 660C227.25 660.132 227.284 660.255 227.348 660.37C227.413 660.484 227.502 660.575 227.614 660.643L232.008 663.279L232.78 661.993L228.75 659.575Z" fill="currentColor" fill-rule="evenodd" />
  </g>
</svg>

