<svg viewBox="0 0 24 24" xmlns="http://www.w3.org/2000/svg" fill="none">
  <g transform="translate(-432 -576)">
<path id="Icon" d="M438 598.5L450 598.5C450.398 598.5 450.779 598.342 451.061 598.061C451.342 597.779 451.5 597.398 451.5 597L451.5 579C451.5 578.602 451.342 578.221 451.061 577.939C450.779 577.658 450.398 577.5 450 577.5L438 577.5C437.602 577.5 437.221 577.658 436.939 577.939C436.658 578.221 436.5 578.602 436.5 579L436.5 597C436.5 597.398 436.658 597.779 436.939 598.061C437.221 598.342 437.602 598.5 438 598.5ZM438 597L438 579L450 579L450 597L438 597ZM448.5 580.5L439.5 580.5L439.5 582L448.5 582L448.5 580.5ZM448.5 583.5L439.5 583.5L439.5 585L448.5 585L448.5 583.5ZM444 586.5L439.5 586.5L439.5 588L444 588L444 586.5ZM444 594L439.5 594L439.5 595.5L444 595.5L444 594Z" fill="currentColor" fill-rule="evenodd" />
  </g>
</svg>

