<svg viewBox="0 0 24 24" xmlns="http://www.w3.org/2000/svg" fill="none">
  <g transform="translate(-504 -144)">
<path id="Icon" d="M512.25 162L519.75 162L519.75 163.5L512.25 163.5L512.25 162ZM513.75 165L518.25 165L518.25 166.5L513.75 166.5L513.75 165ZM516 145.5C514.011 145.5 512.103 146.29 510.697 147.697C509.29 149.103 508.5 151.011 508.5 153C508.449 154.09 508.658 155.176 509.109 156.17C509.56 157.164 510.241 158.036 511.095 158.715C511.845 159.413 512.25 159.81 512.25 160.5L513.75 160.5C513.75 159.12 512.917 158.348 512.107 157.605C511.407 157.068 510.848 156.368 510.48 155.565C510.113 154.762 509.948 153.881 510 153C510 151.409 510.632 149.883 511.757 148.757C512.883 147.632 514.409 147 516 147C517.591 147 519.117 147.632 520.243 148.757C521.368 149.883 522 151.409 522 153C522.051 153.882 521.885 154.763 521.516 155.566C521.147 156.369 520.587 157.069 519.885 157.605C519.083 158.355 518.25 159.105 518.25 160.5L519.75 160.5C519.75 159.81 520.148 159.413 520.905 158.708C521.758 158.029 522.439 157.159 522.89 156.166C523.341 155.174 523.55 154.089 523.5 153C523.5 152.015 523.306 151.04 522.929 150.13C522.552 149.22 522 148.393 521.303 147.697C520.607 147 519.78 146.448 518.87 146.071C517.96 145.694 516.985 145.5 516 145.5Z" fill="currentColor" fill-rule="nonzero" />
  </g>
</svg>

