<svg viewBox="0 0 24 24" xmlns="http://www.w3.org/2000/svg" fill="none">
  <g transform="translate(-576 -144)">
<path id="Icon" d="M584.708 166.44C584.554 166.375 584.427 166.261 584.345 166.116C584.264 165.971 584.233 165.802 584.258 165.638L585.622 156.75L582 156.75C581.885 156.753 581.771 156.73 581.667 156.682C581.562 156.634 581.47 156.563 581.398 156.473C581.325 156.384 581.274 156.28 581.249 156.168C581.223 156.056 581.224 155.939 581.25 155.828L583.5 146.078C583.54 145.91 583.636 145.761 583.772 145.656C583.909 145.55 584.078 145.495 584.25 145.5L591.75 145.5C591.862 145.5 591.973 145.524 592.074 145.572C592.175 145.62 592.264 145.691 592.335 145.778C592.407 145.866 592.457 145.969 592.483 146.079C592.509 146.189 592.51 146.304 592.485 146.415L591.188 152.25L594.75 152.25C594.891 152.25 595.028 152.289 595.148 152.363C595.267 152.437 595.363 152.544 595.425 152.67C595.479 152.791 595.499 152.924 595.485 153.056C595.47 153.188 595.421 153.313 595.343 153.42L585.593 166.17C585.527 166.268 585.439 166.348 585.336 166.406C585.233 166.463 585.118 166.495 585 166.5C584.9 166.498 584.801 166.478 584.708 166.44ZM589.312 153.75L590.812 147L584.85 147L582.945 155.25L587.378 155.25L586.185 162.96L593.25 153.75L589.312 153.75Z" fill="currentColor" fill-rule="nonzero" />
  </g>
</svg>

