<svg viewBox="0 0 24 24" xmlns="http://www.w3.org/2000/svg" fill="none">
  <g transform="translate(-792 -72)">
<path id="Icon" d="M804.75 72L803.25 72L803.25 73.5L804.75 73.5L804.75 72ZM810.894 74.5372L809.833 75.5977L810.894 76.6582L811.954 75.5977L810.894 74.5372ZM796.045 75.6135L797.106 76.6747L798.167 75.6135L797.106 74.553L796.045 75.6135ZM796.5 82.5C796.5 78.375 799.875 75 804 75C808.125 75 811.5 78.375 811.5 82.5C811.5 85.8 810 87.225 808.875 88.2C808.125 88.875 807.75 89.325 807.75 90L806.25 90C806.25 88.575 807.075 87.825 807.9 87.075C808.95 86.175 810 85.125 810 82.5C810 79.2 807.3 76.5 804 76.5C800.7 76.5 798 79.2 798 82.5C798 85.125 799.05 86.175 800.1 87.075C800.925 87.825 801.75 88.65 801.75 90L800.25 90C800.25 89.325 799.875 88.875 799.125 88.2C798 87.225 796.5 85.8 796.5 82.5ZM804.75 81.75L807 81.75L807 83.25L804.75 83.25L804.75 85.5L803.25 85.5L803.25 83.25L801 83.25L801 81.75L803.25 81.75L803.25 79.5L804.75 79.5L804.75 81.75ZM795 81.75L793.5 81.75L793.5 83.25L795 83.25L795 81.75ZM814.5 81.75L813 81.75L813 83.25L814.5 83.25L814.5 81.75ZM807.75 91.5L800.25 91.5L800.25 93L807.75 93L807.75 91.5ZM806.25 94.5L801.75 94.5L801.75 96L806.25 96L806.25 94.5Z" fill="currentColor" fill-rule="evenodd" />
  </g>
</svg>

