<svg viewBox="0 0 24 24" xmlns="http://www.w3.org/2000/svg" fill="none">
  <g transform="translate(-720 -72)">
<path id="Icon" d="M741 81.75L742.5 81.75L742.5 83.25L741 83.25L741 81.75ZM737.833 75.5977L738.894 74.5372L739.955 75.5977L738.894 76.6582L737.833 75.5977ZM731.25 72L732.75 72L732.75 73.5L731.25 73.5L731.25 72ZM725.106 76.6748L724.045 75.6135L725.106 74.553L726.167 75.6135L725.106 76.6748ZM721.5 81.75L723 81.75L723 83.25L721.5 83.25L721.5 81.75ZM729.75 94.5L734.25 94.5L734.25 96L729.75 96L729.75 94.5ZM728.25 91.5L735.75 91.5L735.75 93L728.25 93L728.25 91.5ZM732 75C727.875 75 724.5 78.375 724.5 82.5C724.5 85.8 726 87.225 727.125 88.2C727.875 88.875 728.25 89.325 728.25 90L729.75 90C729.75 88.65 728.925 87.825 728.1 87.075C727.05 86.175 726 85.125 726 82.5C726 79.2 728.7 76.5 732 76.5C735.3 76.5 738 79.2 738 82.5C738 85.125 736.95 86.175 735.9 87.075C735.075 87.825 734.25 88.575 734.25 90L735.75 90C735.75 89.325 736.125 88.875 736.875 88.2C738 87.225 739.5 85.8 739.5 82.5C739.5 78.375 736.125 75 732 75Z" fill="currentColor" fill-rule="evenodd" />
  </g>
</svg>

