<svg viewBox="0 0 24 24" xmlns="http://www.w3.org/2000/svg" fill="none">
  <g transform="translate(-144 -576)">
<path id="Icon" d="M146.423 596.965C146.901 596.368 147.389 595.447 147.887 594.203C148.902 591.664 149.41 588.8 149.41 585.61C149.41 584.84 149.523 584.107 149.749 583.41C149.976 582.714 150.315 582.054 150.768 581.431C151.22 580.808 151.743 580.281 152.335 579.851C152.928 579.421 153.59 579.086 154.322 578.848C155.055 578.61 155.787 578.492 156.519 578.492C157.251 578.492 157.984 578.61 158.716 578.848C159.448 579.086 160.111 579.421 160.703 579.851C161.295 580.281 161.818 580.808 162.271 581.431C162.723 582.054 163.063 582.714 163.289 583.41C163.515 584.107 163.628 584.84 163.628 585.61C163.628 588.8 164.136 591.664 165.152 594.203C165.649 595.447 166.137 596.368 166.615 596.965C166.616 596.966 166.617 596.967 166.617 596.968C166.696 597.068 166.748 597.175 166.772 597.29C166.836 597.574 166.738 597.878 166.491 598.075C166.491 598.076 166.49 598.077 166.488 598.078C166.389 598.157 166.282 598.208 166.167 598.233C165.883 598.296 165.578 598.198 165.381 597.952C164.806 597.233 164.24 596.179 163.685 594.79C162.594 592.062 162.048 589.002 162.048 585.61C162.048 585.011 161.96 584.441 161.784 583.899C161.608 583.357 161.344 582.844 160.992 582.36C160.641 581.875 160.234 581.465 159.773 581.131C159.313 580.796 158.797 580.536 158.228 580.351C157.658 580.166 157.089 580.073 156.519 580.073L156.519 580.073C155.949 580.073 155.38 580.166 154.81 580.351C154.241 580.536 153.726 580.796 153.265 581.131C152.804 581.465 152.398 581.875 152.046 582.36C151.694 582.844 151.43 583.357 151.254 583.899C151.078 584.441 150.99 585.011 150.99 585.61C150.99 589.002 150.444 592.062 149.353 594.79C148.798 596.179 148.232 597.233 147.657 597.952C147.577 598.052 147.483 598.127 147.374 598.177C147.218 598.251 147.041 598.271 146.872 598.233C146.758 598.209 146.653 598.158 146.555 598.082C146.552 598.08 146.549 598.077 146.547 598.075C146.446 597.995 146.371 597.901 146.322 597.793C146.248 597.636 146.228 597.459 146.266 597.29C146.291 597.174 146.343 597.065 146.423 596.965ZM152.569 586.795C152.569 586.14 153.1 585.61 153.754 585.61C154.409 585.61 154.939 586.14 154.939 586.795C154.939 587.449 154.409 587.979 153.754 587.979C153.1 587.979 152.569 587.449 152.569 586.795ZM158.099 586.795C158.099 586.14 158.629 585.61 159.284 585.61C159.938 585.61 160.469 586.14 160.469 586.795C160.469 587.449 159.938 587.979 159.284 587.979C158.629 587.979 158.099 587.449 158.099 586.795ZM156.519 591.046L153.713 589.643C153.598 589.585 153.481 589.557 153.362 589.557C153.189 589.555 153.02 589.611 152.882 589.717C152.787 589.788 152.71 589.881 152.653 589.996C152.595 590.111 152.567 590.228 152.567 590.347C152.565 590.52 152.622 590.689 152.727 590.827C152.798 590.922 152.891 590.998 153.006 591.056L156.166 592.636C156.277 592.691 156.395 592.719 156.519 592.719C156.643 592.719 156.761 592.691 156.872 592.636L160.032 591.056C160.147 590.998 160.24 590.922 160.311 590.827C160.417 590.689 160.473 590.52 160.471 590.347C160.471 590.229 160.443 590.113 160.387 589.999C160.386 589.998 160.386 589.997 160.385 589.996C160.244 589.714 159.967 589.554 159.676 589.557C159.557 589.557 159.44 589.585 159.326 589.643L156.519 591.046ZM153.936 594.921C153.108 595.383 152.422 596.1 151.88 597.074C151.817 597.186 151.783 597.301 151.778 597.42C151.769 597.594 151.817 597.765 151.916 597.907C151.983 598.004 152.071 598.084 152.181 598.146C152.183 598.147 152.184 598.148 152.185 598.148C152.46 598.302 152.779 598.278 153.018 598.112C153.116 598.045 153.197 597.955 153.259 597.843C153.652 597.139 154.147 596.625 154.745 596.299C155.26 596.019 155.851 595.879 156.519 595.879C157.187 595.879 157.778 596.019 158.293 596.299C158.891 596.625 159.386 597.139 159.779 597.843C159.841 597.955 159.922 598.045 160.02 598.112C160.162 598.211 160.333 598.259 160.507 598.25C160.624 598.245 160.739 598.212 160.85 598.15C160.851 598.15 160.852 598.149 160.853 598.148C161.129 597.995 161.276 597.711 161.26 597.42C161.255 597.301 161.221 597.186 161.159 597.074C160.616 596.1 159.93 595.383 159.102 594.921C158.357 594.506 157.496 594.299 156.519 594.299C155.542 594.299 154.681 594.506 153.936 594.921Z" fill="currentColor" fill-rule="evenodd" />
  </g>
</svg>

