<svg viewBox="0 0 24 24" xmlns="http://www.w3.org/2000/svg" fill="none">
  <g transform="translate(-0 -648)">
<path id="Icon" d="M20.2539 653.25L3.75 653.25C3.6289 653.25 3.51758 653.275 3.41602 653.326C3.26758 653.398 3.14844 653.518 3.07618 653.666C3.0254 653.767 3 653.878 3 654C3 654.122 3.0254 654.233 3.07618 654.334C3.14844 654.482 3.26758 654.602 3.41602 654.674C3.51758 654.725 3.6289 654.75 3.75 654.75L20.25 654.75C20.3711 654.75 20.4824 654.725 20.584 654.674C20.7324 654.602 20.8516 654.482 20.9238 654.334C20.9746 654.234 21 654.124 21 654.004L21 654C21 653.701 20.832 653.447 20.584 653.326C20.4844 653.276 20.375 653.25 20.2539 653.25ZM20.2539 659.25L3.75 659.25C3.6289 659.25 3.51758 659.275 3.41602 659.326C3.26758 659.398 3.14844 659.518 3.07618 659.666C3.0254 659.767 3 659.878 3 660C3 660.122 3.0254 660.233 3.07618 660.334C3.14844 660.482 3.26758 660.602 3.41602 660.674C3.51758 660.725 3.6289 660.75 3.75 660.75L20.25 660.75C20.3711 660.75 20.4824 660.725 20.584 660.674C20.7324 660.602 20.8516 660.482 20.9238 660.334C20.9746 660.234 21 660.124 21 660.004L21 660C21 659.701 20.832 659.447 20.584 659.326C20.4844 659.276 20.375 659.25 20.2539 659.25ZM3.75 665.25L20.2539 665.25C20.375 665.25 20.4844 665.276 20.584 665.326C20.832 665.447 21 665.701 21 666L21 666.004C21 666.124 20.9746 666.234 20.9238 666.334C20.8516 666.482 20.7324 666.602 20.584 666.674C20.4824 666.725 20.3711 666.75 20.25 666.75L3.75 666.75C3.6289 666.75 3.51758 666.725 3.41602 666.674C3.26758 666.602 3.14844 666.482 3.07618 666.334C3.0254 666.233 3 666.122 3 666C3 665.878 3.0254 665.767 3.07618 665.666C3.14844 665.518 3.26758 665.398 3.41602 665.326C3.51758 665.275 3.6289 665.25 3.75 665.25Z" fill="currentColor" fill-rule="evenodd" />
  </g>
</svg>

