<svg viewBox="0 0 24 24" xmlns="http://www.w3.org/2000/svg" fill="none">
  <g transform="translate(-144 -720)">
<path id="Icon" d="M146.875 724.25L149.125 724.25L149.125 725.75L146.875 725.75L146.875 724.25ZM152.125 724.25L165.125 724.25L165.125 725.75L152.125 725.75L152.125 724.25ZM149.125 731.25L146.875 731.25L146.875 732.75L149.125 732.75L149.125 731.25ZM152.125 731.25L165.125 731.25L165.125 732.75L152.125 732.75L152.125 731.25ZM149.125 738.25L146.875 738.25L146.875 739.75L149.125 739.75L149.125 738.25ZM152.125 738.25L165.125 738.25L165.125 739.75L152.125 739.75L152.125 738.25Z" fill="currentColor" fill-rule="evenodd" />
  </g>
</svg>

