<svg viewBox="0 0 24 24" xmlns="http://www.w3.org/2000/svg" fill="none">
  <g transform="translate(-216 -216)">
<path id="Icon" d="M228 217.5C225.813 217.503 223.716 218.373 222.169 219.919C220.623 221.466 219.753 223.563 219.75 225.75C219.748 227.537 220.332 229.276 221.412 230.7C221.412 230.7 221.637 230.996 221.674 231.039L228 238.5L234.329 231.035C234.362 230.995 234.588 230.7 234.588 230.7L234.589 230.698C235.668 229.274 236.252 227.536 236.25 225.75C236.247 223.563 235.377 221.466 233.831 219.919C232.284 218.373 230.187 217.503 228 217.5ZM227.156 221.25L228.844 221.25L228.844 228L227.156 228L227.156 221.25ZM228 232.5C227.777 232.5 227.56 232.434 227.375 232.31C227.19 232.187 227.046 232.011 226.961 231.805C226.876 231.6 226.853 231.374 226.897 231.156C226.94 230.937 227.047 230.737 227.204 230.579C227.362 230.422 227.562 230.315 227.781 230.272C227.999 230.228 228.225 230.251 228.43 230.336C228.636 230.421 228.812 230.565 228.935 230.75C229.059 230.935 229.125 231.152 229.125 231.375C229.125 231.673 229.007 231.96 228.796 232.171C228.585 232.382 228.298 232.5 228 232.5Z" fill="currentColor" fill-rule="nonzero" />
  </g>
</svg>

