<svg viewBox="0 0 24 24" xmlns="http://www.w3.org/2000/svg" fill="none">
  <g transform="translate(-792 -144)">
<path id="Icon" d="M797.673 159.038L804 166.5L810.329 159.035C810.363 158.996 810.588 158.7 810.588 158.7L810.589 158.698C811.668 157.274 812.252 155.537 812.25 153.75C812.25 151.562 811.381 149.464 809.834 147.916C808.286 146.369 806.188 145.5 804 145.5C801.812 145.5 799.714 146.369 798.166 147.916C796.619 149.464 795.75 151.562 795.75 153.75C795.748 155.537 796.332 157.276 797.412 158.7C797.498 158.813 797.585 158.926 797.673 159.038ZM798.824 158.077C798.784 158.027 798.61 157.796 798.61 157.796C797.726 156.633 797.248 155.211 797.25 153.75C797.25 151.96 797.961 150.243 799.227 148.977C800.493 147.711 802.21 147 804 147C805.79 147 807.507 147.711 808.773 148.977C810.039 150.243 810.75 151.96 810.75 153.75C810.752 155.21 810.275 156.631 809.392 157.794C809.391 157.795 809.216 158.027 809.183 158.068L804 164.181L798.824 158.077ZM807.75 157.5L806.25 157.5L806.25 151.5L801.75 151.5L801.75 157.5L800.25 157.5L800.25 151.5C800.25 151.102 800.408 150.721 800.689 150.439C800.971 150.158 801.352 150 801.75 150L806.25 150C806.648 150 807.029 150.158 807.311 150.439C807.592 150.721 807.75 151.102 807.75 151.5L807.75 157.5ZM803.25 153L804.75 153L804.75 154.5L803.25 154.5L803.25 153ZM803.25 156L804.75 156L804.75 157.5L803.25 157.5L803.25 156Z" fill="currentColor" fill-rule="evenodd" />
  </g>
</svg>

