<svg viewBox="0 0 24 24" xmlns="http://www.w3.org/2000/svg" fill="none">
  <g transform="translate(-720 -144)">
<path id="Icon" d="M725.673 159.038L732 166.5L738.329 159.035C738.363 158.996 738.588 158.7 738.588 158.7L738.589 158.698C739.668 157.274 740.252 155.537 740.25 153.75C740.25 151.562 739.381 149.464 737.834 147.916C736.286 146.369 734.188 145.5 732 145.5C729.812 145.5 727.714 146.369 726.166 147.916C724.619 149.464 723.75 151.562 723.75 153.75C723.748 155.537 724.332 157.276 725.412 158.7C725.498 158.813 725.585 158.926 725.673 159.038ZM726.824 158.077C726.784 158.027 726.61 157.796 726.61 157.796C725.726 156.633 725.248 155.211 725.25 153.75C725.25 151.96 725.961 150.243 727.227 148.977C728.493 147.711 730.21 147 732 147C733.79 147 735.507 147.711 736.773 148.977C738.039 150.243 738.75 151.96 738.75 153.75C738.752 155.21 738.275 156.631 737.392 157.794C737.391 157.795 737.216 158.027 737.183 158.068L732 164.181L726.824 158.077ZM729.917 156.868C730.533 157.28 731.258 157.5 732 157.5C732.994 157.499 733.947 157.103 734.65 156.4C735.353 155.697 735.749 154.744 735.75 153.75C735.75 153.008 735.53 152.283 735.118 151.667C734.706 151.05 734.12 150.569 733.435 150.285C732.75 150.002 731.996 149.927 731.268 150.072C730.541 150.217 729.873 150.574 729.348 151.098C728.824 151.623 728.467 152.291 728.322 153.018C728.177 153.746 728.252 154.5 728.535 155.185C728.819 155.87 729.3 156.456 729.917 156.868ZM730.75 151.879C731.12 151.632 731.555 151.5 732 151.5C732.597 151.501 733.169 151.738 733.59 152.16C734.012 152.582 734.249 153.153 734.25 153.75C734.25 154.195 734.118 154.63 733.871 155C733.624 155.37 733.272 155.658 732.861 155.829C732.45 155.999 731.997 156.044 731.561 155.957C731.125 155.87 730.724 155.656 730.409 155.341C730.094 155.026 729.88 154.625 729.793 154.189C729.706 153.752 729.751 153.3 729.921 152.889C730.092 152.478 730.38 152.126 730.75 151.879Z" fill="currentColor" fill-rule="evenodd" />
  </g>
</svg>

