<svg viewBox="0 0 24 24" xmlns="http://www.w3.org/2000/svg" fill="none">
  <g transform="translate(-72 -216)">
<path id="Icon" d="M84 217.5C81.8128 217.503 79.7159 218.373 78.1692 219.919C76.6226 221.466 75.7526 223.563 75.75 225.75C75.748 227.537 76.3318 229.276 77.412 230.7C77.412 230.7 77.637 230.996 77.6738 231.039L84 238.5L90.3292 231.035C90.3622 230.995 90.588 230.7 90.588 230.7L90.5887 230.698C91.6682 229.274 92.2517 227.536 92.25 225.75C92.2474 223.563 91.3774 221.466 89.8308 219.919C88.2841 218.373 86.1872 217.503 84 217.5ZM84 228.75C83.4067 228.75 82.8266 228.574 82.3333 228.244C81.8399 227.915 81.4554 227.446 81.2284 226.898C81.0013 226.35 80.9419 225.747 81.0577 225.165C81.1734 224.583 81.4591 224.048 81.8787 223.629C82.2982 223.209 82.8328 222.923 83.4147 222.808C83.9967 222.692 84.5998 222.751 85.148 222.978C85.6962 223.205 86.1648 223.59 86.4944 224.083C86.8241 224.577 87 225.157 87 225.75C86.999 226.545 86.6826 227.308 86.1202 227.87C85.5578 228.433 84.7954 228.749 84 228.75Z" fill="currentColor" fill-rule="nonzero" />
  </g>
</svg>

