<svg viewBox="0 0 24 24" xmlns="http://www.w3.org/2000/svg" fill="none">
  <g transform="translate(-0 -216)">
<path id="Icon" d="M12 217.5C9.81277 217.503 7.71585 218.373 6.16922 219.919C4.62261 221.466 3.75258 223.563 3.75001 225.75C3.748 227.537 4.33178 229.276 5.412 230.7C5.412 230.7 5.637 230.996 5.67376 231.039L12 238.5L18.3292 231.035C18.3622 230.995 18.588 230.7 18.588 230.7L18.5887 230.698C19.6682 229.274 20.2517 227.536 20.25 225.75C20.2474 223.563 19.3774 221.466 17.8308 219.919C16.2841 218.373 14.1872 217.503 12 217.5ZM12.75 229.5L11.25 229.5L11.25 228L12.75 228L12.75 229.5ZM12.75 226.5L11.25 226.5L11.25 225L12.75 225L12.75 226.5ZM15.75 229.5L14.25 229.5L14.25 223.5L9.75 223.5L9.75 229.5L8.25 229.5L8.25 223.5C8.25 223.102 8.40802 222.721 8.68935 222.439C8.97067 222.158 9.3522 222 9.75 222L14.25 222C14.6478 222 15.0293 222.158 15.3106 222.439C15.592 222.721 15.75 223.102 15.75 223.5L15.75 229.5Z" fill="currentColor" fill-rule="nonzero" />
  </g>
</svg>

