<svg viewBox="0 0 24 24" xmlns="http://www.w3.org/2000/svg" fill="none">
  <g transform="translate(-288 -216)">
<path id="Icon" d="M293.674 231.038L300 238.5L306.329 231.035C306.363 230.996 306.588 230.7 306.588 230.7L306.589 230.698C307.676 229.255 308.25 227.545 308.25 225.75C308.25 221.202 304.549 217.5 300 217.5C295.451 217.5 291.75 221.202 291.75 225.75C291.748 227.537 292.332 229.276 293.412 230.7C293.412 230.7 293.638 230.996 293.674 231.038ZM294.824 230.077C294.784 230.027 294.61 229.796 294.61 229.796C293.72 228.615 293.25 227.217 293.25 225.75C293.25 222.029 296.279 219 300 219C303.721 219 306.75 222.029 306.75 225.75C306.752 227.21 306.275 228.631 305.392 229.794C305.392 229.794 305.216 230.027 305.183 230.068L300 236.181L294.824 230.077ZM298.83 220.829C299.041 220.619 299.327 220.5 299.625 220.5C299.923 220.5 300.209 220.619 300.42 220.829C300.631 221.04 300.75 221.327 300.75 221.625C300.75 221.923 300.631 222.21 300.42 222.421C300.209 222.631 299.923 222.75 299.625 222.75C299.327 222.75 299.041 222.631 298.83 222.421C298.619 222.21 298.5 221.923 298.5 221.625C298.5 221.327 298.619 221.04 298.83 220.829ZM300.75 224.25L300.75 229.5L303 229.5L303 231L297 231L297 229.5L299.25 229.5L299.25 225.75L297.75 225.75L297.75 224.25L300.75 224.25Z" fill="currentColor" fill-rule="evenodd" />
  </g>
</svg>

