<svg viewBox="0 0 24 24" xmlns="http://www.w3.org/2000/svg" fill="none">
  <g transform="translate(-360 -216)">
<path id="Icon" d="M372 217.5C367.451 217.5 363.75 221.202 363.75 225.75C363.75 227.545 364.324 229.255 365.412 230.7C365.412 230.7 365.637 230.995 365.673 231.038L372 238.5L378.329 231.035C378.362 230.995 378.588 230.7 378.588 230.7L378.589 230.698C379.668 229.274 380.252 227.536 380.25 225.75C380.25 221.202 376.549 217.5 372 217.5ZM371.625 220.5C371.923 220.5 372.21 220.619 372.421 220.829C372.632 221.04 372.75 221.327 372.75 221.625C372.75 221.923 372.632 222.21 372.421 222.421C372.21 222.631 371.923 222.75 371.625 222.75C371.327 222.75 371.04 222.631 370.829 222.421C370.618 222.21 370.5 221.923 370.5 221.625C370.5 221.327 370.618 221.04 370.829 220.829C371.04 220.619 371.327 220.5 371.625 220.5ZM375 231L369 231L369 229.5L371.25 229.5L371.25 225.75L369.75 225.75L369.75 224.25L372.75 224.25L372.75 229.5L375 229.5L375 231Z" fill="currentColor" fill-rule="nonzero" />
  </g>
</svg>

