<svg viewBox="0 0 24 24" xmlns="http://www.w3.org/2000/svg" fill="none">
  <g transform="translate(-144 -216)">
<path id="Icon" d="M149.673 231.038L156 238.5L162.329 231.035C162.363 230.996 162.588 230.7 162.588 230.7L162.589 230.698C163.668 229.274 164.252 227.537 164.25 225.75C164.25 223.562 163.381 221.464 161.834 219.916C160.286 218.369 158.188 217.5 156 217.5C153.812 217.5 151.714 218.369 150.166 219.916C148.619 221.464 147.75 223.562 147.75 225.75C147.748 227.537 148.332 229.276 149.412 230.7C149.498 230.813 149.585 230.926 149.673 231.038ZM150.824 230.077C150.784 230.027 150.61 229.796 150.61 229.796C149.726 228.633 149.248 227.211 149.25 225.75C149.25 223.96 149.961 222.243 151.227 220.977C152.493 219.711 154.21 219 156 219C157.79 219 159.507 219.711 160.773 220.977C162.039 222.243 162.75 223.96 162.75 225.75C162.752 227.21 162.275 228.631 161.392 229.794C161.391 229.795 161.216 230.027 161.183 230.068L156 236.181L150.824 230.077ZM155.25 221.25L156.75 221.25L156.75 228L155.25 228L155.25 221.25ZM156 232.5C156.621 232.5 157.125 231.996 157.125 231.375C157.125 230.754 156.621 230.25 156 230.25C155.379 230.25 154.875 230.754 154.875 231.375C154.875 231.996 155.379 232.5 156 232.5Z" fill="currentColor" fill-rule="evenodd" />
  </g>
</svg>

