<svg viewBox="0 0 24 24" xmlns="http://www.w3.org/2000/svg" fill="none">
  <g transform="translate(-432 -216)">
<path id="Icon" d="M437.673 231.038L444 238.5L450.329 231.035C450.363 230.996 450.588 230.7 450.588 230.7L450.589 230.698C451.668 229.274 452.252 227.537 452.25 225.75C452.25 223.562 451.381 221.464 449.834 219.916C448.286 218.369 446.188 217.5 444 217.5C441.812 217.5 439.714 218.369 438.166 219.916C436.619 221.464 435.75 223.562 435.75 225.75C435.748 227.537 436.332 229.276 437.412 230.7C437.498 230.813 437.585 230.926 437.673 231.038ZM438.824 230.077C438.784 230.027 438.61 229.796 438.61 229.796C437.726 228.633 437.248 227.211 437.25 225.75C437.25 223.96 437.961 222.243 439.227 220.977C440.493 219.711 442.21 219 444 219C445.79 219 447.507 219.711 448.773 220.977C450.039 222.243 450.75 223.96 450.75 225.75C450.752 227.21 450.275 228.631 449.392 229.794C449.391 229.795 449.216 230.027 449.183 230.068L444 236.181L438.824 230.077ZM442.75 226.121C443.12 226.368 443.555 226.5 444 226.5C444.597 226.499 445.169 226.262 445.59 225.84C446.012 225.418 446.249 224.847 446.25 224.25C446.25 223.805 446.118 223.37 445.871 223C445.624 222.63 445.272 222.342 444.861 222.171C444.45 222.001 443.997 221.956 443.561 222.043C443.125 222.13 442.724 222.344 442.409 222.659C442.094 222.974 441.88 223.375 441.793 223.811C441.706 224.248 441.751 224.7 441.921 225.111C442.092 225.522 442.38 225.874 442.75 226.121ZM443.583 223.626C443.707 223.544 443.852 223.5 444 223.5C444.199 223.5 444.39 223.579 444.53 223.72C444.671 223.86 444.75 224.051 444.75 224.25C444.75 224.398 444.706 224.543 444.624 224.667C444.541 224.79 444.424 224.886 444.287 224.943C444.15 225 443.999 225.015 443.854 224.986C443.708 224.957 443.574 224.885 443.47 224.78C443.365 224.675 443.293 224.542 443.264 224.396C443.235 224.251 443.25 224.1 443.307 223.963C443.364 223.826 443.46 223.709 443.583 223.626ZM445.5 228.75L445.5 230.25L447 230.25L447 228.75C447 228.352 446.842 227.971 446.561 227.689C446.279 227.408 445.898 227.25 445.5 227.25L442.5 227.25C442.102 227.25 441.721 227.408 441.439 227.689C441.158 227.971 441 228.352 441 228.75L441 230.25L442.5 230.25L442.5 228.75L445.5 228.75Z" fill="currentColor" fill-rule="evenodd" />
  </g>
</svg>

