<svg viewBox="0 0 24 24" xmlns="http://www.w3.org/2000/svg" fill="none">
  <g transform="translate(-504 -216)">
<path id="Icon" d="M510.169 219.919C511.716 218.373 513.813 217.503 516 217.5C518.187 217.503 520.284 218.373 521.831 219.919C523.377 221.466 524.247 223.563 524.25 225.75C524.252 227.537 523.668 229.274 522.589 230.698L522.588 230.7C522.588 230.7 522.362 230.996 522.329 231.035L516 238.5L509.674 231.039C509.637 230.996 509.412 230.7 509.412 230.7C508.332 229.276 507.748 227.537 507.75 225.75C507.753 223.563 508.623 221.466 510.169 219.919ZM517.25 222.379C516.88 222.132 516.445 222 516 222C515.403 222.001 514.831 222.238 514.41 222.66C513.988 223.082 513.751 223.653 513.75 224.25C513.75 224.695 513.882 225.13 514.129 225.5C514.376 225.87 514.728 226.158 515.139 226.329C515.55 226.499 516.003 226.544 516.439 226.457C516.875 226.37 517.276 226.156 517.591 225.841C517.906 225.526 518.12 225.125 518.207 224.689C518.294 224.252 518.249 223.8 518.079 223.389C517.908 222.978 517.62 222.626 517.25 222.379ZM516.75 224.25C516.75 224.664 516.414 225 516 225C515.586 225 515.25 224.664 515.25 224.25C515.25 223.836 515.586 223.5 516 223.5C516.414 223.5 516.75 223.836 516.75 224.25ZM517.5 230.25L519 230.25L519 228.75C519 228.352 518.842 227.971 518.561 227.689C518.279 227.408 517.898 227.25 517.5 227.25L514.5 227.25C514.102 227.25 513.721 227.408 513.439 227.689C513.158 227.971 513 228.352 513 228.75L513 230.25L514.5 230.25L514.5 228.75L517.5 228.75L517.5 230.25Z" fill="currentColor" fill-rule="evenodd" />
  </g>
</svg>

