<svg viewBox="0 0 24 24" xmlns="http://www.w3.org/2000/svg" fill="none">
  <g transform="translate(-288 -648)">
<path id="Icon" d="M305.25 649.5L305.25 651L306.754 651C306.874 651 306.984 651.026 307.084 651.076C307.333 651.197 307.5 651.451 307.5 651.75L307.5 651.754C307.5 651.874 307.474 651.984 307.424 652.084C307.303 652.332 307.049 652.5 306.75 652.5L305.25 652.5L305.25 654L305.25 654.004C305.25 654.124 305.224 654.234 305.174 654.334C305.053 654.582 304.799 654.75 304.5 654.75L304.496 654.75C304.376 654.75 304.266 654.724 304.166 654.674C303.918 654.553 303.75 654.299 303.75 654L303.75 652.5L302.25 652.5C302.128 652.5 302.017 652.475 301.916 652.424C301.768 652.352 301.648 652.232 301.576 652.084C301.525 651.983 301.5 651.872 301.5 651.75C301.5 651.628 301.525 651.517 301.576 651.416C301.648 651.268 301.768 651.148 301.916 651.076C302.017 651.025 302.128 651 302.25 651L303.75 651L303.75 649.5C303.75 649.378 303.775 649.267 303.826 649.166C303.898 649.018 304.018 648.898 304.166 648.826C304.267 648.775 304.378 648.75 304.5 648.75C304.622 648.75 304.733 648.775 304.834 648.826C304.982 648.898 305.102 649.018 305.174 649.166C305.225 649.267 305.25 649.378 305.25 649.5ZM290.476 662.9C290.329 662.846 290.197 662.773 290.079 662.682C289.961 662.591 289.858 662.481 289.768 662.353C289.679 662.225 289.612 662.09 289.567 661.948C289.523 661.805 289.5 661.656 289.5 661.5C289.5 661.344 289.523 661.195 289.567 661.052C289.612 660.91 289.679 660.775 289.768 660.647C289.858 660.519 289.961 660.409 290.079 660.318C290.197 660.227 290.329 660.154 290.476 660.1L295.316 658.316L297.1 653.476C297.154 653.329 297.227 653.196 297.319 653.078C297.41 652.96 297.519 652.857 297.647 652.768C297.775 652.679 297.91 652.612 298.052 652.567C298.195 652.523 298.344 652.5 298.5 652.5C298.656 652.5 298.806 652.523 298.948 652.567C299.09 652.612 299.225 652.679 299.353 652.768C299.481 652.858 299.591 652.961 299.682 653.079C299.773 653.197 299.846 653.329 299.9 653.476L301.684 658.316L306.524 660.1C306.671 660.154 306.804 660.227 306.923 660.319C307.04 660.41 307.143 660.519 307.232 660.647C307.321 660.775 307.388 660.91 307.433 661.052C307.477 661.195 307.5 661.344 307.5 661.5C307.5 661.656 307.477 661.805 307.433 661.948C307.388 662.09 307.321 662.225 307.232 662.353C307.142 662.481 307.039 662.591 306.921 662.682C306.803 662.773 306.671 662.846 306.524 662.9L301.684 664.684L299.9 669.524C299.846 669.671 299.773 669.804 299.681 669.922C299.59 670.04 299.481 670.143 299.353 670.232C299.225 670.321 299.09 670.388 298.948 670.433C298.805 670.477 298.656 670.5 298.5 670.5C298.344 670.5 298.195 670.477 298.052 670.433C297.91 670.388 297.775 670.321 297.647 670.232C297.519 670.142 297.409 670.039 297.318 669.921C297.227 669.803 297.154 669.671 297.1 669.524L295.316 664.684L290.476 662.9L290.476 662.9ZM309.75 654.75L309.75 655.5L310.504 655.5C310.624 655.5 310.734 655.526 310.834 655.576C311.083 655.697 311.25 655.951 311.25 656.25L311.25 656.254C311.25 656.374 311.224 656.484 311.174 656.584C311.053 656.832 310.799 657 310.5 657L309.75 657L309.75 657.75L309.75 657.754C309.75 657.874 309.724 657.984 309.674 658.084C309.553 658.332 309.299 658.5 309 658.5L308.996 658.5C308.876 658.5 308.766 658.474 308.666 658.424C308.418 658.303 308.25 658.049 308.25 657.75L308.25 657L307.5 657C307.378 657 307.267 656.975 307.166 656.924C307.018 656.852 306.898 656.732 306.826 656.584C306.775 656.483 306.75 656.372 306.75 656.25C306.75 656.128 306.775 656.017 306.826 655.916C306.898 655.768 307.018 655.648 307.166 655.576C307.267 655.525 307.378 655.5 307.5 655.5L308.25 655.5L308.25 654.75C308.25 654.628 308.275 654.517 308.326 654.416C308.398 654.268 308.518 654.148 308.666 654.076C308.767 654.025 308.878 654 309 654C309.122 654 309.233 654.025 309.334 654.076C309.482 654.148 309.602 654.268 309.674 654.416C309.725 654.517 309.75 654.628 309.75 654.75ZM296.16 663.396L291.014 661.5L296.16 659.604C296.263 659.566 296.353 659.508 296.431 659.431C296.508 659.353 296.566 659.263 296.604 659.16L298.5 654.014L300.396 659.16C300.434 659.263 300.492 659.353 300.569 659.431C300.647 659.508 300.737 659.566 300.84 659.604L305.986 661.5L300.84 663.396C300.737 663.434 300.647 663.492 300.569 663.569C300.492 663.647 300.434 663.737 300.396 663.84L298.5 668.986L296.604 663.84C296.566 663.737 296.508 663.647 296.431 663.569C296.353 663.492 296.263 663.434 296.16 663.396Z" fill="currentColor" fill-rule="evenodd" />
  </g>
</svg>

