<svg viewBox="0 0 24 24" xmlns="http://www.w3.org/2000/svg" fill="none">
  <g transform="translate(-648 -216)">
<path id="Icon" d="M665.25 235.5L666.75 235.5L666.75 238.5L665.25 238.5L665.25 235.5ZM665.25 229.5L666.75 229.5L666.75 232.5L665.25 232.5L665.25 229.5ZM667.5 233.25L670.5 233.25L670.5 234.75L667.5 234.75L667.5 233.25ZM661.5 233.25L664.5 233.25L664.5 234.75L661.5 234.75L661.5 233.25ZM667.007 223.545L650.507 217.545C650.372 217.496 650.227 217.487 650.088 217.518C649.948 217.548 649.821 217.618 649.72 217.719C649.619 217.82 649.549 217.948 649.518 218.087C649.487 218.226 649.496 218.372 649.545 218.506L655.545 235.006C655.597 235.149 655.691 235.272 655.815 235.361C655.938 235.449 656.086 235.498 656.238 235.5L656.25 235.5C656.4 235.5 656.547 235.455 656.671 235.371C656.795 235.287 656.891 235.168 656.947 235.028L659.828 227.827L667.029 224.947C667.17 224.891 667.292 224.793 667.376 224.666C667.461 224.539 667.504 224.39 667.502 224.238C667.5 224.086 667.451 223.938 667.362 223.814C667.274 223.69 667.15 223.596 667.007 223.544L667.007 223.545ZM658.971 226.552L658.673 226.672L658.553 226.971L656.284 232.647L651.504 219.504L664.647 224.283L658.971 226.552Z" fill="currentColor" fill-rule="nonzero" />
  </g>
</svg>

