<svg viewBox="0 0 24 24" xmlns="http://www.w3.org/2000/svg" fill="none">
  <g transform="translate(-576 -216)">
<path id="Icon" d="M588 234L583.433 227.55C582.685 226.667 582.203 225.59 582.044 224.445C581.885 223.299 582.055 222.131 582.533 221.078C583.012 220.025 583.78 219.13 584.748 218.496C585.716 217.863 586.844 217.517 588 217.5C589.603 217.516 591.135 218.166 592.259 219.309C593.384 220.452 594.01 221.994 594 223.598C594.001 224.996 593.524 226.353 592.65 227.445L588 234ZM588 219C586.794 219.014 585.643 219.506 584.799 220.368C583.955 221.23 583.488 222.391 583.5 223.598C583.505 224.698 583.902 225.761 584.617 226.598L588 231.39L591.472 226.5C592.133 225.676 592.495 224.653 592.5 223.598C592.512 222.391 592.045 221.23 591.201 220.368C590.357 219.506 589.206 219.014 588 219ZM588 224.25C588.828 224.25 589.5 223.578 589.5 222.75C589.5 221.922 588.828 221.25 588 221.25C587.172 221.25 586.5 221.922 586.5 222.75C586.5 223.578 587.172 224.25 588 224.25ZM595.5 225L597 225C597.398 225 597.779 225.158 598.061 225.439C598.342 225.721 598.5 226.102 598.5 226.5L598.5 237C598.5 237.398 598.342 237.779 598.061 238.061C597.779 238.342 597.398 238.5 597 238.5L579 238.5C578.602 238.5 578.221 238.342 577.939 238.061C577.658 237.779 577.5 237.398 577.5 237L577.5 226.5C577.5 226.102 577.658 225.721 577.939 225.439C578.221 225.158 578.602 225 579 225L580.5 225L580.5 226.5L579 226.5L579 237L597 237L597 226.5L595.5 226.5L595.5 225Z" fill="currentColor" fill-rule="evenodd" />
  </g>
</svg>

