<svg viewBox="0 0 24 24" xmlns="http://www.w3.org/2000/svg" fill="none">
  <g transform="translate(-792 -216)">
<path id="Icon" d="M814.5 237.443L794.557 217.5L793.5 218.557L799.5 224.557L793.995 226.545C793.853 226.599 793.73 226.695 793.644 226.82C793.557 226.945 793.511 227.094 793.511 227.246C793.511 227.398 793.557 227.547 793.644 227.672C793.73 227.798 793.853 227.893 793.995 227.947L801.195 230.827L804.075 238.027C804.129 238.164 804.222 238.281 804.342 238.365C804.462 238.449 804.604 238.496 804.75 238.5C804.902 238.497 805.049 238.448 805.172 238.36C805.295 238.271 805.388 238.148 805.44 238.005L807.45 232.5L813.45 238.5L814.5 237.443ZM796.35 227.25L800.655 225.75L802.943 228L801.57 229.372L796.35 227.25ZM804.75 235.65L802.657 230.4L804 229.057L806.25 231.345L804.75 235.65ZM803.768 224.587L809.497 222.503L807.412 228.232L808.583 229.402L811.455 221.505C811.503 221.371 811.513 221.226 811.481 221.087C811.451 220.948 811.381 220.821 811.28 220.72C811.179 220.619 811.052 220.55 810.913 220.519C810.774 220.487 810.629 220.497 810.495 220.545L802.597 223.417L803.768 224.587Z" fill="currentColor" fill-rule="nonzero" />
  </g>
</svg>

