<svg viewBox="0 0 24 24" xmlns="http://www.w3.org/2000/svg" fill="none">
  <g transform="translate(-0 -288)">
<path id="Icon" d="M22.5 309.443L2.5575 289.5L1.5 290.557L7.5 296.557L1.995 298.545C1.8527 298.599 1.73019 298.695 1.64374 298.82C1.55729 298.945 1.51099 299.094 1.51099 299.246C1.51099 299.398 1.55729 299.547 1.64374 299.672C1.73019 299.797 1.8527 299.893 1.995 299.948L8.4375 302.52L10.9425 300L12 301.057L9.4725 303.585L12.0525 310.027C12.1081 310.167 12.2043 310.287 12.3286 310.371C12.453 310.455 12.5998 310.5 12.75 310.5C12.9016 310.497 13.0486 310.448 13.1718 310.36C13.295 310.271 13.3885 310.148 13.44 310.005L15.45 304.5L21.45 310.5L22.5 309.443ZM16.8675 300.622L19.455 293.505C19.5033 293.371 19.5125 293.226 19.4815 293.087C19.4505 292.948 19.3805 292.821 19.2798 292.72C19.1792 292.619 19.0519 292.55 18.9129 292.519C18.7739 292.487 18.6289 292.497 18.495 292.545L11.3775 295.133L16.8675 300.622Z" fill="currentColor" fill-rule="nonzero" />
  </g>
</svg>

