<svg viewBox="0 0 24 24" xmlns="http://www.w3.org/2000/svg" fill="none">
  <g transform="translate(-72 -288)">
<path id="Icon" d="M79.6505 301.168L78.587 302.231C77.8806 301.563 77.328 300.749 76.9677 299.845C76.6069 298.942 76.4476 297.971 76.5 297C76.4978 295.527 76.9303 294.087 77.7426 292.859C78.5548 291.63 79.7109 290.669 81.0667 290.094C82.4224 289.519 83.9172 289.357 85.3649 289.627C86.8125 289.897 88.1484 290.588 89.2057 291.613L88.1451 292.673C87.2974 291.858 86.2288 291.31 85.0723 291.098C83.9158 290.887 82.7227 291.02 81.6412 291.481C80.5598 291.942 79.6377 292.711 78.9902 293.693C78.3428 294.674 77.9985 295.824 78 297C77.9462 297.774 78.0663 298.55 78.3519 299.271C78.6376 299.993 79.0814 300.641 79.6505 301.168ZM93.4395 289.5L94.5 290.56L90.9181 294.143C91.299 295.047 91.4967 296.018 91.5 297C91.5491 298.09 91.3389 299.175 90.8873 300.168C90.4354 301.16 89.755 302.032 88.9014 302.711C88.1444 303.412 87.75 303.81 87.75 304.5L86.25 304.5C86.25 303.12 87.0802 302.351 87.8837 301.607C88.5864 301.071 89.1471 300.371 89.5162 299.567C89.885 298.764 90.0513 297.883 90 297C89.9993 296.429 89.9132 295.861 89.7458 295.315L74.5605 310.5L73.5 309.44L93.4395 289.5ZM87.75 306L81 306L81 307.5L87.75 307.5L87.75 306ZM86.25 309L81.75 309L81.75 310.5L86.25 310.5L86.25 309Z" fill="currentColor" fill-rule="evenodd" />
  </g>
</svg>

