<svg viewBox="0 0 24 24" xmlns="http://www.w3.org/2000/svg" fill="none">
  <g transform="translate(-216 -288)">
<path id="Icon" d="M232.5 294L231.75 294L231.75 289.5L230.25 289.5L230.25 294L225.75 294L225.75 289.5L224.25 289.5L224.25 294L223.5 294C223.102 294 222.721 294.158 222.439 294.439C222.158 294.721 222 295.102 222 295.5L222 300C222.003 301.46 222.537 302.869 223.504 303.964C224.47 305.058 225.802 305.763 227.25 305.948L227.25 310.5L228.75 310.5L228.75 305.948C230.198 305.763 231.53 305.058 232.496 303.964C233.463 302.869 233.997 301.46 234 300L234 295.5C234 295.102 233.842 294.721 233.561 294.439C233.279 294.158 232.898 294 232.5 294Z" fill="currentColor" fill-rule="nonzero" />
  </g>
</svg>

