<svg viewBox="0 0 24 24" xmlns="http://www.w3.org/2000/svg" fill="none">
  <g transform="translate(-144 -288)">
<path id="Icon" d="M160.5 294L159.75 294L159.75 289.5L158.25 289.5L158.25 294L153.75 294L153.75 289.5L152.25 289.5L152.25 294L151.5 294C151.102 294 150.721 294.158 150.439 294.439C150.158 294.721 150 295.102 150 295.5L150 300C150.003 301.46 150.537 302.869 151.504 303.964C152.47 305.058 153.802 305.763 155.25 305.948L155.25 310.5L156.75 310.5L156.75 305.948C158.198 305.763 159.53 305.058 160.496 303.964C161.463 302.869 161.997 301.46 162 300L162 295.5C162 295.102 161.842 294.721 161.561 294.439C161.279 294.158 160.898 294 160.5 294ZM160.5 300C160.5 301.193 160.026 302.338 159.182 303.182C158.338 304.026 157.193 304.5 156 304.5C154.807 304.5 153.662 304.026 152.818 303.182C151.974 302.338 151.5 301.193 151.5 300L151.5 295.5L160.5 295.5L160.5 300Z" fill="currentColor" fill-rule="nonzero" />
  </g>
</svg>

