<svg viewBox="0 0 24 24" xmlns="http://www.w3.org/2000/svg" fill="none">
  <g transform="translate(-144 -648)">
<path id="Icon" d="M156 650.25C157.346 650.25 158.594 650.488 159.742 650.964C160.893 651.44 161.943 652.154 162.895 653.106C163.846 654.058 164.561 655.108 165.035 656.257C165.512 657.406 165.75 658.654 165.75 660C165.75 661.346 165.512 662.594 165.035 663.743C164.561 664.892 163.846 665.942 162.895 666.894C161.943 667.846 160.893 668.56 159.742 669.036C158.594 669.512 157.346 669.75 156 669.75C154.654 669.75 153.406 669.512 152.258 669.036C151.107 668.56 150.057 667.846 149.105 666.894C148.154 665.942 147.439 664.892 146.965 663.743C146.488 662.594 146.25 661.346 146.25 660C146.25 658.654 146.488 657.406 146.965 656.257C147.439 655.108 148.154 654.058 149.105 653.106C150.057 652.154 151.107 651.44 152.258 650.964C153.406 650.488 154.654 650.25 156 650.25ZM156 651.75C154.861 651.75 153.805 651.951 152.832 652.354C151.861 652.757 150.973 653.361 150.166 654.166C149.361 654.972 148.756 655.861 148.354 656.833C147.951 657.805 147.75 658.861 147.75 660C147.75 661.139 147.951 662.195 148.354 663.167C148.756 664.139 149.361 665.028 150.166 665.834C150.973 666.639 151.861 667.243 152.832 667.646C153.805 668.049 154.861 668.25 156 668.25C157.139 668.25 158.195 668.049 159.168 667.646C160.139 667.243 161.027 666.639 161.834 665.834C162.639 665.028 163.244 664.139 163.646 663.167C164.049 662.195 164.25 661.139 164.25 660C164.25 658.861 164.049 657.805 163.646 656.833C163.244 655.861 162.639 654.972 161.834 654.166C161.027 653.361 160.139 652.757 159.168 652.354C158.195 651.951 157.139 651.75 156 651.75ZM156.75 664.5L156.75 660.75L160.5 660.75L160.5 659.25L156.75 659.25L156.75 655.5L155.25 655.5L155.25 659.25L151.5 659.25L151.5 660.75L155.25 660.75L155.25 664.5L156.75 664.5Z" fill="currentColor" fill-rule="evenodd" />
  </g>
</svg>

