<svg viewBox="0 0 24 24" xmlns="http://www.w3.org/2000/svg" fill="none">
  <g transform="translate(-576 -576)">
<path id="Icon" d="M580.767 587.25L577.5 587.25L577.5 588.75L581.25 588.75C581.397 588.75 581.532 588.71 581.656 588.631C581.78 588.551 581.872 588.444 581.933 588.31L584.939 581.697L590.299 595.767C590.373 595.961 590.504 596.1 590.693 596.184C590.882 596.269 591.073 596.275 591.267 596.201C591.355 596.167 591.434 596.119 591.503 596.056C591.573 595.993 591.629 595.919 591.671 595.835L595.214 588.75L598.5 588.75L598.5 587.25L594.75 587.25C594.608 587.25 594.477 587.287 594.356 587.362C594.235 587.437 594.143 587.538 594.079 587.665L591.093 593.637L585.701 579.483C585.666 579.391 585.614 579.309 585.547 579.237C585.479 579.165 585.4 579.108 585.31 579.067C585.122 578.982 584.931 578.975 584.737 579.048C584.543 579.12 584.403 579.251 584.317 579.44L580.767 587.25Z" fill="currentColor" fill-rule="evenodd" />
  </g>
</svg>

