<svg viewBox="0 0 24 24" xmlns="http://www.w3.org/2000/svg" fill="none">
  <g transform="translate(-792 -504)">
<path id="Icon" d="M811.5 517.5C811.5 518.983 811.06 520.433 810.236 521.667C809.412 522.9 808.241 523.861 806.87 524.429C805.5 524.997 803.992 525.145 802.537 524.856C801.082 524.567 799.746 523.852 798.697 522.803C797.648 521.754 796.933 520.418 796.644 518.963C796.355 517.508 796.503 516 797.071 514.63C797.639 513.259 798.6 512.088 799.833 511.264C801.067 510.44 802.517 510 804 510L808.636 510L805.948 512.689L807 513.75L811.5 509.25L807 504.75L805.948 505.81L808.639 508.5L804 508.5C802.22 508.5 800.48 509.028 799 510.017C797.52 511.006 796.366 512.411 795.685 514.056C795.004 515.7 794.826 517.51 795.173 519.256C795.52 521.002 796.377 522.605 797.636 523.864C798.895 525.123 800.498 525.98 802.244 526.327C803.99 526.674 805.8 526.496 807.444 525.815C809.089 525.134 810.494 523.98 811.483 522.5C812.472 521.02 813 519.28 813 517.5L811.5 517.5Z" fill="currentColor" fill-rule="nonzero" />
  </g>
</svg>

