<svg viewBox="0 0 24 24" xmlns="http://www.w3.org/2000/svg" fill="none">
  <g transform="translate(-360 -648)">
<path id="Icon" d="M363 666L361.5 666L361.5 669C361.5 669.398 361.658 669.779 361.939 670.061C362.221 670.342 362.602 670.5 363 670.5L366 670.5L366 669L363 669L363 666ZM361.5 651L361.5 654L363 654L363 651L366 651L366 649.5L363 649.5C362.602 649.5 362.221 649.658 361.939 649.939C361.658 650.221 361.5 650.602 361.5 651ZM381 649.5L378 649.5L378 651L381 651L381 654L382.5 654L382.5 651C382.5 650.602 382.342 650.221 382.061 649.939C381.779 649.658 381.398 649.5 381 649.5ZM381 669L378 669L378 670.5L381 670.5C381.398 670.5 381.779 670.342 382.061 670.061C382.342 669.779 382.5 669.398 382.5 669L382.5 666L381 666L381 669ZM372 660C372.493 660 372.98 659.903 373.435 659.714C373.89 659.526 374.304 659.25 374.652 658.901C375 658.553 375.276 658.14 375.465 657.684C375.653 657.229 375.75 656.742 375.75 656.249C375.75 655.757 375.653 655.269 375.464 654.814C375.276 654.359 375 653.946 374.651 653.597C374.303 653.249 373.89 652.973 373.434 652.785C372.979 652.596 372.492 652.499 371.999 652.499C371.005 652.499 370.051 652.895 369.347 653.598C368.644 654.301 368.249 655.255 368.249 656.25C368.249 657.245 368.645 658.199 369.348 658.902C370.051 659.605 371.005 660 372 660ZM371.924 654L372 654C372.445 654 372.88 654.132 373.25 654.379C373.62 654.626 373.908 654.978 374.079 655.389C374.249 655.8 374.294 656.253 374.207 656.689C374.12 657.125 373.906 657.526 373.591 657.841C373.276 658.156 372.875 658.37 372.439 658.457C372.002 658.544 371.55 658.499 371.139 658.329C370.728 658.158 370.376 657.87 370.129 657.5C369.882 657.13 369.75 656.695 369.75 656.25C369.74 655.663 369.963 655.097 370.371 654.675C370.779 654.253 371.338 654.01 371.924 654ZM373.5 661.5L370.5 661.5C369.505 661.5 368.552 661.895 367.848 662.598C367.145 663.302 366.75 664.255 366.75 665.25L366.75 667.5L368.25 667.5L368.25 665.25C368.25 664.653 368.487 664.081 368.909 663.659C369.331 663.237 369.903 663 370.5 663L373.5 663C374.097 663 374.669 663.237 375.091 663.659C375.513 664.081 375.75 664.653 375.75 665.25L375.75 667.5L377.25 667.5L377.25 665.25C377.25 664.758 377.153 664.27 376.965 663.815C376.776 663.36 376.5 662.947 376.152 662.598C375.803 662.25 375.39 661.974 374.935 661.785C374.48 661.597 373.992 661.5 373.5 661.5Z" fill="currentColor" fill-rule="nonzero" />
  </g>
</svg>

