<svg viewBox="0 0 24 24" xmlns="http://www.w3.org/2000/svg" fill="none">
  <g transform="translate(-216 -432)">
<path id="Icon" d="M237.783 438.467L233.033 434.717C232.962 434.648 232.879 434.593 232.788 434.556C232.697 434.518 232.599 434.499 232.5 434.5L219.5 434.5C219.237 434.5 218.978 434.569 218.75 434.701C218.522 434.833 218.333 435.022 218.201 435.25C218.069 435.478 218 435.737 218 436L218 452C218 452.263 218.069 452.522 218.201 452.75C218.333 452.978 218.522 453.167 218.75 453.299C218.978 453.431 219.237 453.5 219.5 453.5L236.5 453.5C236.763 453.5 237.022 453.431 237.25 453.299C237.478 453.167 237.667 452.978 237.799 452.75C237.931 452.522 238 452.263 238 452L238 439C238.001 438.901 237.982 438.803 237.944 438.712C237.907 438.621 237.852 438.538 237.783 438.467ZM225 436L231 436L231 439L225 439L225 436ZM231 452L225 452L225 446L231 446L231 452ZM232.5 452L232.5 446C232.5 445.737 232.431 445.478 232.299 445.25C232.167 445.022 231.978 444.833 231.75 444.701C231.522 444.569 231.263 444.5 231 444.5L225 444.5C224.737 444.5 224.478 444.569 224.25 444.701C224.022 444.833 223.833 445.022 223.701 445.25C223.569 445.478 223.5 445.737 223.5 446L223.5 452L219.5 452L219.5 436L223.5 436L223.5 439C223.5 439.263 223.569 439.522 223.701 439.75C223.833 439.978 224.022 440.167 224.25 440.299C224.478 440.431 224.737 440.5 225 440.5L231 440.5C231.263 440.5 231.522 440.431 231.75 440.299C231.978 440.167 232.167 439.978 232.299 439.75C232.431 439.522 232.5 439.263 232.5 439L232.5 436.308L236.5 439.308L236.5 452L232.5 452Z" fill="currentColor" fill-rule="nonzero" />
  </g>
</svg>

