<svg viewBox="0 0 24 24" xmlns="http://www.w3.org/2000/svg" fill="none">
  <g transform="translate(-432 -648)">
<path id="Icon" d="M437.25 653.25L439.5 653.25L439.5 655.5L448.5 655.5L448.5 653.25L450.75 653.25L450.75 661.5L452.25 661.5L452.25 653.25C452.249 652.853 452.09 652.472 451.809 652.191C451.528 651.91 451.147 651.751 450.75 651.75L448.5 651.75L448.5 651C448.499 650.603 448.34 650.222 448.059 649.941C447.778 649.66 447.397 649.501 447 649.5L441 649.5C440.603 649.501 440.222 649.66 439.941 649.941C439.66 650.222 439.501 650.603 439.5 651L439.5 651.75L437.25 651.75C436.853 651.751 436.472 651.91 436.191 652.191C435.91 652.472 435.751 652.853 435.75 653.25L435.75 669C435.751 669.397 435.91 669.778 436.191 670.059C436.472 670.34 436.853 670.499 437.25 670.5L444 670.5L444 669L437.25 669L437.25 653.25ZM441 651L447 651L447 654L441 654L441 651ZM454.5 666L448.371 666L450.31 664.06L449.25 663L445.5 666.75L449.25 670.5L450.31 669.44L448.371 667.5L454.5 667.5L454.5 666ZM441 657.75L439.5 657.75L439.5 659.25L441 659.25L441 657.75ZM448.5 657.75L442.5 657.75L442.5 659.25L448.5 659.25L448.5 657.75ZM441 661.5L439.5 661.5L439.5 663L441 663L441 661.5ZM439.5 666.75L441 666.75L441 665.25L439.5 665.25L439.5 666.75ZM442.5 663L445.5 663L445.5 661.5L442.5 661.5L442.5 663Z" fill="currentColor" fill-rule="nonzero" />
  </g>
</svg>

