<svg viewBox="0 0 24 24" xmlns="http://www.w3.org/2000/svg" fill="none">
  <g transform="translate(-0 -432)">
<path id="Icon" d="M18.0001 441.75C18.0012 443.671 17.3233 445.531 16.0863 447L21.7501 452.69L20.6896 453.75L15.0001 448.086C13.5305 449.323 11.6712 450.001 9.75007 450C8.11822 450 6.52337 449.516 5.16655 448.61C3.80973 447.703 2.75247 446.415 2.12808 444.907C1.50369 443.4 1.34036 441.741 1.6586 440.141C1.97684 438.54 2.76273 437.07 3.9163 435.916C5.07023 434.763 6.54021 433.977 8.14056 433.659C9.74091 433.34 11.3999 433.504 12.9072 434.128C14.4149 434.752 15.7032 435.81 16.6096 437.167C17.5163 438.523 18.0001 440.118 18.0001 441.75ZM6.00005 447.362C7.11004 448.104 8.41522 448.5 9.75007 448.5C11.5397 448.498 13.2555 447.786 14.5207 446.521C15.7863 445.255 16.4983 443.54 16.5001 441.75C16.5001 440.415 16.1042 439.11 15.3626 438C14.6207 436.89 13.5667 436.025 12.3333 435.514C11.0999 435.003 9.74274 434.869 8.43317 435.13C7.12396 435.39 5.92095 436.033 4.97722 436.977C4.03312 437.921 3.39005 439.124 3.12967 440.433C2.8693 441.742 3.00296 443.1 3.51383 444.333C4.0247 445.567 4.89006 446.621 6.00005 447.362Z" fill="currentColor" fill-rule="evenodd" />
  </g>
</svg>

