<svg viewBox="0 0 24 24" xmlns="http://www.w3.org/2000/svg" fill="none">
  <g transform="translate(-360 -288)">
<path id="Icon" d="M380.783 291.217C380.681 291.117 380.553 291.047 380.414 291.016C380.274 290.986 380.129 290.996 379.995 291.045L363.495 297.045C363.353 297.099 363.23 297.195 363.144 297.32C363.057 297.446 363.011 297.594 363.011 297.746C363.011 297.898 363.057 298.047 363.144 298.172C363.23 298.298 363.353 298.394 363.495 298.448L369.938 301.02L374.693 296.25L375.75 297.308L370.973 302.085L373.552 308.528C373.608 308.667 373.704 308.787 373.829 308.871C373.953 308.955 374.1 309 374.25 309C374.402 308.997 374.549 308.948 374.672 308.86C374.795 308.771 374.888 308.648 374.94 308.505L380.94 292.005C380.991 291.872 381.003 291.728 380.976 291.588C380.948 291.449 380.881 291.32 380.783 291.217Z" fill="currentColor" fill-rule="nonzero" />
  </g>
</svg>

