<svg viewBox="0 0 24 24" xmlns="http://www.w3.org/2000/svg" fill="none">
  <g transform="translate(-288 -288)">
<path id="Icon" d="M308.783 291.217C308.681 291.117 308.553 291.047 308.414 291.016C308.274 290.986 308.129 290.996 307.995 291.045L291.495 297.045C291.353 297.099 291.23 297.195 291.144 297.32C291.057 297.446 291.011 297.594 291.011 297.746C291.011 297.898 291.057 298.047 291.144 298.172C291.23 298.298 291.353 298.394 291.495 298.448L298.695 301.328L301.575 308.528C301.629 308.664 301.722 308.781 301.842 308.865C301.962 308.949 302.104 308.996 302.25 309C302.402 308.997 302.549 308.948 302.672 308.86C302.795 308.771 302.888 308.648 302.94 308.505L308.94 292.005C308.991 291.872 309.003 291.728 308.976 291.588C308.948 291.449 308.881 291.32 308.783 291.217ZM302.25 306.15L300.158 300.9L303.75 297.308L302.693 296.25L299.07 299.872L293.85 297.75L306.997 293.003L302.25 306.15Z" fill="currentColor" fill-rule="nonzero" />
  </g>
</svg>

