<svg viewBox="0 0 24 24" xmlns="http://www.w3.org/2000/svg" fill="none">
  <g transform="translate(-504 -288)">
<path id="Icon" d="M526.5 294L523.425 294C523.05 292.275 521.55 291 519.75 291C517.95 291 516.45 292.275 516.075 294L505.5 294L505.5 295.5L516.075 295.5C516.45 297.225 517.95 298.5 519.75 298.5C521.55 298.5 523.05 297.225 523.425 295.5L526.5 295.5L526.5 294ZM519.75 297C518.475 297 517.5 296.025 517.5 294.75C517.5 293.475 518.475 292.5 519.75 292.5C521.025 292.5 522 293.475 522 294.75C522 296.025 521.025 297 519.75 297ZM505.5 306L508.575 306C508.95 307.725 510.45 309 512.25 309C514.05 309 515.55 307.725 515.925 306L526.5 306L526.5 304.5L515.925 304.5C515.55 302.775 514.05 301.5 512.25 301.5C510.45 301.5 508.95 302.775 508.575 304.5L505.5 304.5L505.5 306ZM512.25 303C513.525 303 514.5 303.975 514.5 305.25C514.5 306.525 513.525 307.5 512.25 307.5C510.975 307.5 510 306.525 510 305.25C510 303.975 510.975 303 512.25 303Z" fill="currentColor" fill-rule="nonzero" />
  </g>
</svg>

