<svg viewBox="0 0 24 24" xmlns="http://www.w3.org/2000/svg" fill="none">
  <g transform="translate(-576 -288)">
<path id="Icon" d="M597.96 296.25L596.66 297L594.91 293.967L592.325 294.841C591.724 294.335 591.04 293.936 590.303 293.662L589.771 291L586.23 291L585.698 293.662C584.955 293.932 584.266 294.329 583.661 294.837L581.091 293.967L579.32 297.032L581.359 298.825C581.223 299.601 581.224 300.395 581.365 301.171L579.321 302.967L581.091 306.033L583.676 305.159C584.277 305.665 584.961 306.064 585.698 306.338L586.23 309L588 309L588 310.5L586.23 310.5C585.883 310.5 585.547 310.38 585.279 310.16C585.01 309.94 584.826 309.634 584.759 309.294L584.381 307.405C584.039 307.237 583.711 307.048 583.397 306.836L581.572 307.453C581.243 307.565 580.886 307.559 580.562 307.437C580.237 307.314 579.965 307.083 579.791 306.783L578.021 303.717C577.848 303.417 577.784 303.065 577.841 302.723C577.897 302.381 578.071 302.069 578.331 301.84L579.771 300.574C579.757 300.385 579.75 300.193 579.75 300C579.75 299.809 579.766 299.621 579.779 299.432L578.33 298.16C578.07 297.931 577.897 297.619 577.84 297.276C577.784 296.934 577.848 296.583 578.021 296.283L579.791 293.217C579.965 292.917 580.237 292.686 580.561 292.564C580.886 292.441 581.243 292.435 581.571 292.547L583.386 293.16C583.702 292.947 584.036 292.763 584.381 292.595L584.759 290.706C584.826 290.366 585.01 290.06 585.279 289.84C585.547 289.62 585.883 289.5 586.23 289.5L589.77 289.5C590.117 289.5 590.453 289.62 590.721 289.84C590.989 290.059 591.173 290.365 591.241 290.705L591.619 292.595C591.959 292.762 592.288 292.952 592.603 293.164L594.428 292.547C594.757 292.435 595.114 292.441 595.438 292.564C595.763 292.686 596.035 292.917 596.208 293.217L597.96 296.25ZM583.5 300C583.5 302.523 585.477 304.5 588 304.5C590.523 304.5 592.5 302.523 592.5 300C592.5 297.477 590.523 295.5 588 295.5C585.477 295.5 583.5 297.477 583.5 300ZM585 300C585 298.29 586.29 297 588 297C589.71 297 591 298.29 591 300C591 301.71 589.71 303 588 303C586.29 303 585 301.71 585 300ZM597.53 300.22L599.78 302.47C599.921 302.61 600 302.801 600 303C600 303.199 599.921 303.39 599.78 303.53L592.811 310.5L589.5 310.5L589.5 307.19L596.47 300.22C596.61 300.079 596.801 300 597 300C597.199 300 597.39 300.079 597.53 300.22ZM595.811 303L597 304.19L598.189 303L597 301.81L595.811 303ZM591 309L592.189 309L595.939 305.25L594.75 304.06L591 307.81L591 309Z" fill="currentColor" fill-rule="evenodd" />
  </g>
</svg>

