<svg viewBox="0 0 24 24" xmlns="http://www.w3.org/2000/svg" fill="none">
  <g transform="translate(-432 -288)">
<path id="Icon" d="M452.25 299.423L452.25 300.57L453.667 301.868C453.929 302.097 454.103 302.41 454.159 302.754C454.215 303.097 454.15 303.449 453.975 303.75L452.265 306.75C452.133 306.978 451.944 307.167 451.717 307.299C451.489 307.43 451.231 307.5 450.967 307.5C450.804 307.501 450.642 307.476 450.488 307.425L448.673 306.81C448.355 307.019 448.024 307.207 447.682 307.373L447.3 309.263C447.231 309.608 447.044 309.918 446.769 310.139C446.495 310.359 446.152 310.477 445.8 310.47L442.26 310.47C441.908 310.477 441.565 310.359 441.29 310.139C441.016 309.918 440.828 309.608 440.76 309.263L440.377 307.373C440.037 307.208 439.709 307.02 439.395 306.81L437.572 307.425C437.417 307.476 437.256 307.501 437.092 307.5C436.829 307.5 436.571 307.43 436.343 307.299C436.115 307.167 435.927 306.978 435.795 306.75L434.025 303.75C433.842 303.446 433.772 303.088 433.828 302.738C433.885 302.387 434.063 302.069 434.332 301.838L435.75 300.578L435.75 299.43L434.332 298.133C434.071 297.903 433.897 297.59 433.841 297.246C433.785 296.903 433.85 296.551 434.025 296.25L435.795 293.25C435.927 293.022 436.115 292.833 436.343 292.701C436.571 292.57 436.829 292.5 437.092 292.5C437.254 292.489 437.416 292.504 437.572 292.545L439.357 293.19C439.675 292.981 440.005 292.793 440.347 292.628L440.73 290.738C440.798 290.392 440.986 290.082 441.26 289.861C441.535 289.641 441.878 289.523 442.23 289.53L445.74 289.53C446.092 289.523 446.435 289.641 446.709 289.861C446.984 290.082 447.171 290.392 447.24 290.738L447.622 292.628C447.962 292.792 448.291 292.98 448.605 293.19L450.427 292.575C450.582 292.524 450.744 292.499 450.908 292.5C451.171 292.5 451.429 292.57 451.656 292.701C451.884 292.833 452.073 293.022 452.205 293.25L453.975 296.25C454.161 296.551 454.234 296.908 454.182 297.258C454.13 297.608 453.955 297.929 453.69 298.163L452.25 299.423ZM448.335 305.13L450.908 306L452.677 303L450.637 301.148C450.776 300.371 450.776 299.576 450.637 298.8L452.677 297L450.908 294L448.327 294.84C447.723 294.337 447.038 293.939 446.302 293.663L445.77 291L442.23 291L441.697 293.693C440.956 293.962 440.267 294.361 439.665 294.87L437.092 294L435.322 297L437.362 298.853C437.224 299.629 437.224 300.424 437.362 301.2L435.322 303L437.092 306L439.673 305.16C440.277 305.663 440.961 306.061 441.697 306.338L442.23 309L445.77 309L446.302 306.308C447.044 306.038 447.733 305.64 448.335 305.13ZM441.5 303.742C442.24 304.236 443.11 304.5 444 304.5C444.593 304.506 445.181 304.394 445.729 304.17C446.278 303.946 446.776 303.614 447.196 303.195C447.615 302.776 447.946 302.278 448.17 301.729C448.394 301.181 448.506 300.593 448.5 300C448.5 299.11 448.236 298.24 447.742 297.5C447.247 296.76 446.545 296.183 445.722 295.843C444.9 295.502 443.995 295.413 443.122 295.586C442.249 295.76 441.448 296.189 440.818 296.818C440.189 297.447 439.76 298.249 439.586 299.122C439.413 299.995 439.502 300.9 439.842 301.722C440.183 302.544 440.76 303.247 441.5 303.742ZM442.841 297.21C443.209 297.062 443.603 296.991 444 297C444.397 296.991 444.791 297.062 445.159 297.21C445.527 297.357 445.862 297.578 446.142 297.858C446.423 298.139 446.643 298.473 446.791 298.841C446.938 299.209 447.009 299.604 447 300C447.009 300.397 446.938 300.791 446.791 301.159C446.643 301.527 446.423 301.861 446.142 302.142C445.862 302.422 445.527 302.643 445.159 302.79C444.791 302.938 444.397 303.009 444 303C443.603 303.009 443.209 302.938 442.841 302.79C442.473 302.643 442.139 302.422 441.858 302.142C441.578 301.861 441.357 301.527 441.21 301.159C441.062 300.791 440.991 300.397 441 300C440.991 299.604 441.062 299.209 441.21 298.841C441.357 298.473 441.578 298.139 441.858 297.858C442.139 297.578 442.473 297.357 442.841 297.21Z" fill="currentColor" fill-rule="evenodd" />
  </g>
</svg>

