<svg viewBox="0 0 24 24" xmlns="http://www.w3.org/2000/svg" fill="none">
  <g transform="translate(-432 -360)">
<path id="Icon" d="M437.5 364.75L443.5 364.75L443.5 362.75L436.5 362.75C436.362 362.75 436.234 362.774 436.116 362.823C435.998 362.872 435.891 362.945 435.793 363.043C435.695 363.141 435.622 363.248 435.573 363.366C435.524 363.484 435.5 363.612 435.5 363.75L435.5 380.25C435.5 380.388 435.524 380.516 435.573 380.634L435.573 380.634C435.622 380.752 435.695 380.859 435.793 380.957C435.891 381.055 435.998 381.128 436.116 381.177C436.234 381.226 436.362 381.25 436.5 381.25L443.5 381.25L443.5 379.25L437.5 379.25L437.5 364.75ZM448.557 368.971L448.543 368.957L447.836 368.25L449.25 366.836L449.957 367.543L449.971 367.557L454.414 372L449.971 376.443L449.957 376.457L449.25 377.164L447.836 375.75L450.586 373L441.5 373L441.5 371L450.586 371L448.557 368.971Z" fill="currentColor" fill-rule="evenodd" />
  </g>
</svg>

