<svg viewBox="0 0 24 24" xmlns="http://www.w3.org/2000/svg" fill="none">
  <g transform="translate(-144 -360)">
<path id="Icon" d="M155.75 364.75L161.75 364.75L161.75 379.25L155.75 379.25L155.75 381.25L162.75 381.25C162.888 381.25 163.016 381.226 163.134 381.177C163.252 381.128 163.359 381.055 163.457 380.957C163.555 380.859 163.628 380.752 163.677 380.634C163.726 380.516 163.75 380.388 163.75 380.25L163.75 363.75C163.75 363.612 163.726 363.484 163.677 363.366C163.628 363.248 163.555 363.141 163.457 363.043C163.359 362.945 163.252 362.872 163.134 362.823L163.134 362.823C163.016 362.774 162.888 362.75 162.75 362.75L155.75 362.75L155.75 364.75ZM152.307 368.971L152.293 368.957L151.586 368.25L153 366.836L153.707 367.543L153.721 367.557L158.164 372L153.721 376.443L153.707 376.457L153 377.164L151.586 375.75L152.293 375.043L152.307 375.029L154.336 373L145.25 373L145.25 371L154.336 371L152.307 368.971Z" fill="currentColor" fill-rule="evenodd" />
  </g>
</svg>

