<svg viewBox="0 0 24 24" xmlns="http://www.w3.org/2000/svg" fill="none">
  <g transform="translate(-720 -576)">
<path id="Icon" d="M732 589.5C732.135 589.5 732.261 589.466 732.378 589.398L741.378 584.148C741.557 584.043 741.673 583.891 741.725 583.691C741.778 583.491 741.752 583.301 741.648 583.122C741.615 583.066 741.576 583.015 741.53 582.97C741.485 582.924 741.434 582.885 741.378 582.852L732.378 577.602C732.261 577.534 732.135 577.5 732 577.5C731.865 577.5 731.739 577.534 731.622 577.602L722.622 582.852C722.443 582.957 722.327 583.109 722.275 583.309C722.222 583.509 722.248 583.699 722.352 583.878C722.385 583.934 722.424 583.985 722.47 584.03C722.515 584.076 722.566 584.115 722.622 584.148L731.622 589.398C731.739 589.466 731.865 589.5 732 589.5ZM732 587.882L739.511 583.5L732 579.118L724.488 583.5L732 587.882ZM732 592.382L723.378 587.352L722.73 586.974L721.974 588.27L722.622 588.648L731.622 593.898C731.739 593.966 731.865 594 732 594C732.135 594 732.261 593.966 732.378 593.898L741.378 588.648L742.026 588.27L741.27 586.974L740.622 587.352L732 592.382ZM732 596.882L723.378 591.852L722.73 591.474L721.974 592.77L722.622 593.148L731.622 598.398C731.739 598.466 731.865 598.5 732 598.5C732.135 598.5 732.261 598.466 732.378 598.398L741.378 593.148L742.026 592.77L741.27 591.474L740.622 591.852L732 596.882Z" fill="currentColor" fill-rule="evenodd" />
  </g>
</svg>

