<svg viewBox="0 0 24 24" xmlns="http://www.w3.org/2000/svg" fill="none">
  <g transform="translate(-792 -648)">
<path id="Icon" d="M808.462 652.035L809.839 649.282L808.497 648.611L807.121 651.364L808.462 652.035ZM799.503 648.611L800.879 651.364L799.538 652.035L798.161 649.282L799.503 648.611ZM797.166 660.637C797.122 660.258 797.109 659.88 797.129 659.504C797.165 658.82 797.309 658.142 797.559 657.47C797.81 656.797 798.145 656.19 798.565 655.649C798.985 655.108 799.489 654.633 800.079 654.224C800.668 653.814 801.29 653.507 801.943 653.302C802.597 653.098 803.282 652.995 804 652.995C804.718 652.995 805.403 653.098 806.057 653.302C806.71 653.507 807.332 653.814 807.921 654.224C808.511 654.633 809.015 655.108 809.435 655.649C809.855 656.19 810.19 656.797 810.441 657.47C810.691 658.142 810.835 658.82 810.871 659.504C810.891 659.88 810.878 660.258 810.833 660.637L814.5 660.637L814.5 662.137L793.5 662.137L793.5 660.637L797.166 660.637ZM798.68 660.637L809.32 660.637C809.372 660.284 809.39 659.933 809.371 659.584C809.343 659.049 809.231 658.519 809.035 657.993C808.839 657.467 808.577 656.993 808.249 656.57C807.921 656.147 807.526 655.776 807.065 655.456C806.605 655.135 806.119 654.895 805.608 654.735C805.097 654.575 804.561 654.495 804 654.495C803.439 654.495 802.903 654.575 802.392 654.735C801.881 654.895 801.395 655.135 800.935 655.456C800.474 655.776 800.079 656.147 799.751 656.57C799.423 656.993 799.161 657.467 798.965 657.993C798.769 658.519 798.657 659.049 798.629 659.584C798.61 659.933 798.627 660.284 798.68 660.637ZM793.138 654.305L795.891 655.681L795.22 657.023L792.468 655.646L793.138 654.305ZM815.533 655.646L812.78 657.023L812.109 655.681L814.862 654.305L815.533 655.646ZM811.5 665.862L796.5 665.862L796.5 664.362L811.5 664.362L811.5 665.862ZM808.48 669.587L799.52 669.587L799.52 668.087L808.48 668.087L808.48 669.587Z" fill="currentColor" fill-rule="evenodd" />
  </g>
</svg>

