<svg viewBox="0 0 24 24" xmlns="http://www.w3.org/2000/svg" fill="none">
  <g transform="translate(-648 -288)">
<path id="Icon" d="M653.25 307.5L651 307.5C650.602 307.5 650.221 307.342 649.939 307.061C649.658 306.779 649.5 306.398 649.5 306L649.5 294C649.5 293.602 649.658 293.221 649.939 292.939C650.221 292.658 650.602 292.5 651 292.5L653.25 292.5L653.25 294L651 294L651 306L653.25 306L653.25 307.5ZM669 307.5L666.75 307.5L666.75 306L669 306L669 294L666.75 294L666.75 292.5L669 292.5C669.398 292.5 669.779 292.658 670.061 292.939C670.342 293.221 670.5 293.602 670.5 294L670.5 306C670.499 306.398 670.341 306.779 670.06 307.06C669.779 307.341 669.398 307.499 669 307.5ZM654.75 301.5C655.578 301.5 656.25 300.828 656.25 300C656.25 299.172 655.578 298.5 654.75 298.5C653.922 298.5 653.25 299.172 653.25 300C653.25 300.828 653.922 301.5 654.75 301.5ZM661.5 300C661.5 300.828 660.828 301.5 660 301.5C659.172 301.5 658.5 300.828 658.5 300C658.5 299.172 659.172 298.5 660 298.5C660.828 298.5 661.5 299.172 661.5 300ZM666.75 300C666.75 300.828 666.078 301.5 665.25 301.5C664.422 301.5 663.75 300.828 663.75 300C663.75 299.172 664.422 298.5 665.25 298.5C666.078 298.5 666.75 299.172 666.75 300Z" fill="currentColor" fill-rule="evenodd" />
  </g>
</svg>

