<svg viewBox="0 0 24 24" xmlns="http://www.w3.org/2000/svg" fill="none">
  <g transform="translate(-648 -576)">
<path id="Icon" d="M657.792 577.463C657.48 577.69 657.205 577.968 656.966 578.296L656.966 578.296C656.728 578.624 656.549 578.972 656.429 579.339C656.31 579.707 656.25 580.094 656.25 580.5L656.25 588.561C655.908 588.833 655.603 589.134 655.335 589.465C654.985 589.897 654.698 590.379 654.473 590.912C654.248 591.445 654.102 591.987 654.037 592.539C653.972 593.091 653.986 593.651 654.08 594.222C654.174 594.792 654.34 595.328 654.579 595.83C654.819 596.331 655.13 596.798 655.514 597.231C655.899 597.663 656.326 598.028 656.795 598.324C657.265 598.621 657.778 598.849 658.333 599.01C658.889 599.17 659.444 599.251 660 599.251C660.555 599.251 661.111 599.17 661.667 599.01C662.222 598.849 662.735 598.621 663.204 598.324C663.674 598.028 664.101 597.663 664.486 597.231C664.87 596.798 665.182 596.331 665.421 595.829C665.66 595.328 665.826 594.792 665.92 594.222C666.014 593.651 666.029 593.09 665.963 592.538C665.898 591.987 665.752 591.445 665.527 590.912C665.302 590.379 665.015 589.897 664.665 589.465C664.397 589.134 664.092 588.833 663.75 588.561L663.75 580.5C663.75 580.094 663.69 579.707 663.571 579.339C663.451 578.972 663.272 578.624 663.034 578.296C662.795 577.968 662.52 577.69 662.208 577.463C661.895 577.236 661.545 577.059 661.159 576.934C660.773 576.808 660.387 576.745 660.001 576.745C659.614 576.745 659.228 576.808 658.841 576.934C658.454 577.059 658.105 577.236 657.792 577.463ZM657.858 579.804C657.929 579.583 658.037 579.375 658.18 579.178L658.18 579.177C658.323 578.981 658.488 578.814 658.675 578.678C658.862 578.542 659.073 578.436 659.305 578.36C659.537 578.285 659.769 578.247 660.001 578.247C660.232 578.247 660.464 578.285 660.695 578.36C660.927 578.436 661.138 578.542 661.325 578.678C661.512 578.814 661.677 578.981 661.82 579.177C661.964 579.375 662.071 579.584 662.143 579.804C662.214 580.025 662.25 580.256 662.25 580.5L662.25 588.938C662.25 589.06 662.278 589.176 662.335 589.285C662.392 589.393 662.471 589.483 662.571 589.553C662.927 589.801 663.236 590.086 663.499 590.41C663.761 590.734 663.977 591.096 664.146 591.495C664.314 591.895 664.423 592.302 664.472 592.715C664.521 593.129 664.511 593.55 664.44 593.978C664.37 594.406 664.245 594.808 664.065 595.184C663.886 595.56 663.652 595.91 663.364 596.235C663.076 596.559 662.756 596.832 662.403 597.055C662.051 597.277 661.667 597.448 661.25 597.569C660.833 597.689 660.417 597.75 660 597.75C659.583 597.75 659.167 597.689 658.75 597.569C658.333 597.448 657.949 597.277 657.597 597.055C657.244 596.832 656.924 596.559 656.636 596.235C656.348 595.91 656.114 595.56 655.935 595.184C655.755 594.808 655.63 594.406 655.56 593.978C655.489 593.55 655.479 593.129 655.528 592.715C655.577 592.301 655.686 591.895 655.854 591.495C656.023 591.096 656.239 590.734 656.501 590.41C656.764 590.086 657.073 589.801 657.429 589.553C657.529 589.483 657.608 589.393 657.665 589.285C657.722 589.176 657.75 589.06 657.75 588.938L657.75 580.5C657.75 580.256 657.786 580.024 657.858 579.804ZM660.75 590.338C660.888 590.372 661.022 590.416 661.152 590.47C661.505 590.616 661.828 590.836 662.121 591.129C662.414 591.422 662.634 591.745 662.78 592.098C662.927 592.452 663 592.836 663 593.25C663 593.664 662.927 594.048 662.78 594.402C662.634 594.755 662.414 595.078 662.121 595.371C661.828 595.664 661.505 595.884 661.152 596.03C660.798 596.177 660.414 596.25 660 596.25C659.586 596.25 659.202 596.177 658.848 596.03C658.495 595.884 658.172 595.664 657.879 595.371C657.586 595.078 657.366 594.755 657.22 594.402C657.073 594.048 657 593.664 657 593.25C657 592.836 657.073 592.452 657.22 592.098C657.366 591.745 657.586 591.422 657.879 591.129C658.172 590.836 658.495 590.616 658.848 590.47C658.978 590.416 659.112 590.372 659.25 590.338L659.25 583.5L660.75 583.5L660.75 590.338ZM659.424 591.86C659.601 591.787 659.793 591.75 660 591.75C660.207 591.75 660.399 591.787 660.576 591.86C660.753 591.933 660.914 592.043 661.061 592.189C661.207 592.336 661.317 592.497 661.39 592.674C661.463 592.851 661.5 593.043 661.5 593.25C661.5 593.457 661.463 593.649 661.39 593.826C661.317 594.003 661.207 594.164 661.061 594.311C660.914 594.457 660.753 594.567 660.576 594.64C660.399 594.713 660.207 594.75 660 594.75C659.793 594.75 659.601 594.713 659.424 594.64C659.247 594.567 659.086 594.457 658.939 594.311C658.793 594.164 658.683 594.003 658.61 593.826C658.537 593.649 658.5 593.457 658.5 593.25C658.5 593.043 658.537 592.851 658.61 592.674C658.683 592.497 658.793 592.336 658.939 592.189C659.086 592.043 659.247 591.933 659.424 591.86Z" fill="currentColor" fill-rule="evenodd" />
  </g>
</svg>

