<svg viewBox="0 0 24 24" xmlns="http://www.w3.org/2000/svg" fill="none">
  <g transform="translate(-576 -504)">
<path id="Icon" d="M589.911 514.745C589.94 514.748 589.97 514.75 590 514.75L595.83 514.75C595.963 514.75 596.091 514.769 596.211 514.808C596.332 514.847 596.446 514.904 596.554 514.981C596.663 515.059 596.756 515.148 596.832 515.25C596.908 515.351 596.967 515.464 597.011 515.59C597.054 515.715 597.078 515.841 597.081 515.968C597.084 516.095 597.067 516.222 597.03 516.35L594.7 524.35C594.675 524.436 594.642 524.518 594.6 524.594C594.557 524.674 594.506 524.748 594.446 524.817C594.386 524.886 594.321 524.947 594.25 525.001C594.179 525.054 594.102 525.099 594.02 525.137C593.937 525.175 593.852 525.203 593.765 525.222C593.679 525.241 593.59 525.25 593.5 525.25L583.75 525.25L583.75 514.567C583.907 514.506 584.06 514.429 584.208 514.337C584.43 514.2 584.625 514.038 584.794 513.853C584.963 513.667 585.105 513.458 585.222 513.224L588.44 506.797C588.526 506.814 588.61 506.836 588.693 506.863C588.917 506.935 589.129 507.041 589.33 507.182C589.53 507.323 589.702 507.486 589.845 507.672C589.989 507.857 590.104 508.065 590.19 508.296C590.276 508.526 590.326 508.758 590.34 508.993C590.353 509.227 590.331 509.462 590.272 509.7L589.271 513.823C589.222 514.024 589.252 514.213 589.359 514.39C589.467 514.567 589.622 514.68 589.823 514.729C589.852 514.736 589.881 514.741 589.911 514.745ZM582.25 514.75L582.25 525.25L580 525.25C579.889 525.25 579.781 525.236 579.677 525.208C579.573 525.18 579.472 525.138 579.375 525.083C579.279 525.027 579.192 524.961 579.116 524.885C579.04 524.809 578.973 524.722 578.917 524.625C578.862 524.528 578.82 524.428 578.792 524.324C578.764 524.22 578.75 524.112 578.75 524L578.75 516C578.75 515.888 578.764 515.78 578.792 515.676C578.82 515.572 578.862 515.472 578.917 515.375C578.973 515.278 579.04 515.191 579.116 515.115C579.192 515.039 579.279 514.973 579.375 514.917C579.472 514.862 579.573 514.82 579.677 514.792C579.781 514.764 579.889 514.75 580 514.75L582.25 514.75ZM590.954 513.25L591.728 510.06C591.824 509.672 591.861 509.288 591.839 508.907C591.817 508.525 591.736 508.146 591.595 507.77C591.455 507.395 591.268 507.056 591.034 506.754C590.8 506.451 590.519 506.185 590.192 505.955C589.865 505.725 589.519 505.551 589.155 505.434C588.791 505.316 588.409 505.255 588.009 505.25C587.866 505.248 587.732 505.285 587.61 505.359C587.487 505.434 587.394 505.536 587.329 505.664L583.878 512.556C583.825 512.663 583.76 512.759 583.683 512.843C583.606 512.927 583.518 513 583.418 513.062C583.316 513.125 583.21 513.173 583.099 513.204C582.99 513.235 582.877 513.25 582.76 513.25L580 513.25C579.755 513.25 579.517 513.281 579.289 513.342C579.059 513.403 578.838 513.495 578.625 513.618C578.412 513.741 578.222 513.886 578.055 514.054C577.887 514.222 577.741 514.412 577.618 514.625C577.496 514.838 577.404 515.058 577.342 515.288C577.281 515.517 577.25 515.754 577.25 516L577.25 524C577.25 524.246 577.281 524.483 577.342 524.712C577.404 524.941 577.496 525.162 577.618 525.375C577.741 525.588 577.887 525.778 578.055 525.946C578.222 526.114 578.412 526.259 578.625 526.382C578.838 526.505 579.059 526.597 579.289 526.658C579.517 526.719 579.755 526.75 580 526.75L583 526.75L593.5 526.75C593.699 526.75 593.894 526.729 594.085 526.688C594.276 526.646 594.462 526.584 594.644 526.501C594.825 526.418 594.994 526.318 595.149 526.201C595.306 526.084 595.45 525.95 595.58 525.798C595.71 525.649 595.821 525.489 595.913 525.32C596.008 525.147 596.084 524.963 596.14 524.77L598.47 516.77C598.552 516.489 598.589 516.209 598.582 515.93C598.575 515.651 598.524 515.374 598.428 515.097C598.332 514.821 598.2 514.572 598.033 514.349C597.866 514.126 597.663 513.929 597.424 513.759C597.185 513.589 596.934 513.462 596.668 513.378C596.402 513.292 596.123 513.25 595.83 513.25L590.954 513.25Z" fill="currentColor" fill-rule="evenodd" />
  </g>
</svg>

