<svg viewBox="0 0 24 24" xmlns="http://www.w3.org/2000/svg" fill="none">
  <g transform="translate(-648 -504)">
<path id="Icon" d="M657.046 518.75L652.17 518.75C651.878 518.75 651.599 518.708 651.333 518.623C651.067 518.538 650.815 518.411 650.576 518.241C650.338 518.071 650.135 517.875 649.967 517.652C649.8 517.429 649.668 517.179 649.572 516.903C649.476 516.625 649.424 516.347 649.418 516.068C649.411 515.79 649.448 515.51 649.53 515.23L651.86 507.23C651.916 507.039 651.99 506.858 652.083 506.686C652.176 506.515 652.289 506.353 652.419 506.202C652.55 506.05 652.694 505.916 652.85 505.799C653.006 505.682 653.175 505.582 653.356 505.499C653.538 505.416 653.724 505.354 653.915 505.312C654.105 505.271 654.3 505.25 654.5 505.25L668 505.25C668.246 505.25 668.484 505.281 668.714 505.343C668.943 505.404 669.163 505.496 669.375 505.618C669.587 505.741 669.777 505.886 669.944 506.053C670.113 506.221 670.258 506.412 670.381 506.625C670.504 506.838 670.596 507.058 670.658 507.288C670.719 507.517 670.75 507.754 670.75 508L670.75 516C670.75 516.246 670.719 516.483 670.658 516.712C670.596 516.942 670.504 517.162 670.381 517.375C670.258 517.588 670.113 517.779 669.945 517.946C669.777 518.114 669.587 518.259 669.375 518.382C669.163 518.504 668.943 518.596 668.715 518.657C668.485 518.719 668.247 518.75 668 518.75L665.24 518.75C665.122 518.75 665.009 518.766 664.9 518.796C664.79 518.828 664.684 518.875 664.582 518.938C664.481 519 664.392 519.074 664.315 519.159C664.239 519.243 664.174 519.338 664.122 519.444L660.671 526.336C660.606 526.464 660.513 526.566 660.39 526.641C660.267 526.715 660.134 526.752 659.991 526.75C659.59 526.745 659.208 526.684 658.844 526.566C658.48 526.448 658.135 526.275 657.808 526.045C657.481 525.815 657.201 525.549 656.967 525.247C656.733 524.944 656.545 524.605 656.405 524.23C656.265 523.856 656.183 523.478 656.161 523.096C656.139 522.714 656.176 522.329 656.272 521.94L657.046 518.75ZM664.25 506.75L654.5 506.75C654.41 506.75 654.321 506.759 654.235 506.778C654.148 506.797 654.063 506.825 653.98 506.863C653.898 506.901 653.821 506.946 653.75 506.999C653.679 507.053 653.614 507.114 653.554 507.183C653.494 507.252 653.443 507.326 653.4 507.405C653.358 507.482 653.325 507.564 653.3 507.65L650.97 515.65C650.933 515.777 650.916 515.904 650.919 516.03C650.922 516.157 650.945 516.284 650.989 516.41C651.033 516.536 651.093 516.65 651.17 516.752C651.245 516.853 651.337 516.942 651.445 517.019C651.554 517.096 651.669 517.154 651.79 517.192C651.911 517.231 652.037 517.25 652.17 517.25L658 517.25C658.03 517.25 658.059 517.252 658.089 517.255C658.119 517.259 658.148 517.264 658.177 517.271C658.378 517.32 658.533 517.433 658.64 517.61C658.748 517.787 658.778 517.976 658.729 518.177L657.728 522.3C657.669 522.539 657.646 522.776 657.66 523.011C657.674 523.244 657.724 523.475 657.81 523.704C657.896 523.934 658.011 524.142 658.154 524.328C658.298 524.513 658.47 524.677 658.67 524.818C658.871 524.958 659.083 525.065 659.305 525.137C659.389 525.164 659.474 525.186 659.56 525.203L662.778 518.776C662.894 518.543 663.037 518.333 663.206 518.147C663.375 517.962 663.57 517.8 663.792 517.663C663.94 517.571 664.093 517.494 664.25 517.433L664.25 506.75ZM665.75 506.75L665.75 517.25L668 517.25C668.112 517.25 668.22 517.236 668.325 517.208C668.428 517.18 668.529 517.138 668.625 517.083C668.721 517.027 668.808 516.961 668.884 516.885C668.96 516.809 669.026 516.722 669.082 516.625C669.138 516.528 669.18 516.428 669.208 516.324C669.236 516.22 669.25 516.112 669.25 516L669.25 508C669.25 507.888 669.236 507.78 669.208 507.676C669.18 507.572 669.138 507.472 669.082 507.375C669.027 507.278 668.961 507.192 668.884 507.116C668.808 507.039 668.722 506.973 668.625 506.917C668.529 506.862 668.429 506.82 668.325 506.792C668.221 506.764 668.112 506.75 668 506.75L665.75 506.75Z" fill="currentColor" fill-rule="evenodd" />
  </g>
</svg>

