<svg viewBox="0 0 24 24" xmlns="http://www.w3.org/2000/svg" fill="none">
  <g transform="translate(-720 -288)">
<path id="Icon" d="M741.842 290.137C741.414 289.728 740.844 289.499 740.251 289.499C739.658 289.499 739.089 289.728 738.66 290.137L733.05 295.747L734.111 296.808L739.721 291.198C739.863 291.062 740.054 290.986 740.251 290.986C740.448 290.986 740.638 291.062 740.781 291.198C740.922 291.339 741.001 291.529 741.001 291.728C741.001 291.927 740.922 292.118 740.781 292.258L735.171 297.868L736.232 298.93L741.842 293.32C742.263 292.897 742.5 292.325 742.5 291.729C742.5 291.132 742.264 290.56 741.842 290.137ZM734.82 309.18C735.663 310.024 736.807 310.499 738 310.5C738.561 310.498 739.117 310.39 739.638 310.184L740.705 309.765L738.22 307.28C738.079 307.14 738 306.949 738 306.75C738.001 306.551 738.08 306.36 738.221 306.22C738.363 306.083 738.553 306.007 738.75 306.007C738.948 306.007 739.138 306.083 739.28 306.22L741.765 308.704L742.183 307.638C742.454 306.957 742.553 306.219 742.473 305.491C742.393 304.762 742.135 304.064 741.722 303.458C741.309 302.852 740.754 302.357 740.105 302.015C739.456 301.674 738.733 301.497 738 301.5C737.608 301.502 737.218 301.555 736.84 301.658L730.343 295.16C730.447 294.782 730.5 294.392 730.5 294C730.503 293.267 730.326 292.544 729.984 291.895C729.643 291.246 729.148 290.691 728.542 290.278C727.936 289.865 727.238 289.607 726.509 289.527C725.781 289.446 725.044 289.546 724.362 289.817L723.295 290.234L725.78 292.72C725.921 292.86 726 293.051 726 293.25C726 293.449 725.921 293.64 725.78 293.78C725.638 293.917 725.447 293.993 725.25 293.993C725.052 293.993 724.863 293.917 724.72 293.78L722.236 291.296L721.817 292.362C721.546 293.043 721.447 293.781 721.527 294.509C721.607 295.238 721.865 295.936 722.278 296.542C722.691 297.148 723.246 297.643 723.895 297.985C724.544 298.326 725.267 298.503 726 298.5C726.392 298.498 726.783 298.445 727.161 298.343L733.658 304.84C733.553 305.218 733.5 305.608 733.5 306C733.502 307.193 733.976 308.337 734.82 309.18ZM735.392 304.454L727.547 296.607L727.089 296.787C726.65 296.963 726.175 297.031 725.705 296.987C725.234 296.943 724.78 296.788 724.381 296.534C723.982 296.28 723.649 295.935 723.41 295.527C723.171 295.119 723.032 294.66 723.005 294.188L723.658 294.841C724.086 295.25 724.656 295.479 725.249 295.479C725.841 295.479 726.412 295.25 726.84 294.841C727.049 294.632 727.215 294.384 727.328 294.111C727.441 293.838 727.499 293.545 727.499 293.25C727.499 292.954 727.441 292.662 727.328 292.389C727.215 292.116 727.049 291.867 726.84 291.659L726.188 291.006C726.66 291.033 727.119 291.172 727.527 291.411C727.935 291.65 728.28 291.983 728.534 292.382C728.788 292.781 728.944 293.234 728.988 293.705C729.032 294.176 728.963 294.651 728.788 295.09L728.608 295.547L736.453 303.392L736.91 303.213C737.349 303.037 737.823 302.969 738.294 303.013C738.765 303.057 739.219 303.212 739.618 303.466C740.017 303.72 740.35 304.065 740.589 304.473C740.828 304.881 740.967 305.34 740.994 305.812L740.342 305.159C739.913 304.75 739.343 304.521 738.75 304.521C738.158 304.521 737.588 304.75 737.159 305.159C736.95 305.368 736.785 305.616 736.672 305.889C736.558 306.162 736.5 306.455 736.5 306.75C736.5 307.046 736.558 307.339 736.672 307.612C736.785 307.885 736.95 308.133 737.159 308.341L737.813 308.994C737.34 308.967 736.881 308.829 736.473 308.589C736.065 308.35 735.72 308.017 735.466 307.618C735.212 307.219 735.057 306.766 735.013 306.295C734.969 305.824 735.037 305.349 735.213 304.91L735.392 304.454ZM726.685 306.375L729.878 303.182L728.818 302.122L725.625 305.315L725.03 304.72C724.889 304.579 724.699 304.5 724.5 304.5C724.301 304.5 724.11 304.579 723.97 304.72L720.97 307.72C720.829 307.86 720.75 308.051 720.75 308.25C720.75 308.449 720.829 308.64 720.97 308.78L723.22 311.03C723.36 311.171 723.551 311.25 723.75 311.25C723.949 311.25 724.139 311.171 724.28 311.03L727.28 308.03C727.421 307.89 727.5 307.699 727.5 307.5C727.5 307.301 727.421 307.11 727.28 306.97L726.685 306.375ZM723.75 309.44L722.56 308.25L724.5 306.31L725.69 307.5L723.75 309.44Z" fill="currentColor" fill-rule="evenodd" />
  </g>
</svg>

