<svg viewBox="0 0 24 24" xmlns="http://www.w3.org/2000/svg" fill="none">
  <g transform="translate(-72 -360)">
<path id="Icon" d="M84.42 361.5L87.75 361.5C88.9435 361.5 90.0882 361.974 90.932 362.818C91.7761 363.662 92.25 364.807 92.25 366L92.25 371.25C92.25 371.648 92.0921 372.029 91.8109 372.311C91.5293 372.592 91.148 372.75 90.75 372.75C90.3523 372.75 89.9707 372.592 89.6894 372.311C89.4082 372.029 89.25 371.648 89.25 371.25L89.25 372C89.25 372.398 89.0921 372.779 88.8109 373.061C88.5293 373.342 88.1481 373.5 87.75 373.5C87.3523 373.5 86.9707 373.342 86.6894 373.061C86.4082 372.779 86.25 372.398 86.25 372L86.25 372.75C86.25 373.148 86.0921 373.529 85.8109 373.811C85.5293 374.092 85.1481 374.25 84.75 374.25C84.3523 374.25 83.9707 374.092 83.6894 373.811C83.4082 373.529 83.25 373.148 83.25 372.75L83.25 378C83.25 378.398 83.0922 378.779 82.8109 379.061C82.5293 379.342 82.1481 379.5 81.75 379.5C81.3523 379.5 80.9707 379.342 80.6894 379.061C80.4082 378.779 80.25 378.398 80.25 378L80.25 368.357L77.5712 370.804C77.3071 371.056 76.9625 371.207 76.5978 371.231C76.2334 371.255 75.8723 371.149 75.5775 370.934C75.4058 370.799 75.2651 370.629 75.1655 370.434C75.0663 370.24 75.0103 370.027 75.0018 369.808C74.9934 369.59 75.0326 369.373 75.1168 369.172C75.201 368.97 75.3281 368.79 75.4893 368.642L82.389 362.293C82.9427 361.783 83.6675 361.5 84.42 361.5ZM78.5695 381.18C79.4132 382.024 80.5569 382.499 81.75 382.5C82.9431 382.499 84.0868 382.024 84.9305 381.18C85.7739 380.337 86.2485 379.193 86.25 378L84.75 378C84.75 378.796 84.4339 379.559 83.8714 380.121C83.3086 380.684 82.5458 381 81.75 381C80.9542 381 80.1914 380.684 79.6285 380.121C79.066 379.559 78.75 378.796 78.75 378L77.25 378C77.2515 379.193 77.7261 380.337 78.5695 381.18Z" fill="currentColor" fill-rule="evenodd" />
  </g>
</svg>

