<svg viewBox="0 0 24 24" xmlns="http://www.w3.org/2000/svg" fill="none">
  <g transform="translate(-216 -360)">
<path id="Icon" d="M222.569 362.82C223.413 361.976 224.557 361.501 225.75 361.5C226.943 361.501 228.087 361.976 228.931 362.82C229.774 363.663 230.249 364.807 230.25 366L228.75 366C228.75 365.204 228.434 364.441 227.871 363.879C227.309 363.316 226.546 363 225.75 363C224.954 363 224.191 363.316 223.629 363.879C223.066 364.441 222.75 365.204 222.75 366L221.25 366C221.251 364.807 221.726 363.663 222.569 362.82ZM228.42 382.5L231.75 382.5C232.943 382.5 234.088 382.026 234.932 381.182C235.776 380.338 236.25 379.193 236.25 378L236.25 372.75C236.25 372.352 236.092 371.971 235.811 371.689C235.529 371.408 235.148 371.25 234.75 371.25C234.352 371.25 233.971 371.408 233.689 371.689C233.408 371.971 233.25 372.352 233.25 372.75L233.25 372C233.25 371.602 233.092 371.221 232.811 370.939C232.529 370.658 232.148 370.5 231.75 370.5C231.352 370.5 230.971 370.658 230.689 370.939C230.408 371.221 230.25 371.602 230.25 372L230.25 371.25C230.25 370.852 230.092 370.471 229.811 370.189C229.529 369.908 229.148 369.75 228.75 369.75C228.352 369.75 227.971 369.908 227.689 370.189C227.408 370.471 227.25 370.852 227.25 371.25L227.25 366C227.25 365.602 227.092 365.221 226.811 364.939C226.529 364.658 226.148 364.5 225.75 364.5C225.352 364.5 224.971 364.658 224.689 364.939C224.408 365.221 224.25 365.602 224.25 366L224.25 375.643L221.571 373.196C221.307 372.944 220.963 372.793 220.598 372.769C220.233 372.745 219.872 372.851 219.578 373.066C219.406 373.201 219.265 373.371 219.166 373.566C219.066 373.76 219.01 373.973 219.002 374.192C218.993 374.41 219.033 374.627 219.117 374.828C219.201 375.03 219.328 375.21 219.489 375.358L226.389 381.707C226.943 382.217 227.667 382.5 228.42 382.5Z" fill="currentColor" fill-rule="evenodd" />
  </g>
</svg>

