<svg viewBox="0 0 24 24" xmlns="http://www.w3.org/2000/svg" fill="none">
  <g transform="translate(-792 -288)">
<path id="Icon" d="M805.5 294L807 294C807 292.608 806.447 291.272 805.462 290.288C804.478 289.303 803.142 288.75 801.75 288.75C800.358 288.75 799.022 289.303 798.038 290.288C797.053 291.272 796.5 292.608 796.5 294L798 294C798 293.005 798.395 292.052 799.098 291.348C799.802 290.645 800.755 290.25 801.75 290.25C802.745 290.25 803.698 290.645 804.402 291.348C805.105 292.052 805.5 293.005 805.5 294ZM809.648 299.55C809.982 299.355 810.362 299.251 810.75 299.25C811.347 299.25 811.919 299.487 812.341 299.909C812.763 300.331 813 300.903 813 301.5L813 306C813 307.392 812.447 308.728 811.462 309.712C810.478 310.697 809.142 311.25 807.75 311.25L804 311.25C802.86 311.252 801.759 310.833 800.91 310.072L794.91 304.598C794.593 304.283 794.377 303.882 794.289 303.444C794.201 303.007 794.245 302.553 794.415 302.141C794.585 301.728 794.875 301.376 795.246 301.128C795.617 300.88 796.054 300.749 796.5 300.75C796.978 300.747 797.444 300.899 797.828 301.185L799.5 302.325L799.5 294C799.5 293.403 799.737 292.831 800.159 292.409C800.581 291.987 801.153 291.75 801.75 291.75C802.347 291.75 802.919 291.987 803.341 292.409C803.763 292.831 804 293.403 804 294L804 297.885C804.48 297.716 805.003 297.714 805.483 297.88C805.964 298.046 806.375 298.371 806.648 298.8C806.982 298.605 807.362 298.501 807.75 298.5C808.129 298.501 808.502 298.598 808.834 298.781C809.165 298.965 809.445 299.229 809.648 299.55ZM810.402 308.652C811.105 307.948 811.5 306.995 811.5 306L811.5 301.5C811.5 301.301 811.421 301.11 811.28 300.97C811.14 300.829 810.949 300.75 810.75 300.75C810.551 300.75 810.36 300.829 810.22 300.97C810.079 301.11 810 301.301 810 301.5L810 302.25L808.5 302.25L808.5 300.75C808.5 300.551 808.421 300.36 808.28 300.22C808.14 300.079 807.949 300 807.75 300C807.551 300 807.36 300.079 807.22 300.22C807.079 300.36 807 300.551 807 300.75L807 302.25L805.5 302.25L805.5 300C805.5 299.801 805.421 299.61 805.28 299.47C805.14 299.329 804.949 299.25 804.75 299.25C804.551 299.25 804.36 299.329 804.22 299.47C804.079 299.61 804 299.801 804 300L804 302.25L802.5 302.25L802.5 294C802.5 293.801 802.421 293.61 802.28 293.47C802.14 293.329 801.949 293.25 801.75 293.25C801.551 293.25 801.36 293.329 801.22 293.47C801.079 293.61 801 293.801 801 294L801 305.175L796.95 302.4C796.839 302.316 796.706 302.266 796.567 302.253C796.429 302.241 796.289 302.267 796.165 302.329C796.04 302.391 795.935 302.487 795.862 302.606C795.789 302.724 795.75 302.861 795.75 303C795.751 303.197 795.829 303.385 795.968 303.525L801.93 309C802.506 309.493 803.242 309.759 804 309.75L807.75 309.75C808.745 309.75 809.699 309.355 810.402 308.652Z" fill="currentColor" fill-rule="evenodd" />
  </g>
</svg>

