<svg viewBox="0 0 24 24" xmlns="http://www.w3.org/2000/svg" fill="none">
  <g transform="translate(-0 -360)">
<path id="Icon" d="M21 366L21 370.5C20.9996 371.097 20.7623 371.668 20.3404 372.09C19.9185 372.512 19.3465 372.749 18.75 372.75C18.3625 372.748 17.9824 372.644 17.6477 372.449C17.4455 372.77 17.1654 373.035 16.834 373.218C16.5022 373.402 16.1294 373.499 15.75 373.5C15.3625 373.498 14.9824 373.394 14.6477 373.199C14.3803 373.634 13.9702 373.963 13.4872 374.13C13.0045 374.296 12.4786 374.29 12 374.112L12 378C12 378.597 11.763 379.169 11.3412 379.591C10.9189 380.013 10.3469 380.25 9.74999 380.25C9.15343 380.25 8.58104 380.013 8.15917 379.591C7.73729 379.169 7.49999 378.597 7.49999 378L7.49999 369.671L5.82385 370.819L5.82311 370.818C5.36498 371.152 4.79772 371.3 4.23523 371.234C3.67236 371.167 3.15527 370.891 2.7876 370.46C2.41992 370.028 2.22839 369.474 2.25146 368.908C2.27454 368.342 2.51074 367.805 2.91247 367.406L8.92125 361.924C9.76793 361.167 10.8644 360.749 12 360.75L15.75 360.75C17.1419 360.752 18.476 361.306 19.4601 362.29C20.4444 363.274 20.9981 364.608 21 366ZM19.2802 371.03C19.4212 370.89 19.5 370.699 19.5 370.5L19.5 366C19.4989 365.006 19.1034 364.053 18.4002 363.35C17.6975 362.647 16.7442 362.251 15.75 362.25L12 362.25C11.2379 362.249 10.5018 362.528 9.93163 363.033L3.96899 368.471C3.83679 368.606 3.75988 368.785 3.75403 368.974C3.74817 369.163 3.81372 369.347 3.9375 369.489C4.06128 369.632 4.23449 369.722 4.42199 369.743C4.60986 369.763 4.79846 369.712 4.95007 369.6L8.99999 366.829L8.99999 378C8.99999 378.199 9.07909 378.39 9.21971 378.53C9.36034 378.671 9.55113 378.75 9.74999 378.75C9.94884 378.75 10.1396 378.671 10.2803 378.53C10.4212 378.39 10.5 378.199 10.5 378L10.5 369.75L12 369.75L12 372C12 372.199 12.0791 372.39 12.2197 372.53C12.3603 372.671 12.5511 372.75 12.75 372.75C12.9488 372.75 13.1396 372.671 13.2803 372.53C13.4212 372.39 13.5 372.199 13.5 372L13.5 369.75L15 369.75L15 371.25C15 371.449 15.0791 371.64 15.2197 371.78C15.3603 371.921 15.5511 372 15.75 372C15.9488 372 16.1396 371.921 16.2802 371.78C16.4212 371.64 16.5 371.449 16.5 371.25L16.5 369.75L18 369.75L18 370.5C18 370.699 18.0791 370.89 18.2197 371.03C18.3603 371.171 18.5511 371.25 18.75 371.25C18.9488 371.25 19.1396 371.171 19.2802 371.03ZM13.5 378L15 378C15 379.392 14.447 380.728 13.4623 381.712C12.4779 382.697 11.1423 383.25 9.74999 383.25C8.35765 383.25 7.02209 382.697 6.03771 381.712C5.05297 380.728 4.5 379.392 4.5 378L5.99999 378C5.99999 378.995 6.39513 379.948 7.09826 380.652C7.80175 381.355 8.75536 381.75 9.74999 381.75C10.7446 381.75 11.6982 381.355 12.4017 380.652C13.1048 379.948 13.5 378.995 13.5 378Z" fill="currentColor" fill-rule="evenodd" />
  </g>
</svg>

