<svg viewBox="0 0 24 24" xmlns="http://www.w3.org/2000/svg" fill="none">
  <g transform="translate(-360 -360)">
<path id="Icon" d="M375 360.5L369 360.5L369 362L375 362L375 360.5ZM363 365L363 363.5L381 363.5L381 365L379.5 365L379.5 380C379.5 380.263 379.431 380.522 379.299 380.75C379.167 380.978 378.978 381.167 378.75 381.299C378.522 381.431 378.263 381.5 378 381.5L366 381.5C365.737 381.5 365.478 381.431 365.25 381.299C365.022 381.167 364.833 380.978 364.701 380.75C364.569 380.522 364.5 380.263 364.5 380L364.5 365L363 365ZM366 365L366 380L378 380L378 365L366 365ZM370.5 368L369 368L369 377L370.5 377L370.5 368ZM375 368L373.5 368L373.5 377L375 377L375 368Z" fill="currentColor" fill-rule="evenodd" />
  </g>
</svg>

