<svg viewBox="0 0 24 24" xmlns="http://www.w3.org/2000/svg" fill="none">
  <g transform="translate(-576 -648)">
<path id="Icon" d="M588 651C588.742 651 589.467 651.22 590.083 651.632C590.7 652.044 591.181 652.63 591.465 653.315C591.748 654 591.823 654.754 591.678 655.482C591.533 656.209 591.176 656.877 590.652 657.402C590.127 657.926 589.459 658.283 588.732 658.428C588.004 658.573 587.25 658.498 586.565 658.215C585.88 657.931 585.294 657.45 584.882 656.833C584.47 656.217 584.25 655.492 584.25 654.75C584.25 653.755 584.645 652.802 585.348 652.098C586.052 651.395 587.005 651 588 651ZM588 649.5C586.962 649.5 585.947 649.808 585.083 650.385C584.22 650.962 583.547 651.782 583.15 652.741C582.752 653.7 582.648 654.756 582.851 655.774C583.053 656.793 583.553 657.728 584.288 658.462C585.022 659.197 585.957 659.697 586.976 659.899C587.994 660.102 589.05 659.998 590.009 659.6C590.968 659.203 591.788 658.53 592.365 657.667C592.942 656.803 593.25 655.788 593.25 654.75C593.25 653.358 592.697 652.022 591.712 651.038C590.728 650.053 589.392 649.5 588 649.5ZM596.5 670.5L595 670.5L595 666.75C595 665.755 594.605 664.802 593.902 664.098C593.198 663.395 592.245 663 591.25 663L584.75 663C583.755 663 582.802 663.395 582.098 664.098C581.395 664.802 581 665.755 581 666.75L581 670.5L579.5 670.5L579.5 666.75C579.5 665.358 580.053 664.022 581.038 663.038C582.022 662.053 583.358 661.5 584.75 661.5L591.25 661.5C592.642 661.5 593.978 662.053 594.962 663.038C595.947 664.022 596.5 665.358 596.5 666.75L596.5 670.5Z" fill="currentColor" fill-rule="nonzero" />
  </g>
</svg>

