<svg viewBox="0 0 24 24" xmlns="http://www.w3.org/2000/svg" fill="none">
  <g transform="translate(-708 -432)">
<path id="Icon" d="M726.9 438.165C728.849 439.565 730.345 441.505 731.205 443.745C731.235 443.827 731.25 443.913 731.25 444C731.25 444.087 731.235 444.173 731.205 444.255C730.323 446.537 728.792 448.51 726.8 449.931C724.809 451.352 722.445 452.158 720 452.25C718.023 452.218 716.088 451.676 714.382 450.675L710.557 454.5L709.5 453.443L729.443 433.5L730.5 434.557L726.9 438.165ZM711.93 448.883L713.003 447.818C711.828 446.763 710.906 445.458 710.302 444C711.825 440.198 716.025 437.25 720 437.25C721.023 437.263 722.037 437.446 723 437.79L724.163 436.62C722.844 436.063 721.431 435.768 720 435.75C717.555 435.842 715.191 436.648 713.2 438.069C711.209 439.49 709.677 441.463 708.795 443.745C708.766 443.827 708.75 443.913 708.75 444C708.75 444.087 708.766 444.173 708.795 444.255C709.461 446.023 710.535 447.608 711.93 448.883ZM715.5 449.565C716.883 450.316 718.427 450.723 720 450.75C723.975 450.75 728.175 447.802 729.698 444C728.887 442.077 727.541 440.426 725.82 439.245L723.667 441.398C724.147 442.088 724.423 442.899 724.465 443.739C724.507 444.578 724.312 445.413 723.904 446.148C723.496 446.883 722.89 447.489 722.155 447.897C721.42 448.305 720.586 448.499 719.746 448.457C718.907 448.415 718.096 448.139 717.405 447.66L715.5 449.565ZM717 443.797C717.035 443.321 717.182 442.86 717.431 442.452C717.68 442.045 718.022 441.702 718.43 441.453C718.838 441.205 719.299 441.057 719.775 441.022L721.133 439.657C720.372 439.457 719.572 439.46 718.813 439.665C718.053 439.87 717.361 440.271 716.805 440.827C716.249 441.383 715.848 442.076 715.643 442.835C715.437 443.594 715.435 444.394 715.635 445.155L717 443.797ZM722.591 445.494C722.856 445.04 722.997 444.525 723 444C722.995 443.472 722.85 442.954 722.58 442.5L718.5 446.58C718.955 446.843 719.47 446.981 719.995 446.982C720.521 446.983 721.037 446.846 721.492 446.585C721.948 446.323 722.327 445.947 722.591 445.494Z" fill="currentColor" fill-rule="evenodd" />
  </g>
</svg>

