<svg viewBox="0 0 24 24" xmlns="http://www.w3.org/2000/svg" fill="none">
  <g transform="translate(-564 -432)">
<path id="Icon" d="M582.8 438.069C584.792 439.49 586.323 441.463 587.205 443.745C587.235 443.827 587.25 443.913 587.25 444C587.25 444.087 587.235 444.173 587.205 444.255C586.323 446.537 584.792 448.51 582.8 449.931C580.809 451.352 578.445 452.158 576 452.25C573.555 452.158 571.191 451.352 569.2 449.931C567.209 448.51 565.677 446.537 564.795 444.255C564.766 444.173 564.75 444.087 564.75 444C564.75 443.913 564.766 443.827 564.795 443.745C565.677 441.463 567.209 439.49 569.2 438.069C571.191 436.648 573.555 435.842 576 435.75C578.445 435.842 580.809 436.648 582.8 438.069ZM566.302 444C567.825 447.802 572.025 450.75 576 450.75C579.975 450.75 584.175 447.802 585.698 444C584.175 440.198 579.975 437.25 576 437.25C572.025 437.25 567.825 440.198 566.302 444ZM573.5 440.258C574.24 439.764 575.11 439.5 576 439.5C576.79 439.5 577.566 439.708 578.25 440.103C578.934 440.498 579.502 441.066 579.897 441.75C580.292 442.434 580.5 443.21 580.5 444C580.5 444.89 580.236 445.76 579.742 446.5C579.247 447.24 578.544 447.817 577.722 448.157C576.9 448.498 575.995 448.587 575.122 448.414C574.249 448.24 573.447 447.811 572.818 447.182C572.189 446.553 571.76 445.751 571.586 444.878C571.413 444.005 571.502 443.1 571.843 442.278C572.183 441.456 572.76 440.753 573.5 440.258ZM574.333 446.494C574.827 446.824 575.407 447 576 447C576.527 447 577.044 446.861 577.5 446.598C577.956 446.335 578.335 445.956 578.598 445.5C578.861 445.044 579 444.527 579 444C579 443.407 578.824 442.827 578.494 442.333C578.165 441.84 577.696 441.455 577.148 441.228C576.6 441.001 575.997 440.942 575.415 441.058C574.833 441.173 574.298 441.459 573.879 441.879C573.459 442.298 573.173 442.833 573.058 443.415C572.942 443.997 573.001 444.6 573.228 445.148C573.455 445.696 573.84 446.165 574.333 446.494Z" fill="currentColor" fill-rule="evenodd" />
  </g>
</svg>

