<svg viewBox="0 0 24 24" xmlns="http://www.w3.org/2000/svg" fill="none">
  <g transform="translate(-432 -504)">
<path id="Icon" d="M451.5 522.439L447.664 518.603C448.369 517.613 448.69 516.331 448.384 514.971C448.011 513.315 446.675 511.978 445.017 511.612C441.75 510.892 438.892 513.75 439.612 517.018C439.978 518.676 441.315 520.012 442.971 520.384C444.331 520.69 445.613 520.37 446.603 519.664L450.439 523.5L451.5 522.439L451.5 522.439ZM444.814 518.893C442.533 519.496 440.503 517.464 441.108 515.184C441.374 514.183 442.185 513.373 443.186 513.108C445.467 512.504 447.497 514.537 446.892 516.816C446.625 517.818 445.815 518.627 444.814 518.893L444.814 518.893ZM453.8 516.268L453.751 516.14C452.258 512.211 448.067 509.25 444 509.25C439.933 509.25 435.742 512.211 434.251 516.138L434.201 516.268C434.052 516.655 433.619 516.848 433.232 516.7C432.845 516.552 432.652 516.118 432.8 515.732L432.849 515.603C434.549 511.127 439.344 507.75 444 507.75C448.657 507.75 453.451 511.127 455.152 515.605L455.201 515.732M444 524.25C439.344 524.25 434.55 520.873 432.848 516.394L432.8 516.27C432.651 515.884 432.844 515.449 433.23 515.3C433.616 515.152 434.051 515.343 434.2 515.73L434.25 515.858C435.743 519.789 439.934 522.75 444 522.75L444 524.25Z" fill="currentColor" fill-rule="nonzero" />
  </g>
</svg>

