<svg viewBox="0 0 24 24" xmlns="http://www.w3.org/2000/svg" fill="none">
  <g transform="translate(-360 -504)">
<path id="Icon" d="M361.882 526.404C361.994 526.467 362.121 526.5 362.25 526.5L381.75 526.5C381.879 526.5 382.006 526.467 382.118 526.404C382.23 526.34 382.324 526.249 382.391 526.139C382.458 526.029 382.495 525.904 382.5 525.775C382.504 525.646 382.475 525.518 382.415 525.404L372.665 506.654C372.602 506.532 372.507 506.43 372.389 506.359C372.272 506.288 372.137 506.25 372 506.25C371.863 506.25 371.728 506.288 371.611 506.359C371.493 506.43 371.398 506.532 371.335 506.654L361.585 525.404C361.525 525.518 361.496 525.646 361.5 525.775C361.505 525.904 361.542 526.029 361.609 526.139C361.676 526.249 361.77 526.34 361.882 526.404ZM380.514 524.998L380.512 525L363.488 525L363.487 524.998L371.999 508.629L372.002 508.629L380.514 524.998ZM372.75 513L372.75 519.75L371.25 519.75L371.25 513L372.75 513ZM372 521.25C371.778 521.25 371.56 521.316 371.375 521.44C371.19 521.563 371.046 521.739 370.961 521.944C370.876 522.15 370.853 522.376 370.897 522.594C370.94 522.813 371.047 523.013 371.205 523.171C371.362 523.328 371.562 523.435 371.781 523.478C371.999 523.522 372.225 523.5 372.431 523.414C372.636 523.329 372.812 523.185 372.935 523C373.059 522.815 373.125 522.598 373.125 522.375C373.125 522.177 373.073 521.984 372.974 521.812C372.876 521.641 372.734 521.5 372.563 521.401C372.392 521.302 372.198 521.25 372 521.25Z" fill="currentColor" fill-rule="evenodd" />
  </g>
</svg>

