<svg viewBox="0 0 24 24" xmlns="http://www.w3.org/2000/svg" fill="none">
  <g transform="translate(-216 -576)">
<path id="Icon" d="M222.167 579.27C223.893 578.116 225.923 577.5 228 577.5C229.843 577.5 231.654 577.985 233.25 578.907C234.846 579.828 236.172 581.154 237.093 582.75C238.015 584.346 238.5 586.157 238.5 588C238.5 590.077 237.884 592.107 236.73 593.833C235.577 595.56 233.937 596.906 232.018 597.701C230.1 598.495 227.988 598.703 225.952 598.298C223.915 597.893 222.044 596.893 220.575 595.425C219.107 593.956 218.107 592.085 217.702 590.048C217.297 588.012 217.505 585.9 218.299 583.982C219.094 582.063 220.44 580.423 222.167 579.27ZM223 595.483C224.48 596.472 226.22 597 228 597C229.58 597 231.132 596.584 232.5 595.794C233.868 595.004 235.004 593.868 235.794 592.5C236.584 591.132 237 589.58 237 588C237 586.22 236.472 584.48 235.483 583C234.494 581.52 233.089 580.366 231.444 579.685C229.8 579.004 227.99 578.826 226.244 579.173C224.498 579.52 222.895 580.377 221.636 581.636C220.377 582.895 219.52 584.498 219.173 586.244C218.826 587.99 219.004 589.8 219.685 591.444C220.366 593.089 221.52 594.494 223 595.483ZM228.75 582L228.75 590.25L227.25 590.25L227.25 582L228.75 582ZM228 592.5C227.778 592.5 227.56 592.566 227.375 592.69C227.19 592.813 227.046 592.989 226.961 593.194C226.875 593.4 226.853 593.626 226.897 593.844C226.94 594.063 227.047 594.263 227.205 594.421C227.362 594.578 227.562 594.685 227.781 594.728C227.999 594.772 228.225 594.75 228.431 594.664C228.636 594.579 228.812 594.435 228.935 594.25C229.059 594.065 229.125 593.848 229.125 593.625C229.125 593.427 229.073 593.234 228.974 593.062C228.876 592.891 228.734 592.75 228.562 592.651C228.391 592.552 228.197 592.5 228 592.5Z" fill="currentColor" fill-rule="evenodd" />
  </g>
</svg>

