<svg viewBox="0 0 24 24" xmlns="http://www.w3.org/2000/svg" fill="none">
  <g transform="translate(-72 -648)">
<path id="Icon" d="M94.5 669.45L88.9492 663.9C90.0742 662.4 90.75 660.525 90.75 658.5C90.75 653.55 86.6992 649.5 81.75 649.5C79.2754 649.5 76.9492 650.475 75.2246 652.35L76.3496 653.4C77.6992 651.825 79.6504 651 81.75 651C85.875 651 89.25 654.375 89.25 658.5C89.25 662.625 85.875 666 81.75 666C79.5 666 77.4004 665.025 75.9746 663.3L74.8496 664.275C76.5 666.3 79.0488 667.5 81.75 667.5C84.1504 667.5 86.3242 666.525 87.9746 665.025L93.4492 670.5L94.5 669.45ZM76.5 654.75L82.5 654.75L82.5 656.25L76.5 656.25L76.5 654.75ZM75 655.5C75 655.914 74.6641 656.25 74.25 656.25C73.8359 656.25 73.5 655.914 73.5 655.5C73.5 655.086 73.8359 654.75 74.25 654.75C74.6641 654.75 75 655.086 75 655.5ZM73.5 659.25L73.5 657.75L79.5 657.75L79.5 659.25L73.5 659.25ZM82.5 658.5C82.5 658.914 82.1641 659.25 81.75 659.25C81.3359 659.25 81 658.914 81 658.5C81 658.086 81.3359 657.75 81.75 657.75C82.1641 657.75 82.5 658.086 82.5 658.5ZM75 661.5C75 661.914 74.6641 662.25 74.25 662.25C73.8359 662.25 73.5 661.914 73.5 661.5C73.5 661.086 73.8359 660.75 74.25 660.75C74.6641 660.75 75 661.086 75 661.5ZM82.5 660.75L76.5 660.75L76.5 662.25L82.5 662.25L82.5 660.75Z" fill="currentColor" fill-rule="evenodd" />
  </g>
</svg>

