<svg viewBox="0 0 24 24" xmlns="http://www.w3.org/2000/svg" fill="none">
  <g transform="translate(-72 -576)">
<path id="Icon" d="M84.303 580.339C84.3239 580.281 84.3555 580.226 84.3975 580.176C84.4395 580.126 84.4871 580.085 84.5403 580.054C84.5936 580.023 84.6526 580.002 84.7171 579.99L92.86 578.509C92.8682 578.507 92.8763 578.506 92.8845 578.505C92.8921 578.504 92.8996 578.503 92.9073 578.502C92.9135 578.502 92.9198 578.501 92.926 578.501C92.9363 578.5 92.9468 578.5 92.9571 578.5C93.032 578.5 93.1015 578.513 93.1655 578.54C93.2295 578.566 93.2879 578.606 93.341 578.659C93.394 578.712 93.4337 578.77 93.4602 578.834C93.4867 578.898 93.5 578.968 93.5 579.043L93.5 586.371C93.5 586.446 93.4867 586.516 93.4602 586.58C93.4337 586.644 93.394 586.702 93.341 586.755C93.2879 586.808 93.2295 586.848 93.1655 586.875C93.1015 586.901 93.032 586.914 92.9571 586.914L84.8143 586.914C84.7394 586.914 84.67 586.901 84.6059 586.875C84.5419 586.848 84.4835 586.808 84.4305 586.755C84.3775 586.702 84.3377 586.644 84.3112 586.58C84.2847 586.516 84.2714 586.446 84.2714 586.371L84.2714 580.524C84.2714 580.458 84.2819 580.396 84.303 580.339ZM85.3571 585.829L85.3571 580.977L92.4143 579.693L92.4143 585.829L85.3571 585.829ZM74.5315 582.115C74.5526 582.057 74.584 582.002 74.626 581.952C74.6681 581.902 74.7158 581.861 74.769 581.83C74.8223 581.799 74.8812 581.778 74.9457 581.766L81.46 580.581C81.4681 580.58 81.4762 580.578 81.4844 580.577C81.4921 580.576 81.4998 580.575 81.5074 580.575C81.5137 580.574 81.5199 580.574 81.5261 580.573C81.5365 580.573 81.5468 580.572 81.5571 580.572C81.632 580.572 81.7015 580.586 81.7655 580.612C81.8295 580.639 81.8879 580.678 81.941 580.731C81.994 580.784 82.0337 580.843 82.0602 580.907C82.0867 580.971 82.1 581.04 82.1 581.115L82.1 586.371C82.1 586.446 82.0867 586.516 82.0602 586.58C82.0337 586.644 81.994 586.702 81.941 586.755C81.8879 586.808 81.8295 586.848 81.7655 586.875C81.7015 586.901 81.632 586.914 81.5571 586.914L75.0429 586.914C74.968 586.914 74.8985 586.901 74.8345 586.875C74.7705 586.848 74.7121 586.808 74.659 586.755C74.606 586.702 74.5663 586.644 74.5398 586.58C74.5133 586.516 74.5 586.446 74.5 586.371L74.5 582.3C74.5 582.234 74.5105 582.172 74.5315 582.115ZM75.5857 585.828L75.5857 582.753L81.0143 581.766L81.0143 585.828L75.5857 585.828ZM74.5 593.7L74.5 589.629C74.5 589.554 74.5133 589.484 74.5398 589.42C74.5663 589.356 74.606 589.298 74.659 589.245C74.7121 589.192 74.7705 589.152 74.8345 589.125C74.8984 589.099 74.968 589.086 75.0429 589.086L81.5571 589.086C81.632 589.086 81.7015 589.099 81.7655 589.125C81.8295 589.152 81.8879 589.192 81.941 589.245C81.994 589.298 82.0337 589.356 82.0602 589.42C82.0867 589.484 82.1 589.554 82.1 589.629L82.1 594.885C82.1 594.96 82.0867 595.029 82.0602 595.093C82.0337 595.157 81.994 595.216 81.941 595.269C81.8879 595.322 81.8295 595.361 81.7655 595.388C81.7015 595.414 81.632 595.428 81.5571 595.428C81.5485 595.428 81.5398 595.427 81.5312 595.427C81.5233 595.427 81.5155 595.426 81.5077 595.425C81.4986 595.425 81.4895 595.424 81.4805 595.422C81.4736 595.421 81.4668 595.42 81.46 595.419L74.9457 594.234C74.8812 594.222 74.8223 594.201 74.769 594.17C74.7158 594.139 74.6681 594.098 74.626 594.048C74.584 593.997 74.5525 593.943 74.5315 593.885C74.5105 593.827 74.5 593.766 74.5 593.7ZM84.2714 595.477L84.2714 589.629C84.2714 589.554 84.2847 589.484 84.3112 589.42C84.3377 589.356 84.3775 589.298 84.4305 589.245C84.4835 589.192 84.5419 589.152 84.6059 589.125C84.67 589.099 84.7394 589.086 84.8143 589.086L92.9571 589.086C93.032 589.086 93.1015 589.099 93.1655 589.125C93.2295 589.152 93.2879 589.192 93.341 589.245C93.394 589.298 93.4337 589.356 93.4602 589.42C93.4867 589.484 93.5 589.554 93.5 589.629L93.5 596.957C93.5 597.032 93.4867 597.102 93.4602 597.165C93.4337 597.229 93.394 597.288 93.341 597.341C93.2879 597.394 93.2295 597.434 93.1655 597.46C93.1015 597.487 93.032 597.5 92.9571 597.5C92.9483 597.5 92.9394 597.5 92.9304 597.499C92.9232 597.499 92.9161 597.498 92.9088 597.498C92.9017 597.497 92.8949 597.496 92.888 597.496C92.8786 597.494 92.8693 597.493 92.8601 597.491L84.7173 596.011C84.6526 596 84.5936 595.978 84.5403 595.947C84.4871 595.916 84.4395 595.875 84.3975 595.825C84.3555 595.775 84.3239 595.721 84.303 595.663C84.2819 595.605 84.2714 595.543 84.2714 595.477ZM81.0143 594.234L75.5857 593.247L75.5857 590.171L81.0143 590.171L81.0143 594.234ZM92.4143 596.307L85.3571 595.024L85.3571 590.171L92.4143 590.171L92.4143 596.307Z" fill="currentColor" fill-rule="evenodd" />
  </g>
</svg>

