<svg viewBox="0 0 24 24" xmlns="http://www.w3.org/2000/svg" fill="none">
  <g transform="translate(-72 -432)">
<path id="Icon" d="M73.5 438L75 438L75 435L78 435L78 433.5L75 433.5C74.6023 433.5 74.2207 433.658 73.9395 433.939C73.6582 434.221 73.5 434.602 73.5 435L73.5 438ZM84 433.5L81 433.5L81 435L84 435L84 433.5ZM90 438L91.5 438L91.5 435C91.5 434.602 91.3418 434.221 91.0605 433.939C90.7793 433.658 90.3977 433.5 90 433.5L87 433.5L87 435L90 435L90 438ZM91.734 450.673L95.25 454.19L94.1895 455.25L90.6727 451.734C89.4628 452.673 87.9401 453.116 86.4152 452.972C84.8903 452.828 83.4774 452.109 82.4641 450.96C81.4512 449.811 80.9143 448.319 80.9626 446.788C81.011 445.257 81.6409 443.802 82.7245 442.719C83.8081 441.636 85.2634 441.007 86.7946 440.96C88.3257 440.913 89.8173 441.451 90.9657 442.464C92.1138 443.478 92.8326 444.892 92.9755 446.417C93.1183 447.942 92.6741 449.464 91.734 450.673ZM75 441L73.5 441L73.5 444L75 444L75 441ZM84.4999 450.742C85.24 451.236 86.1101 451.5 87 451.5C88.1931 451.499 89.3368 451.024 90.1805 450.18C91.0239 449.337 91.4985 448.193 91.5 447C91.5 446.11 91.236 445.24 90.7416 444.5C90.2472 443.76 89.5444 443.183 88.7219 442.842C87.8998 442.502 86.9949 442.413 86.1222 442.587C85.2491 442.76 84.4475 443.189 83.818 443.818C83.1885 444.447 82.76 445.249 82.5864 446.122C82.4128 446.995 82.5018 447.9 82.8424 448.722C83.183 449.544 83.7598 450.247 84.4999 450.742ZM90 446.25L84 446.25L84 447.75L90 447.75L90 446.25ZM75 451.5L78 451.5L78 450L75 450L75 447L73.5 447L73.5 450C73.5 450.398 73.6582 450.779 73.9395 451.061C74.2207 451.342 74.6023 451.5 75 451.5Z" fill="currentColor" fill-rule="evenodd" />
  </g>
</svg>

