<svg viewBox="0 0 24 24" xmlns="http://www.w3.org/2000/svg" fill="none">
  <g transform="translate(-144 -432)">
<path id="Icon" d="M160.836 447.75C162.073 446.28 162.751 444.421 162.75 442.5C162.751 440.847 162.256 439.232 161.328 437.865C160.4 436.497 159.082 435.44 157.546 434.831C156.009 434.222 154.325 434.088 152.712 434.448C151.099 434.808 149.632 435.645 148.5 436.849L148.5 433.5L147 433.5L147 439.5L153 439.5L153 438L149.499 438C150.511 436.882 151.869 436.136 153.355 435.881C154.841 435.627 156.37 435.878 157.696 436.596C159.022 437.314 160.069 438.456 160.669 439.84C161.269 441.223 161.386 442.768 161.004 444.227C160.621 445.685 159.759 446.973 158.557 447.884C157.355 448.794 155.883 449.275 154.375 449.249C152.867 449.223 151.412 448.691 150.242 447.74C149.072 446.788 148.256 445.471 147.924 444L146.394 444C146.746 445.894 147.748 447.605 149.229 448.838C150.709 450.071 152.574 450.747 154.5 450.75C156.421 450.751 158.281 450.073 159.75 448.836L165.44 454.5L166.5 453.44L160.836 447.75Z" fill="currentColor" fill-rule="nonzero" />
  </g>
</svg>

