<svg viewBox="0 0 24 24" xmlns="http://www.w3.org/2000/svg" fill="none">
  <g transform="translate(-720 -360)">
<path id="Icon" d="M738 369.75C738.001 371.671 737.323 373.531 736.086 375L741.75 380.69L740.69 381.75L735 376.086C733.53 377.323 731.671 378.001 729.75 378C728.118 378 726.523 377.516 725.167 376.61C723.81 375.703 722.752 374.415 722.128 372.907C721.504 371.4 721.34 369.741 721.659 368.141C721.977 366.54 722.763 365.07 723.916 363.916C725.07 362.763 726.54 361.977 728.141 361.659C729.741 361.34 731.4 361.504 732.907 362.128C734.415 362.752 735.703 363.81 736.61 365.167C737.516 366.523 738 368.118 738 369.75ZM726 375.362C727.11 376.104 728.415 376.5 729.75 376.5C731.54 376.498 733.255 375.786 734.521 374.521C735.786 373.255 736.498 371.54 736.5 369.75C736.5 368.415 736.104 367.11 735.363 366C734.621 364.89 733.567 364.025 732.333 363.514C731.1 363.003 729.743 362.869 728.433 363.13C727.124 363.39 725.921 364.033 724.977 364.977C724.033 365.921 723.39 367.124 723.13 368.433C722.869 369.742 723.003 371.1 723.514 372.333C724.025 373.567 724.89 374.621 726 375.362ZM730.5 369L733.5 369L733.5 370.5L730.5 370.5L730.5 373.5L729 373.5L729 370.5L726 370.5L726 369L729 369L729 366L730.5 366L730.5 369Z" fill="currentColor" fill-rule="evenodd" />
  </g>
</svg>

