<svg viewBox="0 0 24 24" xmlns="http://www.w3.org/2000/svg" fill="none">
  <g transform="translate(-648 -360)">
<path id="Icon" d="M666 369.75C666.001 371.671 665.323 373.531 664.086 375L669.75 380.69L668.69 381.75L663 376.086C661.53 377.323 659.671 378.001 657.75 378C656.118 378 654.523 377.516 653.167 376.61C651.81 375.703 650.752 374.415 650.128 372.907C649.504 371.4 649.34 369.741 649.659 368.141C649.977 366.54 650.763 365.07 651.916 363.916C653.07 362.763 654.54 361.977 656.141 361.659C657.741 361.34 659.4 361.504 660.907 362.128C662.415 362.752 663.703 363.81 664.61 365.167C665.516 366.523 666 368.118 666 369.75ZM654 375.362C655.11 376.104 656.415 376.5 657.75 376.5C659.54 376.498 661.255 375.786 662.521 374.521C663.786 373.255 664.498 371.54 664.5 369.75C664.5 368.415 664.104 367.11 663.363 366C662.621 364.89 661.567 364.025 660.333 363.514C659.1 363.003 657.743 362.869 656.433 363.13C655.124 363.39 653.921 364.033 652.977 364.977C652.033 365.921 651.39 367.124 651.13 368.433C650.869 369.742 651.003 371.1 651.514 372.333C652.025 373.567 652.89 374.621 654 375.362ZM654 369L655.5 369L655.5 367.5L657 367.5L657 366L655.5 366C655.102 366 654.721 366.158 654.439 366.439C654.158 366.721 654 367.102 654 367.5L654 369ZM660 369L661.5 369L661.5 367.5C661.5 367.102 661.342 366.721 661.061 366.439C660.779 366.158 660.398 366 660 366L658.5 366L658.5 367.5L660 367.5L660 369ZM655.5 373.5L657 373.5L657 372L655.5 372L655.5 370.5L654 370.5L654 372C654 372.398 654.158 372.779 654.439 373.061C654.721 373.342 655.102 373.5 655.5 373.5ZM658.5 373.5L660 373.5C660.398 373.5 660.779 373.342 661.061 373.061C661.342 372.779 661.5 372.398 661.5 372L661.5 370.5L660 370.5L660 372L658.5 372L658.5 373.5Z" fill="currentColor" fill-rule="evenodd" />
  </g>
</svg>

