<svg viewBox="0 0 24 24" xmlns="http://www.w3.org/2000/svg" fill="none">
  <g transform="translate(-792 -360)">
<path id="Icon" d="M810 369.75C810.001 371.671 809.323 373.531 808.086 375L813.75 380.69L812.69 381.75L807 376.086C805.53 377.323 803.671 378.001 801.75 378C800.118 378 798.523 377.516 797.167 376.61C795.81 375.703 794.752 374.415 794.128 372.907C793.504 371.4 793.34 369.741 793.659 368.141C793.977 366.54 794.763 365.07 795.916 363.916C797.07 362.763 798.54 361.977 800.141 361.659C801.741 361.34 803.4 361.504 804.907 362.128C806.415 362.752 807.703 363.81 808.61 365.167C809.516 366.523 810 368.118 810 369.75ZM798 375.362C799.11 376.104 800.415 376.5 801.75 376.5C803.54 376.498 805.255 375.786 806.521 374.521C807.786 373.255 808.498 371.54 808.5 369.75C808.5 368.415 808.104 367.11 807.363 366C806.621 364.89 805.567 364.025 804.333 363.514C803.1 363.003 801.743 362.869 800.433 363.13C799.124 363.39 797.921 364.033 796.977 364.977C796.033 365.921 795.39 367.124 795.13 368.433C794.869 369.742 795.003 371.1 795.514 372.333C796.025 373.567 796.89 374.621 798 375.362ZM805.5 369L798 369L798 370.5L805.5 370.5L805.5 369Z" fill="currentColor" fill-rule="evenodd" />
  </g>
</svg>

