<svg viewBox="0 0 24 24" xmlns="http://www.w3.org/2000/svg" fill="none">
  <g transform="translate(-576 -360)">
<path id="Icon" d="M599.25 382.19L595.734 378.673C596.674 377.464 597.118 375.942 596.975 374.417C596.833 372.892 596.114 371.478 594.966 370.464C593.817 369.451 592.326 368.913 590.795 368.96C589.264 369.007 587.808 369.636 586.725 370.719C585.641 371.802 585.011 373.257 584.963 374.788C584.914 376.319 585.451 377.811 586.464 378.96C587.477 380.109 588.89 380.828 590.415 380.972C591.94 381.116 593.463 380.673 594.673 379.734L598.19 383.25L599.25 382.19ZM591 379.5C590.11 379.5 589.24 379.236 588.5 378.742C587.76 378.247 587.183 377.544 586.843 376.722C586.502 375.9 586.413 374.995 586.586 374.122C586.76 373.249 587.189 372.447 587.818 371.818C588.447 371.189 589.249 370.76 590.122 370.586C590.995 370.413 591.9 370.502 592.722 370.843C593.544 371.183 594.247 371.76 594.742 372.5C595.236 373.24 595.5 374.11 595.5 375C595.499 376.193 595.024 377.337 594.18 378.18C593.337 379.024 592.193 379.499 591 379.5ZM582 379.5L579 379.5C578.602 379.5 578.221 379.342 577.939 379.061C577.658 378.779 577.5 378.398 577.5 378L577.5 375L579 375L579 378L582 378L582 379.5ZM577.5 369L579 369L579 372L577.5 372L577.5 369ZM595.5 366L594 366L594 363L591 363L591 361.5L594 361.5C594.398 361.5 594.779 361.658 595.061 361.939C595.342 362.221 595.5 362.602 595.5 363L595.5 366ZM585 361.5L588 361.5L588 363L585 363L585 361.5ZM579 366L577.5 366L577.5 363C577.5 362.602 577.658 362.221 577.939 361.939C578.221 361.658 578.602 361.5 579 361.5L582 361.5L582 363L579 363L579 366Z" fill="currentColor" fill-rule="nonzero" />
  </g>
</svg>

