<?xml version="1.0" encoding="UTF-8"?>
<svg id="_Слой_1" data-name="Слой_1" xmlns="http://www.w3.org/2000/svg" version="1.1" viewBox="0 0 387 363">
  <!-- Generator: Adobe Illustrator 29.8.1, SVG Export Plug-In . SVG Version: 2.1.1 Build 2)  -->
  <defs>
    <style>
      .st0 {
        stroke-width: 28.35px;
      }

      .st0, .st1 {
        stroke: #fff;
      }

      .st0, .st1, .st2 {
        fill: none;
        stroke-miterlimit: 10;
      }

      .st3 {
        fill: #333d42;
      }

      .st4 {
        fill: #fff;
      }

      .st1 {
        stroke-width: 22.68px;
      }

      .st5 {
        fill: #546972;
      }

      .st6 {
        display: none;
      }

      .st7 {
        fill: #1d1d1b;
      }

      .st2 {
        stroke: #00ff30;
        stroke-width: .71px;
      }
    </style>
  </defs>
  <g id="_Слой_11" data-name="_Слой_1" class="st6">
    <polygon class="st7" points="287.6 19.7 99.3 19.7 5.16 182.77 99.3 345.84 287.6 345.84 381.75 182.77 287.6 19.7"/>
    <polyline class="st1" points="372.75 121.89 158.3 121.89 123.15 182.77 158.3 243.65 228.6 243.65"/>
  </g>
  <g id="_Слой_1_копия_2" class="st6">
    <polygon class="st7" points="287.6 19.7 99.3 19.7 5.16 182.77 99.3 345.84 287.6 345.84 381.75 182.77 287.6 19.7"/>
    <polygon class="st4" points="258.82 296 128.08 296 62.7 182.77 128.08 69.54 259.53 69.54 280.5 106.39 149.35 106.39 105.26 182.77 149.35 259.15 237.55 259.15 271.01 201.2 173.61 201.2 193.45 164.35 313.23 164.35 324.2 182.77 258.82 296"/>
  </g>
  <g id="_Слой_1_копия_4" class="st6">
    <polygon class="st7" points="287.6 19.7 99.3 19.7 5.16 182.77 99.3 345.84 287.6 345.84 381.75 182.77 287.6 19.7"/>
    <polygon class="st5" points="287.6 19.7 99.3 19.7 5.16 182.77 99.3 345.84 287.6 19.7"/>
    <path class="st0" d="M287.6,182.77c0,52-42.15,94.15-94.15,94.15s-94.15-42.15-94.15-94.15,42.15-94.15,94.15-94.15c17.15,0,33.23,4.59,47.08,12.6"/>
    <polygon class="st4" points="273.83 211.1 176.98 211.1 193.43 182.76 273.83 182.76 273.83 211.1"/>
  </g>
  <g id="_Слой_1_копия_3">
    <polygon class="st3" points="287.6 19.7 99.3 19.7 5.16 182.77 99.3 345.84 287.6 345.84 381.75 182.77 287.6 19.7"/>
    <polygon class="st5" points="287.6 19.7 99.3 19.7 5.16 182.77 99.3 345.84 287.6 19.7"/>
    <polygon class="st4" points="258.82 296 128.08 296 62.7 182.77 128.08 69.54 259.53 69.54 280.5 106.39 149.35 106.39 105.26 182.77 149.35 259.15 237.55 259.15 271.01 201.2 182.96 201.2 203.94 164.35 313.23 164.35 324.2 182.77 258.82 296"/>
  </g>
  <g id="_Слой_1__x28_копия_x29_" class="st6">
    <polygon class="st7" points="287.6 19.7 99.3 19.7 5.16 182.77 99.3 345.84 287.6 345.84 381.75 182.77 287.6 19.7"/>
    <polygon class="st4" points="234.27 254.99 151.76 254.99 110.06 182.77 151.76 110.55 372.75 110.55 372.75 133.23 164.85 133.23 136.25 182.77 164.85 232.32 247.59 232.32 234.27 254.99"/>
  </g>
  <g id="_Слой_1__x28_копия2_x29_" class="st6">
    <polygon class="st7" points="287.6 19.7 99.3 19.7 5.16 182.77 99.3 345.84 287.6 345.84 381.75 182.77 287.6 19.7"/>
    <polygon class="st4" points="234.27 254.99 151.76 254.99 110.06 182.77 151.76 110.55 372.75 110.55 444.42 186.32 358.41 231.86 299.08 133.23 191.49 133.23 162.89 182.77 191.49 232.32 247.59 232.32 234.27 254.99"/>
  </g>
  <g id="_Слой_2" class="st6">
    <line class="st2" x1="230.34" y1="19.7" x2="324.49" y2="182.77"/>
  </g>
</svg>